<svg width="16" height="17" viewBox="0 0 16 17" fill="none" xmlns="http://www.w3.org/2000/svg">
<g id="Values (Dark)">
<path id="Vector" d="M8.00031 10.5456L9.60031 8.94562C10.0403 8.50563 10.0403 7.78562 9.60031 7.34562C9.16031 6.90562 8.44031 6.90562 8.00031 7.34562C7.56031 6.90562 6.84031 6.90562 6.40031 7.34562C5.96031 7.78562 5.96031 8.50563 6.40031 8.94562L8.00031 10.5456Z" fill="#816BD9"/>
<path id="Vector_2" d="M14.5 8.49063C14.5 7.47063 13.7 6.57063 12.4 5.94563C12.4 5.91063 12.405 5.87563 12.41 5.84563C12.495 4.41063 12.085 3.35063 11.25 2.87063C10.365 2.36063 9.185 2.60563 7.995 3.41563C7.965 3.39563 7.935 3.37563 7.905 3.35563C6.705 2.56063 5.585 2.39063 4.75 2.87063C3.915 3.35063 3.505 4.41063 3.59 5.84563C3.59 5.88063 3.595 5.91563 3.6 5.94563C2.305 6.57063 1.5 7.47063 1.5 8.49063C1.5 9.51063 2.3 10.4106 3.595 11.0356C3.485 12.4706 3.865 13.6206 4.75 14.1306C5.06 14.3106 5.41 14.4006 5.79 14.4006C6.43 14.4006 7.155 14.1456 7.905 13.6506C7.935 13.6306 7.965 13.6106 7.995 13.5856C8.765 14.1106 9.53 14.3956 10.21 14.3956C10.585 14.3956 10.935 14.3106 11.245 14.1306C12.13 13.6206 12.51 12.4706 12.4 11.0356C13.695 10.4106 14.495 9.51063 14.495 8.49063H14.5ZM10.89 3.49063C11.445 3.81063 11.735 4.59563 11.7 5.65563C11.155 5.46063 10.545 5.30563 9.885 5.20563C9.48 4.70063 9.045 4.25563 8.6 3.88063C9.475 3.33063 10.305 3.15563 10.89 3.49563V3.49063ZM4.63 9.47063C4.755 9.72063 4.885 9.97063 5.025 10.2156C5.165 10.4606 5.315 10.6956 5.465 10.9206C5.075 10.8306 4.705 10.7156 4.37 10.5856C4.425 10.2306 4.515 9.85563 4.63 9.47063ZM4.365 6.40063C4.705 6.27063 5.08 6.15563 5.475 6.06063C5.32 6.29063 5.17 6.53563 5.025 6.78563C4.88 7.03563 4.75 7.28563 4.625 7.53063C4.51 7.14563 4.42 6.76563 4.365 6.39563V6.40063ZM4.975 8.50563C5.16 8.05563 5.385 7.59563 5.645 7.14563C5.905 6.69063 6.19 6.26563 6.49 5.88063C6.97 5.81563 7.475 5.78563 7.995 5.78563C8.515 5.78563 9.02 5.82063 9.5 5.88563C9.8 6.27563 10.085 6.70063 10.345 7.15063C10.605 7.60063 10.83 8.06063 11.015 8.51063C10.825 8.96063 10.6 9.41563 10.345 9.86563C10.09 10.3106 9.81 10.7306 9.515 11.1156C9.03 11.1806 8.52 11.2156 7.995 11.2156C7.47 11.2156 6.965 11.1806 6.48 11.1156C6.185 10.7306 5.905 10.3106 5.645 9.86563C5.385 9.42063 5.165 8.96563 4.975 8.51063V8.50563ZM10.965 10.2156C11.105 9.97063 11.24 9.72063 11.36 9.47063C11.475 9.85563 11.565 10.2306 11.62 10.5856C11.285 10.7156 10.915 10.8256 10.525 10.9206C10.68 10.6906 10.825 10.4556 10.965 10.2156ZM11.365 7.53563C11.24 7.28563 11.11 7.03563 10.965 6.79063C10.82 6.54063 10.67 6.30063 10.515 6.06563C10.91 6.16063 11.285 6.27063 11.625 6.40563C11.57 6.77563 11.48 7.15063 11.365 7.54063V7.53563ZM7.995 4.31563C8.28 4.54563 8.56 4.80563 8.835 5.09563C8.56 5.07563 8.28 5.07063 7.995 5.07063C7.71 5.07063 7.435 5.08063 7.16 5.09563C7.435 4.80563 7.715 4.54063 7.995 4.31563ZM5.105 3.49563C5.3 3.38063 5.53 3.32563 5.785 3.32563C6.255 3.32563 6.805 3.51563 7.395 3.88063C6.955 4.25063 6.52 4.70063 6.11 5.21063C5.455 5.31063 4.845 5.46563 4.3 5.66063C4.265 4.60063 4.555 3.81563 5.11 3.49563H5.105ZM3.69 10.2856C2.775 9.80563 2.21 9.17563 2.21 8.49563C2.21 7.81563 2.775 7.18563 3.69 6.70563C3.795 7.28563 3.965 7.89063 4.2 8.50063C3.96 9.11563 3.79 9.71563 3.69 10.2856ZM5.105 13.5106C4.515 13.1706 4.255 12.3656 4.295 11.3306C4.84 11.5256 5.445 11.6806 6.095 11.7806C6.51 12.3006 6.95 12.7506 7.395 13.1256C6.49 13.6906 5.665 13.8306 5.11 13.5106H5.105ZM7.145 11.8956C7.425 11.9156 7.705 11.9256 7.995 11.9256C8.285 11.9256 8.57 11.9156 8.85 11.8956C8.575 12.1906 8.285 12.4556 7.995 12.6906C7.71 12.4606 7.425 12.1956 7.145 11.8956ZM10.885 13.5106C10.295 13.8506 9.47 13.6756 8.595 13.1256C9.045 12.7456 9.485 12.2906 9.895 11.7806C10.545 11.6806 11.15 11.5256 11.695 11.3306C11.735 12.3656 11.475 13.1706 10.885 13.5106ZM12.3 10.2856C12.195 9.71563 12.025 9.11563 11.79 8.50063C12.025 7.89063 12.195 7.28563 12.3 6.70563C13.215 7.18563 13.78 7.81563 13.78 8.49563C13.78 9.17563 13.215 9.80563 12.3 10.2856Z" fill="#816BD9"/>
</g>
</svg>
