<svg width="87" height="86" viewBox="0 0 87 86" fill="none" xmlns="http://www.w3.org/2000/svg">
<g id="&#240;&#159;&#166;&#134; icon &#34;target arrow&#34;">
<path id="Vector" d="M43.5 46.791C45.7091 46.791 47.5 45.0002 47.5 42.791C47.5 40.5819 45.7091 38.791 43.5 38.791C41.2909 38.791 39.5 40.5819 39.5 42.791C39.5 45.0002 41.2909 46.791 43.5 46.791Z" stroke="#5E608A" stroke-width="10" stroke-linecap="round" stroke-linejoin="round"/>
<path id="Vector_2" d="M43.5002 21.991C39.3863 21.991 35.3649 23.2109 31.9443 25.4964C28.5238 27.7819 25.8578 31.0304 24.2835 34.8311C22.7092 38.6319 22.2973 42.814 23.0999 46.8488C23.9024 50.8836 25.8835 54.5898 28.7924 57.4988C31.7013 60.4077 35.4075 62.3887 39.4423 63.1913C43.4771 63.9939 47.6593 63.582 51.46 62.0077C55.2607 60.4333 58.5092 57.7674 60.7948 54.3468C63.0803 50.9263 64.3002 46.9048 64.3002 42.791" stroke="#5E608A" stroke-width="10" stroke-linecap="round" stroke-linejoin="round"/>
<path id="Vector_3" d="M47.6923 5.42536C39.947 4.55643 32.1231 6.11586 25.3028 9.88794C18.4825 13.66 13.003 19.4583 9.62214 26.4808C6.24129 33.5032 5.12624 41.4027 6.43124 49.0866C7.73623 56.7704 11.3968 63.8589 16.9065 69.3714C22.4162 74.8839 29.5028 78.548 37.1861 79.8569C44.8693 81.1658 52.7693 80.0547 59.7935 76.6774C66.8176 73.3001 72.6187 67.8234 76.3942 61.005C80.1697 54.1867 81.7331 46.3635 80.868 38.6178" stroke="#5E608A" stroke-width="10" stroke-linecap="round" stroke-linejoin="round"/>
<path id="Vector_4" d="M56.2998 17.5909V29.9909H68.6998L81.0998 17.5909H68.6998V5.19092L56.2998 17.5909Z" stroke="#5E608A" stroke-width="10" stroke-linecap="round" stroke-linejoin="round"/>
<path id="Vector_5" d="M56.3 29.991L43.5 42.791" stroke="#5E608A" stroke-width="10" stroke-linecap="round" stroke-linejoin="round"/>
</g>
</svg>
