<svg width="81" height="81" viewBox="0 0 81 81" fill="none" xmlns="http://www.w3.org/2000/svg">
<g id="&#240;&#159;&#166;&#134; icon &#34;Gavel&#34;">
<path id="Vector" d="M79.4017 31.9415L75.8662 28.406C74.4017 26.9415 72.0273 26.9415 70.563 28.406L69.6791 29.2899L52.0012 11.6122L52.8851 10.7283C54.3497 9.26379 54.3497 6.88942 52.8851 5.42504L49.3497 1.88941C47.8851 0.424883 45.5108 0.424883 44.0464 1.88941L24.6009 21.3349C23.1364 22.7994 23.1364 25.1738 24.6009 26.6382L28.1364 30.1737C29.6009 31.6382 31.9753 31.6382 33.4397 30.1737L34.3236 29.2897L40.5108 35.4769L27.8483 48.1394L26.9643 47.2555C25.0117 45.3029 21.8459 45.3029 19.8933 47.2555L1.96449 65.1846C0.0118356 67.1373 0.0118356 70.303 1.96449 72.2557L9.03559 79.3268C10.9882 81.2795 14.154 81.2795 16.1067 79.3268L34.0356 61.3979C35.9883 59.4452 35.9883 56.2794 34.0356 54.3268L33.1517 53.4429L45.8142 40.7804L52.0014 46.9676L51.1175 47.8515C49.653 49.316 49.653 51.6904 51.1175 53.1548L54.653 56.6902C56.1175 58.1548 58.4919 58.1548 59.9562 56.6902L79.4017 37.2447C80.8661 35.7804 80.8661 33.406 79.4017 31.9415Z" fill="#5E608A"/>
</g>
</svg>
