<svg width="81" height="72" viewBox="0 0 81 72" fill="none" xmlns="http://www.w3.org/2000/svg">
<g id="&#240;&#159;&#166;&#134; icon &#34;Brain&#34;">
<path id="Vector" d="M29.3889 0.67981C25.2361 0.67981 21.7917 3.52703 20.8056 7.37425C20.6944 7.37425 20.6111 7.34648 20.5 7.34648C15.5972 7.34648 11.6111 11.3326 11.6111 16.2354C11.6111 16.902 11.6944 17.5548 11.8472 18.1798C7.79167 19.8465 4.94444 23.8187 4.94444 28.4576C4.94444 30.2076 5.38889 31.8326 6.09722 33.3048C2.76389 35.2215 0.5 38.777 0.5 42.902C0.5 47.527 3.33333 51.4992 7.36111 53.1659C7.23611 53.8048 7.16667 54.4576 7.16667 55.1243C7.16667 60.652 11.6389 65.1243 17.1667 65.1243C17.7361 65.1243 18.2917 65.0548 18.8333 64.9576C20.1667 68.9159 23.8611 71.7909 28.2778 71.7909C33.8056 71.7909 38.2778 67.3187 38.2778 61.7909V9.5687C38.2778 4.66592 34.2917 0.67981 29.3889 0.67981ZM80.5 42.902C80.5 38.777 78.2361 35.2215 74.9028 33.3048C75.625 31.8326 76.0556 30.2076 76.0556 28.4576C76.0556 23.8187 73.2083 19.8465 69.1528 18.1798C69.2917 17.5548 69.3889 16.902 69.3889 16.2354C69.3889 11.3326 65.4028 7.34648 60.5 7.34648C60.3889 7.34648 60.2917 7.37425 60.1944 7.37425C59.2083 3.52703 55.7639 0.67981 51.6111 0.67981C46.7083 0.67981 42.7222 4.65203 42.7222 9.5687V61.7909C42.7222 67.3187 47.1944 71.7909 52.7222 71.7909C57.1389 71.7909 60.8333 68.9159 62.1667 64.9576C62.7083 65.0548 63.2639 65.1243 63.8333 65.1243C69.3611 65.1243 73.8333 60.652 73.8333 55.1243C73.8333 54.4576 73.7639 53.8048 73.6389 53.1659C77.6667 51.4992 80.5 47.527 80.5 42.902Z" fill="#5E608A"/>
</g>
</svg>
