<svg width="81" height="84" viewBox="0 0 81 84" fill="none" xmlns="http://www.w3.org/2000/svg">
<g id="&#240;&#159;&#166;&#134; icon &#34;cog&#34;">
<path id="Vector" d="M79.4782 51.826L72.3007 47.6813C73.0252 43.7725 73.0252 39.7625 72.3007 35.8537L79.4782 31.709C80.3037 31.2372 80.6744 30.26 80.4048 29.3502C78.5347 23.3521 75.3503 17.9269 71.1887 13.4115C70.5485 12.7207 69.5039 12.5523 68.6952 13.024L61.5177 17.1687C58.5018 14.5741 55.0311 12.5691 51.2739 11.2549V2.98233C51.2739 2.03882 50.6168 1.21325 49.6901 1.01107C43.5067 -0.370508 37.1717 -0.303114 31.2916 1.01107C30.3649 1.21325 29.7078 2.03882 29.7078 2.98233V11.2718C25.9675 12.6028 22.4967 14.6078 19.464 17.1856L12.3034 13.0409C11.4778 12.5691 10.45 12.7207 9.8098 13.4284C5.64823 17.9269 2.46388 23.3521 0.593698 29.367C0.307274 30.2768 0.694788 31.254 1.52036 31.7258L8.69781 35.8705C7.97332 39.7794 7.97332 43.7893 8.69781 47.6981L1.52036 51.8429C0.694788 52.3146 0.324122 53.2918 0.593698 54.2016C2.46388 60.1997 5.64823 65.6249 9.8098 70.1403C10.45 70.8311 11.4946 70.9996 12.3034 70.5278L19.4808 66.3831C22.4967 68.9777 25.9675 70.9827 29.7247 72.2969V80.5863C29.7247 81.5298 30.3818 82.3554 31.3084 82.5576C37.4918 83.9392 43.8268 83.8718 49.707 82.5576C50.6336 82.3554 51.2907 81.5298 51.2907 80.5863V72.2969C55.0311 70.9659 58.5018 68.9609 61.5346 66.3831L68.712 70.5278C69.5376 70.9996 70.5653 70.8479 71.2056 70.1403C75.3671 65.6418 78.5515 60.2165 80.4217 54.2016C80.6744 53.275 80.3037 52.2978 79.4782 51.826ZM40.4908 55.2463C33.0607 55.2463 27.0121 49.1977 27.0121 41.7675C27.0121 34.3373 33.0607 28.2887 40.4908 28.2887C47.921 28.2887 53.9696 34.3373 53.9696 41.7675C53.9696 49.1977 47.921 55.2463 40.4908 55.2463Z" fill="#5E608A"/>
</g>
</svg>
