<svg width="32" height="32" viewBox="0 0 32 32" fill="none" xmlns="http://www.w3.org/2000/svg">
<path d="M16.2205 4.32001L2.81055 13.74V28.54H29.6205V13.74L16.2105 4.32001H16.2205ZM20.8305 22.31C20.6305 22.51 20.3705 22.61 20.1105 22.61C19.8505 22.61 19.6105 22.52 19.4105 22.33C18.9905 21.92 18.5005 21.6 17.9505 21.38C16.8505 20.93 15.5905 20.93 14.4805 21.38C13.9305 21.6 13.4405 21.92 13.0205 22.33C12.6205 22.72 11.9905 22.71 11.6105 22.31C11.2205 21.91 11.2305 21.28 11.6305 20.9C12.2405 20.31 12.9505 19.85 13.7405 19.53C15.3205 18.89 17.1205 18.89 18.7005 19.53C19.4905 19.85 20.2005 20.31 20.8105 20.9C21.2105 21.29 21.2105 21.92 20.8305 22.31ZM24.7205 18.52C24.5205 18.72 24.2605 18.82 24.0005 18.82C23.7405 18.82 23.5005 18.73 23.3005 18.54C21.4405 16.73 18.8505 15.69 16.2105 15.69C13.5705 15.69 11.0205 16.7 9.12055 18.54C8.72055 18.93 8.09055 18.92 7.71055 18.52C7.33055 18.12 7.33055 17.49 7.73055 17.11C10.0005 14.91 13.0105 13.69 16.2105 13.69C19.4105 13.69 22.4205 14.9 24.6905 17.11C25.0905 17.49 25.0905 18.13 24.7105 18.52H24.7205Z" fill="#5E608A"/>
</svg>
