<svg width="548" height="313" viewBox="0 0 548 313" fill="none" xmlns="http://www.w3.org/2000/svg">
<g opacity="0.3">
<mask id="mask0_224_15983" style="mask-type:alpha" maskUnits="userSpaceOnUse" x="0" y="0" width="548" height="313">
<rect width="548" height="313" fill="#D9D9D9"/>
</mask>
<g mask="url(#mask0_224_15983)">
<path d="M616.033 -3.8717L584.873 151.98L616.033 307.832H570.077L538.916 151.98L570.077 -3.8717H616.033Z" fill="white" fill-opacity="0.5"/>
<path d="M570.109 -4.31693L539.035 151.532L570.109 307.382L569.729 372.578L489.527 152.011L569.729 -68.6168L570.109 -4.31693Z" fill="white" fill-opacity="0.4"/>
<path d="M569.244 -196.708L390.817 153.384L569.202 503.476L568.864 568.666L341.36 153.862L568.864 -261.002L569.244 -196.708Z" fill="white" fill-opacity="0.1"/>
<path d="M569.244 -131.964L440.174 153.353L569.244 438.67L568.864 503.92L390.749 153.831L568.906 -196.257L569.244 -131.964Z" fill="white" fill-opacity="0.2"/>
<path d="M570.109 -68.1387L489.719 152.487L570.109 373.052L569.728 438.248L440.137 152.905L569.728 -132.438L570.109 -68.1387Z" fill="white" fill-opacity="0.3"/>
</g>
</g>
</svg>
