<svg width="33" height="33" viewBox="0 0 33 33" fill="none" xmlns="http://www.w3.org/2000/svg">
<path d="M8.37095 6.18726C7.74988 6.62033 7.2426 7.19771 6.89244 7.87008C6.54227 8.54245 6.35964 9.28982 6.36014 10.0483C6.35971 10.8601 6.56888 11.6581 6.9673 12.3648C7.36572 13.0714 7.93981 13.6626 8.6337 14.0808M24.4574 6.18726C25.0785 6.62033 25.5858 7.19771 25.936 7.87008C26.2861 8.54245 26.4687 9.28982 26.4682 10.0483C26.4687 10.8069 26.2861 11.5542 25.936 12.2266C25.5858 12.899 25.0785 13.4764 24.4574 13.9094M29.8196 29.5386V28.7321C29.8196 25.7212 29.8196 24.2157 29.2351 23.0652C28.721 22.0535 27.9008 21.231 26.8919 20.7156M3.00879 29.5386V28.7321C3.00879 25.7212 3.00879 24.2157 3.59326 23.0652C4.10735 22.0535 4.92762 21.231 5.93653 20.7156" stroke="#5E608A" stroke-width="2" stroke-linecap="round" stroke-linejoin="round"/>
<path d="M17.7196 14.3813C17.1687 14.6179 16.5783 14.7397 15.982 14.7397C14.7778 14.7397 13.6229 14.2436 12.7714 13.3605C11.9199 12.4775 11.4415 11.2798 11.4415 10.031C11.4415 8.78215 11.9199 7.58447 12.7714 6.70141C13.6229 5.81836 14.7778 5.32227 15.982 5.32227C16.5783 5.32227 17.1687 5.44406 17.7196 5.68069C18.2705 5.91733 18.771 6.26417 19.1927 6.70141C19.6143 7.13866 19.9488 7.65774 20.1769 8.22903C20.4051 8.80032 20.5226 9.41262 20.5226 10.031C20.5226 10.6493 20.4051 11.2616 20.1769 11.8329C19.9488 12.4042 19.6143 12.9233 19.1927 13.3605C18.771 13.7978 18.2705 14.1446 17.7196 14.3813Z" fill="#5E608A"/>
<path d="M8.19824 29.5385V28.1931C8.19824 25.6861 8.19824 24.4315 8.59327 23.4434C8.85405 22.7904 9.23631 22.1971 9.71823 21.6973C10.2001 21.1976 10.7723 20.8012 11.4019 20.5307C12.3554 20.1211 13.5645 20.1211 15.982 20.1211H15.982H15.982C18.3995 20.1211 19.6086 20.1211 20.5621 20.5307C21.8337 21.0767 22.844 22.1242 23.3708 23.4427C23.7658 24.4322 23.7658 25.6861 23.7658 28.1931V28.1931V29.5385H8.19824Z" fill="#5E608A"/>
</svg>
