<svg width="32" height="32" viewBox="0 0 32 32" fill="none" xmlns="http://www.w3.org/2000/svg">
<path d="M29.9096 21.61C29.2996 20.4 28.3396 19.44 27.1296 18.82C26.6396 18.57 26.0396 18.76 25.7796 19.26C25.5296 19.75 25.7196 20.35 26.2196 20.61C27.0496 21.03 27.7096 21.69 28.1296 22.52C28.6096 23.46 28.6096 24.89 28.6096 27.73V28.54C28.6096 29.09 29.0596 29.54 29.6096 29.54C30.1596 29.54 30.6096 29.09 30.6096 28.54V27.73C30.6096 24.56 30.6096 22.97 29.9196 21.61H29.9096Z" fill="white"/>
<path d="M9.27063 13.6C9.56063 13.13 9.40063 12.51 8.93063 12.23C8.39063 11.9 7.93062 11.44 7.62063 10.88C7.31063 10.32 7.14062 9.69 7.14062 9.05C7.14062 8.46 7.28063 7.86 7.56063 7.33C7.83063 6.8 8.24063 6.35 8.72063 6.01C9.17063 5.69 9.28063 5.07 8.97063 4.62C8.66063 4.17 8.03063 4.06 7.58063 4.37C6.83063 4.89 6.21063 5.6 5.79063 6.41C5.37063 7.22 5.14062 8.14 5.14062 9.05C5.14062 10.03 5.39063 11 5.88063 11.86C6.37063 12.72 7.06063 13.44 7.90063 13.94C8.06063 14.04 8.24062 14.08 8.41062 14.08C8.75062 14.08 9.08063 13.91 9.27063 13.6Z" fill="white"/>
<path d="M27.249 9.05C27.249 8.13 27.0291 7.22 26.6091 6.41C26.1891 5.6 25.569 4.89 24.819 4.37C24.359 4.05 23.739 4.16 23.429 4.62C23.109 5.07 23.219 5.7 23.679 6.01C24.169 6.35 24.569 6.81 24.839 7.33C25.109 7.85 25.259 8.45 25.259 9.05C25.259 9.64 25.119 10.24 24.839 10.77C24.569 11.3 24.159 11.75 23.679 12.09C23.229 12.41 23.119 13.03 23.429 13.48C23.619 13.76 23.929 13.91 24.249 13.91C24.449 13.91 24.649 13.85 24.819 13.73C25.569 13.21 26.1891 12.5 26.6091 11.69C27.0291 10.88 27.259 9.96 27.259 9.05H27.249Z" fill="white"/>
<path d="M5.27078 18.83C4.07078 19.45 3.10078 20.41 2.49078 21.62C1.80078 22.98 1.80078 24.57 1.80078 27.74V28.55C1.80078 29.1 2.25078 29.55 2.80078 29.55C3.35078 29.55 3.80078 29.1 3.80078 28.55V27.74C3.80078 24.89 3.80078 23.46 4.28078 22.53C4.70078 21.7 5.36078 21.04 6.19078 20.62C6.68078 20.37 6.88078 19.77 6.63078 19.27C6.38078 18.78 5.78078 18.58 5.28078 18.83H5.27078Z" fill="white"/>
<path d="M16.2002 13.74C16.8002 13.74 17.3902 13.62 17.9402 13.38C18.4902 13.14 18.9902 12.8 19.4102 12.36C19.8302 11.92 20.1702 11.4 20.3902 10.83C20.6202 10.26 20.7402 9.65 20.7402 9.03C20.7402 8.41 20.6202 7.8 20.3902 7.23C20.1602 6.66 19.8302 6.14 19.4102 5.7C18.9902 5.26 18.4902 4.92 17.9402 4.68C17.3902 4.44 16.8002 4.32 16.2002 4.32C15.0002 4.32 13.8402 4.82 12.9902 5.7C12.1402 6.58 11.6602 7.78 11.6602 9.03C11.6602 10.28 12.1402 11.48 12.9902 12.36C13.8402 13.24 15.0002 13.74 16.2002 13.74Z" fill="white"/>
<path d="M20.7799 19.53C19.8299 19.12 18.6199 19.12 16.1999 19.12C13.7799 19.12 12.5699 19.12 11.6199 19.53C10.9899 19.8 10.4199 20.2 9.93992 20.7C9.45992 21.2 9.07992 21.79 8.81992 22.45C8.41992 23.44 8.41992 24.69 8.41992 27.2V28.55H23.9899V27.2C23.9899 24.69 23.9899 23.44 23.5999 22.45C23.0699 21.13 22.0599 20.08 20.7899 19.54L20.7799 19.53Z" fill="white"/>
</svg>
