<svg width="33" height="32" viewBox="0 0 33 32" fill="none" xmlns="http://www.w3.org/2000/svg">
<path d="M3.00879 22.2692C3.00879 21.9251 3.15002 21.5952 3.40142 21.3519C3.65282 21.1086 3.9938 20.9719 4.34933 20.9719H8.37095V16.4314L16.4142 11.2422L24.4574 16.4314V20.9719H28.4791C28.8346 20.9719 29.1756 21.1086 29.427 21.3519C29.6784 21.5952 29.8196 21.9251 29.8196 22.2692V28.1071C29.8196 28.4511 29.6784 28.7811 29.427 29.0244C29.1756 29.2677 28.8346 29.4044 28.4791 29.4044H3.00879V22.2692Z" fill="white"/>
<path d="M16.8467 4.32324V11.2422" stroke="white" stroke-width="2" stroke-linecap="round"/>
<path d="M19.0089 29.4043V20.7556H13.8198V29.4043M12.5225 29.4043H20.3062H12.5225Z" fill="#816BD9"/>
<path d="M24.6305 5.25464V9.4459C24.6305 9.4459 23.6575 11.5415 20.7386 9.4459C17.8197 7.35027 16.8467 9.4459 16.8467 9.4459V5.25464C16.8467 5.25464 17.8197 3.159 20.7386 5.25464C23.6575 7.35027 24.6305 5.25464 24.6305 5.25464Z" fill="white"/>
</svg>
