<svg width="32" height="32" viewBox="0 0 32 32" fill="none" xmlns="http://www.w3.org/2000/svg">
<path d="M29.0096 21.35C28.7596 21.11 28.4196 20.97 28.0596 20.97H24.0396V16.43L16.9796 11.87C16.9796 11.87 16.9996 11.8 16.9996 11.77V8.35001C17.5696 7.96001 18.6096 7.74001 20.3196 8.98001C23.2396 11.08 24.2096 8.98001 24.2096 8.98001V4.79001C24.2096 4.79001 23.2396 6.89001 20.3196 4.79001C18.3996 3.41001 17.3196 3.85001 16.8096 4.31001C16.6296 4.04001 16.3396 3.86001 15.9996 3.86001C15.4496 3.86001 14.9996 4.31001 14.9996 4.86001V11.78C14.9996 11.78 15.0196 11.85 15.0196 11.88L7.95961 16.44V20.98H3.93961C3.57961 20.98 3.23961 21.12 2.98961 21.36C2.73961 21.6 2.59961 21.93 2.59961 22.28V29.42H13.4096V20.77H18.5996V29.42H29.4096V22.28C29.4096 21.94 29.2696 21.61 29.0196 21.36L29.0096 21.35Z" fill="white"/>
</svg>
