<?xml version="1.0" encoding="utf-8"?>
<svg id="Layer_1" data-name="Layer 1" xmlns="http://www.w3.org/2000/svg" viewBox="0 0 320 240">
    <title>Identitii Pty Ltd</title>
    <path d="M205.43,91.54a20.2,20.2,0,0,0-18.62-17.62H184a19.69,19.69,0,0,0-13.34,6.36c-4.47,4.83-8.86,9.72-13.28,14.59-3,3.34-6.1,6.64-9,10.06-4.39,5.11-9.86,7.39-16.53,6.42a17.53,17.53,0,1,1,19-23.85,3.82,3.82,0,0,0,.24.55,1.31,1.31,0,0,0,2.45-.84,3,3,0,0,0-.21-.66,20.14,20.14,0,0,0-14.72-12.27,14.77,14.77,0,0,1-2.65-.51h-.17a7.35,7.35,0,0,1-2.6.16c-.51,0-1,.1-1.54.17a20.19,20.19,0,1,0,13.71,37,28,28,0,0,0,5.83-5.42q10.56-11.77,21.25-23.42a16.84,16.84,0,0,1,15.8-5.52,17.51,17.51,0,0,1-5.47,34.6c-6.55-1.1-11.08-4.82-13.69-10.91a1.8,1.8,0,0,0-.55-.85,1.25,1.25,0,0,0-1.6,0,1.42,1.42,0,0,0-.33,1.79,20.18,20.18,0,0,0,38.83-9.87Z" fill="#226eb5"/>
    <path d="M86.37,160.74q0-8.56,0-17.13c0-.7-.08-1.33-.83-1.63s-1.33.17-1.81.72v22.58a1.41,1.41,0,0,0,1.77.84c.81-.26.88-1,.87-1.68C86.36,163.21,86.37,162,86.37,160.74Z" fill="#226eb6"/>
    <path d="M85.75,132c-.7-.42-1.31-.21-2,.69v2.41c.82.84,1.39,1,2.05.57C86.68,135.12,86.64,132.57,85.75,132Z" fill="#226eb6"/>
    <path d="M186.79,73.77H184a.77.77,0,0,1,0,.15h2.79A.68.68,0,0,1,186.79,73.77Z" fill="#aabadf"/>
    <path d="M135.79,73.77H133.2a.81.81,0,0,1,0,.16A7.35,7.35,0,0,0,135.79,73.77Z" fill="#a6b8de"/>
    <path d="M117,132.08a1.27,1.27,0,0,0-1.34-1,1.2,1.2,0,0,0-1.22,1.11,6.13,6.13,0,0,0,0,.86v11.42l-.69-.82A10.33,10.33,0,0,0,98.05,143a14.73,14.73,0,0,0-.87,18.89c4.51,5.63,11.91,5.75,16.6.28.16-.18.24-.46.61-.54,0,.76,0,1.5,0,2.23a1.27,1.27,0,0,0,1.68,1.2,1.42,1.42,0,0,0,.93-1.57q0-15.42,0-30.85A1.91,1.91,0,0,0,117,132.08Zm-5.76,29a7.73,7.73,0,0,1-11.9-.74c-1.63-2.05-2.49-4.61-2.48-8.37a10.8,10.8,0,0,1,3.12-7.12,7.6,7.6,0,0,1,11.25,0A12.06,12.06,0,0,1,111.21,161.11Z" fill="#226eb6"/>
    <path d="M128.06,142.72a14.61,14.61,0,0,0-.19,20.34c5.31,5.24,13.45,3.77,17.06-3a1.28,1.28,0,0,0-.48-1.79,1.31,1.31,0,0,0-1.8.48c-.24.35-.44.74-.68,1.09-2.21,3.17-5.77,4.49-9.08,3.38a10.3,10.3,0,0,1-6.26-8.32c0-.59.26-.58.66-.58H145c1.18,0,1.64-.45,1.63-1.6a14,14,0,0,0-2.9-8.57C139.73,138.87,132.75,138.26,128.06,142.72Zm15.05,9c-2.64,0-5.29,0-7.93,0h-7.92c-.35,0-.7.07-.63-.5.4-3.2,2.53-7.26,6.53-8.46a7.83,7.83,0,0,1,8.62,3.17,11.79,11.79,0,0,1,2.1,4.95C144,151.5,143.8,151.69,143.11,151.68Z" fill="#226eb6"/>
    <path d="M162.45,140.92a11.62,11.62,0,0,0-6.49,3.57,14,14,0,0,0,0-1.48,1.2,1.2,0,0,0-1.21-1.13,1.25,1.25,0,0,0-1.36,1.06,3.16,3.16,0,0,0,0,.69v20.84a3,3,0,0,0,0,.6,1.23,1.23,0,0,0,1.31,1.12,1.2,1.2,0,0,0,1.28-1.14,6.57,6.57,0,0,0,0-.77c0-4.19,0-8.38,0-12.57a8.09,8.09,0,0,1,5.81-7.94c4.72-1.51,8.49,1.22,8.49,6.16v14.38a2.71,2.71,0,0,0,.1,1,1.25,1.25,0,0,0,1.34.86,1.18,1.18,0,0,0,1.16-1,4.17,4.17,0,0,0,.08-.94c0-4.91,0-9.81,0-14.72C172.9,143.22,168.1,140.15,162.45,140.92Z" fill="#226eb6"/>
    <path d="M215.42,140.47c-1.32,0-2.64,0-4,0-.59,0-.72-.19-.7-.74,0-1.43,0-2.87,0-4.3,0-1-.49-1.56-1.32-1.55s-1.29.54-1.3,1.57c0,1.46,0,2.93,0,4.39,0,.5-.15.64-.63.62-.92,0-1.84,0-2.76,0a1.36,1.36,0,0,0-1.51,1.31c0,.79.55,1.3,1.47,1.31s1.79,0,2.67,0c.62,0,.77.19.77.78,0,2.87,0,5.75,0,8.62h0c0,2.87-.06,5.74,0,8.61a5,5,0,0,0,7.17,4.65,1.31,1.31,0,0,0,.87-1.58,1.26,1.26,0,0,0-1.51-1c-.45.07-.89.23-1.34.3a1.84,1.84,0,0,1-2.15-1,4,4,0,0,1-.44-1.83c0-5.62,0-11.25,0-16.88,0-.52.14-.7.67-.69,1.32,0,2.65,0,4,0,1,0,1.56-.45,1.57-1.29S216.42,140.48,215.42,140.47Z" fill="#226eb6"/>
    <path d="M188.92,140.46c-1.21,0-2.41,0-3.62,0-.58,0-.72-.18-.71-.73,0-1.44,0-2.87,0-4.31,0-1-.47-1.55-1.31-1.55s-1.31.56-1.32,1.56c0,1.46,0,2.93,0,4.39,0,.48-.11.66-.62.64-.89,0-1.78,0-2.67,0s-1.57.48-1.58,1.3.52,1.31,1.54,1.32c.86,0,1.72,0,2.58,0,.63,0,.76.2.75.78,0,2.84,0,5.69,0,8.53v8.44c.09,4.1,3.19,6.29,7,5a1.35,1.35,0,0,0,1-1.7,1.37,1.37,0,0,0-1.75-.85c-.33.08-.66.19-1,.25a1.93,1.93,0,0,1-2.41-1.4,4.4,4.4,0,0,1-.28-1.52c0-5.59,0-11.19,0-16.79,0-.51.14-.71.68-.69,1.24,0,2.47,0,3.7,0s1.83-.4,1.84-1.29S190.21,140.47,188.92,140.46Z" fill="#226eb6"/>
    <path d="M224.14,142.24a1.21,1.21,0,0,0-1.35-.28,1.32,1.32,0,0,0-.86,1.35v7.93q0,6.67,0,13.34c0,.77.19,1.38,1,1.58s1.61-.39,1.61-1.48c0-3.56,0-7.12,0-10.68s0-7,0-10.5A1.5,1.5,0,0,0,224.14,142.24Z" fill="#226eb6"/>
    <path d="M197.15,141.87c-.81,0-1.27.62-1.27,1.7v21.1c0,1,.44,1.49,1.26,1.52s1.37-.56,1.37-1.68V143.58C198.51,142.48,198,141.84,197.15,141.87Z" fill="#226eb6"/>
    <path d="M236.25,154.08V143.74a3.31,3.31,0,0,0,0-.77,1.25,1.25,0,0,0-1.34-1.09,1.21,1.21,0,0,0-1.24,1.18,6.77,6.77,0,0,0,0,.78v20.41a5,5,0,0,0,0,.86,1.28,1.28,0,0,0,2,.89,1.5,1.5,0,0,0,.64-1.42Q236.25,159.33,236.25,154.08Z" fill="#226eb6"/>
    <path d="M182.77,100.66a1.35,1.35,0,0,0,2.31-.22q3.57-4.95,7.13-9.92a2,2,0,0,0,.39-1l0-.24a1.26,1.26,0,0,0-1-1,1.37,1.37,0,0,0-1.48.64c-2,2.73-3.93,5.44-5.86,8.19-.4.57-.64.73-1.17.12-.69-.8-1.48-1.52-2.24-2.26a1.37,1.37,0,0,0-2-.12,1.33,1.33,0,0,0,.16,2C180.2,98.11,181.47,99.39,182.77,100.66Z" fill="#226eb6"/>
    <path d="M223.28,135.92c.89,0,1.27-.64,1.27-2,0-.26,0-.52,0-.77a1.31,1.31,0,0,0-2.61,0c0,.25,0,.51,0,.77C221.93,135.29,222.36,136,223.28,135.92Z" fill="#226eb6"/>
    <path d="M197.16,131.84a1.25,1.25,0,0,0-1.27,1.24c0,.25,0,.51,0,.77h0c0,.23,0,.46,0,.69a1.32,1.32,0,0,0,1.32,1.39,1.35,1.35,0,0,0,1.29-1.35,10,10,0,0,0,0-1.55A1.28,1.28,0,0,0,197.16,131.84Z" fill="#226eb6"/>
    <path d="M235,135.93c.89,0,1.3-.67,1.3-2a6.57,6.57,0,0,0,0-.77,1.29,1.29,0,0,0-1.34-1.28,1.25,1.25,0,0,0-1.27,1.32c0,.26,0,.52,0,.78C233.62,135.3,234.05,135.94,235,135.93Z" fill="#226eb6"/>
</svg>
