<svg id="Layer_1" data-name="Layer 1" xmlns="http://www.w3.org/2000/svg" viewBox="0 0 144 144">
  <g id="Biotechnology">
    <path d="M71.11,61.63a18.74,18.74,0,0,0-2.85,1.69L80.61,75.67a19.46,19.46,0,0,0,1.62-2.92Z" fill="none"/>
    <path d="M67.12,84.1l-6.87-6.88a19.28,19.28,0,0,0,.55,6.64A19.22,19.22,0,0,0,67.12,84.1Z" fill="none"/>
    <path d="M63.85,67.69a19.74,19.74,0,0,0-2,3.53L73,82.35a19.23,19.23,0,0,0,3.43-2.14Z" fill="none"/>
    <path d="M77,59.9l6.81,6.81a19.26,19.26,0,0,0-.56-6.57A19,19,0,0,0,77,59.9Z" fill="none"/>
    <path d="M53.49,106.77l-1.89,1.9a1.53,1.53,0,0,0-.46,1.11,1.55,1.55,0,0,0,.46,1.11,1.61,1.61,0,0,0,2.22,0L55.71,109a19.59,19.59,0,0,0,5.38-17.82,21.27,21.27,0,0,1-3.42-.72A16.42,16.42,0,0,1,53.49,106.77Z" fill="#667789"/>
    <path d="M58.62,83.28a21,21,0,0,1-.21-7.54L57.17,74.5a2.93,2.93,0,0,1,0-4.14,3,3,0,0,1,3.13-.66,20.85,20.85,0,0,1,2-3.25A3.35,3.35,0,0,1,67,61.73a20.83,20.83,0,0,1,2.66-1.63,2.94,2.94,0,0,1,.71-3,3,3,0,0,1,4.14,0l1,1a20.92,20.92,0,0,1,7-.11c-.07-.18-.13-.35-.2-.52a20.81,20.81,0,0,1-1-2.81c-.61,0-1.25-.07-2-.07A24.38,24.38,0,0,0,55.22,82c.61.2,1.22.42,1.83.67A14.85,14.85,0,0,0,58.62,83.28Z" fill="#667789"/>
    <path d="M109.38,50.88l-2.19,2.19a16.4,16.4,0,0,1-11.67,4.86,16,16,0,0,1-5.86-1.09,27.16,27.16,0,0,1,.92,3.6,19.59,19.59,0,0,0,18.84-5.15l2.19-2.19a1.58,1.58,0,0,0,0-2.22A1.63,1.63,0,0,0,109.38,50.88Z" fill="#667789"/>
    <path d="M113,49.47a3.56,3.56,0,0,0-5,0l-2.19,2.19a14.46,14.46,0,0,1-10.26,4.27,16.13,16.13,0,0,1-6.38-1.41l-.41-.16a14.47,14.47,0,0,1,3.19-15.72l1.9-1.89a3.57,3.57,0,0,0-5-5.05l-1.9,1.89a21.55,21.55,0,0,0-6,19c-.48,0-1,0-1.5,0a26.4,26.4,0,0,0-26.2,28.86,21.57,21.57,0,0,0-20,5.84L31,89.48a3.57,3.57,0,1,0,5.05,5l2.19-2.19a14.46,14.46,0,0,1,10.26-4.27h0a16.09,16.09,0,0,1,6.38,1.41l.41.16a14.47,14.47,0,0,1-3.19,15.72l-1.9,1.89a3.58,3.58,0,0,0,2.53,6.1,3.52,3.52,0,0,0,2.52-1l1.9-1.89a21.55,21.55,0,0,0,6-19c.48,0,1,0,1.5,0a26.4,26.4,0,0,0,26.2-28.86,21.57,21.57,0,0,0,20-5.84L113,54.52A3.58,3.58,0,0,0,113,49.47Zm-1.41,3.63-2.19,2.19a19.59,19.59,0,0,1-18.84,5.15,27.16,27.16,0,0,0-.92-3.6,16,16,0,0,0,5.86,1.09,16.4,16.4,0,0,0,11.67-4.86l2.19-2.19a1.63,1.63,0,0,1,2.23,0A1.58,1.58,0,0,1,111.61,53.1ZM81.84,82.26a24.17,24.17,0,0,1-17.18,7.15,22.27,22.27,0,0,1-9.09-1.8,18.05,18.05,0,0,0-7.09-1.54h0a16.4,16.4,0,0,0-11.67,4.86l-2.19,2.19a1.58,1.58,0,0,1-2.22,0A1.55,1.55,0,0,1,31.94,92a1.53,1.53,0,0,1,.46-1.11l2.19-2.19a19.56,19.56,0,0,1,13.88-5.78,19.79,19.79,0,0,1,7.79,1.6A21.21,21.21,0,0,0,84.11,56.68,19.63,19.63,0,0,1,88.29,35l1.89-1.89a1.58,1.58,0,0,1,2.22,0,1.56,1.56,0,0,1,0,2.22l-1.89,1.9A16.46,16.46,0,0,0,87,55.44h0A24.24,24.24,0,0,1,81.84,82.26ZM55.71,109l-1.89,1.89a1.61,1.61,0,0,1-2.22,0,1.55,1.55,0,0,1-.46-1.11,1.53,1.53,0,0,1,.46-1.11l1.89-1.9a16.42,16.42,0,0,0,4.18-16.31,21.27,21.27,0,0,0,3.42.72A19.59,19.59,0,0,1,55.71,109Zm6.45-47.26a24.19,24.19,0,0,1,17.18-7.15c.71,0,1.35,0,2,.07a20.81,20.81,0,0,0,1,2.81c.07.17.13.34.2.52a20.92,20.92,0,0,0-7,.11l-1-1a3,3,0,0,0-4.14,0,2.94,2.94,0,0,0-.71,3A20.83,20.83,0,0,0,67,61.73a3.35,3.35,0,0,0-4.76,4.72,20.85,20.85,0,0,0-2,3.25,3,3,0,0,0-3.13.66,2.93,2.93,0,0,0,0,4.14l1.24,1.24a21,21,0,0,0,.21,7.54,14.85,14.85,0,0,1-1.57-.59c-.61-.25-1.22-.47-1.83-.67A24.27,24.27,0,0,1,62.16,61.74Zm21.6,5L77,59.9a19,19,0,0,1,6.25.24A19.26,19.26,0,0,1,83.76,66.71ZM77.53,79.24,63.62,65.33a1.61,1.61,0,0,1,1.13-2.74,1.61,1.61,0,0,1,1.14.47L79.72,76.89a19,19,0,0,1-1.52,1.73C78,78.84,77.76,79,77.53,79.24ZM73,82.35,61.81,71.22a19.74,19.74,0,0,1,2-3.53L76.38,80.21A19.23,19.23,0,0,1,73,82.35Zm-12.7-5.13,6.87,6.88a19.22,19.22,0,0,1-6.32-.24A19.28,19.28,0,0,1,60.25,77.22Zm-1.84-4a1.17,1.17,0,0,1,1.66-1.66L71.47,83a19.35,19.35,0,0,1-2.56.78Zm9.85-9.94a18.74,18.74,0,0,1,2.85-1.69L82.23,72.75a19.46,19.46,0,0,1-1.62,2.92ZM71.64,60a1.18,1.18,0,0,1,0-1.67,1.15,1.15,0,0,1,.83-.34,1.16,1.16,0,0,1,.83.34L83.52,68.59a20,20,0,0,1-.7,2.63Z" fill="#334a62"/>
    <path d="M65.89,63.06a1.61,1.61,0,0,0-1.14-.47,1.61,1.61,0,0,0-1.13,2.74L77.53,79.24c.23-.2.45-.4.67-.62a19,19,0,0,0,1.52-1.73Z" fill="#fff"/>
    <path d="M73.3,58.37a1.16,1.16,0,0,0-.83-.34,1.15,1.15,0,0,0-.83.34,1.18,1.18,0,0,0,0,1.67L82.82,71.22a20,20,0,0,0,.7-2.63Z" fill="#fff"/>
    <path d="M60.07,71.6a1.17,1.17,0,0,0-1.66,1.66l10.5,10.51A19.35,19.35,0,0,0,71.47,83Z" fill="#fff"/>
    <path d="M87,55.44h0a16.46,16.46,0,0,1,3.51-18.21l1.89-1.9a1.56,1.56,0,0,0,0-2.22,1.58,1.58,0,0,0-2.22,0L88.29,35a19.63,19.63,0,0,0-4.18,21.68A21.21,21.21,0,0,1,56.26,84.53a19.79,19.79,0,0,0-7.79-1.6,19.56,19.56,0,0,0-13.88,5.78L32.4,90.9A1.53,1.53,0,0,0,31.94,92a1.55,1.55,0,0,0,.46,1.11,1.58,1.58,0,0,0,2.22,0l2.19-2.19a16.4,16.4,0,0,1,11.67-4.86h0a18.05,18.05,0,0,1,7.09,1.54,22.27,22.27,0,0,0,9.09,1.8A24.37,24.37,0,0,0,87,55.44Z" fill="#e95544"/>
  </g>
</svg>
