<svg id="Layer_1" data-name="Layer 1" xmlns="http://www.w3.org/2000/svg" viewBox="0 0 144 144">
  <g id="Chemistry">
    <path d="M82.43,60.12a1,1,0,0,1-.13-.49V40.08a1,1,0,0,1,.67-.94,3.85,3.85,0,0,0-1.28-7.47H62.31A3.85,3.85,0,0,0,61,39.14a1,1,0,0,1,.67.94V59.63a1,1,0,0,1-.13.49L40.84,97h0a10.3,10.3,0,0,0,9,15.35H94.18a10.3,10.3,0,0,0,9-15.35ZM68.11,38.71H79.39a1,1,0,0,1,0,2H68.11a1,1,0,0,1,0-2ZM74,71.55a3,3,0,1,1-3-3A3,3,0,0,1,74,71.55ZM64.61,38.71h.25a1,1,0,0,1,0,2h-.25a1,1,0,0,1,0-2Zm-.06,35.1A5.15,5.15,0,1,1,59.4,79,5.16,5.16,0,0,1,64.55,73.81ZM102,106.61a9,9,0,0,1-7.83,4.49H49.82a9.07,9.07,0,0,1-7.91-13.52l6.85-12.17A1,1,0,0,1,50,85a30,30,0,0,0,11.41,1.66A30.51,30.51,0,0,0,73.9,83.2a28.89,28.89,0,0,1,18-2.94,1,1,0,0,1,.72.5l9.46,16.82A9,9,0,0,1,102,106.61Z" fill="none"/>
    <path d="M104.9,96,84.3,59.37V40.74a5.84,5.84,0,0,0-2.61-11.07H62.31A5.84,5.84,0,0,0,59.7,40.74V59.37L39.1,96h0a12.3,12.3,0,0,0,10.72,18.33H94.18A12.3,12.3,0,0,0,104.9,96Zm-1.83,11.23a10.2,10.2,0,0,1-8.89,5.1H49.82a10.3,10.3,0,0,1-9-15.35h0L61.57,60.12a1,1,0,0,0,.13-.49V40.08a1,1,0,0,0-.67-.94,3.85,3.85,0,0,1,1.28-7.47H81.69A3.85,3.85,0,0,1,83,39.14a1,1,0,0,0-.67.94V59.63a1,1,0,0,0,.13.49L103.16,97A10.21,10.21,0,0,1,103.07,107.23Z" fill="#334a62"/>
    <path d="M100.35,98.56l-9.23-16.4A26.87,26.87,0,0,0,74.82,85,32.46,32.46,0,0,1,61.47,88.6,31.76,31.76,0,0,1,50.1,87.11L43.65,98.56a7.07,7.07,0,0,0,6.17,10.54H94.18a7.07,7.07,0,0,0,6.17-10.54Z" fill="#667789"/>
    <path d="M92.63,80.76a1,1,0,0,0-.72-.5,28.89,28.89,0,0,0-18,2.94,30.51,30.51,0,0,1-12.53,3.41A30,30,0,0,1,50,85a1,1,0,0,0-1.2.46L41.91,97.58a9.07,9.07,0,0,0,7.91,13.52H94.18a9.07,9.07,0,0,0,7.91-13.52Zm1.55,28.34H49.82a7.07,7.07,0,0,1-6.17-10.54L50.1,87.11A31.76,31.76,0,0,0,61.47,88.6,32.46,32.46,0,0,0,74.82,85a26.87,26.87,0,0,1,16.3-2.82l9.23,16.4a7.07,7.07,0,0,1-6.17,10.54Z" fill="#334a62"/>
    <path d="M61.4,79a3.15,3.15,0,1,0,3.15-3.15A3.15,3.15,0,0,0,61.4,79Z" fill="#e95544"/>
    <path d="M64.55,84.1A5.15,5.15,0,1,0,59.4,79,5.15,5.15,0,0,0,64.55,84.1ZM67.7,79a3.15,3.15,0,1,1-3.15-3.15A3.15,3.15,0,0,1,67.7,79Z" fill="#334a62"/>
    <circle cx="71" cy="71.55" r="1" fill="#e95544"/>
    <path d="M68,71.55a3,3,0,1,0,3-3A3,3,0,0,0,68,71.55Zm4,0a1,1,0,1,1-1-1A1,1,0,0,1,72,71.55Z" fill="#334a62"/>
    <path d="M68.11,40.71H79.39a1,1,0,0,0,0-2H68.11a1,1,0,0,0,0,2Z" fill="#334a62"/>
    <path d="M64.61,40.71h.25a1,1,0,0,0,0-2h-.25a1,1,0,0,0,0,2Z" fill="#334a62"/>
  </g>
</svg>
