<svg id="Layer_1" data-name="Layer 1" xmlns="http://www.w3.org/2000/svg" viewBox="0 0 144 144">
  <g id="Consumer_Products" data-name="Consumer Products">
    <path d="M62.67,74.22H86.49a4.92,4.92,0,0,0,4.58-2.67l11.77-21.17c.35-.36.35-.36.35-.92a2.05,2.05,0,0,0-2.23-2.2H52.68l-2.89-6.45h-9v4.45h6.08l11.85,25C59.22,71.31,60.94,74.22,62.67,74.22Z" fill="none"/>
    <path d="M64.55,97.74a5.44,5.44,0,1,0-5.42,5.45A5.42,5.42,0,0,0,64.55,97.74Z" fill="#e95544"/>
    <path d="M59.13,90.32a7.44,7.44,0,1,0,7.42,7.42A7.44,7.44,0,0,0,59.13,90.32Zm-5.45,7.42a5.44,5.44,0,1,1,5.45,5.45A5.44,5.44,0,0,1,53.68,97.74Z" fill="#334a62"/>
    <path d="M86.49,76.22a6.93,6.93,0,0,0,6.35-3.74l11.51-20.8a2.69,2.69,0,0,0,.84-2.22,4,4,0,0,0-4.23-4.2H54l-2.88-6.45H38.81v8.45h6.82l11.08,23.4-4.25,7.28a1.54,1.54,0,0,0-.08.19,12.73,12.73,0,0,0-.7,3.52,7.45,7.45,0,0,0,7.45,7.44H97.74a1,1,0,0,0,1-1V81.65a1,1,0,0,0-1-1H60.93l2.34-4.43Zm-45.68-31V40.81h9l2.89,6.45H101a2.05,2.05,0,0,1,2.23,2.2c0,.56,0,.56-.35.92L91.07,71.55a4.92,4.92,0,0,1-4.58,2.67H62.67c-1.73,0-3.45-2.91-3.93-3.93l-11.85-25ZM96.74,87.09H59.13a5.45,5.45,0,0,1-5.45-5.44,10.09,10.09,0,0,1,.57-2.79l3.52-6A7.14,7.14,0,0,0,61.15,76l-2.26,4.27a1,1,0,0,0-.12.47V81a1.69,1.69,0,0,0,1.65,1.65H96.74Z" fill="#334a62"/>
    <path d="M96.74,97.74a5.44,5.44,0,1,0-5.42,5.45A5.42,5.42,0,0,0,96.74,97.74Z" fill="#e95544"/>
    <path d="M91.32,90.32a7.44,7.44,0,1,0,7.42,7.42A7.44,7.44,0,0,0,91.32,90.32Zm-5.45,7.42a5.44,5.44,0,1,1,5.45,5.45A5.44,5.44,0,0,1,85.87,97.74Z" fill="#334a62"/>
    <path d="M58.77,81v-.31a1,1,0,0,1,.12-.47L61.15,76a7.14,7.14,0,0,1-3.38-3.13l-3.52,6a10.09,10.09,0,0,0-.57,2.79,5.45,5.45,0,0,0,5.45,5.44H96.74V82.65H60.42A1.69,1.69,0,0,1,58.77,81Z" fill="#667789"/>
  </g>
</svg>
