<svg id="Layer_1" data-name="Layer 1" xmlns="http://www.w3.org/2000/svg" viewBox="0 0 144 144">
  <g id="Electrical_Electronics" data-name="Electrical Electronics">
    <path d="M92.3,48.63H51.7a3.08,3.08,0,0,0-3.07,3.07V92.3a3.08,3.08,0,0,0,3.07,3.07H92.3a3.08,3.08,0,0,0,3.07-3.07V51.7A3.08,3.08,0,0,0,92.3,48.63ZM85.7,82.58a3.12,3.12,0,0,1-3.12,3.12H61.42a3.12,3.12,0,0,1-3.12-3.12V61.42a3.12,3.12,0,0,1,3.12-3.12H82.58a3.12,3.12,0,0,1,3.12,3.12Z" fill="none"/>
    <path d="M81.81,106.43a.49.49,0,0,1,0,.12,2.91,2.91,0,0,0,5.81-.12v-5.31h-5.8Z" fill="#667789"/>
    <path d="M88.61,99.12h-7.8a1,1,0,0,0-1,1v6.18a.57.57,0,0,0,0,.13,4.91,4.91,0,1,0,9.81,0v-6.31A1,1,0,0,0,88.61,99.12Zm-1,7.31a2.91,2.91,0,0,1-5.81.12.49.49,0,0,0,0-.12v-5.31h5.8Z" fill="#334a62"/>
    <path d="M87.61,37.57a2.91,2.91,0,1,0-5.81,0v5.31h5.81Z" fill="#667789"/>
    <path d="M80.8,44.88h7.81a1,1,0,0,0,1-1V37.57a4.91,4.91,0,1,0-9.81,0v6.31A1,1,0,0,0,80.8,44.88Zm1-7.31a2.91,2.91,0,1,1,5.81,0v5.31H81.8Z" fill="#334a62"/>
    <path d="M74.91,37.57a2.91,2.91,0,1,0-5.82,0v5.31h5.82Z" fill="#667789"/>
    <path d="M68.09,44.88h7.82a1,1,0,0,0,1-1V37.57a4.91,4.91,0,1,0-9.82,0v6.31A1,1,0,0,0,68.09,44.88Zm1-7.31a2.91,2.91,0,1,1,5.82,0v5.31H69.09Z" fill="#334a62"/>
    <path d="M69.09,106.43a2.91,2.91,0,0,0,5.82,0v-5.31H69.09Z" fill="#667789"/>
    <path d="M75.91,99.12H68.09a1,1,0,0,0-1,1v6.31a4.91,4.91,0,0,0,9.82,0v-6.31A1,1,0,0,0,75.91,99.12Zm-1,7.31a2.91,2.91,0,0,1-5.82,0v-5.31h5.82Z" fill="#334a62"/>
    <path d="M62.2,37.57a2.91,2.91,0,1,0-5.81,0v5.31H62.2Z" fill="#667789"/>
    <path d="M55.39,44.88H63.2a1,1,0,0,0,1-1V37.57a4.91,4.91,0,1,0-9.81,0v6.31A1,1,0,0,0,55.39,44.88Zm1-7.31a2.91,2.91,0,1,1,5.81,0v5.31H56.39Z" fill="#334a62"/>
    <path d="M56.39,106.43a2.91,2.91,0,0,0,5.82,0v-5.31H56.39Z" fill="#667789"/>
    <path d="M63.21,99.12H55.39a1,1,0,0,0-1,1v6.31a4.91,4.91,0,0,0,9.82,0v-6.31A1,1,0,0,0,63.21,99.12Zm-1,7.31a2.91,2.91,0,0,1-5.82,0v-5.31h5.82Z" fill="#334a62"/>
    <path d="M34.66,84.7a2.9,2.9,0,0,0,2.91,2.9h5.31V81.8H37.57A2.9,2.9,0,0,0,34.66,84.7Z" fill="#667789"/>
    <path d="M43.88,79.8H37.57a4.9,4.9,0,1,0,0,9.8h6.31a1,1,0,0,0,1-1V80.8A1,1,0,0,0,43.88,79.8Zm-1,7.8H37.57a2.9,2.9,0,1,1,0-5.8h5.31Z" fill="#334a62"/>
    <path d="M106.43,81.8h-5.31v5.8h5.31a2.9,2.9,0,1,0,0-5.8Z" fill="#667789"/>
    <path d="M106.43,79.8h-6.31a1,1,0,0,0-1,1v7.8a1,1,0,0,0,1,1h6.31a4.9,4.9,0,1,0,0-9.8Zm0,7.8h-5.31V81.8h5.31a2.9,2.9,0,1,1,0,5.8Z" fill="#334a62"/>
    <path d="M34.66,72a2.91,2.91,0,0,0,2.91,2.91h5.31V69.09H37.57A2.91,2.91,0,0,0,34.66,72Z" fill="#667789"/>
    <path d="M43.88,67.09H37.57a4.91,4.91,0,0,0,0,9.82h6.31a1,1,0,0,0,1-1V68.09A1,1,0,0,0,43.88,67.09Zm-1,7.82H37.57a2.91,2.91,0,0,1,0-5.82h5.31Z" fill="#334a62"/>
    <path d="M106.43,69.09h-5.31v5.82h5.31a2.91,2.91,0,0,0,0-5.82Z" fill="#667789"/>
    <path d="M106.43,67.09h-6.31a1,1,0,0,0-1,1v7.82a1,1,0,0,0,1,1h6.31a4.91,4.91,0,0,0,0-9.82Zm0,7.82h-5.31V69.09h5.31a2.91,2.91,0,0,1,0,5.82Z" fill="#334a62"/>
    <path d="M34.66,59.3a2.91,2.91,0,0,0,2.91,2.91h5.31V56.39H37.57A2.91,2.91,0,0,0,34.66,59.3Z" fill="#667789"/>
    <path d="M43.88,54.39H37.57a4.91,4.91,0,0,0,0,9.82h6.31a1,1,0,0,0,1-1V55.39A1,1,0,0,0,43.88,54.39Zm-1,7.82H37.57a2.91,2.91,0,1,1,0-5.82h5.31Z" fill="#334a62"/>
    <path d="M109.34,59.29a2.91,2.91,0,0,0-2.91-2.9h-5.31V62.2h5.31A2.91,2.91,0,0,0,109.34,59.29Z" fill="#667789"/>
    <path d="M100.12,64.2h6.31a4.91,4.91,0,1,0,0-9.81h-6.31a1,1,0,0,0-1,1V63.2A1,1,0,0,0,100.12,64.2Zm1-7.81h5.31a2.91,2.91,0,1,1,0,5.81h-5.31Z" fill="#334a62"/>
    <path d="M92.3,46.63H51.7a5.07,5.07,0,0,0-5.07,5.07V92.3a5.07,5.07,0,0,0,5.07,5.07H92.3a5.07,5.07,0,0,0,5.07-5.07V51.7A5.07,5.07,0,0,0,92.3,46.63ZM95.37,92.3a3.08,3.08,0,0,1-3.07,3.07H51.7a3.08,3.08,0,0,1-3.07-3.07V51.7a3.08,3.08,0,0,1,3.07-3.07H92.3a3.08,3.08,0,0,1,3.07,3.07Z" fill="#334a62"/>
    <rect x="60.3" y="60.3" width="23.4" height="23.4" rx="1.12" fill="#e95544"/>
    <path d="M82.58,58.3H61.42a3.12,3.12,0,0,0-3.12,3.12V82.58a3.12,3.12,0,0,0,3.12,3.12H82.58a3.12,3.12,0,0,0,3.12-3.12V61.42A3.12,3.12,0,0,0,82.58,58.3ZM83.7,82.58a1.12,1.12,0,0,1-1.12,1.12H61.42a1.12,1.12,0,0,1-1.12-1.12V61.42a1.12,1.12,0,0,1,1.12-1.12H82.58a1.12,1.12,0,0,1,1.12,1.12Z" fill="#334a62"/>
  </g>
</svg>
