<svg id="Layer_1" data-name="Layer 1" xmlns="http://www.w3.org/2000/svg" viewBox="0 0 144 144">
  <g id="Mandarin_Services" data-name="Mandarin Services">
    <polygon points="89.26 92.25 96.9 92.25 93.08 83.87 89.26 92.25" fill="none"/>
    <path d="M68.35,93.2l-8.16-6.29c0,.8,0,1.56,0,2.31a1.29,1.29,0,0,1-1.25,1.41,22.7,22.7,0,0,1-5.35-.09,19.27,19.27,0,0,1-8.37-3.18,18.23,18.23,0,0,0,1.46,2.52,14.93,14.93,0,0,0,10.45,6.45c.47.07.94.11,1.42.15l.73.06a1,1,0,0,1,.91,1v.74c0,.68,0,1.36,0,2v.05h0l6.48-5c.6-.46,1.2-.92,1.79-1.39.18-.14.25-.26.25-.33s0-.18-.25-.35Z" fill="none"/>
    <path d="M77.24,54.79l8.19,6.33c0-.63,0-1.26,0-1.91v-.8a1,1,0,0,1,.9-1c5.52-.51,10.14.55,14,3.24a21,21,0,0,0-2.58-4A15.2,15.2,0,0,0,86.4,51.5a1,1,0,0,1-1-1V47.65l-4.66,3.59L79,52.59c-.63.48-1.26,1-1.88,1.46-.17.14-.25.26-.25.33s0,.18.26.35Z" fill="none"/>
    <path d="M71,71.8a2.76,2.76,0,0,0-2-2.39,45.36,45.36,0,0,1-9.78-4.64l-1-.65-.49-.32a1,1,0,0,1-.44-.68,1,1,0,0,1,.21-.78l.51-.63a44.29,44.29,0,0,0,8-13.89,2.84,2.84,0,0,1,2.38-2,17.56,17.56,0,0,1,2-.17h.14a2.52,2.52,0,0,0,2-1.1,2.47,2.47,0,0,0,.31-2.22,2.52,2.52,0,0,0-2.56-1.72H55.67a1,1,0,0,1-1-1v-.13c0-.12,0-.23,0-.34V38.5a11.81,11.81,0,0,0,0-1.19,2.46,2.46,0,0,0-1.07-1.88,2.52,2.52,0,0,0-3.94,2c0,.48,0,1,0,1.46v.69a1,1,0,0,1-1,1H36.22c-.53,0-1,0-1.57,0a2.34,2.34,0,0,0-2.2,1.53,2.38,2.38,0,0,0,.44,2.65,2.55,2.55,0,0,0,2.06.84H59.44a1,1,0,0,1,.82.43,1,1,0,0,1,.12.92,40.23,40.23,0,0,1-7.17,11.86,1,1,0,0,1-.71.35,1,1,0,0,1-.74-.27l-.53-.48A12.18,12.18,0,0,1,50,57.24c-1.37-1.62-2.72-3.29-3.91-4.77a2.81,2.81,0,0,0-2.18-1.07,2.66,2.66,0,0,0-.92.16,2.74,2.74,0,0,0-1.68,1.74,2.83,2.83,0,0,0,.42,2.46,49.46,49.46,0,0,0,5.67,6.66l.09,0,.17.11a1,1,0,0,1,.42,1,1.49,1.49,0,0,1-.44.78l-1.18.85c-.89.65-1.79,1.29-2.7,1.9a30.18,30.18,0,0,1-6.11,3.07,2.72,2.72,0,0,0,1.86,5.11c.64-.21,1.28-.47,1.88-.73A38,38,0,0,0,50,69.4c.51-.4,1-.81,1.52-1.23l.71-.57a1,1,0,0,1,1.2,0l.43.3a51,51,0,0,0,11.44,6.09l.55.21a8.46,8.46,0,0,0,2.24.65,2.69,2.69,0,0,0,2.09-.87A2.56,2.56,0,0,0,71,71.8Z" fill="#e95544"/>
    <path d="M72.93,71.5a4.74,4.74,0,0,0-3.4-4,43.44,43.44,0,0,1-9.35-4.43l-.52-.34a45.86,45.86,0,0,0,8.1-14.28.9.9,0,0,1,.79-.71,17,17,0,0,1,1.81-.14h.14a4.52,4.52,0,0,0-.37-9H56.65v-.06c0-.44,0-.89,0-1.33a4.51,4.51,0,0,0-9,.19c0,.4,0,.8,0,1.2H36.24c-.57,0-1.14,0-1.7,0a4.51,4.51,0,0,0-3.16,7.48A4.49,4.49,0,0,0,35,47.61H58a38,38,0,0,1-5.62,9.12,8.41,8.41,0,0,1-.79-.79c-1.36-1.59-2.7-3.25-3.88-4.72a4.73,4.73,0,0,0-7.55,5.7,50.77,50.77,0,0,0,5.47,6.5l-.28.2c-.88.63-1.75,1.26-2.64,1.86A28.16,28.16,0,0,1,37,68.34a4.73,4.73,0,0,0,1.75,9.11,4.52,4.52,0,0,0,1.44-.23c.72-.23,1.41-.51,2.06-.79A40.31,40.31,0,0,0,51.27,71q.78-.62,1.56-1.26l.12-.1a52.46,52.46,0,0,0,11.69,6.19l.52.2a9.88,9.88,0,0,0,2.8.78,4.74,4.74,0,0,0,5-5.29Zm-4.8,3.3a8.46,8.46,0,0,1-2.24-.65l-.55-.21A51,51,0,0,1,53.9,67.85l-.43-.3a1,1,0,0,0-1.2,0l-.71.57c-.51.42-1,.83-1.52,1.23a38,38,0,0,1-8.63,5.19c-.6.26-1.24.52-1.88.73a2.72,2.72,0,0,1-1.86-5.11,30.18,30.18,0,0,0,6.11-3.07c.91-.61,1.81-1.25,2.7-1.9l1.18-.85a1.49,1.49,0,0,0,.44-.78,1,1,0,0,0-.42-1l-.17-.11-.09,0a49.46,49.46,0,0,1-5.67-6.66,2.83,2.83,0,0,1-.42-2.46A2.74,2.74,0,0,1,43,51.56a2.66,2.66,0,0,1,.92-.16,2.81,2.81,0,0,1,2.18,1.07C47.3,54,48.65,55.62,50,57.24a12.18,12.18,0,0,0,1.21,1.18l.53.48a1,1,0,0,0,.74.27,1,1,0,0,0,.71-.35A40.23,40.23,0,0,0,60.38,47a1,1,0,0,0-.12-.92,1,1,0,0,0-.82-.43H35a2.55,2.55,0,0,1-2.06-.84,2.38,2.38,0,0,1-.44-2.65,2.34,2.34,0,0,1,2.2-1.53c.52,0,1,0,1.57,0H48.61a1,1,0,0,0,1-1v-.69c0-.5,0-1,0-1.46a2.52,2.52,0,0,1,3.94-2,2.46,2.46,0,0,1,1.07,1.88,11.81,11.81,0,0,1,0,1.19v.65c0,.11,0,.22,0,.34v.13a1,1,0,0,0,1,1H70.13a2.52,2.52,0,0,1,2.56,1.72,2.47,2.47,0,0,1-.31,2.22,2.52,2.52,0,0,1-2,1.1h-.14a17.56,17.56,0,0,0-2,.17,2.84,2.84,0,0,0-2.38,2,44.29,44.29,0,0,1-8,13.89l-.51.63a1,1,0,0,0-.21.78,1,1,0,0,0,.44.68l.49.32,1,.65a45.36,45.36,0,0,0,9.78,4.64,2.76,2.76,0,0,1,2,2.39,2.56,2.56,0,0,1-.73,2.13A2.69,2.69,0,0,1,68.13,74.8Z" fill="#334a62"/>
    <path d="M111.44,104.48,96,70.54a3,3,0,0,0-2.64-2H93a3.14,3.14,0,0,0-2.86,2.07L77.07,99.33c-.25.54-.5,1.07-.74,1.61-.6,1.28-1.21,2.6-1.75,3.91a2.91,2.91,0,0,0,.37,2.88A3.09,3.09,0,0,0,77.68,109a3,3,0,0,0,2.63-1.93l.75-1.65c.6-1.33,1.21-2.66,1.81-4a1.57,1.57,0,0,1,1.55-1h17.14a1.45,1.45,0,0,1,1.69.91c.87,1.94,1.74,3.86,2.64,5.78A3,3,0,0,0,108.7,109h.17l.36,0a3,3,0,0,0,2.19-1.57A3.3,3.3,0,0,0,111.44,104.48ZM99.29,93.79a1,1,0,0,1-.84.46H87.71a1,1,0,0,1-.84-.46,1,1,0,0,1-.07-1l5.37-11.78a1,1,0,0,1,1.82,0l5.37,11.78A1,1,0,0,1,99.29,93.79Z" fill="#667789"/>
    <path d="M113.26,103.65,97.79,69.71a5.1,5.1,0,0,0-9.46.09L75.25,98.5l-.74,1.59c-.6,1.3-1.23,2.65-1.78,4a4.91,4.91,0,0,0,.6,4.8A5.06,5.06,0,0,0,77.45,111l.38,0a4.9,4.9,0,0,0,4.3-3.1l.74-1.64c.59-1.27,1.17-2.54,1.75-3.83h16.93q1.24,2.78,2.52,5.53a5,5,0,0,0,4.59,3h.15l.21,0c.2,0,.38,0,.56-.06a5.06,5.06,0,0,0,3.62-2.62A5.29,5.29,0,0,0,113.26,103.65Zm-4,5.31-.36,0h-.17a3,3,0,0,1-2.81-1.88c-.9-1.92-1.77-3.84-2.64-5.78a1.45,1.45,0,0,0-1.69-.91H84.42a1.57,1.57,0,0,0-1.55,1c-.6,1.34-1.21,2.67-1.81,4l-.75,1.65A3,3,0,0,1,77.68,109,3.09,3.09,0,0,1,75,107.73a2.91,2.91,0,0,1-.37-2.88c.54-1.31,1.15-2.63,1.75-3.91.24-.54.49-1.07.74-1.61l13.08-28.7A3.14,3.14,0,0,1,93,68.56h.32a3,3,0,0,1,2.64,2l15.47,33.94a3.3,3.3,0,0,1,0,2.91A3,3,0,0,1,109.23,109Z" fill="#334a62"/>
    <path d="M94,81.05a1,1,0,0,0-1.82,0L86.8,92.83a1,1,0,0,0,.07,1,1,1,0,0,0,.84.46H98.45a1,1,0,0,0,.84-.46,1,1,0,0,0,.07-1Zm-4.73,11.2,3.82-8.38,3.82,8.38Z" fill="#334a62"/>
    <path d="M69.57,91.61,61.3,85.24a2,2,0,0,0-2.15-.4,2,2,0,0,0-1,1.94c0,.64,0,1.27,0,1.91a19.9,19.9,0,0,1-4.31-.13,16.67,16.67,0,0,1-9.94-4.89l-.19-.18-.12-.1a1,1,0,0,0-1.15-.09A1.07,1.07,0,0,0,42,84.41c0,.1,0,.15.05.22A22.5,22.5,0,0,0,45,91a16.8,16.8,0,0,0,11.8,7.29c.45.06.89.11,1.35.14,0,.63,0,1.26,0,1.88a4.4,4.4,0,0,0,.08.92,1.7,1.7,0,0,0,.87,1.19,1.53,1.53,0,0,0,.72.17,1.92,1.92,0,0,0,.76-.16,3.92,3.92,0,0,0,.8-.51l6.48-5,1.83-1.42a2.43,2.43,0,0,0,1-1.87,2.48,2.48,0,0,0-1-1.9ZM68.47,94c-.59.47-1.19.93-1.79,1.39l-6.48,5h0v-.05c0-.68,0-1.36,0-2v-.74a1,1,0,0,0-.91-1l-.73-.06c-.48,0-.95-.08-1.42-.15a14.93,14.93,0,0,1-10.45-6.45,18.23,18.23,0,0,1-1.46-2.52,19.27,19.27,0,0,0,8.37,3.18,22.7,22.7,0,0,0,5.35.09,1.29,1.29,0,0,0,1.25-1.41c0-.75,0-1.51,0-2.31l8.16,6.29.12.09c.2.17.25.3.25.35S68.65,93.83,68.47,94Z" fill="#334a62"/>
    <path d="M84.31,62.78a2,2,0,0,0,2.15.4,2,2,0,0,0,1-2c0-.6,0-1.2,0-1.83,5.93-.35,10.66,1.36,14.47,5.22a1,1,0,0,0,.72.3,1,1,0,0,0,.41-.09,1,1,0,0,0,.58-1c-.14-2-2.56-6.45-4.32-8.44a17.11,17.11,0,0,0-11.86-5.78v-2a2,2,0,0,0-1-1.92,2,2,0,0,0-2.25.45l-4.68,3.61L77.81,51c-.64.49-1.28,1-1.91,1.49a2.29,2.29,0,0,0,0,3.76Zm-7.16-8.73c.62-.5,1.25-1,1.88-1.46l1.75-1.35,4.66-3.59V50.5a1,1,0,0,0,1,1,15.2,15.2,0,0,1,11.4,5.16,21,21,0,0,1,2.58,4c-3.9-2.69-8.52-3.75-14-3.24a1,1,0,0,0-.9,1v.8c0,.65,0,1.28,0,1.91l-8.19-6.33-.08-.06c-.21-.17-.26-.3-.26-.35S77,54.19,77.15,54.05Z" fill="#334a62"/>
  </g>
</svg>
