<svg id="Layer_1" data-name="Layer 1" xmlns="http://www.w3.org/2000/svg" viewBox="0 0 144 144">
  <g id="Mechanical">
    <path d="M52,99a3.17,3.17,0,0,0-3.07-4,3.18,3.18,0,0,0-2.78,4.76A3.2,3.2,0,0,0,52,99Z" fill="none"/>
    <path d="M61.43,63.59a6.87,6.87,0,1,0-6.84-6.86A6.87,6.87,0,0,0,61.43,63.59Z" fill="none"/>
    <path d="M89.21,90.46a4.89,4.89,0,0,0-6.16,3.14,4.88,4.88,0,1,0,6.16-3.14Z" fill="none"/>
    <path d="M108,89.31a3,3,0,0,0-2.6-2.19L100.91,87a3.86,3.86,0,0,1-2.74-1.28,3.78,3.78,0,0,1-1-2.84l.32-4.49a3,3,0,0,0-1.9-2.81l-2.81-.91a2.94,2.94,0,0,0-3.19,1.16L87.24,79.6a3.78,3.78,0,0,1-2.44,1.72,3.86,3.86,0,0,1-3-.58l-3.72-2.51a3,3,0,0,0-3.39.23l-2.2,2a3,3,0,0,0-.6,3.36l2.11,4A3.84,3.84,0,0,1,72.32,93l-4,2A3,3,0,0,0,66.78,98l.61,2.9A3,3,0,0,0,70,103.12l4.48.16a3.8,3.8,0,0,1,2.74,1.28,3.76,3.76,0,0,1,1,2.83l-.31,4.47a2.92,2.92,0,0,0,1.9,2.83l2.8.92a2.92,2.92,0,0,0,3.19-1.17l2.39-3.8a3.84,3.84,0,0,1,5.42-1.14L97.28,112a3,3,0,0,0,3.4-.24l2.2-2a3,3,0,0,0,.59-3.37l-2.11-4a3.88,3.88,0,0,1-.25-3,3.78,3.78,0,0,1,2-2.25l4-2a3,3,0,0,0,1.5-3.07ZM94.24,97.25A6.9,6.9,0,0,1,87.68,102a6.81,6.81,0,0,1-2.12-.34,6.89,6.89,0,0,1,4.27-13.11,6.9,6.9,0,0,1,4.41,8.69Z" fill="none"/>
    <path d="M35.82,69.24l2,3.42a4.29,4.29,0,0,0,4.59,1.85l5.76-1.65a4.79,4.79,0,0,1,3.74.46,4.73,4.73,0,0,1,2.24,3l1.45,5.8a4.29,4.29,0,0,0,3.9,3.06H63.4a4.27,4.27,0,0,0,3.9-3l1.46-5.82a4.71,4.71,0,0,1,2.23-3,4.81,4.81,0,0,1,3.75-.46l5.75,1.65a4.28,4.28,0,0,0,4.59-1.86l2-3.41a4.35,4.35,0,0,0-.7-4.92l-4.31-4.15a4.84,4.84,0,0,1-1.47-3.48,4.75,4.75,0,0,1,1.47-3.43l4.31-4.16a4.29,4.29,0,0,0,.69-4.91l-2-3.39a4.27,4.27,0,0,0-4.59-1.86l-5.75,1.65A4.81,4.81,0,0,1,71,40.13a4.68,4.68,0,0,1-2.23-3L67.3,31.32a4.26,4.26,0,0,0-3.9-3H59.47a4.27,4.27,0,0,0-3.89,3l-1.46,5.82a4.78,4.78,0,0,1-6,3.44l-5.76-1.65a4.29,4.29,0,0,0-4.59,1.85l-2,3.4a4.31,4.31,0,0,0,.69,4.91l4.32,4.16a4.79,4.79,0,0,1,1.46,3.48,4.74,4.74,0,0,1-1.46,3.43l-4.32,4.16A4.31,4.31,0,0,0,35.82,69.24ZM61.43,47.86a8.87,8.87,0,1,1-8.84,8.87A8.88,8.88,0,0,1,61.43,47.86Z" fill="#667789"/>
    <path d="M35.12,62.89a6.28,6.28,0,0,0-1,7.35l2,3.41a6.32,6.32,0,0,0,6.87,2.78l5.75-1.64a2.78,2.78,0,0,1,3.5,2h0l1.45,5.8a6.24,6.24,0,0,0,5.84,4.58H63.4a6.23,6.23,0,0,0,5.84-4.57l1.46-5.81A2.73,2.73,0,0,1,72,75.05a2.83,2.83,0,0,1,2.19-.27l5.75,1.65a6.36,6.36,0,0,0,6.88-2.77l2-3.42a6.29,6.29,0,0,0-1-7.35l-4.31-4.16a2.79,2.79,0,0,1-.86-2,2.76,2.76,0,0,1,.86-2l4.31-4.15a6.29,6.29,0,0,0,1-7.36l-2-3.39A6.32,6.32,0,0,0,79.94,37l-5.75,1.65A2.79,2.79,0,0,1,72,38.4a2.73,2.73,0,0,1-1.3-1.74l-1.46-5.83a6.23,6.23,0,0,0-5.84-4.55H59.47a6.24,6.24,0,0,0-5.84,4.57l-1.45,5.81a2.79,2.79,0,0,1-3.49,2L42.93,37a6.32,6.32,0,0,0-6.87,2.77l-2,3.4a6.28,6.28,0,0,0,1,7.36l4.31,4.15a2.8,2.8,0,0,1,0,4Zm7.17-6.15a4.79,4.79,0,0,0-1.46-3.48L36.51,49.1a4.31,4.31,0,0,1-.69-4.91l2-3.4a4.29,4.29,0,0,1,4.59-1.85l5.76,1.65a4.78,4.78,0,0,0,6-3.44l1.46-5.82a4.27,4.27,0,0,1,3.89-3H63.4a4.26,4.26,0,0,1,3.9,3l1.46,5.82a4.68,4.68,0,0,0,2.23,3,4.81,4.81,0,0,0,3.75.46l5.75-1.65a4.27,4.27,0,0,1,4.59,1.86l2,3.39a4.29,4.29,0,0,1-.69,4.91l-4.31,4.16a4.75,4.75,0,0,0-1.47,3.43,4.84,4.84,0,0,0,1.47,3.48l4.31,4.15a4.35,4.35,0,0,1,.7,4.92l-2,3.41a4.28,4.28,0,0,1-4.59,1.86l-5.75-1.65a4.81,4.81,0,0,0-3.75.46,4.71,4.71,0,0,0-2.23,3L67.3,82.12a4.27,4.27,0,0,1-3.9,3H59.47a4.29,4.29,0,0,1-3.9-3.06l-1.45-5.8a4.73,4.73,0,0,0-2.24-3,4.79,4.79,0,0,0-3.74-.46l-5.76,1.65a4.29,4.29,0,0,1-4.59-1.85l-2-3.42a4.31,4.31,0,0,1,.69-4.91l4.32-4.16A4.74,4.74,0,0,0,42.29,56.74Z" fill="#334a62"/>
    <path d="M61.43,65.59a8.87,8.87,0,1,0-8.84-8.86A8.88,8.88,0,0,0,61.43,65.59Zm0-15.73a6.87,6.87,0,1,1-6.84,6.87A6.87,6.87,0,0,1,61.43,49.86Z" fill="#334a62"/>
    <path d="M89.83,88.56a6.89,6.89,0,0,0-4.27,13.11,6.81,6.81,0,0,0,2.12.34,6.9,6.9,0,0,0,6.56-4.76,6.9,6.9,0,0,0-4.41-8.69Zm2.51,8.07a4.89,4.89,0,1,1-4.64-6.41,5,5,0,0,1,1.51.24,4.9,4.9,0,0,1,3.13,6.17Z" fill="#334a62"/>
    <path d="M110.57,91.77,110,88.9a4.94,4.94,0,0,0-4.49-3.78L101,85a1.84,1.84,0,0,1-1.79-2l.32-4.49a4.93,4.93,0,0,0-3.28-4.86l-2.79-.91a4.93,4.93,0,0,0-5.52,2l-2.39,3.81a1.81,1.81,0,0,1-1.16.82,1.84,1.84,0,0,1-1.44-.28l-3.71-2.51a4.93,4.93,0,0,0-5.85.4l-2.2,2a5,5,0,0,0-1,5.78l2.1,4a1.84,1.84,0,0,1,.13,1.45,1.81,1.81,0,0,1-1,1.08l-4,2a5,5,0,0,0-2.58,5.28l.62,2.89a4.91,4.91,0,0,0,4.48,3.77l4.48.16a1.84,1.84,0,0,1,1.79,2h0l-.31,4.47a4.93,4.93,0,0,0,3.27,4.87l2.8.92a4.51,4.51,0,0,0,1.37.21,4.94,4.94,0,0,0,4.14-2.22l2.39-3.8a1.81,1.81,0,0,1,1.17-.83,1.87,1.87,0,0,1,1.43.29l3.71,2.51a4.93,4.93,0,0,0,5.85-.41l2.21-2a5,5,0,0,0,1-5.78l-2.11-4a1.84,1.84,0,0,1-.12-1.45A1.8,1.8,0,0,1,104,99l4-2A5,5,0,0,0,110.57,91.77Zm-3.45,3.48-4,2a3.78,3.78,0,0,0-2,2.25,3.88,3.88,0,0,0,.25,3l2.11,4a3,3,0,0,1-.59,3.37l-2.2,2a3,3,0,0,1-3.4.24l-3.71-2.51a3.84,3.84,0,0,0-5.42,1.14l-2.39,3.8a2.92,2.92,0,0,1-3.19,1.17l-2.8-.92a2.92,2.92,0,0,1-1.9-2.83l.31-4.47a3.76,3.76,0,0,0-1-2.83,3.8,3.8,0,0,0-2.74-1.28L70,103.12a3,3,0,0,1-2.61-2.19L66.78,98A3,3,0,0,1,68.28,95l4-2A3.84,3.84,0,0,0,74,87.74l-2.11-4a3,3,0,0,1,.6-3.36l2.2-2a3,3,0,0,1,3.39-.23l3.72,2.51a3.86,3.86,0,0,0,3,.58,3.78,3.78,0,0,0,2.44-1.72l2.39-3.81a2.94,2.94,0,0,1,3.19-1.16l2.81.91a3,3,0,0,1,1.9,2.81l-.32,4.49a3.78,3.78,0,0,0,1,2.84A3.86,3.86,0,0,0,100.91,87l4.49.16a3,3,0,0,1,2.6,2.19l.62,2.87A3,3,0,0,1,107.12,95.25Z" fill="#334a62"/>
    <path d="M59.6,100.44a3,3,0,0,1,0-4.36l2.32-2.21a1.81,1.81,0,0,0,.3-2L61.2,90a1.8,1.8,0,0,0-1.91-.78l-3.08.85a3,3,0,0,1-3.75-2.2l-.75-3.11a1.82,1.82,0,0,0-1.62-1.28l-2.1,0h0a1.82,1.82,0,0,0-1.63,1.26l-.8,3.1A3,3,0,0,1,41.78,90l-3.07-.91a1.83,1.83,0,0,0-1.92.77l-1.07,1.81a1.84,1.84,0,0,0,.27,2l2.29,2.23a3,3,0,0,1,.91,2.2,3,3,0,0,1-.94,2.16l-2.31,2.2a1.81,1.81,0,0,0-.31,2l1,1.83a1.79,1.79,0,0,0,1.9.78l3.09-.85a2.91,2.91,0,0,1,.82-.12,3,3,0,0,1,2.93,2.32l.75,3.1a1.85,1.85,0,0,0,1.62,1.29h2.11a1.85,1.85,0,0,0,1.64-1.27l.79-3.09a3,3,0,0,1,3.78-2.15l3.07.91a1.82,1.82,0,0,0,1.93-.77l1-1.8a1.84,1.84,0,0,0-.27-2Zm-5.66-.88a5.2,5.2,0,0,1-5,3.81,5.39,5.39,0,0,1-1.38-.18,5.19,5.19,0,1,1,6.38-3.63Z" fill="#e95544"/>
    <path d="M63.32,95.32A3.82,3.82,0,0,0,64,90.84l-1-1.82a3.81,3.81,0,0,0-4.19-1.72l-3.08.86a1,1,0,0,1-.78-.1,1,1,0,0,1-.49-.66l-.75-3.1a3.81,3.81,0,0,0-3.54-2.81l-2.1,0h0a3.81,3.81,0,0,0-3.58,2.77l-.79,3.09a1,1,0,0,1-.5.64,1,1,0,0,1-.79.09l-3.07-.91a3.85,3.85,0,0,0-4.21,1.67L34,90.64a3.8,3.8,0,0,0,.6,4.49l2.27,2.23a1,1,0,0,1,.32.75,1,1,0,0,1-.32.72h0L34.56,101a3.81,3.81,0,0,0-.67,4.48l1,1.83a3.81,3.81,0,0,0,4.19,1.72l3.08-.86a1,1,0,0,1,1.27.75l.75,3.11a3.81,3.81,0,0,0,3.54,2.81h2.12a3.84,3.84,0,0,0,3.58-2.77l.79-3.08a1,1,0,0,1,.5-.65,1,1,0,0,1,.79-.09l3.06.91a3.85,3.85,0,0,0,4.22-1.67l1-1.81a3.81,3.81,0,0,0-.59-4.49L61,99a1,1,0,0,1,0-1.48Zm-1.17,9.4-1,1.8a1.82,1.82,0,0,1-1.93.77l-3.07-.91a3,3,0,0,0-3.78,2.15l-.79,3.09a1.85,1.85,0,0,1-1.64,1.27H47.78a1.85,1.85,0,0,1-1.62-1.29l-.75-3.1a3,3,0,0,0-2.93-2.32,2.91,2.91,0,0,0-.82.12l-3.09.85a1.79,1.79,0,0,1-1.9-.78l-1-1.83a1.81,1.81,0,0,1,.31-2l2.31-2.2a3,3,0,0,0,.94-2.16,3,3,0,0,0-.91-2.2L36,93.7a1.84,1.84,0,0,1-.27-2l1.07-1.81a1.83,1.83,0,0,1,1.92-.77l3.07.91a3,3,0,0,0,3.78-2.15l.8-3.1A1.82,1.82,0,0,1,48,83.47h0l2.1,0a1.82,1.82,0,0,1,1.62,1.28l.75,3.11a3,3,0,0,0,3.75,2.2l3.08-.85A1.8,1.8,0,0,1,61.2,90l1,1.82a1.81,1.81,0,0,1-.3,2l-2.32,2.21a3,3,0,0,0,0,4.36l2.28,2.23A1.84,1.84,0,0,1,62.15,104.72Z" fill="#334a62"/>
    <path d="M46.37,93.67a5.21,5.21,0,0,0-2.44,3.13,5.19,5.19,0,0,0,3.63,6.39,5.39,5.39,0,0,0,1.38.18,5.19,5.19,0,1,0-2.57-9.7Zm1.72,7.59a3.19,3.19,0,0,1-.73-5.85A3.21,3.21,0,0,1,48.94,95a3.19,3.19,0,1,1-.85,6.26Z" fill="#334a62"/>
  </g>
</svg>
