<svg id="Layer_1" data-name="Layer 1" xmlns="http://www.w3.org/2000/svg" viewBox="0 0 144 144">
  <g id="Medical">
    <path d="M88.44,48.75V41.49a3.25,3.25,0,0,0-1-2.38,3.21,3.21,0,0,0-2.38-1H58.92a3.35,3.35,0,0,0-3.36,3.36v7.26a1,1,0,0,1-1,1H48.3v56.12H95.7V49.75H89.44A1,1,0,0,1,88.44,48.75ZM59.38,42.94a1,1,0,0,1,1-1H83.62a1,1,0,0,1,1,1v5.81a1,1,0,0,1-1,1H60.38a1,1,0,0,1-1-1ZM90.43,73.45v8.64a.22.22,0,0,1,0,.08A2.39,2.39,0,0,1,88,84.62H78.81v9.17a2.39,2.39,0,0,1-.7,1.75,2.41,2.41,0,0,1-1.75.71H67.64a2.41,2.41,0,0,1-1.75-.71,2.39,2.39,0,0,1-.7-1.75V84.62H56a2.41,2.41,0,0,1-2.46-2.45V73.45A2.41,2.41,0,0,1,56,71h9.17V61.83a2.39,2.39,0,0,1,2.45-2.45h8.72a2.39,2.39,0,0,1,2.45,2.45V71H88a2.39,2.39,0,0,1,2.45,2.45Z" fill="none"/>
    <rect x="61.38" y="43.94" width="21.25" height="3.81" fill="none"/>
    <path d="M35,52.46a8.73,8.73,0,0,0-2.7,6.46V96.7a9.22,9.22,0,0,0,9.17,9.17h.45V49.75h-.45A8.76,8.76,0,0,0,35,52.46Z" fill="#667789"/>
    <path d="M42.94,47.75H41.49A11.23,11.23,0,0,0,30.32,58.92V96.7a11.23,11.23,0,0,0,11.17,11.17h1.45a1,1,0,0,0,1-1V48.75A1,1,0,0,0,42.94,47.75Zm-1,58.12h-.45a9.22,9.22,0,0,1-9.17-9.17V58.92a9.24,9.24,0,0,1,9.17-9.17h.45Z" fill="#334a62"/>
    <path d="M96.7,47.75H90.44V41.49a5.34,5.34,0,0,0-5.36-5.36H58.92a5.34,5.34,0,0,0-5.36,5.36v6.26H47.3a1,1,0,0,0-1,1v58.12a1,1,0,0,0,1,1H96.7a1,1,0,0,0,1-1V48.75A1,1,0,0,0,96.7,47.75Zm-1,58.12H48.3V49.75h6.26a1,1,0,0,0,1-1V41.49a3.35,3.35,0,0,1,3.36-3.36H85.08a3.21,3.21,0,0,1,2.38,1,3.25,3.25,0,0,1,1,2.38v7.26a1,1,0,0,0,1,1H95.7Z" fill="#334a62"/>
    <path d="M60.38,49.75H83.62a1,1,0,0,0,1-1V42.94a1,1,0,0,0-1-1H60.38a1,1,0,0,0-1,1v5.81A1,1,0,0,0,60.38,49.75Zm1-5.81H82.62v3.81H61.38Z" fill="#334a62"/>
    <path d="M102.51,49.75h-.45v56.12h.45a9.22,9.22,0,0,0,9.17-9.17V58.92a9.24,9.24,0,0,0-9.17-9.17Z" fill="#667789"/>
    <path d="M110.39,51h0a10.81,10.81,0,0,0-7.88-3.29h-1.45a1,1,0,0,0-1,1v58.12a1,1,0,0,0,1,1h1.45A11.23,11.23,0,0,0,113.68,96.7V58.92A10.79,10.79,0,0,0,110.39,51Zm1.29,45.66a9.22,9.22,0,0,1-9.17,9.17h-.45V49.75h.45a9.24,9.24,0,0,1,9.17,9.17Z" fill="#334a62"/>
    <path d="M88.43,73.45a.44.44,0,0,0-.11-.34A.46.46,0,0,0,88,73H77.81a1,1,0,0,1-1-1V61.83a.39.39,0,0,0-.12-.34.4.4,0,0,0-.33-.11H67.64a.44.44,0,0,0-.34.11.42.42,0,0,0-.11.34V72a1,1,0,0,1-1,1H56a.46.46,0,0,0-.34.11.45.45,0,0,0-.12.34v8.72a.39.39,0,0,0,.12.33.4.4,0,0,0,.34.12H66.19a1,1,0,0,1,1,1V93.79a.42.42,0,0,0,.11.34.43.43,0,0,0,.34.12h8.72a.43.43,0,0,0,.34-.12.42.42,0,0,0,.11-.34V83.62a1,1,0,0,1,1-1H88a.42.42,0,0,0,.34-.11.39.39,0,0,0,.11-.29V73.45Z" fill="#e95544"/>
    <path d="M78.81,71V61.83a2.39,2.39,0,0,0-2.45-2.45H67.64a2.39,2.39,0,0,0-2.45,2.45V71H56a2.41,2.41,0,0,0-2.46,2.45v8.72A2.41,2.41,0,0,0,56,84.62h9.17v9.17a2.39,2.39,0,0,0,.7,1.75,2.41,2.41,0,0,0,1.75.71h8.72a2.41,2.41,0,0,0,1.75-.71,2.39,2.39,0,0,0,.7-1.75V84.62H88a2.39,2.39,0,0,0,2.46-2.45.22.22,0,0,0,0-.08V73.45A2.39,2.39,0,0,0,88,71Zm9.51,11.51a.42.42,0,0,1-.34.11H77.81a1,1,0,0,0-1,1V93.79a.42.42,0,0,1-.11.34.43.43,0,0,1-.34.12H67.64a.43.43,0,0,1-.34-.12.42.42,0,0,1-.11-.34V83.62a1,1,0,0,0-1-1H56a.4.4,0,0,1-.34-.12.39.39,0,0,1-.12-.33V73.45a.45.45,0,0,1,.12-.34A.46.46,0,0,1,56,73H66.19a1,1,0,0,0,1-1V61.83a.42.42,0,0,1,.11-.34.44.44,0,0,1,.34-.11h8.72a.4.4,0,0,1,.33.11.39.39,0,0,1,.12.34V72a1,1,0,0,0,1,1H88a.46.46,0,0,1,.34.11.44.44,0,0,1,.11.34v8.77A.39.39,0,0,1,88.32,82.51Z" fill="#334a62"/>
  </g>
</svg>
