<svg id="Layer_1" data-name="Layer 1" xmlns="http://www.w3.org/2000/svg" viewBox="0 0 144 144">
  <g id="Mining_Civil" data-name="Mining Civil">
    <path d="M109.34,88.06c-.22-2.78-3.58-5.54-9.74-8,.21,1.92.33,3.21.34,3.43A1,1,0,0,1,99,84.56H99a1,1,0,0,1-1-.92c-.11-1.29-.28-3-.52-5a.43.43,0,0,0,0,0c-.19-1.55-.39-3-.59-4.47l-.09-.58c0-.19,0-.36-.08-.55A99.51,99.51,0,0,0,94,60.41a1.87,1.87,0,0,0-.07-.22c-.07-.26-.15-.51-.23-.76s-.23-.67-.34-1l-.09-.23q-.16-.45-.33-.87c0-.05,0-.1-.07-.16A17.85,17.85,0,0,0,92,55.44L92,55.37q-.18-.3-.36-.57l-.11-.15-.11-.12-8.52,2.62,3.27,23.31c.59,3,.87,5.42,1,6.67,1.49-.08,4.42-.36,6.08-1.31a1,1,0,0,1,1,1.74c-2.66,1.52-7.48,1.59-8,1.6-5,.37-9.54.53-13.67.53-28.35,0-36.92-7.63-37.32-8A1,1,0,0,1,35,81c0-.25,0-.49,0-.74h0l-.08.13a2,2,0,0,0-.1.21s0,.08,0,.12a1.35,1.35,0,0,0-.06.35c0,.82.83,1.82,2.41,2.8a54.81,54.81,0,0,0,14.43,5.39,212.28,212.28,0,0,1,21.3,5.38A47.27,47.27,0,0,0,79,96.09c5.29.83,18.36,2.36,25.38-1.35C104.39,94.72,109.63,91.75,109.34,88.06ZM97,86.18l-.11.07a.94.94,0,0,1-.55.17,1,1,0,0,1-.55-1.83l.1-.07A1,1,0,1,1,97,86.18Z" fill="#e95544"/>
    <path d="M72.61,52.7A41,41,0,0,1,82.3,67.34L80.85,57A25.93,25.93,0,0,0,72.61,52.7Z" fill="#e95544"/>
    <path d="M63.76,46.92,63,47l-1,.08-.69.07-1.15.16-.53.08c-.33,0-.67.12-1,.19a33.61,33.61,0,0,1,9.45,1.81c.84.18,9.31,2.08,13.9,6l7.21-2.22-.08,0-.38-.2-.27-.15-.42-.2-.33-.17-.43-.21L86.92,52l-.52-.24-.79-.36-.45-.19-.55-.23-.5-.21-.56-.22L83,50.29l-.59-.22-.56-.21-.64-.22-.58-.2-.73-.24L79.38,49l-1.26-.37-.54-.14-.82-.22-.63-.15L75.35,48l-.67-.15-.79-.15-.69-.13-.83-.14-.68-.1-1-.13-.57-.07c-.5-.05-1-.1-1.51-.13l-.58,0-1,0-.69,0H64.7Z" fill="#e95544"/>
    <path d="M85.09,87.24l-.85-6.07c-1.67-8.72-6-23.23-16.84-29.95-1-.36-10.57-3.59-18.65,0a16.18,16.18,0,0,0-2.94,1.7C61,52.45,68.58,56,68.91,56.17a1,1,0,0,1-.44,1.9A1.12,1.12,0,0,1,68,58c-.08,0-8.29-3.87-24.6-2.93-.16.18-.34.34-.5.53l0,.06h0l-.07.09a18.71,18.71,0,0,0-1.2,1.61c4.94-.55,17.61-1.17,30.27,4.45a1,1,0,0,1-.4,1.91,1,1,0,0,1-.41-.09c-13.74-6.09-27.86-4.5-30.71-4.1C38,64.15,36.83,70.4,36.91,78.14c0,0,0,.06,0,.09,0,.73,0,1.47.06,2.23a15.87,15.87,0,0,0,2.34,1.42l.17-3.32a1,1,0,0,1,.42-.76,1,1,0,0,1,.85-.15l7.87,2.19a1,1,0,0,1,.73,1v4.55A80.92,80.92,0,0,0,59.16,87l.43-5a1,1,0,0,1,.35-.68,1,1,0,0,1,.73-.23l8.18.71a1,1,0,0,1,.9.87l.65,5C74.77,87.73,79.65,87.62,85.09,87.24ZM73.77,63.06a1,1,0,0,1,1.42,0,1,1,0,0,1,.09.13,1,1,0,0,1,.54,1.16,1,1,0,0,1-1,.73,1.45,1.45,0,0,1-.28,0l-.12,0a1,1,0,0,1-.6-.47.47.47,0,0,1-.09-.06,1,1,0,0,1-.29-.7A1,1,0,0,1,73.77,63.06Zm-.69-4.31a1,1,0,0,1-1,.73.84.84,0,0,1-.27,0l-.12,0,0,0a1,1,0,0,1-.21-.11.71.71,0,0,1-.14-.1l0,0L71.21,59a.86.86,0,0,1-.1-.16.85.85,0,0,1-.06-.17,1.06,1.06,0,0,1,0-.19s0,0,0-.06a.7.7,0,0,1,0-.14.66.66,0,0,1,0-.14s0,0,0-.05a.61.61,0,0,1,.09-.18.86.86,0,0,1,.1-.16l0,0a.47.47,0,0,1,.09-.06,1,1,0,0,1,.22-.14l.06,0a.88.88,0,0,1,.33-.06h0a1,1,0,0,1,.25,0l.13,0A1,1,0,0,1,73.08,58.75Z" fill="#e95544"/>
    <path d="M111.23,87.19c0-.08,0-.16-.06-.25s-.08-.3-.13-.46-.07-.19-.11-.28-.11-.28-.17-.41l-.16-.3c-.07-.13-.13-.26-.21-.39s-.14-.2-.2-.31l-.26-.37-.25-.3q-.14-.18-.3-.36c-.09-.11-.19-.21-.29-.31l-.34-.35-.34-.3-.39-.35-.38-.29a5.12,5.12,0,0,0-.44-.34l-.42-.3-.48-.33-.46-.29-.53-.32-.51-.29-.57-.31-.55-.28-.62-.31-.59-.28-.66-.3-.64-.27-.71-.3L99.79,78l-.46-.17c-.18-1.52-.41-3.24-.69-5.07-1-6.94-2.59-14.09-4.75-18l0-.1-.3-.5-.29-.45L93,53.34c-.17-.22-.34-.43-.51-.61l0,0,0,0a.65.65,0,0,0-.16-.13c-.24-.15-23.63-14.86-44.38-3.14a18.9,18.9,0,0,0-3.29,1.9,18.32,18.32,0,0,0-3.23,3l-.06.06h0A22.14,22.14,0,0,0,38.85,58l0,0,0,.08c-2.61,4.88-3.92,11.38-3.9,19.45l0,0-.36.26-.13.1c-.1.09-.21.18-.32.29l-.13.12a5,5,0,0,0-.43.48l0,0a4.72,4.72,0,0,0-.35.52l-.09.18a4,4,0,0,0-.2.48c0,.07-.05.13-.07.2a3.57,3.57,0,0,0-.12.74c-.06,1.62,1.07,3.17,3.38,4.61a55.83,55.83,0,0,0,15.09,5.63,213.38,213.38,0,0,1,21.09,5.34,48.17,48.17,0,0,0,6.45,1.49,84.67,84.67,0,0,0,12.61,1.06c5.07,0,10.26-.64,14-2.63.26-.15,6.41-3.62,6-8.59A5.93,5.93,0,0,0,111.23,87.19ZM79,96.09a47.27,47.27,0,0,1-6.18-1.43,212.28,212.28,0,0,0-21.3-5.38,54.81,54.81,0,0,1-14.43-5.39c-1.58-1-2.44-2-2.41-2.8a1.35,1.35,0,0,1,.06-.35s0-.08,0-.12a2,2,0,0,1,.1-.21l.08-.13h0c0,.25,0,.49,0,.74a1,1,0,0,0,.32.68c.4.37,9,8,37.32,8,4.13,0,8.67-.16,13.67-.53.47,0,5.29-.08,8-1.6a1,1,0,0,0-1-1.74c-1.66,1-4.59,1.23-6.08,1.31-.12-1.25-.4-3.64-1-6.67L82.89,57.15l8.52-2.62.11.12.11.15q.18.27.36.57l.05.07a17.85,17.85,0,0,1,.84,1.74c0,.06.05.11.07.16q.17.42.33.87l.09.23c.11.32.23.65.34,1s.16.5.23.76a1.87,1.87,0,0,1,.07.22A99.51,99.51,0,0,1,96.66,73c0,.19,0,.36.08.55l.09.58c.2,1.43.4,2.92.59,4.47a.43.43,0,0,1,0,0c.24,2,.41,3.67.52,5a1,1,0,0,0,1,.92H99a1,1,0,0,0,.91-1.08c0-.22-.13-1.51-.34-3.43,6.16,2.47,9.52,5.23,9.74,8,.29,3.69-5,6.66-5,6.68C97.33,98.45,84.26,96.92,79,96.09ZM66.35,46.87l.69,0,1,0,.58,0c.51,0,1,.08,1.51.13l.57.07,1,.13.68.1.83.14.69.13.79.15.67.15.78.18.63.15.82.22.54.14,1.26.37.53.17.73.24.58.2.64.22.56.21.59.22.54.21.56.22.5.21.55.23.45.19.79.36.52.24.41.19.43.21.33.17.42.2.27.15.38.2.08,0L82,55.32c-4.59-3.89-13.06-5.79-13.9-6a33.61,33.61,0,0,0-9.45-1.81c.34-.07.68-.14,1-.19l.53-.08,1.15-.16.69-.07L63,47l.73,0,.94,0h1.65ZM61.5,83.12l6.37.55.64,4.93-7.44-.43Zm8.9,4.54-.65-5a1,1,0,0,0-.9-.87L60.67,81a1,1,0,0,0-.73.23,1,1,0,0,0-.35.68l-.43,5a80.92,80.92,0,0,1-9.83-1.63V80.81a1,1,0,0,0-.73-1l-7.87-2.19a1,1,0,0,0-.85.15,1,1,0,0,0-.42.76l-.17,3.32A15.87,15.87,0,0,1,37,80.46c0-.76-.05-1.5-.06-2.23,0,0,0-.06,0-.09-.08-7.74,1.09-14,3.45-18.63,2.85-.4,17-2,30.71,4.1a1,1,0,0,0,1.32-.51,1,1,0,0,0-.51-1.31c-12.66-5.62-25.33-5-30.27-4.45a18.71,18.71,0,0,1,1.2-1.61l.07-.09h0l0-.06c.16-.19.34-.35.5-.53C59.75,54.1,68,57.93,68,58a1.12,1.12,0,0,0,.43.1,1,1,0,0,0,.44-1.9c-.33-.16-7.88-3.72-23.1-3.24a16.18,16.18,0,0,1,2.94-1.7c8.08-3.6,17.66-.37,18.65,0,10.85,6.72,15.17,21.23,16.84,30l.85,6.07C79.65,87.62,74.77,87.73,70.4,87.66ZM41.21,83.51l.19-3.6,5.93,1.66v4.28l-6.19-2.08A1.11,1.11,0,0,0,41.21,83.51ZM72.61,52.7A25.93,25.93,0,0,1,80.85,57L82.3,67.34A41,41,0,0,0,72.61,52.7Z" fill="#334a62"/>
    <path d="M95.86,84.52l-.1.07a1,1,0,0,0,.55,1.83.94.94,0,0,0,.55-.17l.11-.07a1,1,0,1,0-1.11-1.66Z" fill="#334a62"/>
    <path d="M72.4,57.52l-.13,0a1,1,0,0,0-.25,0h0a.88.88,0,0,0-.33.06l-.06,0a1,1,0,0,0-.22.14.47.47,0,0,0-.09.06l0,0a.86.86,0,0,0-.1.16.61.61,0,0,0-.09.18s0,0,0,.05a.66.66,0,0,0,0,.14.7.7,0,0,0,0,.14s0,0,0,.06a1.06,1.06,0,0,0,0,.19.85.85,0,0,0,.06.17.86.86,0,0,0,.1.16l.08.12,0,0a.71.71,0,0,0,.14.1,1,1,0,0,0,.21.11l0,0,.12,0a.84.84,0,0,0,.27,0,1,1,0,0,0,.28-2Z" fill="#334a62"/>
    <path d="M73.86,64.53a1,1,0,0,0,.6.47l.12,0a1.45,1.45,0,0,0,.28,0,1,1,0,0,0,1-.73,1,1,0,0,0-.54-1.16,1,1,0,0,0-.09-.13,1,1,0,0,0-1.42,0,1,1,0,0,0-.29.71,1,1,0,0,0,.29.7A.47.47,0,0,0,73.86,64.53Z" fill="#334a62"/>
  </g>
</svg>
