<svg id="Layer_1" data-name="Layer 1" xmlns="http://www.w3.org/2000/svg" viewBox="0 0 144 144">
  <g id="Patent_Oppositions" data-name="Patent Oppositions">
    <path d="M72.6,54.08a4.61,4.61,0,0,1,2.84,1.32,4.86,4.86,0,0,1,1,1.61l10.26-9.55-.18-.19-4.86-4.86-.19-.18L71.51,53Z" fill="none"/>
    <path d="M68.83,62a4.61,4.61,0,0,1-1.34-3.62l-.71-.71L55.5,68.24l.19.19,4.86,4.86.19.19,9.72-10.41A4.56,4.56,0,0,1,68.83,62Z" fill="none"/>
    <path d="M98.82,79.67H95.69A13.61,13.61,0,0,0,82.14,94.42a10,10,0,0,1-.25,3.27l-2.47,8.58a.74.74,0,0,0,.18.58.77.77,0,0,0,.6.28h3.23l1.49,7.81a2.39,2.39,0,0,0,2.36,2.4h18c.3-2.77,1.82-6.81,4.51-12a22,22,0,0,0,2.58-10.14v-1.9A13.61,13.61,0,0,0,98.82,79.67Z" fill="#f4f4f4"/>
    <path d="M98.82,77.67H95.69A15.6,15.6,0,0,0,80.15,94.59,8,8,0,0,1,80,97.18l-2.48,8.61a2.78,2.78,0,0,0,2.72,3.34h1.58l1.14,5.9a4.38,4.38,0,0,0,4.36,4.3h20v-1c0-1.68.75-5.14,4.34-12.1a23.9,23.9,0,0,0,2.81-11.06v-1.9A15.62,15.62,0,0,0,98.82,77.67Zm13.6,17.5a22,22,0,0,1-2.58,10.14c-2.69,5.21-4.21,9.25-4.51,12h-18a2.39,2.39,0,0,1-2.36-2.4l-1.49-7.81H80.2a.77.77,0,0,1-.6-.28.74.74,0,0,1-.18-.58l2.47-8.58a10,10,0,0,0,.25-3.27A13.61,13.61,0,0,1,95.69,79.67h3.13a13.61,13.61,0,0,1,13.6,13.6Z" fill="#334a62"/>
    <path d="M62.12,97.73a10.05,10.05,0,0,1-.26-3.31A13.61,13.61,0,0,0,48.31,79.67H45.18a13.61,13.61,0,0,0-13.6,13.6v1.9a22,22,0,0,0,2.58,10.14c2.69,5.21,4.21,9.25,4.51,12h18a2.39,2.39,0,0,0,2.36-2.4l0-.19,1.47-7.62H63.8a.77.77,0,0,0,.6-.28.75.75,0,0,0,.16-.65Z" fill="#f4f4f4"/>
    <path d="M64.05,97.22a8,8,0,0,1-.2-2.63A15.61,15.61,0,0,0,48.31,77.67H45.18a15.62,15.62,0,0,0-15.6,15.6v1.9a23.9,23.9,0,0,0,2.81,11.06c3.59,7,4.34,10.42,4.34,12.1v1h20a4.38,4.38,0,0,0,4.36-4.3l1.14-5.9h1.57a2.79,2.79,0,0,0,2.16-1,2.76,2.76,0,0,0,.55-2.39Zm.35,9.63a.77.77,0,0,1-.6.28H60.57l-1.47,7.62,0,.19a2.39,2.39,0,0,1-2.36,2.4h-18c-.3-2.77-1.82-6.81-4.51-12a22,22,0,0,1-2.58-10.14v-1.9a13.61,13.61,0,0,1,13.6-13.6h3.13A13.61,13.61,0,0,1,61.86,94.42a10.05,10.05,0,0,0,.26,3.31l2.44,8.47A.75.75,0,0,1,64.4,106.85Z" fill="#334a62"/>
    <path d="M72,27.67a.5.5,0,0,0,.5-.5v-2a.5.5,0,0,0-1,0v2A.5.5,0,0,0,72,27.67Z" fill="#334a62"/>
    <path d="M72,40.75a.5.5,0,0,0,.5-.5V37a.5.5,0,1,0-1,0v3.27A.5.5,0,0,0,72,40.75Z" fill="#334a62"/>
    <path d="M72,34.21a.5.5,0,0,0,.5-.5V30.44a.5.5,0,1,0-1,0v3.27A.5.5,0,0,0,72,34.21Z" fill="#334a62"/>
    <path d="M72,46a.5.5,0,0,0,.5-.5v-2a.5.5,0,0,0-1,0v2A.5.5,0,0,0,72,46Z" fill="#334a62"/>
    <path d="M72,70.94a.5.5,0,0,0-.5.5v2a.5.5,0,0,0,1,0v-2A.5.5,0,0,0,72,70.94Z" fill="#334a62"/>
    <path d="M72,76.65a.5.5,0,0,0-.5.5v3.72a.5.5,0,0,0,1,0V77.15A.5.5,0,0,0,72,76.65Z" fill="#334a62"/>
    <path d="M72,106.4a.5.5,0,0,0-.5.5v3.71a.5.5,0,1,0,1,0V106.9A.5.5,0,0,0,72,106.4Z" fill="#334a62"/>
    <path d="M72,99a.5.5,0,0,0-.5.5v3.72a.5.5,0,0,0,1,0V99.46A.5.5,0,0,0,72,99Z" fill="#334a62"/>
    <path d="M72,91.52a.5.5,0,0,0-.5.5v3.72a.5.5,0,1,0,1,0V92A.5.5,0,0,0,72,91.52Z" fill="#334a62"/>
    <path d="M72,84.09a.5.5,0,0,0-.5.5v3.72a.5.5,0,0,0,1,0V84.59A.5.5,0,0,0,72,84.09Z" fill="#334a62"/>
    <path d="M72,113.83a.5.5,0,0,0-.5.5v2a.5.5,0,0,0,1,0v-2A.5.5,0,0,0,72,113.83Z" fill="#334a62"/>
    <path d="M87.5,44.93a.28.28,0,0,0,0-.4l-3-3.05a.28.28,0,0,0-.4,0l-.22.22,3.45,3.45Z" fill="#314a60"/>
    <path d="M54.76,70.77a.28.28,0,0,0,0,.4l3.05,3a.28.28,0,0,0,.4,0l.22-.22L55,70.55Z" fill="#314a60"/>
    <path d="M70.12,54.43,70,54.6l.23-.12Z" fill="#314a60"/>
    <path d="M75.8,65.07l-1.22-2.38a4.45,4.45,0,0,1-1,.44l1.24,2.43A1,1,0,0,1,75.8,65.07Z" fill="#e95544"/>
    <path d="M78.4,67a1,1,0,0,0,.08-1l-1.67-3.28,3.91,1.27a1,1,0,0,0,.3,0,1,1,0,0,0,1-1.31l-.37-1.11,1-.68a1,1,0,0,0,.41-1,1,1,0,0,0-.68-.8l-3.77-1.22,10.37-9.64a1,1,0,0,0,.31-.72,1,1,0,0,0-.29-.72l-.21-.21.22-.22a2.29,2.29,0,0,0,0-3.23l-3-3a2.29,2.29,0,0,0-3.23,0l-.22.22-.21-.21a1,1,0,0,0-.72-.29,1,1,0,0,0-.72.31L69.42,52.3h0l-3,3L53.38,67.49a1,1,0,0,0-.32.71,1,1,0,0,0,.3.72l.21.21-.22.22a2.29,2.29,0,0,0,0,3.23l3,3a2.28,2.28,0,0,0,3.23,0l.22-.22.21.21a1,1,0,0,0,.7.3h0a1,1,0,0,0,.71-.32L72,64.36l2,3.87a1,1,0,0,0,.89.54h0a1,1,0,0,0,.89-.55l.53-1,1.15.19A1,1,0,0,0,78.4,67Zm1-5.58-3-1a5.12,5.12,0,0,0,.27-1l3,1A1,1,0,0,0,79.45,61.39Zm-10-2.68a2.63,2.63,0,0,1,.78-1.89,2.68,2.68,0,0,1,4.57,1.89,2.69,2.69,0,0,1-.78,1.9,2.75,2.75,0,0,1-3.79,0A2.65,2.65,0,0,1,69.46,58.71ZM70,54.6l.17-.17.06,0Zm4.63,8.09,1.22,2.38a1,1,0,0,0-1,.49l-1.24-2.43A4.45,4.45,0,0,0,74.58,62.69Zm6.94-20.46.19.18,4.86,4.86.18.19L76.49,57a4.86,4.86,0,0,0-1-1.61,4.61,4.61,0,0,0-2.84-1.32L71.51,53ZM60.74,73.48l-.19-.19-4.86-4.86-.19-.19L66.78,57.69l.71.71A4.61,4.61,0,0,0,68.83,62a4.56,4.56,0,0,0,1.63,1Z" fill="#334a62"/>
    <path d="M84.05,41.48a.28.28,0,0,1,.4,0l3,3.05a.28.28,0,0,1,0,.4l-.22.22L83.83,41.7Z" fill="#667789"/>
    <path d="M58.21,74.22a.28.28,0,0,1-.4,0l-3.05-3a.28.28,0,0,1,0-.4l.22-.22L58.43,74Z" fill="#667789"/>
    <path d="M76.75,59.39a5.12,5.12,0,0,1-.27,1l3,1a1,1,0,0,1,.33-1Z" fill="#e95544"/>
    <path d="M74,60.61a2.69,2.69,0,0,0,0-3.79,2.67,2.67,0,0,0-3.79,0,2.69,2.69,0,0,0,0,3.79A2.75,2.75,0,0,0,74,60.61Z" fill="#e95544"/>
  </g>
</svg>
