<svg id="Layer_1" data-name="Layer 1" xmlns="http://www.w3.org/2000/svg" viewBox="0 0 144 144">
  <g id="Patent_Enforcement" data-name="Patent Enforcement">
    <path d="M62.4,72.13a7.65,7.65,0,0,1-2.22-5l-2.7-2.71L36.83,83.67l.92.93h0l4.4,4.4,5.33,5.32L65.92,74.5l-.14-.41A7.73,7.73,0,0,1,62.4,72.13Z" fill="none"/>
    <path d="M66.91,59.12a6.84,6.84,0,0,1,.91-.06,7.64,7.64,0,0,1,7.49,6.11L95.69,46.12l-.93-.93L86,36.39,85,35.46,64.85,57.06Z" fill="none"/>
    <path d="M85.51,97.51l-17.94,7.81a1.31,1.31,0,0,0-.69.68,1.26,1.26,0,0,0,.14,1.2,1.17,1.17,0,0,0,.36.34,1.27,1.27,0,0,0,1.17.07l18-7.82Z" fill="none"/>
    <path d="M36.08,87.69a1.32,1.32,0,0,0,0,1.87l5.51,5.52a1.33,1.33,0,0,0,1.87,0l1-1-7.38-7.39Z" fill="#667789"/>
    <path d="M95.47,43.07l1-1a1.33,1.33,0,0,0,0-1.87l-5.52-5.52a1.33,1.33,0,0,0-1.87,0l-1,1Z" fill="#667789"/>
    <path d="M73.83,71.45l6.54,3.34-.23-1.45a1,1,0,0,1,.54-1L82,71.63l-6.67-3.41A7.68,7.68,0,0,1,73.83,71.45Z" fill="#e95544"/>
    <path d="M68,74.36l2.58,8,.86-1.19a1,1,0,0,1,1.13-.37l1.39.47-2.51-7.75A7.56,7.56,0,0,1,68,74.36Z" fill="#e95544"/>
    <path d="M69.26,84.81a1,1,0,0,0,.8.68h.15a1,1,0,0,0,.81-.41l1.58-2.21,2.57.86a1,1,0,0,0,1.27-1.25l-2.89-8.94,7.68,3.93a1,1,0,0,0,.45.11,1,1,0,0,0,.59-.2,1,1,0,0,0,.4-1l-.44-2.67,2.43-1.21a1,1,0,0,0,0-1.79l-8-4.09L97.81,46.87a1,1,0,0,0,.32-.71,1,1,0,0,0-.3-.72l-1-1,1-1a3.31,3.31,0,0,0,0-4.69L92.33,33.3a3.4,3.4,0,0,0-4.69,0l-1,1-1-1A1,1,0,0,0,85,33a1,1,0,0,0-.71.31L62.23,56.94l-5.41,5.41L34.71,82.92a1,1,0,0,0-.32.71,1,1,0,0,0,.29.73l1,1-1,1a3.32,3.32,0,0,0,0,4.69l5.52,5.52a3.33,3.33,0,0,0,4.7,0l1-1,.95,1a1,1,0,0,0,.7.29h0a1,1,0,0,0,.72-.31L66.62,76.68Zm3.28-4.06a1,1,0,0,0-1.13.37l-.86,1.19-2.58-8a7.56,7.56,0,0,0,3.45-.89l2.51,7.75Zm-8.72-10a5.65,5.65,0,1,1,4,1.66A5.62,5.62,0,0,1,63.82,70.71Zm-4.9-7.64,4.56-4.56,1.21,1.22A7.54,7.54,0,0,0,62.4,61.3a7.65,7.65,0,0,0-1.94,3.31Zm21.76,9.22a1,1,0,0,0-.54,1l.23,1.45-6.54-3.34a7.68,7.68,0,0,0,1.49-3.23L82,71.63ZM90.92,34.71l5.52,5.52a1.33,1.33,0,0,1,0,1.87l-1,1-7.39-7.38,1-1A1.33,1.33,0,0,1,90.92,34.71ZM85,35.46l.93.93,8.8,8.8.93.93L75.31,65.17a7.64,7.64,0,0,0-7.49-6.11,6.84,6.84,0,0,0-.91.06l-2.06-2.06ZM44.43,94.11l-1,1a1.33,1.33,0,0,1-1.87,0l-5.51-5.52a1.32,1.32,0,0,1,0-1.87l1-1Zm3,.21L42.15,89l-4.4-4.4h0l-.92-.93L57.48,64.46l2.7,2.71a7.61,7.61,0,0,0,5.6,6.92l.14.41Z" fill="#334a62"/>
    <path d="M67.82,72.37a5.67,5.67,0,1,0-4-1.66A5.62,5.62,0,0,0,67.82,72.37Z" fill="#e95544"/>
    <polygon points="89.17 94.16 86.64 95.29 88.97 100.34 91.45 99.23 89.17 94.16" fill="#f4f4f4"/>
    <rect x="91.76" y="89.92" width="8.57" height="8.39" transform="translate(-30.1 47.53) rotate(-24.15)" fill="#667789"/>
    <path d="M88,90a.87.87,0,0,0,.49.47.89.89,0,0,0,.68,0l8.62-3.86a.9.9,0,0,0,.45-1.18.88.88,0,0,0-1.17-.45l-8.62,3.87A.88.88,0,0,0,88,90Z" fill="#e95544"/>
    <path d="M104.07,98.29a.88.88,0,0,0-.81-.52,1,1,0,0,0-.37.07l-8.62,3.87a.89.89,0,1,0,.73,1.62l8.62-3.86A.89.89,0,0,0,104.07,98.29Z" fill="#e95544"/>
    <rect x="94.11" y="106.92" width="12.85" height="0.02" fill="#fff"/>
    <path d="M108.31,109.29a.35.35,0,0,0-.35-.35H93.11a.35.35,0,0,0-.35.35v.35h15.55Z" fill="#fff"/>
    <path d="M109,107.17v-.58a1.67,1.67,0,0,0-1.67-1.67H96.35l8.09-3.63a2.89,2.89,0,0,0-.75-5.49l-3.81-8.51a2.88,2.88,0,0,0-3.6-4.2L87.66,87a2.89,2.89,0,0,0-1.46,3.82,2.93,2.93,0,0,0,1.61,1.52,2.62,2.62,0,0,0,.4.11l-2.39,1.07a1.94,1.94,0,0,0-1.1,2.2l-18,7.82h0A3.36,3.36,0,0,0,65,105.24a3.28,3.28,0,0,0,.34,3.09,3.08,3.08,0,0,0,1,.92,3.26,3.26,0,0,0,1.69.48,3.2,3.2,0,0,0,1.31-.29l18.05-7.85a1.92,1.92,0,0,0,2.33.6l2.39-1.07a2.85,2.85,0,0,0,1.09,3.9,1.68,1.68,0,0,0-1.1,1.57v.58a2.36,2.36,0,0,0-1.35,2.12v1.35a1,1,0,0,0,1,1h17.55a1,1,0,0,0,1-1v-1.35A2.34,2.34,0,0,0,109,107.17Zm-14.85-.25H107v0H94.11Zm-1.35,2.37a.35.35,0,0,1,.35-.35H108a.35.35,0,0,1,.35.35v.35H92.76Zm-3.79-9-2.33-5,2.53-1.13,2.28,5.07Zm-.49-11.56,8.62-3.87a.88.88,0,0,1,1.17.45.9.9,0,0,1-.45,1.18L89.2,90.4a.89.89,0,0,1-.68,0A.87.87,0,0,1,88,90,.88.88,0,0,1,88.48,88.78Zm15.14,10.69L95,103.33a.89.89,0,1,1-.73-1.62l8.62-3.87a1,1,0,0,1,.37-.07.88.88,0,0,1,.81.52A.89.89,0,0,1,103.62,99.47Zm-9.77.23-3.43-7.65,7.82-3.51,3.44,7.66Zm-25.3,7.91a1.27,1.27,0,0,1-1.17-.07,1.17,1.17,0,0,1-.36-.34,1.26,1.26,0,0,1-.14-1.2,1.31,1.31,0,0,1,.69-.68l17.94-7.81,1,2.28Z" fill="#334a62"/>
    <path d="M62.4,61.3a7.54,7.54,0,0,1,2.29-1.57l-1.21-1.22-4.56,4.56,1.54,1.54A7.65,7.65,0,0,1,62.4,61.3Z" fill="#e95544"/>
  </g>
</svg>
