<svg id="Layer_1" data-name="Layer 1" xmlns="http://www.w3.org/2000/svg" viewBox="0 0 144 144">
  <g id="Pharmaceuticals_Biochemistry_Vet_Sciences" data-name="Pharmaceuticals Biochemistry Vet Sciences">
    <rect x="66.64" y="94.96" width="25.53" height="11.46" fill="none"/>
    <rect x="66.64" y="57.1" width="25.53" height="10.68" fill="none"/>
    <path d="M50.8,94.53l-2.06,5.81a4.44,4.44,0,1,0,8.37,3l2.11-6Z" fill="none"/>
    <path d="M59.89,95.46l2.11-6a4.44,4.44,0,1,0-8.36-3l-2.17,6.12Z" fill="#e95544"/>
    <path d="M60,81.94a6.44,6.44,0,0,0-8.22,3.92L46.86,99.67A6.44,6.44,0,0,0,59,104l4.89-13.81A6.44,6.44,0,0,0,60,81.94Zm-.67,1.88A4.42,4.42,0,0,1,62,89.49l-2.11,6-8.42-2.82,2.17-6.12A4.44,4.44,0,0,1,59.3,83.82ZM57.11,103.3a4.44,4.44,0,0,1-8.37-3l2.06-5.81,8.42,2.82Z" fill="#334a62"/>
    <path d="M90.24,41V37.65a.09.09,0,0,0-.07-.08H68.65a.08.08,0,0,0-.07.08V41a2.07,2.07,0,0,1-2.07,2.07H63.37a.08.08,0,0,0-.07.08V55a.07.07,0,0,0,.07.07H95.44l.07-11.93-3.2-.08A2.06,2.06,0,0,1,90.24,41Z" fill="#667789"/>
    <path d="M95.44,41.09H92.31a.07.07,0,0,1-.07-.07V37.65a2.08,2.08,0,0,0-2.07-2.08H68.65a2.08,2.08,0,0,0-2.07,2.08V41a.07.07,0,0,1-.07.07H63.37a2.08,2.08,0,0,0-2.07,2.08V55a2.07,2.07,0,0,0,2.07,2.07h1.27v50.33a1,1,0,0,0,1,1H93.17a1,1,0,0,0,1-1V57.1h1.27A2.07,2.07,0,0,0,97.51,55V43.17A2.07,2.07,0,0,0,95.44,41.09Zm0,14H63.37A.07.07,0,0,1,63.3,55V43.17a.08.08,0,0,1,.07-.08h3.14A2.07,2.07,0,0,0,68.58,41V37.65a.08.08,0,0,1,.07-.08H90.17a.09.09,0,0,1,.07.08V41a2.06,2.06,0,0,0,2.07,2.07l3.2.08ZM66.64,93V69.78H92.17V93Zm25.53,13.47H66.64V95H92.17Zm0-38.65H66.64V57.1H92.17Z" fill="#334a62"/>
    <rect x="66.64" y="69.78" width="25.53" height="23.18" fill="#f4f4f4"/>
  </g>
</svg>
