<svg id="Layer_1" data-name="Layer 1" xmlns="http://www.w3.org/2000/svg" viewBox="0 0 144 144">
  <g id="Physics">
    <path d="M34.34,87.69h75.31V45.2H34.34Zm24.33-35.2a3.07,3.07,0,0,1,3.07,3.07,3.11,3.11,0,0,1-.41,1.52L68,62.55A4.53,4.53,0,0,1,73.66,62l5.21-5.7a4.47,4.47,0,1,1,1.1,1L74.76,63a4.46,4.46,0,0,1,1,2.79,4.56,4.56,0,0,1-.33,1.7l5.94,3.22A3.87,3.87,0,1,1,80.6,73a4.05,4.05,0,0,1,.27-1.4l-5.94-3.21a4.56,4.56,0,0,1-3,1.89v3.86a4.54,4.54,0,1,1-1.5,0V70.26A4.52,4.52,0,0,1,67.27,68l-5.83,2.5a2.82,2.82,0,0,1,.08.65,2.85,2.85,0,1,1-.47-1.57l5.82-2.5a4.79,4.79,0,0,1-.21-1.32,4.5,4.5,0,0,1,.73-2.46l-6.7-5.48a3,3,0,0,1-2,.78,3.07,3.07,0,0,1,0-6.14Z" fill="none"/>
    <rect x="65.2" y="98.23" width="13.59" height="1.59" fill="none"/>
    <path d="M114.21,92.41V42a1.16,1.16,0,0,0-1.16-1.16H30.94A1.16,1.16,0,0,0,29.79,42V92.41a1.19,1.19,0,0,0,.1.46h84.22A1.19,1.19,0,0,0,114.21,92.41Zm-2.56-3.72a1,1,0,0,1-1,1H33.34a1,1,0,0,1-1-1V44.2a1,1,0,0,1,1-1h77.31a1,1,0,0,1,1,1Z" fill="#667789"/>
    <path d="M110.65,43.2H33.34a1,1,0,0,0-1,1V88.69a1,1,0,0,0,1,1h77.31a1,1,0,0,0,1-1V44.2A1,1,0,0,0,110.65,43.2Zm-1,44.49H34.34V45.2h75.31Z" fill="#334a62"/>
    <circle cx="71.2" cy="65.79" r="2.54" fill="#e95544"/>
    <path d="M73.74,78.59a2.54,2.54,0,1,0-2.54,2.54A2.54,2.54,0,0,0,73.74,78.59Z" fill="#e95544"/>
    <path d="M82.43,56a2.54,2.54,0,1,0-2.55-2.54A2.54,2.54,0,0,0,82.43,56Z" fill="#e95544"/>
    <path d="M58.67,56.63a1.07,1.07,0,1,0-1.07-1.07A1.07,1.07,0,0,0,58.67,56.63Z" fill="#f4f4f4"/>
    <path d="M58.67,58.63a3,3,0,0,0,2-.78l6.7,5.48a4.5,4.5,0,0,0-.73,2.46,4.79,4.79,0,0,0,.21,1.32l-5.82,2.5a2.85,2.85,0,1,0,.47,1.57,2.82,2.82,0,0,0-.08-.65L67.27,68a4.52,4.52,0,0,0,3.18,2.23v3.86a4.54,4.54,0,1,0,1.5,0V70.26a4.56,4.56,0,0,0,3-1.89l5.94,3.21A4.05,4.05,0,0,0,80.6,73a3.94,3.94,0,1,0,.75-2.27l-5.94-3.22a4.56,4.56,0,0,0,.33-1.7,4.46,4.46,0,0,0-1-2.79L80,57.3a4.5,4.5,0,0,0,2.46.73,4.6,4.6,0,1,0-3.56-1.75L73.66,62a4.53,4.53,0,0,0-5.64.57l-6.69-5.47a3.11,3.11,0,0,0,.41-1.52,3.07,3.07,0,1,0-3.07,3.07Zm.85,12.55a.85.85,0,1,1-.85-.85A.85.85,0,0,1,59.52,71.18Zm25-.1A1.9,1.9,0,1,1,82.6,73,1.9,1.9,0,0,1,84.5,71.08ZM58.67,54.49a1.07,1.07,0,1,1-1.07,1.07A1.07,1.07,0,0,1,58.67,54.49ZM71.2,63.25a2.54,2.54,0,1,1-2.54,2.54A2.54,2.54,0,0,1,71.2,63.25ZM68.66,78.59a2.54,2.54,0,1,1,2.54,2.54A2.54,2.54,0,0,1,68.66,78.59Zm11.22-25.1A2.55,2.55,0,1,1,82.43,56,2.55,2.55,0,0,1,79.88,53.49Z" fill="#334a62"/>
    <circle cx="84.5" cy="72.98" r="1.89" fill="#f4f4f4"/>
    <path d="M57.83,71.18a.85.85,0,1,0,.84-.85A.85.85,0,0,0,57.83,71.18Z" fill="#f4f4f4"/>
    <path d="M20.76,94.87c.51,1.92,2.94,8.31,12.6,8.31h77.27c9.67,0,12.09-6.37,12.61-8.31Zm60,5.95a1,1,0,0,1-1,1H64.2a1,1,0,0,1-1-1V97.23a1,1,0,0,1,1-1H79.8a1,1,0,0,1,1,1Z" fill="#667789"/>
    <path d="M125,93.41h0a1.51,1.51,0,0,0-1.16-.53h-7.66a3.41,3.41,0,0,0,0-.46V42a3.17,3.17,0,0,0-3.16-3.16H30.94A3.16,3.16,0,0,0,27.79,42V92.41a3.41,3.41,0,0,0,.05.46H20.18A1.51,1.51,0,0,0,19,93.4a1.55,1.55,0,0,0-.36,1.23c0,.11,1.81,10.55,14.7,10.55h77.27c13,0,14.69-10.45,14.7-10.52A1.5,1.5,0,0,0,125,93.41Zm-14.36,9.77H33.36c-9.66,0-12.09-6.39-12.6-8.31H123.24C122.72,96.81,120.3,103.18,110.63,103.18ZM29.79,92.41V42a1.16,1.16,0,0,1,1.15-1.16h82.11A1.16,1.16,0,0,1,114.21,42V92.41a1.19,1.19,0,0,1-.1.46H29.89A1.19,1.19,0,0,1,29.79,92.41Z" fill="#334a62"/>
    <path d="M79.8,96.23H64.2a1,1,0,0,0-1,1v3.59a1,1,0,0,0,1,1H79.8a1,1,0,0,0,1-1V97.23A1,1,0,0,0,79.8,96.23Zm-1,3.59H65.2V98.23H78.8Z" fill="#334a62"/>
  </g>
</svg>
