<svg id="Layer_1" data-name="Layer 1" xmlns="http://www.w3.org/2000/svg" viewBox="0 0 144 144">
  <g id="Plant_Breeder_Rights" data-name="Plant Breeder Rights">
    <path d="M77.48,66a14.88,14.88,0,0,0,22.84-10.51,1.87,1.87,0,0,0-.82-1.82A14.9,14.9,0,0,0,76.57,64l-3.48,1.58V60.38A14.9,14.9,0,0,0,73,35.23a1.9,1.9,0,0,0-2,0,14.9,14.9,0,0,0-.09,25.15v5.24L67.43,64A14.9,14.9,0,0,0,44.51,53.69a1.86,1.86,0,0,0-.83,1.82h0A14.88,14.88,0,0,0,66.52,66l4.39,2V77h-17a4,4,0,0,0-4,4V83.1A1.88,1.88,0,0,0,51.8,85h1.28l2.76,18a1.86,1.86,0,0,0,1.61,1.57v2.66a1.87,1.87,0,0,0,1.87,1.87H84.68a1.87,1.87,0,0,0,1.87-1.87v-2.66A1.86,1.86,0,0,0,88.16,103l2.76-18H92.2a1.87,1.87,0,0,0,1.87-1.87V81a4,4,0,0,0-4-4h-17V68Zm20.85-10.7a12.89,12.89,0,0,1-19.79,9,12.91,12.91,0,0,1,19.79-9ZM53.09,65.25a12.87,12.87,0,0,1-7.42-9.93,12.91,12.91,0,0,1,19.79,9A12.86,12.86,0,0,1,53.09,65.25ZM92.07,81v2H51.92V81a2,2,0,0,1,2-2H90.06A2,2,0,0,1,92.07,81ZM86.2,102.54h-.65a1,1,0,0,0-1,1v3.51H59.45v-3.51a1,1,0,0,0-1-1H57.8L55.1,85H88.9ZM72,58.71A12.9,12.9,0,0,1,72,37a12.9,12.9,0,0,1,0,21.74Z" fill="#334a62"/>
    <path d="M72,37a12.9,12.9,0,0,0,0,21.74A12.9,12.9,0,0,0,72,37Z" fill="#667789"/>
    <path d="M78.54,64.33a12.89,12.89,0,0,0,19.79-9,12.91,12.91,0,0,0-19.79,9Z" fill="#667789"/>
    <path d="M58,54.41a12.87,12.87,0,0,0-12.36.91,12.89,12.89,0,0,0,19.79,9A12.84,12.84,0,0,0,58,54.41Z" fill="#667789"/>
    <path d="M53.94,79a2,2,0,0,0-2,2v2H92.07V81a2,2,0,0,0-2-2Z" fill="#e95544"/>
    <path d="M57.8,102.54h.65a1,1,0,0,1,1,1v3.51h25.1v-3.51a1,1,0,0,1,1-1h.65L88.9,85H55.1Z" fill="#e95544"/>
  </g>
</svg>
