<svg id="Layer_1" data-name="Layer 1" xmlns="http://www.w3.org/2000/svg" viewBox="0 0 144 144">
  <g id="Registered_Design" data-name="Registered Design">
    <path d="M43.25,63.3A13.15,13.15,0,1,0,43.9,37h-.33a13.15,13.15,0,0,0-.32,26.29Zm-6.34-22a.77.77,0,0,1,.77-.74l5.08.13c2.55.06,4.41.58,5.67,1.59A5.88,5.88,0,0,1,49.25,50a6,6,0,0,1-2,1.68c2.29,3.62,3.76,5.91,4.47,7a.76.76,0,0,1,0,.78.75.75,0,0,1-.66.39h0l-4.1-.1a.75.75,0,0,1-.63-.38l-3.78-6.42-.8,0-.15,5.93a.76.76,0,0,1-.23.53.78.78,0,0,1-.54.2l-3.69-.09a.75.75,0,0,1-.73-.77Z" fill="none"/>
    <path d="M44.54,48a1.3,1.3,0,0,0,.54-1.21c0-.73-.25-1-.46-1.13a4.33,4.33,0,0,0-2.24-.47H42l-.08,3.21h.44A3.76,3.76,0,0,0,44.54,48Z" fill="none"/>
    <path d="M74.37,106.26a1,1,0,0,1,.85-.51H76.8V86.25H75.22a1,1,0,0,1-1-1v-3.1L60,75.73a1,1,0,0,1-1,.88H57.47v19.5h1.59a1,1,0,0,1,1,1v2.68Z" fill="#e95544"/>
    <path d="M95.55,97.11a1,1,0,0,1,1-1h1.58V76.61H96.55a1,1,0,0,1-1-.88L81.39,82.15v3.1a1,1,0,0,1-1,1H78.8v19.5h1.59a1,1,0,0,1,.85.51l14.31-6.47Z" fill="#fff"/>
    <path d="M60.06,73.55,74.24,80a1,1,0,0,1,1-.88h5.17a1,1,0,0,1,1,.88l14.19-6.41v-1L81.36,66.09a1,1,0,0,1-1,.88H75.22a1,1,0,0,1-1-.88L60.06,72.5Z" fill="#667789"/>
    <path d="M77.8,43.71a1,1,0,0,0,1-1v-.12a1,1,0,0,0-2,0v.12A1,1,0,0,0,77.8,43.71Z" fill="#334a62"/>
    <path d="M118.86,106.09l-.11,0a1,1,0,1,0-.73,1.86l.12,0a.89.89,0,0,0,.36.07,1,1,0,0,0,.36-1.93Z" fill="#334a62"/>
    <path d="M114.84,104.51l-12.12-4.74V97.11a1,1,0,0,0-1-1h-1.59V76.61h1.59a1,1,0,0,0,1-1V70.44a1,1,0,0,0-1-1H96.55a1,1,0,0,0-1,.88L81.39,63.9V60.8a1,1,0,0,0-1-1H78.8V46.91a1,1,0,0,0-2,0V59.8H75.22a1,1,0,0,0-1,1v3.1L60,70.32a1,1,0,0,0-1-.88H53.89a1,1,0,0,0-1,1v5.17a1,1,0,0,0,1,1h1.58v19.5H53.89a1,1,0,0,0-1,1v2.66l-12.12,4.74a1,1,0,0,0,.36,1.93,1.13,1.13,0,0,0,.36-.06l11.4-4.46v.36a1,1,0,0,0,1,1h5.17a1,1,0,0,0,1-1V102l14.16,6.41v3.53a1,1,0,0,0,1,1h5.17a1,1,0,0,0,1-1v-3.53L95.55,102v.3a1,1,0,0,0,1,1h5.17a1,1,0,0,0,1-1v-.36l11.39,4.46a1.19,1.19,0,0,0,.37.06,1,1,0,0,0,.36-1.93Zm-17.29-3.23V98.11h3.17v3.17Zm-16.31,5a1,1,0,0,0-.85-.51H78.8V86.25h1.59a1,1,0,0,0,1-1v-3.1l14.18-6.42a1,1,0,0,0,1,.88h1.58v19.5H96.55a1,1,0,0,0-1,1v2.68Zm-5,4.66v-3.17h3.17v3.17Zm-21.33-9.64V98.11h3.17v3.17Zm4.17-5.17H57.47V76.61h1.59a1,1,0,0,0,1-.88l14.19,6.42v3.1a1,1,0,0,0,1,1H76.8v19.5H75.22a1,1,0,0,0-.85.51L60.06,99.79V97.11A1,1,0,0,0,59.06,96.11ZM54.89,71.44h3.17v3.17H54.89ZM79.39,65H76.22V61.8h3.17Zm-4.17,2h5.17a1,1,0,0,0,1-.88L95.55,72.5v1L81.36,80a1,1,0,0,0-1-.88H75.22a1,1,0,0,0-1,.88L60.06,73.55v-1l14.18-6.41A1,1,0,0,0,75.22,67Zm25.5,4.47v3.17H97.55V71.44Zm-24.5,9.64h3.17v3.17H76.22Z" fill="#334a62"/>
    <path d="M36.86,106l-.11,0a1,1,0,0,0-.58,1.3,1,1,0,0,0,.94.64.92.92,0,0,0,.36-.07l.11,0a1,1,0,0,0-.72-1.87Z" fill="#334a62"/>
    <rect x="54.89" y="71.44" width="3.17" height="3.17" fill="#fff"/>
    <rect x="97.55" y="71.44" width="3.17" height="3.17" fill="#fff"/>
    <rect x="76.22" y="61.8" width="3.17" height="3.17" fill="#fff"/>
    <rect x="76.22" y="81.08" width="3.17" height="3.17" fill="#fff"/>
    <rect x="54.89" y="98.11" width="3.17" height="3.17" fill="#fff"/>
    <rect x="97.55" y="98.11" width="3.17" height="3.17" fill="#fff"/>
    <rect x="76.22" y="107.75" width="3.17" height="3.17" fill="#fff"/>
    <path d="M30.84,62.27A17.58,17.58,0,1,0,44,32.58h-.45A17.58,17.58,0,0,0,30.84,62.27Zm2.64-22.73A14.65,14.65,0,1,1,43.59,64.81h-.38a14.65,14.65,0,0,1-9.73-25.26Z" fill="#667789"/>
    <path d="M43.59,69.23a18.56,18.56,0,1,0-.48,0Zm0-36.65H44a17.8,17.8,0,1,1-.45,0Z" fill="#334a62"/>
    <path d="M43.21,64.8h.38a14.86,14.86,0,1,0-.38,0ZM43.57,37h.33A13.16,13.16,0,0,1,56.72,50.48,13.15,13.15,0,0,1,43.25,63.3,13.15,13.15,0,0,1,43.57,37Z" fill="#334a62"/>
    <path d="M40.34,52.1a.78.78,0,0,1,.77-.73l2,.05a.77.77,0,0,1,.63.37l3.78,6.43,2.26.05c-.9-1.39-2.27-3.55-4.16-6.53a.73.73,0,0,1-.08-.63.7.7,0,0,1,.43-.46,4.94,4.94,0,0,0,2.12-1.57,4,4,0,0,0,.77-2.29,3.89,3.89,0,0,0-1.33-3.36,8,8,0,0,0-4.77-1.26l-4.32-.11L38,58l2.19.05Zm.19-7.71a.78.78,0,0,1,.23-.52.8.8,0,0,1,.54-.21l1.12,0a5.86,5.86,0,0,1,3,.71,2.61,2.61,0,0,1,1.14,2.43,2.8,2.8,0,0,1-1.21,2.42,4.9,4.9,0,0,1-2.76.65h-.27l-1.19,0a.8.8,0,0,1-.53-.23.78.78,0,0,1-.21-.54Z" fill="#e95544"/>
    <path d="M37.21,59.46l3.69.09a.78.78,0,0,0,.54-.2.76.76,0,0,0,.23-.53l.15-5.93.8,0,3.78,6.42a.75.75,0,0,0,.63.38l4.1.1h0a.75.75,0,0,0,.66-.39.76.76,0,0,0,0-.78c-.71-1.08-2.18-3.37-4.47-7a6,6,0,0,0,2-1.68,5.88,5.88,0,0,0-.82-7.71c-1.26-1-3.12-1.53-5.67-1.59l-5.08-.13a.77.77,0,0,0-.77.74l-.43,17.41A.75.75,0,0,0,37.21,59.46Zm1.19-17.4,4.32.11a8,8,0,0,1,4.77,1.26,3.89,3.89,0,0,1,1.33,3.36,4,4,0,0,1-.77,2.29,4.94,4.94,0,0,1-2.12,1.57.7.7,0,0,0-.43.46.73.73,0,0,0,.08.63c1.89,3,3.26,5.14,4.16,6.53l-2.26-.05L43.7,51.79a.77.77,0,0,0-.63-.37l-2-.05a.78.78,0,0,0-.77.73L40.19,58,38,58Z" fill="#334a62"/>
    <path d="M41.15,49.87l1.19,0h.27a4.9,4.9,0,0,0,2.76-.65,2.8,2.8,0,0,0,1.21-2.42,2.61,2.61,0,0,0-1.14-2.43,5.86,5.86,0,0,0-3-.71l-1.12,0a.8.8,0,0,0-.54.21.78.78,0,0,0-.23.52l-.12,4.71a.78.78,0,0,0,.21.54A.8.8,0,0,0,41.15,49.87ZM42,45.18h.37a4.33,4.33,0,0,1,2.24.47c.21.13.48.4.46,1.13A1.3,1.3,0,0,1,44.54,48a3.76,3.76,0,0,1-2.17.4h-.44Z" fill="#334a62"/>
  </g>
</svg>
