<svg id="Layer_1" data-name="Layer 1" xmlns="http://www.w3.org/2000/svg" viewBox="0 0 144 144">
  <g id="Software">
    <path d="M98.62,62.71a1,1,0,1,0,1,1A1,1,0,0,0,98.62,62.71Z" fill="none"/>
    <path d="M44.38,101.83H99.62V69.77H44.38ZM79.57,75.14a1.75,1.75,0,0,1,2.47.07L90.9,84.6a1.74,1.74,0,0,1,0,2.4L82,96.39a1.77,1.77,0,0,1-1.27.54A1.74,1.74,0,0,1,79.5,94l7.73-8.19L79.5,77.61A1.74,1.74,0,0,1,79.57,75.14ZM66.81,94.44l7.11-18.53a1.75,1.75,0,1,1,3.27,1.25L70.08,95.69a1.76,1.76,0,0,1-1.64,1.12,1.93,1.93,0,0,1-.62-.11A1.76,1.76,0,0,1,66.81,94.44ZM53.1,84.6,62,75.21a1.75,1.75,0,1,1,2.54,2.4L56.77,85.8,64.5,94A1.75,1.75,0,0,1,62,96.39L53.1,87A1.74,1.74,0,0,1,53.1,84.6Z" fill="none"/>
    <path d="M86.46,64.72a1,1,0,0,0,1-1,1,1,0,1,0-1,1Z" fill="none"/>
    <path d="M92.48,64.72a1,1,0,0,0,1-1,1,1,0,0,0-1-1,1,1,0,1,0,0,2Z" fill="none"/>
    <path d="M100.62,59.69H43.38a3,3,0,0,0-3,3v40.13a3,3,0,0,0,3,3h57.24a3,3,0,0,0,3-3V62.7A3,3,0,0,0,100.62,59.69Zm-14.16,1a3,3,0,0,1,3,3,3,3,0,1,1,3,3,3,3,0,0,1-3-3,3,3,0,1,1-3-3Zm15.16,42.12a1,1,0,0,1-1,1H43.38a1,1,0,0,1-1-1V68.77a1,1,0,0,1,1-1h57.24a1,1,0,0,1,1,1Zm-3-36.11a3,3,0,1,1,3-3A3,3,0,0,1,98.62,66.72Z" fill="#667789"/>
    <path d="M100.62,57.69H43.38a5,5,0,0,0-5,5v40.13a5,5,0,0,0,5,5h57.24a5,5,0,0,0,5-5V62.7A5,5,0,0,0,100.62,57.69Zm3,45.14a3,3,0,0,1-3,3H43.38a3,3,0,0,1-3-3V62.7a3,3,0,0,1,3-3h57.24a3,3,0,0,1,3,3Z" fill="#334a62"/>
    <path d="M98.62,60.71a3,3,0,1,0,3,3A3,3,0,0,0,98.62,60.71Zm0,4a1,1,0,0,1,0-2,1,1,0,0,1,1,1A1,1,0,0,1,98.62,64.72Z" fill="#334a62"/>
    <path d="M100.62,67.77H43.38a1,1,0,0,0-1,1v34.06a1,1,0,0,0,1,1h57.24a1,1,0,0,0,1-1V68.77A1,1,0,0,0,100.62,67.77Zm-1,34.06H44.38V69.77H99.62Z" fill="#334a62"/>
    <path d="M92.48,66.72a3,3,0,1,0-3-3A3,3,0,0,0,92.48,66.72Zm0-4a1,1,0,0,1,1,1,1,1,0,1,1-1-1Z" fill="#334a62"/>
    <path d="M86.46,66.72a3,3,0,1,0-3-3A3,3,0,0,0,86.46,66.72Zm0-4a1,1,0,0,1,1,1,1,1,0,1,1-1-1Z" fill="#334a62"/>
    <path d="M67.82,96.7a1.93,1.93,0,0,0,.62.11,1.76,1.76,0,0,0,1.64-1.12l7.11-18.53a1.75,1.75,0,1,0-3.27-1.25L66.81,94.44A1.76,1.76,0,0,0,67.82,96.7Z" fill="#e95544"/>
    <path d="M87.23,85.8,79.5,94a1.74,1.74,0,0,0,1.27,2.94A1.77,1.77,0,0,0,82,96.39L90.9,87a1.74,1.74,0,0,0,0-2.4L82,75.21a1.75,1.75,0,0,0-2.54,2.4Z" fill="#e95544"/>
    <path d="M62,96.39A1.75,1.75,0,1,0,64.5,94L56.77,85.8l7.73-8.19A1.75,1.75,0,1,0,62,75.21L53.1,84.6a1.74,1.74,0,0,0,0,2.4Z" fill="#e95544"/>
    <path d="M72,48.39a7.11,7.11,0,0,1,7,6.06H89.26c0-.31,0-.62-.08-.92,0,0-.11,0-.18,0a5,5,0,0,1-3.44-8.77A16.78,16.78,0,0,0,82.83,42a5.22,5.22,0,0,1-5.71,1.28,5.07,5.07,0,0,1-3.09-5,16.42,16.42,0,0,0-3.9,0A5.11,5.11,0,0,1,67,43.14a5.19,5.19,0,0,1-5.65-1.28,16.38,16.38,0,0,0-2.82,2.76,5.11,5.11,0,0,1,1.28,5.72,5.24,5.24,0,0,1-4.91,3.08,8.8,8.8,0,0,0-.14,1H65A7.12,7.12,0,0,1,72,48.39Z" fill="#f4f4f4"/>
    <path d="M66.94,55.45a5.1,5.1,0,0,1,10.19,0v1H91.29v-1a18.92,18.92,0,0,0-.12-2.14A2.16,2.16,0,0,0,89,51.52a3,3,0,0,1-2.09-5.3,2,2,0,0,0,.23-2.73,19.45,19.45,0,0,0-3.06-3.09,2,2,0,0,0-2.76.22,3.22,3.22,0,0,1-3.43.78,3.06,3.06,0,0,1-1.86-3,2,2,0,0,0-1.78-2.12,19.68,19.68,0,0,0-4.34,0,2,2,0,0,0-1.8,2.08,3.06,3.06,0,0,1-1.88,2.94,3.23,3.23,0,0,1-3.41-.78,2,2,0,0,0-2.74-.23A19,19,0,0,0,57,43.37a2,2,0,0,0,.22,2.76A3,3,0,0,1,58,49.56a3.21,3.21,0,0,1-3,1.86,2,2,0,0,0-2.09,1.78,20.78,20.78,0,0,0-.12,2.25v1H66.93Zm-12.19-1a8.8,8.8,0,0,1,.14-1,5.24,5.24,0,0,0,4.91-3.08,5.11,5.11,0,0,0-1.28-5.72,16.38,16.38,0,0,1,2.82-2.76A5.19,5.19,0,0,0,67,43.14a5.11,5.11,0,0,0,3.14-4.88,16.42,16.42,0,0,1,3.9,0,5.07,5.07,0,0,0,3.09,5A5.22,5.22,0,0,0,82.83,42a16.78,16.78,0,0,1,2.73,2.79A5,5,0,0,0,89,53.52c.07,0,.18,0,.18,0,0,.3.06.61.08.92H79.05a7.1,7.1,0,0,0-14,0Z" fill="#334a62"/>
  </g>
</svg>
