<svg id="Layer_1" data-name="Layer 1" xmlns="http://www.w3.org/2000/svg" viewBox="0 0 144 144">
  <g id="Trade_Mark_Oppositions" data-name="Trade Mark Oppositions">
    <path d="M72.06,71.54A11.65,11.65,0,1,0,60.41,59.89,11.66,11.66,0,0,0,72.06,71.54ZM70.92,55.39h2.42l2,6.39h0l2.1-6.39h2.41v8.36H78.21v-4c0-.18,0-.4,0-.64s0-.89.07-1.95h-.05l-2.15,6.55H74.46l-2-6.56h0c.07,1.34.11,2.23.11,2.67v3.89H70.92Zm-1.28,0v1.48H67.37v6.88H65.6V56.87H63.33V55.39Z" fill="#e95544"/>
    <path d="M72.06,73.54A13.65,13.65,0,1,0,58.41,59.89,13.66,13.66,0,0,0,72.06,73.54Zm0-25.29A11.65,11.65,0,1,1,60.41,59.89,11.65,11.65,0,0,1,72.06,48.25Z" fill="#334a62"/>
    <polygon points="65.6 56.87 65.6 63.75 67.37 63.75 67.37 56.87 69.64 56.87 69.64 55.39 63.33 55.39 63.33 56.87 65.6 56.87" fill="#fff"/>
    <path d="M72.51,59.86c0-.44,0-1.33-.11-2.67h0l2,6.56h1.63l2.15-6.55h.05c0,1.06-.07,1.7-.07,1.95s0,.46,0,.64v4h1.65V55.39H77.45l-2.1,6.39h0l-2-6.39H70.92v8.36h1.59Z" fill="#fff"/>
    <path d="M98.82,79.67H95.69a13.43,13.43,0,0,0-10,4.4,13.64,13.64,0,0,0-3.54,10.35,10,10,0,0,1-.25,3.27l-2.47,8.58a.74.74,0,0,0,.18.58.77.77,0,0,0,.6.28h3.23l1.49,7.81a2.39,2.39,0,0,0,2.36,2.4h18c.3-2.77,1.82-6.81,4.51-12a22,22,0,0,0,2.58-10.14v-1.9A13.61,13.61,0,0,0,98.82,79.67Z" fill="#f4f4f4"/>
    <path d="M98.82,77.67H95.69A15.61,15.61,0,0,0,80.15,94.59,8,8,0,0,1,80,97.18l-2.48,8.61a2.78,2.78,0,0,0,2.72,3.34h1.58l1.14,5.9a4.38,4.38,0,0,0,4.36,4.3h20v-1c0-1.68.75-5.14,4.34-12.1a23.9,23.9,0,0,0,2.81-11.06v-1.9A15.62,15.62,0,0,0,98.82,77.67Zm13.6,17.5a22,22,0,0,1-2.58,10.14c-2.69,5.21-4.21,9.25-4.51,12h-18a2.39,2.39,0,0,1-2.36-2.4l-1.49-7.81H80.2a.77.77,0,0,1-.6-.28.74.74,0,0,1-.18-.58l2.47-8.58a10,10,0,0,0,.25-3.27,13.64,13.64,0,0,1,3.54-10.35,13.43,13.43,0,0,1,10-4.4h3.13a13.61,13.61,0,0,1,13.6,13.6Z" fill="#334a62"/>
    <path d="M62.12,97.73a10.05,10.05,0,0,1-.26-3.31,13.64,13.64,0,0,0-3.54-10.35,13.43,13.43,0,0,0-10-4.4H45.18a13.61,13.61,0,0,0-13.6,13.6v1.9a22,22,0,0,0,2.58,10.14c2.69,5.21,4.21,9.25,4.51,12h18a2.39,2.39,0,0,0,2.36-2.4l0-.19,1.47-7.62H63.8a.77.77,0,0,0,.6-.28.75.75,0,0,0,.16-.65Z" fill="#f4f4f4"/>
    <path d="M64.05,97.22a8,8,0,0,1-.2-2.63A15.61,15.61,0,0,0,48.31,77.67H45.18a15.62,15.62,0,0,0-15.6,15.6v1.9a23.9,23.9,0,0,0,2.81,11.06c3.59,7,4.34,10.42,4.34,12.1v1h20a4.38,4.38,0,0,0,4.36-4.3l1.14-5.9h1.57a2.84,2.84,0,0,0,2.16-1,2.76,2.76,0,0,0,.55-2.39Zm.35,9.63a.77.77,0,0,1-.6.28H60.57l-1.47,7.62,0,.19a2.39,2.39,0,0,1-2.36,2.4h-18c-.3-2.77-1.82-6.81-4.51-12a22,22,0,0,1-2.58-10.14v-1.9a13.61,13.61,0,0,1,13.6-13.6h3.13a13.43,13.43,0,0,1,10,4.4,13.64,13.64,0,0,1,3.54,10.35,10.05,10.05,0,0,0,.26,3.31l2.44,8.47A.75.75,0,0,1,64.4,106.85Z" fill="#334a62"/>
    <path d="M72,27.67a.5.5,0,0,0,.5-.5v-2a.5.5,0,0,0-1,0v2A.5.5,0,0,0,72,27.67Z" fill="#334a62"/>
    <path d="M72,35.9a.5.5,0,0,0,.5-.5V31.28a.5.5,0,0,0-1,0V35.4A.5.5,0,0,0,72,35.9Z" fill="#334a62"/>
    <path d="M72,42a.5.5,0,0,0,.5-.5v-2a.5.5,0,0,0-1,0v2A.5.5,0,0,0,72,42Z" fill="#334a62"/>
    <path d="M72,78.94a.5.5,0,0,0-.5.5v2a.5.5,0,0,0,1,0v-2A.5.5,0,0,0,72,78.94Z" fill="#334a62"/>
    <path d="M72,99.21a.5.5,0,0,0-.5.5v3.66a.5.5,0,0,0,1,0V99.71A.5.5,0,0,0,72,99.21Z" fill="#334a62"/>
    <path d="M72,106.52a.5.5,0,0,0-.5.5v3.66a.5.5,0,0,0,1,0V107A.5.5,0,0,0,72,106.52Z" fill="#334a62"/>
    <path d="M72,91.9a.5.5,0,0,0-.5.5v3.66a.5.5,0,0,0,1,0V92.4A.5.5,0,0,0,72,91.9Z" fill="#334a62"/>
    <path d="M72,84.59a.5.5,0,0,0-.5.5v3.66a.5.5,0,0,0,1,0V85.09A.5.5,0,0,0,72,84.59Z" fill="#334a62"/>
    <path d="M72,113.83a.5.5,0,0,0-.5.5v2a.5.5,0,0,0,1,0v-2A.5.5,0,0,0,72,113.83Z" fill="#334a62"/>
  </g>
</svg>
