<svg id="Layer_1" data-name="Layer 1" xmlns="http://www.w3.org/2000/svg" viewBox="0 0 144 144">
  <g id="Trade_Mark_Enforcement" data-name="Trade Mark Enforcement">
    <path d="M87.18,64.5,69.24,72.31a1.31,1.31,0,0,0-.69.68,1.26,1.26,0,0,0,.14,1.2,1.17,1.17,0,0,0,.36.34,1.28,1.28,0,0,0,1.17.08l18-7.83Z" fill="none"/>
    <path d="M69.65,93.24a.82.82,0,0,1,0-.22c0-1.42-.36-1.88-.52-2a.81.81,0,0,0-.22-.12H59.56a1,1,0,0,1-1-.92c-.67-8.36,4-29.21,6-37.79a10.72,10.72,0,0,0-.45-6.71,12.12,12.12,0,0,0-22.32,0,10.79,10.79,0,0,0-.44,6.71c2,8.58,6.68,29.44,6,37.79a1,1,0,0,1-1,.92H37.07a.64.64,0,0,0-.24.15c-.15.14-.49.62-.49,2a.83.83,0,0,1,0,.22,2.44,2.44,0,0,1-2.17,1.93A1.82,1.82,0,0,0,34,96v3.66c0,.51.33.51.52.51H71.43a.5.5,0,0,0,.37-.1.61.61,0,0,0,.14-.4V96a2.09,2.09,0,0,0-.11-.79A2.46,2.46,0,0,1,69.65,93.24ZM42.58,49.71A10.25,10.25,0,1,1,52.83,60,10.26,10.26,0,0,1,42.58,49.71Z" fill="none"/>
    <path d="M38.8,102.13v1.52a2.28,2.28,0,0,0,2.28,2.28H64.49a2.28,2.28,0,0,0,2.28-2.28v-1.52Z" fill="#e95544"/>
    <path d="M72,93.18c-.18,0-.28-.21-.33-.32a4.36,4.36,0,0,0-1.2-3.37,2.47,2.47,0,0,0-1.72-.6H60.51C60.25,80,65,59,66.53,52.64a12.82,12.82,0,0,0-.54-8,14.12,14.12,0,0,0-26,0,12.75,12.75,0,0,0-.55,8C41,59,45.71,80,45.45,88.89H37.26a2.47,2.47,0,0,0-1.72.6,4.41,4.41,0,0,0-1.2,3.37c0,.12-.13.32-.25.32a1.76,1.76,0,0,0-1.27.46A3,3,0,0,0,32,96V99.6a2.7,2.7,0,0,0,.72,1.83,2.42,2.42,0,0,0,1.8.7H36.8v1.52a4.28,4.28,0,0,0,4.28,4.28H64.49a4.28,4.28,0,0,0,4.28-4.28v-1.52h2.66a2.42,2.42,0,0,0,1.8-.7,2.66,2.66,0,0,0,.71-1.81V96a3,3,0,0,0-.79-2.32A1.65,1.65,0,0,0,72,93.18Zm-7.46,12.75H41.08a2.28,2.28,0,0,1-2.28-2.28v-1.52h28v1.52A2.28,2.28,0,0,1,64.49,105.93Zm7.45-6.3a.61.61,0,0,1-.14.4.5.5,0,0,1-.37.1H34.54c-.19,0-.51,0-.52-.51V96a1.82,1.82,0,0,1,.12-.79,2.44,2.44,0,0,0,2.17-1.93.83.83,0,0,0,0-.22c0-1.37.34-1.85.49-2a.64.64,0,0,1,.24-.15H46.4a1,1,0,0,0,1-.92c.66-8.35-4-29.21-6-37.79a10.79,10.79,0,0,1,.44-6.71,12.12,12.12,0,0,1,22.32,0,10.72,10.72,0,0,1,.45,6.71c-2,8.58-6.69,29.43-6,37.79a1,1,0,0,0,1,.92h9.33a.81.81,0,0,1,.22.12c.16.14.52.6.52,2a.82.82,0,0,0,0,.22,2.46,2.46,0,0,0,2.18,1.93,2.09,2.09,0,0,1,.11.79Z" fill="#334a62"/>
    <path d="M52.83,41.46a8.25,8.25,0,1,0,8.25,8.25A8.26,8.26,0,0,0,52.83,41.46Zm-1.78,6H49.39v5H48.1v-5H46.44V46.42h4.61Zm7.48,5H57.32V49.64c0-.14,0-.3,0-.47s0-.66.05-1.43h0l-1.58,4.79H54.58l-1.47-4.79h0c.06,1,.08,1.62.08,1.95v2.84H52V46.42h1.76l1.45,4.67h0l1.54-4.67h1.76Z" fill="#667789"/>
    <path d="M63.08,49.71A10.25,10.25,0,1,0,52.83,60,10.26,10.26,0,0,0,63.08,49.71ZM52.83,58a8.25,8.25,0,1,1,8.25-8.25A8.26,8.26,0,0,1,52.83,58Z" fill="#334a62"/>
    <polygon points="46.44 47.5 48.1 47.5 48.1 52.53 49.4 52.53 49.4 47.5 51.05 47.5 51.05 46.42 46.44 46.42 46.44 47.5" fill="#fff"/>
    <path d="M55.23,51.09h0l-1.45-4.67H52v6.11h1.15V49.69c0-.33,0-1-.08-1.95h0l1.47,4.79h1.19l1.58-4.79h0c0,.77-.05,1.25-.05,1.43s0,.33,0,.47v2.89h1.21V46.42H56.77Z" fill="#fff"/>
    <polygon points="90.84 61.15 88.31 62.28 90.64 67.33 93.12 66.22 90.84 61.15" fill="#f4f4f4"/>
    <rect x="93.43" y="56.92" width="8.57" height="8.39" transform="translate(-16.45 45.32) rotate(-24.15)" fill="#667789"/>
    <path d="M90.87,57.39l8.62-3.86a.89.89,0,0,0-.72-1.63l-8.63,3.87a.89.89,0,0,0-.44,1.17A.89.89,0,0,0,90.87,57.39Z" fill="#e95544"/>
    <path d="M105.74,65.28a.88.88,0,0,0-.81-.52.94.94,0,0,0-.37.07L95.94,68.7a.89.89,0,0,0-.45,1.17h0a.9.9,0,0,0,.5.46.85.85,0,0,0,.68,0l8.62-3.86A.89.89,0,0,0,105.74,65.28Z" fill="#e95544"/>
    <rect x="95.78" y="73.91" width="12.85" height="0.02" fill="#fff"/>
    <path d="M110,76.28a.35.35,0,0,0-.35-.35H94.78a.35.35,0,0,0-.35.35v.35H110Z" fill="#fff"/>
    <path d="M110.63,74.16v-.58A1.67,1.67,0,0,0,109,71.91H98l8.08-3.63a2.88,2.88,0,0,0,1.45-3.82,2.9,2.9,0,0,0-2.2-1.67l-3.81-8.5a2.93,2.93,0,0,0,.22-2.76A2.89,2.89,0,0,0,98,50.08l-8.62,3.86a2.88,2.88,0,0,0,.55,5.45l-2.39,1.07a1.94,1.94,0,0,0-1.1,2.2l-18,7.82h0a3.32,3.32,0,0,0-1.73,1.75A3.28,3.28,0,0,0,67,75.32a3.23,3.23,0,0,0,1,.93,3.34,3.34,0,0,0,1.69.47A3.2,3.2,0,0,0,71,76.43l18-7.85a2,2,0,0,0,1.54.77,1.81,1.81,0,0,0,.79-.17l2.39-1.07a2.85,2.85,0,0,0-.12,2.58h0A2.82,2.82,0,0,0,94.88,72a1.68,1.68,0,0,0-1.1,1.57v.58a2.36,2.36,0,0,0-1.35,2.12v1.35a1,1,0,0,0,1,1H111a1,1,0,0,0,1-1V76.28A2.36,2.36,0,0,0,110.63,74.16Zm-14.85-.25h12.85v0H95.78Zm-1.35,2.37a.35.35,0,0,1,.35-.35h14.85a.35.35,0,0,1,.35.35v.35H94.43Zm-3.8-9-2.32-5,2.53-1.13,2.28,5.07Zm-.95-11.07a.85.85,0,0,1,.46-.49l8.63-3.87a.89.89,0,0,1,.72,1.63l-8.62,3.86a.89.89,0,0,1-1.17-.45A.85.85,0,0,1,89.68,56.26Zm15.61,10.2-8.62,3.86a.85.85,0,0,1-.68,0,.9.9,0,0,1-.5-.46h0a.89.89,0,0,1,.45-1.17l8.62-3.87a.94.94,0,0,1,.37-.07.88.88,0,0,1,.81.52A.89.89,0,0,1,105.29,66.46Zm-9.77.24L92.09,59l7.82-3.51,3.44,7.66Zm-25.3,7.91a1.28,1.28,0,0,1-1.17-.08,1.17,1.17,0,0,1-.36-.34,1.26,1.26,0,0,1-.14-1.2,1.31,1.31,0,0,1,.69-.68L87.18,64.5l1,2.28Z" fill="#334a62"/>
  </g>
</svg>
