<svg id="Layer_1" data-name="Layer 1" xmlns="http://www.w3.org/2000/svg" viewBox="0 0 144 144">
  <g id="Trade_Mark_Filings" data-name="Trade Mark Filings">
    <path d="M70.18,93.24a.83.83,0,0,1,0-.22c0-1.42-.35-1.88-.51-2a.81.81,0,0,0-.22-.12H60.09a1,1,0,0,1-1-.92c-.67-8.35,4-29.21,6-37.79a10.65,10.65,0,0,0-.44-6.71,12.12,12.12,0,0,0-22.32,0,10.79,10.79,0,0,0-.44,6.71c2,8.58,6.68,29.43,6,37.79a1,1,0,0,1-1,.92H37.6a.64.64,0,0,0-.24.15c-.15.14-.49.62-.49,2a.83.83,0,0,1,0,.22,2.45,2.45,0,0,1-2.17,1.93,1.82,1.82,0,0,0-.12.79v3.66c0,.51.33.51.52.51H72a.5.5,0,0,0,.37-.1.63.63,0,0,0,.14-.4V96a2.09,2.09,0,0,0-.11-.79A2.45,2.45,0,0,1,70.18,93.24ZM43.11,49.71A10.25,10.25,0,1,1,53.36,60,10.26,10.26,0,0,1,43.11,49.71Z" fill="none"/>
    <path d="M78.57,64.35a2,2,0,0,1,1.82-1.12h25.17V59.5a.12.12,0,0,0-.13-.12H88.49l-3.24-4.55H73.89a.13.13,0,0,0-.13.13v22.5l4.66-12.7,0-.12A1.42,1.42,0,0,1,78.57,64.35Z" fill="#f4f4f4"/>
    <path d="M102.88,83.37l6.56-18a.33.33,0,0,0,0-.13h-29a.73.73,0,0,0,0,.09l-6.6,18.11,29.12-.06Z" fill="#667789"/>
    <path d="M109.47,63.23h-1.91V59.5a2.13,2.13,0,0,0-2.13-2.12H89.52l-3.25-4.55H73.89A2.13,2.13,0,0,0,71.76,55V83.65h0a2,2,0,0,0,.39.92,2,2,0,0,0,1.6.79h29.08A2,2,0,0,0,104.78,84l6.61-18.11a1,1,0,0,0,.06-.34A2.07,2.07,0,0,0,109.47,63.23ZM73.76,77.46V55a.13.13,0,0,1,.13-.13H85.25l3.24,4.55h16.94a.12.12,0,0,1,.13.12v3.73H80.39a2,2,0,0,0-1.82,1.12,1.42,1.42,0,0,0-.1.29l0,.12Zm6.58-12.14a.73.73,0,0,1,0-.09h29a.33.33,0,0,1,0,.13l-6.56,18h0l-29.12.06Z" fill="#334a62"/>
    <path d="M39.33,102.13v1.52a2.28,2.28,0,0,0,2.28,2.28H65a2.28,2.28,0,0,0,2.28-2.28v-1.52Z" fill="#e95544"/>
    <path d="M72.48,93.18c-.18,0-.28-.21-.33-.32A4.37,4.37,0,0,0,71,89.49a2.46,2.46,0,0,0-1.72-.6H61c-.26-8.91,4.51-29.85,6-36.25a12.82,12.82,0,0,0-.54-8,14.12,14.12,0,0,0-26,0,12.75,12.75,0,0,0-.55,8C41.48,59,46.25,80,46,88.89H37.79a2.48,2.48,0,0,0-1.72.6,4.37,4.37,0,0,0-1.2,3.37c0,.12-.13.32-.25.32a1.76,1.76,0,0,0-1.27.46,3,3,0,0,0-.8,2.32V99.6a2.7,2.7,0,0,0,.72,1.83,2.42,2.42,0,0,0,1.8.7h2.26v1.52a4.28,4.28,0,0,0,4.28,4.28H65a4.28,4.28,0,0,0,4.28-4.28v-1.52H72a2.44,2.44,0,0,0,1.8-.7,2.66,2.66,0,0,0,.71-1.81V96a3,3,0,0,0-.79-2.32A1.64,1.64,0,0,0,72.48,93.18ZM65,105.93H41.61a2.28,2.28,0,0,1-2.28-2.28v-1.52h28v1.52A2.28,2.28,0,0,1,65,105.93Zm7.45-6.3a.63.63,0,0,1-.14.4.5.5,0,0,1-.37.1H35.07c-.19,0-.51,0-.52-.51V96a1.82,1.82,0,0,1,.12-.79,2.45,2.45,0,0,0,2.17-1.93.83.83,0,0,0,0-.22c0-1.37.34-1.85.49-2a.64.64,0,0,1,.24-.15h9.33a1,1,0,0,0,1-.92c.66-8.36-4-29.21-6-37.79a10.79,10.79,0,0,1,.44-6.71,12.12,12.12,0,0,1,22.32,0,10.65,10.65,0,0,1,.44,6.71c-2,8.58-6.68,29.44-6,37.79a1,1,0,0,0,1,.92h9.33a.81.81,0,0,1,.22.12c.16.14.51.6.51,2a.83.83,0,0,0,0,.22,2.45,2.45,0,0,0,2.18,1.93,2.09,2.09,0,0,1,.11.79Z" fill="#334a62"/>
    <path d="M53.36,41.46a8.25,8.25,0,1,0,8.25,8.25A8.26,8.26,0,0,0,53.36,41.46Zm-1.78,6H49.92v5H48.63v-5H47V46.42h4.61Zm7.48,5H57.85V49.64c0-.14,0-.3,0-.47s0-.66,0-1.43h0L56.3,52.53H55.11l-1.47-4.79h0c.06,1,.08,1.62.08,1.95v2.84H52.52V46.42h1.77l1.45,4.67h0l1.54-4.67h1.76Z" fill="#667789"/>
    <path d="M63.61,49.71A10.25,10.25,0,1,0,53.36,60,10.26,10.26,0,0,0,63.61,49.71ZM53.36,58a8.25,8.25,0,1,1,8.25-8.25A8.26,8.26,0,0,1,53.36,58Z" fill="#334a62"/>
    <polygon points="46.97 47.5 48.63 47.5 48.63 52.53 49.92 52.53 49.92 47.5 51.59 47.5 51.59 46.42 46.97 46.42 46.97 47.5" fill="#fff"/>
    <path d="M55.76,51.09h0l-1.45-4.67H52.52v6.11h1.16V49.69c0-.33,0-1-.08-1.95h0l1.47,4.79H56.3l1.58-4.79h0c0,.77,0,1.25,0,1.43s0,.33,0,.47v2.89h1.21V46.42H57.3Z" fill="#fff"/>
  </g>
</svg>
