<svg id="Layer_1" data-name="Layer 1" xmlns="http://www.w3.org/2000/svg" viewBox="0 0 144 144">
  <g id="Website_Disputes" data-name="Website Disputes">
    <path d="M67.47,98.6h7.87V89.36H66.26A48.92,48.92,0,0,0,67.47,98.6Z" fill="#667789"/>
    <path d="M54,75.93a25.86,25.86,0,0,0-2.49,9.23H62a49.87,49.87,0,0,1,1.19-9.23Z" fill="#667789"/>
    <path d="M64.38,71.73a26.62,26.62,0,0,1,5.13-9.35,26.2,26.2,0,0,0-13,9.35Z" fill="#667789"/>
    <path d="M75.34,111.62v-8.83H68.7C70.41,107.46,72.72,110.54,75.34,111.62Z" fill="#667789"/>
    <path d="M69.48,112.15a27.2,27.2,0,0,1-5.1-9.36H56.54A26.17,26.17,0,0,0,69.48,112.15Z" fill="#667789"/>
    <path d="M51.53,89.36A25.88,25.88,0,0,0,54,98.6H63.2A51,51,0,0,1,62,89.36Z" fill="#667789"/>
    <path d="M91.65,75.93a51.71,51.71,0,0,1,1.2,9.23h10.49a26.06,26.06,0,0,0-2.49-9.23Z" fill="#667789"/>
    <path d="M85.36,62.38a27.41,27.41,0,0,1,5.13,9.35H98.3A26.19,26.19,0,0,0,85.36,62.38Z" fill="#667789"/>
    <path d="M88.73,89.36H79.51V98.6h8A46.69,46.69,0,0,0,88.73,89.36Z" fill="#667789"/>
    <path d="M79.51,62.89v8.84h6.77C84.56,67.08,82.15,64,79.51,62.89Z" fill="#667789"/>
    <path d="M87.51,75.93h-8v9.23h9.21A48.12,48.12,0,0,0,87.51,75.93Z" fill="#667789"/>
    <path d="M79.51,102.79v8.87c2.66-1.06,5.08-4.2,6.78-8.87Z" fill="#667789"/>
    <path d="M90.49,102.79a27.2,27.2,0,0,1-5.1,9.36,26.17,26.17,0,0,0,12.94-9.36Z" fill="#667789"/>
    <path d="M68.7,71.73h6.64V62.94C72.74,64.05,70.39,67.17,68.7,71.73Z" fill="#667789"/>
    <path d="M92.85,89.36a51,51,0,0,1-1.18,9.24h9.19a26.09,26.09,0,0,0,2.48-9.24Z" fill="#667789"/>
    <path d="M66.27,85.16h9.07V75.93H67.47A48.83,48.83,0,0,0,66.27,85.16Z" fill="#667789"/>
    <path d="M78.76,86.66H89.5a.75.75,0,0,0,.53-.22.79.79,0,0,0,.22-.54A50,50,0,0,0,88.83,75a.76.76,0,0,0-.73-.56H78.76a.75.75,0,0,0-.75.75V85.91A.75.75,0,0,0,78.76,86.66Zm.75-10.73h8a48.12,48.12,0,0,1,1.21,9.23H79.51Z" fill="#334a62"/>
    <path d="M78.76,100.1H88.1a.77.77,0,0,0,.73-.57,48,48,0,0,0,1.42-10.91.75.75,0,0,0-.22-.53.72.72,0,0,0-.53-.23H78.76a.76.76,0,0,0-.75.75V99.35A.76.76,0,0,0,78.76,100.1Zm.75-10.74h9.22a46.69,46.69,0,0,1-1.22,9.24h-8Z" fill="#334a62"/>
    <path d="M64.73,99.81a.71.71,0,0,0,.14-.64A49.39,49.39,0,0,1,63.5,88.59a.75.75,0,0,0-.75-.73h-12a.74.74,0,0,0-.54.23.77.77,0,0,0-.21.56,27.29,27.29,0,0,0,2.9,11,.74.74,0,0,0,.67.42H64.14A.75.75,0,0,0,64.73,99.81ZM54,98.6a25.88,25.88,0,0,1-2.48-9.24H62A51,51,0,0,0,63.2,98.6Z" fill="#334a62"/>
    <path d="M52.88,74.84a27.59,27.59,0,0,0-2.9,11,.76.76,0,0,0,.21.55.74.74,0,0,0,.54.23h12a.75.75,0,0,0,.75-.73,48.58,48.58,0,0,1,1.39-10.57.74.74,0,0,0-.13-.64.72.72,0,0,0-.59-.29H53.55A.74.74,0,0,0,52.88,74.84ZM51.53,85.16A25.86,25.86,0,0,1,54,75.93h9.19A49.87,49.87,0,0,0,62,85.16Z" fill="#334a62"/>
    <path d="M75.91,61.18c-3.7.88-6.89,4.81-9,11.06a.75.75,0,0,0,.71,1h8.45a.76.76,0,0,0,.75-.75V61.91a.75.75,0,0,0-.29-.59A.77.77,0,0,0,75.91,61.18Zm-.57,10.55H68.7c1.69-4.56,4-7.68,6.64-8.79Z" fill="#334a62"/>
    <path d="M65.64,101.82a.76.76,0,0,0-.72-.53H55.11a.76.76,0,0,0-.63,1.17A27.64,27.64,0,0,0,72,114.37h.14a.75.75,0,0,0,.69-.44.76.76,0,0,0-.24-.91C69.76,110.92,67.28,106.94,65.64,101.82Zm-1.26,1a27.2,27.2,0,0,0,5.1,9.36,26.17,26.17,0,0,1-12.94-9.36Z" fill="#334a62"/>
    <path d="M55.11,73.23h9.81a.75.75,0,0,0,.72-.52c1.63-5.12,4.13-9.1,7-11.21a.75.75,0,0,0,.25-.91.74.74,0,0,0-.84-.43,27.69,27.69,0,0,0-17.6,11.91.76.76,0,0,0,0,.77A.75.75,0,0,0,55.11,73.23Zm14.4-10.85a26.62,26.62,0,0,0-5.13,9.35H56.55A26.2,26.2,0,0,1,69.51,62.38Z" fill="#334a62"/>
    <path d="M76.09,101.29H67.64a.75.75,0,0,0-.71,1c2.09,6.31,5.29,10.24,9,11.09l.17,0a.78.78,0,0,0,.46-.16.77.77,0,0,0,.29-.59V102A.76.76,0,0,0,76.09,101.29Zm-.75,10.33c-2.62-1.08-4.93-4.16-6.64-8.83h6.64Z" fill="#334a62"/>
    <path d="M76.09,74.43h-9.2a.74.74,0,0,0-.73.56A50,50,0,0,0,64.74,85.9a.78.78,0,0,0,.21.54.79.79,0,0,0,.54.22h10.6a.75.75,0,0,0,.75-.75V75.18A.75.75,0,0,0,76.09,74.43Zm-.75,10.73H66.27a48.83,48.83,0,0,1,1.2-9.23h7.87Z" fill="#334a62"/>
    <path d="M104.14,87.86h-12a.74.74,0,0,0-.75.73A49.39,49.39,0,0,1,90,99.17a.71.71,0,0,0,.14.64.75.75,0,0,0,.59.29h10.59a.74.74,0,0,0,.67-.42,27.45,27.45,0,0,0,2.9-11,.77.77,0,0,0-.21-.56A.74.74,0,0,0,104.14,87.86ZM91.67,98.6a51,51,0,0,0,1.18-9.24h10.49a26.09,26.09,0,0,1-2.48,9.24Z" fill="#334a62"/>
    <path d="M99.76,101.29H90a.76.76,0,0,0-.72.53c-1.64,5.12-4.12,9.1-7,11.21a.76.76,0,0,0-.24.91.75.75,0,0,0,.69.44h.14a27.64,27.64,0,0,0,17.56-11.91.76.76,0,0,0-.63-1.17ZM85.39,112.15a27.2,27.2,0,0,0,5.1-9.36h7.84A26.17,26.17,0,0,1,85.39,112.15Z" fill="#334a62"/>
    <path d="M89.23,72.71a.75.75,0,0,0,.72.52h9.79a.76.76,0,0,0,.66-.39.74.74,0,0,0,0-.77A27.56,27.56,0,0,0,82.78,60.16a.73.73,0,0,0-.83.43.75.75,0,0,0,.25.91C85.07,63.59,87.57,67.57,89.23,72.71Zm1.26-1a27.41,27.41,0,0,0-5.13-9.35A26.19,26.19,0,0,1,98.3,71.73Z" fill="#334a62"/>
    <path d="M78.76,73.23h8.58a.75.75,0,0,0,.61-.31.79.79,0,0,0,.11-.68C85.93,65.89,82.68,62,78.92,61.15a.77.77,0,0,0-.63.15.74.74,0,0,0-.28.58v10.6A.76.76,0,0,0,78.76,73.23Zm.75-10.34c2.64,1.06,5,4.19,6.77,8.84H79.51Z" fill="#334a62"/>
    <path d="M90.11,74.71a.77.77,0,0,0-.14.64,49.89,49.89,0,0,1,1.4,10.58.74.74,0,0,0,.75.73h12a.74.74,0,0,0,.54-.23.76.76,0,0,0,.21-.55,27.55,27.55,0,0,0-2.9-11,.74.74,0,0,0-.67-.41H90.7A.74.74,0,0,0,90.11,74.71Zm2.74,10.45a51.71,51.71,0,0,0-1.2-9.23h9.2a26.06,26.06,0,0,1,2.49,9.23Z" fill="#334a62"/>
    <path d="M88.06,102.28a.79.79,0,0,0-.11-.68.77.77,0,0,0-.61-.31H78.76A.76.76,0,0,0,78,102v10.62a.76.76,0,0,0,.28.59.78.78,0,0,0,.47.16h.15C82.71,112.59,86,108.64,88.06,102.28Zm-8.55,9.38v-8.87h6.78C84.59,107.46,82.17,110.6,79.51,111.66Z" fill="#334a62"/>
    <path d="M76.09,87.86H65.49a.75.75,0,0,0-.75.77,49.9,49.9,0,0,0,1.42,10.9.75.75,0,0,0,.73.57h9.2a.76.76,0,0,0,.75-.75V88.61A.76.76,0,0,0,76.09,87.86ZM75.34,98.6H67.47a48.92,48.92,0,0,1-1.21-9.24h9.08Z" fill="#334a62"/>
    <path d="M69,42.58l.1-.18a1.39,1.39,0,0,1,.15-.19l2.56-2.56-4.64.51a1.87,1.87,0,0,1-2-1.56.67.67,0,0,1,0-.2l.21-5.06-5,3.16a1.85,1.85,0,0,1-2.41-.42L55.4,32.77l-1.14,3.7a1.78,1.78,0,0,1-.88,1.06,1.82,1.82,0,0,1-1.39.13l-6.8-1.93,3.51,5.78A1.8,1.8,0,0,1,48.17,44a1.38,1.38,0,0,1-.66.28L44.05,45l3.61,2.53a1.71,1.71,0,0,1,.74,1.13,1.8,1.8,0,0,1-.31,1.39,1.44,1.44,0,0,1-.58.52l-4.36,3,6,.24a1.82,1.82,0,0,1,1.71,1.92v.1a1,1,0,0,1,0,.24l-2.19,8.57,6.24-9.43a1.87,1.87,0,0,1,2.49-.54,1,1,0,0,1,.2.15l.14.13,2.38,2.53,1-2a1.74,1.74,0,0,1,1.91-1l6.58.79-1.89-4a1.81,1.81,0,0,1,.82-2.41l.2-.08.13,0,4.64-1.4-3.92-2.36A1.79,1.79,0,0,1,69,42.58Z" fill="#e95544"/>
    <path d="M76.44,46.86l-5.66-3.4,4.41-4.41a1,1,0,0,0,.19-1.14,1,1,0,0,0-1-.56l-7.26.8.28-6.63a1,1,0,0,0-.5-.91,1,1,0,0,0-1,0l-6.47,4.08L55.81,30a1,1,0,0,0-1.75.31L52.4,35.7l-9.12-2.59a1,1,0,0,0-1.07.36,1,1,0,0,0-.06,1.12l4.71,7.74L41.4,43.59a1,1,0,0,0-.35,1.79L46.27,49l-6.72,4.64a1,1,0,0,0-.4,1.1,1,1,0,0,0,.92.72l8.79.35-3.6,14.09a1,1,0,0,0,.57,1.16.93.93,0,0,0,.4.09,1,1,0,0,0,.84-.45l9.37-14.18L59.65,60a1,1,0,0,0,1.62-.25l1.54-3.15,8.33,1a1,1,0,0,0,.93-.41,1,1,0,0,0,.09-1l-2.57-5.46,6.63-2a1,1,0,0,0,.22-1.82Zm-7.6,2-.13,0-.2.08a1.81,1.81,0,0,0-.82,2.41l1.89,4L63,54.57a1.74,1.74,0,0,0-1.91,1l-1,2L57.73,55l-.14-.13a1,1,0,0,0-.2-.15,1.87,1.87,0,0,0-2.49.54l-6.24,9.43,2.19-8.57a1,1,0,0,0,0-.24v-.1a1.82,1.82,0,0,0-1.71-1.92l-6-.24,4.36-3a1.44,1.44,0,0,0,.58-.52,1.8,1.8,0,0,0,.31-1.39,1.71,1.71,0,0,0-.74-1.13L44.05,45l3.46-.79a1.38,1.38,0,0,0,.66-.28,1.8,1.8,0,0,0,.53-2.45l-3.51-5.78L52,37.66a1.82,1.82,0,0,0,1.39-.13,1.78,1.78,0,0,0,.88-1.06l1.14-3.7,2.51,3.31a1.85,1.85,0,0,0,2.41.42l5-3.16L65.1,38.4a.67.67,0,0,0,0,.2,1.87,1.87,0,0,0,2,1.56l4.64-.51L69.2,42.21a1.39,1.39,0,0,0-.15.19l-.1.18a1.79,1.79,0,0,0,.61,2.48l3.92,2.36Z" fill="#334a62"/>
  </g>
</svg>
