<svg width="1440" height="809" viewBox="0 0 1440 809" fill="none" xmlns="http://www.w3.org/2000/svg">
<mask id="mask0_2388_18095" style="mask-type:alpha" maskUnits="userSpaceOnUse" x="0" y="0" width="1440" height="809">
<rect width="1440" height="809" fill="#FFE8AC"/>
</mask>
<g mask="url(#mask0_2388_18095)">
<path d="M-210.772 -150.755L-84.3704 421.566L-210.772 993.888H-24.3512L102.051 421.566L-24.3512 -150.755H-210.772Z" fill="white" fill-opacity="0.5"/>
<path d="M-24.4829 -152.392L101.571 419.92L-24.4829 992.232L-22.9393 1231.65L302.399 421.675L-22.9393 -388.515L-24.4829 -152.392Z" fill="white" fill-opacity="0.4"/>
<path d="M-20.9683 -858.898L702.817 426.714L-20.7968 1712.33L-19.4249 1951.72L903.44 428.469L-19.4249 -1095L-20.9683 -858.898Z" fill="white" fill-opacity="0.1"/>
<path d="M-20.9683 -621.141L502.602 426.604L-20.9683 1474.35L-19.4273 1713.96L703.093 428.36L-19.5985 -857.24L-20.9683 -621.141Z" fill="white" fill-opacity="0.2"/>
<path d="M-24.4829 -386.756L301.619 423.427L-24.4829 1233.39L-22.9358 1472.8L502.746 424.964L-22.9358 -622.877L-24.4829 -386.756Z" fill="white" fill-opacity="0.3"/>
</g>
</svg>
