<svg width="219" height="219" viewBox="0 0 219 219" fill="none" xmlns="http://www.w3.org/2000/svg">
<g id="Patent How To" clip-path="url(#clip0_377_45656)">
<path id="Vector" d="M148.867 182.761V184.544H73.7445V177.39H75.3591V173.791H73.7109V91.4811H116.609V72.2519L111.082 83.3298L110.577 84.3389H43.9645L43.4711 83.3298L37.9322 72.2519V173.791H73.7109V177.368H34.3555V62.8672H120.231V91.4811H148.867V182.761ZM145.291 180.967V95.0691H77.2988V180.945L145.291 180.967ZM108.38 80.7285L115.544 66.4103H39.0535L46.2182 80.7285H108.38Z" fill="#334A62"/>
<path id="Vector_2" d="M145.289 95.0703V180.946H77.2969V95.0703H145.289ZM139.918 171.998V168.422H98.7686V171.998H139.918ZM139.918 155.897V152.321H98.7686V155.853L139.918 155.897ZM139.918 139.796V136.22H98.7686V139.796H139.918ZM139.918 123.695V120.119H98.7686V123.695H139.918ZM139.918 107.595V104.007H98.7686V107.639L139.918 107.595ZM93.3978 105.801C93.3978 104.738 93.0826 103.699 92.4919 102.816C91.9013 101.932 91.0618 101.244 90.0798 100.838C89.0978 100.431 88.0173 100.326 86.9752 100.534C85.9331 100.742 84.9761 101.255 84.2255 102.007C83.4748 102.759 82.9642 103.717 82.7582 104.76C82.5523 105.802 82.6602 106.882 83.0684 107.864C83.4766 108.845 84.1668 109.683 85.0515 110.272C85.9361 110.86 86.9756 111.173 88.0383 111.171C89.459 111.162 90.8187 110.593 91.8222 109.588C92.8258 108.582 93.392 107.221 93.3978 105.801ZM93.3978 121.902C93.3978 120.839 93.0826 119.8 92.4919 118.917C91.9013 118.033 91.0618 117.345 90.0798 116.939C89.0978 116.532 88.0173 116.427 86.9752 116.635C85.9331 116.843 84.9761 117.356 84.2255 118.108C83.4748 118.86 82.9642 119.818 82.7582 120.861C82.5523 121.903 82.6602 122.983 83.0684 123.965C83.4766 124.946 84.1668 125.784 85.0515 126.373C85.9361 126.961 86.9756 127.274 88.0383 127.272C89.459 127.263 90.8187 126.694 91.8222 125.689C92.8258 124.683 93.392 123.322 93.3978 121.902ZM93.3978 138.002C93.3978 136.94 93.0826 135.901 92.4919 135.018C91.9013 134.134 91.0618 133.446 90.0798 133.04C89.0978 132.633 88.0173 132.528 86.9752 132.736C85.9331 132.944 84.9761 133.457 84.2255 134.209C83.4748 134.961 82.9642 135.919 82.7582 136.962C82.5523 138.004 82.6602 139.084 83.0684 140.066C83.4766 141.047 84.1668 141.885 85.0515 142.474C85.9361 143.062 86.9756 143.375 88.0383 143.373C89.459 143.364 90.8187 142.795 91.8222 141.79C92.8258 140.784 93.392 139.423 93.3978 138.002ZM93.3978 154.115C93.4001 153.051 93.0867 152.012 92.4974 151.127C91.9081 150.242 91.0694 149.552 90.0876 149.144C89.1058 148.736 88.025 148.629 86.9821 148.835C85.9392 149.042 84.9812 149.554 84.2294 150.306C83.4777 151.058 82.9659 152.016 82.759 153.058C82.5522 154.101 82.6595 155.182 83.0674 156.164C83.4752 157.146 84.1654 157.984 85.0503 158.574C85.9352 159.163 86.9751 159.476 88.0383 159.474C89.457 159.465 90.8151 158.898 91.8183 157.895C92.8215 156.891 93.389 155.533 93.3978 154.115ZM93.3978 170.216C93.4001 169.152 93.0867 168.113 92.4974 167.228C91.9081 166.343 91.0694 165.653 90.0876 165.245C89.1058 164.837 88.025 164.729 86.9821 164.936C85.9392 165.143 84.9812 165.655 84.2294 166.407C83.4777 167.159 82.9659 168.117 82.759 169.159C82.5522 170.202 82.6595 171.283 83.0674 172.265C83.4752 173.247 84.1654 174.085 85.0503 174.675C85.9352 175.264 86.9751 175.577 88.0383 175.575C89.457 175.566 90.8151 174.999 91.8183 173.996C92.8215 172.992 93.389 171.634 93.3978 170.216Z" fill="white"/>
<path id="Vector_3" d="M139.919 168.422H98.7695V171.999H139.919V168.422Z" fill="#334A62"/>
<path id="Vector_4" d="M139.919 152.32H98.7695V155.908H139.919V152.32Z" fill="#334A62"/>
<path id="Vector_5" d="M139.919 136.219H98.7695V139.795H139.919V136.219Z" fill="#334A62"/>
<path id="Vector_6" d="M139.919 120.117H98.7695V123.694H139.919V120.117Z" fill="#334A62"/>
<path id="Vector_7" d="M139.919 104.006H98.7695V107.594H139.919V104.006Z" fill="#334A62"/>
<path id="Vector_8" d="M116.652 72.252V91.4812H75.5135H73.7084V93.2751V173.791H37.9297V72.252L43.4686 83.3298L43.9732 84.3389H45.0944H109.509H110.619L111.124 83.3298L116.652 72.252Z" fill="#D6D6D6"/>
<path id="Vector_9" d="M115.542 66.4336L108.388 80.7518H46.2155L39.0508 66.4336H115.542Z" fill="#D6D6D6"/>
<path id="Vector_10" d="M88.0382 100.43C89.0999 100.432 90.1372 100.749 91.0189 101.34C91.9007 101.932 92.5873 102.771 92.9921 103.753C93.3969 104.734 93.5016 105.814 93.2931 106.855C93.0846 107.896 92.5722 108.852 91.8207 109.602C91.0691 110.352 90.1121 110.862 89.0706 111.069C88.0291 111.275 86.9498 111.168 85.9691 110.761C84.9884 110.354 84.1503 109.666 83.5606 108.783C82.971 107.9 82.6563 106.862 82.6562 105.8C82.6622 104.376 83.2315 103.012 84.2398 102.005C85.2481 100.999 86.6136 100.433 88.0382 100.43ZM89.821 105.8C89.8121 105.447 89.6992 105.104 89.4962 104.815C89.2933 104.526 89.0095 104.303 88.6804 104.174C88.3512 104.046 87.9915 104.017 87.6462 104.092C87.3009 104.167 86.9855 104.343 86.7395 104.597C86.4936 104.85 86.328 105.171 86.2636 105.518C86.1992 105.866 86.2388 106.225 86.3776 106.55C86.5163 106.875 86.7479 107.151 87.0433 107.345C87.3387 107.539 87.6848 107.641 88.0382 107.639C88.2775 107.641 88.5148 107.594 88.7355 107.502C88.9563 107.409 89.156 107.273 89.3226 107.101C89.4892 106.929 89.6193 106.725 89.7049 106.502C89.7906 106.278 89.83 106.04 89.821 105.8Z" fill="#8368DF"/>
<path id="Vector_11" d="M88.0382 116.529C89.0999 116.532 90.1372 116.848 91.0189 117.44C91.9007 118.031 92.5873 118.871 92.9921 119.852C93.3969 120.834 93.5016 121.914 93.2931 122.955C93.0846 123.996 92.5722 124.952 91.8207 125.702C91.0691 126.452 90.1121 126.962 89.0706 127.168C88.0291 127.375 86.9498 127.268 85.9691 126.861C84.9884 126.454 84.1503 125.766 83.5606 124.883C82.971 124 82.6563 122.962 82.6562 121.9C82.6622 120.475 83.2315 119.111 84.2398 118.105C85.2481 117.099 86.6136 116.532 88.0382 116.529ZM89.821 121.9C89.8209 121.545 89.7154 121.197 89.5178 120.902C89.3202 120.607 89.0393 120.377 88.7109 120.242C88.3824 120.106 88.0211 120.071 87.6728 120.141C87.3245 120.212 87.0049 120.383 86.7545 120.636C86.504 120.888 86.3341 121.208 86.2661 121.557C86.1982 121.906 86.2353 122.267 86.3728 122.594C86.5103 122.922 86.742 123.201 87.0385 123.397C87.335 123.593 87.6829 123.696 88.0382 123.694C88.2741 123.697 88.5082 123.653 88.7266 123.563C88.945 123.474 89.1433 123.342 89.3096 123.175C89.4759 123.007 89.6069 122.808 89.6947 122.589C89.7825 122.37 89.8255 122.136 89.821 121.9Z" fill="#8368DF"/>
<path id="Vector_12" d="M88.0382 132.643C89.1004 132.645 90.1381 132.962 91.0201 133.554C91.9021 134.146 92.5887 134.986 92.9932 135.968C93.3976 136.951 93.5017 138.031 93.2923 139.072C93.0829 140.113 92.5694 141.069 91.8167 141.819C91.064 142.568 90.106 143.078 89.0638 143.283C88.0215 143.488 86.9419 143.379 85.9613 142.971C84.9808 142.562 84.1435 141.872 83.5552 140.988C82.9669 140.103 82.654 139.064 82.6563 138.002C82.6651 136.58 83.2357 135.218 84.2437 134.214C85.2518 133.21 86.6156 132.646 88.0382 132.643ZM89.821 138.002C89.821 137.647 89.7154 137.3 89.5178 137.004C89.3202 136.709 89.0394 136.479 88.7109 136.344C88.3824 136.208 88.0212 136.173 87.6729 136.243C87.3246 136.314 87.0049 136.486 86.7545 136.738C86.504 136.99 86.3341 137.31 86.2661 137.659C86.1982 138.008 86.2353 138.369 86.3728 138.696C86.5103 139.024 86.742 139.303 87.0385 139.499C87.335 139.695 87.6829 139.798 88.0382 139.796C88.2741 139.799 88.5082 139.755 88.7266 139.665C88.945 139.576 89.1433 139.444 89.3096 139.277C89.4759 139.109 89.6069 138.91 89.6947 138.691C89.7826 138.472 89.8255 138.238 89.821 138.002Z" fill="#8368DF"/>
<path id="Vector_13" d="M88.0382 148.744C89.0999 148.746 90.1372 149.063 91.0189 149.655C91.9007 150.246 92.5873 151.086 92.9921 152.067C93.3969 153.049 93.5016 154.128 93.2931 155.169C93.0846 156.211 92.5722 157.166 91.8207 157.916C91.0691 158.666 90.1121 159.177 89.0706 159.383C88.0291 159.59 86.9498 159.483 85.9691 159.076C84.9884 158.669 84.1503 157.98 83.5606 157.098C82.971 156.215 82.6563 155.177 82.6562 154.115C82.6622 152.69 83.2315 151.326 84.2398 150.32C85.2481 149.314 86.6136 148.747 88.0382 148.744ZM89.821 154.115C89.8321 153.757 89.7362 153.405 89.5455 153.102C89.3548 152.8 89.078 152.561 88.7506 152.417C88.4233 152.273 88.0604 152.23 87.7085 152.294C87.3565 152.357 87.0317 152.525 86.7756 152.774C86.5195 153.024 86.3439 153.344 86.2712 153.695C86.1986 154.045 86.2323 154.409 86.368 154.74C86.5038 155.07 86.7353 155.353 87.0329 155.552C87.3305 155.75 87.6805 155.855 88.0382 155.853C88.2694 155.856 88.4989 155.813 88.7136 155.727C88.9283 155.642 89.124 155.514 89.2895 155.353C89.4551 155.192 89.5872 154.999 89.6784 154.787C89.7696 154.574 89.818 154.346 89.821 154.115Z" fill="#8368DF"/>
<path id="Vector_14" d="M88.0382 164.822C89.0999 164.824 90.1372 165.141 91.0189 165.733C91.9007 166.324 92.5873 167.164 92.9921 168.145C93.3969 169.127 93.5016 170.207 93.2931 171.248C93.0846 172.289 92.5722 173.245 91.8207 173.995C91.0691 174.745 90.1121 175.255 89.0706 175.461C88.0291 175.668 86.9498 175.561 85.9691 175.154C84.9884 174.747 84.1503 174.059 83.5606 173.176C82.971 172.293 82.6563 171.255 82.6562 170.193C82.6622 168.768 83.2315 167.404 84.2398 166.398C85.2481 165.392 86.6136 164.825 88.0382 164.822ZM89.821 170.193C89.8232 169.837 89.7196 169.489 89.5233 169.192C89.327 168.895 89.047 168.664 88.7187 168.527C88.3904 168.389 88.0288 168.353 87.6798 168.422C87.3307 168.491 87.01 168.662 86.7585 168.913C86.5069 169.165 86.3358 169.486 86.267 169.835C86.1981 170.184 86.2346 170.545 86.3717 170.873C86.5089 171.202 86.7406 171.482 87.0373 171.678C87.334 171.874 87.6824 171.978 88.0382 171.976C88.2708 171.977 88.5015 171.933 88.717 171.845C88.9325 171.758 89.1286 171.628 89.2942 171.465C89.4597 171.301 89.5914 171.107 89.6818 170.893C89.7722 170.678 89.8195 170.448 89.821 170.215V170.193Z" fill="#8368DF"/>
<path id="Vector_15" d="M75.3255 173.791H73.7109V177.379H75.3255V173.791Z" fill="#334A62"/>
<path id="Vector_16" d="M140.828 186.967L142.813 188.94L169.521 162.244L167.536 160.259L140.828 186.967ZM137.98 184.119L139.483 185.621L166.19 158.913L164.677 157.4L137.98 184.119ZM183.02 143.586C183.537 144.101 183.947 144.712 184.227 145.386C184.506 146.059 184.65 146.781 184.65 147.51C184.65 148.24 184.506 148.962 184.227 149.635C183.947 150.309 183.537 150.92 183.02 151.435L143.351 191.104L132.139 196.015H163.701C163.954 196.015 164.197 195.915 164.375 195.736C164.554 195.557 164.654 195.315 164.654 195.062C164.654 194.809 164.554 194.567 164.375 194.388C164.197 194.209 163.954 194.109 163.701 194.109H157.052C156.663 194.134 156.272 194.078 155.905 193.946C155.537 193.813 155.201 193.607 154.916 193.34C154.631 193.072 154.404 192.749 154.249 192.391C154.094 192.032 154.014 191.646 154.014 191.256C154.014 190.865 154.094 190.479 154.249 190.12C154.404 189.762 154.631 189.439 154.916 189.171C155.201 188.904 155.537 188.698 155.905 188.566C156.272 188.433 156.663 188.378 157.052 188.402H178.917V190.308H157.052C156.919 190.294 156.785 190.307 156.657 190.348C156.53 190.389 156.412 190.457 156.313 190.546C156.213 190.635 156.133 190.745 156.079 190.867C156.024 190.989 155.996 191.122 155.996 191.256C155.996 191.389 156.024 191.522 156.079 191.644C156.133 191.766 156.213 191.876 156.313 191.965C156.412 192.054 156.53 192.122 156.657 192.163C156.785 192.204 156.919 192.217 157.052 192.203H163.701C164.091 192.179 164.482 192.234 164.849 192.367C165.217 192.499 165.553 192.705 165.838 192.972C166.122 193.24 166.349 193.563 166.504 193.921C166.659 194.28 166.739 194.666 166.739 195.057C166.739 195.447 166.659 195.833 166.504 196.192C166.349 196.55 166.122 196.873 165.838 197.141C165.553 197.408 165.217 197.614 164.849 197.747C164.482 197.879 164.091 197.935 163.701 197.91H125.691V195.813L132.497 180.251L172.167 140.581C172.681 140.065 173.293 139.655 173.966 139.375C174.64 139.095 175.362 138.951 176.091 138.951C176.82 138.951 177.542 139.095 178.216 139.375C178.889 139.655 179.501 140.065 180.015 140.581L183.02 143.586ZM182.751 147.499C182.732 146.529 182.329 145.605 181.63 144.932L178.614 141.915C177.929 141.234 177.002 140.851 176.035 140.851C175.068 140.851 174.141 141.234 173.456 141.915L168.343 147.028L176.506 155.191L181.63 150.078C182.333 149.401 182.74 148.475 182.762 147.499H182.751ZM173.714 158.039L175.228 156.536L167.065 148.374L165.551 149.876L173.714 158.039ZM170.855 160.898L172.368 159.396L164.206 151.222L162.692 152.735L170.855 160.898ZM136.623 182.762L163.343 156.066L161.347 154.07L134.639 180.789L136.623 182.762ZM133.764 193.212L141.153 189.983L133.607 182.437L130.378 189.826L133.764 193.212ZM127.743 195.836L131.892 194.031L129.56 191.732L127.743 195.836Z" fill="#334A62"/>
<path id="Vector_17" d="M181.642 144.931C182.323 145.614 182.706 146.539 182.706 147.504C182.706 148.469 182.323 149.394 181.642 150.077L176.518 155.19L168.355 147.027L173.468 141.914C174.153 141.232 175.081 140.85 176.047 140.85C177.014 140.85 177.941 141.232 178.626 141.914L181.642 144.931Z" fill="#8368DF"/>
<path id="Vector_18" d="M167.074 148.358L165.562 149.859L173.703 158.051L175.214 156.55L167.074 148.358Z" fill="#D6D6D6"/>
<path id="Vector_19" d="M164.214 151.223L162.703 152.725L170.844 160.916L172.355 159.415L164.214 151.223Z" fill="#D6D6D6"/>
<path id="Vector_20" d="M169.521 162.242L142.813 188.939L140.828 186.966L167.536 160.258L169.521 162.242Z" fill="#667789"/>
<path id="Vector_21" d="M166.191 158.912L139.483 185.62L137.98 184.118L164.677 157.398L166.191 158.912Z" fill="#667789"/>
<path id="Vector_22" d="M161.356 154.079L134.641 180.785L136.622 182.768L163.338 156.062L161.356 154.079Z" fill="#667789"/>
<path id="Vector_23" d="M141.154 189.981L133.765 193.211L130.379 189.824L133.619 182.436L141.154 189.981Z" fill="white"/>
<path id="Vector_24" d="M131.891 194.029L127.742 195.835L129.559 191.697L131.891 194.029Z" fill="#667789"/>
</g>
<defs>
<clipPath id="clip0_377_45656">
<rect width="219" height="219" fill="white"/>
</clipPath>
</defs>
</svg>
