<svg width="218" height="218" viewBox="0 0 218 218" fill="none" xmlns="http://www.w3.org/2000/svg">
<g id="Patent Litigation" clip-path="url(#clip0_377_45628)">
<path id="Vector" d="M190.341 191.615C191.116 192.406 192.076 192.993 193.134 193.322C194.191 193.651 195.314 193.713 196.401 193.502C197.315 193.376 198.186 193.04 198.946 192.519C199.938 191.86 200.746 190.958 201.293 189.9C201.839 188.841 202.107 187.661 202.071 186.47C202.055 185.579 201.847 184.703 201.462 183.9C201.077 183.097 200.523 182.386 199.839 181.816L145.719 128.711L136.098 138.399L190.341 191.615Z" fill="white"/>
<path id="Vector_2" d="M202.017 179.516L147.986 126.5L145.754 128.732L199.897 181.815C200.581 182.385 201.134 183.096 201.52 183.899C201.905 184.702 202.113 185.578 202.129 186.469C202.165 187.66 201.897 188.84 201.35 189.899C200.803 190.957 199.996 191.859 199.004 192.518C198.243 193.039 197.372 193.375 196.459 193.501C195.372 193.712 194.249 193.65 193.191 193.321C192.133 192.992 191.174 192.405 190.399 191.614L136.099 138.398L133.867 140.63L188.122 193.869C189.981 195.725 192.493 196.778 195.12 196.804C197.1 196.759 199.03 196.172 200.7 195.108C202.106 194.162 203.251 192.879 204.031 191.375C204.811 189.871 205.201 188.196 205.165 186.502C205.167 185.181 204.887 183.874 204.344 182.67C203.802 181.465 203.008 180.39 202.017 179.516Z" fill="#334A62"/>
<path id="Vector_3" d="M128.411 138.856C128.585 139.054 128.8 139.212 129.041 139.32C129.281 139.428 129.542 139.484 129.806 139.484C130.069 139.484 130.33 139.428 130.571 139.32C130.811 139.212 131.026 139.054 131.201 138.856L146.213 123.889C146.412 123.715 146.571 123.501 146.68 123.26C146.79 123.02 146.846 122.758 146.846 122.494C146.846 122.23 146.79 121.968 146.68 121.728C146.571 121.487 146.412 121.273 146.213 121.099L137.284 112.17L119.426 130.028L128.411 138.856Z" fill="#F4F4F4"/>
<path id="Vector_4" d="M136.101 138.398L145.777 128.721L148.01 126.489L148.456 126.043C148.943 125.576 149.331 125.016 149.596 124.395C149.861 123.775 149.997 123.107 149.997 122.432C149.997 121.757 149.861 121.09 149.596 120.469C149.331 119.849 148.943 119.288 148.456 118.822L139.527 109.893L137.295 112.125L146.224 121.054C146.423 121.228 146.582 121.442 146.692 121.683C146.801 121.923 146.857 122.185 146.857 122.449C146.857 122.713 146.801 122.974 146.692 123.215C146.582 123.456 146.423 123.67 146.224 123.844L131.201 138.856C131.026 139.053 130.811 139.211 130.571 139.32C130.33 139.428 130.069 139.484 129.806 139.484C129.542 139.484 129.281 139.428 129.041 139.32C128.8 139.211 128.586 139.053 128.411 138.856L119.482 129.927L137.34 112.069L117.316 132.092L126.245 141.021C126.708 141.514 127.266 141.906 127.886 142.175C128.506 142.443 129.175 142.582 129.85 142.582C130.526 142.582 131.195 142.443 131.815 142.175C132.435 141.906 132.993 141.514 133.455 141.021L133.935 140.63L136.101 138.398Z" fill="#334A62"/>
<path id="Vector_5" d="M113.687 80.5954C113.498 80.4057 113.319 80.2048 113.152 80.0039L87.5703 105.585C87.7712 105.753 87.9721 105.931 88.1619 106.121L113.185 131.144C113.308 131.267 113.408 131.39 113.52 131.513L139.079 105.954L138.711 105.619L113.687 80.5954Z" fill="#667789"/>
<path id="Vector_6" d="M137.281 112.148L139.513 109.916L141.857 107.572C140.83 107.211 139.882 106.654 139.067 105.932L113.508 131.491C114.234 132.301 114.795 133.245 115.16 134.27L117.28 132.149L137.281 112.148Z" fill="#334A62"/>
<path id="Vector_7" d="M87.571 105.584L113.152 80.0026C112.455 79.153 111.932 78.1746 111.612 77.123L84.6914 104.033C85.7426 104.359 86.7206 104.885 87.571 105.584Z" fill="#334A62"/>
<path id="Vector_8" d="M115.899 78.374L140.922 103.409C141.986 104.391 143.38 104.936 144.828 104.936C146.276 104.936 147.671 104.391 148.735 103.409C149.757 102.365 150.33 100.963 150.33 99.5021C150.33 98.0414 149.757 96.6389 148.735 95.5957L123.7 70.5835C122.657 69.561 121.255 68.9883 119.794 68.9883C118.333 68.9883 116.931 69.561 115.887 70.5835C114.873 71.6271 114.307 73.0257 114.309 74.481C114.311 75.9364 114.881 77.3333 115.899 78.374Z" fill="#8368DF"/>
<path id="Vector_9" d="M113.153 80.0037C113.321 80.2046 113.499 80.4055 113.689 80.5953L138.712 105.619L139.081 105.953C139.896 106.676 140.843 107.233 141.871 107.594C142.819 107.936 143.82 108.11 144.829 108.108C145.96 108.117 147.083 107.903 148.131 107.475C149.179 107.048 150.131 106.417 150.934 105.619C152.528 103.984 153.421 101.791 153.421 99.5079C153.421 97.2245 152.528 95.0315 150.934 93.3971L125.91 68.3738C124.278 66.7544 122.071 65.8457 119.772 65.8457C117.472 65.8457 115.266 66.7544 113.633 68.3738C112.535 69.5124 111.767 70.928 111.411 72.4692C111.055 74.0105 111.125 75.6195 111.613 77.1242C111.933 78.1757 112.456 79.1541 113.153 80.0037ZM123.7 70.5837L148.724 95.6071C149.746 96.6502 150.319 98.0527 150.319 99.5135C150.319 100.974 149.746 102.377 148.724 103.42C147.66 104.402 146.265 104.947 144.817 104.947C143.37 104.947 141.975 104.402 140.911 103.42L115.899 78.3742C114.876 77.331 114.304 75.9285 114.304 74.4678C114.304 73.0071 114.876 71.6046 115.899 70.5614C116.942 69.5389 118.344 68.9661 119.805 68.9661C121.266 68.9661 122.668 69.5389 123.712 70.5614L123.7 70.5837Z" fill="#334A62"/>
<path id="Vector_10" d="M110.977 133.354L85.9426 108.331C84.9066 107.295 83.5014 106.713 82.0362 106.713C80.571 106.713 79.1658 107.295 78.1298 108.331C77.0938 109.367 76.5117 110.772 76.5117 112.237C76.5117 113.703 77.0938 115.108 78.1298 116.144L103.153 141.167C104.189 142.203 105.594 142.785 107.06 142.785C108.525 142.785 109.93 142.203 110.966 141.167C112.002 140.131 112.584 138.726 112.584 137.261C112.584 135.796 112.002 134.39 110.966 133.354H110.977Z" fill="#8368DF"/>
<path id="Vector_11" d="M113.522 131.511C113.41 131.388 113.31 131.266 113.187 131.143L88.1748 106.12C87.985 105.93 87.7841 105.751 87.5832 105.584C86.7328 104.885 85.7548 104.358 84.7036 104.032C82.8615 103.42 80.8664 103.447 79.0417 104.11C77.217 104.772 75.6696 106.032 74.6503 107.684C73.631 109.337 73.1996 111.285 73.426 113.213C73.6523 115.141 74.5232 116.936 75.8975 118.308L100.921 143.331C102.558 144.942 104.763 145.845 107.059 145.845C109.356 145.845 111.561 144.942 113.198 143.331C114.314 142.146 115.085 140.678 115.427 139.087C115.77 137.495 115.67 135.841 115.14 134.301C114.787 133.275 114.237 132.327 113.522 131.511ZM103.175 141.154L78.1297 116.131C77.6167 115.618 77.2098 115.009 76.9321 114.339C76.6545 113.669 76.5116 112.95 76.5116 112.225C76.5116 111.499 76.6545 110.781 76.9321 110.111C77.2098 109.44 77.6167 108.831 78.1297 108.318C79.1657 107.282 80.5709 106.7 82.0361 106.7C82.7616 106.7 83.48 106.843 84.1502 107.121C84.8205 107.398 85.4295 107.805 85.9425 108.318L110.966 133.342C112.002 134.378 112.584 135.783 112.584 137.248C112.584 138.713 112.002 140.118 110.966 141.154C109.93 142.19 108.525 142.773 107.059 142.773C105.594 142.773 104.189 142.19 103.153 141.154H103.175Z" fill="#334A62"/>
<path id="Vector_12" d="M93.5202 179.283H42.8374C42.7108 179.268 42.5826 179.283 42.4624 179.325C42.3422 179.367 42.233 179.436 42.143 179.526C42.0529 179.616 41.9843 179.725 41.9422 179.845C41.9001 179.965 41.8856 180.094 41.8998 180.22V183.87H94.4578V180.22C94.472 180.094 94.4575 179.965 94.4154 179.845C94.3733 179.725 94.3047 179.616 94.2146 179.526C94.1246 179.436 94.0154 179.367 93.8952 179.325C93.7749 179.283 93.6468 179.268 93.5202 179.283Z" fill="white"/>
<path id="Vector_13" d="M41.8996 183.869V180.219C41.8854 180.093 41.8999 179.965 41.942 179.844C41.9841 179.724 42.0527 179.615 42.1427 179.525C42.2328 179.435 42.342 179.366 42.4622 179.324C42.5824 179.282 42.7105 179.268 42.8371 179.282H93.52C93.6466 179.268 93.7747 179.282 93.8949 179.324C94.0151 179.366 94.1243 179.435 94.2144 179.525C94.3044 179.615 94.3731 179.724 94.4152 179.844C94.4573 179.965 94.4717 180.093 94.4575 180.219V183.869H96.2322C96.6861 183.872 97.1385 183.921 97.5827 184.014V180.219C97.5964 179.682 97.5008 179.147 97.3016 178.647C97.1025 178.147 96.8039 177.693 96.424 177.312C96.0442 176.931 95.5909 176.631 95.0917 176.431C94.5925 176.23 94.0578 176.133 93.52 176.146H42.8371C42.2997 176.135 41.7657 176.233 41.2673 176.434C40.7688 176.635 40.3162 176.935 39.9366 177.316C39.5571 177.696 39.2584 178.15 39.0587 178.649C38.859 179.148 38.7623 179.682 38.7745 180.219V184.07C39.2854 183.941 39.81 183.873 40.337 183.869H41.8996Z" fill="#334A62"/>
<path id="Vector_14" d="M99.6689 190.432C99.6462 189.527 99.2768 188.666 98.6369 188.026C97.9971 187.386 97.1358 187.017 96.2312 186.994H40.3361C39.4315 187.017 38.5702 187.386 37.9303 188.026C37.2905 188.666 36.9211 189.527 36.8984 190.432V193.881H99.6689V190.432Z" fill="white"/>
<path id="Vector_15" d="M97.5813 184.014C97.1371 183.921 96.6847 183.872 96.2308 183.869H40.3356C39.8086 183.873 39.284 183.941 38.7731 184.07C37.3577 184.438 36.1017 185.259 35.1967 186.408C34.2918 187.556 33.7878 188.97 33.7617 190.432V195.443C33.7647 195.859 33.9318 196.256 34.2266 196.549C34.5214 196.842 34.92 197.006 35.3354 197.006H101.186C101.392 197.006 101.595 196.965 101.784 196.887C101.974 196.808 102.146 196.693 102.291 196.548C102.436 196.403 102.551 196.231 102.63 196.041C102.708 195.852 102.749 195.648 102.749 195.443V190.432C102.726 188.939 102.205 187.497 101.269 186.334C100.333 185.171 99.0347 184.355 97.5813 184.014ZM36.898 190.432C36.9206 189.527 37.2901 188.666 37.9299 188.026C38.5698 187.386 39.4311 187.017 40.3356 186.994H96.2308C97.1354 187.017 97.9967 187.386 98.6365 188.026C99.2764 188.666 99.6458 189.527 99.6684 190.432V193.881H36.898V190.432Z" fill="#334A62"/>
<path id="Vector_16" d="M35.2028 139.76C35.3509 139.923 35.5318 140.053 35.7338 140.142C35.9358 140.23 36.1542 140.275 36.3747 140.273C36.7574 140.277 37.1278 140.138 37.4127 139.882C37.569 139.745 37.6964 139.578 37.7878 139.392C37.8792 139.205 37.9327 139.002 37.9451 138.794C37.9576 138.587 37.9288 138.379 37.8604 138.182C37.792 137.986 37.6854 137.805 37.5466 137.65L32.3679 131.835C32.0896 131.52 31.6975 131.328 31.2779 131.302C30.8582 131.276 30.4453 131.417 30.1301 131.696C29.8148 131.974 29.623 132.366 29.5968 132.786C29.5707 133.205 29.7123 133.618 29.9905 133.933L35.2028 139.76Z" fill="#334A62"/>
<path id="Vector_17" d="M26.5766 129.95C27.0318 129.95 27.4768 129.815 27.8551 129.562C28.2334 129.309 28.5281 128.949 28.7018 128.528C28.8755 128.107 28.9204 127.644 28.8307 127.198C28.7411 126.752 28.521 126.342 28.1984 126.021C27.8757 125.7 27.465 125.482 27.0182 125.394C26.5715 125.307 26.1089 125.354 25.6889 125.53C25.269 125.706 24.9107 126.002 24.6594 126.382C24.4081 126.761 24.2752 127.207 24.2774 127.662C24.2774 127.963 24.3369 128.262 24.4526 128.54C24.5683 128.818 24.7378 129.071 24.9515 129.284C25.1651 129.496 25.4187 129.665 25.6976 129.779C25.9764 129.893 26.2752 129.951 26.5766 129.95Z" fill="#334A62"/>
<path id="Vector_18" d="M30.8256 159.047L22.9012 158.634C22.4816 158.616 22.0709 158.759 21.7548 159.036C21.4387 159.313 21.2416 159.701 21.2047 160.119C21.1864 160.533 21.332 160.937 21.6099 161.244C21.8878 161.551 22.2755 161.736 22.6891 161.76L30.6135 162.173H30.7028C31.1172 162.183 31.5188 162.028 31.8192 161.743C32.1195 161.457 32.2941 161.063 32.3044 160.649C32.3148 160.235 32.1601 159.833 31.8744 159.533C31.5887 159.232 31.1954 159.058 30.7809 159.047H30.8256Z" fill="#334A62"/>
<path id="Vector_19" d="M15.9398 162.083C17.2096 162.083 18.239 161.053 18.239 159.784C18.239 158.514 17.2096 157.484 15.9398 157.484C14.67 157.484 13.6406 158.514 13.6406 159.784C13.6406 161.053 14.67 162.083 15.9398 162.083Z" fill="#334A62"/>
<path id="Vector_20" d="M59.0217 133.599H59.1556C59.555 133.6 59.9395 133.447 60.2301 133.173C60.5207 132.899 60.6954 132.524 60.7182 132.126L61.1312 124.413C61.1416 124.205 61.1105 123.997 61.0394 123.802C60.9684 123.606 60.859 123.426 60.7176 123.273C60.5761 123.121 60.4056 122.998 60.216 122.912C60.0263 122.826 59.8214 122.778 59.6132 122.773C59.2008 122.757 58.7984 122.902 58.4904 123.176C58.1824 123.451 57.9928 123.834 57.9614 124.246L57.5484 131.969C57.5301 132.38 57.6746 132.782 57.9504 133.087C58.2262 133.392 58.6111 133.576 59.0217 133.599Z" fill="#334A62"/>
<path id="Vector_21" d="M59.9476 119.536C61.2174 119.536 62.2468 118.507 62.2468 117.237C62.2468 115.967 61.2174 114.938 59.9476 114.938C58.6778 114.938 57.6484 115.967 57.6484 117.237C57.6484 118.507 58.6778 119.536 59.9476 119.536Z" fill="#334A62"/>
</g>
<defs>
<clipPath id="clip0_377_45628">
<rect width="218" height="218" fill="white"/>
</clipPath>
</defs>
</svg>
