<svg width="196" height="196" viewBox="0 0 196 196" fill="none" xmlns="http://www.w3.org/2000/svg">
<g id="Patents Search">
<path id="Vector" d="M71.2716 174.811H53.1016V138.111C53.1034 132.672 54.5838 127.335 57.3845 122.673C60.1852 118.01 64.2007 114.197 69.0016 111.641L69.3216 112.281L76.4416 129.521H81.5816L79.5816 134.301L96.8016 166.301L114.022 134.301L112.022 129.521H117.162L124.282 112.281L124.602 111.641C129.397 114.201 133.406 118.016 136.201 122.678C138.997 127.341 140.473 132.675 140.472 138.111V174.811H71.2716Z" fill="#667789"/>
<path id="Vector_2" d="M124.491 111.64L124.171 112.28L117.051 129.52H111.911L113.911 134.3L96.6914 166.3L109.051 125L114.001 108.6V108.33C117.673 108.772 121.231 109.894 124.491 111.64Z" fill="#667789"/>
<path id="Vector_3" d="M96.7291 53.2402C102.157 53.2402 107.462 54.8498 111.975 57.8654C116.488 60.881 120.005 65.1671 122.081 70.1817C124.158 75.1963 124.701 80.7141 123.641 86.0372C122.581 91.3603 119.967 96.2496 116.129 100.087C112.29 103.924 107.4 106.537 102.076 107.594C96.7527 108.652 91.2351 108.107 86.2213 106.029C81.2075 103.95 76.9226 100.432 73.9087 95.9178C70.8947 91.404 69.2871 86.0978 69.2891 80.6702C69.2917 73.3944 72.1839 66.4175 77.3296 61.2737C82.4753 56.1298 89.4533 53.2402 96.7291 53.2402Z" fill="white"/>
<path id="Vector_4" d="M114 108.33V108.6L109.05 125L101.05 117.86H96.7305C98.0161 117.86 99.2892 117.607 100.477 117.115C101.665 116.623 102.744 115.902 103.653 114.993C104.562 114.084 105.283 113.005 105.775 111.817C106.267 110.629 106.52 109.356 106.52 108.07H110.36C111.578 108.08 112.794 108.167 114 108.33Z" fill="white"/>
<path id="Vector_5" d="M109.05 125.04L96.7305 166.33L101.02 151.84L100.18 125.54L101.02 117.9L109.05 125.04Z" fill="white"/>
<path id="Vector_6" d="M96.7314 108.109H106.521C106.521 110.706 105.49 113.196 103.654 115.032C101.818 116.868 99.3279 117.899 96.7314 117.899C94.1349 117.899 91.6448 116.868 89.8088 115.032C87.9728 113.196 86.9414 110.706 86.9414 108.109H96.7314Z" fill="white"/>
<path id="Vector_7" d="M101.021 117.9L100.181 125.54H93.2714L92.4414 117.9H96.7314H101.021Z" fill="#8368DF"/>
<path id="Vector_8" d="M100.181 125.539L101.021 151.839L96.7314 166.329L92.4414 151.839L93.2714 125.539H100.181Z" fill="#8368DF"/>
<path id="Vector_9" d="M92.4419 151.84L96.7319 166.33L84.4219 125.04L92.4419 117.9L93.2719 125.54L92.4419 151.84Z" fill="white"/>
<path id="Vector_10" d="M84.4187 125L96.7288 166.29L79.5088 134.29L81.5088 129.51H76.4088L69.2887 112.27L68.9688 111.63C72.2322 109.883 75.7933 108.761 79.4688 108.32V108.59L84.4187 125Z" fill="#667789"/>
<path id="Vector_11" d="M96.7317 117.899H92.4417L84.4417 125.039L79.5117 108.599V108.329C80.7159 108.18 81.9283 108.107 83.1417 108.109H86.9817C86.9817 110.699 88.0076 113.183 89.835 115.018C91.6623 116.853 94.1422 117.889 96.7317 117.899Z" fill="white"/>
<path id="Vector_12" d="M124.169 80.6702C124.171 86.0978 122.563 91.404 119.549 95.9178C116.536 100.432 112.251 103.95 107.237 106.029C102.223 108.107 96.7054 108.652 91.3819 107.594C86.0584 106.537 81.1682 103.924 77.3296 100.087C73.491 96.2496 70.8766 91.3603 69.8171 86.0372C68.7575 80.7141 69.3003 75.1963 71.3769 70.1817C73.4534 65.1671 76.9705 60.881 81.4832 57.8654C85.9959 54.8498 91.3015 53.2402 96.7291 53.2402C104.005 53.2402 110.983 56.1298 116.129 61.2737C121.274 66.4175 124.166 73.3944 124.169 80.6702Z" stroke="#334A62" stroke-width="2" stroke-miterlimit="10"/>
<path id="Vector_13" d="M114.002 108.329C112.797 108.18 111.585 108.107 110.372 108.109H83.1016C81.8882 108.107 80.6758 108.18 79.4716 108.329C72.1975 109.216 65.4995 112.735 60.6415 118.221C55.7835 123.707 53.1015 130.782 53.1016 138.109V174.809H140.362V138.109C140.362 130.783 137.681 123.71 132.825 118.224C127.969 112.738 121.274 109.218 114.002 108.329Z" stroke="#334A62" stroke-width="2" stroke-miterlimit="10"/>
<path id="Vector_14" d="M106.521 108.109C106.521 110.706 105.49 113.196 103.654 115.032C101.818 116.868 99.3279 117.899 96.7314 117.899C94.1349 117.899 91.6448 116.868 89.8088 115.032C87.9728 113.196 86.9414 110.706 86.9414 108.109" stroke="#334A62" stroke-width="2" stroke-miterlimit="10"/>
<path id="Vector_15" d="M93.2714 125.54L92.4414 117.9H96.7314H101.021L100.181 125.54" stroke="#334A62" stroke-width="2" stroke-miterlimit="10"/>
<path id="Vector_16" d="M100.181 125.539L101.021 151.839L96.7314 166.329L92.4414 151.839L93.2714 125.539H100.181Z" stroke="#334A62" stroke-width="2" stroke-linejoin="round"/>
<path id="Vector_17" d="M113.95 108.6L109.05 125.04L96.7305 166.33L113.95 134.3L111.91 129.52H117.05L124.17 112.28" stroke="#334A62" stroke-width="2" stroke-linejoin="round"/>
<path id="Vector_18" d="M101.02 117.9L109.05 125.04" stroke="#334A62" stroke-width="2" stroke-miterlimit="10"/>
<path id="Vector_19" d="M122.191 143.9V174.81" stroke="#334A62" stroke-width="2" stroke-linecap="round" stroke-linejoin="round"/>
<path id="Vector_20" d="M79.5091 108.6L84.4191 125.04L96.7291 166.33L79.5091 134.3L81.5491 129.52H76.4091L69.2891 112.28" stroke="#334A62" stroke-width="2" stroke-linejoin="round"/>
<path id="Vector_21" d="M92.4419 117.9L84.4219 125.04" stroke="#334A62" stroke-width="2" stroke-miterlimit="10"/>
<path id="Vector_22" d="M71.2695 143.9V174.81" stroke="#334A62" stroke-width="2" stroke-linecap="round" stroke-linejoin="round"/>
<path id="Vector_23" d="M58.1088 74.3006L34.9388 65.1406C30.0438 63.2233 25.9576 59.6802 23.3662 55.1062C20.7748 50.5322 19.836 45.2059 20.7076 40.0215C21.5791 34.8372 24.2078 30.1106 28.1524 26.6354C32.0969 23.1601 37.1171 21.1479 42.3699 20.9365C47.6228 20.7251 52.7884 22.3275 56.9994 25.4746C61.2104 28.6216 64.2105 33.1218 65.4957 38.2193C66.781 43.3168 66.2733 48.7014 64.0577 53.4688C61.8422 58.2362 58.0539 62.0962 53.3288 64.4006L58.1088 74.3006Z" stroke="#334A62" stroke-width="2.1" stroke-linejoin="round"/>
<path id="Vector_24" d="M52.06 38.1899C52.06 41.4099 50.36 43.2799 48.99 46.8099C48.6 47.8099 48.43 48.8799 48.07 49.8999L48 49.9999C47.9259 49.9514 47.8386 49.9269 47.75 49.9299H38.75C38.6616 49.9282 38.5746 49.9525 38.5 49.9999V49.9299C38.14 48.9299 37.99 47.9299 37.6 46.9299C36.22 43.3699 34.5 41.4399 34.5 38.2199C34.5 35.886 35.4271 33.6477 37.0775 31.9974C38.7278 30.3471 40.9661 29.4199 43.3 29.4199C45.6339 29.4199 47.8722 30.3471 49.5225 31.9974C51.1729 33.6477 52.1 35.886 52.1 38.2199L52.06 38.1899Z" fill="white"/>
<path id="Vector_25" d="M48.31 55.1394V56.4394C48.31 56.5799 48.2542 56.7147 48.1548 56.8141C48.0554 56.9135 47.9206 56.9694 47.78 56.9694H38.78C38.6394 56.9694 38.5046 56.9135 38.4052 56.8141C38.3058 56.7147 38.25 56.5799 38.25 56.4394V55.1394C38.25 54.9988 38.3058 54.864 38.4052 54.7646C38.5046 54.6652 38.6394 54.6094 38.78 54.6094H47.78C47.9206 54.6094 48.0554 54.6652 48.1548 54.7646C48.2542 54.864 48.31 54.9988 48.31 55.1394Z" fill="#D6D6D6"/>
<path id="Vector_26" d="M47.7809 52.2598H38.7409C38.4482 52.2598 38.2109 52.4971 38.2109 52.7898V54.0798C38.2109 54.3725 38.4482 54.6098 38.7409 54.6098H47.7809C48.0736 54.6098 48.3109 54.3725 48.3109 54.0798V52.7898C48.3109 52.4971 48.0736 52.2598 47.7809 52.2598Z" fill="#D6D6D6"/>
<path id="Vector_27" d="M48.3101 50.4305V51.7305C48.3101 51.871 48.2543 52.0058 48.1549 52.1052C48.0555 52.2046 47.9207 52.2605 47.7801 52.2605H38.7801C38.6396 52.2605 38.5047 52.2046 38.4054 52.1052C38.306 52.0058 38.2501 51.871 38.2501 51.7305V50.4305C38.248 50.3351 38.2733 50.2411 38.3229 50.1596C38.3725 50.078 38.4444 50.0124 38.5301 49.9705C38.6048 49.9231 38.6917 49.8987 38.7801 49.9005H47.7801C47.8615 49.9121 47.9379 49.9468 48.0001 50.0005C48.0869 50.0359 48.162 50.095 48.2168 50.171C48.2716 50.247 48.3039 50.337 48.3101 50.4305Z" fill="#D6D6D6"/>
<path id="Vector_28" d="M46.3684 57L46.1484 58.66C46.124 58.8517 46.0301 59.0279 45.8845 59.155C45.7389 59.2822 45.5517 59.3516 45.3584 59.35H41.1584C40.9651 59.3516 40.778 59.2822 40.6324 59.155C40.4868 59.0279 40.3929 58.8517 40.3684 58.66L40.1484 57H46.3684Z" fill="#E95544"/>
<path id="Vector_29" d="M38.7411 52.2605C38.6005 52.2605 38.4657 52.2046 38.3663 52.1052C38.2669 52.0058 38.2111 51.871 38.2111 51.7305V50.4305C38.209 50.3351 38.2342 50.2411 38.2838 50.1596C38.3335 50.078 38.4054 50.0124 38.4911 49.9705C38.5657 49.9231 38.6527 49.8987 38.7411 49.9005H47.7411C47.8364 49.904 47.9279 49.9392 48.0011 50.0005C48.0868 50.0424 48.1587 50.108 48.2083 50.1896C48.2579 50.2711 48.2831 50.3651 48.2811 50.4605V51.7605C48.2811 51.901 48.2252 52.0358 48.1258 52.1352C48.0264 52.2346 47.8916 52.2905 47.7511 52.2905" stroke="#344A62" stroke-miterlimit="10"/>
<path id="Vector_30" d="M38.7409 54.6099C38.6004 54.6099 38.4656 54.554 38.3662 54.4546C38.2668 54.3552 38.2109 54.2204 38.2109 54.0799V52.7799C38.2109 52.7107 38.2247 52.6423 38.2515 52.5785C38.2782 52.5148 38.3174 52.457 38.3668 52.4086C38.4161 52.3602 38.4746 52.3221 38.5389 52.2965C38.6031 52.271 38.6718 52.2585 38.7409 52.2599H47.7409C47.8101 52.2585 47.8788 52.271 47.943 52.2965C48.0073 52.3221 48.0658 52.3602 48.1151 52.4086C48.1645 52.457 48.2037 52.5148 48.2304 52.5785C48.2572 52.6423 48.271 52.7107 48.2709 52.7799V54.0799C48.2709 54.2204 48.2151 54.3552 48.1157 54.4546C48.0163 54.554 47.8815 54.6099 47.7409 54.6099" stroke="#344A62" stroke-miterlimit="10"/>
<path id="Vector_31" d="M40.1509 57.0006H38.7409C38.6004 57.0006 38.4656 56.9448 38.3662 56.8454C38.2668 56.746 38.2109 56.6112 38.2109 56.4706V55.1706C38.2109 55.0301 38.2668 54.8953 38.3662 54.7959C38.4656 54.6965 38.6004 54.6406 38.7409 54.6406H47.7409C47.8815 54.6406 48.0163 54.6965 48.1157 54.7959C48.2151 54.8953 48.2709 55.0301 48.2709 55.1706V56.4706C48.2709 56.6112 48.2151 56.746 48.1157 56.8454C48.0163 56.9448 47.8815 57.0006 47.7409 57.0006H46.3709" stroke="#344A62" stroke-miterlimit="10"/>
<path id="Vector_32" d="M46.3684 57L46.1484 58.66C46.124 58.8517 46.0301 59.0279 45.8845 59.155C45.7389 59.2822 45.5517 59.3516 45.3584 59.35H41.1584C40.9651 59.3516 40.778 59.2822 40.6324 59.155C40.4868 59.0279 40.3929 58.8517 40.3684 58.66L40.1484 57H46.3684Z" stroke="#344A62" stroke-miterlimit="10"/>
<path id="Vector_33" d="M38.4609 49.9006C38.1009 48.9006 37.9509 47.9006 37.5609 46.9006C36.1809 43.3406 34.4609 41.4106 34.4609 38.1906C34.4609 35.8567 35.3881 33.6184 37.0384 31.9681C38.6887 30.3178 40.927 29.3906 43.2609 29.3906C45.5948 29.3906 47.8332 30.3178 49.4835 31.9681C51.1338 33.6184 52.0609 35.8567 52.0609 38.1906C52.0609 41.4106 50.3609 43.2806 48.9909 46.8106C48.6009 47.8106 48.4309 48.8806 48.0709 49.9006" stroke="#344A62" stroke-miterlimit="10"/>
</g>
</svg>
