<svg width="16" height="16" viewBox="0 0 16 16" fill="none" xmlns="http://www.w3.org/2000/svg">
<path d="M7.99984 15C7.29984 15 6.70828 14.7584 6.22517 14.2753C5.74162 13.7918 5.49984 13.2 5.49984 12.5C5.49984 11.9222 5.67206 11.4138 6.0165 10.9747C6.36095 10.536 6.79984 10.2389 7.33317 10.0833V8.66667H3.33317V6H1.6665V1.33333H6.33317V6H4.6665V7.33333H11.3332V5.91667C10.7998 5.76111 10.3609 5.46378 10.0165 5.02467C9.67206 4.586 9.49984 4.07778 9.49984 3.5C9.49984 2.8 9.74162 2.20822 10.2252 1.72467C10.7083 1.24156 11.2998 1 11.9998 1C12.6998 1 13.2916 1.24156 13.7752 1.72467C14.2583 2.20822 14.4998 2.8 14.4998 3.5C14.4998 4.07778 14.3276 4.586 13.9832 5.02467C13.6387 5.46378 13.1998 5.76111 12.6665 5.91667V8.66667H8.6665V10.0833C9.19984 10.2389 9.63873 10.536 9.98317 10.9747C10.3276 11.4138 10.4998 11.9222 10.4998 12.5C10.4998 13.2 10.2583 13.7918 9.77517 14.2753C9.29162 14.7584 8.69984 15 7.99984 15Z" fill="#7568D1"/>
</svg>
