<svg width="16" height="17" viewBox="0 0 16 17" fill="none" xmlns="http://www.w3.org/2000/svg">
<path d="M14.7147 9.30406L12.9347 4.94906H13.5347C13.7447 4.94906 13.9147 4.77906 13.9147 4.56906C13.9147 4.35906 13.7447 4.18906 13.5347 4.18906H9.10969C8.99469 3.84906 8.72469 3.57906 8.38469 3.46406V2.16906C8.38469 1.95906 8.21469 1.78906 8.00469 1.78906C7.79469 1.78906 7.62469 1.95906 7.62469 2.16906V3.46406C7.28469 3.57906 7.01469 3.84906 6.89969 4.18906H2.48469C2.27469 4.18906 2.10469 4.35906 2.10469 4.56906C2.10469 4.77906 2.27469 4.94906 2.48469 4.94906H3.08469L1.30469 9.30406C1.30469 10.3891 2.19469 11.2791 3.27969 11.2791H4.03469C5.11969 11.2791 6.00969 10.3891 6.00969 9.30406L4.22969 4.94906H6.90969C7.02469 5.28906 7.29469 5.55906 7.63469 5.67406V11.2791C6.85469 11.4291 6.23969 12.0391 6.07969 12.8141H9.95469C9.79469 12.0391 9.17469 11.4291 8.39469 11.2791V5.67406C8.73469 5.55906 9.00469 5.28906 9.11969 4.94906H11.8047L10.0247 9.30406C10.0247 10.3891 10.9147 11.2791 11.9997 11.2791H12.7547C13.8397 11.2791 14.7297 10.3891 14.7297 9.30406H14.7147ZM2.30969 8.90906L3.65469 5.62406L5.03469 8.90906H2.30969ZM11.0197 8.90906L12.3647 5.62406L13.7447 8.90906H11.0197Z" fill="#7568D1"/>
<path d="M10.3647 13.6094H5.64473C4.99973 13.6094 4.46973 14.1394 4.46973 14.7844V15.2044H11.5397V14.7844C11.5397 14.1394 11.0097 13.6094 10.3647 13.6094Z" fill="#7568D1"/>
</svg>
