<svg width="16" height="17" viewBox="0 0 16 17" fill="none" xmlns="http://www.w3.org/2000/svg">
<path d="M2.33996 8.5343C2.53996 8.9393 2.95496 9.2143 3.43496 9.2143H6.50996V8.5643C6.50996 8.3893 6.65496 8.2443 6.82996 8.2443H7.99996V5.5293H2.59996C2.38496 5.5293 2.20996 5.7043 2.20996 5.9193V7.9893C2.20996 8.0593 2.21496 8.1243 2.22496 8.1893C2.24496 8.3143 2.28496 8.4293 2.33496 8.5343H2.33996Z" fill="#7568D1"/>
<path d="M13.4 5.5293H8V8.2443H9.16C9.335 8.2443 9.48 8.3893 9.48 8.5643V9.2143H12.565C13.045 9.2143 13.46 8.9393 13.66 8.5343C13.715 8.4293 13.75 8.3093 13.77 8.1893C13.78 8.1243 13.785 8.0593 13.785 7.9893V5.9193C13.785 5.7043 13.61 5.5293 13.395 5.5293H13.4Z" fill="#7568D1"/>
<path d="M7.86996 11.2846L6.64996 10.6196C6.56496 10.5746 6.50996 10.4846 6.50996 10.3846V9.93961H3.45496C2.91496 9.92961 2.44996 9.74461 2.20996 9.47461V13.1846C2.20996 13.4346 2.41496 13.6396 2.66496 13.6396H7.99996V11.3146C7.95496 11.3146 7.90996 11.3046 7.86996 11.2846Z" fill="#7568D1"/>
<path d="M12.545 9.93961H12.495H9.48V10.3846C9.48 10.4846 9.425 10.5746 9.34 10.6196L8.12 11.2846C8.085 11.3046 8.04 11.3146 8 11.3146V13.6396H13.335C13.585 13.6396 13.79 13.4346 13.79 13.1846V9.47461C13.55 9.74461 13.085 9.92961 12.545 9.93961Z" fill="#7568D1"/>
<path d="M7.19531 10.1259L7.99531 10.5459L8.79031 10.1259V8.96094H7.19531V10.1259Z" fill="#7568D1"/>
<path d="M6.42977 3.89969C6.43977 3.83469 6.49477 3.78469 6.56477 3.78469H9.42977C9.49977 3.78469 9.55476 3.83469 9.56476 3.89969L9.69977 4.82969H10.3698L10.2398 3.83469C10.1798 3.38469 9.79977 3.05469 9.34977 3.05469H6.65477C6.20477 3.05469 5.81977 3.38969 5.76477 3.83469L5.63477 4.82969H6.30477L6.43977 3.89969H6.42977Z" fill="#7568D1"/>
</svg>
