<svg width="16" height="17" viewBox="0 0 16 17" fill="none" xmlns="http://www.w3.org/2000/svg">
<path d="M9.65961 8.51983L7.95461 10.2248C7.32961 10.8498 6.31961 10.8498 5.69961 10.2248C5.07461 9.59983 5.07461 8.58983 5.69961 7.96983L7.38961 6.27983C6.75461 5.76483 5.96461 5.52483 5.18961 5.56483H1.22461V9.52983H2.23961C2.34961 9.99483 2.56961 10.4398 2.88961 10.8298C2.91961 10.8698 2.94961 10.9098 2.98461 10.9448L6.86461 14.8248C7.16961 15.1298 7.66461 15.1298 7.96961 14.8248L8.00461 14.7898C8.30961 14.4848 8.30961 13.9898 8.00461 13.6848L8.55461 14.2348C8.85961 14.5398 9.35461 14.5398 9.65961 14.2348L9.69461 14.1998C9.99961 13.8948 9.99961 13.3998 9.69461 13.0948L10.2746 13.6748C10.5796 13.9798 11.0746 13.9798 11.3796 13.6748L11.4146 13.6398C11.7196 13.3348 11.7196 12.8398 11.4146 12.5348L11.9946 13.1148C12.2996 13.4198 12.7946 13.4198 13.0996 13.1148L13.1346 13.0798C13.4396 12.7748 13.4396 12.2798 13.1346 11.9748L9.66961 8.50983L9.65961 8.51983Z" fill="#7568D1"/>
<path d="M11.4999 5.57468H10.7399C9.96988 5.53468 9.18488 5.76968 8.54988 6.27968L6.29988 8.52968C5.98988 8.83968 5.98988 9.34468 6.29988 9.64968C6.60988 9.95968 7.11488 9.95968 7.41988 9.64968L9.66988 7.39968L13.0699 10.7997C13.3749 10.4197 13.5849 9.98968 13.6899 9.53968H14.7049V5.57468H11.4999Z" fill="#7568D1"/>
<path d="M8.35508 1.98438H7.58008V3.59937H8.35508V1.98438Z" fill="#7568D1"/>
<path d="M10.0227 2.48608L9.32812 3.79297L10.0125 4.15669L10.7071 2.84981L10.0227 2.48608Z" fill="#7568D1"/>
<path d="M5.92654 2.48589L5.24219 2.84961L5.93678 4.15649L6.62113 3.79277L5.92654 2.48589Z" fill="#7568D1"/>
</svg>
