<svg width="16" height="17" viewBox="0 0 16 17" fill="none" xmlns="http://www.w3.org/2000/svg">
<path d="M12.7195 5.79039L11.9395 4.97039L11.7845 3.85039L10.7245 3.45039L10.0995 2.50539L8.96953 2.60539L7.99453 2.02539L7.01953 2.60539L5.88953 2.50539L5.26453 3.45039L4.20453 3.85039L4.04953 4.97039L3.26953 5.79039L3.61453 6.87039L3.26953 7.95039L4.04953 8.77039L4.20453 9.89039L5.26453 10.2904L5.88953 11.2354L7.01953 11.1354L7.99453 11.7154L8.96953 11.1354L10.0995 11.2354L10.7245 10.2904L11.7845 9.89039L11.9395 8.77039L12.7195 7.95039L12.3745 6.87039L12.7195 5.79039ZM7.99953 10.2304C6.14453 10.2304 4.63953 8.72539 4.63953 6.87039C4.63953 5.01539 6.14453 3.51039 7.99953 3.51039C9.85453 3.51039 11.3595 5.01539 11.3595 6.87039C11.3595 8.72539 9.85453 10.2304 7.99953 10.2304Z" fill="#7568D1"/>
<path d="M5.4902 12.0791L4.7402 10.9541L4.5152 10.8691L3.4502 14.1391L5.3302 14.0141L6.8502 15.2091L7.6752 12.4591L6.8352 11.9641L5.4902 12.0791Z" fill="#7568D1"/>
<path d="M11.2602 10.9541L10.5102 12.0791L9.1652 11.9641L8.3252 12.4591L9.1502 15.2091L10.6702 14.0141L12.5502 14.1391L11.4852 10.8691L11.2602 10.9541Z" fill="#7568D1"/>
<path d="M8.00008 9.41031C9.40564 9.41031 10.5451 8.27088 10.5451 6.86531C10.5451 5.45975 9.40564 4.32031 8.00008 4.32031C6.59451 4.32031 5.45508 5.45975 5.45508 6.86531C5.45508 8.27088 6.59451 9.41031 8.00008 9.41031Z" fill="#7568D1"/>
</svg>
