<svg width="16" height="16" viewBox="0 0 16 16" fill="none" xmlns="http://www.w3.org/2000/svg">
<path d="M1.99984 14.6667C1.63317 14.6667 1.31939 14.5362 1.0585 14.2754C0.797171 14.014 0.666504 13.7 0.666504 13.3334V6.00002H1.99984V13.3334H13.3332V14.6667H1.99984ZM4.6665 12C4.29984 12 3.98606 11.8696 3.72517 11.6087C3.46384 11.3474 3.33317 11.0334 3.33317 10.6667V3.33335H6.6665V2.00002C6.6665 1.63335 6.79717 1.31935 7.0585 1.05802C7.31939 0.797131 7.63317 0.666687 7.99984 0.666687H10.6665C11.0332 0.666687 11.3472 0.797131 11.6085 1.05802C11.8694 1.31935 11.9998 1.63335 11.9998 2.00002V3.33335H15.3332V10.6667C15.3332 11.0334 15.2027 11.3474 14.9418 11.6087C14.6805 11.8696 14.3665 12 13.9998 12H4.6665ZM7.99984 3.33335H10.6665V2.00002H7.99984V3.33335Z" fill="#7568D1"/>
</svg>
