<svg width="16" height="16" viewBox="0 0 16 16" fill="none" xmlns="http://www.w3.org/2000/svg">
<path d="M4.66683 3.99998V2.66665C4.66683 2.29998 4.7975 1.98598 5.05883 1.72465C5.31972 1.46376 5.6335 1.33331 6.00016 1.33331H10.0002C10.3668 1.33331 10.6808 1.46376 10.9422 1.72465C11.2031 1.98598 11.3335 2.29998 11.3335 2.66665V3.99998H13.3335C13.7002 3.99998 14.0142 4.13065 14.2755 4.39198C14.5364 4.65287 14.6668 4.96665 14.6668 5.33331V12.6666C14.6668 13.0333 14.5364 13.3473 14.2755 13.6086C14.0142 13.8695 13.7002 14 13.3335 14H2.66683C2.30016 14 1.98639 13.8695 1.7255 13.6086C1.46416 13.3473 1.3335 13.0333 1.3335 12.6666V5.33331C1.3335 4.96665 1.46416 4.65287 1.7255 4.39198C1.98639 4.13065 2.30016 3.99998 2.66683 3.99998H4.66683ZM6.00016 3.99998H10.0002V2.66665H6.00016V3.99998ZM2.66683 11.3333H13.3335V9.33331H2.66683V11.3333Z" fill="#7568D1"/>
</svg>
