<svg width="16" height="16" viewBox="0 0 16 16" fill="none" xmlns="http://www.w3.org/2000/svg">
<path d="M11.5167 13.5L13.8333 11.2L13.1333 10.5L11.5167 12.0833L10.8667 11.4333L10.1667 12.15L11.5167 13.5ZM4 6H12V4.66667H4V6ZM12 15.3333C11.0778 15.3333 10.2918 15.0084 9.642 14.3587C8.99178 13.7084 8.66667 12.9222 8.66667 12C8.66667 11.0778 8.99178 10.2916 9.642 9.64133C10.2918 8.99156 11.0778 8.66667 12 8.66667C12.9222 8.66667 13.7084 8.99156 14.3587 9.64133C15.0084 10.2916 15.3333 11.0778 15.3333 12C15.3333 12.9222 15.0084 13.7084 14.3587 14.3587C13.7084 15.0084 12.9222 15.3333 12 15.3333ZM2 14.6667V3.33333C2 2.96667 2.13044 2.65267 2.39133 2.39133C2.65267 2.13044 2.96667 2 3.33333 2H12.6667C13.0333 2 13.3473 2.13044 13.6087 2.39133C13.8696 2.65267 14 2.96667 14 3.33333V7.78333C13.6889 7.62778 13.364 7.51378 13.0253 7.44133C12.6862 7.36933 12.3444 7.33333 12 7.33333H4V8.66667H8.73333C8.54444 8.85556 8.36933 9.06111 8.208 9.28333C8.04711 9.50556 7.90556 9.74444 7.78333 10H4V11.3333H7.38333C7.36111 11.4444 7.34711 11.5529 7.34133 11.6587C7.336 11.764 7.33333 11.8778 7.33333 12C7.33333 12.4667 7.39733 12.914 7.52533 13.342C7.65289 13.7696 7.84444 14.1778 8.1 14.5667L8 14.6667L7 13.6667L6 14.6667L5 13.6667L4 14.6667L3 13.6667L2 14.6667Z" fill="#7568D1"/>
</svg>
