<svg width="16" height="17" viewBox="0 0 16 17" fill="none" xmlns="http://www.w3.org/2000/svg">
<path d="M11.37 10.2891H4.28496C3.27496 10.2891 2.45996 11.1091 2.45996 12.1141V12.4241C2.45996 12.6341 2.62996 12.7991 2.83496 12.7991H12.82C13.03 12.7991 13.195 12.6291 13.195 12.4241V12.1141C13.195 11.1041 12.375 10.2891 11.37 10.2891Z" fill="#7568D1"/>
<path d="M3.18457 14.2493C3.18457 14.4443 3.34457 14.6043 3.53957 14.6043H12.1196C12.3146 14.6043 12.4746 14.4443 12.4746 14.2493V13.5293H3.18457V14.2493Z" fill="#7568D1"/>
<path d="M5.94496 6.53453C6.33996 6.97453 6.58496 7.55953 6.58496 8.19953C6.58496 8.72453 6.42496 9.20953 6.14496 9.60953H9.50496C9.22996 9.20953 9.06996 8.72453 9.06996 8.19953C9.06996 7.55953 9.30996 6.97453 9.70996 6.52953C10.09 6.08953 10.325 5.51453 10.325 4.88953C10.325 3.50953 9.20996 2.39453 7.82996 2.39453C6.44996 2.39453 5.33496 3.50953 5.33496 4.88953C5.33496 5.51453 5.56496 6.08953 5.94996 6.52953L5.94496 6.53453Z" fill="#7568D1"/>
</svg>
