<svg width="80" height="80" viewBox="0 0 80 80" fill="none" xmlns="http://www.w3.org/2000/svg">
<path fill-rule="evenodd" clip-rule="evenodd" d="M60.5942 50.1034C60.5942 50.1034 58.6816 47.5625 58.6816 44.7134C58.6816 41.8643 60.5942 39.3191 60.5942 39.3191H62.571C62.571 39.3191 60.6907 41.8551 60.6907 44.7113C60.6907 47.5674 62.571 50.1034 62.571 50.1034H60.5942Z" fill="#FFDF8D"/>
<path fill-rule="evenodd" clip-rule="evenodd" d="M58.5981 50.1032C58.5981 50.1032 56.6855 47.5623 56.6855 44.7132C56.6855 41.864 58.5981 39.3188 58.5981 39.3188H60.5749C60.5749 39.3188 58.6946 41.8549 58.6946 44.711C58.6946 47.5671 60.5749 50.1032 60.5749 50.1032H58.5981Z" fill="#FFE6A5"/>
<path fill-rule="evenodd" clip-rule="evenodd" d="M64.5913 50.1034C64.5913 50.1034 62.6787 47.5625 62.6787 44.7134C62.6787 41.8643 64.5913 39.3191 64.5913 39.3191H66.5681C66.5681 39.3191 64.6878 41.8551 64.6878 44.7113C64.6878 47.5674 66.5681 50.1034 66.5681 50.1034H64.5913Z" fill="#FFD15B"/>
<path fill-rule="evenodd" clip-rule="evenodd" d="M62.5923 50.1034C62.5923 50.1034 60.6797 47.5625 60.6797 44.7134C60.6797 41.8643 62.5923 39.3191 62.5923 39.3191H64.5691C64.5691 39.3191 62.6888 41.8551 62.6888 44.7113C62.6888 47.5674 64.5691 50.1034 64.5691 50.1034H62.5923Z" fill="#FFD874"/>
<path fill-rule="evenodd" clip-rule="evenodd" d="M66.5598 50.0981V59.4048H60.5893V56.5002C58.1285 58.3559 55.0626 59.4451 51.7546 59.4451C46.954 59.4451 42.6779 57.1457 39.975 53.5957C37.2722 57.1457 32.9961 59.4451 28.1955 59.4451C20.0466 59.4451 13.4307 52.8292 13.4307 44.6803V20.5564H19.3608V32.8201C21.8216 31.0047 24.8472 29.9155 28.1551 29.9155C32.9557 29.9155 37.2319 32.215 39.9347 35.765C42.6376 32.215 46.9137 29.9155 51.7143 29.9155C55.0222 29.9155 58.0882 31.0047 60.549 32.8604V29.9155H66.5598V39.315H58.6126C57.0393 37.2576 54.5382 35.9263 51.7143 35.9263C46.833 35.9263 42.9199 39.8798 42.9199 44.7207C42.9199 49.5616 46.8734 53.4747 51.7143 53.4747C54.5326 53.4747 57.0295 52.1486 58.6434 50.0981H66.5598ZM28.1955 53.4747C33.0767 53.4747 36.9898 49.5212 36.9898 44.6803C36.9495 39.7991 33.0364 35.886 28.1955 35.886C23.3142 35.886 19.4011 39.8394 19.4011 44.6803C19.4011 49.5616 23.3546 53.4747 28.1955 53.4747Z" fill="white"/>
</svg>
