<svg width="172" height="41" viewBox="0 0 172 41" fill="none" xmlns="http://www.w3.org/2000/svg">
<path d="M40.5229 28.0302V13.1091L39.4304 13.1055C38.8383 13.1091 38.3599 19.98 38.3599 20.5651C38.3599 21.1502 38.8383 28.0212 39.4304 28.0248L40.5229 28.0284V28.0302Z" fill="white"/>
<path d="M45.6591 31.0383L51.5524 20.5408L45.6591 10.0433L45.6572 9.02344L53.5138 20.5317L45.6572 32.0419L45.6591 31.0383Z" fill="#FFD15B" fill-opacity="0.85"/>
<path d="M45.6605 30.0422L49.5907 20.5573L45.6605 11.0725L45.6587 10.0508L51.5521 20.5483L45.6587 31.0458L45.6605 30.0422Z" fill="#FFD15B" fill-opacity="0.7"/>
<path d="M45.6643 29.0403L47.6275 20.5662L45.6643 12.0921L45.6606 11.0723L49.5908 20.5572L45.6606 30.042L45.6643 29.0403Z" fill="#FFD15B" fill-opacity="0.55"/>
<path d="M45.6678 28.0364V13.1117L45.666 12.0918L47.6292 20.5659L45.666 29.04L45.6678 28.0364Z" fill="#FFD15B" fill-opacity="0.4"/>
<path d="M45.6652 13.1133H44.3784V28.0362H45.6652V13.1133Z" fill="#FFD15B" fill-opacity="0.25"/>
<path d="M44.3811 13.1133H43.0942V28.0362H44.3811V13.1133Z" fill="#FFD15B" fill-opacity="0.1"/>
<path d="M43.0959 13.1133H41.8091V28.0344H43.0959V13.1133Z" fill="white"/>
<path d="M41.8098 13.1133H40.5229V28.0344H41.8098V13.1133Z" fill="white"/>
<path d="M45.6571 32.0481L53.5137 20.5379L45.6571 9.02963L45.6553 8.00977L55.4769 20.5289L45.6553 33.0498L45.6571 32.0481Z" fill="white"/>
<path d="M45.6571 32.0481L53.5137 20.5379L45.6571 9.02963L45.6553 8.00977L55.4769 20.5289L45.6553 33.0498L45.6571 32.0481Z" fill="#FFD15B"/>
<path fill-rule="evenodd" clip-rule="evenodd" d="M52.5503 8.01367L58.7897 16.3375L65.029 8.01367H71.8577L61.9787 20.5508L71.7883 33.0537H64.9597L58.7203 24.7299L52.481 33.0537H45.6523L55.462 20.5508L45.6523 8.01367H52.5503Z" fill="white"/>
<path d="M87.4222 29.4242C86.2783 27.1634 86.2783 27.1634 86.2783 27.1634H86.2436C86.209 27.1634 86.1743 27.1976 86.1396 27.2319C86.0356 27.2661 85.897 27.3347 85.7583 27.4032C85.6197 27.4717 85.4464 27.5402 85.3077 27.6087C85.2384 27.6429 85.1691 27.6429 85.1344 27.6772C85.0997 27.6772 85.0997 27.6772 85.0651 27.7115H85.0304H84.9957C84.9611 27.7115 84.9264 27.7457 84.8571 27.7457C84.7531 27.78 84.6145 27.78 84.4758 27.8142C84.3718 27.8142 84.2678 27.8485 84.1638 27.8485C84.0945 27.8485 83.9905 27.8485 83.8865 27.8142C83.6092 27.78 83.2626 27.6772 82.9506 27.5059C82.6387 27.3689 82.4307 27.1634 82.2574 26.9236C82.1187 26.6838 81.9107 26.2728 81.9107 25.4849V13.0848H87.4915V8.01512H81.9107V1.98633H76.7806V8.01512H72.1011V13.0848H76.7806V25.4849C76.7806 27.1291 77.1966 28.5678 77.9591 29.6982C78.7217 30.8286 79.6923 31.548 80.6282 32.0275C81.5294 32.4728 82.396 32.6784 83.02 32.8154C83.3319 32.8839 83.6092 32.8839 83.8172 32.9181C83.9212 32.9181 83.9905 32.9181 84.0598 32.9181C84.0945 32.9181 84.1292 32.9181 84.1292 32.9181H84.1638C84.1638 32.9181 84.2332 32.9181 84.3025 32.9181H84.3372H84.3718C84.4065 32.9181 84.4758 32.9181 84.5105 32.9181C84.6491 32.9181 84.8224 32.8839 84.9957 32.8839C85.3424 32.8496 85.9317 32.7469 86.4863 32.6098C86.9369 32.4728 87.4915 32.233 87.8035 32.0618C87.9768 31.9933 88.1501 31.8905 88.2541 31.8562C88.3234 31.822 88.3581 31.7877 88.3927 31.7877C88.3927 31.7877 88.4274 31.7877 88.4274 31.7535H88.4621C88.566 31.685 88.566 31.685 87.4222 29.4242Z" fill="white"/>
<path fill-rule="evenodd" clip-rule="evenodd" d="M119.417 20.5498C119.417 16.4392 122.814 13.1165 126.973 13.1165C128.048 13.1165 129.053 13.3221 129.989 13.7331L132.034 9.07451C130.474 8.42367 128.776 8.04688 126.973 8.04688C119.971 8.04688 114.287 13.6646 114.287 20.584L114.321 22.9133V33.0869H119.451V22.8448L119.417 20.5498Z" fill="white"/>
<path fill-rule="evenodd" clip-rule="evenodd" d="M144.235 8.01367V33.0537H139.104V8.01367H144.235Z" fill="white"/>
<path fill-rule="evenodd" clip-rule="evenodd" d="M159.313 8.01367C156.471 8.01367 153.871 8.93854 151.757 10.48V8.01367H146.626V41.0008H151.757V30.6216C153.871 32.1631 156.471 33.088 159.313 33.088C166.315 33.088 172 27.4702 172 20.5508C172 13.6314 166.315 8.01367 159.313 8.01367ZM159.313 27.984C155.154 27.984 151.757 24.6614 151.757 20.5166C151.757 16.3718 155.119 13.0491 159.313 13.0491C163.473 13.0491 166.87 16.3718 166.87 20.5166C166.87 24.6614 163.473 27.984 159.313 27.984Z" fill="white"/>
<path d="M144.235 2.53483C144.235 3.93927 143.091 5.06967 141.67 5.06967C140.248 5.06967 139.104 3.93927 139.104 2.53483C139.104 1.1304 140.248 0 141.67 0C143.091 0 144.235 1.1304 144.235 2.53483Z" fill="white"/>
<path fill-rule="evenodd" clip-rule="evenodd" d="M112.587 20.5499C112.587 19.9333 112.553 19.3168 112.449 18.7002C112.449 18.6659 112.449 18.6659 112.449 18.6317C112.414 18.4604 112.379 18.2891 112.345 18.1178C112.345 18.0836 112.345 18.0493 112.31 17.9808V17.9466C111.131 12.2603 106.001 7.97852 99.9006 7.97852C92.8986 7.97852 87.2139 13.5963 87.2139 20.5157C87.2139 27.4351 92.8986 33.0528 99.9006 33.0528C101.703 33.0528 103.436 32.676 104.996 31.9909C106.521 31.3401 107.908 30.381 109.052 29.2163L105.343 25.6881C104.649 26.3732 103.852 26.9555 102.951 27.3666C102.015 27.7776 101.01 27.9831 99.9352 27.9831C96.6769 27.9831 93.8692 25.9279 92.8293 23.0505H112.345C112.483 22.2284 112.587 21.4063 112.587 20.5499ZM99.9006 13.0824C103.159 13.0824 105.932 15.1377 107.007 17.9808H92.8293C93.8692 15.1377 96.6422 13.0824 99.9006 13.0824Z" fill="white"/>
<path fill-rule="evenodd" clip-rule="evenodd" d="M40.5243 25.1572C40.5243 25.1572 38.8809 22.9997 38.8809 20.5804C38.8809 18.1612 40.5243 16 40.5243 16H42.2228C42.2228 16 40.6072 18.1534 40.6072 20.5786C40.6072 23.0038 42.2228 25.1572 42.2228 25.1572H40.5243Z" fill="#C5A65F"/>
<path fill-rule="evenodd" clip-rule="evenodd" d="M38.8094 25.1572C38.8094 25.1572 37.166 22.9997 37.166 20.5804C37.166 18.1612 38.8094 16 38.8094 16H40.508C40.508 16 38.8923 18.1534 38.8923 20.5786C38.8923 23.0038 40.508 25.1572 40.508 25.1572H38.8094Z" fill="#A99160"/>
<path fill-rule="evenodd" clip-rule="evenodd" d="M43.9593 25.1572C43.9593 25.1572 42.3159 22.9997 42.3159 20.5804C42.3159 18.1612 43.9593 16 43.9593 16H45.6579C45.6579 16 44.0422 18.1534 44.0422 20.5786C44.0422 23.0038 45.6579 25.1572 45.6579 25.1572H43.9593Z" fill="#FFD15B"/>
<path fill-rule="evenodd" clip-rule="evenodd" d="M42.2406 25.1572C42.2406 25.1572 40.5972 22.9997 40.5972 20.5804C40.5972 18.1612 42.2406 16 42.2406 16H43.9391C43.9391 16 42.3235 18.1534 42.3235 20.5786C42.3235 23.0038 43.9391 25.1572 43.9391 25.1572H42.2406Z" fill="#E3BC5D"/>
<path fill-rule="evenodd" clip-rule="evenodd" d="M45.6513 25.1529V33.0554H40.5212V30.5891C38.4067 32.1648 35.7723 33.0897 32.93 33.0897C28.805 33.0897 25.1308 31.1372 22.8083 28.1228C20.4859 31.1372 16.8116 33.0897 12.6867 33.0897C5.68475 33.0897 0 27.472 0 20.5525V0.0683594H5.09548V10.4817C7.20992 8.94028 9.80966 8.01541 12.652 8.01541C16.7769 8.01541 20.4512 9.96792 22.7737 12.9823C25.0961 9.96792 28.7704 8.01541 32.8953 8.01541C35.7377 8.01541 38.3721 8.94028 40.4865 10.516V8.01541H45.6513V15.9967H38.8227C37.4708 14.2497 35.3217 13.1193 32.8953 13.1193C28.7011 13.1193 25.3387 16.4763 25.3387 20.5868C25.3387 24.6973 28.7357 28.02 32.8953 28.02C35.3169 28.02 37.4624 26.8941 38.8492 25.1529H45.6513ZM12.6867 28.02C16.8809 28.02 20.2433 24.6631 20.2433 20.5525C20.2086 16.4078 16.8463 13.0851 12.6867 13.0851C8.49246 13.0851 5.13014 16.442 5.13014 20.5525C5.13014 24.6973 8.52713 28.02 12.6867 28.02Z" fill="white"/>
</svg>
