<svg width="192" height="56" viewBox="0 0 192 56" fill="none" xmlns="http://www.w3.org/2000/svg">
<path d="M50.5229 38.5301V23.609L49.4304 23.6053C48.8383 23.609 48.3599 30.4799 48.3599 31.065C48.3599 31.6501 48.8383 38.521 49.4304 38.5247L50.5229 38.5283V38.5301Z" fill="white"/>
<path d="M55.6591 41.5378L61.5524 31.0403L55.6591 20.5428L55.6572 19.5229L63.5138 31.0313L55.6572 42.5414L55.6591 41.5378Z" fill="#FFD15B" fill-opacity="0.85"/>
<path d="M55.6605 40.542L59.5907 31.0571L55.6605 21.5722L55.6587 20.5505L61.5521 31.048L55.6587 41.5455L55.6605 40.542Z" fill="#FFD15B" fill-opacity="0.7"/>
<path d="M55.6643 39.5391L57.6275 31.065L55.6643 22.5909L55.6606 21.571L59.5908 31.0559L55.6606 40.5408L55.6643 39.5391Z" fill="#FFD15B" fill-opacity="0.55"/>
<path d="M55.6678 38.5363V23.6115L55.666 22.5917L57.6292 31.0658L55.666 39.5398L55.6678 38.5363Z" fill="#FFD15B" fill-opacity="0.4"/>
<path d="M55.6652 23.6122H54.3784V38.5351H55.6652V23.6122Z" fill="#FFD15B" fill-opacity="0.25"/>
<path d="M54.3811 23.6122H53.0942V38.5351H54.3811V23.6122Z" fill="#FFD15B" fill-opacity="0.1"/>
<path d="M53.0959 23.6122H51.8091V38.5333H53.0959V23.6122Z" fill="white"/>
<path d="M51.8098 23.6122H50.5229V38.5333H51.8098V23.6122Z" fill="white"/>
<path d="M55.6571 42.5476L63.5137 31.0374L55.6571 19.5291L55.6553 18.5093L65.4769 31.0284L55.6553 43.5493L55.6571 42.5476Z" fill="white"/>
<path d="M55.6571 42.5476L63.5137 31.0374L55.6571 19.5291L55.6553 18.5093L65.4769 31.0284L55.6553 43.5493L55.6571 42.5476Z" fill="#FFD15B"/>
<path fill-rule="evenodd" clip-rule="evenodd" d="M62.5503 18.5129L68.7897 26.8368L75.029 18.5129H81.8577L71.9787 31.0501L81.7883 43.553H74.9597L68.7203 35.2291L62.481 43.553H55.6523L65.462 31.0501L55.6523 18.5129H62.5503Z" fill="#404266"/>
<path d="M97.4222 39.9238C96.2783 37.663 96.2783 37.663 96.2783 37.663H96.2436C96.209 37.663 96.1743 37.6973 96.1396 37.7315C96.0356 37.7658 95.897 37.8343 95.7583 37.9028C95.6197 37.9713 95.4464 38.0398 95.3077 38.1083C95.2384 38.1426 95.1691 38.1426 95.1344 38.1768C95.0997 38.1768 95.0997 38.1768 95.0651 38.2111H95.0304H94.9957C94.9611 38.2111 94.9264 38.2453 94.8571 38.2453C94.7531 38.2796 94.6145 38.2796 94.4758 38.3138C94.3718 38.3138 94.2678 38.3481 94.1638 38.3481C94.0945 38.3481 93.9905 38.3481 93.8865 38.3138C93.6092 38.2796 93.2626 38.1768 92.9506 38.0056C92.6387 37.8685 92.4307 37.663 92.2574 37.4232C92.1187 37.1835 91.9107 36.7724 91.9107 35.9845V23.5844H97.4915V18.5148H91.9107V12.486H86.7806V18.5148H82.1011V23.5844H86.7806V35.9845C86.7806 37.6288 87.1966 39.0674 87.9591 40.1978C88.7217 41.3282 89.6923 42.0476 90.6282 42.5271C91.5294 42.9725 92.396 43.178 93.02 43.315C93.3319 43.3835 93.6092 43.3835 93.8172 43.4178C93.9212 43.4178 93.9905 43.4178 94.0598 43.4178C94.0945 43.4178 94.1292 43.4178 94.1292 43.4178H94.1638C94.1638 43.4178 94.2332 43.4178 94.3025 43.4178H94.3372H94.3718C94.4065 43.4178 94.4758 43.4178 94.5105 43.4178C94.6491 43.4178 94.8224 43.3835 94.9957 43.3835C95.3424 43.3493 95.9317 43.2465 96.4863 43.1095C96.9369 42.9725 97.4915 42.7327 97.8035 42.5614C97.9768 42.4929 98.1501 42.3901 98.2541 42.3559C98.3234 42.3216 98.3581 42.2874 98.3927 42.2874C98.3927 42.2874 98.4274 42.2874 98.4274 42.2531H98.4621C98.566 42.1846 98.566 42.1846 97.4222 39.9238Z" fill="#404266"/>
<path fill-rule="evenodd" clip-rule="evenodd" d="M129.417 31.0503C129.417 26.9397 132.814 23.617 136.973 23.617C138.048 23.617 139.053 23.8226 139.989 24.2336L142.034 19.575C140.474 18.9242 138.776 18.5474 136.973 18.5474C129.971 18.5474 124.287 24.1651 124.287 31.0845L124.321 33.4138V43.5874H129.451V33.3453L129.417 31.0503Z" fill="#404266"/>
<path fill-rule="evenodd" clip-rule="evenodd" d="M154.235 18.5129V43.553H149.104V18.5129H154.235Z" fill="#404266"/>
<path fill-rule="evenodd" clip-rule="evenodd" d="M169.313 18.5129C166.471 18.5129 163.871 19.4378 161.757 20.9793V18.5129H156.626V51.5H161.757V41.1209C163.871 42.6624 166.471 43.5872 169.313 43.5872C176.315 43.5872 182 37.9695 182 31.0501C182 24.1307 176.315 18.5129 169.313 18.5129ZM169.313 38.4833C165.154 38.4833 161.757 35.1606 161.757 31.0158C161.757 26.871 165.119 23.5483 169.313 23.5483C173.473 23.5483 176.87 26.871 176.87 31.0158C176.87 35.1606 173.473 38.4833 169.313 38.4833Z" fill="#404266"/>
<path d="M154.235 13.0348C154.235 14.4393 153.091 15.5697 151.67 15.5697C150.248 15.5697 149.104 14.4393 149.104 13.0348C149.104 11.6304 150.248 10.5 151.67 10.5C153.091 10.5 154.235 11.6304 154.235 13.0348Z" fill="#404266"/>
<path fill-rule="evenodd" clip-rule="evenodd" d="M122.587 31.0499C122.587 30.4333 122.553 29.8168 122.449 29.2002C122.449 29.1659 122.449 29.1659 122.449 29.1317C122.414 28.9604 122.379 28.7891 122.345 28.6178C122.345 28.5836 122.345 28.5493 122.31 28.4808V28.4466C121.131 22.7603 116.001 18.4785 109.901 18.4785C102.899 18.4785 97.2139 24.0963 97.2139 31.0157C97.2139 37.9351 102.899 43.5528 109.901 43.5528C111.703 43.5528 113.436 43.176 114.996 42.4909C116.521 41.8401 117.908 40.881 119.052 39.7163L115.343 36.1881C114.649 36.8732 113.852 37.4555 112.951 37.8666C112.015 38.2776 111.01 38.4831 109.935 38.4831C106.677 38.4831 103.869 36.4279 102.829 33.5505H122.345C122.483 32.7284 122.587 31.9063 122.587 31.0499ZM109.901 23.5824C113.159 23.5824 115.932 25.6377 117.007 28.4808H102.829C103.869 25.6377 106.642 23.5824 109.901 23.5824Z" fill="#404266"/>
<path fill-rule="evenodd" clip-rule="evenodd" d="M50.5243 35.6563C50.5243 35.6563 48.8809 33.4987 48.8809 31.0795C48.8809 28.6602 50.5243 26.499 50.5243 26.499H52.2228C52.2228 26.499 50.6072 28.6524 50.6072 31.0776C50.6072 33.5028 52.2228 35.6563 52.2228 35.6563H50.5243Z" fill="#FFDF8D"/>
<path fill-rule="evenodd" clip-rule="evenodd" d="M48.8094 35.6563C48.8094 35.6563 47.166 33.4987 47.166 31.0795C47.166 28.6602 48.8094 26.499 48.8094 26.499H50.508C50.508 26.499 48.8923 28.6524 48.8923 31.0776C48.8923 33.5028 50.508 35.6563 50.508 35.6563H48.8094Z" fill="#FFE6A5"/>
<path fill-rule="evenodd" clip-rule="evenodd" d="M53.9593 35.6563C53.9593 35.6563 52.3159 33.4987 52.3159 31.0795C52.3159 28.6602 53.9593 26.499 53.9593 26.499H55.6579C55.6579 26.499 54.0422 28.6524 54.0422 31.0776C54.0422 33.5028 55.6579 35.6563 55.6579 35.6563H53.9593Z" fill="#FFD15B"/>
<path fill-rule="evenodd" clip-rule="evenodd" d="M52.2406 35.6563C52.2406 35.6563 50.5972 33.4987 50.5972 31.0795C50.5972 28.6602 52.2406 26.499 52.2406 26.499H53.9391C53.9391 26.499 52.3235 28.6524 52.3235 31.0776C52.3235 33.5028 53.9391 35.6563 53.9391 35.6563H52.2406Z" fill="#FFD874"/>
<path fill-rule="evenodd" clip-rule="evenodd" d="M55.6513 35.6535V43.556H50.5212V41.0897C48.4067 42.6654 45.7723 43.5903 42.93 43.5903C38.805 43.5903 35.1308 41.6378 32.8083 38.6234C30.4859 41.6378 26.8116 43.5903 22.6867 43.5903C15.6847 43.5903 10 37.9726 10 31.0532V10.569H15.0955V20.9823C17.2099 19.4409 19.8097 18.516 22.652 18.516C26.7769 18.516 30.4512 20.4685 32.7737 23.4829C35.0961 20.4685 38.7704 18.516 42.8953 18.516C45.7377 18.516 48.3721 19.4409 50.4865 21.0166V18.516H55.6513V26.4973H48.8227C47.4708 24.7503 45.3217 23.6199 42.8953 23.6199C38.7011 23.6199 35.3387 26.9769 35.3387 31.0874C35.3387 35.198 38.7357 38.5206 42.8953 38.5206C45.3169 38.5206 47.4624 37.3947 48.8492 35.6535H55.6513ZM22.6867 38.5206C26.8809 38.5206 30.2433 35.1637 30.2433 31.0532C30.2086 26.9084 26.8463 23.5857 22.6867 23.5857C18.4925 23.5857 15.1301 26.9426 15.1301 31.0532C15.1301 35.198 18.5271 38.5206 22.6867 38.5206Z" fill="#404266"/>
</svg>
