<svg width="22" height="27" viewBox="0 0 22 27" fill="none" xmlns="http://www.w3.org/2000/svg">
<path d="M10.9997 13.4994C11.733 13.4994 12.361 13.238 12.8837 12.7154C13.4055 12.1936 13.6663 11.566 13.6663 10.8327C13.6663 10.0993 13.4055 9.47135 12.8837 8.94868C12.361 8.42691 11.733 8.16602 10.9997 8.16602C10.2663 8.16602 9.63879 8.42691 9.11701 8.94868C8.59434 9.47135 8.33301 10.0993 8.33301 10.8327C8.33301 11.566 8.59434 12.1936 9.11701 12.7154C9.63879 13.238 10.2663 13.4994 10.9997 13.4994ZM10.9997 26.8327C7.4219 23.7882 4.7499 20.9602 2.98367 18.3487C1.21656 15.738 0.333008 13.3216 0.333008 11.0993C0.333008 7.76602 1.40545 5.11046 3.55034 3.13268C5.69434 1.1549 8.17745 0.166016 10.9997 0.166016C13.8219 0.166016 16.305 1.1549 18.449 3.13268C20.5939 5.11046 21.6663 7.76602 21.6663 11.0993C21.6663 13.3216 20.7832 15.738 19.017 18.3487C17.2499 20.9602 14.5775 23.7882 10.9997 26.8327Z" fill="#7568D1"/>
</svg>
