<svg width="16" height="16" viewBox="0 0 16 16" fill="none" xmlns="http://www.w3.org/2000/svg">
<path d="M13.3333 14.6673H4C3.46957 14.6673 2.96086 14.4566 2.58579 14.0815C2.21071 13.7065 2 13.1978 2 12.6673V3.33398C2 2.80355 2.21071 2.29484 2.58579 1.91977C2.96086 1.5447 3.46957 1.33398 4 1.33398H13.3333C13.5101 1.33398 13.6797 1.40422 13.8047 1.52925C13.9298 1.65427 14 1.82384 14 2.00065V14.0007C14 14.1775 13.9298 14.347 13.8047 14.4721C13.6797 14.5971 13.5101 14.6673 13.3333 14.6673ZM12.6667 13.334V12.0007H4C3.82319 12.0007 3.65362 12.0709 3.5286 12.1959C3.40357 12.3209 3.33333 12.4905 3.33333 12.6673C3.33333 12.8441 3.40357 13.0137 3.5286 13.1387C3.65362 13.2637 3.82319 13.334 4 13.334H12.6667ZM8 6.66732C8.35362 6.66732 8.69276 6.52684 8.94281 6.27679C9.19286 6.02674 9.33333 5.68761 9.33333 5.33398C9.33333 4.98036 9.19286 4.64122 8.94281 4.39118C8.69276 4.14113 8.35362 4.00065 8 4.00065C7.64638 4.00065 7.30724 4.14113 7.05719 4.39118C6.80714 4.64122 6.66667 4.98036 6.66667 5.33398C6.66667 5.68761 6.80714 6.02674 7.05719 6.27679C7.30724 6.52684 7.64638 6.66732 8 6.66732ZM6 9.33398H10C10 8.80355 9.78929 8.29484 9.41421 7.91977C9.03914 7.5447 8.53043 7.33398 8 7.33398C7.46957 7.33398 6.96086 7.5447 6.58579 7.91977C6.21071 8.29484 6 8.80355 6 9.33398Z" fill="#7568D1"/>
</svg>
