<?xml version="1.0" encoding="UTF-8"?><svg id="Layer_1" xmlns="http://www.w3.org/2000/svg" viewBox="0 0 320 240"><defs><style>.cls-1{fill:none;}.cls-1,.cls-2{stroke-width:0px;}.cls-2{fill:#f80700;}</style></defs><path class="cls-1" d="m169.58,108.99c-2.39,1.53-4.3,3.58-5.95,5.87-.55.75-1.72,1.67-1.38,2.32.45.85,1.84.17,2.41.3.98,0,1.56-.04,2.14,0,1.24.1,1.87-.4,2.23-1.64.57-1.97,1.41-3.86,2.06-5.81.17-.5.72-1.2.19-1.6-.58-.43-1.18.22-1.69.55Z"/><path class="cls-1" d="m119.46,108.48c.03-.78-.24-1.54-1.16-1.59-.85-.04-1.34.51-1.41,1.37-.08,1.05-.06,2.09.41,3.33,1.3-.73,2.1-1.69,2.16-3.12Z"/><path class="cls-1" d="m248.38,114.53c-.37-2.42-1.35-.56-1.69-.16-2.34,2.68-3.77,5.84-4.55,9.29-.17.76-.61,1.83.36,2.3.89.43,1.54-.44,2.17-.97.44-.37.83-.82,1.18-1.29,1.93-2.56,3.34-5.36,4.17-8.72-.76.14-1.53.29-1.64-.45Z"/><path class="cls-1" d="m96.6,108.75c-2.53,1.54-4.53,3.63-6.25,6-.58.79-1.78,1.73-1.44,2.45.39.82,1.83.17,2.8.37.85-.05,1.69-.12,2.54-.14.61-.01.92-.26,1.12-.86.78-2.29,1.65-4.56,2.43-6.85.14-.4.59-.94.1-1.3-.43-.32-.91.1-1.3.34Z"/><path class="cls-1" d="m63.93,97.26h-30.54c-4.12,0-7.47,3.35-7.47,7.47v30.54c0,4.12,3.35,7.47,7.47,7.47h30.54c4.12,0,7.47-3.35,7.47-7.47v-30.54c0-4.12-3.35-7.47-7.47-7.47Zm-17.22,38.75h-6.96c-4.38,0-7.97-3.59-7.97-7.97v-24.04l14.93,14.29v17.72Zm18.83-7.97c0,4.38-3.59,7.97-7.97,7.97h-6.96v-17.72l14.93-14.29v24.04Z"/><path class="cls-1" d="m113.04,117.36c-1.47,1.8-2.07,3.64-1.85,5.73.1.93.56,1.7,1.39,2.2.87.53,1.62.18,2.33-.35.41-.31.91-.53.61-1.25-.84-2.04-1.61-4.1-2.48-6.33Z"/><path class="cls-1" d="m287.32,114.59c-.43-2.38-1.38-.63-1.78-.15-2.38,2.84-3.91,6.13-4.57,9.78-.11.59-.32,1.33.39,1.73.68.38,1.2-.14,1.7-.51.38-.28.73-.62,1.04-.97,2.36-2.66,3.85-5.77,4.85-9.4-.67-.01-1.49.26-1.62-.47Z"/><path class="cls-2" d="m127.59,116.3c-1.49-1.32-3.63-1.37-5.23-.05-.85.7-1.61,1.52-2.51,2.38-.47-1.25-.85-2.46-1.38-3.6-.4-.85-.27-1.34.54-1.79,1.07-.6,2.05-1.34,2.8-2.32.93-1.22,1.25-2.59.62-4.02-.65-1.48-1.95-2.02-3.48-2.07-4.33-.16-7.58,3.39-7.02,7.87.15,1.23-.22,1.76-1.17,2.37-2.36,1.54-4.6,3.26-5.74,5.98-1.19,2.83-.51,5.8,1.67,7.48,2.17,1.67,5.29,1.61,7.68-.19.75-.56,1.43-1.21,2.21-1.88.26.82.46,1.52.71,2.22.32.92.97,1.24,1.88.87,1.67-.68,3.38-1.22,5.15-1.58.38-.08.85-.2.92-.74.07-.62-.37-.91-.82-.99-1.42-.25-1.97-1.28-2.41-2.46-.24-.64-.48-1.29-.78-1.9-.42-.86-.16-1.39.83-1.81-.06,2.17.2,2.83,1.2,3.22,1.68.66,4.03-.16,5.04-1.76,1.05-1.65.74-3.94-.7-5.22Zm-12.68,8.64c-.71.53-1.46.88-2.33.35-.83-.5-1.29-1.27-1.39-2.2-.22-2.09.38-3.94,1.85-5.73.87,2.23,1.64,4.29,2.48,6.33.3.72-.2.95-.61,1.25Zm2.38-13.34c-.47-1.25-.49-2.29-.41-3.33.07-.86.56-1.41,1.41-1.37.92.04,1.19.81,1.16,1.59-.06,1.43-.86,2.39-2.16,3.12Z"/><path class="cls-2" d="m238.96,115.62c.53-1.24.75-2.52-.44-3.49-1.17-.95-2.43-.57-3.53.2-.79.55-1.46,1.26-2.25,1.97,0-.63.03-1.1,0-1.58-.06-.92-.52-1.41-1.47-1.08-3.01,1.04-6.07.28-9.2.42.14-.5.26-.91.37-1.31.31-1.12.63-2.24.91-3.37.17-.69.21-1.48-.55-1.81-.87-.38-1.19.4-1.53,1-.24.41-.43.85-.68,1.25-1.27,2.04-2.89,3.66-5.33,4.22-.79.18-1.46.42-1.4,1.39.07,1.06,1.03.42,1.53.76-.97,2.84-1.94,5.57-2.83,8.33-.6,1.86-1.08,3.77-.96,5.76.05.89.37,1.75,1.43,1.32,1.96-.78,4.01-.95,6.06-1.14.4-.04.87-.03.94-.63.07-.63-.32-.91-.82-.95-1.37-.12-1.4-.92-1.26-2.02.38-2.87,1.52-5.49,2.44-8.18.54-1.57.93-3.2,3.2-2.68.13.03.34-.04.45-.14.88-.83,1.72-.21,2.37.24.74.51.29,1.36.03,2.02-.88,2.21-1.85,4.38-2.71,6.59-.69,1.77-1.37,3.56-1.3,5.52.04,1.08.42,1.71,1.71,1.28,1.1-.37,2.25-.6,3.38-.86.69-.16,1.14-.44,1.14-1.26-.03-3.34,1.54-6.09,3.34-8.74.57-.84,1.25-1.59,2.11-2.14.34-.22.74-.5.84.28.18,1.41.77,1.71,2.03,1.03.92-.49,1.58-1.26,1.99-2.21Z"/><path class="cls-2" d="m176.4,113.6c.74-2.05,1.37-4.12,1.72-6.27.31-1.89-.55-2.74-2.43-2.44-1.73.28-3.42.74-5,1.52-7.35,3.6-11.85,9.74-15.09,16.98-.67,1.5-1.14,3.09-1.23,4.74-.06.96.16,1.93,1.51,1.55,1.69-.46,3.37-.95,5.13-1.04.46-.02.81-.29.89-.77.08-.45-.22-.67-.6-.8-1.89-.67-1.94-2.1-1.65-3.76.65-3.67.98-3.99,4.59-3.99q3.43,0,2.43,3.2c-.16.51-.32,1.01-.47,1.52-.39,1.38-.78,2.77-.67,4.21.06.8.27,1.77,1.39,1.47,2-.53,4-1.02,6.06-1.25.84-.09,1.32-.83.4-1.38-1.23-.74-1.13-1.71-.78-2.74,1.23-3.6,2.48-7.19,3.78-10.77Zm-5.31-3.56c-.64,1.95-1.49,3.84-2.06,5.81-.36,1.24-.99,1.74-2.23,1.64-.58-.05-1.16,0-2.14,0-.57-.13-1.96.55-2.41-.3-.34-.65.83-1.56,1.38-2.32,1.65-2.28,3.56-4.33,5.95-5.87.51-.33,1.11-.98,1.69-.55.53.4-.02,1.09-.19,1.6Z"/><path class="cls-2" d="m99.89,126.97c-.95-.41-.96-1.21-.78-2.01.21-.92.52-1.83.8-2.74,1.49-4.79,3.78-9.32,4.72-14.29.51-2.68-.28-3.46-2.96-2.9-9.14,1.91-18.84,12.33-20.51,22.03-.09.02-.17.04-.26.05v1.91c.08.02.17.04.25.06.26.87.9.78,1.54.58,1.57-.5,3.16-.9,4.82-.99.52-.03.94-.24,1.02-.81.08-.56-.39-.69-.77-.86-.82-.35-1.49-.83-1.58-1.81-.17-1.92.54-3.64,1.21-5.36.11-.28.37-.36.64-.37,2.04-.13,4.07-.22,6.19.11-.39,1.24-.77,2.33-1.09,3.45-.48,1.68-1.05,3.35-.97,5.13.04.92.25,1.96,1.58,1.57,1.89-.55,3.78-1.04,5.75-1.16.43-.03.84-.2.93-.71.08-.45-.18-.71-.54-.86Zm-2.08-17.26c-.78,2.29-1.65,4.56-2.43,6.85-.2.6-.51.85-1.12.86-.85.02-1.69.09-2.54.14-.97-.2-2.41.45-2.8-.37-.34-.71.86-1.65,1.44-2.45,1.72-2.37,3.72-4.46,6.25-6,.39-.24.87-.66,1.3-.34.49.36.04.9-.1,1.3Z"/><path class="cls-2" d="m193.47,126.99c-1.21-.29-1.22-1.11-.97-2.09.36-1.45,1.04-2.77,1.55-4.15.84-2.27,2.07-4.42,2.33-6.89.21-1.94-.19-2.29-2.08-1.98-.58.09-1.16.25-1.73.25-1.41,0-1.97.54-2.14,2.05-.48,4.31-2.61,7.88-5.58,10.97-.5.52-1.2,1.25-1.89.84-.83-.5-.15-1.35.11-1.98.94-2.35,1.97-4.68,2.93-7.02.52-1.28.96-2.59.92-3.99-.02-.76-.19-1.62-1.28-1.32-1.81.5-3.67.51-5.52.67-.45.04-1.02.01-1.03.71,0,.54.38.71.82.79,1.06.19,1.25.83.89,1.75-.29.74-.55,1.48-.85,2.22-.92,2.25-2.15,4.37-2.81,6.72-.48,1.7-.41,3.3,1.1,4.47,1.48,1.14,3.09.87,4.66.13,1.15-.55,2.08-1.41,3.22-2.41,0,.8-.02,1.33,0,1.86.05.96.61,1.38,1.5,1.08,1.83-.6,3.7-.92,5.6-1.1.38-.04.89-.05.95-.65.05-.53-.24-.78-.7-.9Z"/><path class="cls-2" d="m253.08,126.8c-1.06-.23-1.15-.97-.94-1.83.15-.61.37-1.21.58-1.8,1.03-2.82,2.38-5.53,3.13-8.45.73-2.82.21-3.4-2.52-2.82-.93.2-1.92-.02-2.78.47-.3.17-.48-.06-.67-.24-.96-.89-2.07-.78-3.13-.35-5.71,2.27-9.45,6.28-10.6,12.41-.38,2.04.22,3.81,2.09,4.91,1.89,1.11,3.68.57,5.33-.6.72-.51,1.35-1.14,2.23-1.88,0,.57,0,.83,0,1.1.01,1.95.28,2.16,2.15,1.6,1.58-.47,3.16-.87,4.82-.93.5-.02.99-.12,1.06-.73.05-.51-.3-.75-.76-.85Zm-7.23-3.11c-.35.46-.74.91-1.18,1.29-.63.53-1.28,1.4-2.17.97-.97-.47-.54-1.54-.36-2.3.79-3.44,2.22-6.61,4.55-9.29.34-.39,1.33-2.26,1.69.16.11.73.88.59,1.64.45-.83,3.36-2.24,6.16-4.17,8.72Z"/><path class="cls-2" d="m291.63,123.2c1.06-2.87,2.43-5.63,3.18-8.6.68-2.7.14-3.27-2.52-2.71-.93.2-1.92,0-2.79.46-.3.16-.48-.01-.68-.2-.94-.9-2.06-.8-3.12-.38-5.72,2.26-9.46,6.26-10.63,12.39-.39,2.04.2,3.81,2.06,4.92,1.88,1.13,3.68.6,5.34-.57.72-.51,1.36-1.14,2.25-1.91,0,.55,0,.81,0,1.07,0,1.97.28,2.19,2.12,1.64,1.58-.47,3.16-.87,4.82-.94.49-.02.99-.1,1.08-.7.07-.51-.27-.78-.72-.87-1.17-.25-1.17-1.07-.94-1.96.14-.56.35-1.11.55-1.65Zm-7.54,1.26c-.31.35-.66.69-1.04.97-.5.37-1.02.89-1.7.51-.71-.39-.49-1.14-.39-1.73.66-3.66,2.19-6.94,4.57-9.78.4-.48,1.35-2.22,1.78.15.13.73.95.45,1.62.47-1,3.63-2.49,6.74-4.85,9.4Z"/><path class="cls-2" d="m148.15,105.08c-1.19.29-2.39.5-4.04.45-.22,0-.85-.02-1.49,0-.46.02-.81.28-.93.74-.13.51.17.86.61.96,1.59.39,1.23,1.44.88,2.48-1.96,5.8-4.59,11.37-5.93,17.38-.33,1.47-1.42,2.46-2.97,2.79-.7.14-1.49.21-1.91-.43-.49-.75.34-1.11.76-1.51.73-.7.97-1.53.63-2.45-.32-.88-1.07-1.3-1.97-1.4-1.6-.19-3.13,1.15-3.37,2.92-.34,2.57,1.39,4.64,4.23,4.9,4.78.45,8.31-1.95,11.47-5.15.79-.8,1.5-1.61.88-2.92-.3-.63.07-1.34.31-1.99,1.24-3.37,2.5-6.73,3.67-10.13.56-1.64,1.18-3.3,1.19-5.07,0-1.62-.45-1.96-2.02-1.58Z"/><path class="cls-2" d="m209.07,112.17c-2.58-1.24-6.76-.6-8.98,1.37-2.61,2.31-2.47,5.63.34,7.69.98.72,2.04,1.34,2.99,2.1,1.16.93,1.36,2.34.55,3.36-.9,1.15-2.15,1.3-3.46,1.03-1.27-.26-1.62-1.21-1.56-2.4.05-1.07-.45-1.76-1.57-1.74-1.08.02-1.6.72-1.68,1.74-.12,1.42.59,2.44,1.7,3.2,1.31.9,2.8,1.23,4.38,1.14.42,0,.85.03,1.27,0,3.21-.29,5.92-2.37,6.64-5.08.74-2.77-.19-4.56-3.49-6.73-.71-.47-1.43-.92-2.07-1.46-.6-.51-.66-1.22-.16-1.84.77-.95,1.79-1.29,2.98-.96.96.27.56.93.42,1.54-.2.88.1,1.56.97,1.92.86.35,1.56.08,2.13-.59,1.15-1.36.48-3.37-1.41-4.28Z"/><path class="cls-2" d="m266.1,112.21c.63-1.75,1.1-3.54,1.29-5.38.09-.86.17-2.12-1.16-1.93-1.95.28-3.88.56-5.85.61-.39.01-.74.14-.85.57-.14.54.24.83.65.92,1.46.31,1.31,1.23,1.01,2.31-.74,2.65-1.86,5.17-2.78,7.75-1.2,3.39-2.46,6.76-2.77,9.77-.14,2.8.28,3.12,2.42,2.5.81-.24,1.63-.47,2.47-.59,1.08-.16,1.6-.63,1.47-1.8-.13-1.11.06-2.21.29-3.31.84-3.95,2.45-7.64,3.81-11.41Z"/><path class="cls-2" d="m275.51,112.75c-.05-.63-.28-1.32-.99-1.15-1.98.47-3.98.56-5.99.65-.45.02-.87.23-.89.73-.01.41.31.67.71.73,1.58.23,1.32,1.29.95,2.26-.71,1.82-1.55,3.58-2.3,5.39-.83,2-1.7,3.99-1.84,6.19-.12,2.06.25,2.34,2.24,1.78.86-.24,1.74-.47,2.62-.65.9-.18,1.38-.58,1.37-1.59-.02-1.71.47-3.33,1.13-4.9.83-2,1.6-4.02,2.39-6.03.43-1.09.67-2.22.59-3.4Z"/><path class="cls-2" d="m270.73,109.61c1.21.97,2.5.57,3.72-.01,1.21-.58,2.33-1.3,2.37-2.93-.03-1.22-.66-2.01-1.93-2.25-1.57-.3-3.85.72-4.66,2.1-.68,1.16-.56,2.25.5,3.1Z"/><path class="cls-2" d="m31.78,128.04c0,4.38,3.59,7.97,7.97,7.97h6.96v-17.72l-14.93-14.29v24.04Z"/><path class="cls-2" d="m50.61,136.01h6.96c4.38,0,7.97-3.59,7.97-7.97v-24.04l-14.93,14.29v17.72Z"/><path class="cls-2" d="m63.93,96.26h-30.54c-4.67,0-8.47,3.8-8.47,8.47v30.54c0,4.67,3.8,8.47,8.47,8.47h30.54c4.67,0,8.47-3.8,8.47-8.47v-30.54c0-4.67-3.8-8.47-8.47-8.47Zm7.47,39.01c0,4.12-3.35,7.47-7.47,7.47h-30.54c-4.12,0-7.47-3.35-7.47-7.47v-30.54c0-4.12,3.35-7.47,7.47-7.47h30.54c4.12,0,7.47,3.35,7.47,7.47v30.54Z"/></svg>