<?xml version="1.0" encoding="UTF-8"?><svg id="Layer_1" xmlns="http://www.w3.org/2000/svg" viewBox="0 0 320 240"><defs><style>.cls-1,.cls-2{stroke-width:0px;}.cls-2{fill:#d0a12c;}</style></defs><g id="Adcock_Private_Equity_Pty_Ltd"><path class="cls-2" d="m202.35,94.75c-1.02-.56-9.78-4.73-9.78-4.73,1.75-.62,3.55-1.08,5.37-1.38,2.41-.31,2.24-.6,2.24-.6-.36-1.32-2.84-1.72-2.84-1.72-.3-.76-1.75-.84-1.75-.84-.41-.59-1.1-.93-1.81-.89-.76-.93-3.04-.68-3.04-.68-.9-.51-2.67-.22-2.67-.22.27-.1.41-.4.31-.67-.17-.56-1.66-.97-1.66-.97-.02-.61-.5-1.1-1.11-1.12-.36-1.81-2.62-1.85-2.62-1.85.35-.38.33-.97-.05-1.32-.25-.23-.61-.31-.94-.2-.61.28-1.26.44-1.93.46-.3-.76-2.12-1.28-4.08-1.78s-5.31-2.68-5.31-2.68c1.36-.76,1.43-1.57,1.43-1.57,0,0-4.32.65-7.92-1.02-2.22-1.01-4.67-1.36-7.08-1.01l.5-.55c-2.73-.3-5.69,2.28-5.85.27-.17-2.01,1.33-1.99,1.33-1.99,1.13.17,2.29-.06,3.27-.66,0,0,.31.76.46,1.09.09.21.13.43.13.65,0,0,.65-.24,1.23-3.18.55-2.79-.65-3.58-1.59-4.17-.39-.17-.74-.43-1.02-.76-2.57-4.37-6.92-4.14-9.22-3.66-3.7.76-7.26,4.62-9.48,7.82-2.17,3.2-3.83,6.72-4.9,10.43-.36.7-.62,1.46-.76,2.24-.06.45-.15.89-.27,1.32-7,5.58-1.63,10.22-1.63,10.22,3.04,4.66,5.44,5.18,6.29,5.64s1.84,1.47,3.59,1.91c1.56.39,2.79.59,2.79.59,0,0,.76,1.33,1.4,2.63.86,1.51,1.54,3.12,2.02,4.79.44,1.81,2.5,4.42,2.58,4.55.19,1.56.28,3.13.27,4.7,0,1.65-.14,1.59-1.23,2.16-1.75.93-5.25,1.12-5.91,2.33-.92,1.7.15,2.19.15,2.19.08-.25.35-.38.6-.3,0,0,.01,0,.02,0-.18.51.09,1.07.61,1.25.02,0,.03.01.05.01.08-.76,1.17-1.33,1.17-1.33-.18.22-.3.48-.33.76-.18.47.05.99.51,1.18.46-.19.84-.52,1.09-.96.45-.52,3.41-1.75,4.96-2.11,1.55-.36,1.89.16,3.23-.28.8-.27,1.67-.27,2.47,0,.69.08.82-.07,0-1.34-.82-1.27-3.24-.58-3.8-1.45-.55-.87,0-6.31,0-6.31.3-.05,1.1-.08,1.25-.39.15-.31-.49-.55-.38-1.17.08-.37.39-.64.76-.69-.82-1.06.17-2.57.17-2.57.83-.84,1.45-1.85,1.83-2.97.4-.27.92-.27,1.32,0,.84.32,1.72.53,2.62.61.76,4.65,2.72,7.59,3.41,8.27.45.46.79,1.03.97,1.65,1.15,3.7.95,6.07.64,6.72-.31.65-2.03.76-4.55,1.47-2.52.71-2.8,2.28-2.8,2.85.05.39.31.71.68.84.36-.8,1.17-1.3,2.04-1.27-2.06,1.97-.18,2.75-.18,2.75.24-.57.74-.99,1.34-1.14-.56,1.17.1,1.83.44,1.83s.31-.36.76-.84c.45-.48,1.7-.56,3.11-1.29,1.48-.82,3.15-1.26,4.84-1.27.93-.09,1.82.38,2.28,1.18.21.11.65.18.65-.76.07-.82-.4-1.59-1.17-1.9-.84-.32-1.7-.6-2.57-.83-.36-.21-.56-.66-.83-2.34-.27-1.68.15-6.21.15-6.21.37.05.72.18,1.03.39-.43-2.08,1.07-5.21,1.07-5.21.24.13.49.22.76.28-.17-.45-.18-3.41.08-3.76.22-.39.39-.8.51-1.23,2.89-.55,2.2-2.93,2.2-2.93,1.2.15,2.41-.12,3.44-.76,2.28.08,3.61.18,3.61.18l3.24,1.71c3.38,1.08,3.26-.76,3.26-.76,3.1,1.2,3.54-.55,3.54-.55,2.59.41,3.29-1.4,3.29-1.4,1.37.46,2.7,1.01,3.99,1.65,1.87.1,1.69-.92,1.75-.92,2.21,0,2.1-1.08,2.1-1.08.56.13,1.14.06,1.65-.2,1.51-1.35-.65-2.25-1.76-2.85Zm-3.32-7.1c.19.06-5.79,1.52-12.69,3.42-.12,0,6.83-3.09,8.9-3.4,1.26-.22,2.54-.22,3.8-.02Zm-2.09-.84c-.25-.1-1.52,0-3.8.88-2.28.88-9.79,3.67-9.74,3.63s.76-.92.76-.92c0,0,7.64-3.63,10.27-3.97s2.5.4,2.5.4v-.02Zm-20.93,2.18c2.95.09,5.89-.43,8.63-1.52l.44-.1c-.32.72-.87,1.3-1.57,1.65-2.66,1.52-5.6,2.47-8.65,2.79l-.5.24c.86-.81,1.44-1.88,1.65-3.04v-.02Zm-6.51,4.3c.65-.81,1.14-1.74,1.45-2.73,1.29-.24,2.55-.63,3.75-1.18.26-.13.52-.29.76-.46.11.04.23.06.35.05-1.61,2.62-4.73,3.78-6.31,4.33v-.02Zm25.4-7.71s-8.1,2.71-10.21,3.92c.16-.36.35-.7.56-1.02,0,0,6.62-4.08,9.66-2.88v-.02Zm-6.07-.68c2.42-.7,3.61-.29,3.61-.29-1.72.76-6.56,2.83-6.54,2.76.28-.68.49-1.75,2.91-2.45l.02-.02Zm-1-1.6c-1.3.42-7.42,2.36-11.04,2.74-.11,0,4.07.3,10.19-1.74.16.17.58.86-2.02,2.04,0,0-2.69,1.52-8.75,1.98.5-.41.69-1.09.46-1.7-.81,2.48-6.07,3.45-7.48,3.69.7-.54,1.21-1.3,1.44-2.16.65-.08,6.21-1.12,6.63-3.38.05-.22.06-.45.05-.68,3.03.04,6.03-.56,8.81-1.76l.05-.05c.25.05,2.05.34,1.65,1.04v-.02Zm-3.98-3.74c.68.31,1.52,1.02.76,1.28,0,0,1.62.22,1.77,1.21l-.15.17c0-.11-.13-.23-1.02-.05-1.35.27-5.43,1.64-7.9,1.7-.12-.52-.59-.88-1.12-.87.17-.1.34-.23.49-.36,1.9-.1,3.79-.39,5.63-.87,3.19-.84,2.2-1.04.36-.61-1.57.37-4.86,1.01-5.77,1.18.26-.36.22-.86-.08-1.18,2.06-.18,4.06-.8,5.86-1.81.4.01.8.09,1.17.24v-.02Zm-13.04,3.84c-1.02,3.65-4.62,4.06-5.18,4.1.04-.2.06-.4.06-.61,0,0-.65,2.28-3.7,2.33-1.36.06-2.72-.04-4.06-.3.41-.27.69-.7.76-1.19-.96,1.15-3.59.76-4.47.63.15-.12.27-.26.37-.42.31-.39.37-.92.15-1.37.26,0,.52-.06.76-.17.81.48,2.88,1.52,4.32.58.87.27,2.98.76,4.55-.17.69-.39,1.25-.97,1.62-1.67.68-.25,2.91-.81,4.07-1.69.43-.33.74-.8.88-1.32,1.67-.37,3.29-.93,4.83-1.67,2.93,1.83-4.06,3.6-4.99,3.8.04-.28.04-.56.02-.84l.02-.02Zm11.21-5.43c.99-.34.84.62.09,1.02,0,0-1.11.76-5.56,1.91-.23-.18-.49-.33-.76-.45.28-.15.52-.38.68-.65.04-.08.07-.16.09-.25,1.76-.69,3.58-1.21,5.44-1.56l.02-.03Zm-7.96-1.87c.31.25.8.65.55.76-1.06.16-2.14.18-3.21.08,0,0,2.6.84,3.58,0,.21-.15.25-.45.1-.66-.03-.04-.06-.07-.1-.1.73.18,1.45.41,2.16.69-.33.16-.67.29-1.02.38-.28.14-.57.25-.87.34h0c-.17-.06-.34-.11-.52-.13,1.94,1.34-2.82,1.52-3.61,1.52.01-.14.01-.28,0-.43-.56,2.28-3.75,3.04-4.62,3.26-.02-.4-.11-.8-.27-1.17.14-.26.21-.54.2-.83,4.42-.13,4.62-3.04,4.62-3.04-1.31,2.6-4.08,2.22-4.74,2.12.21-.3.29-.68.24-1.04h0c.2-.2.31-.48.29-.76.84.33,1.78.31,2.61-.05.73-.23,1.28-.84,1.43-1.59h2.17c.35.2.68.43.99.68l.02-.03Zm-1.57-.99c-.55-.04-1.35-.1-1.52-.1,0-.1,0-.2,0-.3-.56,2.13-4.51,2.22-4.51,2.22.13.09.28.17.43.23-.98,1.52-3.64,1.12-4.11,1.01-.04-.24-.13-.48-.25-.69-.1,1.99-2.69,1.79-3.48,1.71.36-.53.35-1.24-.04-1.75.87-.01,1.71-.31,2.4-.85.36.36.83.59,1.34.68,1.18.3,4.15-.63,4.35-1.86h.04c1.23,0,2.41-.51,3.25-1.41.58.33,1.37.76,2.09,1.15l.02-.03Zm-5.76-2.05v-.04c.82.52,1.77.8,2.74.8,0,0,.29.23-.11.4-.71.39-1.48.65-2.28.76-.17-.36-.48-.64-.86-.76,0,0,.94-.55.49-1.14l.02-.02Zm4.46-.6c-.2.36-.5.64-.87.82-1.94.54-4.46-1.38-4.63-1.41-.17-.03,3.12.87,5.48.61l.02-.02Zm-18.89-1.27c1.29-.32,2.56-.73,3.8-1.22-1.47,1.81-1.91,1.2-1.91,1.2-1.67,1.06-1.97.06-1.9.05l.02-.02Zm-19.68,3.36c.16-.43.32-.9.47-1.33.55-1.62,4.72-13.16,13.03-15.8,3.24-.99,6.74.12,8.82,2.79h-.62c.63.71,1.41,1.27,2.28,1.64,1.44.65,1.6,3.18.55,5.79-.17-.51-.4-1.01-.68-1.47-.53.02-1.05-.1-1.52-.35-1.87-1-4.08-1.15-6.07-.43,0,0,2.03.23,3.38.27s2.28.83,3.17,1.02c-.99.48-2.13.52-3.15.11-.56-.06-1.13-.08-1.69-.05-.65.05-3.48-.76-3.3-1.85,0,0-.07-.2,1.65-.88.33-.17.64-.39.91-.64.26-.26.6-.43.96-.47,0,.46.09.91.26,1.34,0,0,.05-.16.24-.93.35-1.15,1.18-2.09,2.28-2.58,0,0-.44-.18-1.52.49-.48.09-.98-.03-1.37-.33-.82-.56-1.65-1.89-3.95-1.41,0,0-2.03.68-2.69,1.61.69-.37,1.45-.61,2.23-.7,0,0-.76,2.35,1.35,2.46.72-.06,1.39-.41,1.84-.98.19-.18.49-.18.68,0,.42.27.55.46-.24.96-.47.41-1.01.73-1.59.97-.63.14-1.17.53-1.49,1.09-.24-.02-.46-.15-.58-.35.08,1.09.7,2.08,1.65,2.63,2.54,1.41,2.99,3.04,1.34,5.51-.26.5-.61.95-1.03,1.32-.3.05-.53-.76-.71-1.8-.18-1.04-.76-1.23-.3-2.76.46-1.53-.63.07-.88.91-.21.66-.13,1.38.24,1.97.35,1.18.31,2.43-.1,3.59,0,0-2.79-3.8-1.09-6.74-.39.19-.71.5-.91.88,0,0-.52-3.15,1.28-4.84-.72.2-1.31.71-1.62,1.4,0,0-1.05-.21.4-2.99-.97.69-1.5,1.85-1.38,3.04.05.29.21.54.46.7.43.31-.39,2.19.19,3.68s.42,2.4.86,2.98c.44.58.65,2.19,1.24,4.17.77,2.42,2.32,4.52,4.41,5.97.59.36.99.97,1.06,1.66,0,0-2.24.99-3.73-1.86-.5-.71-.92-1.47-1.24-2.28.05,1.23.41,2.43,1.05,3.49,0,0-2.89-1.95-3.42-5.06-.16-.91-.21-1.84-.15-2.76.13-1.18-1.24-2.42-.51-5.06,0,0-.96.16-.41,3.5.23.56.27,1.17.1,1.75-.17.62-.2,1.27-.08,1.91.04.06.07.13.08.2-.04-.06-.07-.13-.08-.2-.56-1.11-.96-2.3-1.17-3.53-.16-1.65-.76-2.64.76-5.64-.56.47-1.02,1.06-1.34,1.72,0,0-.06-3.34.93-5,0,0-1.81,1.65-1.59,5.31-.06.59-.03,1.19.09,1.78.18.38.28.79.28,1.21-.14.01-.27-.02-.39-.1.04,1.27.39,2.52,1.02,3.63,1.02,1.69,2.1,3.36,3.04,4.79.93,1.43,1.23,1.35,1.23,1.35.09.71.35,1.39.76,1.98-1.99-.15-3.76-1.33-4.65-3.12-.78-1.5-1.26-3.14-1.4-4.83-.39,1.1-.46,2.29-.19,3.43,0,0-2.12-1.96-2.03-4.51,0,0,.19-1.27.2-2.05.37.33.8.6,1.25.8,0,0-1.27-1.98-1.18-3.64-.33.59-.47,1.27-.38,1.94.07,1.34,0,.69-.42,1.94-.42,1.25-.31,1.74.16,3.35-.6-.9-1.02-1.92-1.23-2.98-.16-1.04-.16-2.09,0-3.13.2-.85.5-1.67.91-2.44,0-.17-1.17.65-1.32,1.45,0,0-1.16-2.2,1.82-5.86-.48.22-.9.55-1.21.97-.12-.94.15-1.88.76-2.6,0,0-1.24.55-1.16,3.04-.83,1.36-1.1,3-.76,4.55l.14.68s-.19,3.58.85,5.53c1.04,1.96,1.34,1.59,1.69,2.28.35.68.52,1.52,1.52,1.91.99.39.61-.31,1.28.62.68.93,1.61,2.93,4.84,3.42,0,0,2.03,2.36,3.8,3.04,0,0-3.12,1.61-5.12-2.28-.1.53-.02,1.09.24,1.56-2.31-1.05-4.04-3.05-4.75-5.48-.11.98.11,1.97.62,2.81-3.24-1.37-5.24-4.66-4.95-8.17,0,0-1.67,1.21,0,4.76-1.74-3.06-2.09-6.71-.97-10.05-.85.84-1.36,1.95-1.44,3.14-.12,1.29-.07,2.58.14,3.86-.22.49-.39,1-.52,1.52,0,0-1-3.1-.45-4.55l.61-.95c-.3.02-.58.16-.76.4-.25-.9-.22-1.85.09-2.73v-.03Zm16.24,3.89c.82,1.14,1.78,2.17,2.84,3.09,1.01.95-.13.76-.13.76-1.39-.86-2.37-2.25-2.71-3.85Zm2.28,4.96c-1.26-.39-2.38-1.15-3.2-2.19-1.34-1.45-1.52-4.94-1.52-4.94,0,0,1.26,1.87,2.35,3.66,1.09,1.78,2.4,3.47,2.4,3.47h-.04Zm.65-3.24c-.71-1.31-2.92-3.32-2.86-3.35.88.37,1.68.9,2.36,1.58.36.52.55,1.14.54,1.77h-.04Zm-3.04-18.4c-.61.52-1.52.68-1.93.11-.41-.56.1-1.57.1-1.57,1.69-.57,2.5.94,1.9,1.46h-.07Zm-2.85,35.91c2.57,2.32,3.04,3.36,3.42,4.13.33.78.58,1.58.76,2.41-.09-.14-.96-.9-.96-.9-2.37-1.4-3.21-5.69-3.15-5.64h-.07Zm-3.54-5.06c.47.13.94.23,1.43.3.83.11,1.24.96,3.13,1.52.45.55,1,.99,1.63,1.31,0,0-4.33-1.38-6.12-3.13h-.07Zm5.56,1.45h1.38c.76.85,3.51,2.23,3.51,2.23-1.83-.11-3.56-.91-4.83-2.23h-.07Zm.76-5.78c-1.13-.62-2.28-2.88-2.28-2.88.41,0,.81.12,1.15.35.6.38,2.79,1.68,3.14,2.21.34.53-.82.95-1.95.33h-.05Zm-20.57-1.71c-.76-1.7-.5-3.68.68-5.12.6-.77,1.26-1.48,1.99-2.13,0,0-.61,4.92,3.8,9.78,0,0-2.69.27-3.37-4.81-.14.76-.11,1.54.09,2.28-1.53-1.25-1.95-3.42-.99-5.15-.47.29-.78.77-.85,1.31,0,0-.3.24-.38-.3-.13.34,0,.72.3.91,0,0-.47,1.81,2.08,3.72.06.56.3,1.09.68,1.52,0,0-2.87,0-3.1-4.04-.14.15-.25.32-.33.5,0,0-.47.11-.49-.65-.14.47.04.98.44,1.26.16,1.11.75,2.12,1.64,2.81.66,1.16,1.47,2.23,2.4,3.2,0,0-3.22-2.1-4.51-5.09h-.05Zm3.18,2.48c.35.04.71.04,1.06,0l.99.76c.33.26.16.96,1.18,1.52-1.27-.41-2.39-1.2-3.19-2.28h-.05Zm2.73.89c-.27-.35.61,0,.61,0,.66.73,1.37,1.41,2.13,2.04-1.08-.39-2.02-1.1-2.69-2.04h-.05Zm-2.63-10.7c.07-.94.23-1.87.46-2.78.08.37.25.71.51.99-.05.08-.1.16-.14.25-.36.83-.49,3.48.92,6.73,1.15,2.37,2.63,4.56,4.4,6.51,0,0-6.73-4.28-6.15-11.71Zm6.83,7.88c.05.8.28,1.58.68,2.28-5.23-1.61-4.99-7.25-4.99-7.25.38,1.13,2.57,2.8,2.57,2.8,1.06,2.02,4.31,2.73,4.31,2.73.86,1.47,3.56,2.6,4.62,3.15,1.06.55,2.95,2.81,2.95,2.81-.85-.01-1.69-.2-2.47-.55-1.57-.61-3.59-2.77-3.59-2.77.08.51.25,1.01.48,1.47-3.03-1.05-4.49-4.67-4.49-4.67h-.06Zm10.63,18.08c-1.06-.27-1.96-.96-2.5-1.91.2,1.26,1.13,2.28,2.36,2.6.38.88.96,1.66,1.69,2.28-1.04-.27-1.92-.95-2.46-1.88.1,1.11.68,2.12,1.59,2.76.15.35.26.72.31,1.09,0,0-.13,4.26-.13,4.3s-.43.37-.11.71c.3.2.43.57.33.91-.12.31-.45.39-.61.11-.17-.28-.36-.4-.66-.06-.93,1.02-2.09,1.8-3.39,2.28-1.94.76-2.28.23-2.72.87,0,0-.14-.48.88-.87,1.02-.39,3.39-.91,4.43-2.28-.77.5-1.6.89-2.47,1.17-1.08.27-3.33.45-3.84,1.31.02-.48.36-.88.83-.98.87-.31,4.55-.87,6.07-2.35,0,0,.34-1.02.04-4.55,0-.77-.13-1.54-.36-2.28-1.32-1.53-2.25-3.35-2.72-5.31-.67-2.52-1.44-2.96-3.43-7.07,0,0-.19-.96.52-.36.71.6,1.05,1.57,2.15,2.55,1.1.98,1.02,1.74,2.12,3.62,1.09,1.88,2.17,2.88,3.7,3.32,0,0,.05.88,1.38,1.93-1.25-.1-2.37-.81-2.99-1.9Zm1.93-2.84c.28.14.58.25.9.32,0,0,.18-.55-.65-.76-.53-.16-.98-.5-1.28-.96.32.25.7.42,1.1.49-.64-.5-1.03-1.24-1.1-2.04.65,1.04,1.59,1.86,2.71,2.36-.02.74.15,1.48.5,2.13-.91-.17-1.71-.72-2.17-1.53h0Zm1.34-9.79c.34-.13.51-.51.38-.84-.01-.03-.03-.06-.04-.09-.18.43-.66.67-1.12.55,0,0-.05.47.6.44,0,.35.2,1.19,2.2,1.61.24.05.48.08.72.08.82.68,1.79,1.14,2.84,1.34-1.58-.1-3.14-.42-4.63-.96,0,0-4.01-.46-1.87-6.29,0,0,2.85-5.38,2.38-7.8-.23.35-.35.76-.36,1.18-.68-.22-1.08-.92-.91-1.61.13-.57.09-1.16-.11-1.71.29.29.5.65.64,1.03,0,0,0-1.62-1.91-3.64.79.23,1.47.75,1.91,1.45-.1-.51-.23-1.02-.4-1.52-.23-.58-.33-1.57.05-1.52-.29-.17-.55-.4-.76-.68-.3-.39-.39-1.15-.19-1.15.29.04.58.12.84.26.52.08,1.05-.08,1.44-.43.24-.17,1.9,1.47-.67,2.16,0,0-.24.6.49.3,0,0,1.24-.52,1.52-1.27,0,0,1.75.21,2.41-1.1.12-.27,0-.59-.27-.71-.05-.02-.11-.04-.17-.05.18.52-.08,1.09-.6,1.27-.05.02-.1.03-.16.04-1.16.36-1.08.08-1.29-.05-.21-.13-.45-.67-.58-.76s.33-.46.82-.56.52-.65,1.23-.88c1.63-.52,3.37-.59,5.04-.2,1.34.42,2.36.82,3.04,1.03-.81-.1-1.64-.1-2.45,0,1.04.13,2.06.38,3.04.76,1.12.52,1.18,1.06.7,1.31-.48.24-3.04-.32-4.64-.25,0-.09-.02-.18-.05-.26-.15-.24-.4-.4-.68-.44.45-.03.83-.33.96-.76.13-.76-1.37-1.02-2.54-.76,0,0,2.41,0,2.2.76-.13.48-.55.57-1.21.69-.78-.04-1.57,0-2.34.14,4.67-.06,2.91.8,2.91.8-.85.48-1.82.69-2.79.6h0c-.06-.76-1.26-.39-1.26-.39,1.45.21.43,1.15.43,1.15.31.1.63-.05.76-.35,1.52.27,3.04-.14,3.45-.76.97.02,1.93.14,2.87.36,1.09.32,2.46.29,2.38,1.27-.08.98-3.13,1.39-4.81,1.14.25-.31.41-.67.48-1.06.24-.99-1.09-1.05-1.09-1.05.91.12.99,1.05.22,1.77-.77.72-2.05.62-2.44.61v-.1c.22-1.02-1.06-1.52-1.06-1.52.37.46.55,1.05.49,1.64-.19.65-1.57.91-1.98.99.02-.43-.18-.85-.53-1.1,0,0,.43.46-.17,1.4-.4.56-1.08.85-1.76.76.86.42,1.9.08,2.35-.76.79.08,1.57-.14,2.19-.63l.76-.06c.19,1.84-1.94,2.22-2.44,2.28.03-.3.03-.6,0-.9-.02,1.08-.86,1.96-1.94,2.03,1.31.64,1.78,0,1.93-.76.81.16,1.65-.06,2.28-.59.76.61,1.81.73,2.69.3.59-.16,1.04-.63,1.18-1.23.88.17,1.78.16,2.66-.05.2-.04.39-.1.57-.18,0,.3-.14,1.09-1.59,1.41.7.02,1.37-.22,1.91-.67.02.05.04.11.05.17-.08,2.05-2.73,2.07-3.54,2.04.11-.34.15-.7.12-1.06-.93,1.93-3.43,1.6-4.03,1.57.44-.44.55-1.11.28-1.66-.37,2.03-2.96,1.52-2.96,1.52-.12.56-.54,1-1.09,1.15-.04-.17-.1-.33-.2-.47,0,.5-.3.95-.76,1.15.63,0,.87-.19.93-.42.58.03,1.13-.28,1.4-.8.58.1,1.18.08,1.75-.08l.09-.04c.93.4,1.95.51,2.95.32.37-.02.73-.17,1.02-.4.53,0,2.49-.08,3.48-.76.07-.05.14-.1.2-.16.33,3.04-3.57,2.88-4.77,2.76.08-.24.11-.5.08-.76-.97,1.3-2.7,1.78-4.2,1.15.28-.29.48-.65.58-1.04-.97.9-2.29,1.33-3.61,1.18.77.47,1.73.55,2.57.2.13.27.61.66,2.37.58.6-.07,1.19-.26,1.72-.56,1.43.28,2.91.11,4.24-.46.88-.26,1.5-1.03,1.58-1.94.88,0,1.76-.2,2.54-.6.96-.33,1.69-1.1,1.98-2.07.56,0,4.84-.16,4.91-.98.03-.19-.03-.39-.16-.54.68-.43,1.44-.72,2.23-.83.54.15,1.04.41,1.47.76l.06.1c-.63.27-2.28.98-2.98,1.35-.15-.22-.4-.34-.66-.33.06,0,.61.47-.16,1.06-.77.58-3.97,1.39-4.68,1.52.04-.33.04-.67,0-1-.46,3.2-4.11,3.73-4.74,3.8.09-.36.1-.61.11-.61s-1.34,2.28-2.98,2.71c-1.04.23-2.1.29-3.16.17.3-.37.39-.87.24-1.32-.3.76-1.03,1.27-1.85,1.28-1.02.09-2.05,0-3.04-.26.09-.05.18-.11.27-.18.5-.21.76-.78.59-1.3-1.2,1.59-3.24.76-3.24.76.25.38.61.68,1.04.84.2.45.05.98-.37,1.24-.66.4-1.45.55-2.22.43.61.4,1.35.56,2.07.44.95.51,2.01.75,3.08.7.19-.01.38-.05.57-.11,1.48.95,3.29,1.26,4.99.83,1.15-.11,2.19-.71,2.87-1.64.35,0,1.31-.11,3.28-1.12.98-.47,1.73-1.31,2.07-2.35,1.9-.41,3.74-1.05,5.49-1.9.43.09.82.41.61,1.36-.38,1.81-5.31,2.7-5.98,2.87.02-.35,0-.7-.06-1.04-.28,3.8-4.5,4.71-5.54,4.9.29-.52.52-1.07.69-1.65,0,0-2.35,2.81-5.18,2.62-1.4-.07-2.78-.33-4.11-.76.53-.27.94-.73,1.13-1.29,0,0-3.13,2.05-5.09.39.07-.16.12-.32.14-.49-.34.33-.81.48-1.28.41.18.29.51.45.85.39.77.79,1.87,1.16,2.96.99.3-.04.59-.11.87-.21.67.55,3.14,2.28,5.53,1.75,1.15-.17,2.21-.7,3.04-1.52,1.03-.02,2.04-.25,2.98-.68.39-.06,1.16-.15,2.09-.3-.15.76-1.18,4.11-7.02,2.5l1.38.88s-2.91,1.38-5.56.65c-1.4-.39-2.15-.61-2.55-.76.52-.28.87-.78.96-1.37-1.65,1.68-4.14.25-4.8-.14h0Zm10.4,7.09c.07.42,1.05,1.19,2.35,1.75.72.24,1.23.87,1.32,1.62-.62-.83-2.28-1.09-2.28-1.09,0,0-.28.51.93,1.61,1.21,1.1,1.86,3.65,1.86,3.65-1.21-.76-1.97-2.4-2.82-3.63-.84-1.23-1.52-2.19-1.52-2.19.2,0,.39.02.58.07-.38-.51-.54-1.16-.44-1.79Zm.07,24.51c-.47.16-.9.45-1.22.83.07-.67.55-1.22,1.2-1.39,1.1-.41,2.16-.95,3.14-1.6-.6,1.2-1.77,2.02-3.1,2.16h0Zm3.39-13.93s-2.98-1.21-4.17-6.69c0,0,0,3.29,1.67,5.38s1.96,1.72,2.62,4.65c.41,1.96.41,3.99,0,5.96-.08,0,.76.94.24,1.4s-1.31.2-1.52.27c-.21.07-5.18,2.06-5.43,3.29,0-.73.41-1.41,1.07-1.72,1.21-.8,3.97-2.11,3.97-2.11,0,0-.27-.36-3.51.53-3.12.87-3.44,1.81-3.44,1.91.11-.98.8-1.8,1.75-2.08,1.77-.65,4.94-.99,5.65-1.69.71-.7,0-5.81-.58-7.39l.65.12s-3.39-3.1-4.31-6.66c-.92-3.57-1.03-5.44-1.18-5.88s-.54-1.78.6-.93c1.14.85,1.24-.08,1.62.94s-1.02,1.97,1.18,3.8c2.2,1.83,2.5,3.35,2.69,4.05.22-.14.29-.43.15-.66,0,0,0,0,0,0-.04-.07-.05-.09,0,0h0c.2.38,1.4,2.55,2.56,3.32,0,0-2.98-1.21-4.31-3.61.14,1.49.87,2.86,2.03,3.8h0Zm3.04-6.83c-.13-.93-.66-1.76-1.44-2.28,1.93.1,1.42,2.25,1.42,2.25l.02.02Zm.16-2.77c-1.06-.99-.65-1.71-.65-1.71,1.57.58,1.62,3.04,1.62,3.04-.03-.16.07-.36-1-1.35l.03.02Zm1.97.76c.18-1.08.03-2.19-.44-3.17,1.69-.34.41,3.1.41,3.1l.03.08Zm-3.73-4.83c.54-.61,1.72-.76,3.62-1,1.9-.24,3.26-2.04,3.23-1.94-1.17,3.38-6.88,2.88-6.88,2.88l.03.05Zm6.66-.9c.35-.24.63-.58.8-.97,6.63-1.52,9.11-5.47,9.11-5.47-1.12,2.5-2.44,3.36-3.15,3.64l2.32-.69c-1.66,2.22-9.7,3.71-9.11,3.44l.03.05Zm12.73,4.89c0-2.01-5.31-3.45-5.45-3.49-.6-.2.99-.28.99-.28,1.3.37,2.55.91,3.72,1.59,1.85,1.05.74,2.19.74,2.19Zm3.45-1.15c-.17-1.42-6.41-3.61-6.24-3.66.83-.3,2.32.12,4.65,1.46,2.33,1.34,1.62,2.17,1.62,2.17l-.04.03Zm3.18-.91c-.46-1.48-6.51-3.87-6.56-3.95-.39-.6,1.06-.18,4.15,1.18,3.1,1.37,2.44,2.74,2.44,2.74l-.03.02Zm6.16.54c-.08-.57-10.45-5.62-10.45-5.62,0,0,.53-.33,1.34,0,2.37,1.03,7.34,3.86,8.4,4.43,1.46.76.75,1.18.75,1.18h-.04Zm1.96-.99c.17-.57-4.6-2.66-4.8-2.73s-5.88-3.04-5.88-3.04c0-.37,1.42.17,1.42.17,0,0,8.94,4.21,9.62,4.8s-.33.77-.33.77l-.03.02Zm2.36-1.05c-.31-.44-.71-.8-1.18-1.06-.94-.65-9.87-4.66-9.87-4.66-.33-.27.65-.3.65-.3,0,0,9,4.14,9.92,4.77.92.62.55,1.31.52,1.22l-.04.03Zm-55.41-38.95c1.36.04,2.67.52,3.72,1.38-.82-2.14-3.72-1.38-3.72-1.38Zm-8.96,9.11c.9-1.43,2.06-2.69,3.41-3.7-1.39.59-2.61,1.52-3.54,2.7.83-4.39,3.59-5.08,3.59-5.08h-.55c1.08-1.56,3.91-2.79,3.91-2.79-1.88.38-3.56,1.41-4.77,2.9-1.64,1.26-2.53,3.25-2.39,5.31-.2.31-.35.65-.47,1-.87,2.69-.25,4.42.33,5.31,0-.03-1.15-3.14.49-5.66Zm15.94,8.93c.23-.59-.06-1.26-.65-1.5-.02,0-.04-.02-.06-.02.15.34.2.72.16,1.09-.12.96-1.52,1.38-1.52,1.39.84.31,1.78-.1,2.1-.94l-.03-.02Zm-2.5-12.9c.63-.16,1.29-.16,1.92,0-.02-.32-.24-.58-.54-.68-.54-.09-1.09.18-1.35.66l-.03.02Zm-5.1-1.43c.18,0,.35-.1.43-.26h-.09c-.14.02-.28-.07-.31-.22-.02-.14.07-.28.22-.31.03,0,.06,0,.09,0h.1c-.09-.16-.25-.26-.43-.27-.29,0-.51.25-.5.53,0,.29.25.51.53.5l-.04.02Z"/><path class="cls-1" d="m100.02,149.14h3.8l8,18.81h-4.3l-1.71-4.19h-7.9l-1.71,4.19h-4.19l8.01-18.81Zm4.32,10.99l-2.48-6.07-2.48,6.07h4.96Z"/><path class="cls-1" d="m117.37,149.24h7.29c1.37-.02,2.73.22,4.02.71,1.17.44,2.24,1.1,3.15,1.96.88.83,1.57,1.83,2.04,2.95.49,1.16.73,2.41.72,3.67v.05c.01,1.26-.24,2.52-.72,3.68-.47,1.12-1.16,2.13-2.04,2.96-.91.86-1.98,1.53-3.15,1.97-1.28.49-2.64.74-4.02.72h-7.29v-18.67h0Zm7.29,14.97c.78,0,1.55-.13,2.28-.4.67-.25,1.27-.64,1.78-1.15.51-.5.91-1.1,1.18-1.76.29-.72.43-1.5.42-2.28v-.05c0-.78-.13-1.55-.42-2.28-.26-.67-.65-1.27-1.15-1.78-.5-.51-1.11-.9-1.78-1.16-.73-.28-1.5-.42-2.28-.41h-3.22v11.26h3.17v.02Z"/><path class="cls-1" d="m149.63,168.24c-1.3,0-2.59-.25-3.8-.76-2.3-.95-4.12-2.79-5.04-5.09-.49-1.21-.73-2.5-.72-3.8v-.05c0-1.29.24-2.56.72-3.75.47-1.13,1.15-2.16,2-3.04.86-.89,1.9-1.6,3.04-2.08,1.25-.52,2.59-.78,3.95-.76.8,0,1.6.06,2.39.21.67.13,1.33.32,1.96.58.57.24,1.12.55,1.62.91.49.35.96.75,1.39,1.18l-2.61,3.04c-.67-.61-1.42-1.12-2.22-1.52-.79-.38-1.67-.58-2.55-.56-.75,0-1.49.15-2.17.46-.66.29-1.24.72-1.72,1.25-.49.54-.87,1.17-1.12,1.85-.27.73-.41,1.5-.4,2.28v.05c0,.78.13,1.55.4,2.28.25.69.63,1.32,1.11,1.87.99,1.12,2.42,1.75,3.91,1.73.94.03,1.87-.17,2.71-.58.8-.44,1.54-.97,2.2-1.6l2.61,2.64c-.47.5-.98.97-1.52,1.39-1.08.86-2.36,1.45-3.71,1.72-.8.13-1.61.18-2.42.15Z"/><path class="cls-1" d="m172.33,168.24c-1.36.02-2.72-.24-3.98-.76-1.17-.48-2.23-1.18-3.14-2.06-.88-.86-1.58-1.9-2.06-3.04-.5-1.19-.76-2.46-.76-3.75v-.05c0-1.29.25-2.56.76-3.75.99-2.34,2.86-4.19,5.21-5.15,2.56-1.01,5.41-1.01,7.96,0,1.17.48,2.23,1.18,3.14,2.06.88.86,1.58,1.9,2.06,3.04.5,1.19.76,2.46.76,3.75v.05c0,1.29-.25,2.56-.76,3.75-.99,2.34-2.86,4.19-5.21,5.15-1.26.51-2.62.77-3.99.76Zm.05-3.8c.78,0,1.56-.15,2.28-.46.67-.29,1.28-.71,1.78-1.25.49-.54.88-1.17,1.15-1.85.28-.73.42-1.5.42-2.28v-.05c0-.78-.14-1.55-.42-2.28-.53-1.4-1.6-2.53-2.98-3.14-.72-.32-1.49-.47-2.28-.46-.78,0-1.56.15-2.28.46-.67.29-1.27.72-1.76,1.25-.49.54-.88,1.17-1.15,1.85-.28.73-.42,1.5-.41,2.28v.05c0,.78.13,1.55.41,2.28.53,1.4,1.6,2.52,2.96,3.14.72.32,1.51.48,2.3.47h-.02Z"/><path class="cls-1" d="m197.35,168.24c-1.3,0-2.59-.25-3.8-.76-2.3-.95-4.12-2.79-5.04-5.09-.49-1.21-.73-2.5-.72-3.8v-.05c0-1.29.24-2.56.72-3.75.47-1.13,1.15-2.16,2-3.04.86-.89,1.9-1.6,3.04-2.08,1.25-.52,2.59-.78,3.95-.76.8,0,1.6.06,2.39.21.67.13,1.33.32,1.96.58.59.25,1.15.57,1.67.95.49.35.96.75,1.39,1.18l-2.61,3.04c-.67-.61-1.42-1.12-2.22-1.52-.79-.38-1.67-.58-2.55-.56-.75,0-1.49.15-2.17.46-.66.29-1.24.72-1.72,1.25-.49.54-.87,1.17-1.12,1.85-.27.73-.41,1.5-.4,2.28v.05c0,.78.13,1.55.4,2.28.25.69.63,1.32,1.11,1.87.99,1.12,2.42,1.75,3.91,1.73.94.03,1.87-.17,2.71-.58.8-.44,1.54-.97,2.2-1.6l2.61,2.64c-.47.5-.98.97-1.52,1.39-1.08.86-2.36,1.45-3.71,1.72-.82.12-1.64.16-2.47.11Z"/><path class="cls-1" d="m210.97,149.24h4.11v8.16l7.59-8.16h4.96l-7.59,7.92,7.95,10.76h-4.93l-5.79-7.95-2.16,2.28v5.71h-4.13v-18.72Z"/><path class="cls-1" d="m115.47,179.08h-.67v2.08c-.03.2.09.39.28.46.23.06.47.09.71.1v.2h-2.89v-.2c.22-.01.44-.04.65-.1.19-.07.31-.26.28-.46v-4.65c.03-.2-.09-.4-.28-.46-.22-.07-.46-.11-.69-.13v-.22h3.04c1.07,0,1.94.53,1.94,1.47,0,1.26-1.16,1.91-2.37,1.91Zm-.09-3.1h-.58v2.82h.44c.72.09,1.38-.43,1.47-1.16,0-.08.01-.15,0-.23.1-.68-.37-1.32-1.06-1.42-.08-.01-.16-.02-.24-.01h-.04Z"/><path class="cls-1" d="m124.94,182.02c-.76,0-1.07-.51-1.21-1.52-.09-.71-.25-1.59-1.31-1.59h-.71v2.28c-.03.2.09.39.28.46.22.05.44.09.66.1v.2h-2.83v-.2c.22-.01.44-.04.65-.1.19-.07.31-.26.28-.46v-4.65c.03-.2-.09-.39-.28-.46-.21-.06-.43-.11-.65-.13v-.25h3.16c.92,0,1.94.41,1.94,1.4s-1.03,1.4-1.68,1.58v.09c.6.02,1.14.38,1.37.94.14.5.19.94.31,1.38.02.25.24.44.49.43.25,0,.39-.15.39-.8v-.16h.24v.19c.02.85-.29,1.27-1.09,1.27Zm-2.43-6.03h-.76v2.66h.55c.76,0,1.52-.3,1.52-1.33.1-.63-.33-1.23-.97-1.33-.11-.02-.23-.02-.34,0h0Z"/><path class="cls-1" d="m127.8,181.92v-.2c.22,0,.44-.04.66-.09.18-.06.3-.24.28-.43v-4.66c.02-.19-.09-.38-.28-.43-.21-.08-.43-.13-.66-.16v-.24h2.85v.2c-.22.02-.44.06-.66.12-.19.05-.31.24-.28.43v4.67c-.01.19.1.37.28.43.21.07.44.11.66.14v.2h-2.85v.03Z"/><path class="cls-1" d="m138.12,176.12c-.22.16-.39.4-.47.66-.37.86-1.52,3.51-2.22,5.21h-.33c-.84-2.35-1.68-4.63-1.97-5.45-.06-.19-.19-.35-.37-.45-.19-.09-.39-.15-.6-.16v-.23h2.81v.2c-.32,0-.88.12-.88.33,0,.08.02.15.05.23.14.38.76,2.16,1.52,4.18.57-1.35,1.17-2.75,1.46-3.44.12-.25.19-.53.2-.81,0-.3-.62-.46-1.04-.49v-.2h2.44v.2c-.21.03-.41.1-.58.21Z"/><path class="cls-1" d="m142.8,181.92v-.2c.32,0,.92-.13.92-.36.01-.07.01-.14,0-.21l-.56-1.43h-2.23c-.14.33-.26.66-.36.99-.06.16-.09.34-.1.51,0,.33.71.47,1.02.49v.2h-2.49v-.2c.22-.02.44-.08.64-.17.24-.18.42-.42.52-.71.65-1.56,1.4-3.48,2.08-5.21h.34c.93,2.34,1.81,4.64,2.15,5.48.06.19.19.35.37.45.19.09.39.15.6.16v.2h-2.89v.02Zm-.8-5.02l-.99,2.53h2l-1.01-2.53Z"/><path class="cls-1" d="m151.97,177.31c-.14-.55-.49-1.02-.98-1.3-.25-.02-.51-.02-.76,0h-.43v5.14c-.02.2.1.38.28.46.25.07.5.13.76.15v.2h-3.04v-.2c.26-.01.51-.05.76-.11.19-.07.3-.26.28-.46v-5.18h-.43c-.25-.01-.51-.01-.76,0-.49.28-.84.75-.98,1.3h-.22v-1.6h5.67v1.58h-.22l.05.02Z"/><path class="cls-1" d="m159.25,181.92h-5.36v-.2c.24-.01.48-.05.71-.11.19-.06.3-.25.28-.44v-4.63c.02-.2-.09-.38-.28-.45-.23-.08-.47-.14-.71-.16v-.24h4.99v1.4h-.24c-.14-.5-.5-.91-.97-1.12-.25-.02-.51-.02-.76,0h-1.07v2.61h.76c.28.04.57-.07.76-.28.16-.25.25-.54.28-.83h.24v2.53h-.2c-.03-.31-.13-.61-.28-.88-.19-.21-.48-.32-.76-.28h-.76v2c0,.76.17.83,1.08.83.52.08,1.04.01,1.52-.2.32-.38.57-.81.76-1.27h.23l-.21,1.72Z"/><path class="cls-1" d="m170,181.92h-5.36v-.2c.24-.01.48-.05.71-.11.19-.06.3-.25.28-.44v-4.63c.02-.2-.09-.38-.28-.45-.23-.08-.47-.14-.71-.16v-.24h4.99v1.4h-.26c-.14-.5-.5-.91-.97-1.12-.25-.02-.51-.02-.76,0h-1.07v2.61h.76c.28.04.57-.07.76-.28.16-.25.25-.54.28-.83h.24v2.53h-.24c-.03-.31-.13-.61-.28-.88-.19-.21-.48-.32-.76-.28h-.76v2c0,.76.16.83,1.08.83.52.08,1.04.01,1.52-.2.32-.38.57-.81.76-1.27h.2l-.13,1.72Z"/><path class="cls-1" d="m177.5,183.25c-.81.04-1.53-.52-1.69-1.31-.23.07-.47.11-.71.12-.8,0-1.58-.29-2.16-.84-.64-.6-1-1.44-.97-2.32-.04-.87.28-1.73.88-2.36,1.27-1.25,3.32-1.25,4.59,0,.57.62.88,1.44.86,2.28.04,1.13-.57,2.18-1.56,2.72.11.72.78,1.22,1.5,1.11.42-.06.78-.32.98-.69l.18.14c-.42.65-1.12,1.07-1.89,1.15Zm-2.36-7.39c-1.28,0-2.07,1.11-2.07,2.98-.04.78.17,1.56.59,2.22.2-.64.79-1.08,1.47-1.07.71.02,1.32.5,1.52,1.18.45-.7.66-1.53.6-2.36-.05-1.47-.6-2.95-2.11-2.95h0Zm-.36,4.55c-.47.05-.86.39-.96.86.34.36.82.56,1.31.55.21,0,.41-.02.61-.06-.07-.99-.41-1.37-.96-1.37v.03Z"/><path class="cls-1" d="m186.26,176.15c-.27.34-.37.78-.3,1.21v2.77c0,1.47-1.44,1.94-2.34,1.94-1.59,0-2.4-.84-2.4-1.78v-3.74c.01-.2-.1-.38-.28-.46-.2-.08-.42-.13-.64-.15v-.23h2.82v.2c-.22.02-.44.06-.65.12-.19.06-.31.25-.28.45v3.61c-.08.79.49,1.49,1.28,1.57.12.01.24,0,.37,0,.86.12,1.64-.48,1.76-1.34.01-.08.02-.17.01-.25v-2.68c.08-.43-.04-.87-.31-1.21-.29-.15-.6-.24-.93-.27v-.2h2.71v.2c-.29.03-.57.11-.83.24Z"/><path class="cls-1" d="m188.88,181.92v-.2c.22,0,.44-.04.66-.09.18-.06.3-.24.28-.43v-4.66c.02-.19-.09-.38-.28-.43-.21-.08-.43-.13-.66-.16v-.24h2.85v.2c-.22.02-.44.06-.66.12-.19.05-.31.24-.28.43v4.67c-.01.19.1.37.28.43.21.07.44.11.66.14v.2h-2.85v.03Z"/><path class="cls-1" d="m198.97,177.31c-.14-.55-.49-1.02-.98-1.3-.25-.02-.51-.02-.76,0h-.43v5.14c-.02.2.1.38.28.46.25.07.5.13.76.15v.2h-3.04v-.2c.26-.01.51-.05.76-.11.19-.07.3-.26.28-.46v-5.18h-.43c-.25-.01-.51-.01-.76,0-.49.28-.84.75-.98,1.3h-.22v-1.6h5.67v1.58h-.17v.02Z"/><path class="cls-1" d="m205.98,176.12c-.2.11-.38.27-.51.46-.55.73-1.03,1.5-1.44,2.32-.16.32-.26.66-.27,1.02v1.21c-.02.2.1.38.28.46.25.07.5.13.76.15v.2h-3.04v-.2c.26-.01.51-.05.76-.11.19-.07.3-.26.28-.46v-1.58c-.03-.24-.11-.47-.24-.68-.42-.81-.8-1.52-1.2-2.2-.13-.25-.32-.46-.55-.61-.18-.09-.38-.14-.58-.15v-.23h2.91v.2c-.32,0-.92.1-.92.32.41.92.88,1.81,1.4,2.66.57-.81,1.08-1.66,1.52-2.54,0-.3-.56-.41-.98-.43v-.2h2.35v.2c-.19.04-.38.11-.55.21Z"/></g></svg>