<?xml version="1.0" encoding="UTF-8"?><svg id="Layer_1" xmlns="http://www.w3.org/2000/svg" xmlns:xlink="http://www.w3.org/1999/xlink" viewBox="0 0 320 240"><defs><style>.cls-1{clip-path:url(#clippath);}.cls-2{fill:none;}.cls-2,.cls-3,.cls-4,.cls-5,.cls-6,.cls-7,.cls-8,.cls-9,.cls-10,.cls-11,.cls-12,.cls-13,.cls-14,.cls-15,.cls-16,.cls-17,.cls-18,.cls-19,.cls-20,.cls-21,.cls-22,.cls-23,.cls-24,.cls-25,.cls-26,.cls-27,.cls-28,.cls-29,.cls-30,.cls-31,.cls-32,.cls-33,.cls-34,.cls-35,.cls-36,.cls-37,.cls-38,.cls-39,.cls-40,.cls-41,.cls-42,.cls-43,.cls-44,.cls-45,.cls-46,.cls-47,.cls-48,.cls-49,.cls-50,.cls-51,.cls-52,.cls-53,.cls-54,.cls-55,.cls-56,.cls-57,.cls-58,.cls-59,.cls-60,.cls-61,.cls-62,.cls-63,.cls-64,.cls-65,.cls-66,.cls-67,.cls-68,.cls-69,.cls-70,.cls-71,.cls-72,.cls-73,.cls-74,.cls-75,.cls-76,.cls-77,.cls-78,.cls-79,.cls-80,.cls-81,.cls-82,.cls-83,.cls-84,.cls-85,.cls-86,.cls-87,.cls-88,.cls-89,.cls-90,.cls-91{stroke-width:0px;}.cls-92{clip-path:url(#clippath-1);}.cls-93{clip-path:url(#clippath-4);}.cls-94{clip-path:url(#clippath-3);}.cls-95{clip-path:url(#clippath-2);}.cls-96{clip-path:url(#clippath-5);}.cls-4{fill:#f70900;}.cls-5{fill:#a50200;}.cls-6{fill:#a40200;}.cls-7{fill:#e50800;}.cls-8{fill:#c60500;}.cls-9{fill:#c90500;}.cls-10{fill:#d20600;}.cls-11{fill:#d40600;}.cls-12{fill:#d50600;}.cls-13{fill:#ce0600;}.cls-14{fill:#e00700;}.cls-15{fill:#d30600;}.cls-16{fill:#cc0600;}.cls-17{fill:#cd0600;}.cls-18{fill:#cf0600;}.cls-19{fill:#c80500;}.cls-20{fill:#dc0700;}.cls-21{fill:#e20700;}.cls-22{fill:#ae0300;}.cls-23{fill:#c70500;}.cls-24{fill:#e10700;}.cls-25{fill:#e40700;}.cls-26{fill:#df0700;}.cls-27{fill:#ca0500;}.cls-28{fill:#d80700;}.cls-29{fill:#e30700;}.cls-30{fill:#af0300;}.cls-31{fill:#d90700;}.cls-32{fill:#de0700;}.cls-33{fill:#d60600;}.cls-34{fill:#d70600;}.cls-35{fill:#ac0300;}.cls-36{fill:#c10500;}.cls-37{fill:#c30500;}.cls-38{fill:#a80300;}.cls-39{fill:#c00500;}.cls-40{fill:#c20500;}.cls-41{fill:#b50400;}.cls-42{fill:#a60300;}.cls-43{fill:#b10300;}.cls-44{fill:#b30400;}.cls-45{fill:#b20400;}.cls-46{fill:#db0700;}.cls-47{fill:#da0700;}.cls-48{fill:#bf0500;}.cls-49{fill:#dd0700;}.cls-50{fill:#ad0300;}.cls-51{fill:#b40400;}.cls-52{fill:#be0400;}.cls-53{fill:#b00300;}.cls-54{fill:#a90300;}.cls-55{fill:#ab0300;}.cls-56{fill:#aa0300;}.cls-57{fill:#a70300;}.cls-58{fill:#d10600;}.cls-59{fill:#d00600;}.cls-60{fill:#ba0400;}.cls-61{fill:#b70400;}.cls-62{fill:#b80400;}.cls-63{fill:#bb0400;}.cls-64{fill:#9f0200;}.cls-65{fill:#a00200;}.cls-66{fill:#a30200;}.cls-67{fill:#c50500;}.cls-68{fill:#b60400;}.cls-69{fill:#b90400;}.cls-70{fill:#c40500;}.cls-71{fill:#bd0400;}.cls-72{fill:#bc0400;}.cls-73{fill:#a10200;}.cls-74{fill:#a20200;}.cls-75{fill:#f00800;}.cls-76{fill:#f20900;}.cls-77{fill:#f50900;}.cls-78{fill:#e60800;}.cls-79{fill:#ea0800;}.cls-80{fill:#f10900;}.cls-81{fill:#ee0800;}.cls-82{fill:#ec0800;}.cls-83{fill:#e70800;}.cls-84{fill:#f30900;}.cls-85{fill:#e90800;}.cls-86{fill:#e80800;}.cls-87{fill:#ef0800;}.cls-88{fill:#f40900;}.cls-89{fill:#eb0800;}.cls-90{fill:#ed0800;}.cls-91{fill:#f60900;}</style><clipPath id="clippath"><path class="cls-2" d="m199.61,147.97c-5.21,0-8.14-.03-9.02-.06v-73.55h9.18c4.38,0,8.77,0,13.15,0,.41,0,.61.1.83.43,7.25,10.58,14.52,21.15,21.78,31.71l6.78,9.85c.07.1.13.2.2.3,0,0-5.86,0-5.86,0-6.24,0-12.47,0-18.71.01-.26,0-.39-.07-.54-.32-1-1.59-2.01-3.17-3.02-4.75l-.77-1.21c-.08-.13-.17-.26-.26-.38l-.22-.31-.25.05-.13.04c-.13.06-.19.16-.21.23-.02.06-.03.13-.04.2,0,.1,0,.19,0,.28v37.41c-1.13.05-6.7.09-12.89.09Z"/></clipPath><clipPath id="clippath-1"><path class="cls-2" d="m115.47,147.99c-4.17,0-7.15-.02-8.08-.07-.03-1.31-.03-2.64-.02-3.93,0-.69,0-1.39,0-2.08,0-1.48,0-2.97,0-4.45v-27.62s-.46-.13-.46-.13l-.28.15s-.29.43-.38.57l-.9,1.41c-.96,1.5-1.92,3-2.86,4.5-.16.26-.3.34-.6.34-5.89,0-11.78-.01-17.67-.01h-6.85c.06-.1.12-.19.19-.28l21.5-31.27c2.35-3.41,4.69-6.82,7.03-10.25.26-.38.48-.5.92-.5,4.28.01,8.55.02,12.82.02h9.48s0,73.51,0,73.51c-1.27.06-7.34.11-13.83.11Z"/></clipPath><clipPath id="clippath-2"><path class="cls-2" d="m136.31,147.92v-49.02c2.12-.07,17.92-.12,31.23-.12,8.84,0,14.67.02,15.98.06.12,1.94.12,15.34,0,17.43h-25.27v31.64h-21.95Z"/></clipPath><clipPath id="clippath-3"><path class="cls-2" d="m71.33,164.43c-5.78,0-11.56-.01-17.35-.01h-9.34c2.71-4.2,25.34-37.24,27.92-40.76h25.24l-3.87,6.09.41.12c.34.1.65.12.88.12.11,0,.54-.01.64-.01h.11c.2,0,.4.01.59.01h3.6c.11,2.06.14,15.7.04,17.98h-8.15c-2.95,0-5.9,0-8.86-.01-.64,0-1.04.23-1.4.78-1.62,2.55-3.24,5.1-4.86,7.64s-3.24,5.09-4.86,7.65c-.2.32-.37.41-.75.41h0Z"/></clipPath><clipPath id="clippath-4"><path class="cls-2" d="m248.64,164.44c-.44,0-.64-.12-.89-.51-1.71-2.7-3.43-5.39-5.14-8.09-1.53-2.4-3.06-4.8-4.58-7.2-.3-.48-.68-.69-1.24-.69-3.06,0-6.12,0-9.18,0h-7.89v-17.98h6.4l-4.03-6.35c.08,0,.17,0,.25,0h22.24c.79,0,1.58,0,2.38-.01h0c.3,0,.43.08.61.34,6.39,9.32,12.79,18.63,19.2,27.94,0,0,8.57,12.46,8.6,12.52-.06,0-.12,0-.17,0h-15.74c-3.6,0-7.2,0-10.8.02h0Z"/></clipPath><clipPath id="clippath-5"><path class="cls-2" d="m136.32,91.8v-17.36c2.03-.06,16.08-.1,28.93-.1,9.95,0,16.88.03,18.28.06.1,1.97.12,15.22.03,17.39h-47.24Z"/></clipPath></defs><g class="cls-1"><rect class="cls-85" x="190.59" y="147.64" width="51.93" height=".34"/><rect class="cls-86" x="190.59" y="146.69" width="51.93" height=".95"/><rect class="cls-83" x="190.59" y="145.74" width="51.93" height=".95"/><rect class="cls-78" x="190.59" y="144.79" width="51.93" height=".95"/><rect class="cls-7" x="190.59" y="143.85" width="51.93" height=".95"/><rect class="cls-25" x="190.59" y="142.9" width="51.93" height=".95"/><rect class="cls-29" x="190.59" y="141.95" width="51.93" height=".95"/><rect class="cls-21" x="190.59" y="141" width="51.93" height=".95"/><rect class="cls-24" x="190.59" y="140.06" width="51.93" height=".95"/><rect class="cls-14" x="190.59" y="139.11" width="51.93" height=".95"/><rect class="cls-26" x="190.59" y="138.16" width="51.93" height=".95"/><rect class="cls-32" x="190.59" y="137.21" width="51.93" height=".95"/><rect class="cls-49" x="190.59" y="136.27" width="51.93" height=".95"/><rect class="cls-20" x="190.59" y="135.32" width="51.93" height=".95"/><rect class="cls-46" x="190.59" y="134.37" width="51.93" height=".95"/><rect class="cls-47" x="190.59" y="133.42" width="51.93" height=".95"/><rect class="cls-31" x="190.59" y="132.48" width="51.93" height=".95"/><rect class="cls-28" x="190.59" y="131.53" width="51.93" height=".95"/><rect class="cls-34" x="190.59" y="130.58" width="51.93" height=".95"/><rect class="cls-33" x="190.59" y="129.63" width="51.93" height=".95"/><rect class="cls-12" x="190.59" y="128.69" width="51.93" height=".95"/><rect class="cls-11" x="190.59" y="127.74" width="51.93" height=".95"/><rect class="cls-15" x="190.59" y="126.79" width="51.93" height=".95"/><rect class="cls-10" x="190.59" y="125.84" width="51.93" height=".95"/><rect class="cls-58" x="190.59" y="124.9" width="51.93" height=".95"/><rect class="cls-59" x="190.59" y="123.95" width="51.93" height=".95"/><rect class="cls-18" x="190.59" y="123" width="51.93" height=".95"/><rect class="cls-13" x="190.59" y="122.05" width="51.93" height=".95"/><rect class="cls-17" x="190.59" y="121.11" width="51.93" height=".95"/><rect class="cls-16" x="190.59" y="120.16" width="51.93" height=".95"/><rect class="cls-27" x="190.59" y="119.21" width="51.93" height=".95"/><rect class="cls-9" x="190.59" y="118.26" width="51.93" height=".95"/><rect class="cls-19" x="190.59" y="117.32" width="51.93" height=".95"/><rect class="cls-23" x="190.59" y="116.37" width="51.93" height=".95"/><rect class="cls-8" x="190.59" y="115.42" width="51.93" height=".95"/><rect class="cls-67" x="190.59" y="114.47" width="51.93" height=".95"/><rect class="cls-70" x="190.59" y="113.53" width="51.93" height=".95"/><rect class="cls-37" x="190.59" y="112.58" width="51.93" height=".95"/><rect class="cls-40" x="190.59" y="111.63" width="51.93" height=".95"/><rect class="cls-36" x="190.59" y="110.68" width="51.93" height=".95"/><rect class="cls-39" x="190.59" y="109.74" width="51.93" height=".95"/><rect class="cls-48" x="190.59" y="108.79" width="51.93" height=".95"/><rect class="cls-52" x="190.59" y="107.84" width="51.93" height=".95"/><rect class="cls-71" x="190.59" y="106.89" width="51.93" height=".95"/><rect class="cls-72" x="190.59" y="105.95" width="51.93" height=".95"/><rect class="cls-63" x="190.59" y="105" width="51.93" height=".95"/><rect class="cls-60" x="190.59" y="104.05" width="51.93" height=".95"/><rect class="cls-69" x="190.59" y="103.1" width="51.93" height=".95"/><rect class="cls-62" x="190.59" y="102.16" width="51.93" height=".95"/><rect class="cls-61" x="190.59" y="101.21" width="51.93" height=".95"/><rect class="cls-68" x="190.59" y="100.26" width="51.93" height=".95"/><rect class="cls-41" x="190.59" y="99.31" width="51.93" height=".95"/><rect class="cls-51" x="190.59" y="98.37" width="51.93" height=".95"/><rect class="cls-44" x="190.59" y="97.42" width="51.93" height=".95"/><rect class="cls-45" x="190.59" y="96.47" width="51.93" height=".95"/><rect class="cls-43" x="190.59" y="95.52" width="51.93" height=".95"/><rect class="cls-53" x="190.59" y="94.58" width="51.93" height=".95"/><rect class="cls-30" x="190.59" y="93.63" width="51.93" height=".95"/><rect class="cls-22" x="190.59" y="92.68" width="51.93" height=".95"/><rect class="cls-50" x="190.59" y="91.73" width="51.93" height=".95"/><rect class="cls-35" x="190.59" y="90.78" width="51.93" height=".95"/><rect class="cls-55" x="190.59" y="89.84" width="51.93" height=".95"/><rect class="cls-56" x="190.59" y="88.89" width="51.93" height=".95"/><rect class="cls-54" x="190.59" y="87.94" width="51.93" height=".95"/><rect class="cls-38" x="190.59" y="86.99" width="51.93" height=".95"/><rect class="cls-57" x="190.59" y="86.05" width="51.93" height=".95"/><rect class="cls-42" x="190.59" y="85.1" width="51.93" height=".95"/><rect class="cls-5" x="190.59" y="84.15" width="51.93" height=".95"/><rect class="cls-6" x="190.59" y="83.2" width="51.93" height=".95"/><rect class="cls-66" x="190.59" y="82.26" width="51.93" height=".95"/><rect class="cls-74" x="190.59" y="81.31" width="51.93" height=".95"/><rect class="cls-73" x="190.59" y="80.36" width="51.93" height=".95"/><rect class="cls-65" x="190.59" y="79.41" width="51.93" height=".95"/><rect class="cls-64" x="190.59" y="78.47" width="51.93" height=".95"/><rect class="cls-64" x="190.59" y="74.35" width="51.93" height="4.12"/></g><path class="cls-76" d="m212.93,74.67c.3,0,.4.05.56.29,7.49,10.92,14.99,21.83,22.49,32.74l2.8,4.07,1.82,2.64,1.32,1.92h-5.85c-6.04,0-12.07,0-18.11.01-.13,0-.16,0-.27-.17-1.03-1.63-2.06-3.25-3.1-4.88l-.7-1.09c-.08-.13-.17-.26-.25-.38l-.1-.15-.28-.34-.41.07-.13.03-.07.03c-.26.12-.35.31-.39.42-.03.1-.05.19-.06.29,0,.1,0,.2,0,.29v8.34s0,28.76,0,28.76c-1.62.04-6.86.08-12.56.08-4.72,0-7.57-.02-8.7-.05v-72.92h4.32s4.22,0,4.22,0c4.49,0,8.98,0,13.47-.01h0m0-.64h0c-4.49,0-8.98.01-13.47.01-2.82,0-5.63,0-8.45,0h-.74v74.18c.35.06,4.62.08,9.34.08,6.07,0,12.89-.04,13.15-.11.01-.02.03-.03.03-.05.01-.04.02-.08.02-.13,0-12.51,0-25.02,0-37.53,0-.09,0-.17,0-.26,0-.04.01-.08.03-.12,0-.02.03-.03.04-.04.02,0,.04,0,.09-.02.11.16.23.33.35.51,1.27,1.99,2.54,3.97,3.8,5.96.2.32.41.47.81.47h0c8.18-.01,16.37,0,24.55-.01.16,0,.32-.03.58-.06-.2-.3-.35-.53-.5-.75-1.09-1.59-2.19-3.17-3.28-4.76-8.43-12.27-16.86-24.53-25.28-36.8-.29-.42-.6-.57-1.09-.57h0Z"/><g class="cls-92"><rect class="cls-85" x="77.38" y="147.64" width="51.93" height=".35"/><rect class="cls-86" x="77.38" y="146.69" width="51.93" height=".95"/><rect class="cls-83" x="77.38" y="145.74" width="51.93" height=".95"/><rect class="cls-78" x="77.38" y="144.8" width="51.93" height=".95"/><rect class="cls-7" x="77.38" y="143.85" width="51.93" height=".95"/><rect class="cls-25" x="77.38" y="142.9" width="51.93" height=".95"/><rect class="cls-29" x="77.38" y="141.95" width="51.93" height=".95"/><rect class="cls-21" x="77.38" y="141" width="51.93" height=".95"/><rect class="cls-24" x="77.38" y="140.06" width="51.93" height=".95"/><rect class="cls-14" x="77.38" y="139.11" width="51.93" height=".95"/><rect class="cls-26" x="77.38" y="138.16" width="51.93" height=".95"/><rect class="cls-32" x="77.38" y="137.21" width="51.93" height=".95"/><rect class="cls-49" x="77.38" y="136.27" width="51.93" height=".95"/><rect class="cls-20" x="77.38" y="135.32" width="51.93" height=".95"/><rect class="cls-46" x="77.38" y="134.37" width="51.93" height=".95"/><rect class="cls-47" x="77.38" y="133.42" width="51.93" height=".95"/><rect class="cls-31" x="77.38" y="132.48" width="51.93" height=".95"/><rect class="cls-28" x="77.38" y="131.53" width="51.93" height=".95"/><rect class="cls-34" x="77.38" y="130.58" width="51.93" height=".95"/><rect class="cls-33" x="77.38" y="129.63" width="51.93" height=".95"/><rect class="cls-12" x="77.38" y="128.69" width="51.93" height=".95"/><rect class="cls-11" x="77.38" y="127.74" width="51.93" height=".95"/><rect class="cls-15" x="77.38" y="126.79" width="51.93" height=".95"/><rect class="cls-10" x="77.38" y="125.84" width="51.93" height=".95"/><rect class="cls-58" x="77.38" y="124.9" width="51.93" height=".95"/><rect class="cls-59" x="77.38" y="123.95" width="51.93" height=".95"/><rect class="cls-18" x="77.38" y="123" width="51.93" height=".95"/><rect class="cls-13" x="77.38" y="122.05" width="51.93" height=".95"/><rect class="cls-17" x="77.38" y="121.11" width="51.93" height=".95"/><rect class="cls-16" x="77.38" y="120.16" width="51.93" height=".95"/><rect class="cls-27" x="77.38" y="119.21" width="51.93" height=".95"/><rect class="cls-9" x="77.38" y="118.26" width="51.93" height=".95"/><rect class="cls-19" x="77.38" y="117.32" width="51.93" height=".95"/><rect class="cls-23" x="77.38" y="116.37" width="51.93" height=".95"/><rect class="cls-8" x="77.38" y="115.42" width="51.93" height=".95"/><rect class="cls-67" x="77.38" y="114.47" width="51.93" height=".95"/><rect class="cls-70" x="77.38" y="113.53" width="51.93" height=".95"/><rect class="cls-37" x="77.38" y="112.58" width="51.93" height=".95"/><rect class="cls-40" x="77.38" y="111.63" width="51.93" height=".95"/><rect class="cls-36" x="77.38" y="110.68" width="51.93" height=".95"/><rect class="cls-39" x="77.38" y="109.74" width="51.93" height=".95"/><rect class="cls-48" x="77.38" y="108.79" width="51.93" height=".95"/><rect class="cls-52" x="77.38" y="107.84" width="51.93" height=".95"/><rect class="cls-71" x="77.38" y="106.89" width="51.93" height=".95"/><rect class="cls-72" x="77.38" y="105.95" width="51.93" height=".95"/><rect class="cls-63" x="77.38" y="105" width="51.93" height=".95"/><rect class="cls-60" x="77.38" y="104.05" width="51.93" height=".95"/><rect class="cls-69" x="77.38" y="103.1" width="51.93" height=".95"/><rect class="cls-62" x="77.38" y="102.16" width="51.93" height=".95"/><rect class="cls-61" x="77.38" y="101.21" width="51.93" height=".95"/><rect class="cls-68" x="77.38" y="100.26" width="51.93" height=".95"/><rect class="cls-41" x="77.38" y="99.31" width="51.93" height=".95"/><rect class="cls-51" x="77.38" y="98.37" width="51.93" height=".95"/><rect class="cls-44" x="77.38" y="97.42" width="51.93" height=".95"/><rect class="cls-45" x="77.38" y="96.47" width="51.93" height=".95"/><rect class="cls-43" x="77.38" y="95.52" width="51.93" height=".95"/><rect class="cls-53" x="77.38" y="94.58" width="51.93" height=".95"/><rect class="cls-30" x="77.38" y="93.63" width="51.93" height=".95"/><rect class="cls-22" x="77.38" y="92.68" width="51.93" height=".95"/><rect class="cls-50" x="77.38" y="91.73" width="51.93" height=".95"/><rect class="cls-35" x="77.38" y="90.79" width="51.93" height=".95"/><rect class="cls-55" x="77.38" y="89.84" width="51.93" height=".95"/><rect class="cls-56" x="77.38" y="88.89" width="51.93" height=".95"/><rect class="cls-54" x="77.38" y="87.94" width="51.93" height=".95"/><rect class="cls-38" x="77.38" y="86.99" width="51.93" height=".95"/><rect class="cls-57" x="77.38" y="86.05" width="51.93" height=".95"/><rect class="cls-42" x="77.38" y="85.1" width="51.93" height=".95"/><rect class="cls-5" x="77.38" y="84.15" width="51.93" height=".95"/><rect class="cls-6" x="77.38" y="83.2" width="51.93" height=".95"/><rect class="cls-66" x="77.38" y="82.26" width="51.93" height=".95"/><rect class="cls-74" x="77.38" y="81.31" width="51.93" height=".95"/><rect class="cls-73" x="77.38" y="80.36" width="51.93" height=".95"/><rect class="cls-65" x="77.38" y="79.41" width="51.93" height=".95"/><rect class="cls-64" x="77.38" y="78.47" width="51.93" height=".95"/><rect class="cls-64" x="77.38" y="74.34" width="51.93" height="4.12"/></g><path class="cls-76" d="m107.01,74.02v.64c4.33.01,8.66.02,12.99.02h4.37s4.37,0,4.37,0h.25v72.88c-1.78.06-7.58.11-13.49.11-4.38,0-6.78-.03-7.79-.05-.02-1.21-.02-2.44-.01-3.63,0-.69,0-1.38,0-2.08,0-1.47,0-2.95,0-4.42v-1.94s0-6.43,0-6.43v-19.53l-.46-.14-.15-.04-.45-.13-.26.39-.12.17c-.09.13-.18.27-.27.4l-.84,1.31c-.98,1.53-1.96,3.06-2.92,4.6-.11.17-.14.19-.33.19-6.28-.01-12.55-.01-18.83-.01h-5.08s11.71-17.04,11.71-17.04l7.57-11.01,1.76-2.56c2.45-3.56,4.89-7.12,7.33-10.68.2-.3.32-.36.65-.36v-.64m0,0c-.56,0-.88.19-1.18.64-3.02,4.42-6.06,8.83-9.09,13.24-6.48,9.42-12.96,18.85-19.44,28.27-.15.22-.3.45-.49.75.27.02.43.04.6.04,8.16,0,16.32,0,24.48.01h0c.42,0,.65-.14.87-.49,1.24-1.98,2.5-3.94,3.76-5.91.12-.19.25-.37.37-.56l.15.04v25.48c0,2.12,0,4.24,0,6.36,0,2.11-.03,4.22.03,6.32.46.06,4.15.09,8.42.09,6.3,0,13.85-.06,14.13-.14v-74.13h-.89c-2.91,0-5.83,0-8.74,0-4.33,0-8.65,0-12.98-.02h0Z"/><g class="cls-95"><rect class="cls-85" x="136.31" y="147.64" width="47.34" height=".28"/><rect class="cls-86" x="136.31" y="146.69" width="47.34" height=".94"/><rect class="cls-83" x="136.31" y="145.75" width="47.34" height=".94"/><rect class="cls-78" x="136.31" y="144.81" width="47.34" height=".94"/><rect class="cls-7" x="136.31" y="143.86" width="47.34" height=".94"/><rect class="cls-25" x="136.31" y="142.92" width="47.34" height=".94"/><rect class="cls-29" x="136.31" y="141.98" width="47.34" height=".94"/><rect class="cls-21" x="136.31" y="141.03" width="47.34" height=".94"/><rect class="cls-24" x="136.31" y="140.09" width="47.34" height=".94"/><rect class="cls-14" x="136.31" y="139.15" width="47.34" height=".94"/><rect class="cls-26" x="136.31" y="138.2" width="47.34" height=".94"/><rect class="cls-32" x="136.31" y="137.26" width="47.34" height=".94"/><rect class="cls-49" x="136.31" y="136.32" width="47.34" height=".94"/><rect class="cls-20" x="136.31" y="135.37" width="47.34" height=".94"/><rect class="cls-46" x="136.31" y="134.43" width="47.34" height=".94"/><rect class="cls-47" x="136.31" y="133.49" width="47.34" height=".94"/><rect class="cls-31" x="136.31" y="132.54" width="47.34" height=".94"/><rect class="cls-28" x="136.31" y="131.6" width="47.34" height=".94"/><rect class="cls-34" x="136.31" y="130.66" width="47.34" height=".94"/><rect class="cls-33" x="136.31" y="129.71" width="47.34" height=".94"/><rect class="cls-12" x="136.31" y="128.77" width="47.34" height=".94"/><rect class="cls-11" x="136.31" y="127.83" width="47.34" height=".94"/><rect class="cls-15" x="136.31" y="126.88" width="47.34" height=".94"/><rect class="cls-10" x="136.31" y="125.94" width="47.34" height=".94"/><rect class="cls-58" x="136.31" y="124.99" width="47.34" height=".94"/><rect class="cls-59" x="136.31" y="124.05" width="47.34" height=".94"/><rect class="cls-18" x="136.31" y="123.11" width="47.34" height=".94"/><rect class="cls-13" x="136.31" y="122.16" width="47.34" height=".94"/><rect class="cls-17" x="136.31" y="121.22" width="47.34" height=".94"/><rect class="cls-16" x="136.31" y="120.28" width="47.34" height=".94"/><rect class="cls-27" x="136.31" y="119.33" width="47.34" height=".94"/><rect class="cls-9" x="136.31" y="118.39" width="47.34" height=".94"/><rect class="cls-19" x="136.31" y="117.45" width="47.34" height=".94"/><rect class="cls-23" x="136.31" y="116.5" width="47.34" height=".94"/><rect class="cls-8" x="136.31" y="115.56" width="47.34" height=".94"/><rect class="cls-67" x="136.31" y="114.62" width="47.34" height=".94"/><rect class="cls-70" x="136.31" y="113.67" width="47.34" height=".94"/><rect class="cls-37" x="136.31" y="112.73" width="47.34" height=".94"/><rect class="cls-40" x="136.31" y="111.79" width="47.34" height=".94"/><rect class="cls-36" x="136.31" y="110.84" width="47.34" height=".94"/><rect class="cls-39" x="136.31" y="109.9" width="47.34" height=".94"/><rect class="cls-48" x="136.31" y="108.96" width="47.34" height=".94"/><rect class="cls-52" x="136.31" y="108.01" width="47.34" height=".94"/><rect class="cls-71" x="136.31" y="107.07" width="47.34" height=".94"/><rect class="cls-72" x="136.31" y="106.13" width="47.34" height=".94"/><rect class="cls-63" x="136.31" y="105.18" width="47.34" height=".94"/><rect class="cls-60" x="136.31" y="104.24" width="47.34" height=".94"/><rect class="cls-69" x="136.31" y="103.29" width="47.34" height=".94"/><rect class="cls-62" x="136.31" y="102.35" width="47.34" height=".94"/><rect class="cls-61" x="136.31" y="101.41" width="47.34" height=".94"/><rect class="cls-68" x="136.31" y="100.46" width="47.34" height=".94"/><rect class="cls-41" x="136.31" y="99.52" width="47.34" height=".94"/><rect class="cls-51" x="136.31" y="98.79" width="47.34" height=".74"/></g><path class="cls-76" d="m167.51,99.11c9.53,0,14.21.03,15.71.06.1,2.63.11,14.18.01,16.79h-25.29v.64s0,1.64,0,1.64v3.67s0,3.67,0,3.67v1.6s0,5.27,0,5.27v15.16h-21.3v-48.38c3.11-.07,18.18-.12,30.88-.12m0-.64c-13.75,0-31.24.06-31.52.15v49.63h22.59v-21.07c0-1.76,0-3.51,0-5.27,0-1.75,0-3.49,0-5.31h25.24c.17-.7.14-17.59,0-18.06-.53-.05-7.69-.08-16.31-.08h0Z"/><g class="cls-94"><rect class="cls-4" x="44.64" y="162.01" width="55.67" height="2.42"/><rect class="cls-4" x="44.64" y="161.07" width="55.67" height=".94"/><rect class="cls-91" x="44.64" y="160.13" width="55.67" height=".94"/><rect class="cls-77" x="44.64" y="159.19" width="55.67" height=".94"/><rect class="cls-88" x="44.64" y="158.25" width="55.67" height=".94"/><rect class="cls-84" x="44.64" y="157.31" width="55.67" height=".94"/><rect class="cls-76" x="44.64" y="156.36" width="55.67" height=".94"/><rect class="cls-80" x="44.64" y="155.42" width="55.67" height=".94"/><rect class="cls-75" x="44.64" y="154.48" width="55.67" height=".94"/><rect class="cls-87" x="44.64" y="153.54" width="55.67" height=".94"/><rect class="cls-81" x="44.64" y="152.6" width="55.67" height=".94"/><rect class="cls-90" x="44.64" y="151.66" width="55.67" height=".94"/><rect class="cls-82" x="44.64" y="150.72" width="55.67" height=".94"/><rect class="cls-89" x="44.64" y="149.78" width="55.67" height=".94"/><rect class="cls-79" x="44.64" y="148.84" width="55.67" height=".94"/><rect class="cls-85" x="44.64" y="147.9" width="55.67" height=".94"/><rect class="cls-86" x="44.64" y="146.95" width="55.67" height=".94"/><rect class="cls-83" x="44.64" y="146.01" width="55.67" height=".94"/><rect class="cls-78" x="44.64" y="145.07" width="55.67" height=".94"/><rect class="cls-7" x="44.64" y="144.13" width="55.67" height=".94"/><rect class="cls-25" x="44.64" y="143.19" width="55.67" height=".94"/><rect class="cls-29" x="44.64" y="142.25" width="55.67" height=".94"/><rect class="cls-21" x="44.64" y="141.31" width="55.67" height=".94"/><rect class="cls-24" x="44.64" y="140.37" width="55.67" height=".94"/><rect class="cls-14" x="44.64" y="139.43" width="55.67" height=".94"/><rect class="cls-26" x="44.64" y="138.49" width="55.67" height=".94"/><rect class="cls-32" x="44.64" y="137.54" width="55.67" height=".94"/><rect class="cls-49" x="44.64" y="136.6" width="55.67" height=".94"/><rect class="cls-20" x="44.64" y="135.66" width="55.67" height=".94"/><rect class="cls-46" x="44.64" y="134.72" width="55.67" height=".94"/><rect class="cls-47" x="44.64" y="133.78" width="55.67" height=".94"/><rect class="cls-31" x="44.64" y="132.84" width="55.67" height=".94"/><rect class="cls-28" x="44.64" y="131.9" width="55.67" height=".94"/><rect class="cls-34" x="44.64" y="130.96" width="55.67" height=".94"/><rect class="cls-33" x="44.64" y="130.02" width="55.67" height=".94"/><rect class="cls-12" x="44.64" y="129.08" width="55.67" height=".94"/><rect class="cls-11" x="44.64" y="128.13" width="55.67" height=".94"/><rect class="cls-15" x="44.64" y="127.19" width="55.67" height=".94"/><rect class="cls-10" x="44.64" y="126.25" width="55.67" height=".94"/><rect class="cls-58" x="44.64" y="125.31" width="55.67" height=".94"/><rect class="cls-59" x="44.64" y="124.37" width="55.67" height=".94"/><rect class="cls-18" x="44.64" y="123.66" width="55.67" height=".71"/></g><path class="cls-76" d="m97.22,123.98l-1.29,2.03-2.04,3.21-.46.72.81.24c.38.11.72.13.97.13.12,0,.23,0,.35,0,.1,0,.2,0,.29,0h.11c.2,0,.4.01.6.01h.46s.45,0,.45,0h2.39c.1,2.72.12,14.54.04,17.35h-3.81s-3.68,0-3.68,0c-3.07,0-6.14,0-9.22-.01-.74,0-1.25.29-1.66.93-1.6,2.53-3.21,5.05-4.81,7.57-1.64,2.57-3.28,5.14-4.91,7.72-.14.22-.21.26-.49.26-5.7,0-11.41-.01-17.11-.01h-4.94s-4.04,0-4.04,0c3.79-5.76,24.55-36.08,27.49-40.12h24.49m1.17-.64h-25.98c-2.2,2.91-28.14,40.8-28.33,41.4h.65c3.17,0,6.33,0,9.5,0,5.7,0,11.4,0,17.11.01h0c.48,0,.76-.14,1.03-.56,3.23-5.1,6.49-10.19,9.72-15.29.28-.45.58-.63,1.11-.63h0c3.07.01,6.14.01,9.21.01,2.41,0,4.83,0,7.24,0h.85c.14-1.02.09-18.12-.05-18.63h-2.99c-.3,0-.6,0-.9,0-.19,0-.38,0-.58,0-.04,0-.09,0-.13,0-.21,0-.42.01-.64.01-.25,0-.52-.02-.79-.1,1.33-2.09,2.62-4.12,3.96-6.22h0Z"/><g class="cls-93"><rect class="cls-4" x="219.71" y="162.01" width="55.64" height="2.43"/><rect class="cls-4" x="219.71" y="161.07" width="55.64" height=".94"/><rect class="cls-91" x="219.71" y="160.13" width="55.64" height=".94"/><rect class="cls-77" x="219.71" y="159.19" width="55.64" height=".94"/><rect class="cls-88" x="219.71" y="158.25" width="55.64" height=".94"/><rect class="cls-84" x="219.71" y="157.3" width="55.64" height=".94"/><rect class="cls-76" x="219.71" y="156.36" width="55.64" height=".94"/><rect class="cls-80" x="219.71" y="155.42" width="55.64" height=".94"/><rect class="cls-75" x="219.71" y="154.48" width="55.64" height=".94"/><rect class="cls-87" x="219.71" y="153.54" width="55.64" height=".94"/><rect class="cls-81" x="219.71" y="152.6" width="55.64" height=".94"/><rect class="cls-90" x="219.71" y="151.66" width="55.64" height=".94"/><rect class="cls-82" x="219.71" y="150.72" width="55.64" height=".94"/><rect class="cls-89" x="219.71" y="149.78" width="55.64" height=".94"/><rect class="cls-79" x="219.71" y="148.84" width="55.64" height=".94"/><rect class="cls-85" x="219.71" y="147.9" width="55.64" height=".94"/><rect class="cls-86" x="219.71" y="146.95" width="55.64" height=".94"/><rect class="cls-83" x="219.71" y="146.01" width="55.64" height=".94"/><rect class="cls-78" x="219.71" y="145.07" width="55.64" height=".94"/><rect class="cls-7" x="219.71" y="144.13" width="55.64" height=".94"/><rect class="cls-25" x="219.71" y="143.19" width="55.64" height=".94"/><rect class="cls-29" x="219.71" y="142.25" width="55.64" height=".94"/><rect class="cls-21" x="219.71" y="141.31" width="55.64" height=".94"/><rect class="cls-24" x="219.71" y="140.37" width="55.64" height=".94"/><rect class="cls-14" x="219.71" y="139.43" width="55.64" height=".94"/><rect class="cls-26" x="219.71" y="138.49" width="55.64" height=".94"/><rect class="cls-32" x="219.71" y="137.54" width="55.64" height=".94"/><rect class="cls-49" x="219.71" y="136.6" width="55.64" height=".94"/><rect class="cls-20" x="219.71" y="135.66" width="55.64" height=".94"/><rect class="cls-46" x="219.71" y="134.72" width="55.64" height=".94"/><rect class="cls-47" x="219.71" y="133.78" width="55.64" height=".94"/><rect class="cls-31" x="219.71" y="132.84" width="55.64" height=".94"/><rect class="cls-28" x="219.71" y="131.9" width="55.64" height=".94"/><rect class="cls-34" x="219.71" y="130.96" width="55.64" height=".94"/><rect class="cls-33" x="219.71" y="130.02" width="55.64" height=".94"/><rect class="cls-12" x="219.71" y="129.08" width="55.64" height=".94"/><rect class="cls-11" x="219.71" y="128.13" width="55.64" height=".94"/><rect class="cls-15" x="219.71" y="127.19" width="55.64" height=".94"/><rect class="cls-10" x="219.71" y="126.25" width="55.64" height=".94"/><rect class="cls-58" x="219.71" y="125.31" width="55.64" height=".94"/><rect class="cls-59" x="219.71" y="124.37" width="55.64" height=".94"/><rect class="cls-18" x="219.71" y="123.62" width="55.64" height=".75"/></g><path class="cls-76" d="m246.97,123.3v.64c.15,0,.2,0,.33.2,6.28,9.15,12.57,18.3,18.86,27.45l2.61,3.79,2.2,3.2,3.79,5.51h-3.61s-1.8,0-1.8,0h-1.8s-3.99,0-3.99,0h-4.11c-3.6,0-7.2,0-10.8.02-.33,0-.43-.06-.62-.36-1.72-2.72-3.45-5.43-5.18-8.15-1.52-2.38-3.03-4.76-4.54-7.14-.37-.58-.83-.84-1.52-.84-3.19,0-6.38.01-9.58.01h-3.56s-3.37,0-3.37,0h-.23v-17.34h6.66l-.63-.99-3.41-5.36h13.48s2.83,0,2.83,0h2.83s1.38,0,1.38,0h1.39c.79,0,1.59,0,2.38-.01v-.64m.01,0s-.02,0-.02,0c-.79.01-1.58.01-2.37.01-.92,0-1.85,0-2.77,0h-5.66c-4.6,0-9.21,0-13.81,0-.24,0-.48.01-.82.03,1.36,2.14,2.65,4.17,4.02,6.32h-6.14v18.62h.87c2.31,0,4.62,0,6.94,0,3.19,0,6.39,0,9.58-.01h0c.46,0,.72.15.97.54,3.23,5.1,6.49,10.18,9.72,15.29.29.46.6.66,1.16.66h0c3.6-.01,7.2-.02,10.79-.02,2.7,0,5.4,0,8.1,0,1.2,0,2.4,0,3.6,0,1.35,0,2.7,0,4.04,0,.22,0,.44-.02.74-.04-.18-.28-.29-.46-.41-.63-2.07-3.02-4.15-6.04-6.22-9.05-7.16-10.41-14.32-20.82-21.47-31.24-.23-.33-.46-.48-.86-.48h0Z"/><g class="cls-96"><rect class="cls-50" x="136.32" y="91.26" width="47.34" height=".54"/><rect class="cls-35" x="136.32" y="90.34" width="47.34" height=".92"/><rect class="cls-55" x="136.32" y="89.42" width="47.34" height=".92"/><rect class="cls-56" x="136.32" y="88.5" width="47.34" height=".92"/><rect class="cls-54" x="136.32" y="87.57" width="47.34" height=".92"/><rect class="cls-38" x="136.32" y="86.65" width="47.34" height=".92"/><rect class="cls-57" x="136.32" y="85.73" width="47.34" height=".92"/><rect class="cls-42" x="136.32" y="84.81" width="47.34" height=".92"/><rect class="cls-5" x="136.32" y="83.89" width="47.34" height=".92"/><rect class="cls-6" x="136.32" y="82.96" width="47.34" height=".92"/><rect class="cls-66" x="136.32" y="82.04" width="47.34" height=".92"/><rect class="cls-74" x="136.32" y="81.12" width="47.34" height=".92"/><rect class="cls-73" x="136.32" y="80.2" width="47.34" height=".92"/><rect class="cls-65" x="136.32" y="79.28" width="47.34" height=".92"/><rect class="cls-64" x="136.32" y="78.36" width="47.34" height=".92"/><rect class="cls-64" x="136.32" y="74.35" width="47.34" height="4.01"/></g><path class="cls-76" d="m165.32,74.67c9.34,0,16.04.02,17.91.06.09,2.64.11,14.04.03,16.76h-46.61v-16.72c2.93-.06,16.4-.1,28.68-.1m0-.64c-13.34,0-29.05.05-29.32.12v17.98h47.86c.14-.88.1-17.56-.03-18.02-.34-.05-8.8-.08-18.51-.08h0Z"/><path class="cls-3" d="m105.17,154.26h2.7l4.04,11.43h-2.59l-.75-2.35h-4.21l-.78,2.35h-2.5l4.08-11.43Zm-.16,7.11h2.93l-1.44-4.5-1.48,4.5Z"/><path class="cls-3" d="m113.37,154.27h8.15v2.01h-5.78v2.63h5.06v1.99h-5.06v4.79h-2.37v-11.42Z"/><path class="cls-3" d="m130.18,154.26h2.7l4.04,11.43h-2.59l-.75-2.35h-4.21l-.78,2.35h-2.5l4.08-11.43Zm-.16,7.11h2.93l-1.44-4.5-1.48,4.5Z"/><path class="cls-3" d="m143.26,160.27c-.04-.32-.15-.6-.32-.85-.25-.34-.64-.51-1.16-.51-.75,0-1.26.37-1.53,1.11-.15.39-.22.91-.22,1.56s.07,1.12.22,1.49c.26.7.76,1.05,1.49,1.05.52,0,.89-.14,1.1-.42.22-.28.35-.64.4-1.09h2.26c-.05.67-.3,1.31-.73,1.91-.69.97-1.72,1.45-3.08,1.45s-2.36-.4-3-1.21-.96-1.85-.96-3.14c0-1.45.35-2.58,1.06-3.39.71-.81,1.69-1.21,2.93-1.21,1.06,0,1.93.24,2.6.71.68.48,1.08,1.32,1.2,2.52h-2.26Z"/><path class="cls-3" d="m152.09,160.27c-.04-.32-.15-.6-.32-.85-.25-.34-.64-.51-1.16-.51-.75,0-1.26.37-1.53,1.11-.15.39-.22.91-.22,1.56s.07,1.12.22,1.49c.26.7.76,1.05,1.49,1.05.52,0,.89-.14,1.1-.42.22-.28.35-.64.4-1.09h2.26c-.05.67-.3,1.31-.73,1.91-.69.97-1.72,1.45-3.08,1.45s-2.36-.4-3-1.21-.96-1.85-.96-3.14c0-1.45.35-2.58,1.06-3.39.71-.81,1.69-1.21,2.93-1.21,1.06,0,1.93.24,2.6.71.68.48,1.08,1.32,1.2,2.52h-2.26Z"/><path class="cls-3" d="m161.38,157.41c.59.26,1.08.68,1.46,1.25.35.5.57,1.08.67,1.75.06.39.08.95.07,1.68h-6.16c.03.85.33,1.44.88,1.78.34.21.74.32,1.22.32.5,0,.91-.13,1.23-.39.17-.14.32-.33.45-.58h2.26c-.06.5-.33,1.01-.82,1.53-.76.82-1.82,1.23-3.18,1.23-1.13,0-2.12-.35-2.98-1.04-.86-.69-1.29-1.82-1.29-3.38,0-1.46.39-2.59,1.16-3.37.78-.78,1.78-1.17,3.02-1.17.74,0,1.4.13,1.99.4Zm-3.31,1.91c-.31.32-.51.76-.59,1.31h3.81c-.04-.59-.24-1.03-.59-1.34-.35-.3-.79-.46-1.31-.46-.57,0-1.01.16-1.32.48Z"/><path class="cls-3" d="m166.42,162.99c.05.39.15.67.3.84.28.29.78.44,1.53.44.44,0,.78-.06,1.04-.19.26-.13.39-.32.39-.58s-.1-.44-.31-.57c-.21-.13-.98-.35-2.31-.67-.96-.24-1.64-.54-2.03-.89-.39-.35-.59-.86-.59-1.52,0-.78.31-1.45.92-2.01.61-.56,1.48-.84,2.59-.84s1.92.21,2.58.63c.67.42,1.05,1.15,1.15,2.18h-2.21c-.03-.28-.11-.51-.24-.67-.24-.3-.66-.45-1.24-.45-.48,0-.83.08-1.03.22-.2.15-.31.33-.31.53,0,.25.11.44.33.55.22.12.99.32,2.31.61.88.21,1.54.52,1.98.94.43.42.65.95.65,1.59,0,.84-.31,1.52-.94,2.05-.62.53-1.59.79-2.89.79s-2.31-.28-2.95-.84c-.63-.56-.95-1.28-.95-2.14h2.24Z"/><path class="cls-3" d="m175.25,162.99c.05.39.15.67.3.84.28.29.78.44,1.53.44.44,0,.78-.06,1.04-.19.26-.13.39-.32.39-.58s-.1-.44-.31-.57c-.21-.13-.98-.35-2.31-.67-.96-.24-1.64-.54-2.03-.89-.39-.35-.59-.86-.59-1.52,0-.78.31-1.45.92-2.01.61-.56,1.48-.84,2.59-.84s1.92.21,2.58.63c.67.42,1.05,1.15,1.15,2.18h-2.21c-.03-.28-.11-.51-.24-.67-.24-.3-.66-.45-1.24-.45-.48,0-.83.08-1.03.22-.2.15-.31.33-.31.53,0,.25.11.44.33.55.22.12.99.32,2.31.61.88.21,1.54.52,1.98.94.43.42.65.95.65,1.59,0,.84-.31,1.52-.94,2.05-.62.53-1.59.79-2.89.79s-2.31-.28-2.95-.84c-.63-.56-.95-1.28-.95-2.14h2.24Z"/><path class="cls-3" d="m189.42,164.66c-.71.88-1.8,1.32-3.25,1.32s-2.54-.44-3.25-1.32c-.71-.88-1.07-1.94-1.07-3.18s.36-2.28,1.07-3.17,1.8-1.34,3.25-1.34,2.54.45,3.25,1.34c.71.89,1.07,1.95,1.07,3.17s-.36,2.3-1.07,3.18Zm-1.77-1.22c.35-.46.52-1.11.52-1.96s-.17-1.5-.52-1.96c-.35-.46-.84-.69-1.49-.69s-1.14.23-1.49.69c-.35.46-.52,1.11-.52,1.96s.17,1.5.52,1.96.85.69,1.49.69,1.14-.23,1.49-.69Z"/><path class="cls-3" d="m196.77,157.04s.09,0,.19.01v2.26c-.14-.02-.26-.03-.37-.03-.11,0-.2,0-.26,0-.89,0-1.49.29-1.79.87-.17.33-.26.83-.26,1.5v4.04h-2.23v-8.45h2.11v1.47c.34-.56.64-.95.89-1.16.41-.35.95-.52,1.61-.52.04,0,.08,0,.1,0Z"/><path class="cls-3" d="m200.53,156.23h-2.24v-2.04h2.24v2.04Zm-2.24,1.01h2.24v8.45h-2.24v-8.45Z"/><path class="cls-3" d="m208.18,157.41c.59.26,1.08.68,1.46,1.25.35.5.57,1.08.67,1.75.06.39.08.95.07,1.68h-6.16c.03.85.33,1.44.88,1.78.34.21.74.32,1.22.32.5,0,.91-.13,1.23-.39.17-.14.32-.33.45-.58h2.26c-.06.5-.33,1.01-.82,1.53-.76.82-1.82,1.23-3.18,1.23-1.13,0-2.12-.35-2.98-1.04-.86-.69-1.29-1.82-1.29-3.38,0-1.46.39-2.59,1.16-3.37.78-.78,1.78-1.17,3.02-1.17.74,0,1.4.13,1.99.4Zm-3.31,1.91c-.31.32-.51.76-.59,1.31h3.81c-.04-.59-.24-1.03-.59-1.34-.35-.3-.79-.46-1.31-.46-.57,0-1.01.16-1.32.48Z"/><path class="cls-3" d="m213.22,162.99c.05.39.15.67.3.84.28.29.78.44,1.53.44.44,0,.78-.06,1.04-.19.26-.13.39-.32.39-.58s-.1-.44-.31-.57c-.21-.13-.98-.35-2.31-.67-.96-.24-1.64-.54-2.03-.89-.39-.35-.59-.86-.59-1.52,0-.78.31-1.45.92-2.01.61-.56,1.48-.84,2.59-.84s1.92.21,2.58.63c.67.42,1.05,1.15,1.15,2.18h-2.21c-.03-.28-.11-.51-.24-.67-.24-.3-.66-.45-1.24-.45-.48,0-.83.08-1.03.22-.2.15-.31.33-.31.53,0,.25.11.44.33.55.22.12.99.32,2.31.61.88.21,1.54.52,1.98.94.43.42.65.95.65,1.59,0,.84-.31,1.52-.94,2.05-.62.53-1.59.79-2.89.79s-2.31-.28-2.95-.84c-.63-.56-.95-1.28-.95-2.14h2.24Z"/></svg>