<?xml version="1.0" encoding="UTF-8"?><svg id="Layer_1" xmlns="http://www.w3.org/2000/svg" viewBox="0 0 320 240"><defs><style>.cls-1{stroke-width:0px;}</style></defs><polygon class="cls-1" points="111.02 99.26 100.11 140.74 109.78 140.74 120.48 99.26 111.02 99.26"/><path class="cls-1" d="m76.65,140.74h10.26l-12.32-41.47h-9.47l-34.21,41.47h9.72l7.06-8.85h26.51l2.45,8.85Zm-23.06-16.25l13.8-17.3,4.77,17.3h-18.57Z"/><path class="cls-1" d="m278.79,140.74h10.29l-12.35-41.47h-9.46l-34.22,41.47h9.73l7-8.85h26.52l2.49,8.85Zm-23.06-16.25l13.8-17.3,4.78,17.3h-18.58Z"/><polygon class="cls-1" points="200.26 132.56 209.03 99.26 199.97 99.26 189.06 140.74 193.34 140.74 198.12 140.74 229.01 140.74 231.07 132.56 200.26 132.56"/><path class="cls-1" d="m177.08,99.26h-35.6l-10.91,41.47h9l4.34-16.16h25.59c9.27,0,11-6.89,11-6.89l3.09-12.56c1-5.76-6.51-5.86-6.51-5.86Zm-3.6,10.19c-.38,1.74-.86,3.45-1.44,5.14-.48,1.73-2.11,2.89-3.91,2.78h-22.36l3-11.22h22.24c3.39,0,2.47,3.3,2.47,3.3h0Z"/></svg>