<?xml version="1.0" encoding="UTF-8"?><svg id="Layer_1" xmlns="http://www.w3.org/2000/svg" viewBox="0 0 320 240"><rect x="59.57" y="94.79" width="36.5" height="9.16"/><rect x="96.08" y="103.96" width="18.25" height="9.13"/><rect x="87.26" y="76.69" width="8.81" height="8.81"/><path d="m170.07,48.77c-21.84-.01-40.68,15.34-45.08,36.74h9.58v-8.82h13.13c10-12.36,28.12-14.27,40.48-4.27s14.27,28.12,4.27,40.48c-10,12.36-28.12,14.27-40.48,4.27-1.51-1.22-2.89-2.59-4.12-4.09h-13.28v-9.12h8.22c-2.03-5.98-2.03-12.47,0-18.45h-8.22v9.26h-10.52c0,25.41,20.59,46,46,46s46-20.59,46-46-20.59-46-46-46h.02Z"/><path d="m105.2,85.51v9.26h18.84c0-3.12.32-6.23.94-9.28l-19.78.02Z"/><path d="m160.32,85.51v-8.82h-12.63c-2.13,2.63-3.78,5.61-4.87,8.82h17.5Z"/><path d="m170.07,103.96h-27.28c1.12,3.32,2.83,6.41,5.06,9.12h22.22v-9.12Z"/><rect x="160.32" y="85.51" width="18.67" height="9.28"/><rect x="225.21" y="85.51" width="18.45" height="9.28"/><rect x="252.99" y="94.79" width="8.75" height="8.75"/><path d="m85.76,191.24h12.89l-12.5-31.74h-14.89l-13,31.74h13.41l1.18-4h11.64l1.27,4Zm-10.96-10.47l3.66-12.29,3.93,12.29h-7.59Z"/><rect x="115.92" y="159.5" width="12.5" height="31.74"/><rect x="249.24" y="159.5" width="12.5" height="31.74"/><path d="m166.26,159.5h-16.09v31.74h12v-9.47h4.09s15.77,2.28,15.77-10.52-15.77-11.75-15.77-11.75Zm-.7,15.77h-3.3v-8.73h3s5.36-.4,5.36,4.13-5.02,4.6-5.02,4.6h-.04Z"/><path d="m215.84,159.5h-16.13v31.74h12.05v-9.47h4.08s15.77,2.28,15.77-10.52-15.77-11.75-15.77-11.75Zm-.7,15.77h-3.38v-8.73h3.08s5.36-.4,5.36,4.13-5.06,4.6-5.06,4.6h0Z"/></svg>