<svg width="161" height="70" viewBox="0 0 161 70" fill="none" xmlns="http://www.w3.org/2000/svg">
<path d="M38.0583 46.5137L32.7565 42.2527C32.258 42.706 31.5783 42.978 30.8533 42.978C29.222 42.978 27.9078 41.6635 27.9078 40.0316C27.9078 38.3997 29.222 37.0852 30.8533 37.0852C32.4846 37.0852 33.7987 38.3997 33.7987 40.0316C33.7987 40.5302 33.6628 41.0288 33.4362 41.4368L38.1036 45.1992V39.0343L30.9892 33.0508C30.6267 33.3228 30.1736 33.4588 29.6751 33.4588C28.4516 33.4588 27.5 32.4615 27.5 31.283C27.5 30.1044 28.4969 29.1071 29.6751 29.1071C30.8986 29.1071 31.8502 30.1044 31.8502 31.283C31.8502 31.6456 31.7596 31.9629 31.6236 32.2802L38.0583 37.7198V29.8324L34.3878 26.75C34.1613 26.886 33.9347 26.9313 33.6628 26.9313C32.8471 26.9313 32.2127 26.2967 32.2127 25.4808C32.2127 24.6648 32.8471 24.0302 33.6628 24.0302C34.4785 24.0302 35.1129 24.6648 35.1129 25.4808C35.1129 25.6621 35.0676 25.7981 35.0222 25.9794L38.013 28.5179V22.9876C37.0161 22.761 36.2457 21.8544 36.2457 20.7665C36.2457 19.4973 37.2427 18.5 38.5115 18.5C39.7803 18.5 40.7772 19.4973 40.7772 20.7665C40.7772 21.8544 40.0069 22.761 39.0099 22.9876V28.4725L42.0007 25.9341C41.9554 25.7981 41.9101 25.6168 41.9101 25.4354C41.9101 24.6195 42.5445 23.9849 43.3602 23.9849C44.1758 23.9849 44.8102 24.6195 44.8102 25.4354C44.8102 26.2514 44.1758 26.886 43.3602 26.886C43.0883 26.886 42.8617 26.8407 42.6351 26.7047L38.9646 29.7871V37.6744L45.3993 32.2349C45.2634 31.9176 45.1727 31.6003 45.1727 31.2376C45.1727 30.0137 46.1697 29.0618 47.3479 29.0618C48.5713 29.0618 49.523 30.0591 49.523 31.2376C49.523 32.4162 48.526 33.4135 47.3479 33.4135C46.8494 33.4135 46.3962 33.2775 46.0337 33.0055L38.9193 38.989V45.1085L43.5867 41.3462C43.3602 40.9382 43.2242 40.4396 43.2242 39.9409C43.2242 38.3091 44.5383 36.9945 46.1697 36.9945C47.801 36.9945 49.1151 38.3091 49.1151 39.9409C49.1151 41.5728 47.801 42.8874 46.1697 42.8874C45.4446 42.8874 44.7649 42.6154 44.2664 42.1621L38.9646 46.4231V51.5H37.9224V46.5137H38.0583ZM70.1412 42.978L68.0567 37.1758H60.897L58.8125 42.978H56.2749L63.0721 25.4808H65.9722L72.7241 42.978H70.1412ZM61.5767 35.272H67.377L64.5221 27.4753H64.4315L61.5767 35.272ZM74.0382 42.978V30.331H76.2586V42.978H74.0382ZM86.1373 32.2802C83.3277 32.0082 81.5605 33.7308 81.5605 37.3118V42.9327H79.34V30.2857H81.4245V33.4588H81.4698C82.1949 30.9657 84.0075 30.0137 86.1373 30.1951V32.2802ZM100.049 25.4808V27.4299H94.2486V42.978H91.9375V27.4299H86.1373V25.4808H100.049ZM106.438 32.2802C103.629 32.0082 101.861 33.7308 101.861 37.3118V42.9327H99.641V30.2857H101.726V33.4588H101.771C102.496 30.9657 104.308 30.0137 106.438 30.1951V32.2802ZM113.689 30.0137C118.311 30.0137 119.715 34.1841 119.58 37.2665H109.565C109.792 40.0769 111.151 41.4368 113.734 41.4368C115.456 41.4368 116.815 40.6209 117.178 38.9437H119.353C118.809 41.7541 116.589 43.25 113.734 43.25C109.565 43.25 107.48 40.4396 107.345 36.5865C107.39 32.7788 110.109 30.0137 113.689 30.0137ZM109.656 35.408H117.359C117.223 33.4135 115.818 31.8269 113.689 31.8269C111.649 31.8269 110.063 33.2775 109.656 35.408ZM127.6 30.0137C132.222 30.0137 133.627 34.1841 133.491 37.2665H123.477C123.703 40.0769 125.063 41.4368 127.646 41.4368C129.368 41.4368 130.727 40.6209 131.089 38.9437H133.265C132.721 41.7541 130.5 43.25 127.646 43.25C123.477 43.25 121.392 40.4396 121.256 36.5865C121.256 32.7788 124.02 30.0137 127.6 30.0137ZM123.522 35.408H131.225C131.089 33.4135 129.685 31.8269 127.555 31.8269C125.516 31.8269 123.93 33.2775 123.522 35.408ZM76.6212 26.75C76.6212 27.5659 75.9414 28.2459 75.1258 28.2459C74.3101 28.2459 73.6304 27.5659 73.6304 26.75C73.6304 25.9341 74.3101 25.2541 75.1258 25.2541C75.9414 25.2541 76.6212 25.9341 76.6212 26.75Z" fill="#494949"/>
</svg>
