<?xml version="1.0" encoding="UTF-8"?><svg id="Layer_1" xmlns="http://www.w3.org/2000/svg" viewBox="0 0 320 240"><defs><style>.cls-1{fill:#32329f;stroke-width:0px;}</style></defs><g id="HomePage"><g id="logo"><path id="Logo" class="cls-1" d="m66.39,145.4l-11.7-9.4c-1.2.9-2.7,1.5-4.3,1.5-3.5,0-6.4-2.9-6.4-6.4s2.9-6.5,6.5-6.5,6.5,2.9,6.5,6.5c0,1.1-.3,2.2-.8,3.1l10.2,8.3v-13.6l-15.7-13.2c-.8.6-1.8.9-2.9.9-2.6,0-4.8-2.1-4.8-4.8s2.2-4.8,4.8-4.8,4.8,2.2,4.8,4.8c0,.8-.2,1.5-.5,2.2l14.2,12v-17.5l-8.1-6.8c-.5.3-1,.4-1.6.4-1.8,0-3.2-1.4-3.2-3.2s1.4-3.2,3.2-3.2,3.2,1.4,3.2,3.2c0,.4-.1.7-.2,1.1l6.6,5.6v-12.2c-2.2-.5-3.9-2.5-3.9-4.9,0-2.8,2.2-5,5-5s5,2.2,5,5c0,2.4-1.7,4.4-3.9,4.9v12.1l6.6-5.6c-.1-.3-.2-.7-.2-1.1,0-1.8,1.4-3.2,3.2-3.2s3.2,1.4,3.2,3.2-1.4,3.2-3.2,3.2c-.6,0-1.1-.1-1.6-.4l-7.8,6.9v17.4l14.2-12c-.3-.7-.5-1.4-.5-2.2,0-2.7,2.2-4.8,4.8-4.8s4.8,2.2,4.8,4.8-2.2,4.8-4.8,4.8c-1.1,0-2.1-.3-2.9-.9l-15.6,13.3v13.6l10.3-8.3c-.5-.9-.8-2-.8-3.1,0-3.6,2.9-6.5,6.5-6.5s6.5,2.9,6.5,6.5-3,6.4-6.5,6.4c-1.6,0-3.1-.6-4.2-1.6l-11.7,9.4v11.2h-2.3s0-11.1,0-11.1Zm70.8-7.9l-4.6-12.8h-15.9l-4.6,12.8h-5.6l15-38.6h6.4l14.9,38.6h-5.6Zm-18.9-16.9h12.8l-6.3-17.2h-.2l-6.3,17.2Zm27.5,16.9v-27.9h4.9v27.9h-4.9Zm26.7-23.5c-6.2-.6-10.1,3.2-10.1,11.1v12.4h-4.9v-27.9h4.6v7h.1c1.6-5.5,5.6-7.6,10.3-7.2v4.6Zm30.7-15.1v4.3h-12.8v34.3h-5.1v-34.2h-12.8v-4.3h30.7v-.1Zm14.1,15.1c-6.2-.6-10.1,3.2-10.1,11.1v12.4h-4.9v-27.9h4.6v7h.1c1.6-5.5,5.6-7.6,10.3-7.2v4.6h0Zm16-5.1c10.2,0,13.3,9.2,13,16h-22.1c.5,6.2,3.5,9.2,9.2,9.2,3.8,0,6.8-1.8,7.6-5.5h4.8c-1.2,6.2-6.1,9.5-12.4,9.5-9.2,0-13.8-6.2-14.1-14.7.1-8.4,6.1-14.5,14-14.5Zm-8.9,12h17c-.3-4.4-3.4-7.9-8.1-7.9-4.5-.1-8,3.1-8.9,7.9Zm39.6-12c10.2,0,13.3,9.2,13,16h-22.1c.5,6.2,3.5,9.2,9.2,9.2,3.8,0,6.8-1.8,7.6-5.5h4.8c-1.2,6.2-6.1,9.5-12.4,9.5-9.2,0-13.8-6.2-14.1-14.7,0-8.4,6.1-14.5,14-14.5Zm-9,12h17c-.3-4.4-3.4-7.9-8.1-7.9-4.5-.1-8,3.1-8.9,7.9Zm-103.5-19.2c0,1.8-1.5,3.3-3.3,3.3s-3.3-1.5-3.3-3.3,1.5-3.3,3.3-3.3c1.8,0,3.3,1.5,3.3,3.3Z"/></g></g></svg>