<?xml version="1.0" encoding="UTF-8"?><svg id="Layer_1" xmlns="http://www.w3.org/2000/svg" xmlns:xlink="http://www.w3.org/1999/xlink" viewBox="0 0 320 240"><defs><style>.cls-1{fill:none;}.cls-2{fill:url(#linear-gradient);}.cls-3{fill:#383838;}</style><linearGradient id="linear-gradient" x1="151.8" y1="91.66" x2="86.89" y2="108.28" gradientUnits="userSpaceOnUse"><stop offset="0" stop-color="#ababab"/><stop offset="1" stop-color="#585858"/></linearGradient></defs><g id="Allthub"><path class="cls-1" d="m139.02,120.28h-.06s-.04,0-.1,0c-.75,0-5.71.14-9.51,3.81-3.16,3.05-4.76,7.74-4.76,13.94v.06c0,.08-.23,8.02,4.29,12.69,2.21,2.28,5.24,3.44,9.02,3.44s6.84-1.15,8.96-3.43c2.92-3.14,3.57-7.75,3.69-10.31v-10.04s.09-4.17-2.74-7.09c-1.97-2.03-4.93-3.06-8.8-3.06Z"/><path class="cls-2" d="m125.72,101.77l-1.91-.73-.36.95c-3.58,9.38-11.91,19.56-23.59,17.41-6.97-1.29-11.65-6.71-11.65-13.49,0-16.7,13.71-17.36,14.3-17.38h.08c.07-.01,7.38-.65,19.87,8.87,12.61,9.62,18.72,9.57,19.49,9.51,3.96-.01,7.11-1.74,9.1-5,1.55-2.54,2.1-5.56,2.1-7.54,0-5.38-3-11.65-11.46-11.65-8.97,0-14.43,11.62-14.66,12.11l-.43.93,1.85.86.43-.93c.05-.11,5.15-10.93,12.81-10.93,8.74,0,9.42,7.36,9.42,9.61,0,.11-.11,10.5-9.2,10.5h-.1c-.06,0-5.7.38-18.11-9.1-12.85-9.81-20.55-9.36-21.29-9.29-.46.02-4.27.25-8.11,2.62-3.71,2.29-8.13,7.06-8.13,16.79,0,7.68,5.48,14.05,13.32,15.49,1.09.2,2.18.3,3.29.3,3.72,0,7.48-1.13,10.84-3.29,4.98-3.21,9.04-8.63,11.74-15.69l.36-.95Z"/><path class="cls-3" d="m160.7,153.28c-.69-.36-1.52-.15-1.96.47-.12.09-.72.47-2.44.47-1.6,0-2.47-2.28-2.68-2.91v-10.61c.06-1.2.02-2.04,0-2.29v-7.9c.01-.51.04-5.51-3.58-9.27-2.56-2.66-6.26-4.02-11-4.02-.59-.02-6.86-.09-11.78,4.63-3.8,3.64-5.72,9.07-5.73,16.15-.02.69-.18,9.37,5.13,14.89,2.81,2.91,6.59,4.39,11.24,4.39s8.5-1.49,11.21-4.42c.54-.58,1.01-1.2,1.43-1.84v.72l.05.19c.52,1.99,2.31,5.35,5.69,5.35,3.74,0,4.8-1.47,5.04-1.93.39-.75.11-1.67-.64-2.07Zm-10.13-22.85v8.03s0,2.01,0,2.01c-.12,2.56-.78,7.17-3.69,10.31-2.11,2.28-5.13,3.43-8.96,3.43s-6.82-1.16-9.02-3.44c-4.51-4.67-4.29-12.62-4.29-12.69v-.06c0-6.2,1.6-10.89,4.76-13.94,3.8-3.67,8.76-3.81,9.51-3.81.06,0,.09,0,.1,0h.06c3.87,0,6.83,1.03,8.8,3.06,2.84,2.92,2.75,7.06,2.75,7.09Z"/><path class="cls-3" d="m177.54,153.28c-.69-.36-1.52-.15-1.96.47-.12.09-.72.47-2.44.47-1.6,0-2.47-2.28-2.68-2.91v-50.28c0-.85-.69-1.53-1.53-1.53s-1.53.68-1.53,1.53v50.71l.05.19c.52,1.99,2.31,5.35,5.69,5.35,3.74,0,4.8-1.47,5.04-1.93.39-.75.11-1.67-.64-2.07Z"/><path class="cls-3" d="m195.83,153.28c-.69-.36-1.52-.15-1.96.47-.12.09-.72.47-2.44.47-1.6,0-2.47-2.28-2.68-2.91v-50.28c0-.85-.69-1.53-1.53-1.53s-1.53.68-1.53,1.53v50.71l.05.19c.52,1.99,2.31,5.35,5.69,5.35,3.74,0,4.8-1.47,5.04-1.93.39-.75.1-1.67-.64-2.07Z"/><path class="cls-3" d="m220.03,151.55c-.72-.44-1.65-.23-2.1.49-.06.09-1.54,2.18-6.3,2.18-2.37,0-3.99-1.08-4.96-3.32-.8-1.85-.82-3.78-.82-3.79v-26.83h10.71c.84,0,1.53-.68,1.53-1.53s-.69-1.53-1.53-1.53h-10.71v-16.19c0-.85-.69-1.53-1.53-1.53s-1.53.68-1.53,1.53v46.08c0,.1.01,2.5,1.03,4.92,1.43,3.39,4.21,5.25,7.81,5.25,6.48,0,8.66-3.24,8.89-3.61.44-.72.23-1.68-.49-2.12Z"/><polygon class="cls-3" points="221.41 100.72 223.36 100.72 223.36 106.19 224.69 106.19 224.69 100.72 226.64 100.72 226.64 99.61 221.41 99.61 221.41 100.72"/><polygon class="cls-3" points="231.84 99.61 230.66 104.09 229.47 99.61 227.48 99.61 227.48 106.19 228.71 106.19 228.71 101.01 230.01 106.19 231.29 106.19 232.6 101.01 232.6 106.19 233.83 106.19 233.83 99.61 231.84 99.61"/></g></svg>