<?xml version="1.0" encoding="UTF-8"?><svg id="Layer_1" xmlns="http://www.w3.org/2000/svg" viewBox="0 0 320 240"><defs><style>.cls-1{fill:none;}.cls-2{fill:#0b0b0b;}.cls-3{fill:#787878;}</style></defs><path class="cls-1" d="m230.6,108.19c0,1.22,0,2.44,0,3.66,0,.3.02.51.41.51,1.11.01,2.22.06,3.32.07.44,0,.82-.17,1.17-.42.98-.71,1.71-1.6,2.07-2.77.87-2.76-.52-4.9-3.37-5.27-1.02-.13-2.04-.02-3.05,0-.43,0-.57.13-.55.57.03,1.22.01,2.44.01,3.66Z"/><path class="cls-1" d="m235.78,134.78c-1.51,0-3.02-.02-4.53,0-.44,0-.51-.18-.5-.55,0-.43,0-.87,0-1.3,0-1.3,0-2.6,0-3.89,0-.85,0-1.71,0-2.56,0-.85,0-1.71-.01-2.56,0-.47.14-.6.6-.6,1.42.03,2.84.01,4.26,0,.25,0,.49-.04.49.35,0,.4-.25.34-.49.34-1.13,0-2.26.03-3.39-.01-.54-.02-.69.18-.67.69.04.95.03,1.91,0,2.86-.02.48.13.67.63.66.97-.03,1.95-.01,2.93,0,.24,0,.56-.11.55.35-.01.45-.34.32-.58.32-1,.01-2,.02-2.99,0-.39,0-.54.11-.54.52.02,1.4.02,2.8,0,4.19,0,.43.17.52.55.51,1.22-.02,2.44,0,3.66,0,.23,0,.51-.08.52.32,0,.38-.24.35-.49.35Zm-6.37-23.05c0-2.69.01-5.37-.01-8.06,0-.49.1-.71.63-.72,1.46-.01,2.92-.21,4.39-.04,4.21.48,6.05,4.57,3.6,8.03-.45.64-.95,1.23-1.58,1.7-.29.22-.35.39-.11.69,1.22,1.55,2.39,3.14,3.64,4.67.79.97,1.82,1.63,3.08,1.84.4.07.35.29.36.56,0,.38-.25.28-.45.28-1.67-.03-2.98-.78-4.03-2.03-1.29-1.53-2.45-3.15-3.62-4.77-.23-.32-.47-.45-.87-.46-1.11,0-2.22-.05-3.33-.11-.41-.02-.53.07-.52.49.02,2.04,0,4.08.02,6.13,0,.46-.1.6-.58.6-.48,0-.65-.09-.64-.62.03-2.73.01-5.46.01-8.19Zm-148.69,8.8c-.54,0-.71-.11-.71-.68.02-1.36.02-2.73.02-4.09,0-1.36,0-2.73,0-4.09,0-2.01,0-4.03,0-6.04,0-.67,0-1.34-.01-2.01,0-.49.08-.69.64-.68,2.31.04,4.62.02,6.92,0,.41,0,.64.02.64.55,0,.58-.31.51-.67.51-1.93,0-3.86.01-5.79-.01-.44,0-.56.12-.55.55.02,1.8.02,3.6,0,5.39,0,.42.12.52.52.52,1.75-.02,3.51,0,5.26-.02.44,0,.57.12.57.56,0,.46-.2.49-.57.48-1.75-.01-3.51,0-5.26-.02-.4,0-.53.09-.52.51.02,2.33.02,4.66,0,6.99,0,.46.16.54.57.54,2.04-.02,4.08,0,6.13-.02.4,0,.6.05.59.53,0,.46-.17.54-.58.54-2.4-.02-4.79-.03-7.19,0Zm15.52,3.33c-1.5,3.53-3.01,7.06-4.52,10.59-.08.19-.12.45-.43.43-.26-.01-.3-.23-.38-.4-1.54-3.59-3.08-7.18-4.61-10.77-.04-.1-.06-.2-.09-.31.58-.21.85,0,1.07.54,1.24,3.02,2.52,6.02,3.79,9.02.06.15.07.35.34.44.56-1.32,1.11-2.64,1.67-3.96.78-1.84,1.55-3.68,2.32-5.52.05-.12.1-.25.16-.37.16-.33.48-.26.7-.19.3.11.05.35-.01.49Zm14.11-3.33c-2.73-.02-5.46-.02-8.19,0-.5,0-.57-.18-.57-.61,0-.68,0-1.36,0-2.05,0-2.05,0-4.09,0-6.14,0-.68,0-1.36,0-2.05,0-2.05,0-4.09-.02-6.14,0-.52.15-.62.64-.62.48,0,.58.15.58.61-.02,5.08,0,10.16-.02,15.24,0,.57.16.68.7.68,2.29-.03,4.57,0,6.86-.02.41,0,.58.08.57.54,0,.43-.11.57-.55.56Zm6.27,14.25c-1.49,0-2.97-.02-4.46.01-.44,0-.57-.13-.56-.56.01-.86.01-1.73.01-2.6,0-.87,0-1.73,0-2.6s0-1.69,0-2.53,0-1.69-.02-2.53c-.01-.55.17-.67.68-.66,1.37.03,2.75.01,4.13.01.26,0,.55-.05.53.38-.01.41-.3.31-.52.31-1.15,0-2.31.02-3.46,0-.44,0-.58.14-.57.57.03,1.02.02,2.04,0,3.06,0,.42.11.59.56.57,1.02-.03,2.04-.01,3.06,0,.23,0,.5-.06.5.34,0,.39-.26.34-.5.34-1.04,0-2.09.01-3.13,0-.37,0-.5.1-.5.49.02,1.42.02,2.84,0,4.26,0,.39.15.49.51.48,1.24-.02,2.48,0,3.73,0,.24,0,.5-.06.51.33,0,.39-.26.34-.5.34Zm14.34-14.26c-2.44-.02-4.88-.02-7.32,0-.5,0-.57-.17-.57-.61.01-2.05.01-4.09.01-6.14,0-.68,0-1.36,0-2.05s0-1.35,0-2.03c0-2.03,0-4.06-.01-6.09,0-.49.07-.69.64-.68,2.31.04,4.62.02,6.92,0,.41,0,.64.02.64.54,0,.57-.31.51-.67.51-1.93,0-3.86,0-5.79-.01-.43,0-.56.11-.55.55.03,1.8.02,3.6,0,5.39,0,.41.11.52.52.52,1.75-.02,3.51,0,5.26-.02.43,0,.57.11.57.55,0,.46-.2.49-.56.49-1.75-.01-3.51,0-5.26-.02-.39,0-.53.08-.53.51.02,2.33.02,4.66,0,6.99,0,.46.15.54.57.54,2.04-.02,4.08,0,6.13-.01.39,0,.6.04.6.52,0,.46-.16.54-.58.54Zm11.63,14.33c-.26.09-.38-.18-.52-.34-2.58-2.96-5.15-5.93-7.73-8.89-.17-.19-.28-.45-.6-.56,0,.46,0,.89,0,1.32,0,2.6,0,5.19,0,7.79,0,.25.16.6-.35.61-.52.02-.43-.31-.43-.62,0-3.44,0-6.88,0-10.32,0-.2-.12-.49.15-.59.26-.1.38.18.52.34,2.63,3.04,5.25,6.07,7.88,9.11.12.14.2.34.46.42,0-.32,0-.62,0-.92,0-2.75,0-5.5,0-8.25,0-.25-.15-.6.35-.62.53-.02.42.33.42.63,0,3.44,0,6.88,0,10.32,0,.2.13.49-.15.59Zm14.54-14.35q-1.13.05-1.57-1c-.64-1.54-1.28-3.07-1.9-4.61-.15-.36-.33-.5-.73-.49-2.26.02-4.53.02-6.79,0-.43,0-.61.16-.77.54-.62,1.56-1.29,3.11-1.93,4.67q-.41,1-1.61.84c.4-.95.79-1.89,1.18-2.83,1.98-4.75,3.96-9.49,5.95-14.24.11-.26.13-.6.58-.6.45,0,.47.33.58.6,2.3,5.48,4.6,10.96,6.9,16.43.08.2.16.41.24.61-.06.03-.1.06-.14.07Zm8.86,3.52c-.91,0-1.82.03-2.73,0-.5-.02-.64.13-.64.63.02,3.17.01,6.34,0,9.51,0,.2.13.5-.15.58-.34.11-.64.09-.63-.44,0-.41,0-.82.01-1.23,0-1.23,0-2.46,0-3.69,0-1.18,0-2.36,0-3.54,0-.39,0-.79.01-1.18,0-.48-.11-.67-.63-.64-.93.04-1.86.01-2.79.01-.22,0-.45.04-.46-.31-.01-.37.2-.38.47-.38,2.53,0,5.06,0,7.58,0,.26,0,.48,0,.47.37,0,.41-.29.32-.51.32Zm4.94-18.25c-.08-.09-.17-.18-.37-.39,0,.95,0,1.72,0,2.5,0,4.02-.01,8.04.01,12.06,0,.55-.2.58-.65.6-.53.02-.55-.22-.55-.63.01-5.51,0-11.02.01-16.52,0-.2-.15-.48.15-.58.29-.1.49.09.67.31,4.15,4.81,8.29,9.62,12.45,14.42.13.15.22.48.46.39.29-.11.12-.43.12-.65,0-4.62-.01-9.24-.05-13.86,0-.54.29-.47.62-.49.39-.02.59.03.58.52-.02,5.57-.01,11.15-.02,16.72,0,.17.14.42-.18.49-.28.06-.45-.1-.62-.29-1.61-1.87-3.23-3.72-4.84-5.59-2.6-3-5.21-6.01-7.81-9.01Zm19.64,24.76c0,.78-.18,1.54-.52,2.25-.52,1.06-1.33,1.75-2.49,2.03-.92.22-1.85.23-2.77.03-1.75-.39-2.86-1.72-3.09-3.72-.15-1.26-.06-2.53-.07-3.79-.01-1.18,0-2.35,0-3.53,0-.26,0-.47.37-.48.38,0,.43.17.43.49-.01,1.18,0,2.35,0,3.53h.04c0,1.18-.07,2.36.01,3.53.21,2.92,3.08,4.42,5.66,2.98.95-.53,1.37-1.41,1.57-2.43.12-.64.12-1.28.12-1.92,0-1.89,0-3.77,0-5.66,0-.3.01-.51.41-.5.37,0,.37.21.37.48,0,2.24,0,4.48-.02,6.72Zm14.66-9.86c-3.29-.55-6.08-3.36-6.76-6.81-.14-.7-.19-1.41-.21-2.01,0-4.19,2.36-7.68,5.9-8.8,5.51-1.75,11.01,2.06,11.36,7.86.12,1.97-.18,3.85-1.18,5.58-1.89,3.28-5.24,4.82-9.11,4.17Zm11.33,14.06c-.08.28-.33.17-.5.16-1.01-.07-1.81-.57-2.43-1.35-.76-.95-1.5-1.93-2.22-2.91-.23-.32-.48-.46-.88-.45-.6.01-1.2-.02-1.79-.07-.37-.03-.51.09-.5.48.02,1.22,0,2.44,0,3.66,0,.25.09.54-.36.55-.45,0-.44-.24-.43-.55,0-1.73,0-3.46,0-5.19,0-1.71.01-3.42,0-5.12,0-.44.13-.59.56-.59.84,0,1.68-.12,2.53-.03,1.31.14,2.44.6,2.98,1.9.53,1.28.25,2.48-.6,3.55-.14.17-.25.39-.43.5-.7.43-.59.85-.11,1.4.61.7,1.15,1.47,1.72,2.2.55.7,1.21,1.23,2.09,1.45.22.05.47.09.38.41Z"/><path class="cls-1" d="m212.89,126.53c.02-1.26-.57-2.06-1.77-2.4-.85-.24-1.71-.14-2.58-.12-.32,0-.34.21-.34.45,0,.75,0,1.51,0,2.26v1.13q0,1.63,1.62,1.66c1.77.04,3.03-1.19,3.06-2.98Z"/><path class="cls-1" d="m214.25,111.46c-.01-.45-.06-1.13-.2-1.81-.7-3.3-3.31-5.68-6.52-5.9-3.44-.24-6.26,1.55-7.44,4.76-.58,1.58-.67,3.2-.41,4.86.51,3.32,2.96,5.82,6.16,6.29,3.25.48,6.2-1.12,7.62-4.14.57-1.21.8-2.49.79-4.06Z"/><path class="cls-2" d="m184.19,120.65c.32-.06.18-.32.18-.49,0-5.57,0-11.15.02-16.72,0-.49-.2-.54-.58-.52-.34.02-.63-.05-.62.49.04,4.62.04,9.24.05,13.86,0,.22.17.54-.12.65-.24.09-.33-.24-.46-.39-4.15-4.8-8.3-9.61-12.45-14.42-.18-.21-.38-.41-.67-.31-.29.1-.15.38-.15.58,0,5.51,0,11.02-.01,16.52,0,.41.02.65.55.63.45-.02.66-.06.65-.6-.03-4.02-.01-8.04-.01-12.06,0-.77,0-1.54,0-2.5.2.21.28.3.37.39,2.6,3,5.21,6.01,7.81,9.01,1.61,1.86,3.23,3.72,4.84,5.59.17.2.34.35.62.29Z"/><path class="cls-2" d="m214.33,116.49c1-1.73,1.3-3.61,1.18-5.58-.35-5.8-5.85-9.61-11.36-7.86-3.54,1.12-5.91,4.61-5.9,8.8.02.6.07,1.31.21,2.01.68,3.45,3.47,6.26,6.76,6.81,3.87.64,7.22-.89,9.11-4.17Zm-8.5,3.17c-3.2-.47-5.65-2.98-6.16-6.29-.26-1.65-.17-3.28.41-4.86,1.18-3.21,4-5,7.44-4.76,3.21.23,5.82,2.6,6.52,5.9.14.68.19,1.36.2,1.81,0,1.57-.22,2.85-.79,4.06-1.42,3.02-4.37,4.62-7.62,4.14Z"/><path class="cls-2" d="m230.03,120.53c.48,0,.58-.14.58-.6-.03-2.04,0-4.08-.02-6.13,0-.42.12-.52.52-.49,1.11.07,2.22.11,3.33.11.4,0,.64.14.87.46,1.17,1.62,2.34,3.24,3.62,4.77,1.05,1.25,2.36,2,4.03,2.03.21,0,.46.1.45-.28,0-.27.04-.49-.36-.56-1.25-.21-2.29-.87-3.08-1.84-1.24-1.53-2.42-3.12-3.64-4.67-.24-.31-.18-.47.11-.69.62-.47,1.13-1.07,1.58-1.7,2.44-3.46.6-7.55-3.6-8.03-1.47-.17-2.93.03-4.39.04-.54,0-.64.22-.63.72.02,2.69.01,5.37.01,8.06,0,2.73.02,5.46-.01,8.19,0,.52.16.61.64.62Zm1.11-16.57c1.02-.02,2.03-.12,3.05,0,2.85.37,4.24,2.51,3.37,5.27-.37,1.17-1.1,2.06-2.07,2.77-.35.25-.73.43-1.17.42-1.11-.02-2.22-.06-3.32-.07-.39,0-.41-.21-.41-.51,0-1.22,0-2.44,0-3.66s.02-2.44-.01-3.66c-.01-.44.13-.56.55-.57Z"/><path class="cls-2" d="m150.12,103.39c-.11-.27-.13-.6-.58-.6-.46,0-.47.34-.58.6-1.99,4.74-3.97,9.49-5.95,14.24-.39.94-.78,1.88-1.18,2.83q1.2.15,1.61-.84c.65-1.56,1.31-3.11,1.93-4.67.15-.38.33-.54.77-.54,2.26.02,4.53.02,6.79,0,.4,0,.59.13.73.49.62,1.54,1.26,3.08,1.9,4.61q.43,1.05,1.57,1s.07-.03.14-.07c-.08-.2-.15-.41-.24-.61-2.3-5.48-4.6-10.96-6.9-16.43Zm-3.65,10.03c-.56,0-.36-.26-.25-.53.85-2.07,1.71-4.13,2.56-6.2.23-.57.44-1.14.69-1.8,1.2,2.87,2.36,5.64,3.56,8.52-2.27,0-4.42-.01-6.57,0Z"/><path class="cls-2" d="m130.93,119.46c-2.04.01-4.08,0-6.13.01-.41,0-.57-.07-.57-.54.03-2.33.02-4.66,0-6.99,0-.42.13-.51.53-.51,1.75.02,3.51,0,5.26.02.37,0,.57-.03.56-.49,0-.45-.14-.56-.57-.55-1.75.02-3.51,0-5.26.02-.41,0-.53-.11-.52-.52.02-1.8.02-3.6,0-5.39,0-.44.13-.55.55-.55,1.93.02,3.86,0,5.79.01.37,0,.68.06.67-.51,0-.53-.24-.55-.64-.54-2.31.01-4.62.03-6.92,0-.57,0-.64.19-.64.68.02,2.03.01,4.06.01,6.09,0,.68,0,1.35,0,2.03s0,1.36,0,2.05c0,2.05,0,4.09-.01,6.14,0,.44.07.62.57.61,2.44-.03,4.88-.02,7.32,0,.42,0,.58-.08.58-.54,0-.48-.21-.53-.6-.52Z"/><path class="cls-2" d="m88.48,119.98c0-.48-.2-.53-.59-.53-2.04.02-4.08,0-6.13.02-.41,0-.57-.07-.57-.54.03-2.33.02-4.66,0-6.99,0-.42.13-.51.52-.51,1.75.02,3.51,0,5.26.02.36,0,.57-.02.57-.48,0-.44-.13-.56-.57-.56-1.75.02-3.51,0-5.26.02-.4,0-.53-.1-.52-.52.02-1.8.02-3.6,0-5.39,0-.44.11-.56.55-.55,1.93.02,3.86,0,5.79.01.36,0,.68.07.67-.51,0-.52-.23-.55-.64-.55-2.31.02-4.62.03-6.92,0-.56,0-.64.19-.64.68,0,.67,0,1.34.01,2.01,0,2.01,0,4.03,0,6.04,0,1.36,0,2.73,0,4.09,0,1.36,0,2.73-.02,4.09,0,.57.17.69.71.68,2.4-.03,4.79-.02,7.19,0,.41,0,.58-.08.58-.54Z"/><path class="cls-2" d="m110.32,119.42c-2.29.02-4.57-.01-6.86.02-.54,0-.7-.11-.7-.68.02-5.08,0-10.16.02-15.24,0-.45-.1-.61-.58-.61-.48,0-.64.1-.64.62.02,2.05.02,4.09.02,6.14,0,.68,0,1.36,0,2.05,0,2.05,0,4.09,0,6.14,0,.68,0,1.36,0,2.05,0,.44.07.62.57.61,2.73-.03,5.46-.02,8.19,0,.45,0,.55-.14.55-.56.01-.46-.16-.54-.57-.54Z"/><path class="cls-3" d="m142.74,123.95c0-.29.11-.65-.42-.63-.5.02-.35.37-.35.62,0,2.75,0,5.5,0,8.25,0,.3,0,.6,0,.92-.27-.08-.34-.28-.46-.42-2.63-3.03-5.26-6.07-7.88-9.11-.14-.16-.26-.43-.52-.34-.27.1-.15.39-.15.59,0,3.44,0,6.88,0,10.32,0,.3-.09.63.43.62.51-.02.35-.37.35-.61,0-2.6,0-5.19,0-7.79,0-.43,0-.86,0-1.32.32.11.44.37.6.56,2.58,2.96,5.15,5.93,7.73,8.89.14.16.25.43.52.34.28-.09.15-.38.15-.59,0-3.44,0-6.88,0-10.32Z"/><path class="cls-3" d="m216.17,134.31c-.88-.22-1.55-.75-2.09-1.45-.57-.74-1.11-1.5-1.72-2.2-.48-.55-.59-.97.11-1.4.18-.11.3-.33.43-.5.85-1.08,1.13-2.27.6-3.55-.54-1.3-1.67-1.76-2.98-1.9-.84-.09-1.68.04-2.53.03-.43,0-.57.15-.56.59.02,1.71,0,3.42,0,5.12,0,1.73,0,3.46,0,5.19,0,.31-.01.56.43.55.45,0,.36-.3.36-.55,0-1.22.01-2.44,0-3.66,0-.39.13-.51.5-.48.6.05,1.2.08,1.79.07.4,0,.65.13.88.45.72.99,1.46,1.96,2.22,2.91.62.78,1.42,1.27,2.43,1.35.18.01.43.12.5-.16.09-.32-.17-.36-.38-.41Zm-6.34-4.8q-1.62-.04-1.62-1.66v-1.13c0-.75,0-1.51,0-2.26,0-.24.02-.45.34-.45.86-.01,1.73-.12,2.58.12,1.2.35,1.79,1.15,1.77,2.4-.03,1.79-1.29,3.02-3.06,2.98Z"/><path class="cls-3" d="m190.2,123.32c-.4,0-.41.21-.41.5,0,1.89,0,3.77,0,5.66,0,.64,0,1.29-.12,1.92-.19,1.02-.62,1.9-1.57,2.43-2.58,1.44-5.45-.06-5.66-2.98-.08-1.17-.01-2.35-.01-3.53h-.04c0-1.18,0-2.35,0-3.53,0-.31-.05-.49-.43-.49-.37,0-.37.22-.37.48,0,1.18,0,2.35,0,3.53.01,1.26-.07,2.53.07,3.79.23,1.99,1.34,3.33,3.09,3.72.92.2,1.85.19,2.77-.03,1.16-.28,1.97-.97,2.49-2.03.35-.71.51-1.47.52-2.25.02-2.24.01-4.48.02-6.72,0-.27,0-.47-.37-.48Z"/><path class="cls-3" d="m235.75,134.1c-1.22,0-2.44-.01-3.66,0-.38,0-.56-.09-.55-.51.02-1.4.02-2.8,0-4.19,0-.42.14-.53.54-.52,1,.02,2,.01,2.99,0,.23,0,.56.13.58-.32.01-.46-.31-.34-.55-.35-.98,0-1.95-.03-2.93,0-.51.02-.65-.17-.63-.66.03-.95.03-1.91,0-2.86-.02-.52.13-.71.67-.69,1.13.04,2.26.01,3.39.01.24,0,.49.05.49-.34,0-.39-.24-.35-.49-.35-1.42,0-2.84.02-4.26,0-.46,0-.61.13-.6.6.01.85.02,1.71.01,2.56,0,.85,0,1.71,0,2.56,0,1.3,0,2.6,0,3.89,0,.43,0,.87,0,1.3,0,.38.06.56.5.55,1.51-.02,3.02-.01,4.53,0,.25,0,.5.03.49-.35,0-.4-.29-.32-.52-.32Z"/><path class="cls-3" d="m95.54,123.55c-.06.12-.11.24-.16.37-.78,1.84-1.55,3.68-2.32,5.52-.56,1.32-1.11,2.64-1.67,3.96-.26-.08-.27-.28-.34-.44-1.27-3-2.54-6.01-3.79-9.02-.22-.53-.49-.75-1.07-.54.03.1.04.21.09.31,1.54,3.59,3.08,7.18,4.61,10.77.08.18.12.39.38.4.31.01.35-.24.43-.43,1.51-3.53,3.02-7.06,4.52-10.59.06-.15.32-.39.01-.49-.22-.08-.54-.15-.7.19Z"/><path class="cls-3" d="m116.61,134.1c-1.24,0-2.48-.01-3.73,0-.36,0-.51-.09-.51-.48.02-1.42.02-2.84,0-4.26,0-.39.13-.49.5-.49,1.04.02,2.09,0,3.13,0,.24,0,.5.06.5-.34,0-.4-.27-.34-.5-.34-1.02,0-2.04-.02-3.06,0-.45.01-.57-.15-.56-.57.02-1.02.03-2.04,0-3.06-.01-.43.13-.58.57-.57,1.15.03,2.31.01,3.46,0,.22,0,.51.1.52-.31.02-.43-.27-.38-.53-.38-1.38,0-2.75.02-4.13-.01-.51-.01-.69.11-.68.66.02.84.02,1.69.02,2.53s0,1.69,0,2.53,0,1.73,0,2.6c0,.86,0,1.73-.01,2.6,0,.44.12.57.56.56,1.49-.03,2.97,0,4.46-.01.24,0,.5.05.5-.34,0-.39-.27-.33-.51-.33Z"/><path class="cls-3" d="m166.02,123.33c-2.53,0-5.06,0-7.58,0-.27,0-.48.01-.47.38.01.35.24.31.46.31.93,0,1.86.03,2.79-.01.52-.02.63.16.63.64,0,.39-.01.79-.01,1.18,0,1.18,0,2.36,0,3.54,0,1.23,0,2.46,0,3.69,0,.41,0,.82-.01,1.23,0,.53.29.55.63.44.28-.09.15-.38.15-.58,0-3.17.02-6.34,0-9.51,0-.5.14-.65.64-.63.91.04,1.82.01,2.73,0,.22,0,.51.09.51-.32,0-.37-.21-.37-.47-.37Z"/></svg>