<?xml version="1.0" encoding="UTF-8"?><svg id="Layer_1" xmlns="http://www.w3.org/2000/svg" viewBox="0 0 320 240"><defs><style>.cls-1{fill:#d6a5a6;}.cls-1,.cls-2,.cls-3,.cls-4{stroke-width:0px;}.cls-2{fill:#b15456;}.cls-3{fill:#981c1f;}.cls-4{fill:#991c1f;}</style></defs><path class="cls-3" d="m175,123.59c-1.52.02-3.05.07-4.57-.02-.78-.04-1.06.27-1.28.94-1.35,4.17-2.95,8.26-4.2,12.48-.06-.04-.14-.06-.15-.1-1.15-4.34-2.86-8.5-4.25-12.76-.12-.38-.26-.55-.69-.54-1.72.02-3.44.02-5.16,0-.45,0-.57.14-.57.58.01,5.88.01,11.75,0,17.63,0,.48.2.55.6.54.82-.02,1.64-.06,2.45,0,.71.06.81-.22.81-.85-.04-4.33-.05-8.66-.06-12.99-.22-.39-.12-.81-.14-1.46.19.51.35.78.31,1.12.14.77.35,1.53.62,2.27,1.11,3.08,2.19,6.18,3.3,9.26.31.86.42,2.05,1.04,2.48.63.44,1.79.13,2.72.15.03,0,.06,0,.08,0,.43.07.65-.1.78-.54.26-.86.59-1.69.87-2.54,1.2-3.64,2.61-7.22,3.67-10.91-.04-.23.04-.42.3-.74-.03.52.04.9-.14,1.26-.01,4.25,0,8.49-.04,12.74,0,.58.13.78.73.74.98-.05,1.97-.04,2.96,0,.45.02.56-.14.56-.57-.01-5.88-.01-11.75,0-17.63,0-.46-.16-.56-.58-.55Z"/><path class="cls-3" d="m246.48,123.59c-.93.03-1.86.05-2.79,0-.61-.03-.74.17-.74.75.03,3.57,0,7.14,0,10.71,0,0,0,0,0,0h0c.22.37.06.78.12,1.17,0,.01-.04.03-.05.05-.03-.05-.06-.11-.09-.16h0c-.1-.12-.22-.24-.31-.38-2.52-3.86-5.05-7.71-7.55-11.58-.28-.43-.57-.59-1.08-.57-1.1.04-2.2.04-3.3,0-.5-.02-.6.16-.6.63.01,5.85.02,11.69,0,17.54,0,.52.2.6.64.59.87-.03,1.75-.05,2.62,0,.61.04.81-.11.8-.77-.04-3.63-.02-7.25-.02-10.88v-1.34c.24.33.37.5.48.67,2.56,3.9,5.13,7.79,7.67,11.7.29.45.61.64,1.16.61,1.01-.05,2.03-.03,3.04,0,.41.01.52-.13.52-.53-.01-5.9-.01-11.8,0-17.71,0-.41-.13-.53-.53-.52Z"/><path class="cls-3" d="m131.01,133.2c-.35-.47-.42-.78-.03-1.28.93-1.16,1.78-2.39,2.66-3.59,1.12-1.53,2.24-3.07,3.46-4.73-1.73,0-3.29,0-4.85,0-.29,0-.38.2-.5.38-1.78,2.69-3.56,5.38-5.46,8.24v-.8c0-2.39-.01-4.78.01-7.17,0-.5-.1-.7-.64-.67-1.01.05-2.03.03-3.04,0-.47-.01-.65.11-.63.61.04.87.01,1.74.01,2.61,0,4.92.01,9.84-.02,14.75,0,.64.16.82.8.78.96-.06,1.92-.05,2.87,0,.54.02.66-.16.65-.67-.03-1.35-.01-2.7-.01-4.05v-4.17c1.93,2.88,3.79,5.65,5.64,8.42.13.2.23.46.55.46,1.67,0,3.34,0,5.14,0-.25-.36-.41-.58-.57-.81-2.01-2.78-4.02-5.56-6.05-8.32Z"/><path class="cls-3" d="m221.3,124.02c-.14-.4-.37-.42-.7-.42-1.24,0-2.48.04-3.72-.01-.62-.03-.86.2-1.06.76-2.06,5.7-4.15,11.39-6.23,17.08-.1.28-.3.54-.2.91,1.35,0,2.7-.02,4.06,0,.41,0,.51-.18.61-.52.3-1.02.66-2.03.96-3.05.12-.41.31-.59.76-.58,1.83.02,3.67.02,5.5,0,.45,0,.63.16.75.58.29,1.02.65,2.03.96,3.05.11.38.29.53.71.52,1.32-.03,2.65-.01,4.03-.01,0-.13.02-.19,0-.24-2.14-6.02-4.29-12.04-6.42-18.07Zm-.95,10.9c-1.37-.02-2.75,0-4.21,0,.8-2.5,1.57-4.92,2.36-7.41.3.95.59,1.86.88,2.77.43,1.36.86,2.72,1.3,4.08.11.34.2.58-.33.57Z"/><path class="cls-3" d="m188.44,123.74c-2.64-.32-5.3-.07-7.94-.14-.59-.02-.43.39-.43.69,0,2.87,0,5.74,0,8.6s.01,5.85-.01,8.77c0,.49.09.7.64.68.98-.05,1.97-.04,2.96,0,.55.02.73-.13.71-.69-.04-1.66.02-3.32-.03-4.98-.02-.66.19-.79.8-.77,1.47.06,2.93.01,4.34-.47,2.99-1.01,4.6-3.48,4.28-6.63-.3-3.03-1.98-4.66-5.33-5.06Zm-1.25,8.8c-.75.17-1.51.12-2.27.15-.45.02-.59-.14-.58-.57.03-.81,0-1.63,0-2.44,0-.73.02-1.46,0-2.19-.01-.41.07-.63.55-.6.7.05,1.41,0,2.11.1,1.4.18,2.24,1.12,2.29,2.48.06,1.75-.62,2.74-2.1,3.08Z"/><path class="cls-3" d="m149.82,138.85c-1.83.03-3.66,0-5.5.02-.54,0-.75-.13-.72-.7.05-.95.04-1.91,0-2.86-.02-.53.17-.67.68-.66,1.61.03,3.21,0,4.82.02.51,0,.71-.13.68-.66-.04-.7-.05-1.41,0-2.11.05-.63-.21-.73-.77-.72-1.55.04-3.1-.01-4.65.03-.57.01-.8-.11-.76-.73.06-.84.05-1.69,0-2.53-.04-.64.12-.87.82-.85,1.66.05,3.33,0,4.99.03.59.01.88-.08.82-.76-.06-.7-.06-1.41,0-2.1.05-.6-.21-.67-.72-.67-3.13.02-6.26.02-9.38,0-.58,0-.76.14-.75.74.03,2.87.01,5.73.01,8.6,0,2.92,0,5.84,0,8.77,0,.43.04.66.58.65,3.38-.02,6.76-.02,10.15,0,.43,0,.6-.11.58-.56-.04-.7-.06-1.41,0-2.11.07-.72-.24-.83-.86-.82Z"/><path class="cls-3" d="m250.71,123.58c-.59,0-.7.2-.67.72.04.67.05,1.35,0,2.02-.05.61.1.84.77.81,1.24-.06,2.48.03,3.72-.04.74-.04.87.22.86.9-.03,4.47,0,8.94-.04,13.41,0,.8.24,1,.98.94.78-.06,1.58-.06,2.37,0,.74.06.99-.13.99-.94-.05-4.47,0-8.94-.04-13.41,0-.78.23-.92.94-.9,1.44.05,2.88.01,4.31.01,0-1.17.01-2.33.02-3.5-4.74,0-9.47,0-14.21-.03Z"/><path class="cls-4" d="m206.85,138.85c-1.75.05-3.49-.02-5.24.04-.73.02-.87-.21-.87-.89.03-4.55,0-9.1.03-13.65,0-.58-.12-.79-.73-.76-.93.05-1.86.06-2.79,0-.63-.04-.81.14-.8.78.04,2.84.02,5.67.02,8.51s0,5.84,0,8.76c0,.45.02.71.61.7,3.35-.03,6.71-.02,10.06,0,.44,0,.6-.11.58-.57-.04-.67-.05-1.35,0-2.02.06-.68-.13-.93-.86-.9Z"/><path class="cls-1" d="m157.95,128.51c.06-.11.11-.23.17-.34.04-.34-.12-.61-.31-1.12.02.65-.08,1.07.14,1.46Z"/><path class="cls-4" d="m106.01,113.04c0-3.51-2.05-5.56-5.56-5.56-11.84,0-23.68,0-35.53,0-1.55,0-3.1-.02-4.65,0-3.11.05-5.36,2.07-5.37,4.89-.02,13.66-.01,27.32,0,40.99,0,2.3,1.4,4.14,3.58,4.89.17.06.41.03.47.28h.68c.25-.29.58-.16.87-.16,13.13,0,26.26,0,39.39,0,.29,0,.63-.13.87.16h.68c.03-.13.13-.15.25-.17,2.92-.63,4.32-2.37,4.32-5.34,0-13.32,0-26.65,0-39.97Zm-5.78,44.14c-6.63,0-13.26,0-19.88,0s-13.2,0-19.8,0c-2.73,0-4.11-1.26-4.34-3.97-.03-.31-.03-.62-.03-.93,0-12.93,0-25.87,0-38.8,0-.62,0-1.25.14-1.84.37-1.66,1.68-2.65,3.65-2.85.36-.04.73-.03,1.1-.03,13,0,26,0,39.01,0,3.25,0,4.67,1.42,4.67,4.7,0,13.08,0,26.15,0,39.23,0,3.04-1.46,4.5-4.51,4.5Z"/><path class="cls-2" d="m99.9,158.37c-13.13,0-26.26,0-39.39,0-.29,0-.63-.12-.87.16h41.13c-.24-.29-.58-.16-.87-.16Z"/><path class="cls-3" d="m98.94,118.85c-3.19,0-6.37,0-9.56,0-.34,0-.67.04-.98.21-1.38.75-2.77,1.5-4.16,2.24-.5.26-.58.47-.02.78.8.43.84.67.21,1.29-1.17,1.14-2.44,2.15-3.95,3.24.45-2.1.87-3.99,1.25-5.88.09-.48.27-.82.71-1.05.23-.12.61-.2.51-.57-.09-.37-.46-.25-.72-.25-2.62,0-5.24,0-7.87,0-.31,0-.61,0-.9.16-1.45.81-2.77,1.82-4.25,2.59-.41.21-.35.53.09.72.23.1.46.21.68.33,1.38.76,1.48,1.03,1.07,2.56-1.72,6.3-3.44,12.61-5.14,18.92-.16.59-.44,1-.96,1.3-.88.51-1.8.93-2.73,1.31-.23.09-.56.18-.51.47.06.35.42.19.64.19,2.82.01,5.64,0,8.46,0,.34,0,.67-.03.98-.19,1.42-.75,2.83-1.49,4.25-2.24.37-.2.55-.41.09-.72-.36-.24-.51-.59-.42-1.02.14-.72.26-1.45.42-2.3,2.17,1.73,4.24,3.37,6.3,5.02.4.32.02.53-.09.78-.08.2-.42.3-.3.55.12.24.4.12.61.12,3.24,0,6.48,0,9.73,0,.4,0,.8-.04,1.14-.25,1.42-.86,2.82-1.74,4.23-2.62.17-.1.35-.21.28-.46-.07-.23-.27-.26-.47-.3-.74-.16-1.49-.29-2.23-.48-.75-.2-1.57-.19-2.23-.7-3.73-2.91-7.46-5.81-11.2-8.71-.51-.39-.37-.62.06-.94,1.11-.82,2.2-1.67,3.28-2.52,4.63-3.62,9.41-7.06,13.94-10.81.2-.16.57-.29.42-.64-.12-.28-.45-.16-.69-.16Zm-22.86.49c1.73.19,3.49.04,5.24.04l.05.14c-.82.53-1.64,1.06-2.46,1.58-.14.09-.31.15-.47.15-2.27,0-4.55,0-6.84-.07,1.36-.93,2.57-2.06,4.47-1.85Zm-.49,21.78c-.13.57-.23,1.15-.32,1.73-.05.3-.18.71-.05.9.56.79-.05.94-.56,1.2-.97.5-1.94,1.01-2.89,1.54-.39.21-.78.32-1.21.22-.4-.09-.68-.31-.56-.77.71-2.64,1.43-5.29,2.18-8.05,1.11.84,2.1,1.62,3.12,2.36.33.24.38.5.3.87Zm-1.01-9.99c.56-2.79,1.08-5.34,1.98-7.79.18-.49.55-.91,1.04-1.05,1.3-.39,2.48-1.01,3.75-1.93-.35,1.65-.74,3.08-.92,4.53-.19,1.57-.89,2.66-2.23,3.5-1.21.76-2.29,1.71-3.63,2.74Zm17.12,11.3c1.07.86,2.2,1.41,3.54,1.59.43.06.86.18,1.48.31-1.38.85-2.56,1.64-3.81,2.32-.45.24-1.06.2-1.56-.04-.96-.46-1.91-.92-2.74-1.63-3.57-3.01-7.18-5.98-10.78-8.97-.36-.3-.72-.62-1.2-1.03,1.33-.39,2.52-.74,3.71-1.08.39-.11.63.16.89.37,3.49,2.71,7.01,5.39,10.45,8.16Zm-4.58-14.28c-2.6,1.91-4.96,4.17-7.83,5.7-.05-.07-.1-.14-.15-.21,4.86-3.74,9.72-7.48,14.58-11.22.31-.24.62-.37,1.2-.25-2.66,2.05-5.19,4.06-7.8,5.98Zm9.01-7.04c-.16.13-.33.21-.54.21-3.14,0-6.28,0-9.42,0,0-.08-.01-.16-.02-.23.91-.5,1.82-.99,2.74-1.49.28-.15.56-.23.89-.22,2.7,0,5.41,0,8.11,0,.07,0,.15.03.32.08-.74.59-1.41,1.12-2.08,1.65Z"/></svg>