<?xml version="1.0" encoding="UTF-8"?><svg id="Layer_1" xmlns="http://www.w3.org/2000/svg" viewBox="0 0 320 240"><defs><style>.cls-1,.cls-2{stroke-width:0px;}.cls-2{fill:#48b75c;}</style></defs><path class="cls-1" d="m102.08,122.17c-.25-1.1-1.45-1.59-2.51-1.56-.81.04-1.73.28-2.23.92-.25.32-.35.71-.32,1.13.11,1.27,1.49,1.41,2.79,1.56,1.7.21,3.78.64,4.28,2.62.04.25.07.57.07.81,0,2.37-2.37,3.75-4.6,3.75-1.91,0-4.21-1.13-4.46-3.32v-.32l1.8-.04.04.25v-.04c.11,1.13,1.52,1.73,2.65,1.73,1.31,0,2.76-.74,2.76-2.02,0-.11,0-.25-.04-.42-.21-.92-1.49-1.1-2.72-1.2-1.91-.21-4.17-.6-4.38-3.18v.04c-.07-.81.14-1.66.67-2.33.81-1.06,2.3-1.63,3.75-1.63,1.91,0,3.89.99,4.21,3.25h-1.77Z"/><path class="cls-1" d="m99.57,131.61c-2.05,0-4.38-1.24-4.63-3.5v-.53l2.16-.04.04.35h0c.11.99,1.34,1.59,2.48,1.59,1.24,0,2.58-.71,2.58-1.84,0-.11,0-.25-.04-.39-.18-.78-1.27-.95-2.58-1.1-1.52-.14-4.31-.42-4.53-3.32h0c-.07-.92.18-1.77.71-2.48.81-1.06,2.3-1.7,3.89-1.7,1.8,0,4.03.88,4.38,3.39l.04.18-2.12.07-.04-.14c-.21-1.03-1.34-1.45-2.33-1.45-.92.04-1.7.35-2.12.88-.21.28-.28.64-.25,1.03.07,1.06,1.2,1.27,2.65,1.38,1.91.25,3.96.74,4.42,2.76.07.28.11.6.11.85-.04,2.51-2.44,4-4.81,4Zm-4.28-3.68v.14c.21,2.05,2.37,3.18,4.28,3.18,2.16,0,4.42-1.34,4.42-3.57,0-.21-.04-.5-.07-.78-.42-1.8-2.33-2.26-4.14-2.48-1.27-.11-2.86-.28-2.97-1.73-.04-.5.07-.92.35-1.27.46-.6,1.38-.99,2.37-.99,1.13,0,2.33.46,2.65,1.56l1.41-.07c-.42-2.16-2.4-2.9-4-2.9-1.49,0-2.86.6-3.61,1.59-.5.64-.71,1.38-.64,2.23h0c.18,2.44,2.26,2.83,4.21,3.04,1.17.11,2.62.25,2.86,1.34.04.18.07.32.07.46,0,1.38-1.49,2.19-2.93,2.19-1.27,0-2.65-.64-2.83-1.84h0v-.11h-1.45Z"/><path class="cls-1" d="m107.77,127.61v-8.63h1.8v8.66c0,1.34,1.45,2.02,2.76,2.02s2.76-.67,2.76-2.05v-8.63h1.8v8.66c0,2.51-2.44,3.82-4.56,3.82-2.16-.04-4.56-1.34-4.56-3.85Z"/><path class="cls-1" d="m112.37,131.61c-2.3,0-4.74-1.41-4.74-4v-8.8h2.16v8.84c0,1.2,1.34,1.84,2.58,1.84s2.58-.67,2.58-1.87v-8.8h2.16v8.84c0,2.48-2.4,3.96-4.74,3.96Zm-4.42-12.45v8.45c0,2.37,2.26,3.64,4.38,3.64s4.38-1.34,4.38-3.64v-8.49h-1.45v8.45c0,1.45-1.52,2.23-2.93,2.23s-2.93-.78-2.93-2.19v-8.49h-1.45v.04Z"/><path class="cls-1" d="m125.28,118.95c2.65,0,4,2.05,4,4.14s-1.34,4.1-4,4.1h-2.72v4.1h-1.8v-12.38h4.53v.04Zm0,6.51c1.49,0,2.23-1.17,2.23-2.33s-.74-2.33-2.23-2.33h-2.72v4.67h2.72Z"/><path class="cls-1" d="m122.76,131.5h-2.16v-12.73h4.7c2.86,0,4.17,2.23,4.17,4.31s-1.31,4.28-4.17,4.28h-2.55v4.14Zm-1.8-.35h1.45v-4.1h2.9c2.62,0,3.82-2.05,3.82-3.93s-1.2-3.96-3.82-3.96h-4.35v11.99Zm4.31-5.52h-2.9v-5.06h2.9c1.66,0,2.4,1.31,2.4,2.51.04,1.24-.74,2.55-2.4,2.55Zm-2.51-.35h2.55c1.41,0,2.05-1.13,2.05-2.16s-.64-2.16-2.05-2.16h-2.55v4.31Z"/><path class="cls-1" d="m134.5,129.56h5.73v1.77h-7.53v-12.34h7.53v1.77h-5.73v3.47h5.59v1.8h-5.59v3.54Z"/><path class="cls-1" d="m140.41,131.5h-7.89v-12.69h7.89v2.12h-5.73v3.11h5.59v2.16h-5.59v3.15h5.73v2.16Zm-7.53-.35h7.18v-1.41h-5.73v-3.85h5.59v-1.45h-5.59v-3.85h5.73v-1.41h-7.18v11.99Z"/><path class="cls-1" d="m146.1,125.07h2.09c1.49,0,2.23-1.06,2.23-2.16s-.74-2.12-2.23-2.12h-2.72v10.57h-1.77v-12.38h4.49c2.69,0,4.03,1.98,4.03,3.93,0,1.73-1.06,3.39-3.18,3.78l3.89,4.63h-2.3l-4.49-5.41v-.85h-.04Z"/><path class="cls-1" d="m153.32,131.5h-2.79l-4.6-5.55v-1.1h2.26c1.41,0,2.05-1.03,2.05-1.98s-.64-1.94-2.05-1.94h-2.55v10.57h-2.12v-12.73h4.67c2.76,0,4.21,2.09,4.21,4.1s-1.2,3.43-3.04,3.89l3.96,4.74Zm-2.62-.35h1.84l-3.85-4.6.32-.04c1.84-.32,3.04-1.73,3.04-3.61s-1.2-3.75-3.85-3.75h-4.31v12.02h1.41v-10.61h2.9c1.59,0,2.4,1.17,2.4,2.3s-.74,2.33-2.4,2.33h-1.91v.6l4.42,5.34Z"/><path class="cls-1" d="m171.32,127.68h-4.42c-.46,1.13-1.1,2.62-1.49,3.64h-1.91l4.95-12.52h1.31l4.95,12.52h-1.91l-1.49-3.64Zm-3.78-1.66h3.08l-1.52-4.35-1.56,4.35Z"/><path class="cls-1" d="m174.96,131.5h-2.3l-1.49-3.64h-4.21c-.46,1.06-1.06,2.51-1.45,3.54l-.04.11h-2.3l5.09-12.87h1.56l5.13,12.87Zm-2.05-.35h1.52l-4.81-12.16h-1.06l-4.81,12.16h1.56c.39-1.06,1.03-2.51,1.45-3.54l.04-.11h4.67l1.45,3.64Zm-2.05-4.95h-3.57l1.8-5.06,1.77,5.06Zm-3.08-.35h2.58l-1.27-3.64-1.31,3.64Z"/><path class="cls-1" d="m182.03,118.95c2.65,0,4,2.05,4,4.14s-1.34,4.1-4,4.1h-2.72v4.1h-1.8v-12.38h4.53v.04Zm0,6.51c1.49,0,2.23-1.17,2.23-2.33s-.74-2.33-2.23-2.33h-2.72v4.67h2.72Z"/><path class="cls-1" d="m179.48,131.5h-2.16v-12.73h4.7c2.86,0,4.17,2.23,4.17,4.31s-1.31,4.28-4.17,4.28h-2.55v4.14h0Zm-1.8-.35h1.45v-4.1h2.9c2.62,0,3.82-2.05,3.82-3.93s-1.2-3.96-3.82-3.96h-4.35v11.99Zm4.35-5.52h-2.9v-5.06h2.9c1.66,0,2.4,1.31,2.4,2.51,0,1.24-.74,2.55-2.4,2.55Zm-2.55-.35h2.55c1.41,0,2.05-1.13,2.05-2.16s-.64-2.16-2.05-2.16h-2.55v4.31Z"/><path class="cls-1" d="m193.98,118.95c2.65,0,4,2.05,4,4.14s-1.34,4.1-4,4.1h-2.72v4.1h-1.8v-12.38h4.53v.04Zm0,6.51c1.49,0,2.23-1.17,2.23-2.33s-.74-2.33-2.23-2.33h-2.72v4.67h2.72Z"/><path class="cls-1" d="m191.44,131.5h-2.16v-12.73h4.7c2.86,0,4.17,2.23,4.17,4.31s-1.31,4.28-4.17,4.28h-2.55v4.14h0Zm-1.8-.35h1.45v-4.1h2.9c2.62,0,3.82-2.05,3.82-3.93s-1.2-3.96-3.82-3.96h-4.35v11.99h0Zm4.35-5.52h-2.9v-5.06h2.9c1.66,0,2.4,1.31,2.4,2.51s-.74,2.55-2.4,2.55Zm-2.55-.35h2.55c1.41,0,2.05-1.13,2.05-2.16s-.64-2.16-2.05-2.16h-2.55v4.31Z"/><path class="cls-1" d="m215.45,118.98c1.56,0,2.55.88,3.01,2.02.5,1.2.35,2.62-.88,3.5,1.41.6,1.91,1.91,1.91,3.08,0,1.84-1.2,3.71-3.57,3.71h-5.59v-12.31h5.13Zm-3.36,4.92h3.32c1.94,0,1.98-3.22.04-3.22h-3.36v3.22Zm0,5.69h3.82c1.2,0,1.8-.99,1.8-1.98s-.6-1.94-1.8-1.94h-3.82v3.93Z"/><path class="cls-1" d="m215.91,131.5h-5.76v-12.69h5.3c1.49,0,2.62.78,3.18,2.16.57,1.34.28,2.69-.74,3.54,1.1.6,1.77,1.73,1.77,3.11,0,1.91-1.27,3.89-3.75,3.89Zm-5.41-.35h5.41c2.23,0,3.39-1.8,3.39-3.54,0-.64-.18-2.23-1.8-2.9l-.28-.11.25-.18c1.24-.88,1.24-2.3.85-3.29-.28-.71-1.03-1.91-2.83-1.91h-4.95v11.92h-.04Zm5.41-1.38h-4v-4.28h4c1.31,0,1.98,1.06,1.98,2.12s-.71,2.16-1.98,2.16Zm-3.64-.35h3.64c1.13,0,1.63-.92,1.63-1.8s-.5-1.77-1.63-1.77h-3.64v3.57Zm3.15-5.34h-3.5v-3.57h3.54c1.1,0,1.63.92,1.63,1.77,0,.88-.57,1.8-1.66,1.8Zm-3.15-.35h3.15c.39,0,.74-.14.95-.46.21-.25.32-.64.32-1.03,0-.67-.39-1.41-1.27-1.41h-3.18v2.9h.04Z"/><path class="cls-1" d="m225.45,125.07h2.09c1.49,0,2.23-1.06,2.23-2.16s-.74-2.12-2.23-2.12h-2.72v10.57h-1.77v-12.38h4.49c2.69,0,4.03,1.98,4.03,3.93,0,1.73-1.06,3.39-3.18,3.78l3.89,4.63h-2.3l-4.49-5.41v-.85h-.04Z"/><path class="cls-1" d="m232.67,131.5h-2.79l-4.6-5.55v-1.1h2.26c1.41,0,2.05-1.03,2.05-1.98s-.64-1.94-2.05-1.94h-2.55v10.57h-2.12v-12.73h4.67c2.76,0,4.21,2.09,4.21,4.1s-1.2,3.43-3.04,3.89l3.96,4.74Zm-2.62-.35h1.84l-3.85-4.6.32-.04c1.84-.32,3.04-1.73,3.04-3.61s-1.2-3.75-3.85-3.75h-4.31v12.02h1.41v-10.61h2.9c1.59,0,2.4,1.17,2.4,2.3s-.74,2.33-2.4,2.33h-1.91v.6l4.42,5.34Z"/><path class="cls-1" d="m236.52,120.68c1.13-1.13,2.72-1.87,4.46-1.87s3.32.71,4.46,1.87c1.1,1.13,1.84,2.72,1.84,4.46s-.71,3.32-1.84,4.46c-1.13,1.17-2.72,1.87-4.46,1.87s-3.32-.71-4.46-1.87c-1.1-1.13-1.84-2.72-1.84-4.46,0-1.73.71-3.32,1.84-4.46Zm7.64,1.27c-.81-.81-1.98-1.34-3.18-1.34s-2.33.5-3.15,1.34c-.81.81-1.31,1.94-1.31,3.18s.5,2.37,1.31,3.18c.81.81,1.94,1.34,3.15,1.34s2.37-.5,3.18-1.34c.78-.81,1.31-1.91,1.31-3.18s-.53-2.37-1.31-3.18Z"/><path class="cls-1" d="m240.94,131.64c-1.73,0-3.39-.71-4.56-1.91-1.2-1.24-1.87-2.9-1.87-4.6s.67-3.32,1.87-4.6h0c1.2-1.24,2.86-1.91,4.56-1.91s3.36.67,4.6,1.91c1.2,1.27,1.87,2.9,1.87,4.6s-.67,3.32-1.87,4.6c-1.2,1.24-2.83,1.91-4.6,1.91Zm-4.31-10.86c-1.17,1.2-1.8,2.72-1.8,4.35s.64,3.15,1.8,4.35c1.13,1.17,2.69,1.8,4.31,1.8s3.18-.64,4.35-1.8c1.17-1.2,1.8-2.72,1.8-4.35s-.64-3.15-1.8-4.35c-1.17-1.17-2.72-1.8-4.35-1.8-1.59,0-3.18.64-4.31,1.8Zm4.31,9.09c-1.24,0-2.4-.5-3.29-1.38s-1.38-2.05-1.38-3.32.5-2.44,1.38-3.32,2.05-1.38,3.29-1.38,2.44.5,3.32,1.38h0c.88.88,1.34,2.09,1.34,3.32s-.5,2.44-1.34,3.32c-.88.85-2.09,1.38-3.32,1.38Zm0-9.09c-1.13,0-2.23.46-3.04,1.27-.81.81-1.27,1.91-1.27,3.08s.46,2.26,1.27,3.08c.81.81,1.91,1.31,3.04,1.31s2.26-.46,3.08-1.31c.81-.81,1.27-1.91,1.27-3.08s-.46-2.23-1.27-3.08c-.81-.81-1.91-1.27-3.08-1.27Z"/><path class="cls-1" d="m257.77,122.17c-.25-1.1-1.45-1.59-2.51-1.56-.81.04-1.73.28-2.23.92-.25.32-.32.71-.28,1.13.07,1.27,1.49,1.41,2.79,1.56,1.7.21,3.78.64,4.28,2.62.07.25.11.57.11.81,0,2.37-2.37,3.75-4.6,3.75-1.91,0-4.21-1.13-4.46-3.32v-.32l1.8-.04v.25-.04c.11,1.13,1.52,1.73,2.65,1.73,1.31,0,2.76-.74,2.76-2.02,0-.11,0-.25-.04-.42-.21-.92-1.49-1.1-2.72-1.2-1.91-.21-4.17-.6-4.38-3.18v.04c-.07-.81.14-1.66.67-2.33.81-1.06,2.3-1.63,3.75-1.63,1.91,0,3.89.99,4.21,3.25h-1.8Z"/><path class="cls-1" d="m255.3,131.61c-2.05,0-4.38-1.24-4.63-3.5l-.04-.53,2.16-.04.04.35h0c.11.99,1.34,1.59,2.48,1.59,1.24,0,2.58-.71,2.58-1.84,0-.11,0-.25-.04-.39-.18-.78-1.27-.95-2.58-1.1-1.52-.14-4.31-.42-4.53-3.32h0c-.07-.92.18-1.77.71-2.48.81-1.06,2.3-1.7,3.89-1.7,1.8,0,4.03.88,4.38,3.39l.04.18-2.12.07-.04-.14c-.21-1.03-1.34-1.45-2.33-1.45-.92.04-1.7.35-2.12.88-.21.25-.28.64-.25,1.03.07,1.06,1.2,1.27,2.65,1.38,1.91.25,3.96.74,4.42,2.76.07.28.11.6.11.85-.04,2.51-2.44,4-4.77,4Zm-4.31-3.68v.14c.21,2.05,2.37,3.18,4.28,3.18,2.16,0,4.42-1.34,4.42-3.57,0-.21-.04-.5-.07-.78-.42-1.8-2.33-2.26-4.14-2.48-1.27-.11-2.86-.28-2.97-1.73-.04-.5.07-.92.35-1.27.46-.6,1.38-.99,2.37-.99,1.1-.04,2.33.46,2.65,1.56l1.41-.07c-.42-2.16-2.4-2.9-4-2.9-1.49,0-2.86.6-3.61,1.59-.5.64-.71,1.38-.64,2.23h0c.18,2.44,2.26,2.83,4.21,3.04,1.17.11,2.62.25,2.86,1.34.04.18.07.32.07.46,0,1.38-1.49,2.19-2.93,2.19-1.27,0-2.65-.64-2.83-1.84h0v-.11h-1.45Z"/><path class="cls-1" d="m76.9,130.65c-.07.46.07.95.46,1.2.21.14.35.32.5.53.25.39.28.81.28,1.24v10.68c0,1.45-.53,1.94-1.98,1.94h-11.6c-1.49,0-2.02-.53-2.02-2.05-.04-1.52-.04-3.04,0-4.56,0-.88-.25-1.56-1.27-1.59-.95,0-1.27.64-1.31,1.45-.04,1.84-.07,3.57.04,5.3.18,2.62,1.8,4.1,4.42,4.1,4,.04,7.99.04,11.99,0,2.48,0,4.24-1.66,4.31-4.1.07-3.82.07-7.64,0-11.46-.04-1.73-.74-3.01-2.05-3.71-.71-.39-1.56.07-1.7.85h0l-.07.18Z"/><path class="cls-1" d="m64.31,131.68c-2.86-.28-4.31-1.84-4.35-4.67-.04-3.08,0-6.15,0-9.23-.04-2.76,1.73-4.81,4.7-4.7,3.85.14,7.71.04,11.6.04,2.76,0,4.42,1.7,4.46,4.46v4.7c0,.95-.35,1.7-1.38,1.66-.95-.04-1.2-.81-1.2-1.7.04-1.52.04-3.04,0-4.56-.04-1.45-.53-1.98-1.94-1.98h-11.7c-1.38.04-1.94.57-1.94,1.91-.04,3.18,0,6.33,0,9.51,0,1.17.5,1.91,1.77,1.94.6.85.6,1.73,0,2.62Z"/><path class="cls-1" d="m70.29,118.95h-1.41c-.78,0-1.24-.46-1.31-1.17-.07-.67.32-1.2.99-1.31,1.2-.21,2.4-.21,3.61,0,.67.14,1.06.67.99,1.31-.07.67-.46,1.13-1.17,1.13-.6.04-1.17.04-1.7.04h0Z"/><path class="cls-1" d="m72.13,143.7c-.04.95-.92,1.8-1.84,1.73-.95-.04-1.77-.95-1.73-1.87.07-.92.88-1.7,1.8-1.7.95,0,1.8.88,1.77,1.84Z"/><path class="cls-2" d="m66.54,123.69c2.16,0,4.24-.07,6.29.04,1.73.07,3.11,1.31,3.54,2.83.42,1.66-.18,3.15-1.77,4.21-.07.04-.11.07-.25.18,1.34.5,2.33,1.27,2.72,2.62.81,2.69-1.17,5.48-3.96,5.62-.21,0-.5-.28-.6-.53-1.17-2.83-2.3-5.69-3.43-8.56-.85-2.16-1.7-4.28-2.55-6.4Z"/><path class="cls-2" d="m68.98,139.21h-4.77v-3.75h3.08c.14,0,.32.14.35.28.46,1.13.88,2.26,1.34,3.47Z"/><path class="cls-2" d="m66.43,132.56h-2.23v-5.66s.07-.04.11-.04c.71,1.87,1.38,3.75,2.12,5.69Z"/><path class="cls-1" d="m95.54,142.68v-5.02h1.24c.95,0,1.7.21,2.23.6s.78,1.06.78,1.91-.25,1.41-.71,1.84-1.17.64-2.05.64h-1.49v.04Zm.67-.53h.85c.67,0,1.17-.18,1.52-.5s.53-.81.53-1.45c0-.67-.18-1.17-.57-1.49s-.92-.5-1.7-.5h-.64v3.93Z"/><path class="cls-1" d="m101.05,142.68v-5.02h1.63c.21,0,.39,0,.57.04s.32.07.46.11.28.14.39.25.18.21.25.39.07.35.07.57c0,.32-.07.57-.25.78s-.39.35-.74.42c.18.07.35.18.46.32s.21.35.32.64l.6,1.52h-.71l-.57-1.49c-.07-.21-.14-.35-.21-.46s-.14-.18-.25-.21-.25-.07-.42-.07h-.88v2.23h-.71Zm.67-2.79h.92c.32,0,.6-.07.78-.21s.28-.35.28-.67c0-.14,0-.25-.04-.32s-.07-.18-.11-.25-.11-.11-.21-.14-.18-.07-.28-.07-.21-.04-.35-.04h-.95v1.7h-.04Z"/><path class="cls-1" d="m105.97,142.68v-5.02h3.01v.57h-2.37v1.59h2.23v.57h-2.23v1.77h2.44v.57h-3.08v-.04Z"/><path class="cls-1" d="m109.75,142.68l1.94-5.02h.71l1.94,5.02h-.71l-.53-1.34h-2.16l-.5,1.34h-.71Zm1.41-1.87h1.77c-.28-.81-.6-1.66-.88-2.44-.28.81-.6,1.63-.88,2.44Z"/><path class="cls-1" d="m115.41,142.68v-5.02h.81c.07.14.32.71.78,1.77s.81,1.84,1.06,2.4c.25-.57.6-1.34,1.06-2.4s.74-1.63.78-1.77h.78v5.02h-.64v-3.96c-.21.53-.57,1.27-.99,2.23s-.67,1.56-.78,1.73h-.46l-1.49-3.36-.25-.64v4h-.67Z"/><path class="cls-1" d="m122.06,142.68v-.78h.81v.78h-.81Z"/><path class="cls-1" d="m126.62,142.68v-5.02h1.24c.95,0,1.7.21,2.23.6s.78,1.06.78,1.91-.25,1.41-.71,1.84-1.17.64-2.05.64h-1.49v.04Zm.64-.53h.85c.67,0,1.17-.18,1.52-.5s.53-.81.53-1.45c0-.67-.18-1.17-.57-1.49s-.92-.5-1.7-.5h-.64v3.93h0Z"/><path class="cls-1" d="m132.14,142.68v-5.02h3.01v.57h-2.37v1.59h2.23v.57h-2.23v1.77h2.44v.57h-3.08v-.04Z"/><path class="cls-1" d="m136.48,142.68v-5.02h2.9v.57h-2.23v1.59h2.09v.57h-2.09v2.33h-.67v-.04Z"/><path class="cls-1" d="m140.62,142.68v-5.02h.67v5.02h-.67Z"/><path class="cls-1" d="m142.85,142.68v-5.02h.71l2.44,3.54.39.6v-4.14h.64v5.02h-.71l-2.37-3.39-.46-.71v4.1h-.64Z"/><path class="cls-1" d="m148.58,142.68v-5.02h3.01v.57h-2.33v1.59h2.23v.57h-2.23v1.77h2.44v.57h-3.11v-.04Z"/><path class="cls-1" d="m152.79,142.68v-.78h.81v.78h-.81Z"/><path class="cls-1" d="m157.31,142.68v-5.02h1.24c.95,0,1.7.21,2.23.6s.78,1.06.78,1.91-.25,1.41-.71,1.84-1.17.64-2.05.64h-1.49v.04Zm.67-.53h.85c.67,0,1.17-.18,1.52-.5s.53-.81.53-1.45c0-.67-.18-1.17-.57-1.49s-.92-.5-1.7-.5h-.64v3.93Z"/><path class="cls-1" d="m162.83,142.68v-5.02h3.01v.57h-2.37v1.59h2.23v.57h-2.23v1.77h2.44v.57h-3.08v-.04Z"/><path class="cls-1" d="m168.59,142.22c.14,0,.25,0,.39-.04s.21-.07.28-.11.14-.11.21-.18.11-.14.14-.25.04-.18.04-.32c0-.11,0-.21-.04-.32s-.07-.18-.14-.25-.18-.14-.28-.21-.28-.11-.5-.18c-.04,0-.07-.04-.14-.04s-.14-.04-.14-.04c-.5-.14-.85-.32-1.06-.53s-.32-.53-.32-.92c0-.28.07-.53.21-.74s.35-.35.6-.46.53-.14.85-.14c.67,0,1.2.18,1.56.53l-.32.46c-.11-.11-.28-.21-.46-.28s-.42-.11-.67-.11c-.32,0-.57.07-.78.18s-.28.32-.28.57c0,.18.04.28.07.39s.14.18.25.25.28.14.53.21c0,0,.04,0,.14.04s.14.04.18.04c.28.07.53.18.74.28s.35.21.46.32.21.25.25.39.07.32.07.53c0,.25-.04.42-.14.64s-.21.32-.35.42-.35.21-.53.25-.42.07-.67.07c-.39,0-.71-.07-.99-.18s-.5-.25-.64-.39l.28-.46c.14.11.35.21.57.32s.35.25.64.25Z"/><path class="cls-1" d="m171.67,142.68v-5.02h.67v5.02h-.67Z"/><path class="cls-1" d="m176.12,142.75c-.53,0-.99-.11-1.38-.32s-.67-.5-.85-.88-.28-.81-.28-1.31c0-.53.11-.99.32-1.38s.53-.74.92-.95.85-.35,1.34-.35c.64,0,1.2.18,1.66.5l-.28.46c-.39-.28-.85-.42-1.38-.42-.39,0-.71.11-1.03.28s-.53.42-.67.74-.25.67-.25,1.1c0,.6.18,1.1.5,1.45s.78.53,1.41.53c.42,0,.78-.07,1.1-.18v-1.41h-1.27v-.57h1.91v2.37c-.53.25-1.1.35-1.77.35Z"/><path class="cls-1" d="m179.38,142.68v-5.02h.71l2.44,3.54.39.6v-4.14h.64v5.02h-.71l-2.37-3.39-.46-.71v4.1h-.64Z"/><path class="cls-1" d="m184.96,142.68v-.78h.81v.78h-.81Z"/><path class="cls-1" d="m189.49,142.68v-5.02h1.24c.95,0,1.7.21,2.23.6s.78,1.06.78,1.91-.25,1.41-.71,1.84-1.17.64-2.05.64h-1.49v.04Zm.64-.53h.85c.67,0,1.17-.18,1.52-.5s.53-.81.53-1.45c0-.67-.18-1.17-.57-1.49s-.92-.5-1.7-.5h-.64v3.93Z"/><path class="cls-1" d="m195.01,142.68v-5.02h3.01v.57h-2.37v1.59h2.23v.57h-2.23v1.77h2.44v.57h-3.08v-.04Z"/><path class="cls-1" d="m200.67,142.68l-1.87-5.02h.74c.04.11.25.71.64,1.8s.67,1.91.88,2.44c.21-.57.5-1.38.88-2.44.39-1.06.6-1.66.64-1.8h.71l-1.91,5.02h-.71Z"/><path class="cls-1" d="m204.24,142.68v-5.02h3.01v.57h-2.33v1.59h2.23v.57h-2.23v1.77h2.44v.57h-3.11v-.04Z"/><path class="cls-1" d="m208.62,142.68v-5.02h.67v4.46h2.33v.57h-3.01Z"/><path class="cls-1" d="m214.77,142.75c-.74,0-1.34-.25-1.8-.71s-.67-1.1-.67-1.91c0-.53.11-.95.28-1.34s.46-.71.85-.92.81-.32,1.31-.32c.74,0,1.34.25,1.77.71s.67,1.1.67,1.87-.21,1.41-.64,1.87-1.03.74-1.77.74Zm0-.53c.57,0,.99-.18,1.27-.53s.42-.85.42-1.49-.14-1.13-.42-1.49-.71-.57-1.27-.57-.99.18-1.27.57-.46.88-.46,1.49c0,.64.14,1.13.46,1.49s.71.53,1.27.53Z"/><path class="cls-1" d="m218.49,142.68v-5.02h1.45c.25,0,.46,0,.67.04s.35.07.53.11.32.14.42.25.18.25.25.39.11.35.11.6-.04.46-.14.64-.21.32-.35.42-.35.18-.57.21-.46.07-.78.07h-.92v2.26h-.67v.04Zm.67-2.83h.92c.39,0,.71-.07.88-.18s.28-.32.28-.64c0-.11,0-.21-.04-.28s-.07-.18-.11-.21-.11-.11-.18-.14-.14-.07-.25-.11-.21-.04-.28-.04h-1.17v1.59h-.07Z"/><path class="cls-1" d="m222.87,142.68v-.78h.81v.78h-.81Z"/><path class="cls-1" d="m227.4,142.68v-5.02h1.24c.95,0,1.7.21,2.23.6s.78,1.06.78,1.91-.25,1.41-.71,1.84-1.17.64-2.05.64h-1.49v.04Zm.67-.53h.85c.67,0,1.17-.18,1.52-.5s.53-.81.53-1.45c0-.67-.18-1.17-.57-1.49s-.92-.5-1.7-.5h-.64v3.93Z"/><path class="cls-1" d="m232.99,142.68v-5.02h.67v5.02h-.67Z"/><path class="cls-1" d="m236.59,142.22c.14,0,.25,0,.39-.04s.21-.07.28-.11.14-.11.21-.18.11-.14.14-.25.04-.18.04-.32c0-.11,0-.21-.04-.32s-.07-.18-.14-.25-.18-.14-.28-.21-.28-.11-.5-.18c-.04,0-.07-.04-.14-.04s-.14-.04-.14-.04c-.5-.14-.85-.32-1.06-.53s-.32-.53-.32-.92c0-.28.07-.53.21-.74s.35-.35.6-.46.53-.14.85-.14c.67,0,1.2.18,1.56.53l-.32.46c-.11-.11-.28-.21-.46-.28s-.42-.11-.67-.11c-.32,0-.57.07-.78.18s-.28.32-.28.57c0,.18.04.28.07.39s.14.18.25.25.28.14.53.21c0,0,.04,0,.14.04s.14.04.18.04c.28.07.53.18.74.28s.35.21.46.32.21.25.25.39.07.32.07.53c0,.25-.04.42-.14.64s-.21.32-.35.42-.35.21-.53.25-.42.07-.67.07c-.39,0-.71-.07-.99-.18s-.5-.25-.64-.39l.28-.46c.14.11.35.21.57.32s.39.25.64.25Z"/><path class="cls-1" d="m239.63,142.68v-5.02h1.63c.21,0,.39,0,.57.04s.32.07.46.11.28.14.39.25.18.21.25.39.07.35.07.57c0,.32-.07.57-.25.78s-.39.35-.74.42c.18.07.35.18.46.32s.21.35.32.64l.6,1.52h-.71l-.57-1.49c-.07-.21-.14-.35-.21-.46s-.14-.18-.25-.21-.25-.07-.42-.07h-.88v2.23h-.71Zm.64-2.79h.92c.32,0,.6-.07.78-.21s.28-.35.28-.67c0-.14,0-.25-.04-.32s-.07-.18-.11-.25-.11-.11-.21-.14-.18-.07-.28-.07-.21-.04-.35-.04h-.99v1.7Z"/><path class="cls-1" d="m246.42,142.75c-1.31,0-1.98-.67-1.98-2.02v-3.11h.67v3.11c0,.5.11.85.32,1.1s.57.35.99.35c.88,0,1.34-.46,1.34-1.41v-3.11h.67v3.08c0,.32-.04.57-.11.81s-.18.46-.35.64-.35.32-.64.42-.57.14-.92.14Z"/><path class="cls-1" d="m249.92,142.68v-5.02h1.45c.25,0,.46,0,.67.04s.35.07.53.11.32.14.42.25.18.25.25.39.11.35.11.6-.04.46-.14.64-.21.32-.35.42-.35.18-.57.21-.46.07-.78.07h-.92v2.26h-.67v.04Zm.67-2.83h.92c.39,0,.71-.07.88-.18s.28-.32.28-.64c0-.11,0-.21-.04-.28s-.07-.18-.11-.21-.11-.11-.18-.14-.14-.07-.25-.11-.21-.04-.28-.04h-1.17v1.59h-.07Z"/><path class="cls-1" d="m255.44,142.68v-4.46h-1.59v-.57h3.89v.57h-1.63v4.46h-.67Z"/><path class="cls-1" d="m258.48,142.68v-.78h.81v.78h-.81Z"/></svg>