<?xml version="1.0" encoding="UTF-8"?><svg id="Layer_1" xmlns="http://www.w3.org/2000/svg" viewBox="0 0 320 240"><defs><style>.cls-1{fill:#383838;}.cls-2{fill:#7b7b7b;}</style></defs><path class="cls-1" d="m116.68,135.66v-16.48h6.04v16.69c0,2.76-1.03,5.15-3.07,7.11-2.05,1.94-4.72,2.93-7.93,2.93s-5.92-.98-7.96-2.93c-2.04-1.95-3.07-4.35-3.07-7.11v-16.69h6.04v16.48c0,1.14.48,2.1,1.47,2.95.99.82,2.13,1.22,3.51,1.22,2.49,0,4.97-1.77,4.97-4.17Z"/><path class="cls-1" d="m217.57,135.66v-16.48h6.04v16.69c0,2.76-1.03,5.15-3.07,7.11-2.05,1.94-4.72,2.93-7.93,2.93s-5.92-.98-7.96-2.93c-2.04-1.95-3.07-4.35-3.07-7.11v-16.69h6.04v16.48c0,1.14.48,2.1,1.47,2.95.99.82,2.13,1.22,3.51,1.22,2.49,0,4.97-1.77,4.97-4.17Z"/><path class="cls-1" d="m123.39,145.33l12.12-26.18h1.45l12.14,26.18h-6.67l-1.86-3.98h-8.66l-1.86,3.98h-6.65Zm9.75-8.16h6.2l-3.08-6.79-3.12,6.79Z"/><path class="cls-1" d="m153.68,119.16l14.16,14.89v-14.89h6.11v26.17h-2.49l-14.13-14.86v14.86h-6.09v-26.17h2.44Z"/><path class="cls-1" d="m176.59,119.18h21.82v5.19h-8.29l.26,20.97h-5.4l-.08-20.97h-8.31v-5.19Z"/><path class="cls-1" d="m230.12,119.15l10.91,13.7,10.89-13.7h1.77v26.17h-5.81v-13.69l-6.85,8.46-6.87-8.46v13.69h-5.81v-26.17h1.77Z"/><path class="cls-1" d="m85.82,140.7c-1.25.66-2.67,1.03-4.19,1.03-4.99,0-9.04-4.05-9.04-9.04s4.05-9.04,9.04-9.04,9.04,4.05,9.04,9.04c0,3.13-1.6,5.9-4.02,7.52l.9.52,4.95,2.86c2.79-2.79,4.52-6.64,4.52-10.9,0-8.5-6.89-15.4-15.4-15.4s-15.4,6.89-15.4,15.4,6.89,15.4,15.4,15.4c1.45,0,2.85-.21,4.19-.58v-6.81Z"/><polygon class="cls-2" points="86.98 141.74 86.98 152.43 96.24 147.08 86.98 141.74"/><path class="cls-1" d="m190.65,150.76h.93l4.08,9.7h-1.01l-1.06-2.58h-5.14l-1.1,2.58h-.95l4.23-9.7Zm.43.99l-2.26,5.32h4.45l-2.19-5.32Z"/><path class="cls-1" d="m197.12,150.76h3c.84,0,1.55.1,2.14.31.58.21,1.07.47,1.46.79.39.32.69.67.92,1.06s.39.76.49,1.12c.1.36.17.68.2.97.03.29.04.49.04.61s-.01.32-.04.61c-.03.29-.09.61-.2.97-.11.36-.27.73-.49,1.12s-.53.74-.92,1.06-.88.58-1.46.79c-.58.21-1.3.31-2.14.31h-3v-9.7Zm.9,8.88h1.86c.64,0,1.24-.08,1.79-.24.56-.16,1.04-.4,1.45-.73.41-.33.73-.75.97-1.25.24-.51.36-1.11.36-1.8s-.12-1.3-.36-1.8c-.24-.51-.56-.92-.97-1.25-.41-.33-.9-.57-1.45-.73-.56-.16-1.16-.24-1.79-.24h-1.86v8.06Z"/><path class="cls-1" d="m206.21,150.76h.97l3.12,8.51,3.15-8.51h.96l-3.69,9.7h-.9l-3.62-9.7Z"/><path class="cls-1" d="m215.88,150.76h.9v9.7h-.9v-9.7Z"/><path class="cls-1" d="m219.88,158.66c.24.41.55.72.92.92.38.2.81.3,1.3.3.3,0,.58-.05.85-.14.26-.09.5-.22.69-.38.2-.16.35-.36.47-.6s.17-.5.17-.79c0-.34-.07-.62-.21-.84-.14-.22-.33-.4-.57-.54-.24-.14-.5-.26-.8-.36s-.6-.2-.92-.3c-.31-.1-.62-.21-.92-.34s-.56-.29-.8-.5-.43-.46-.57-.77c-.14-.31-.21-.69-.21-1.15,0-.43.08-.81.25-1.14s.4-.61.69-.84c.29-.22.62-.39.99-.51s.77-.17,1.18-.17c.53,0,1.02.09,1.47.28.45.19.84.5,1.17.94l-.78.56c-.23-.32-.5-.56-.8-.72-.31-.16-.67-.24-1.09-.24-.29,0-.57.04-.84.12-.27.08-.5.19-.69.34-.2.15-.35.34-.47.57s-.18.5-.18.81c0,.48.12.86.37,1.12.25.26.55.47.92.62.37.15.77.28,1.21.4.43.11.84.27,1.21.46.37.19.68.46.92.8.25.34.37.82.37,1.42,0,.44-.08.83-.25,1.16-.16.34-.39.62-.66.86s-.6.41-.97.53c-.37.12-.74.18-1.14.18-.64,0-1.23-.11-1.77-.34-.54-.22-1-.6-1.38-1.13l.86-.58Z"/><path class="cls-1" d="m226.79,155.61c0-.74.12-1.42.37-2.04.25-.62.59-1.16,1.03-1.61.44-.45.97-.81,1.58-1.06.62-.26,1.29-.38,2.03-.38s1.42.13,2.03.38c.62.26,1.14.61,1.58,1.06.44.45.78.99,1.03,1.61.25.62.37,1.3.37,2.04s-.12,1.42-.37,2.05c-.25.63-.59,1.16-1.03,1.62-.44.45-.97.8-1.58,1.06-.62.25-1.3.38-2.03.38s-1.42-.13-2.03-.38c-.62-.25-1.14-.6-1.58-1.06-.44-.45-.78-.99-1.03-1.62-.25-.63-.37-1.31-.37-2.05Zm.9,0c0,.6.1,1.16.29,1.69.19.52.47.97.82,1.36.36.38.79.69,1.29.9s1.08.33,1.71.33,1.2-.11,1.71-.33.94-.52,1.3-.9c.36-.38.63-.84.82-1.36.19-.52.29-1.08.29-1.69s-.1-1.17-.29-1.69c-.19-.52-.47-.97-.82-1.36-.36-.38-.79-.69-1.3-.9s-1.08-.33-1.71-.33-1.2.11-1.71.33-.94.52-1.29.9c-.36.38-.63.84-.82,1.36-.19.52-.29,1.08-.29,1.69Z"/><path class="cls-1" d="m239.02,150.76h2.55c.13,0,.3,0,.52.01s.46.04.71.08c.26.05.52.12.78.22.27.1.5.25.71.44.21.19.38.43.52.73s.21.65.21,1.07c0,.47-.08.85-.24,1.15-.16.3-.36.55-.6.73-.24.19-.51.33-.8.42-.29.09-.57.16-.84.19l2.82,4.66h-1.03l-2.73-4.6h-1.69v4.6h-.9v-9.7Zm.9,4.28h1.92c.47,0,.86-.06,1.16-.18s.53-.27.69-.44.28-.36.34-.56c.06-.2.09-.38.09-.55s-.03-.35-.09-.55c-.06-.2-.17-.39-.34-.56s-.4-.32-.69-.44c-.3-.12-.68-.18-1.16-.18h-1.92v3.45Z"/><path class="cls-1" d="m249.3,156.28l-3.56-5.52h1.08l2.93,4.6,3-4.6h1.01l-3.56,5.52v4.18h-.9v-4.18Z"/></svg>