<?xml version="1.0" encoding="UTF-8"?><svg id="Layer_1" xmlns="http://www.w3.org/2000/svg" viewBox="0 0 320 240"><defs><style>.cls-1{fill:#5e6e55;}.cls-1,.cls-2,.cls-3{stroke-width:0px;}.cls-2{fill:#6fbb39;}.cls-3{fill:#231f20;}</style></defs><g id="_2Ks651.tif"><path class="cls-3" d="m64.28,125.55c0-.72,0-1.44,0-2.16.73-10,7.56-16.55,16.52-18.15,2.13-.38,4.29-.24,6.43.14,1.8.33,3.3-.12,4.32-1.78.67-1.08,1.41-2.1,2.23-3.31,0,1.6,0,3.02,0,4.45,0,.24-.06.47-.1.71-.24,1.45.04,2.43,1.45,3.44,4.05,2.92,6.75,6.97,7.49,11.89.48,3.17.52,6.5-.61,9.67-.23.66-.47,1.03-1.21.58-.4-.25-.87-.28-1.41-.25,2.14-2.55,2.49-4.47,1.24-6.38-1.02-1.56-2.89-2.27-4.67-1.79-1.98.54-3.25,2.02-3.31,3.85-.09,2.45.93,3.8,3.77,4.84-2.84,1.57-2.8,4.46-3.52,6.99-.32,1.13-.61,2.27-1.19,3.46-.63-.62-.88-1.36-1.21-2.03-.47-.96-.91-1.93-1.28-2.93-.79-2.12-1.94-3.91-4.34-4.65,3.52-1.28,4.41-4.15,4.07-5.98-.54-2.96-2.4-4.48-5.39-4.52-2.58-.03-4.83,1.71-5.29,4.11-.53,2.78.92,5.12,4.02,6.4-2.32.78-3.52,2.48-4.32,4.64-.62,1.68-1.36,3.33-2.42,4.97-.89-1.65-1.3-3.3-1.6-4.95-.4-2.16-.98-4.17-3.28-5.57,1.46-.3,2.36-.89,3.04-1.79.69-.92,1.07-1.94.94-3.11-.21-1.81-1.87-3.53-3.73-3.89-1.65-.32-3.61.66-4.53,2.27-1.12,1.95-.76,3.47,1.4,5.91.03.11-.01.14-.12.15-2.33.17-2.31.17-2.89-2.2-.24-1.01-.41-2.02-.49-3.05Z"/><path class="cls-3" d="m217.44,140.47c1.13-3.83,2.29-7.64,3.36-11.47.19-.68.46-.87,1.12-.91,2.8-.2,2.81-.22,3.6,2.45.93,3.13,1.85,6.27,2.77,9.4.06.2.08.39.43.51,1.13-3.66,2.31-7.31,3.37-11,.29-1.01.69-1.45,1.75-1.38.75.06,1.52-.04,2.27-.11.78-.07.97.13.68.92-1.47,4.12-2.89,8.25-4.33,12.38-.03.07-.06.15-.09.22-1.33,3.86-1.33,3.85-5.48,3.47-.58-.05-.67-.36-.84-.8-1.17-2.94-1.93-6-2.82-9.03-.06-.19-.06-.39-.38-.54-.75,2.47-1.48,4.93-2.26,7.38-1,3.14-1.03,3.07-4.26,3.17-1.2.03-1.7-.33-2.09-1.48-1.63-4.89-3.38-9.75-5.11-14.61-.23-.65-.18-1.03.61-1.04,1.04-.02,2.08-.04,3.12-.07.75-.03.61.64.73,1.01,1.16,3.64,2.27,7.29,3.39,10.95.06.19.08.39.44.58Z"/><path class="cls-3" d="m175.92,141.89c-3.21,3.15-7.1,3.9-11.29,3.41-4.15-.48-7.49-2.37-9.37-6.27-3.12-6.45-.81-15.32,6.23-17.84,4.63-1.66,9.07-1.19,13.13,1.78.71.52.86,1,.18,1.62-.09.08-.16.18-.25.26-.57.56-1.04,1.34-1.73,1.62-.74.3-1.2-.68-1.86-1-4.25-2.04-10.83-1.18-12.43,5.11-.91,3.56.37,7.47,3.04,9.27,3.04,2.04,7.44,2,10.4-.23.8-.61,1.21-.54,1.81.16.65.75,1.42,1.4,2.15,2.11Z"/><path class="cls-3" d="m177.22,136.39c0-2.51.03-5.02-.02-7.53-.01-.74.2-1,.94-.93.63.06,1.28.02,1.92.02.71,0,1.23.11,1.21,1.04-.01.7.35.59.8.21,2.34-2.02,5.18-2.27,7.83-.78.62.35.94.7.44,1.38-.19.25-.3.56-.45.84-.3.56-.47,1.26-.92,1.63-.6.5-1.03-.38-1.6-.53-2.62-.7-6.01.33-5.91,4.3.07,2.67-.02,5.34.03,8.01.01.76-.21.96-.94.91-1.07-.08-2.48.32-3.12-.22-.68-.57-.19-2.02-.21-3.08-.03-1.75,0-3.51,0-5.26Z"/><path class="cls-2" d="m88.07,108.53c-2.5.53-4.2,2.2-5.71,4.09-.52.64-.96,1.34-1.49,2.08-.42-2.53,1.03-5.36,3.33-6.64,1.02-.57,2.13-.93,3.27-1.13,2.88-.51,2.89-.49,5.2-2.31-.41,3.28-.95,6.39-3.29,8.83-1.86,1.94-4.16,2.35-6.72,1.82-.8-.17-.48-.57-.3-.94,1.36-2.86,3.51-4.79,6.63-5.56.06-.05.14-.08.2-.13.23-.16-.03-.12-.06-.13-.35-.07-.7-.13-1.05.03Z"/><path class="cls-1" d="m88.07,108.53c.54-.38,1.12-.18,1.75-.19-.21.41-.52.43-.84.41-.24-.34-.61-.12-.91-.23Z"/><path class="cls-2" d="m149.05,143.52c-.41-.31-.74-.73-1.19-1.18.58-.54,1.17-1.07,1.73-1.63.73-.72,1.2-1.6,1.38-2.6.42-2.29.29-4.52-1.05-6.54-.36-.53-.39-.92.05-1.46,1.33-1.68,1.3-1.7-.4-2.95-.03-.02-.07-.04-.1-.07-.73-.76-1.3-.74-1.9.21-.31.5-.63,1.13-1.6.77-5.06-1.85-11.62.7-11.76,7.53-.1,4.78,2,8.01,6.94,8.68,1.29.17,2.63.19,3.86.72,1.5.65,2.25,1.87,2.13,3.5-.1,1.44-1.44,2.88-3.06,3.29-1.28.33-3-.29-3.79-1.43.85.17,1.62.34,2.4.46.38.06.92.23,1.1-.18.2-.45-.36-.62-.65-.84-2.85-2.15-6.31-2.06-9.62-2.71.97,5.32,3.6,8.01,8.11,8.39.8,0,1.61,0,2.41,0,1.36-.14,2.63-.53,3.83-1.24,3.4-2,4.84-7.98,1.19-10.73Zm-6.41-2.75c-2.68-.05-4.43-2-4.4-4.88.02-2.77,1.84-4.71,4.44-4.72,2.66-.02,4.5,2.02,4.48,4.94-.02,2.71-1.96,4.71-4.52,4.66Z"/><path class="cls-2" d="m131.92,143.62c-2.89-6.41-5.77-12.81-8.66-19.21-1.6-3.55-1.61-3.52-5.5-3.65-.76-.03-1.09.22-1.4.91-2.41,5.44-4.88,10.86-7.33,16.29-1.02,2.27-2.03,4.55-3.06,6.86,4.03.51,4.57.22,6.12-3.24.03-.07.07-.14.09-.22.2-.77.66-1,1.48-.99,3.48.05,6.96.09,10.43,0,1.26-.03,1.89.33,2.37,1.51,1.26,3.08,1.32,3.05,4.65,3.02,1.28-.01,1.34-.09.82-1.26Zm-8.92-7.51c-2.56,0-5.11,0-7.67,0-.47,0-.65-.09-.42-.62,1.4-3.15,2.77-6.31,4.28-9.77,1.52,3.48,2.88,6.64,4.28,9.79.26.58-.06.59-.47.59Z"/><path class="cls-3" d="m255.91,121.69c0-.69-.1-1.03-.9-.94-.71.08-1.44.07-2.16,0-.82-.08-1.08.16-1.07,1.02.06,2.74.02,5.47.02,8.43-2.52-2.29-3.38-2.49-7.03-2.54-2.99-.04-7.44,3.24-7.17,7.19.08,1.11.02,2.23.02,3.35,0,1.18.4,2.24,1.01,3.24,2.71,4.42,9.96,5.08,12.67,1.68.09-.11.24-.18.39-.28.31,2.03.37,2.08,2.41,2.09.28,0,.56-.03.84,0,.7.1.95-.1.95-.88-.03-7.45-.03-14.91,0-22.36Zm-9.54,19.78c-2.83-.05-4.89-2.21-4.85-5.11.04-2.94,2.1-5,4.97-4.95,2.88.05,4.93,2.15,4.93,5.04,0,2.95-2.14,5.07-5.05,5.03Z"/><path class="cls-3" d="m199.87,127.57c-5.08.01-8.7,4.36-8.67,8.7.03,5.15,3.44,8.99,8.8,9.03,5.01.04,9.13-3.77,8.64-8.78.58-5.7-4.47-8.96-8.76-8.95Zm.01,13.94c-2.78-.08-4.6-2.15-4.55-5.18.05-2.99,2.02-5.06,4.75-4.98,2.67.07,4.67,2.35,4.61,5.22-.07,2.99-2.04,5.02-4.81,4.94Z"/></g></svg>