<?xml version="1.0" encoding="UTF-8"?><svg id="Layer_1" xmlns="http://www.w3.org/2000/svg" viewBox="0 0 320 240"><defs><style>.cls-1{fill:none;}</style></defs><path class="cls-1" d="m142.04,132.07c0,.81-1.55,1.32-4.72,2.42-3.16,1.09-4.03,3.51-4.03,5.12s.81,4.77,3.8,4.77c4.56,0,4.92-6.33,4.95-7.84v-4.46Z"/><path d="m117.55,126.58s.34-8.66-9.78-8.66c-4.96,0-8.16,2.08-10.12,4.21v-21.57h-12.08v2.07h4.72v41.29h-4.72v2.07h16.79v-2.07h-4.72v-12.48s.49-10.63,8.57-11.16c4.31-.63,3.97,6.3,3.97,6.3v17.34h-4.72v2.07h16.79v-2.07h-4.72v-17.34Z"/><path d="m230.06,138.7c-2.41,0-4.37,1.96-4.37,4.37s1.96,4.37,4.37,4.37,4.37-1.96,4.37-4.37-1.96-4.37-4.37-4.37Z"/><polygon points="204.78 128.45 213.82 120.91 217.63 120.91 217.63 118.84 205.98 118.84 205.98 120.91 209.23 120.91 199.26 129.37 199.26 102.63 199.26 101.59 199.26 100.56 187.18 100.56 187.18 102.63 191.9 102.63 191.9 143.91 187.18 143.91 187.18 145.98 202.88 145.98 202.88 143.91 199.26 143.91 199.26 133.29 208.09 143.91 204.78 143.91 204.78 145.98 220.47 145.98 220.47 143.91 217.77 143.91 204.78 128.45"/><path d="m151.36,144.37c-.75.86-1.95-.58-1.95-2.65v-15.15s-.29-8.66-10.7-8.66-10.98,5.92-10.98,7.36.81,3.28,4.31,3.28,3.51-2.01,3.51-2.65-.34-1.55-.46-1.84c-.12-.29-.63-4.2,3.68-4.2s3.28,6.7,3.28,6.7v1s-.29,2.88-3.97,3.85c-3.68.98-12.13,2.19-12.13,8.57s5.29,6.9,8.97,6.9,6.44-.81,7.76-2.99c0,0,.18,2.99,6.73,2.99s5.63-2.82,5.06-3.39c-.58-.58-2.36,0-3.11.86Zm-14.26,0c-2.99,0-3.8-3.16-3.8-4.77s.86-4.03,4.03-5.12c3.16-1.09,4.72-1.61,4.72-2.42v4.46c-.02,1.51-.39,7.84-4.95,7.84Z"/><path d="m172.86,144.95c-4.14,0-7.76-3.22-7.76-12.54s3.91-12.54,7.19-12.54,4.54,2.47,3.8,3.39c-.75.92-1.04,1.96-1.04,2.42s-.52,3.28,4.03,3.28,4.31-2.7,4.31-4.08-1.04-6.96-10.87-6.96-15.7,6.33-15.7,14.75,5.52,14.23,16.1,14.23,11.39-8.97,11.39-8.97h-3.34c-1.27,3.51-3.97,7.02-8.11,7.02Z"/></svg>