<?xml version="1.0" encoding="UTF-8"?><svg id="Layer_1" xmlns="http://www.w3.org/2000/svg" viewBox="0 0 320 240"><defs><style>.cls-1{fill:none;}.cls-1,.cls-2,.cls-3{stroke-width:0px;}.cls-2{fill:#ed1b2c;}.cls-2,.cls-3{isolation:isolate;}.cls-3{fill:#231e54;}</style></defs><path class="cls-3" d="m180.76,108.06c.24.48.48.96.73,1.44.32.82.64,1.64.96,2.46-.32-.82-.64-1.64-.96-2.46-.24-.48-.48-.96-.73-1.44Z"/><path class="cls-2" d="m82.53,124.01s.09,0,.13,0c.68,0,1.36,0,2.04,0-.68,0-1.36,0-2.04,0-.04,0-.09,0-.13,0Z"/><path class="cls-2" d="m133.87,121.07c.09.11.17.21.26.31h0c-.08-.1-.17-.2-.26-.31Z"/><path class="cls-1" d="m177.36,112.1c1.02-.02,2.03-.04,3.05-.07-1.02.02-2.03.04-3.05.07h0Z"/><path class="cls-2" d="m97.91,124.08c-.08-.85-.16-1.69-.25-2.54-.11-.84-.22-1.68-.32-2.53.1.84.21,1.68.32,2.53.08.85.16,1.69.25,2.54Z"/><path class="cls-3" d="m220.33,103.29s0,0,0,0l.14-.43c-.05.14-.09.29-.14.43,0,0,0,0,0,0Z"/><path class="cls-2" d="m86.22,134.15c-.11.15-.22.21-.33.23.11-.02.22-.08.33-.23.02-.11.05-.22.07-.33-.02.11-.05.22-.07.33Z"/><path class="cls-3" d="m218.96,106.34c-.17.72-.34,1.44-.51,2.16.17-.72.34-1.44.51-2.16.04-.14.07-.29.11-.43,0-.04,0-.07,0-.11v.11c-.04.14-.07.29-.11.43Z"/><path class="cls-2" d="m97.8,128.52c.18-.15.35-.29.53-.44-.06-.87-.13-1.73-.19-2.6.06.87.13,1.73.19,2.6-.18.15-.35.29-.53.44Z"/><path class="cls-1" d="m169.11,137.29c-.1.64-.2,1.29-.31,1.93.1-.64.2-1.29.31-1.93h0Z"/><path class="cls-2" d="m86.24,133.06h0c.01.26.03.51.04.76-.01-.25-.03-.5-.04-.75,0,0,0,0,0,0Z"/><path class="cls-3" d="m195.87,137.36c.23-1,.46-2,.69-3,.16-.79.32-1.57.48-2.36-.16.79-.31,1.57-.48,2.36-.23,1-.46,2-.69,3Z"/><path class="cls-2" d="m123.59,111.31h0c-.09.33-.18.66-.27.98.09-.33.18-.66.27-.98Z"/><path class="cls-2" d="m75.78,112.81c0-.07,0-.13,0-.2,0-.14,0-.27,0-.41,0,.14,0,.27,0,.41,0,.07,0,.13,0,.2Z"/><path class="cls-3" d="m237.2,109.79s.09-.07.14-.1h0s-.09.07-.14.1Z"/><path class="cls-2" d="m105.62,102.63c-.07-.2-.14-.41-.22-.61-.11,0-.22,0-.33,0,.11,0,.22,0,.33,0,.07.2.14.41.22.61Z"/><path class="cls-2" d="m158.31,114.68c-.07-.21-.14-.43-.21-.64-.56.02-1.12.04-1.68.07.56-.02,1.12-.04,1.68-.07.07.21.14.43.21.64Z"/><path class="cls-2" d="m151.03,103.41s0-.07-.01-.11c.03-.07.05-.15.08-.22-.03.07-.05.15-.08.22v.11Z"/><path class="cls-2" d="m152.76,123.1c1.05,0,2.11.02,3.16.02l-.33.61c.11-.2.22-.4.33-.61-1.05,0-2.11-.02-3.16-.02Z"/><path class="cls-2" d="m156.35,114.11c-.54-.02-1.09-.05-1.63-.07.54.02,1.09.05,1.63.07h0Z"/><path class="cls-2" d="m135.21,116.94h0c.04-.25.09-.5.13-.75-.04.25-.09.5-.13.75Z"/><path class="cls-2" d="m150.46,102.66h0c-.08.43-.14.85-.22,1.28.07-.43.14-.85.22-1.28Z"/><path class="cls-2" d="m155.47,126.23s-.05.08-.08.12c-.17.69-.34,1.38-.52,2.07.17-.69.34-1.38.52-2.07.03-.04.05-.08.08-.12Z"/><path class="cls-2" d="m155.39,126.35s.05-.08.08-.12c0,0,0,0,0,0h0c.07-.28.14-.56.21-.85s.14-.56.2-.85c.05-.22.01-.45.01-.68-.03-.02-.05-.05-.08-.07-.07-.02-.15-.04-.22-.06-.91.02-1.81.03-2.72.05-.08.03-.16.08-.24.08-1.48,0-2.97-.01-4.45-.02-.33-.03-.65-.07-.98-.1-1,.05-1.09.12-1.29,1.07-.23,1.06-.44,2.12-.68,3.18-.38,1.67-.79,3.33-1.19,4.99-.03.14-.08.27-.13.4-.3,1.36-.61,2.73-.89,4.09-.1.49-.43.5-.81.5-2.61,0-5.22,0-7.83,0-.89,0-1.77,0-2.66,0-.4,0-.79,0-1.19-.03-.3-.02-.36-.14-.27-.47.34-1.24.63-2.5.94-3.75.03-.04.06-.08.09-.12.01-.07.02-.13.04-.2.19-.94.36-1.88.57-2.82.32-1.41.67-2.81,1.01-4.22-.09.01-.19,0-.26.04-.37.28-.57.18-.63-.26,0-.04-.11-.07-.16-.11-.04.08-.1.15-.12.23-.22.92-.44,1.84-.66,2.75-.58,2.42-1.16,4.84-1.73,7.26-.18.76-.41,1.52-.53,2.29-.1.66-.02.69.67.67.43-.02.87-.07,1.3-.07,3.7,0,7.4,0,11.1,0,.5,0,1.01.06,1.51.06.14,0,.37-.13.4-.24.46-1.8.91-3.61,1.34-5.42.43-1.8.84-3.61,1.26-5.41.25-1.06.5-2.11.77-3.22,2.25,0,4.55,0,6.85,0,.45,0,.38.32.3.62-.23.95-.46,1.9-.68,2.85.41,0,.81,0,1.22.01.17-.69.34-1.38.52-2.07Z"/><path class="cls-2" d="m73.28,137.99c-.15-.02-.29-.04-.44-.05-.81,0-1.63.02-2.44.02-2.68,0-5.36,0-8.03.01-.43,0-.86.03-1.29.05-.45,0-.9.01-1.35.02-.35,0-.49-.17-.32-.46.31-.53.66-1.04.99-1.56,0,0,0,0,0,0,.23-.39.46-.79.7-1.18,2.1-3.33,4.21-6.66,6.32-9.98.35-.55.7-1.1,1.05-1.65,1.16-1.86,2.32-3.71,3.49-5.57,1.08-1.72,2.18-3.43,3.27-5.14.08-.13.21-.23.32-.35-.09-.09-.17-.22-.28-.28-.39-.21-.47-.49-.27-.87-.16.09-.37.14-.46.27-1.67,2.62-3.31,5.25-4.97,7.87-2.28,3.63-4.57,7.25-6.86,10.88-.65,1.01-1.31,2.02-1.96,3.03-.61,1-1.22,2-1.83,3-.42.66-.85,1.33-1.27,1.99-.19.35-.38.7-.63,1.14.44-.02.8-.05,1.16-.05,5.18,0,10.35.02,15.53.04.47,0,.75-.16.87-.6-.35-.08-.7-.13-1.03-.24-.13-.04-.2-.24-.3-.36Z"/><path class="cls-2" d="m101.46,106.11c.2.11.41.21.61.34.14.09.25.21.37.32.33-1.18.67-2.36,1-3.54.08-.3.12-.62.24-.91.06-.14.27-.28.42-.29.32-.03.65-.01.98,0,.11,0,.22,0,.33,0,4.71-.03,9.42-.08,14.13-.1,3.57-.01,7.14,0,10.71.01.25,0,.5.04.75.06h3.78c-.18.68-.33,1.27-.48,1.86-.27,1.06-.54,2.12-.8,3.18-.09.34-.15.69-.23,1.03.82-.11.91-.22.79-.99-.08-.52.24-.87.84-.91.51-1.75,1-3.51,1.38-5.39-.96,0-1.8,0-2.63,0-8.76,0-17.52,0-26.29,0-1.49,0-2.97.01-4.46.02-.21.67-.45,1.34-.63,2.02-.29,1.09-.54,2.2-.81,3.3Z"/><path class="cls-3" d="m223.48,106.8c-.07-.65-.1-1.31-.18-1.96-.11-.87-.24-1.74-.38-2.7.83-.3,1.76-.06,2.67-.15.43-.02.86-.06,1.29-.06,2.28,0,4.55,0,6.83.02.09,0,.18.03.27.04.25,0,.5,0,.74-.03.56-.08.88.1.87.71.04.83.07,1.66.11,2.48.07.87.15,1.73.22,2.6.05.22.09.43.14.65.51.14.6.55.64.99.02.22,0,.45,0,.79.21-.16.36-.27.51-.38.05-.04.09-.07.14-.1h0s.05.01.05.01c-.26-2.96-.53-5.92-.8-8.93-1.01,0-1.93,0-2.86,0-7.76,0-15.52,0-23.29,0-.25,0-.5.04-.75.06.31.68.99.58,1.54.62,1.31.09,2.62.1,3.94.12.84.02,1.68,0,2.52,0,.29,0,.61-.02.61.41.58,0,1.16.01,1.74.02.61,0,.62.03.45.6-.02.08,0,.18,0,.27.18-.05.36-.13.55-.16.27-.04.58-.24.75.17.08.46.16.93.22,1.39.19,1.5.36,3,.55,4.51.05.41.15.82.22,1.23.35-.04.7-.07,1.06-.11-.12-1.03-.24-2.07-.34-3.1Z"/><path class="cls-3" d="m221.03,102.71c-.19.03-.36.1-.55.16l-.14.43c-.12.49-.24.99-.35,1.48-.29,1.16-.59,2.32-.86,3.48-.33,1.4-.63,2.8-.95,4.2-.33,1.42-.68,2.83-1.02,4.25-.52,2.13-1.06,4.26-1.56,6.39-.32,1.37-.6,2.75-.91,4.13-.05.22-.14.44-.22.65-.02.07-.04.15-.07.22-.05.25-.1.5-.14.75-.1.4-.2.8-.3,1.19-.04.18-.09.36-.13.54-.13.65-.27,1.3-.4,1.95-.4,1.69-.8,3.38-1.23,5.05-.04.16-.33.33-.54.37-.35.07-.72.03-1.08.04.11.38.22.77.33,1.15.6,0,1.19.01,1.79.02.31,0,.44-.16.5-.44.23-1.1.45-2.19.71-3.28.36-1.51.77-3.01,1.13-4.53.69-2.9,1.35-5.8,2.03-8.7.51-2.18,1.05-4.36,1.57-6.54.53-2.23,1.08-4.46,1.59-6.7.43-1.84.82-3.69,1.24-5.53.05-.2.2-.38.31-.56-.17-.4-.48-.21-.75-.17Z"/><path class="cls-2" d="m83.73,112.04c.58,0,1.16,0,1.74.01-.22-.6-.44-1.19-.66-1.79-.25-.54-.51-1.07-.74-1.61-.55-1.26-1.08-2.52-1.62-3.78-.1-.23-.16-.47-.24-.7-.3-.67-.59-1.34-.95-2.14.88-.02,1.68-.04,2.48-.06,1.99-.01,3.97-.04,5.96-.04,1.32,0,2.63.05,3.95.07h1.82c.12,1.5.23,2.86.34,4.22.12.76.25,1.52.35,2.28.06.41.11.83.16,1.24.05.41.1.83.15,1.24.17-.14.34-.28.6-.5.03.27.08.46.06.65-.05.49.17.66.63.6-.13-1.14-.26-2.28-.39-3.41-.09-.81-.16-1.62-.25-2.43-.14-1.33-.28-2.67-.41-4-.08-.36-.15-.72-.23-1.08-.04-.01-.09-.03-.13-.04h-16.86c.53,1.33,1.02,2.59,1.53,3.83.84,2.02,1.69,4.03,2.56,6.03.15.35-.04.36-.27.37.27.29.57.58.43,1.04Z"/><path class="cls-3" d="m180.67,110.8c-.18.07-.33.12-.48.18.16.06.31.12.58.22-.12.27-.24.55-.36.83l.33.02c.18,0,.36.01.54.02.33,0,.65,0,.98,0,.04-.02.07-.03.11-.05.01-.03.04-.06.07-.07-.32-.82-.64-1.64-.96-2.46-.24-.48-.48-.96-.73-1.44-.01-.11-.03-.21-.04-.32l-.1-.22c-.33-.83-.66-1.66-.99-2.49-.42-.94-.85-1.88-1.3-2.89.72-.27,1.46-.1,2.19-.17.41-.02.83-.06,1.24-.06,1.88,0,3.76,0,5.65,0,.25,0,.5.06.74.09,1.09,0,2.17-.08,3.21,0-.37,1.67-.69,3.22-1.05,4.76-.22.92-.5,1.83-.73,2.75-.17.69-.29,1.4-.43,2.1.12-.09.34-.17.36-.27.09-.59.39-.53.78-.3.04.03.1.02.16.03.03-.06.09-.11.1-.17.26-1.09.5-2.18.77-3.27.51-2.13,1.02-4.25,1.54-6.37.09-.36-.01-.53-.4-.5-.11,0-.22,0-.33,0-4.98,0-9.96,0-14.94.02-.2,0-.41.09-.61.13.08.22.16.43.25.65,1.29,3.07,2.57,6.14,3.87,9.23Z"/><path class="cls-2" d="m159.74,107.85s.05-.09.08-.13c.05-.23.09-.45.14-.68.36-1.59.71-3.18,1.09-4.76.03-.12.28-.25.43-.26.54-.04,1.08-.03,1.61-.04,1.7-.02,3.39-.05,5.09-.05.84,0,1.69.05,2.53.08.76,0,1.53,0,2.29,0,.67-.02.77.09.61.72-.1.4-.2.81-.3,1.21-.57,2.38-1.15,4.76-1.72,7.15,0,.03,0,.07,0,.11.25-.25.49-.5.72-.73.21.15.39.28.57.41.17-.62.35-1.24.49-1.86.39-1.65.77-3.31,1.16-4.97.23-.98.48-1.95.72-2.92-.14-.11-.28-.3-.42-.3-.87-.04-1.73-.06-2.6-.06-3.64-.01-7.28-.02-10.93-.02-.41,0-.82.04-1.19.06-.45,1.91-.9,3.75-1.32,5.6-.25,1.09-.47,2.19-.71,3.29.4-.07.8-.14,1.2-.21.15-.54.29-1.09.44-1.63Z"/><path class="cls-2" d="m100.19,133.82c0-.23,0-.47-.02-.7-.14-1.07-.3-2.13-.43-3.2-.16-1.33-.3-2.67-.45-4-.1.17-.22.33-.31.5-.08.16-.15.32-.22.49-.05,0-.09-.02-.14-.03-.06-.34-.1-.68-.19-1.01-.04-.14-.19-.25-.3-.38.06.87.13,1.73.19,2.6.07.68.14,1.37.22,2.05.14,1.23.28,2.46.41,3.69.07.69.15,1.37.22,2.06.07.66.14,1.32.21,2.05h-1.61c-1.57.01-3.14.03-4.71.03-1.62,0-3.25-.02-4.87-.03-.42,0-.83-.01-1.25.01-.5.03-.73-.14-.58-.66-.02-1.04-.04-2.08-.05-3.12h-.05s-.04,0-.04,0c-.11.15-.22.21-.33.23-.04,0-.07,0-.11,0-.1,0-.2-.05-.3-.09-.15-.06-.3-.14-.45-.15.04.44.11.88.11,1.32.02,1.04.03,2.09-.01,3.13-.02.51.2.65.66.63,1.1-.03,2.2-.05,3.3-.05,3.87-.03,7.74-.05,11.61-.07,0-.07.02-.14.03-.2-.18-1.7-.36-3.39-.55-5.09Z"/><path class="cls-3" d="m259.71,100.76c-4.33.02-8.67.05-13,.08.18.37.36.75.54,1.12.14.02.29.04.43.06.65-.01,1.3-.02,1.95-.03.61-.02,1.22-.06,1.84-.05,2,.02,4.01.06,6.01.09.33,0,.65,0,.98,0,.76,0,1.51.02,2.36.03-.56,1.02-1.04,1.89-1.52,2.75-.75,1.33-1.51,2.65-2.27,3.98-1.12,1.95-2.24,3.89-3.35,5.84-.08.15-.16.3-.23.45-.07.15-.14.31-.22.46l1.3.11c2.78-4.91,5.56-9.82,8.42-14.89-1.19,0-2.21,0-3.24,0Z"/><path class="cls-2" d="m120.45,124.41c-.34,1.36-.67,2.72-1.01,4.08-.32,1.27-.65,2.53-.95,3.8-.08.33-.14.65-.21.98-.06.33-.12.66-.19.99-.02.07-.04.15-.06.22-.01.07-.02.14-.03.21-.18.84-.37,1.67-.55,2.51-.15.68-.26.77-.93.77-2.4,0-4.81-.02-7.21-.03-1.02,0-2.03,0-3.05,0-.52,0-1.05,0-1.57-.04-.03,0-.04-.33-.06-.5-.17-.08-.33-.16-.5-.24-.19-.1-.38-.2-.57-.31l-.37,1.62c0,.26.01.52.02.78,1.35-.03,2.71-.09,4.06-.09,3.41,0,6.81.02,10.22.04.44,0,.68-.11.78-.59.21-.99.49-1.97.72-2.95.54-2.25,1.08-4.49,1.6-6.74.21-.92.39-1.85.58-2.77-.1-.17-.19-.33-.29-.5.16-.02.32-.03.47-.05.04-.14.07-.29.11-.43-.16.02-.31.05-.43.07-.21-.29-.41-.55-.6-.82Z"/><path class="cls-3" d="m195.76,137.83c-.65.03-1.3.06-1.96.09-.29.03-.59.08-.88.08-1.19,0-2.39-.03-3.58-.05-.69,0-1.37.02-2.06.02-4.85,0-9.7,0-14.55,0-.23,0-.47-.02-.7-.03-.43,0-.86.02-1.28,0-.19-.01-.38-.13-.56-.2-.36.35-.61.18-.85-.15-.03-.05-.07-.09-.11-.14-.04-.05-.08-.09-.12-.14-.1.64-.2,1.29-.31,1.93.65,0,1.3-.01,1.96-.01,5.6,0,11.21-.01,16.81-.01,2.7,0,5.39.02,8.09.03.04-.06.08-.11.11-.17.23-.39.22-.8,0-1.23Z"/><path class="cls-3" d="m240.18,137.97c-.16.5-.67.32-1,.48-.05.03-.27-.28-.41-.43-.18-.02-.35-.05-.53-.05-2.04,0-4.09,0-6.13,0-1.25,0-2.49.05-3.74.07-.17,0-.33-.06-.5-.09-.22-.07-.44-.13-.66-.2-.02-.05-.04-.09-.06-.14l-.05-.54c-.1-.58-.23-1.16-.3-1.75-.2-1.63-.38-3.27-.55-4.9-.1-.92-.16-1.84-.24-2.76-.1-.7-.2-1.4-.3-2.11-.04-.31-.08-.62-.12-.93-.1.09-.24.16-.3.27-.16.31-.4.44-.74.38.03.37.05.74.08,1.11.11,1.11.2,2.22.33,3.33.13,1.11.3,2.21.43,3.31.09.77.13,1.55.22,2.33.13,1.1.31,2.2.42,3.31.04.38.15.5.51.49.58-.02,1.16,0,1.74,0,3.78.03,7.57.06,11.35.07.44,0,.88-.08,1.32-.12-.12-.4-.23-.81-.35-1.21-.14.02-.28.05-.42.07Z"/><path class="cls-3" d="m252.94,116.02s.07,0,.12,0c-.06,0-.09.01-.13.02-1.33,2.36-2.65,4.73-3.99,7.09-1.38,2.43-2.79,4.85-4.17,7.29-1.23,2.17-2.43,4.35-3.65,6.52-.11.2-.26.38-.39.58-.05.13-.09.26-.14.39.12.4.23.81.35,1.21.19-.15.43-.27.55-.46.25-.4.42-.86.66-1.28,2.02-3.56,4.05-7.11,6.08-10.66,1.05-1.84,2.09-3.67,3.14-5.51,1.05-1.85,2.11-3.71,3.16-5.56l-1.3-.11c-.1.16-.19.32-.29.49Z"/><path class="cls-2" d="m166.54,137.97c.2-.5.27-1.05.39-1.57.03-.1.07-.2.1-.3l.03-.22c.09-.43.18-.86.26-1.3-.21.2-.42.4-.68.65-.04-.48-.07-.95-.12-1.42-.01-.14-.06-.28-.09-.43-.28,1.25-.58,2.49-.85,3.74-.17.81-.34.93-1.3.83-1.12,0-2.24.03-3.35.02-2.29,0-4.59-.03-6.88-.04-.34,0-.68.02-1.03,0-.31,0-.46-.11-.32-.47.16-.44.24-.91.35-1.37-.44.02-.27-.39-.41-.57-.16-.21-.31-.42-.47-.62-.34,1.37-.68,2.74-1.02,4.1.02.06.04.11.06.17.18-.01.36-.03.54-.03,4.76,0,9.51,0,14.27,0,.53-.23.35-.78.5-1.17Z"/><path class="cls-3" d="m240.24,114.68c1.22-2.44,2.44-4.88,3.67-7.32.66-1.32,1.34-2.63,2-3.94.03-.06.03-.14.05-.21.07-.11.13-.23.2-.34.26-.43.39-1.03,1.11-.91-.18-.37-.36-.75-.54-1.12-.14,0-.29,0-.43,0,.02.42-.26.43-.56.41-.07.15-.14.29-.21.44h0s0,0,0,0c.08.08.16.16.25.24.09.08.18.17.28.27-.23.14-.43.26-.62.37-.19.11-.36.22-.54.32-.56,1.12-1.12,2.24-1.68,3.35-1.06,2.12-2.11,4.24-3.18,6.35-.63,1.24-1.28,2.47-1.93,3.71.37.15.75.3,1.12.44.07-.07.13-.15.2-.22.27-.61.52-1.23.82-1.83Z"/><path class="cls-2" d="m135.34,116.19c-.06-.15-.11-.29-.17-.44q-.26-.64.46-.65c.47-1.94.96-3.87,1.41-5.81.5-2.16.96-4.32,1.48-6.47.07-.3.34-.56.52-.83-.11-.39-.22-.79-.33-1.18-.22,0-.44,0-.65,0-.1.07-.19.13-.29.2-.36,1.48-.72,2.96-1.07,4.44-.35,1.45-.68,2.9-1.03,4.35-.35,1.48-.71,2.96-1.06,4.44.15.12.3.23.45.35-.02.05-.04.11-.06.16l-.5.04c0,.07,0,.14,0,.21.32.34.14,1.01-.33,1.19-.05.21-.1.43-.15.64.4.04.8.07,1.19.11.04-.25.09-.5.13-.75Z"/><path class="cls-2" d="m140.13,102.02c2.53-.03,5.05-.07,7.58-.09.16,0,.32.04.48.06.58,0,1.16,0,1.74.01h1.49c-.13.42-.23.75-.32,1.08-.03.07-.05.15-.08.22,0,.04,0,.07.01.11.66-.02.75.56,1,.96.29-1.17.58-2.33.88-3.56-.23-.01-.41-.03-.58-.03-1.37,0-2.75-.01-4.12,0-3.16,0-6.33.02-9.49.03.11.39.22.79.33,1.18.36.01.72.03,1.09.04Z"/><path class="cls-3" d="m204.96,110.61c.02.56.42.5.79.49.41-1.65.81-3.3,1.22-4.95.06-.23.14-.45.2-.68h0c.11-.49.22-.98.34-1.47.11-.49.22-.98.32-1.47.09-.42.31-.56.71-.53.49.03.98.02,1.47.03,1.96,0,3.93-.02,5.89-.02.36,0,.72.01,1.08.02.43-.01.87-.02,1.3-.04,0-.43-.33-.41-.61-.41-.84,0-1.68.01-2.52,0-1.31-.03-2.63-.03-3.94-.12-.55-.04-1.22.06-1.54-.62-.56,0-1.12-.02-1.68,0-.35,0-.75-.03-1.05.11-.13.06-.04.53-.1.8-.45,1.9-.92,3.8-1.37,5.7-.24,1-.47,2.01-.71,3.01.07.06.18.11.19.17Z"/><path class="cls-2" d="m85.78,134.39s.07,0,.11,0c.11-.02.22-.08.33-.23.02-.11.05-.22.07-.33-.01-.25-.03-.5-.04-.75h0c-.07-.04-.15-.08-.22-.11-.7.03-1.4.09-2.1.09-2.09.01-4.19,0-6.28,0-.02,0-.04.01-.05,0-.87-.32-1.15.27-1.49.88-.65,1.16-1.34,2.3-2.05,3.42-.17.26-.5.42-.76.63.1.12.17.32.3.36.33.11.69.16,1.03.24.84-1.37,1.67-2.74,2.54-4.09.12-.18.41-.37.62-.37,2.42-.01,4.84,0,7.27.02.15,0,.3.08.45.15.1.04.2.08.3.09Z"/><path class="cls-3" d="m225.27,124.89c.06-.11.2-.18.3-.27h0c-.09-.82-.17-1.65-.26-2.47-.12-1-.24-2-.36-2.99-.12-.96-.24-1.93-.35-2.89-.03-.24-.05-.49-.07-.73-.23-1.88-.46-3.75-.7-5.63-.35.04-.7.07-1.06.11.11.95.22,1.89.32,2.84.11,1.07.2,2.15.33,3.22.2,1.7.43,3.39.64,5.09.17,1.37.32,2.74.47,4.11.34.06.58-.07.74-.38Z"/><path class="cls-2" d="m123.86,112.08c.04-.2-.12-.44-.23-.67-.02-.03-.03-.07-.04-.1-.09.33-.18.66-.27.98s-.18.66-.26.99c-.4,1.59-.8,3.19-1.18,4.79-.35,1.51-.67,3.03-1.01,4.55-.13.6-.28,1.19-.41,1.79.2.27.39.54.6.82.12-.02.28-.04.43-.07.16-.7.31-1.39.48-2.09.64-2.72,1.29-5.43,1.93-8.15.16-.7.29-1.4.44-2.1-.35-.13-.57-.28-.47-.74Z"/><path class="cls-3" d="m209.59,137.94c-2.65,0-5.3,0-7.95,0-.69.03-1.38.06-2.06.09-.06.25-.12.5-.18.77.12.13.26.27.39.42h0,0c.11-.01.21-.02.32-.04.11-.01.21-.02.32-.02,2.73,0,5.47.02,8.2.03.76,0,1.52-.03,2.27-.04-.11-.38-.22-.77-.33-1.15-.33-.02-.65-.04-.98-.06Z"/><path class="cls-2" d="m151.03,103.41c-.05.18-.09.36-.14.54-.17.82-.33,1.65-.52,2.47-.43,1.88-.87,3.76-1.32,5.64-.12.49-.27.98-.4,1.47-.1.35-.05.61.4.62.58-.03,1.16-.07,1.74-.1.18-.01.36-.03.55-.04-.1-.19-.2-.37-.29-.56-.09-.18-.17-.36-.25-.55-.25-.03-.5-.06-.79-.1.09-.26.18-.48.24-.72.3-1.22.59-2.44.87-3.66.31-1.35.61-2.7.91-4.04-.26-.4-.34-.97-1-.96Z"/><path class="cls-3" d="m186.62,129.04c2.64-.03,5.28-.07,7.92-.08.7,0,1.4.07,2.1.11.11-.01.22-.02.32-.03.05-.1.12-.28.16-.28.63.12.92-.68,1.55-.57.03,0,.1-.2.15-.3-3.94,0-7.87,0-11.81,0-.05.19-.08.39-.14.58-.06.2-.16.38-.24.57Z"/><path class="cls-3" d="m187.69,120.18c-.02-.38.17-.84-.33-1.08-.4,1.6-.79,3.19-1.18,4.79-.34,1.39-.68,2.78-1.01,4.17-.07.3-.09.61-.15.97.37.02.71.04,1.04.05.18-.01.37-.02.55-.04.08-.19.17-.38.24-.57.06-.19.09-.39.14-.58-.16-.02-.31-.03-.47-.05,0-.16-.03-.31,0-.45.34-1.33.71-2.66,1.04-4,.11-.44.21-.88.3-1.33.09-.44.19-.89.28-1.33h0c-.16,0-.26-.02-.32-.08-.11-.1-.12-.28-.13-.47Z"/><path class="cls-3" d="m189.5,111.37c-.02.11-.23.18-.36.27-.1.39-.19.78-.29,1.16-.49,2.01-.98,4.02-1.47,6.03-.02.09-.02.18-.03.27.5.24.31.7.33,1.08.01.2.02.38.13.47.07.06.17.09.32.08.14-.55.3-1.09.43-1.65.41-1.7.81-3.41,1.2-5.11.22-.96.43-1.92.65-2.88-.05,0-.11,0-.16-.03-.39-.23-.69-.29-.78.3Z"/><path class="cls-3" d="m201.62,124.72c-.07.71.34.57.76.44.04-.04.07-.08.11-.11.01-.07.02-.14.03-.22h-.04c-.4-.25-.12-.33.12-.43.08-.25.16-.5.24-.75.2-.88.39-1.77.6-2.65.32-1.34.66-2.68.99-4.02.04-.15.03-.32.05-.48-.31-.2-.56-.1-.78.16-.15.18-.34.32-.51.48-.04.09-.1.18-.12.28-.4,1.7-.8,3.39-1.19,5.09-.15.66-.29,1.33-.43,1.99.06.07.19.15.18.21Z"/><path class="cls-2" d="m75.29,111.88c.11.06.19.18.28.28.07.01.14.03.21.04.51-.04,1.02-.09,1.53-.13,1.94,0,3.89,0,5.83-.01.2,0,.4,0,.59-.02.13-.46-.16-.74-.43-1.04-2.76,0-5.52,0-8.28,0-.21.38-.13.66.27.87Z"/><path class="cls-2" d="m130.89,111.98c.02-.07.04-.17.09-.35.06.25.09.33.11.42.33,0,.65,0,.98,0,.06-.48-.33-.5-.63-.63-.24-.11-.45-.27-.67-.4-1.76,0-3.53,0-5.29-.01-.16,0-.32-.02-.48-.02-.47.04-.95.08-1.42.12,0,.07.01.15.02.22h0s.03.07.04.1c.11.23.28.48.23.67-.1.47.12.62.47.74,0-.92.67-.76,1.24-.76,1.77,0,3.54-.01,5.31-.02,0-.02.01-.04.02-.07Z"/><path class="cls-3" d="m199.39,138.8c.06-.27.12-.52.18-.77-.04-.13-.13-.28-.11-.39.36-1.51.74-3.02,1.1-4.53.11-.44.21-.89.31-1.34-.33-.22-.67-.44-1-.66-.46,1.91-.92,3.83-1.38,5.74.47.28.58,1.39.17,1.73-.21.17-.47.29-.71.44.17.07.35.13.52.2.04-.05.07-.1.11-.16.04.05.07.1.11.16.36,0,.72,0,1.09,0h0c-.14-.15-.28-.29-.39-.42Z"/><path class="cls-2" d="m153.07,136.1c.07-.29.14-.58.22-.86-.05-.04-.1-.07-.16-.11l.16-.11c.05-.11.11-.22.16-.32h0c.06-.31.1-.61.16-.92.05-.31.11-.61.18-.91.35-1.48.73-2.96,1.09-4.43-.41,0-.81,0-1.22-.01-.22.99-.44,1.98-.66,2.96-.27,1.17-.54,2.35-.81,3.52.16.21.31.42.47.62.14.19-.03.6.41.57Z"/><path class="cls-3" d="m201.74,128.39c.05-.21.09-.41.13-.62l.51-2.17c.01-.07.03-.14.04-.21-.01-.07-.03-.15-.04-.22-.42.13-.83.27-.76-.44,0-.06-.12-.14-.18-.21-.33,1.33-.68,2.65-1,3.98-.21.87-.38,1.74-.56,2.61.33.22.67.44,1,.66.29-1.13.58-2.25.86-3.38Z"/><path class="cls-3" d="m199.05,127.96c-.08-.02-.16-.04-.25-.06-.05.11-.12.31-.15.3-.63-.1-.91.69-1.55.57-.03,0-.1.18-.16.28.34.07.76-.06.6.61-.19.78-.36,1.56-.52,2.35-.16.79-.31,1.57-.48,2.36.25-.15.49-.3.73-.45.21-.13.42-.28.63-.41.45-1.83.89-3.66,1.34-5.49-.06-.02-.14-.03-.22-.05Z"/><path class="cls-3" d="m204.48,116.51c.25-.97.51-1.94.75-2.91.17-.68.32-1.36.47-2.04.03-.15.04-.31.06-.46-.37.01-.77.07-.79-.49,0-.06-.12-.11-.19-.17-.35,1.41-.71,2.82-1.05,4.23-.2.83-.36,1.66-.54,2.49.17-.16.36-.31.51-.48.23-.26.47-.36.78-.16Z"/><path class="cls-2" d="m134.05,107.07c.12.78.03.88-.79.99-.04.11-.08.21-.12.32-.02.15-.04.29-.07.44-.11.42-.24.84-.34,1.27-.15.66-.19.76-.72.78-.08,0-.16,0-.26,0-.33.04-.65.08-.98.13.22.14.44.3.67.4.3.13.69.15.63.63.34,0,.69.05,1.02,0,.15-.02.29-.21.39-.36.06-.09,0-.24.04-.36.45-1.73.91-3.45,1.36-5.17-.6.05-.92.4-.84.91Z"/><path class="cls-2" d="m156.42,114.11c.56-.02,1.12-.04,1.68-.07.19-.6.4-1.2.56-1.82.24-.91.44-1.83.65-2.75-.4.07-.8.14-1.2.21-.22.91-.47,1.82-.65,2.74-.06.32-.16.43-.47.44-.32,0-.64.04-.97.06.11.4.22.79.33,1.19.02,0,.04,0,.07,0Z"/><path class="cls-2" d="m132.04,126.14c.07.44.26.54.63.26.06-.05.17-.03.26-.04.07-.18.14-.37.21-.55.14-.7.28-1.4.44-2.1.17-.78.37-1.55.55-2.33-.08-.1-.17-.2-.26-.31-.09-.11-.18-.22-.28-.33-.4.2-.02,1.02-.73.97-.1.43-.2.85-.3,1.28-.21.9-.41,1.8-.61,2.71-.03.04-.05.08-.08.12,0,.07,0,.15,0,.22.06.04.16.06.16.11Z"/><path class="cls-2" d="m151.34,114c1.13.01,2.25.03,3.38.04.54.02,1.09.05,1.63.07-.11-.4-.22-.79-.33-1.19-1.74-.01-3.48-.02-5.23-.03.08.18.17.37.25.55.09.19.19.38.29.56Z"/><path class="cls-3" d="m196.56,134.37c-.23,1-.46,2-.69,3-.04.16-.07.31-.11.46.22.43.24.83,0,1.23-.03.06-.07.11-.11.17.42-.01.86.2,1-.52.36-1.74.84-3.46,1.27-5.2-.21.14-.42.28-.63.41-.24.15-.49.3-.73.45Z"/><path class="cls-2" d="m133.6,120.74c.1.12.19.23.28.33s.17.21.26.31c.19-.79.38-1.59.57-2.38.11-.4.23-.8.34-1.19l.17-.86h0c-.4-.04-.8-.07-1.19-.11-.25.98-.5,1.97-.74,2.95-.15.64-.28,1.28-.41,1.92.71.05.33-.77.73-.97Z"/><path class="cls-3" d="m198.5,136.85c-.18.72-.36,1.44-.54,2.17.24-.14.49-.26.71-.44.42-.34.3-1.45-.17-1.73Z"/><path class="cls-3" d="m245.75,101.92c-.09-.08-.17-.16-.25-.24h0c-.14.26-.27.52-.41.79-.07.14-.14.27-.21.41h0c.18-.1.35-.21.54-.32.19-.11.39-.23.62-.37-.1-.1-.19-.18-.28-.27Z"/><path class="cls-2" d="m134.49,114.99c-.11.4-.22.79-.33,1.19.46-.18.64-.85.33-1.19Z"/><path class="cls-2" d="m121.19,126.15c.06-.18.12-.37.19-.55-.16.02-.32.03-.47.05.1.17.19.33.29.5Z"/><path class="cls-2" d="m135.05,114.58c-.15-.12-.3-.23-.45-.35l-.12.54.5-.04c.02-.05.04-.11.06-.16Z"/><path class="cls-3" d="m246.27,100.83c-.37-.11-.49.11-.56.41.3.02.58.01.56-.41Z"/><path class="cls-2" d="m130.89,111.98s-.01.05-.02.07h0c.07,0,.15,0,.22,0-.02-.09-.05-.18-.11-.42-.05.18-.07.28-.09.35Z"/><path class="cls-3" d="m198.48,139.22c.07,0,.15,0,.22,0-.04-.05-.07-.1-.11-.16-.04.05-.07.1-.11.16Z"/><path class="cls-2" d="m98.75,121.04c-.17-1.48-.37-2.95-.53-4.42-.17-1.62-.31-3.25-.47-4.87-.46.06-.68-.11-.63-.6.02-.19-.03-.39-.06-.65-.26.22-.43.36-.6.5h0c.18,1.53.37,3.06.55,4.6.05.41.06.81.1,1.22.07.74.14,1.47.23,2.21.1.84.21,1.68.32,2.53.08.85.16,1.69.25,2.54.02.08.05.15.07.23.05.39.11.79.16,1.18.1.13.26.24.3.38.09.33.13.68.19,1.01.05,0,.09.02.14.03.07-.16.13-.33.22-.49.09-.17.21-.34.31-.5-.07-.5-.15-1-.2-1.51-.12-1.13-.21-2.25-.34-3.38Z"/><path class="cls-2" d="m106.01,128.91s.09,0,.14,0c.04,0,.09-.02.12-.04.12-.06.21-.21.26-.47,0-.05.18-.06.28-.1.12-.51.23-1.01.35-1.52.03-.04.06-.07.09-.11,0-.07.02-.14.03-.21.18-.79.36-1.59.54-2.38.51-2.13,1.01-4.26,1.52-6.38.02-.07.01-.14.02-.21.07-.32.13-.65.2-.97-.41.14-.82.28-1.23.42-.4,1.71-.79,3.42-1.2,5.13-.53,2.23-1.06,4.45-1.58,6.68h0c.11.05.22.1.32.13.05.02.1.03.15.04Z"/><path class="cls-2" d="m103.11,111.01c-.29-.01-.58-.03-.88-.04-.42.02-.63.03-.71-.07s-.03-.3.06-.69c.28-1.15.57-2.3.85-3.44-.12-.11-.24-.23-.37-.32-.19-.13-.4-.23-.61-.34-.49,1.85-.98,3.69-1.46,5.54-.07.28.05.43.35.42.92-.01,1.84-.01,2.76-.02-.28-.35-.17-.7,0-1.04Z"/><path class="cls-2" d="m110.32,113.48c.17-.82.34-1.64.51-2.47-.69,0-1.37,0-2.06,0,.07.2.13.39.19.57-.14.18-.28.34-.41.51.25.05.49.1.79.16-.03.2-.05.41-.1.61-.31,1.36-.62,2.72-.92,4.08.41-.14.82-.28,1.23-.42.26-1.01.52-2.02.78-3.03Z"/><path class="cls-2" d="m108.77,111.01c-1.89,0-3.77,0-5.66,0-.17.35-.28.7,0,1.04,1.81,0,3.63.02,5.44.03.14-.17.27-.33.41-.51-.06-.17-.13-.37-.19-.57Z"/><path class="cls-2" d="m105.71,132.74c-.38-.04-.77-.07-1.15-.11-.05.18-.09.37-.14.55-.29,1.19-.57,2.37-.86,3.56-.01.04,0,.07.01.1.19.1.38.21.57.31.16.08.33.16.5.24.25-1.08.51-2.15.76-3.23.11-.47.21-.95.31-1.42Z"/><path class="cls-2" d="m106.19,131.23c0-.07,0-.15,0-.22l.08-.12c.17-.76.34-1.52.51-2.28.02-.1.03-.2.04-.3-.1.03-.27.05-.28.1-.05.26-.14.4-.26.47-.04.02-.08.03-.12.04-.04,0-.09,0-.14,0s-.1-.02-.15-.04c-.1-.03-.21-.08-.32-.13-.19.71-.39,1.42-.57,2.13-.15.59-.27,1.18-.41,1.77.38.04.77.07,1.15.11.16-.51.32-1.01.47-1.52Z"/><path class="cls-3" d="m171.4,132.96c.02-.08.04-.15.06-.23.04-.15.07-.29.11-.44.3-1.32.59-2.65.9-3.97.49-2.11,1-4.21,1.5-6.31,0-.07,0-.14,0-.21-.36-.07-.72-.15-1.09-.22-.39,1.55-.81,3.1-1.18,4.65-.46,1.94-.86,3.9-1.31,5.85-.19.83-.4,1.66-.6,2.49-.21.83-.41,1.66-.62,2.49l-.07.22h0s.08.09.12.14c.04.05.08.09.11.14.23.34.49.5.85.15.15-.54.3-1.07.44-1.61.27-1.05.52-2.1.78-3.15Z"/><path class="cls-3" d="m174.54,119.76c.24-1.09.46-2.18.71-3.27.3-1.33.61-2.65.93-3.98.03-.12.16-.28.28-.31.29-.07.6-.07.9-.1,1.02-.02,2.03-.04,3.05-.07.12-.28.24-.56.36-.83-.26-.1-.42-.16-.58-.22-1.56,0-3.12,0-4.68-.01-.03.01-.06.02-.1.02-.04.07-.08.14-.11.21-.08.29-.16.58-.24.86,0,.07,0,.14,0,.22-.47,2.02-.93,4.03-1.4,6.04-.25,1.09-.52,2.17-.77,3.26.36.07.72.15,1.09.22.19-.68.38-1.37.57-2.05Z"/><path class="cls-2" d="m169.83,118.99c-.36,1.48-.7,2.97-1.07,4.45-.4,1.62-.81,3.25-1.21,4.87.01.04.03.07.04.11.38-.17.74-.54,1.18-.1.08-.19.18-.37.23-.56.55-2.27,1.09-4.54,1.62-6.82.17-.75.3-1.51.45-2.26-.05,0-.13,0-.15.03-.26.46-.66.41-1.08.29Z"/><path class="cls-2" d="m171.5,111.75c-.46,1.95-.93,3.91-1.39,5.86-.11.46-.19.92-.29,1.38.42.13.81.17,1.08-.29.02-.03.1-.02.15-.03.03-.04.08-.07.09-.12.21-.94.4-1.89.62-2.83.37-1.62.76-3.23,1.13-4.85-.18-.13-.35-.26-.57-.41-.23.23-.48.48-.72.73,0,.04,0,.07,0,.11l-.11.43Z"/><path class="cls-2" d="m168.77,128.32c-.43-.44-.8-.07-1.18.1-.02.14-.04.28-.06.42-.02.08-.04.15-.06.23-.22.89-.45,1.78-.66,2.67-.13.55-.24,1.1-.36,1.64.03.14.07.28.09.43.04.47.08.94.12,1.42.26-.25.47-.45.68-.65.22-.93.45-1.86.66-2.8.26-1.15.52-2.31.77-3.47Z"/><path class="cls-3" d="m236.69,110.17c0-.34.01-.56,0-.79-.03-.44-.13-.85-.64-.99.1,1.27.2,2.54.31,3.82.05.6.09,1.21.14,1.81.19-.14.36-.3.56-.42.19-.13.4-.22.6-.33-.11-1.19-.22-2.38-.33-3.57-.05.03-.09.07-.14.1-.14.11-.3.22-.51.38Z"/><path class="cls-2" d="m86.22,134.15s.04.01.04.01h.05c0-.12-.01-.23-.02-.35-.02.11-.05.22-.07.33Z"/><path class="cls-3" d="m238.77,138.02c.14.15.35.46.41.43.33-.16.84.02,1-.48-.18,0-.36-.01-.54-.02-.29.02-.58.05-.86.07Z"/><path class="cls-3" d="m252.94,116.03s0,0,0,0c.03,0,.07,0,.13-.02-.06,0-.09,0-.12,0h0s0,0,0,0Z"/><path class="cls-3" d="m236.5,114.02c-.01.36-.03.72-.04,1.08.08.43.2.85.23,1.28.06.69.07,1.38.09,2.08.04.58.08,1.16.13,1.75.01.2.03.4.05.6.05.01.1.02.15.04.31-.57.64-1.14.93-1.71.4-.79.78-1.6,1.18-2.4-.37-.15-.75-.3-1.12-.44-.05.06-.1.11-.15.17-.05-.12-.14-.24-.15-.36-.05-.95-.08-1.89-.12-2.84-.2.11-.41.21-.6.33-.2.13-.37.28-.56.42Z"/><path class="cls-2" d="m135.17,115.75c.06.15.11.29.17.44.1-.36.2-.73.29-1.09q-.72.01-.46.65Z"/><path class="cls-2" d="m86.26,133.02s0,.03-.01.04c0,0,0,0,0,0,0-.02,0-.03,0-.05Z"/><path class="cls-3" d="m202.48,124.85c.04-.15.08-.29.12-.44-.24.1-.52.18-.12.44Z"/><path class="cls-2" d="m153.13,135.12c.05.04.1.07.16.11,0-.07,0-.15,0-.22l-.16.11Z"/><path class="cls-2" d="m168.49,121.78c.38-1.57.78-3.15,1.15-4.72.4-1.71.77-3.42,1.16-5.12.29-1.25.59-2.51.89-3.76.3-1.23.6-2.46.9-3.68.14-.61.27-1.22.41-1.82-.72-.01-1.45-.03-2.17-.04h0c-2.58,0-5.16,0-7.73,0-.34,0-.69-.03-1.02.04-.18.03-.44.19-.49.35-.22.65-.37,1.31-.54,1.97-.19.74-.37,1.48-.55,2.22,0,.11,0,.22-.02.32-.3,1.27-.61,2.53-.92,3.79-.25,1.02-.53,2.04-.76,3.06-.07.31-.21.38-.48.3-.18.02-.35.06-.53.06-1.02,0-2.04,0-3.06,0-1.34,0-2.69,0-4.03,0-.51,0-1.02,0-1.52,0h-1.28c0-.19,0-.33.03-.46.27-1.22.55-2.44.83-3.66.42-1.8.86-3.6,1.26-5.4.09-.42.17-.85.24-1.27.07-.43.14-.85.22-1.28-.03,0-.07,0-.09-.02-.73,0-1.45,0-2.18-.01-2.69,0-5.37,0-8.06,0-.54-.04-.93.03-1.07.7-.32,1.57-.72,3.13-1.1,4.69-.29,1.19-.59,2.38-.87,3.58-.49,2.07-.96,4.14-1.44,6.21-.04.18-.08.36-.12.54-.21.82-.42,1.63-.62,2.46-.41,1.74-.82,3.48-1.22,5.23-.12.57-.22,1.13-.35,1.69-.42,1.75-.85,3.49-1.27,5.23-.34,1.42-.69,2.83-1.04,4.29.34.03.53.05.73.07.18,0,.36-.03.54-.03,3.13,0,6.26.02,9.39.01.75,0,.63.02.86-.81.27-.96.51-1.92.77-2.89.05-.25.1-.5.15-.76.02-.07.05-.14.07-.22l.03-.22c.02-.11.04-.22.06-.33.35-1.48.7-2.97,1.04-4.45.27-1.18.56-2.35.81-3.53.18-.87.29-.99,1.2-.99.22,0,.43,0,.65.01.26,0,.51-.01.77-.02.23-.04.45-.1.68-.1,1.33.02,2.67.06,4,.09,1.05,0,2.11.02,3.16.02.25.04.5.07.84.12-.22.89-.43,1.73-.64,2.57-.19.86-.38,1.72-.57,2.57-.27,1.2-.55,2.39-.84,3.59-.22.91-.44,1.81-.66,2.72-.16.68-.33,1.37-.48,2.05-.06.25-.18.56.28.57,3.49,0,6.97,0,10.46,0,.37-.01.59-.09.67-.56.19-1.1.48-2.18.75-3.27.4-1.62.8-3.23,1.21-4.84.03-.3.04-.6.11-.89.48-1.99.97-3.97,1.45-5.96Z"/><path class="cls-2" d="m96.37,116.31c-.07-.64-.06-1.28-.13-1.92-.12-1.14-.28-2.28-.42-3.42-.1-.82-.22-1.64-.32-2.47-.08-.72-.13-1.44-.2-2.15-.12-1.01-.22-2.02-.37-3.02-.03-.24-.21-.46-.31-.69-.07,0-.15,0-.22,0-.07,0-.14,0-.21,0-3.74,0-7.48,0-11.22,0-.21.01-.42.02-.68.04.05.23.1.42.14.62l.19.45c.11.22.22.43.33.65.77,1.84,1.54,3.68,2.31,5.51.33.86.67,1.73,1,2.59.1.22.2.44.3.66l-.02.33v5.52c.03.47.06.94.09,1.41,0,1.33.02,2.66.02,3.99,0,.11-.12.21-.18.32-1.79,0-3.58,0-5.37,0-.18,0-.36.02-.54.01-.34-.01-.38-.17-.23-.45.85-1.57,1.7-3.15,2.55-4.72.07-.14.18-.25.28-.38.86-1.65,1.72-3.31,2.59-4.95.14-.26.33-.5.49-.75.03-.1.07-.21.1-.31-.04-.16-.09-.32-.13-.48-.25,0-.5.02-.75.03-.09.02-.17.07-.26.07-3.15.01-6.29.02-9.44.02-.12.18-.24.37-.36.55-1.62,2.57-3.24,5.14-4.87,7.7-.49.77-1.02,1.51-1.53,2.26-.16.33-.3.68-.5.99-.58.9-1.2,1.78-1.77,2.68-1.62,2.59-3.22,5.19-4.84,7.79-.37.59-.76,1.17-1.15,1.76-.05.09-.1.19-.15.28-.29.47-.25.56.31.58.09,0,.18,0,.27.01.17-.04.34-.12.52-.12,3.64,0,7.28,0,10.92,0,.46.03.79-.15,1.03-.55.8-1.31,1.61-2.62,2.43-3.93.1-.15.23-.37.38-.4.38-.08.78-.07,1.17-.1,2.76.03,5.52.07,8.28.1h.92c.06,1.62.11,3.17.17,4.73.36.05.72.09,1.08.14,3.19,0,6.39,0,9.58,0,.36-.02.71-.03,1.07-.05-.02-.46-.05-.86-.07-1.27-.09-.61-.17-1.22-.26-1.83-.03-.2-.06-.41-.08-.61-.08-.78-.15-1.56-.23-2.34-.09-.89-.2-1.79-.3-2.68-.08-.58-.17-1.15-.24-1.73-.1-.77-.2-1.54-.28-2.31-.12-1.11-.23-2.21-.34-3.32-.01-.2-.01-.39-.04-.59-.17-1.42-.36-2.84-.52-4.26Z"/><path class="cls-2" d="m133.52,104.36c.14-.55.24-1.1.38-1.73h-2.69c-.22,0-.43.02-.65.02-6.72,0-13.44,0-20.16,0-1.59,0-3.19-.01-4.78-.02-.49.05-.99.1-1.5.16-.01.19,0,.37-.05.53-.37,1.48-.75,2.96-1.12,4.43-.2.82-.39,1.64-.58,2.46.38,0,.76.02,1.14.03,2.38.04,4.75.07,7.13.11h1.14c-.06.25-.1.45-.15.65-.22.86-.44,1.73-.65,2.59-.33,1.41-.65,2.81-.98,4.22-.02.14-.03.28-.06.42-.49,1.99-.99,3.97-1.48,5.96-.18.76-.36,1.52-.54,2.27l-.88,3.9c-.03.07-.06.15-.09.22-.04.18-.08.36-.12.54-.49,2.03-.97,4.07-1.47,6.15.36.02.6.04.85.05,1.12,0,2.24-.01,3.35-.02,2.19,0,4.38-.02,6.58-.01.42,0,.64-.11.73-.56.22-1.05.51-2.08.77-3.13,0-.04,0-.07,0-.11l.86-3.46c.01-.14,0-.29.04-.42.31-1.26.64-2.52.94-3.78.61-2.58,1.21-5.16,1.81-7.75.34-1.45.67-2.91,1.02-4.36.25-1.06.52-2.11.78-3.17.1-.08.2-.15.3-.23.04,0,.07,0,.11,0,.51-.01,1.01-.02,1.52-.04,1.88.02,3.75.04,5.63.04.41,0,.81-.07,1.22-.11.11-.22.27-.43.33-.66.46-1.73.9-3.46,1.34-5.2Z"/><path class="cls-3" d="m235.72,111.92c-.04-.49-.09-.99-.13-1.48-.06-.76-.11-1.51-.17-2.27,0-.03,0-.07,0-.1-.01-.11-.03-.21-.04-.32h0c-.01-.08-.03-.17-.05-.25s-.03-.17-.04-.25c-.07-.67-.13-1.33-.2-2-.05-.83-.09-1.66-.14-2.48-.07-.05-.14-.1-.2-.15-.07,0-.15,0-.22-.01-.18,0-.36.01-.54.02-2.87,0-5.74,0-8.6,0h-1.6c0,.34-.02.59,0,.84.13,1.09.27,2.17.4,3.26.14,1.12.28,2.25.42,3.37.08.63.17,1.27.24,1.9.14,1.21.27,2.42.41,3.64.15,1.34.31,2.67.45,4.01.12,1.14.22,2.29.34,3.43.04.39.08.78.13,1.16.13,1.06.27,2.13.4,3.19.15,1.21.3,2.42.45,3.62.1.79.19,1.58.28,2.37.12,1.18.23,2.36.35,3.54.19.11.38.23.56.34,3.85,0,7.7,0,11.54,0l.53-.27c.13-.21.28-.42.4-.64,1.07-1.91,2.13-3.84,3.21-5.74,1.7-3,3.41-5.99,5.12-8.99,1.78-3.12,3.55-6.25,5.33-9.37,1.44-2.53,2.9-5.05,4.34-7.58.37-.65.71-1.31,1.09-2.01-.21-.04-.31-.05-.41-.07-.11,0-.22,0-.33,0-.22,0-.43,0-.65,0-.29,0-.58,0-.87,0-2.72,0-5.45,0-8.17,0-.47,0-.94,0-1.42,0-.81-.15-1.21.26-1.37,1-.01.07-.06.13-.09.2-1.15,2.26-2.3,4.52-3.45,6.78-1.04,2.05-2.09,4.09-3.13,6.14-.93,2.11-1.91,4.2-3.18,6.14-.1-.39-.15-.74-.18-1.09-.08-.9-.15-1.8-.23-2.7,0-.04.01-.07.02-.11,0-.18-.01-.36-.02-.54-.11-1.12-.22-2.24-.33-3.36-.08-1.06-.15-2.12-.23-3.18Z"/><path class="cls-3" d="m208.77,102.66c-.14.02-.34.18-.37.32-.25.97-.46,1.95-.69,2.93-.04.19-.07.38-.11.57-.5,2.05-1.01,4.11-1.49,6.16-.59,2.48-1.15,4.98-1.73,7.46-.33,1.41-.68,2.81-1.02,4.21-.03.07-.06.15-.09.22-.08.39-.16.79-.24,1.18-.1.36-.2.73-.3,1.09-.27,1.18-.53,2.36-.81,3.53-.45,1.92-.94,3.83-1.35,5.75-.22,1.03-.53,1.49,1.07,1.22,2.87,0,5.73,0,8.6,0h1.38c.32-1.35.62-2.63.92-3.91.29-1.19.57-2.38.86-3.57l.03-.22s.04-.08.07-.12c0,0,0,0,0,0,.07-.32.15-.64.22-.97.01-.07.02-.14.03-.21.07-.32.14-.65.21-.97,0-.04,0-.07,0-.11.03-.07.05-.15.08-.22.01-.07.02-.14.04-.21.03-.07.06-.15.09-.22.55-2.29,1.1-4.59,1.64-6.88.58-2.44,1.15-4.88,1.73-7.31.31-1.29.62-2.59.92-3.88.17-.72.34-1.44.51-2.16.04-.14.07-.29.11-.43v-.11c.2-.9.4-1.8.58-2.71.03-.17-.04-.36-.07-.53-.86.02-1.73.05-2.59.07-2.4,0-4.79,0-7.19,0-.34,0-.69-.03-1.03.02Z"/><path class="cls-2" d="m86.58,113.15c-.1-.22-.2-.44-.3-.66-.01.07-.03.13-.04.2.04.16.09.32.13.48.07,0,.14-.01.21-.02Z"/><path class="cls-3" d="m186.18,129.7c-.36,0-.72.02-1.09,0-.26,0-.53-.05-.79-.08.04-.26.08-.52.12-.78,0-.02,0-.04.01-.05.56-2.46,1.1-4.93,1.67-7.39.63-2.73,1.28-5.46,1.94-8.18.7-2.87,1.42-5.73,2.11-8.6.16-.64.26-1.29.41-2h-10.27c-.32.02-.64.03-1.01.05.28.7.54,1.36.8,2.01l1.32,3.01c.17.45.34.89.5,1.34.51,1.15,1.02,2.3,1.6,3.62-.57.02-.97.04-1.37.06-1.6,0-3.2-.02-4.79-.03-.21.15-.56.26-.62.46-.27.88-.46,1.79-.67,2.69-.3,1.26-.59,2.53-.88,3.79-.22.94-.44,1.88-.66,2.81-.57,2.44-1.14,4.87-1.72,7.31-.24,1-.51,1.99-.77,2.98-.29,1.28-.56,2.56-.87,3.83-.19.77-.05.95.73.8.08-.02.17-.04.25-.06.23-.01.47-.03.7-.03,2.61,0,5.21,0,7.82,0,2.82,0,5.64.01,8.47.02,1.6,0,3.2.01,4.79.02.29-.01.6.03.86-.06.22-.07.5-.28.55-.47.51-2.11.99-4.22,1.46-6.33.06-.25.05-.51.07-.77-.46.04-.83.08-1.2.11-.23-.03-.45-.07-.68-.08-2.93-.01-5.86-.02-8.79-.02Z"/><path class="cls-2" d="m84.83,120.74c.03.7.01,1.39.01,2.13h-1.64c-.06.08-.12.16-.3.41.89-.07,1.63-.15,2.37-.18.28-.01.56.08.83.12-.03-.33-.07-.66-.08-.99-.02-.82-.02-1.64-.02-2.47-.02-.04-.05-.08-.07-.12,0-.72,0-1.44,0-2.17v-1.83l-.23-.05-1.68,3.31c.19.42.39.84.58,1.27.08.19.22.37.23.56Z"/><path class="cls-2" d="m81.46,124.04c.36,0,.71-.02,1.07-.03.04,0,.09,0,.13,0,.68,0,1.36,0,2.04,0,.05,0,.1.01.15.02.38,0,.76,0,1.14,0,.04-.27.07-.55.11-.82-.28-.04-.56-.13-.83-.12-.74.03-1.48.11-2.37.18.18-.25.24-.33.3-.41.47-.9.94-1.8,1.4-2.69-.19-.42-.39-.84-.58-1.27-.13.21-.26.42-.4.63-.73,1.33-1.46,2.65-2.17,3.99-.07.13,0,.34,0,.51Z"/></svg>