<svg width="1600" height="2643" viewBox="0 0 1440 2643" fill="none" xmlns="http://www.w3.org/2000/svg">
<path d="M-232.789 540.245L-106.387 1112.57L-232.789 1684.89H-46.3678L80.0339 1112.57L-46.3678 540.245H-232.789Z" fill="white" fill-opacity="0.75"/>
<path d="M-46.5024 540.245L79.8992 1112.57L-46.5024 1684.89H139.918L266.32 1112.57L139.918 540.245H-46.5024Z" fill="white" fill-opacity="0.7"/>
<path d="M139.786 540.245L266.118 1112.57L139.786 1684.89H326.276L452.609 1112.57L326.276 540.245H139.786Z" fill="white" fill-opacity="0.6"/>
<path d="M326.072 540.245L452.474 1112.57L326.072 1684.89H512.493L638.895 1112.57L512.493 540.245H326.072Z" fill="white" fill-opacity="0.5"/>
<path d="M512.361 538.608L638.415 1110.92L512.361 1683.23L513.905 1922.65L839.243 1112.68L513.905 302.485L512.361 538.608Z" fill="white" fill-opacity="0.4"/>
<path d="M515.876 -167.898L1239.66 1117.71L516.047 2403.33L517.419 2642.72L1440.28 1119.47L517.419 -404L515.876 -167.898Z" fill="white" fill-opacity="0.1"/>
<path d="M515.876 69.8593L1039.45 1117.6L515.876 2165.35L517.417 2404.96L1239.94 1119.36L517.246 -166.24L515.876 69.8593Z" fill="white" fill-opacity="0.2"/>
<path d="M512.361 304.244L838.463 1114.43L512.361 1924.39L513.908 2163.8L1039.59 1115.96L513.908 68.1233L512.361 304.244Z" fill="white" fill-opacity="0.3"/>
</svg>
