<?xml version="1.0" encoding="UTF-8"?><svg id="Layer_1" xmlns="http://www.w3.org/2000/svg" viewBox="0 0 320 240"><defs><style>.cls-1{fill:#fff;}.cls-2{fill:#4a4a4a;}</style></defs><g id="Bondi_Surf_Bathers_Lifesaving_Club"><path class="cls-2" d="m232.67,180.11c6.12-11.51,9.59-24.64,9.59-38.59,0-45.43-36.83-82.26-82.26-82.26s-82.26,36.83-82.26,82.26c0,14.2,3.6,27.55,9.93,39.21l145-.62Z"/><path class="cls-1" d="m210.64,136.63s-.07,0-.1,0c-1.05-.06-1.86-.95-1.8-2.01.05-.87.07-1.75.07-2.63,0-26.91-21.89-48.8-48.8-48.8s-48.8,21.89-48.8,48.8c0,.88.02,1.76.07,2.62.06,1.05-.75,1.95-1.8,2.01-1.05.05-1.95-.75-2.01-1.8-.05-.93-.07-1.88-.07-2.83,0-29.01,23.6-52.62,52.62-52.62s52.62,23.6,52.62,52.62c0,.94-.03,1.89-.08,2.83-.05,1.02-.9,1.81-1.9,1.81Z"/><path class="cls-1" d="m228.29,136.63H91.12c-1.05,0-1.91-.85-1.91-1.91s.85-1.91,1.91-1.91h137.17c1.05,0,1.91.85,1.91,1.91s-.85,1.91-1.91,1.91Z"/><circle class="cls-1" cx="161.12" cy="84.74" r="16.18"/><path class="cls-1" d="m187.81,129.27c-.65,0-1.32-.02-2.02-.06-9.46-.5-11.65-12.31-11.74-12.81l-.75-4.27,3.66,2.33c1.68,1.07,7.21,3.25,10.44-.64,2.76-3.32.5-6.5.05-7.07-1.86-1.84-3.83-2.63-6.03-2.41-6.49.63-12.66,9.52-13,10.02-.61.98-9.5,14.86-19.83,14.86-9.49,0-13.43-8.45-14.18-12.91l-.77-4.56,3.76,2.7c2.22,1.59,6.82.72,9.46-1.79,1.99-1.89,2.24-4.03.75-6.35-.56-.88-1.24-1.31-2.2-1.4-4.24-.4-12.08,6.02-16.01,10.16l-.05.05c-11.16,10.95-16.64,14.12-24.44,14.12-7.38,0-16.11-7.13-16.48-7.43-.81-.67-.93-1.87-.26-2.69.67-.81,1.87-.93,2.69-.26h0c.08.07,8.04,6.56,14.05,6.56s10.34-1.81,21.75-13c1.28-1.35,11.7-12.01,19.12-11.31,2.12.2,3.86,1.29,5.05,3.14,2.47,3.86,1.97,8.04-1.34,11.18-2.55,2.42-6.61,3.96-10.23,3.6,1.3,2.82,3.99,6.39,9.32,6.39,8.36,0,16.53-12.96,16.61-13.09l.03-.05c.3-.44,7.37-10.88,15.8-11.71,3.39-.33,6.47.87,9.18,3.58l.1.11c1.75,2.06,4.01,7.22.01,12.03-2.14,2.57-5.15,3.81-8.7,3.57-.92-.06-1.82-.22-2.65-.44,1.16,2.65,3.31,5.81,7.01,6.01,7.56.39,12.14-1.59,22.1-7.76,11-6.81,23.78-1.65,24.32-1.43.97.4,1.44,1.52,1.03,2.49-.4.97-1.52,1.43-2.49,1.03-.11-.05-11.54-4.62-20.85,1.15-9.69,6-14.91,8.38-22.3,8.38Z"/><path class="cls-1" d="m113.03,159.47c.59.14,1.16.37,1.73.69.56.32,1.07.72,1.51,1.2.45.48.8,1.04,1.06,1.67.26.63.39,1.34.39,2.11,0,1.36-.28,2.51-.83,3.43-.55.93-1.28,1.68-2.18,2.25-.9.58-1.94.99-3.1,1.23-1.16.25-2.35.37-3.57.37h-11.3v-24.92h10.24c1.01,0,2.08.08,3.22.23,1.14.15,2.19.46,3.15.92.96.46,1.76,1.13,2.39,2.01.63.88.95,2.04.95,3.47,0,1.34-.33,2.44-1,3.31-.67.87-1.56,1.51-2.66,1.94v.11Zm-8.48-5.46v3.06h2.25c.59,0,1.07-.13,1.44-.4.38-.27.56-.69.56-1.25,0-.47-.2-.82-.6-1.06-.4-.23-.93-.35-1.58-.35h-2.08Zm0,8.45v3.38h2.5c.66,0,1.19-.15,1.6-.44.41-.29.62-.72.62-1.28,0-.33-.09-.6-.26-.81-.18-.21-.39-.38-.65-.51-.26-.13-.53-.22-.83-.26-.29-.05-.57-.07-.83-.07h-2.15Z"/><path class="cls-1" d="m121.76,159.82c0-1.99.35-3.8,1.06-5.4.7-1.61,1.67-2.97,2.9-4.1,1.23-1.13,2.69-1.99,4.38-2.6,1.69-.61,3.52-.92,5.49-.92s3.8.31,5.49.92c1.69.61,3.16,1.48,4.4,2.6,1.24,1.13,2.22,2.49,2.92,4.1.7,1.61,1.06,3.41,1.06,5.4s-.35,3.81-1.06,5.46c-.7,1.64-1.68,3.04-2.92,4.21-1.24,1.16-2.71,2.06-4.4,2.69-1.69.63-3.52.95-5.49.95s-3.8-.32-5.49-.95c-1.69-.63-3.15-1.53-4.38-2.69-1.23-1.16-2.2-2.56-2.9-4.21-.7-1.64-1.06-3.46-1.06-5.46Zm8.91,0c0,.82.12,1.57.37,2.25.25.68.59,1.27,1.02,1.76.43.49.96.87,1.57,1.14.61.27,1.27.4,1.97.4s1.36-.13,1.95-.4c.6-.27,1.12-.65,1.57-1.14.45-.49.79-1.08,1.04-1.76.25-.68.37-1.43.37-2.25s-.12-1.53-.37-2.2c-.25-.67-.59-1.23-1.04-1.69-.45-.46-.97-.81-1.57-1.07-.6-.26-1.25-.39-1.95-.39s-1.36.13-1.97.39c-.61.26-1.13.62-1.57,1.07-.43.46-.77,1.02-1.02,1.69-.25.67-.37,1.4-.37,2.2Z"/><path class="cls-1" d="m154.75,147.5h8.34l7.11,12.64h.14l-.35-12.64h7.96v24.92h-8.55l-6.9-11.9h-.14l.35,11.9h-7.96v-24.92Z"/><path class="cls-1" d="m184.35,172.42v-24.92h9.29c1.97,0,3.85.19,5.65.58s3.38,1.06,4.75,2.01,2.47,2.21,3.29,3.78c.82,1.57,1.23,3.56,1.23,5.95,0,2.18-.39,4.07-1.18,5.67-.79,1.6-1.84,2.9-3.15,3.93-1.31,1.02-2.83,1.78-4.54,2.27-1.71.49-3.5.74-5.35.74h-10Zm8.06-17.81v10.6h1.55c1.97,0,3.49-.43,4.54-1.28s1.58-2.25,1.58-4.19c0-1.61-.53-2.87-1.58-3.77s-2.46-1.35-4.22-1.35h-1.87Z"/><path class="cls-1" d="m213.85,147.5h8.45v24.92h-8.45v-24.92Z"/></g></svg>