<?xml version="1.0" encoding="UTF-8"?><svg id="Layer_1" xmlns="http://www.w3.org/2000/svg" viewBox="0 0 320 240"><defs><style>.cls-1,.cls-2{stroke-width:0px;}.cls-2{fill:#266940;}</style></defs><g id="Braintree_Communications_Pty_Ltd"><path class="cls-2" d="m74.61,115.32c6.14-3.02,12.44-4.15,19.29-3.27-1.07-1.07-2.1-1.99-3-3.03-3.02-3.47-4.82-7.57-6.14-11.92-.23-.77-.5-1.54-.76-2.3-.15-.44-.81-.88-.26-1.34.44-.37,1.01-.04,1.46.2,6.59,3.44,12.65,7.46,15.74,14.66.04.08.18.12.37.23,1.39-5.67,4.87-9.87,9.27-13.45.91-.74,1.32-.38,1.59.53.89,2.93.53,5.84-.27,8.72-1.19,4.28-3.66,7.68-7.25,10.29.3.7.97.64,1.45.82,6.07,2.37,9.41,7.48,8.91,13.92-.13,1.7.34,2.75,1.75,3.75,7.59,5.35,16.24,4.11,23.87-1.38,8.16-5.88,9.84-14.26,8.18-23.63-1.58-8.93-7.41-14.68-14.82-19.06-8.76-5.18-18.37-7.79-28.45-8.61-12.43-1.02-24.47.72-35.84,6.02-6.81,3.17-12.75,7.5-16.8,14.02-6.37,10.25-3.68,20.59,6.88,26.48,3.5,1.95,7.28,3.23,11.02,4.62,4.66,1.73,9.26,3.56,13.66,5.92,10.38,5.58,8.85,16.54,1.08,22.36-3.4,2.55-7.17,4.42-10.99,6.22-.79.37-1.31.37-1.85-.46-1.63-2.51-3.34-4.97-5.2-7.71,1.88.13,3.42.47,4.99.45,4.25-.06,7.91-1.56,10.93-4.5,3.26-3.17,3.3-7.3.15-10.62-3.66-3.86-8.45-5.77-13.28-7.58-4.32-1.63-8.78-2.89-12.99-4.81-5.35-2.44-9.91-5.77-12.31-11.37-2.66-6.22-1.86-12.37.91-18.3,4.29-9.18,11.55-15.45,20.39-20.05,9.09-4.72,18.86-6.76,29.01-7.31,10.22-.56,20.24.38,29.78,4.27,10.82,4.42,19.85,11.15,24.7,22.11,5.16,11.64,3.97,22.86-4.14,32.88-7.8,9.63-22.89,11.58-32.96,4.58-2.31-1.61-3.39-3.53-2.76-6.48,1.55-7.35-.88-11.56-7.86-14.23-.59-.23-.93-.02-1.4.26-4.52,2.69-9.34,3.46-14.51,2.38-4-.84-7.61-2.68-11.54-4.25Z"/><path class="cls-1" d="m180.17,133.85v-16.55h3.17v5.96c.98-1.11,2.14-1.67,3.48-1.67,1.46,0,2.67.53,3.62,1.59.96,1.06,1.43,2.58,1.43,4.55s-.49,3.62-1.46,4.73c-.97,1.11-2.16,1.66-3.55,1.66-.68,0-1.36-.17-2.03-.51-.67-.34-1.24-.85-1.72-1.52v1.76h-2.95Zm3.15-6.25c0,1.24.2,2.16.59,2.75.55.84,1.28,1.26,2.19,1.26.7,0,1.3-.3,1.79-.9.49-.6.74-1.54.74-2.83,0-1.37-.25-2.36-.74-2.96-.5-.61-1.13-.91-1.91-.91s-1.39.3-1.9.89c-.5.59-.76,1.49-.76,2.69Z"/><path class="cls-1" d="m197.46,133.85h-3.17v-11.99h2.95v1.7c.5-.81.96-1.34,1.36-1.59.4-.26.86-.38,1.37-.38.72,0,1.42.2,2.09.6l-.98,2.77c-.53-.35-1.03-.52-1.49-.52s-.82.12-1.13.37c-.31.24-.55.69-.73,1.33-.18.64-.27,1.98-.27,4.02v3.7Z"/><path class="cls-1" d="m205.79,125.52l-2.88-.52c.32-1.16.88-2.02,1.67-2.57.79-.56,1.96-.84,3.52-.84,1.41,0,2.47.17,3.16.5.69.34,1.18.76,1.46,1.28.28.52.42,1.46.42,2.84l-.03,3.7c0,1.05.05,1.83.15,2.33.1.5.29,1.04.57,1.61h-3.14c-.08-.21-.18-.52-.3-.94-.05-.19-.09-.31-.11-.37-.54.53-1.12.92-1.74,1.19-.62.26-1.28.39-1.98.39-1.23,0-2.21-.33-2.92-1-.71-.67-1.07-1.52-1.07-2.54,0-.68.16-1.28.49-1.81.32-.53.78-.94,1.36-1.22.58-.28,1.42-.53,2.52-.74,1.48-.28,2.51-.54,3.08-.78v-.32c0-.61-.15-1.04-.45-1.3-.3-.26-.87-.39-1.7-.39-.56,0-1,.11-1.32.33-.32.22-.57.61-.77,1.17Zm4.24,2.57c-.41.14-1.05.3-1.93.49-.88.19-1.46.37-1.73.55-.41.29-.62.67-.62,1.12s.17.83.5,1.15c.33.32.75.49,1.26.49.57,0,1.12-.19,1.64-.56.38-.29.64-.64.76-1.05.08-.27.12-.79.12-1.55v-.63Z"/><path class="cls-1" d="m216.28,120.24v-2.93h3.17v2.93h-3.17Zm0,13.61v-11.99h3.17v11.99h-3.17Z"/><path class="cls-1" d="m233.6,133.85h-3.17v-6.12c0-1.29-.07-2.13-.2-2.51-.14-.38-.36-.68-.66-.89-.31-.21-.67-.32-1.1-.32-.55,0-1.04.15-1.48.45-.44.3-.74.7-.9,1.2-.16.5-.24,1.41-.24,2.75v5.43h-3.17v-11.99h2.95v1.76c1.05-1.35,2.36-2.03,3.95-2.03.7,0,1.34.13,1.92.38.58.25,1.02.57,1.31.97s.5.84.62,1.33c.12.5.17,1.21.17,2.13v7.45Z"/><path class="cls-1" d="m242.32,121.86v2.53h-2.17v4.83c0,.98.02,1.55.06,1.71.04.16.14.3.28.4.15.1.33.16.54.16.29,0,.72-.1,1.28-.3l.27,2.46c-.74.32-1.57.47-2.51.47-.57,0-1.09-.1-1.55-.29-.46-.19-.8-.44-1.01-.74-.21-.3-.36-.72-.45-1.24-.07-.37-.1-1.11-.1-2.23v-5.23h-1.46v-2.53h1.46v-2.38l3.18-1.85v4.23h2.17Z"/><path class="cls-1" d="m247.55,133.85h-3.17v-11.99h2.95v1.7c.5-.81.96-1.34,1.36-1.59.4-.26.86-.38,1.37-.38.72,0,1.42.2,2.09.6l-.98,2.77c-.53-.35-1.03-.52-1.49-.52s-.82.12-1.13.37c-.31.24-.55.69-.73,1.33-.18.64-.27,1.98-.27,4.02v3.7Z"/><path class="cls-1" d="m260.45,130.03l3.16.53c-.41,1.16-1.05,2.04-1.92,2.65-.88.61-1.97.91-3.29.91-2.08,0-3.63-.68-4.63-2.04-.79-1.09-1.18-2.47-1.18-4.13,0-1.99.52-3.54,1.56-4.67,1.04-1.12,2.35-1.69,3.94-1.69,1.78,0,3.19.59,4.22,1.77,1.03,1.18,1.52,2.98,1.48,5.41h-7.95c.02.94.28,1.67.77,2.2.49.52,1.1.78,1.83.78.5,0,.91-.14,1.25-.41.34-.27.59-.71.77-1.31Zm.18-3.21c-.02-.92-.26-1.62-.71-2.09-.45-.48-1-.72-1.65-.72-.69,0-1.26.25-1.72.76-.45.5-.67,1.19-.67,2.05h4.74Z"/><path class="cls-1" d="m273.31,130.03l3.16.53c-.41,1.16-1.05,2.04-1.92,2.65-.88.61-1.97.91-3.29.91-2.08,0-3.63-.68-4.63-2.04-.79-1.09-1.18-2.47-1.18-4.13,0-1.99.52-3.54,1.56-4.67,1.04-1.12,2.35-1.69,3.94-1.69,1.78,0,3.19.59,4.22,1.77,1.03,1.18,1.52,2.98,1.48,5.41h-7.95c.02.94.28,1.67.77,2.2.49.52,1.1.78,1.83.78.5,0,.91-.14,1.25-.41.34-.27.59-.71.77-1.31Zm.18-3.21c-.02-.92-.26-1.62-.71-2.09-.45-.48-1-.72-1.65-.72-.69,0-1.26.25-1.72.76-.45.5-.67,1.19-.67,2.05h4.74Z"/><path class="cls-1" d="m106.01,148.78l-3.13.56c-.11-.62-.34-1.09-.72-1.41-.37-.32-.86-.47-1.45-.47-.79,0-1.42.27-1.89.82-.47.55-.71,1.46-.71,2.74,0,1.42.24,2.43.72,3.01s1.12.88,1.92.88c.6,0,1.1-.17,1.48-.51.38-.34.65-.93.81-1.77l3.12.53c-.32,1.43-.94,2.51-1.86,3.24-.92.73-2.15,1.1-3.69,1.1-1.75,0-3.15-.55-4.19-1.66-1.04-1.11-1.56-2.64-1.56-4.59s.52-3.52,1.57-4.62c1.05-1.1,2.46-1.65,4.24-1.65,1.46,0,2.62.31,3.48.94.86.63,1.48,1.59,1.86,2.87Z"/><path class="cls-1" d="m107.68,151.06c0-1.05.26-2.07.78-3.06.52-.99,1.25-1.74,2.21-2.26s2.01-.78,3.19-.78c1.81,0,3.3.59,4.46,1.77,1.16,1.18,1.74,2.67,1.74,4.46s-.59,3.32-1.76,4.51c-1.17,1.19-2.64,1.79-4.42,1.79-1.1,0-2.15-.25-3.14-.74-1-.5-1.76-1.22-2.27-2.18-.52-.96-.78-2.13-.78-3.5Zm3.25.17c0,1.19.28,2.1.85,2.73.56.63,1.26.95,2.09.95s1.52-.32,2.08-.95c.56-.63.84-1.55.84-2.75s-.28-2.08-.84-2.71c-.56-.63-1.25-.95-2.08-.95s-1.52.32-2.09.95c-.56.63-.85,1.54-.85,2.73Z"/><path class="cls-1" d="m122.29,145.24h2.92v1.64c1.05-1.27,2.29-1.91,3.74-1.91.77,0,1.43.16,2,.47.56.32,1.03.79,1.39,1.43.53-.64,1.09-1.12,1.7-1.43.61-.32,1.26-.47,1.95-.47.88,0,1.63.18,2.23.54.61.36,1.06.88,1.37,1.58.22.51.33,1.34.33,2.48v7.66h-3.17v-6.85c0-1.19-.11-1.96-.33-2.3-.29-.45-.74-.68-1.35-.68-.44,0-.86.14-1.25.41s-.67.67-.85,1.19c-.17.52-.26,1.35-.26,2.48v5.76h-3.17v-6.57c0-1.17-.06-1.92-.17-2.26-.11-.34-.29-.59-.52-.76-.24-.17-.56-.25-.97-.25-.49,0-.93.13-1.32.4-.39.26-.67.64-.84,1.14-.17.5-.25,1.32-.25,2.47v5.82h-3.17v-11.99Z"/><path class="cls-1" d="m142.85,145.24h2.92v1.64c1.05-1.27,2.29-1.91,3.74-1.91.77,0,1.43.16,2,.47.56.32,1.03.79,1.39,1.43.53-.64,1.09-1.12,1.7-1.43.61-.32,1.26-.47,1.95-.47.88,0,1.63.18,2.23.54.61.36,1.06.88,1.37,1.58.22.51.33,1.34.33,2.48v7.66h-3.17v-6.85c0-1.19-.11-1.96-.33-2.3-.29-.45-.74-.68-1.35-.68-.44,0-.86.14-1.25.41s-.67.67-.85,1.19c-.17.52-.26,1.35-.26,2.48v5.76h-3.17v-6.57c0-1.17-.06-1.92-.17-2.26-.11-.34-.29-.59-.52-.76-.24-.17-.56-.25-.97-.25-.49,0-.93.13-1.32.4-.39.26-.67.64-.84,1.14-.17.5-.25,1.32-.25,2.47v5.82h-3.17v-11.99Z"/><path class="cls-1" d="m171.53,157.22v-1.79c-.44.64-1.01,1.14-1.72,1.51-.71.37-1.46.55-2.25.55s-1.53-.18-2.17-.53c-.64-.35-1.1-.85-1.39-1.49-.29-.64-.43-1.52-.43-2.65v-7.58h3.17v5.51c0,1.69.06,2.72.17,3.1.12.38.33.68.64.9.31.22.7.33,1.17.33.54,0,1.03-.15,1.46-.45.43-.3.72-.67.88-1.11.16-.44.24-1.52.24-3.23v-5.06h3.17v11.99h-2.95Z"/><path class="cls-1" d="m188.66,157.22h-3.17v-6.12c0-1.29-.07-2.13-.2-2.51-.14-.38-.36-.68-.66-.89-.31-.21-.67-.32-1.1-.32-.55,0-1.04.15-1.48.45-.44.3-.74.7-.9,1.2-.16.5-.24,1.41-.24,2.75v5.43h-3.17v-11.99h2.95v1.76c1.05-1.35,2.36-2.03,3.95-2.03.7,0,1.34.13,1.92.38.58.25,1.02.57,1.31.97.3.39.5.84.62,1.33.12.5.17,1.21.17,2.13v7.45Z"/><path class="cls-1" d="m191.88,143.61v-2.93h3.17v2.93h-3.17Zm0,13.61v-11.99h3.17v11.99h-3.17Z"/><path class="cls-1" d="m208.75,148.78l-3.13.56c-.1-.62-.34-1.09-.72-1.41-.37-.32-.86-.47-1.45-.47-.79,0-1.42.27-1.89.82-.47.55-.71,1.46-.71,2.74,0,1.42.24,2.43.72,3.01s1.12.88,1.92.88c.6,0,1.09-.17,1.48-.51.38-.34.65-.93.81-1.77l3.12.53c-.32,1.43-.94,2.51-1.86,3.24-.92.73-2.15,1.1-3.69,1.1-1.75,0-3.15-.55-4.19-1.66-1.04-1.11-1.56-2.64-1.56-4.59s.52-3.52,1.57-4.62,2.46-1.65,4.24-1.65c1.46,0,2.62.31,3.48.94.86.63,1.48,1.59,1.86,2.87Z"/><path class="cls-1" d="m213.53,148.89l-2.88-.52c.32-1.16.88-2.02,1.67-2.57.79-.56,1.96-.84,3.52-.84,1.41,0,2.47.17,3.16.5.69.34,1.18.76,1.46,1.28.28.52.42,1.46.42,2.84l-.03,3.7c0,1.05.05,1.83.15,2.33.1.5.29,1.04.57,1.61h-3.14c-.08-.21-.18-.52-.3-.94-.05-.19-.09-.31-.11-.37-.54.53-1.12.92-1.74,1.19-.62.26-1.28.39-1.98.39-1.23,0-2.21-.33-2.92-1-.71-.67-1.07-1.52-1.07-2.54,0-.68.16-1.28.49-1.81.32-.53.78-.94,1.36-1.22.58-.28,1.42-.53,2.52-.74,1.48-.28,2.51-.54,3.08-.78v-.32c0-.61-.15-1.04-.45-1.3s-.87-.39-1.7-.39c-.56,0-1,.11-1.32.33-.32.22-.57.61-.77,1.17Zm4.24,2.57c-.41.14-1.05.3-1.93.49-.88.19-1.46.37-1.73.55-.41.29-.62.67-.62,1.12s.17.83.5,1.15c.33.32.75.49,1.26.49.57,0,1.12-.19,1.64-.56.38-.29.64-.64.76-1.05.08-.27.12-.79.12-1.55v-.63Z"/><path class="cls-1" d="m229.51,145.24v2.53h-2.17v4.83c0,.98.02,1.55.06,1.71.04.16.14.3.28.4.15.1.33.16.54.16.29,0,.72-.1,1.28-.3l.27,2.46c-.74.32-1.57.47-2.51.47-.57,0-1.09-.1-1.55-.29-.46-.19-.8-.44-1.01-.74-.21-.3-.36-.72-.45-1.24-.07-.37-.1-1.11-.1-2.23v-5.23h-1.46v-2.53h1.46v-2.38l3.18-1.85v4.23h2.17Z"/><path class="cls-1" d="m231.71,143.61v-2.93h3.17v2.93h-3.17Zm0,13.61v-11.99h3.17v11.99h-3.17Z"/><path class="cls-1" d="m237.4,151.06c0-1.05.26-2.07.78-3.06.52-.99,1.26-1.74,2.21-2.26.95-.52,2.01-.78,3.19-.78,1.81,0,3.3.59,4.46,1.77,1.16,1.18,1.74,2.67,1.74,4.46s-.58,3.32-1.75,4.51c-1.17,1.19-2.64,1.79-4.42,1.79-1.1,0-2.15-.25-3.14-.74-1-.5-1.75-1.22-2.27-2.18-.52-.96-.78-2.13-.78-3.5Zm3.25.17c0,1.19.28,2.1.85,2.73.56.63,1.26.95,2.09.95s1.52-.32,2.08-.95c.56-.63.84-1.55.84-2.75s-.28-2.08-.84-2.71c-.56-.63-1.25-.95-2.08-.95s-1.52.32-2.09.95c-.56.63-.85,1.54-.85,2.73Z"/><path class="cls-1" d="m263.15,157.22h-3.17v-6.12c0-1.29-.07-2.13-.2-2.51-.14-.38-.36-.68-.66-.89-.31-.21-.67-.32-1.1-.32-.55,0-1.04.15-1.48.45-.44.3-.74.7-.9,1.2-.16.5-.24,1.41-.24,2.75v5.43h-3.17v-11.99h2.95v1.76c1.05-1.35,2.36-2.03,3.95-2.03.7,0,1.34.13,1.92.38.58.25,1.02.57,1.31.97s.5.84.62,1.33c.12.5.17,1.21.17,2.13v7.45Z"/><path class="cls-1" d="m265.25,153.8l3.18-.49c.14.62.41,1.09.82,1.41.41.32.99.48,1.74.48.82,0,1.44-.15,1.85-.45.28-.21.42-.49.42-.85,0-.24-.08-.44-.23-.6-.16-.15-.51-.29-1.06-.42-2.56-.56-4.18-1.08-4.86-1.55-.95-.65-1.42-1.55-1.42-2.7,0-1.04.41-1.91,1.23-2.62.82-.71,2.09-1.06,3.81-1.06s2.86.27,3.66.8c.8.53,1.35,1.32,1.65,2.37l-2.99.55c-.13-.47-.37-.82-.73-1.07s-.87-.37-1.53-.37c-.84,0-1.43.12-1.79.35-.24.17-.36.38-.36.64,0,.23.1.42.32.58.29.21,1.27.51,2.96.89s2.87.85,3.54,1.41c.66.56.99,1.35.99,2.36,0,1.1-.46,2.04-1.38,2.83-.92.79-2.28,1.19-4.07,1.19-1.63,0-2.93-.33-3.88-.99-.95-.66-1.57-1.56-1.87-2.7Z"/></g></svg>