<?xml version="1.0" encoding="UTF-8"?><svg id="Layer_1" xmlns="http://www.w3.org/2000/svg" viewBox="0 0 320 240"><defs><style>.cls-1{fill:none;}.cls-1,.cls-2{stroke-width:0px;}.cls-2{fill:#502da2;}</style></defs><path class="cls-1" d="m103.59,114.38c-6.78.01-11.55,4.88-11.54,11.78,0,6.9,4.78,11.75,11.57,11.75,6.79,0,11.63-4.86,11.64-11.71.02-6.94-4.82-11.84-11.67-11.83Z"/><path class="cls-1" d="m212.12,113.8c-5.76-.07-10.05,3.2-10.9,8.35h21.08c-.71-4.92-4.86-8.28-10.17-8.35Z"/><path class="cls-1" d="m258.71,114.38c-6.82,0-11.59,4.81-11.63,11.71-.04,6.95,4.77,11.83,11.64,11.83,6.76,0,11.59-4.92,11.59-11.77,0-6.85-4.85-11.76-11.6-11.76Z"/><path class="cls-2" d="m270.36,95.64v14.23c-.34-.15-.46-.16-.51-.23-5.14-6.32-15.4-7.01-22.07-3.36-7.65,4.19-11.36,10.91-11.49,19.39-.14,9.14,3.67,16.34,12.07,20.61,6.76,3.44,15.34,2.28,20.42-2.54.43-.41.78-.91,1.16-1.37.13.07.26.14.39.21v4.36h10.71v-54.72l-10.7,3.4Zm-11.63,42.27c-6.88,0-11.68-4.87-11.64-11.83.04-6.89,4.81-11.7,11.63-11.71,6.75,0,11.6,4.9,11.6,11.76,0,6.86-4.83,11.77-11.59,11.77Z"/><path class="cls-2" d="m115.26,109.91c-.28-.17-.41-.22-.5-.31-5.66-5.86-12.52-6.92-19.83-4.22-8.38,3.09-12.72,9.71-13.53,18.37-.87,9.32,2.46,16.96,10.73,21.92,7.06,4.23,17.29,3.24,22.61-2.94.1-.11.28-.15.57-.29v4.48h10.68v-41.62h-10.73v4.6Zm-11.64,28c-6.79,0-11.57-4.85-11.57-11.75,0-6.9,4.76-11.77,11.54-11.78,6.85-.01,11.69,4.89,11.67,11.83-.02,6.85-4.85,11.71-11.64,11.71Z"/><path class="cls-2" d="m204.71,105.17c-9.3,3.02-15.11,11.48-14.78,21.47.28,8.41,3.77,15.01,11.39,18.91,6.49,3.32,13.36,3.56,20.25,1.16,3.94-1.37,7.07-3.88,9.58-7.45-2.98-1.71-5.81-3.34-8.62-4.96-4.5,4.62-9.79,5.01-15.42,3.01-3.08-1.09-4.96-3.44-5.87-6.82h31.74c.09-1.82.26-3.5.23-5.18-.3-14.99-14.2-24.8-28.51-20.15Zm-3.49,16.97c.85-5.15,5.15-8.42,10.9-8.35,5.31.06,9.46,3.43,10.17,8.35h-21.08Z"/><path class="cls-2" d="m53.57,134.69c-4.67-4.23-4.87-12.28-.4-16.77,2.23-2.24,4.99-3.26,8.12-3.21,4.16.07,7.39,1.88,9.52,5.56,3.11-1.81,6.09-3.56,9.16-5.35-3.59-7.91-14.32-12.48-23.86-10.28-10.35,2.38-17.25,11.3-16.94,21.89.32,10.97,7.45,19.49,17.82,21.32,9.54,1.68,20.24-3.19,23.11-10.58-3.04-1.73-6.08-3.46-9.11-5.19-5.06,6.16-12.31,7.22-17.4,2.61Z"/><path class="cls-2" d="m181.77,137.26c-3.26-.22-4.35-1.42-4.36-4.67-.01-5.2,0-10.39,0-15.59,0-.42.05-.84.08-1.41h9.35v-10.4h-9.5v-11.63c-3.67,1.11-7.16,2.16-10.76,3.25v8.43h-7.18v10.39h7.21c0,.7,0,1.22,0,1.74,0,5.1-.06,10.2.03,15.3.03,2.06.2,4.14.62,6.15.77,3.71,3.02,6.31,6.66,7.52,4.22,1.4,8.54,1.17,12.92.67v-9.73c-1.81,0-3.45.09-5.08-.02Z"/><path class="cls-2" d="m141.58,111.61v-6.32h-10.61v41.66h10.71c0-.76,0-1.43,0-2.1.04-6.4-.08-12.8.17-19.19.19-4.8,3.24-8.03,7.96-8.96,1.49-.29,3.03-.31,4.53-.45v-11.79c-5.59.12-9.88,2.26-12.76,7.16Z"/></svg>