<?xml version="1.0" encoding="UTF-8"?><svg id="Layer_1" xmlns="http://www.w3.org/2000/svg" viewBox="0 0 320 240"><defs><style>.cls-1{fill:#9f9f9f;}</style></defs><g id="Challenge_Networks"><path d="m73.1,156.95c-1.56,0-2.86-.11-3.9-.35-1.04-.23-1.87-.6-2.5-1.1-.62-.51-1.07-1.17-1.33-1.99-.26-.82-.39-1.83-.39-3.02v-2.01c0-1.2.13-2.21.39-3.04.26-.83.7-1.49,1.33-2,.62-.51,1.46-.87,2.5-1.1,1.04-.23,2.34-.35,3.9-.35h15.4v2.9h-16.51c-.73,0-1.33.05-1.79.14-.47.09-.84.25-1.11.48-.27.23-.46.55-.56.95-.1.4-.16.91-.16,1.52v3.04c0,.59.05,1.08.16,1.48.1.4.29.71.56.95.27.24.64.41,1.11.51.47.1,1.07.15,1.79.15h16.54v2.84h-15.43Z"/><path d="m110.73,156.95v-8.97c0-.63-.06-1.14-.17-1.55-.11-.4-.31-.72-.58-.95-.27-.23-.64-.39-1.12-.47-.48-.08-1.07-.12-1.78-.12h-12.44v12.06h-4.01v-19.79h4.01v4.83h11.29c1.58,0,2.9.12,3.95.35,1.05.23,1.89.6,2.51,1.1.62.51,1.07,1.17,1.33,2,.26.83.39,1.84.39,3.04v8.47h-3.38Z"/><path d="m122.83,156.95c-1.23,0-2.24-.09-3.03-.28-.79-.18-1.42-.45-1.89-.79-.47-.34-.8-.75-.98-1.24-.19-.49-.28-1.04-.28-1.64v-2.68c0-.63.09-1.18.26-1.67.18-.49.48-.9.92-1.24.44-.34,1.03-.6,1.79-.77.76-.17,1.72-.26,2.89-.26h15.05v-.33c0-.96-.22-.96-.66-1.28-.44-.32-1.17-.48-2.21-.48h-5.89v-2.29h4.62c1.35,0,2.5.11,3.45.33.95.22,1.72.56,2.32,1.01.6.45,1.04,1.02,1.33,1.71.28.69.42,1.51.42,2.47v3.64c0,1.09-.12,2-.36,2.73-.24.74-.66,1.33-1.25,1.79-.59.46-1.38.79-2.37.98-.99.19-2.23.29-3.73.29h-10.41Zm14.73-8.03h-15.18c-.54,0-.97.11-1.28.32-.31.21-.47.61-.47,1.2v2.29c0,.53.17.9.5,1.1.33.2.8.3,1.4.3h11.91c.54,0,1.01-.04,1.4-.11.39-.07.72-.21.97-.4.25-.19.44-.46.56-.81.12-.35.19-2.07.19-2.62v-1.27Z"/><path d="m143.2,156.95v-19.15h4.11v19.15h-4.11Z"/><path d="m149.08,156.95v-19.15h4.11v19.15h-4.11Z"/><path d="m159.45,150.99v.69c0,.46.04.83.12,1.1.08.28.23.49.45.65.22.16.51.26.87.32.36.06.82.08,1.36.08h6.12v3.12h-5.49c-2.68,0-4.6-.45-5.74-1.35-1.14-.9-1.72-2.35-1.72-4.33v-3.45c0-1.09.12-2,.36-2.75.24-.74.66-1.34,1.25-1.79.59-.45,1.38-.78,2.36-.98.98-.2,2.21-.3,3.71-.3h9.44c1.21,0,2.21.1,3.01.3.8.2,1.43.48,1.9.84.47.36.8.79.98,1.3.19.51.28,1.05.28,1.64v4.91h-19.28Zm15.26-4.58c0-.5-.14-.83-.42-.99-.28-.17-.77-.25-1.48-.25h-10.27c-.58,0-1.07.02-1.47.07-.39.05-.71.15-.95.32-.24.17-.41.4-.51.72-.1.31-.16.74-.16,1.27v.8h15.26v-1.93Z"/><path d="m199.88,156.95v-8.97c0-.63-.06-1.14-.17-1.53-.11-.4-.31-.71-.59-.94-.28-.23-.67-.39-1.15-.48-.49-.09-1.11-.14-1.86-.14h-5.05c-.73,0-4.51.05-5,.14-.49.09-.88.25-1.17.48-.29.23-.49.54-.61.94-.11.4-.17.91-.17,1.53v8.97h-3.38v-8.47c0-1.2.13-2.21.39-3.04.26-.83.7-1.49,1.33-2,.62-.51,1.46-.87,2.5-1.1,1.04-.23,4.24-.35,5.8-.35h5.64c1.58,0,2.89.12,3.93.35,1.04.23,1.24.6,1.86,1.1.62.51,1.07,1.17,1.33,2,.26.83.39,1.84.39,3.04v8.47h-4.01Z"/><path d="m217.19,160.16v-2.1h6.46c.69,0,1.17-.12,1.47-.36.29-.24.44-.02.44-.61v-.58h-11.87c-1.29,0-2.39-.09-3.29-.28-.9-.18-1.64-.47-2.2-.87-.56-.4-.97-.91-1.22-1.55-.25-.63-.37-2.67-.37-3.57v-2.29c0-1.14.11-2.09.33-2.86.22-.76.6-1.38,1.15-1.84.55-.46,1.3-.79,2.25-.98.95-.19,2.14-.29,3.57-.29h7.55c1.39,0,2.56.11,3.51.33.95.22,1.7.57,2.28,1.05.57.48.98,1.09,1.22,1.85.24.75.36,1.67.36,2.73v8.72c0,1.67-.47,1.61-1.4,2.36-.94.74-2.46,1.12-4.59,1.12h-5.62Zm8.36-12.75c0-.99-.22-1.67-.65-2.01-.44-.35-1.23-.52-2.37-.52h-9.84c-1.08,0-1.82.18-2.21.54-.4.36-.59,1.04-.59,2.03v4.5c0,.4.05.74.14.99.09.26.25.46.47.62.22.16.5.26.86.32.35.06.8.08,1.34.08h12.86v-6.54Z"/><path d="m235.53,150.99v.69c0,.46.04.83.12,1.1.08.28.23.49.45.65.22.16.51.26.87.32.36.06.82.08,1.36.08h6.12v3.12h-5.49c-2.68,0-4.6-.45-5.74-1.35-1.14-.9-1.72-2.35-1.72-4.33v-3.45c0-1.09.12-2,.36-2.75.24-.74.66-1.34,1.25-1.79.59-.45,1.38-.78,2.35-.98.98-.2,2.21-.3,3.71-.3h8.17c1.21,0,2.21.1,3.01.3.8.2,1.43.48,1.9.84s.8.79.98,1.3c.19.51.28,1.05.28,1.64v4.91h-18.01Zm15.7-4.58c0-.5-.14-.83-.42-.99-.28-.17-.77-.25-1.48-.25h-10.71c-.58,0-1.07.02-1.47.07-.39.05-.71.15-.95.32-.24.17-.41.4-.51.72s-.16.74-.16,1.27v.8h15.7v-1.93Z"/><path class="cls-1" d="m145.32,169.37l5.01,6.71v-6.77c0-.44.11-.77.32-.99.21-.22.5-.33.86-.33s.67.11.89.33c.22.22.32.55.32.99v8.95c0,1-.47,1.5-1.4,1.5-.23,0-.44-.03-.63-.09-.19-.06-.36-.15-.53-.28-.16-.13-.32-.28-.46-.45-.14-.17-.28-.35-.42-.53l-4.89-6.63v6.67c0,.43-.11.76-.34.99-.23.22-.52.33-.88.33s-.66-.11-.89-.34c-.22-.22-.33-.55-.33-.98v-8.78c0-.37.05-.67.14-.88.11-.23.3-.42.55-.57.26-.15.54-.22.83-.22.23,0,.43.03.6.1.17.07.31.16.44.27.13.11.25.26.39.44.13.18.27.37.41.57Z"/><path class="cls-1" d="m165.38,169.96h-5.87v2.79h5.4c.4,0,.69.08.89.24.2.16.29.37.29.63s-.1.47-.29.63c-.19.16-.49.24-.89.24h-5.4v3.24h6.07c.41,0,.72.08.93.25.21.17.31.39.31.67s-.1.49-.31.66c-.21.17-.52.25-.93.25h-7.08c-.57,0-.98-.11-1.22-.33-.25-.22-.37-.58-.37-1.08v-8.56c0-.33.06-.6.17-.81.11-.21.29-.36.52-.46.24-.1.54-.14.91-.14h6.88c.42,0,.72.08.93.24.2.16.3.38.3.64s-.1.49-.3.65c-.2.16-.51.24-.93.24Z"/><path class="cls-1" d="m178.57,170.08h-2.84v8.27c0,.48-.12.83-.36,1.06-.24.23-.55.35-.93.35s-.7-.12-.94-.35c-.24-.23-.36-.58-.36-1.06v-8.27h-2.84c-.44,0-.77-.09-.99-.26-.22-.17-.32-.4-.32-.69s.11-.53.34-.7c.22-.17.55-.26.98-.26h8.28c.45,0,.79.09,1,.26.22.18.33.41.33.69s-.11.51-.33.69c-.22.17-.56.26-1,.26Z"/><path class="cls-1" d="m191.89,177.77l-2.08-6.82-2.11,6.82c-.16.52-.29.89-.39,1.11-.1.22-.26.43-.5.61-.24.18-.56.27-.96.27-.32,0-.59-.05-.79-.16-.21-.11-.38-.26-.5-.45-.13-.19-.23-.42-.32-.69-.08-.27-.15-.51-.22-.74l-2.14-7.66c-.13-.45-.19-.78-.19-1.02,0-.29.12-.54.35-.74.23-.2.52-.3.87-.3.47,0,.79.14.96.4.16.27.31.66.43,1.17l1.68,6.65,1.89-6.22c.14-.48.27-.84.38-1.09.11-.25.29-.46.54-.64.25-.18.59-.27,1.03-.27s.78.09,1.02.28c.24.19.41.39.5.62.09.22.22.59.38,1.1l1.9,6.22,1.68-6.65c.08-.35.16-.62.23-.82s.2-.37.38-.53c.18-.15.44-.23.78-.23s.63.1.86.3c.24.2.36.45.36.75,0,.21-.06.55-.19,1.02l-2.14,7.66c-.15.52-.27.9-.36,1.14-.1.24-.26.45-.49.63-.23.18-.56.27-.98.27-.4,0-.72-.09-.96-.26-.24-.18-.41-.37-.5-.59-.09-.22-.22-.6-.39-1.13Z"/><path class="cls-1" d="m206.84,167.98c1.33,0,2.48.24,3.43.72s1.68,1.16,2.17,2.04c.49.88.74,1.92.74,3.11,0,.88-.13,1.68-.4,2.4s-.67,1.34-1.21,1.87c-.54.53-1.2.93-1.98,1.21-.78.28-1.68.42-2.69.42s-1.91-.14-2.7-.43c-.8-.29-1.46-.69-1.99-1.21-.53-.52-.93-1.15-1.21-1.89-.27-.74-.41-1.53-.41-2.38s.14-1.68.43-2.41c.28-.73.69-1.35,1.23-1.86.54-.51,1.19-.9,1.97-1.18.77-.27,1.65-.41,2.63-.41Zm3.7,5.85c0-.83-.15-1.56-.46-2.17-.3-.61-.74-1.07-1.3-1.39-.56-.31-1.21-.47-1.94-.47-.52,0-1,.09-1.44.26-.44.17-.82.43-1.14.76-.32.33-.57.75-.75,1.27-.18.52-.28,1.09-.28,1.74s.09,1.23.28,1.75c.18.52.44.96.78,1.3.34.34.72.6,1.16.77.44.17.91.26,1.43.26.67,0,1.28-.15,1.84-.44.56-.29,1-.75,1.33-1.37.33-.62.5-1.37.5-2.27Z"/><path class="cls-1" d="m220.24,174.69h-.91v3.66c0,.48-.12.84-.36,1.06s-.55.34-.94.34c-.42,0-.74-.12-.97-.36-.23-.24-.34-.59-.34-1.05v-8.76c0-.5.13-.86.38-1.08s.66-.33,1.22-.33h4.24c.59,0,1.09.02,1.5.07.42.04.79.13,1.12.27.4.15.76.37,1.07.64.31.28.54.6.71.97.16.37.24.76.24,1.18,0,.85-.27,1.53-.81,2.03-.54.51-1.36.87-2.46,1.08.46.22.9.54,1.33.96.42.42.8.88,1.13,1.35.33.48.59.91.77,1.3.18.39.28.65.28.8s-.05.3-.16.45c-.11.15-.26.26-.44.35-.19.09-.4.13-.65.13-.29,0-.54-.06-.74-.18s-.37-.28-.51-.46c-.14-.19-.34-.46-.58-.82l-1.04-1.54c-.37-.56-.71-.99-1-1.29-.3-.29-.6-.5-.9-.61-.3-.11-.69-.16-1.15-.16Zm1.49-4.78h-2.4v3.13h2.33c.63,0,1.15-.05,1.58-.14.43-.1.75-.26.98-.49.22-.23.34-.55.34-.95,0-.32-.09-.59-.27-.83-.18-.24-.43-.42-.75-.54-.3-.11-.9-.17-1.8-.17Z"/><path class="cls-1" d="m233.61,169.38v3.99l5.11-4.72c.25-.23.45-.4.63-.51.17-.11.4-.16.69-.16.37,0,.68.1.91.29.23.19.35.43.35.71,0,.34-.2.67-.59,1l-3.17,2.66,3.65,4.63c.26.32.45.6.58.84.13.24.19.47.19.7,0,.25-.11.47-.34.66-.22.19-.53.28-.92.28-.36,0-.66-.07-.89-.21-.23-.14-.42-.32-.58-.55-.16-.23-.3-.43-.42-.62l-3.08-4.19-2.13,1.81v2.35c0,.48-.12.83-.37,1.06-.25.23-.56.35-.95.35-.22,0-.44-.05-.64-.15-.21-.1-.36-.24-.47-.42-.08-.14-.13-.31-.15-.5-.02-.19-.03-.47-.03-.83v-8.46c0-.47.12-.82.35-1.05.23-.23.55-.35.94-.35s.71.12.95.35c.24.23.36.58.36,1.05Z"/><path class="cls-1" d="m255.39,176.14c0,.69-.2,1.31-.6,1.86-.4.55-.99.98-1.76,1.29-.77.31-1.69.47-2.75.47-1.27,0-2.32-.21-3.14-.64-.59-.31-1.06-.71-1.43-1.22-.37-.51-.55-1.01-.55-1.49,0-.28.11-.52.33-.72.22-.2.5-.3.84-.3.28,0,.51.08.7.23.19.16.35.39.49.69.16.36.34.67.53.91.19.24.46.44.8.6.35.16.8.24,1.36.24.77,0,1.4-.16,1.88-.48.48-.32.72-.72.72-1.19,0-.38-.13-.68-.39-.92s-.6-.42-1.01-.54c-.41-.12-.96-.26-1.65-.4-.92-.19-1.7-.42-2.32-.67-.62-.26-1.12-.61-1.48-1.05s-.55-.99-.55-1.65.19-1.18.58-1.67c.39-.49.94-.86,1.68-1.12.73-.26,1.59-.39,2.58-.39.79,0,1.47.09,2.05.26.58.17,1.05.4,1.43.69.38.29.66.59.83.9.18.32.26.62.26.92,0,.27-.11.52-.33.74-.22.22-.49.33-.82.33-.3,0-.52-.07-.68-.2-.15-.13-.32-.35-.5-.65-.23-.43-.51-.76-.84-1.01-.33-.24-.85-.36-1.58-.36-.67,0-1.21.13-1.63.39-.41.26-.62.58-.62.94,0,.23.07.42.21.59.14.17.33.31.58.43.25.12.49.21.75.28.25.07.67.17,1.25.29.73.15,1.38.32,1.97.5.59.18,1.09.4,1.5.66.41.26.73.59.96.98.23.4.35.88.35,1.46Z"/><rect x="164.88" y="60.25" width="19.52" height="64.33" rx="8.89" ry="8.89"/><path d="m246.12,60.25h-1.75c-4.89,0-8.89,4-8.89,8.89v28l-24.96-21.11c-3.61-3.03-9.04-2.55-12.07,1.06l-.62.74c-3.03,3.61-2.55,9.04,1.06,12.07l38.91,32.92c.15.12.3.23.45.34,1.6,1.52,3.75,2.46,6.12,2.46h1.75c4.89,0,8.89-4,8.89-8.89v-47.6c0-4.89-4-8.89-8.89-8.89Z"/><path class="cls-1" d="m102.37,60.25h44.11c4.54,0,8.25,3.71,8.25,8.25h0c0,4.54-3.71,8.25-8.25,8.25h-44.11c-4.54,0-8.25-3.71-8.25-8.25h0c0-4.54,3.71-8.25,8.25-8.25Z"/><path class="cls-1" d="m146.48,108.48h-58.55c-2.09,0-3.81-1.71-3.81-3.81v-35.54c0-4.89-4-8.89-8.89-8.89h-1.75c-4.89,0-8.89,4-8.89,8.89v41.89c0,1.02.18,2,.5,2.91-.32.88-.5,1.82-.5,2.8,0,4.54,3.71,8.25,8.25,8.25h73.62c4.54,0,8.25-3.71,8.25-8.25s-3.71-8.25-8.25-8.25Z"/></g></svg>