<?xml version="1.0" encoding="UTF-8"?><svg id="Layer_1" xmlns="http://www.w3.org/2000/svg" viewBox="0 0 320 240"><defs><style>.cls-1{fill:#33afe3;}.cls-1,.cls-2,.cls-3{stroke-width:0px;}.cls-2{fill:#9ad8f5;}.cls-3{fill:#00357b;}</style></defs><path id="path3101" class="cls-3" d="m279.27,108.97h3.82v22.11h-3.26l-12.2-15.72v15.72h-3.82v-22.11h3.6l11.83,15.28v-15.28m-19.42,3.47h-12.51v5.76h11.08v3.47h-11.08v5.93h12.66v3.47h-16.55v-22.11h16.4v3.47m-25.47,18.64h3.89v-22.11h-3.89v22.11Zm-15.72,0h-8.24v-22.11h8.24c6.95,0,11.76,4.76,11.76,11.03s-4.81,11.08-11.76,11.08Zm0-18.56h-4.35v15.04h4.35c4.64,0,7.68-3.13,7.68-7.48s-3.04-7.56-7.68-7.56m-17.18,18.56h3.89v-22.11h-3.89v22.11Zm-7.68-22.11h4.2l-9.19,22.26h-3.4l-9.19-22.26h4.3l6.66,16.99,6.61-16.99m-29.67,22.5c-6.78,0-11.52-5.15-11.52-11.4s4.81-11.47,11.59-11.47,11.52,5.15,11.52,11.4-4.81,11.47-11.59,11.47Zm0-19.29c-4.4,0-7.46,3.5-7.46,7.82s3.13,7.9,7.51,7.9,7.46-3.5,7.46-7.82-3.13-7.9-7.51-7.9m-22.79,19.29c-6.44,0-11.25-5.03-11.25-11.4s4.71-11.47,11.4-11.47c4.08,0,6.54,1.41,8.65,3.45l-2.5,2.87c-1.77-1.65-3.67-2.75-6.2-2.75-4.23,0-7.29,3.47-7.29,7.82s3.06,7.9,7.29,7.9c2.72,0,4.45-1.12,6.34-2.87l2.5,2.53c-2.28,2.38-4.81,3.91-8.94,3.91"/><path id="path3111" class="cls-1" d="m66.34,142.06h14.7v-14.7h-14.7v14.7h0Zm0-29.43h14.7v-14.7h-14.7v14.7h0Z"/><path id="path3119" class="cls-3" d="m81.04,97.94v14.7h14.7v14.7h-14.7v14.7h29.43v-44.1h-29.43m-14.7,14.7v-14.7h-29.43v44.13h29.43v-14.7h-14.73v-14.73h14.73"/><path id="path3107" class="cls-2" d="m81.04,127.36h14.7v-14.73h-14.7v14.73Zm-29.43,0h14.7v-14.73h-14.7v14.73h0Z"/></svg>