<?xml version="1.0" encoding="UTF-8"?><svg id="Layer_1" xmlns="http://www.w3.org/2000/svg" xmlns:xlink="http://www.w3.org/1999/xlink" viewBox="0 0 320 240"><defs><style>.cls-1{fill:url(#radial-gradient);}.cls-1,.cls-2,.cls-3{stroke-width:0px;}.cls-2{fill-rule:evenodd;}.cls-2,.cls-3{fill:#808082;}</style><radialGradient id="radial-gradient" cx="682.48" cy="1119" fx="682.48" fy="1119" r=".42" gradientTransform="translate(-22735.57 37520.54) scale(33.42 -33.42)" gradientUnits="userSpaceOnUse"><stop offset="0" stop-color="#fff"/><stop offset=".15" stop-color="#fff7e4"/><stop offset=".48" stop-color="#fde29b"/><stop offset=".96" stop-color="#ffc52f"/><stop offset="1" stop-color="#ffc125"/></radialGradient></defs><g id="Cyclopharm_Limited"><g id="Group"><g id="test"><g id="CpharmLogo150821"><path id="Shape" class="cls-1" d="m86.55,119.37c0,9.24-7.48,16.74-16.71,16.74-9.23,0-16.71-7.49-16.71-16.73,0-9.24,7.48-16.74,16.71-16.74,4.43,0,8.68,1.76,11.82,4.9,3.13,3.14,4.9,7.4,4.89,11.84Z"/><path class="cls-3" d="m79.1,95.43c0,.91.54,1.73,1.38,2.08s1.8.16,2.44-.48.83-1.61.49-2.45c-.35-.84-1.16-1.39-2.07-1.39-1.24,0-2.24,1-2.24,2.24h0Z"/><path class="cls-3" d="m62.73,89.95c-.07.01-5.59,1.53-5.59,1.53h-.06s-10.63,7.88-10.63,7.88l-3.29,4.85-3.18,13.79s-.49,5.7-.49,5.7v.07s4.52,11.64,4.52,11.64l4.44,5.35c.06.05,10.39,7.58,10.39,7.58l.35-.48-10.34-7.53s-4.16-5.02-4.32-5.23l-4.44-11.42c.01-.14.48-5.6.48-5.6,0,0,3.01-13.06,3.15-13.64.06-.09,3.12-4.6,3.17-4.68.08-.06,10.38-7.67,10.47-7.74.1-.03,5.46-1.51,5.46-1.51-.08.01,14.12-.13,14.12-.13v-.59l-14.21.14Z"/><path class="cls-3" d="m60.49,90.25c0,1.24,1.01,2.24,2.25,2.24,1.24,0,2.24-1.01,2.24-2.25,0-1.24-1.01-2.24-2.24-2.24-.6,0-1.17.24-1.59.66-.42.42-.66.99-.65,1.59h0Z"/><path class="cls-3" d="m54.97,91.77c0,.91.54,1.73,1.38,2.08.84.35,1.8.16,2.44-.49.64-.64.83-1.61.49-2.45s-1.16-1.39-2.07-1.39c-1.24,0-2.24,1-2.24,2.24Z"/><path class="cls-3" d="m57.38,96.05c0,1.24,1.01,2.24,2.24,2.24s2.24-1.01,2.24-2.25-1-2.24-2.24-2.24c-1.24,0-2.24,1.01-2.24,2.25h0Z"/><path class="cls-3" d="m74.69,90.11c0,1.24,1.01,2.24,2.25,2.24s2.24-1.01,2.24-2.25c0-1.24-1.01-2.24-2.24-2.24-.6,0-1.17.24-1.59.66-.42.42-.66.99-.65,1.59h0Z"/><path class="cls-3" d="m67.52,98.74c0,.91.55,1.73,1.39,2.08.84.35,1.81.16,2.45-.49s.83-1.61.49-2.45c-.35-.84-1.17-1.39-2.08-1.39-.6,0-1.17.24-1.59.66-.42.42-.66.99-.66,1.59Z"/><path class="cls-3" d="m67.45,109.3c0,1.24,1,2.24,2.24,2.24s2.24-1,2.24-2.24c0-1.24-1-2.24-2.24-2.25-1.24,0-2.24,1.01-2.24,2.24h0Z"/><path class="cls-3" d="m57.82,115.52c0,1.19.97,2.15,2.16,2.15,1.19,0,2.15-.97,2.15-2.16s-.96-2.15-2.15-2.15c-1.19,0-2.15.97-2.15,2.16Z"/><path class="cls-3" d="m47.39,113.51c0,1.24,1,2.25,2.24,2.25s2.24-1,2.24-2.24c0-1.24-1-2.25-2.24-2.25-1.24,0-2.24,1-2.25,2.24Z"/><path class="cls-3" d="m47.39,103.3c0,1.24,1,2.24,2.24,2.24,1.24,0,2.24-1,2.24-2.24,0-1.24-1-2.25-2.24-2.25-1.24,0-2.24,1-2.25,2.24h0Z"/><path class="cls-3" d="m44.43,99.57c0,1.24,1.01,2.24,2.24,2.24,1.24,0,2.24-1.01,2.24-2.24s-1-2.24-2.24-2.24c-.59,0-1.16.24-1.58.66-.42.42-.66.99-.65,1.59h0Z"/><path class="cls-3" d="m41.19,104.33c0,.91.54,1.73,1.38,2.08.84.35,1.8.16,2.45-.48.64-.64.84-1.61.49-2.45s-1.16-1.39-2.07-1.39c-1.24,0-2.24,1-2.24,2.24Z"/><path class="cls-3" d="m38.02,118.07c0,1.24,1,2.24,2.24,2.24,1.24,0,2.24-1,2.24-2.24s-1-2.24-2.24-2.24c-.59,0-1.17.24-1.59.66-.42.42-.66.99-.66,1.59h0Z"/><path class="cls-3" d="m37.53,123.73c0,.91.54,1.73,1.38,2.08.84.35,1.8.16,2.45-.48.64-.64.84-1.61.49-2.45-.35-.84-1.17-1.39-2.07-1.39-1.23,0-2.23,1-2.24,2.24h0Z"/><path class="cls-3" d="m42.01,122.29c0,.91.55,1.73,1.39,2.07s1.8.15,2.44-.49c.64-.64.83-1.61.48-2.45-.35-.84-1.17-1.39-2.07-1.38-.59,0-1.16.24-1.58.66-.42.42-.66.99-.65,1.59h0Z"/><path class="cls-3" d="m46.49,133.81c0,1.24,1,2.24,2.24,2.24s2.24-1.01,2.24-2.24-1-2.24-2.24-2.24c-1.24,0-2.24,1.01-2.24,2.25Z"/><path class="cls-3" d="m42.01,135.26c0,.91.54,1.73,1.38,2.08.84.35,1.8.16,2.45-.48.64-.64.84-1.61.49-2.45-.35-.84-1.16-1.39-2.07-1.39-1.24,0-2.24,1-2.25,2.24h0Z"/><path class="cls-3" d="m46.43,140.59c0,1.24,1.01,2.24,2.24,2.24,1.24,0,2.24-1.01,2.24-2.24,0-1.24-1-2.24-2.24-2.24-.6,0-1.17.24-1.59.66s-.66.99-.66,1.59Z"/><path class="cls-3" d="m55.46,136.87c0,1.24,1.01,2.24,2.24,2.24,1.24,0,2.24-1,2.24-2.24,0-1.24-1-2.24-2.24-2.24-.59,0-1.17.24-1.59.66s-.66.99-.66,1.59Z"/><path class="cls-3" d="m61.59,127.39c0,.91.54,1.73,1.38,2.08.84.35,1.8.16,2.44-.48.64-.64.84-1.61.49-2.45-.35-.84-1.16-1.39-2.07-1.39-1.24,0-2.24,1-2.24,2.24Z"/><path class="cls-3" d="m73.93,127.39c0,1.24,1,2.24,2.24,2.24,1.24,0,2.24-1,2.24-2.24s-1-2.24-2.24-2.24c-.59,0-1.16.24-1.58.66s-.66.99-.66,1.59h0Z"/><path class="cls-3" d="m79.53,136.57c0,1.24,1,2.24,2.24,2.24,1.24,0,2.24-1,2.24-2.24s-1-2.24-2.24-2.25c-1.24,0-2.24,1-2.24,2.24Z"/><path class="cls-3" d="m73.31,149.9c0,1.24,1,2.24,2.24,2.24,1.24,0,2.24-1,2.24-2.24,0-1.24-1-2.24-2.24-2.25-.6,0-1.17.23-1.59.65s-.66.99-.66,1.59Z"/><path class="cls-3" d="m73.31,144.99c0,1.24,1,2.24,2.24,2.24,1.24,0,2.24-1,2.24-2.24,0-1.24-1-2.24-2.24-2.25-.59,0-1.17.23-1.59.66s-.66.99-.66,1.59h0Z"/><path class="cls-3" d="m79.16,147.83c0,1.24,1,2.25,2.24,2.25,1.24,0,2.24-1,2.25-2.24,0-1.24-1-2.25-2.24-2.25-1.24,0-2.24,1-2.25,2.24Z"/><path class="cls-3" d="m62.21,144.99c0,1.24,1,2.24,2.24,2.24,1.24,0,2.24-1,2.24-2.24,0-1.24-1-2.24-2.23-2.25-1.24,0-2.24,1-2.24,2.24h0Z"/><path class="cls-3" d="m62.21,149.83c0,1.24,1,2.24,2.24,2.24s2.24-1,2.24-2.24-1-2.25-2.24-2.25c-.6,0-1.17.23-1.59.66-.42.42-.66.99-.66,1.59h0Z"/><path class="cls-3" d="m56.76,148.1c0,1.24,1,2.24,2.24,2.24s2.24-1,2.24-2.24c0-1.24-1-2.25-2.24-2.25-1.24,0-2.24,1.01-2.25,2.25h0Z"/><path class="cls-3" d="m43.97,122.39s4.41,11.36,4.46,11.48c0,.11-.1,6.6-.1,6.6h.6s.09-6.72.09-6.72l-4.5-11.58-.56.22Z"/><path class="cls-3" d="m59.68,115.61s3.73,11.48,3.82,11.74c-.14.23-5.61,8.86-5.85,9.23l-8.82-3.04-.2.57,9.27,3.2,6.25-9.87-3.91-12.01-.56.19Z"/><path class="cls-3" d="m59.45,95.8s-9.82,7.13-9.94,7.21l-6.13,1.02.09.59,6.28-1.04,9.93-7.21c.27.07,9.35,2.48,9.77,2.6,0,.44-.06,9.86-.06,10.17-.27.17-9.3,5.94-9.49,6.06-.23-.05-10.42-2.02-10.42-2.02l-5.48,8.98.51.31s5.05-8.29,5.26-8.63c.39.07,10.25,1.99,10.25,1.99l9.96-6.37.07-10.96-10.5-2.79-.11.09Z"/><polygon class="cls-3" points="59.35 95.9 59.91 96.2 63.01 90.4 62.44 90.1 59.35 95.9"/><path class="cls-3" d="m76.71,90.3s3.69,4.35,4.21,4.96c-.83.23-11.24,3.19-11.24,3.19l.16.58,12.13-3.44-4.82-5.67-.45.39Z"/><polygon class="cls-3" points="40.04 118.27 44.05 122.53 44.49 122.11 40.47 117.87 40.04 118.27"/><path class="cls-3" d="m76.17,127.1h-12.34v.6h12.18c.17.26,5.38,8.53,5.59,8.87-.24.32-6.5,8.55-6.5,8.55,0,0,4.52,2.18,5.54,2.68-1.05.37-5.05,1.79-5.14,1.82l-11.04-.07h0s-3.29-1.06-4.71-1.51c.94-.54,4.85-2.77,4.85-2.77l-.29-.52-6.04,3.44,6.1,1.93c.09.02,11.18.08,11.18.08h.05l6.58-2.32s-5.59-2.71-6.18-2.99c.41-.54,6.31-8.3,6.31-8.3l-5.99-9.5h-.16,0Z"/><path class="cls-3" d="m57.55,137.13l6.76,8.17h11.24v-.6h-10.96c-.18-.22-6.57-7.95-6.57-7.95l-.46.38Z"/></g><path id="cyclopharm" class="cls-2" d="m116.38,124.14c-.86.36-1.94.68-3.49.68-3.02,0-5.36-2.05-5.36-5.65-.04-3.2,1.98-5.68,5.36-5.68,1.58,0,2.62.36,3.34.68l.79-3.31c-1.01-.47-2.66-.83-4.28-.83-6.15,0-9.74,4.1-9.74,9.35s3.56,8.92,9.02,8.92c2.19,0,4.03-.47,4.96-.9l-.61-3.27Zm2.37-13.71l6.4,16.08c.22.43.25.68.25.86,0,.22-.11.47-.29.79-.61,1.19-1.58,2.23-2.41,2.77-.9.65-1.83,1.04-2.59,1.22l1.01,3.74c1.11-.14,2.91-.72,4.64-2.27,2.09-1.8,3.7-4.71,6.11-11.26l4.39-11.94h-4.75l-2.73,9.35c-.32,1.15-.65,2.45-.93,3.45h-.11c-.25-1.01-.61-2.34-.97-3.42l-3.16-9.39h-4.85Zm31.85,13.71c-.86.36-1.94.68-3.49.68-3.02,0-5.36-2.05-5.36-5.65-.04-3.2,1.98-5.68,5.36-5.68,1.58,0,2.62.36,3.34.68l.79-3.31c-1.01-.47-2.66-.83-4.28-.83-6.15,0-9.74,4.1-9.74,9.35s3.56,8.92,9.02,8.92c2.19,0,4.03-.47,4.96-.9l-.61-3.27Zm3.88,3.81h4.46v-25.54h-4.46v25.54Zm17.18-17.92c5.21,0,8.7,3.67,8.7,8.99,0,6.44-4.53,9.32-8.99,9.32-4.96,0-8.77-3.42-8.77-9.03s3.77-9.28,9.06-9.28Zm-.11,3.24c-3.13,0-4.39,3.02-4.39,5.94,0,3.38,1.65,5.94,4.35,5.94,2.52,0,4.28-2.48,4.28-6.01,0-2.73-1.22-5.86-4.24-5.86Zm12.44,21.8v-18.81c0-2.3-.07-4.17-.14-5.83h3.88l.22,2.7h.07c1.29-1.98,3.34-3.09,6-3.09,4.03,0,7.37,3.45,7.37,8.92,0,6.33-3.99,9.39-7.98,9.39-2.19,0-4.03-.94-4.93-2.34h-.07v9.07h-4.42Zm4.42-17.16v2.7c0,.43.04.83.14,1.22.43,1.8,2.01,3.09,3.88,3.09,2.8,0,4.46-2.34,4.46-5.79,0-3.09-1.51-5.61-4.35-5.61-1.83,0-3.52,1.33-3.95,3.27-.11.36-.18.76-.18,1.12Zm16.61,10.04h4.46v-10.47c0-.5.04-.97.18-1.33.47-1.33,1.69-2.48,3.42-2.48,2.44,0,3.38,1.91,3.38,4.46v9.82h4.42v-10.32c0-5.61-3.13-7.59-6.11-7.59-1.11,0-2.16.29-3.02.79-.93.5-1.65,1.19-2.19,2.01h-.07v-10.43h-4.46v25.54Zm34.4,0h-3.99l-.29-1.94h-.11c-1.08,1.37-2.91,2.34-5.18,2.34-3.52,0-5.5-2.55-5.5-5.22,0-4.42,3.92-6.66,10.39-6.62v-.29c0-1.15-.47-3.06-3.56-3.06-1.73,0-3.52.54-4.71,1.3l-.86-2.88c1.29-.79,3.56-1.55,6.33-1.55,5.61,0,7.23,3.56,7.23,7.37v6.33c0,1.58.07,3.13.25,4.21Zm-4.57-6.15v-2.41c-3.13-.07-6.11.61-6.11,3.27,0,1.73,1.11,2.52,2.52,2.52,1.76,0,3.06-1.15,3.45-2.41.11-.32.14-.68.14-.97Zm8.99,6.15h4.42v-9.07c0-.5.07-.97.14-1.37.4-1.98,1.83-3.35,3.95-3.35.54,0,.93.07,1.29.14v-4.17c-.36-.07-.61-.11-1.04-.11-1.87,0-3.92,1.26-4.78,3.74h-.14l-.14-3.35h-3.85c.11,1.58.14,3.27.14,5.65v11.87Zm12.8,0h4.31v-10.36c0-.5.07-1.01.25-1.44.4-1.22,1.51-2.52,3.16-2.52,2.05,0,3.02,1.73,3.02,4.17v10.14h4.31v-10.5c0-.5.11-1.04.22-1.47.47-1.26,1.58-2.34,3.09-2.34,2.12,0,3.13,1.73,3.13,4.64v9.68h4.31v-10.32c0-5.61-2.95-7.59-5.86-7.59-1.44,0-2.55.36-3.52,1.04-.83.5-1.55,1.22-2.16,2.19h-.07c-.75-1.94-2.55-3.24-4.85-3.24-2.95,0-4.53,1.62-5.39,2.99h-.11l-.18-2.59h-3.81c.11,1.51.14,3.2.14,5.22v12.3Z"/></g></g></g></svg>