<?xml version="1.0" encoding="UTF-8"?><svg id="Layer_1" xmlns="http://www.w3.org/2000/svg" xmlns:xlink="http://www.w3.org/1999/xlink" viewBox="0 0 320 240"><defs><style>.cls-1{fill:gray;}.cls-2{fill:url(#radial-gradient);}</style><radialGradient id="radial-gradient" cx="-959.49" cy="587.22" fx="-959.49" fy="587.22" r=".42" gradientTransform="translate(29925.9 18279.19) scale(30.92 -30.92)" gradientUnits="userSpaceOnUse"><stop offset="0" stop-color="#fff"/><stop offset=".15" stop-color="#f7f7f7"/><stop offset=".48" stop-color="#e2e2e2"/><stop offset=".96" stop-color="#c6c6c6"/><stop offset="1" stop-color="#c2c2c2"/></radialGradient></defs><g id="Cyclopharm_Limited"><g id="Group"><g id="test"><g id="CpharmLogo150821"><path id="Shape" class="cls-2" d="m275.02,119.42c0,8.55-6.92,15.48-15.46,15.48-8.54,0-15.46-6.93-15.46-15.48,0-8.55,6.92-15.48,15.46-15.48,4.1,0,8.03,1.63,10.93,4.53,2.9,2.9,4.53,6.84,4.53,10.95Z"/><path class="cls-1" d="m268.12,97.27c0,.84.5,1.6,1.28,1.92s1.67.15,2.26-.45.77-1.49.45-2.26c-.32-.78-1.08-1.28-1.92-1.28-1.14,0-2.07.93-2.07,2.07h0Z"/><path class="cls-1" d="m252.98,92.2c-.07.01-5.17,1.42-5.17,1.42h-.05s-9.84,7.29-9.84,7.29l-3.05,4.49-2.94,12.76s-.45,5.28-.45,5.28v.06s4.18,10.77,4.18,10.77l4.11,4.95c.05.05,9.62,7.01,9.62,7.01l.32-.45-9.56-6.96s-3.84-4.65-4-4.84l-4.11-10.56c.01-.13.44-5.18.44-5.18,0,0,2.79-12.08,2.92-12.62.06-.08,2.89-4.25,2.94-4.33.08-.05,9.6-7.1,9.68-7.16.09-.03,5.05-1.39,5.05-1.39-.07.01,13.06-.12,13.06-.12v-.55l-13.14.13Z"/><path class="cls-1" d="m250.9,92.48c0,1.15.93,2.07,2.08,2.07,1.14,0,2.07-.93,2.07-2.08,0-1.15-.93-2.07-2.07-2.07-.55,0-1.08.22-1.47.61-.39.39-.61.92-.6,1.47h0Z"/><path class="cls-1" d="m245.8,93.88c0,.84.5,1.6,1.28,1.92.77.32,1.67.14,2.26-.45.59-.59.77-1.49.45-2.26s-1.08-1.28-1.92-1.28c-1.14,0-2.07.93-2.07,2.07Z"/><path class="cls-1" d="m248.03,97.84c0,1.15.93,2.07,2.08,2.07s2.07-.93,2.07-2.08-.93-2.08-2.07-2.07c-1.15,0-2.07.93-2.07,2.08h0Z"/><path class="cls-1" d="m264.04,92.35c0,1.15.93,2.07,2.08,2.07,1.14,0,2.07-.93,2.07-2.08,0-1.15-.93-2.07-2.07-2.07-.55,0-1.08.22-1.47.61-.39.39-.61.92-.61,1.47h0Z"/><path class="cls-1" d="m257.41,100.33c0,.84.5,1.6,1.28,1.92.78.32,1.67.14,2.26-.45s.77-1.49.45-2.27c-.32-.78-1.08-1.28-1.92-1.28-.55,0-1.08.22-1.47.61-.39.39-.61.92-.61,1.47Z"/><path class="cls-1" d="m257.34,110.1c0,1.15.93,2.07,2.07,2.07s2.07-.93,2.07-2.07c0-1.15-.92-2.08-2.07-2.08-1.14,0-2.07.93-2.08,2.08h0Z"/><path class="cls-1" d="m248.43,115.85c0,1.1.9,1.99,1.99,1.99,1.1,0,1.99-.9,1.99-2s-.89-1.99-1.99-1.99c-1.1,0-1.99.9-1.99,2Z"/><path class="cls-1" d="m238.79,114c0,1.15.93,2.08,2.07,2.08s2.07-.93,2.08-2.07c0-1.15-.92-2.08-2.07-2.08-1.15,0-2.08.93-2.08,2.07Z"/><path class="cls-1" d="m238.79,104.55c0,1.15.93,2.08,2.07,2.08,1.14,0,2.07-.93,2.08-2.07,0-1.15-.92-2.08-2.07-2.08-1.15,0-2.08.93-2.08,2.08h0Z"/><path class="cls-1" d="m236.05,101.1c0,1.15.93,2.07,2.07,2.07,1.14,0,2.07-.93,2.07-2.08s-.93-2.07-2.07-2.07c-.55,0-1.08.22-1.47.61-.39.39-.61.92-.61,1.47h0Z"/><path class="cls-1" d="m233.05,105.5c0,.84.5,1.6,1.28,1.92.77.32,1.67.15,2.26-.45.59-.59.77-1.49.45-2.26s-1.08-1.28-1.92-1.28c-1.14,0-2.07.93-2.07,2.07Z"/><path class="cls-1" d="m230.12,118.22c0,1.15.93,2.07,2.07,2.07,1.14,0,2.07-.93,2.07-2.07s-.92-2.07-2.07-2.08c-.55,0-1.08.22-1.47.61-.39.39-.61.92-.61,1.47h0Z"/><path class="cls-1" d="m229.67,123.45c0,.84.5,1.6,1.28,1.93.78.32,1.67.15,2.26-.45.59-.59.77-1.49.45-2.27-.32-.78-1.08-1.28-1.92-1.28-1.14,0-2.07.93-2.07,2.07h0Z"/><path class="cls-1" d="m233.82,122.12c0,.84.51,1.6,1.28,1.92s1.67.14,2.26-.45c.59-.59.77-1.49.45-2.27-.32-.78-1.08-1.28-1.92-1.28-.55,0-1.08.22-1.47.61-.39.39-.61.92-.61,1.47h0Z"/><path class="cls-1" d="m237.96,132.78c0,1.15.93,2.08,2.07,2.07,1.14,0,2.07-.93,2.07-2.08s-.93-2.08-2.07-2.08c-1.15,0-2.07.93-2.07,2.08Z"/><path class="cls-1" d="m233.81,134.12c0,.84.5,1.6,1.28,1.92.78.32,1.67.15,2.26-.45.59-.59.77-1.49.45-2.27-.32-.78-1.08-1.29-1.92-1.29-1.15,0-2.07.93-2.08,2.08h0Z"/><path class="cls-1" d="m237.9,139.04c0,1.15.93,2.07,2.08,2.07,1.14,0,2.07-.93,2.07-2.08,0-1.15-.93-2.07-2.07-2.07-.55,0-1.08.22-1.47.61s-.61.92-.61,1.47Z"/><path class="cls-1" d="m246.25,135.61c0,1.15.93,2.07,2.07,2.07,1.14,0,2.07-.93,2.07-2.08,0-1.15-.93-2.07-2.07-2.08-.55,0-1.08.22-1.47.61s-.61.92-.61,1.47Z"/><path class="cls-1" d="m251.92,126.84c0,.84.5,1.6,1.28,1.92.77.32,1.67.15,2.26-.45.59-.59.77-1.49.45-2.26-.32-.78-1.08-1.28-1.92-1.28-1.15,0-2.07.93-2.08,2.07Z"/><path class="cls-1" d="m263.34,126.84c0,1.15.93,2.07,2.07,2.07,1.14,0,2.07-.93,2.07-2.07s-.92-2.07-2.07-2.08c-.55,0-1.08.22-1.47.61s-.61.92-.61,1.47h0Z"/><path class="cls-1" d="m268.52,135.33c0,1.15.93,2.08,2.07,2.08,1.14,0,2.07-.93,2.07-2.07s-.93-2.08-2.07-2.08c-1.14,0-2.07.93-2.07,2.07Z"/><path class="cls-1" d="m262.77,147.66c0,1.15.93,2.07,2.07,2.07,1.14,0,2.07-.93,2.07-2.07,0-1.15-.92-2.08-2.07-2.08-.55,0-1.08.22-1.47.61s-.61.92-.61,1.47Z"/><path class="cls-1" d="m262.77,143.12c0,1.15.93,2.08,2.07,2.08,1.14,0,2.07-.93,2.07-2.07,0-1.15-.92-2.08-2.07-2.08-.55,0-1.08.22-1.47.61s-.61.92-.61,1.47h0Z"/><path class="cls-1" d="m268.18,145.74c0,1.15.93,2.08,2.07,2.08,1.15,0,2.08-.93,2.08-2.07,0-1.15-.93-2.08-2.07-2.08-1.15,0-2.08.93-2.08,2.08Z"/><path class="cls-1" d="m252.5,143.12c0,1.15.93,2.07,2.07,2.07,1.14,0,2.07-.93,2.07-2.07,0-1.15-.92-2.08-2.07-2.08-1.15,0-2.07.93-2.08,2.07h0Z"/><path class="cls-1" d="m252.5,147.6c0,1.15.93,2.08,2.07,2.08,1.14,0,2.07-.93,2.07-2.07s-.93-2.08-2.07-2.08c-.55,0-1.08.22-1.47.61-.39.39-.61.92-.61,1.47h0Z"/><path class="cls-1" d="m247.46,146c0,1.15.93,2.08,2.07,2.08s2.07-.93,2.08-2.08c0-1.15-.93-2.08-2.07-2.08-1.15,0-2.08.93-2.08,2.08h0Z"/><path class="cls-1" d="m235.63,122.22s4.08,10.51,4.12,10.62c0,.11-.09,6.1-.09,6.1h.55s.09-6.22.09-6.22l-4.16-10.71-.51.21Z"/><path class="cls-1" d="m250.16,115.94s3.45,10.62,3.53,10.86c-.13.21-5.19,8.19-5.41,8.54l-8.16-2.82-.18.53,8.58,2.96,5.78-9.13-3.61-11.11-.52.17Z"/><path class="cls-1" d="m249.95,97.62s-9.09,6.6-9.2,6.67l-5.67.95.09.54,5.81-.97,9.19-6.67c.25.06,8.65,2.3,9.04,2.41,0,.4-.06,9.12-.06,9.41-.25.16-8.6,5.49-8.78,5.61-.21-.04-9.64-1.87-9.64-1.87l-5.07,8.3.47.29s4.67-7.67,4.86-7.98c.36.07,9.48,1.84,9.48,1.84l9.21-5.89.07-10.14-9.71-2.58-.1.08Z"/><polygon class="cls-1" points="249.85 97.7 250.37 97.98 253.24 92.61 252.72 92.34 249.85 97.7"/><path class="cls-1" d="m265.91,92.53s3.42,4.02,3.9,4.59c-.77.21-10.4,2.95-10.4,2.95l.15.53,11.22-3.18-4.46-5.25-.42.36Z"/><polygon class="cls-1" points="231.99 118.4 235.7 122.34 236.1 121.96 232.39 118.03 231.99 118.4"/><path class="cls-1" d="m265.42,126.56h-11.42v.55h11.26c.16.24,4.98,7.89,5.17,8.2-.22.3-6.01,7.91-6.01,7.91,0,0,4.18,2.02,5.13,2.48-.97.34-4.67,1.65-4.75,1.68l-10.22-.06h0s-3.05-.98-4.36-1.39c.87-.5,4.49-2.56,4.49-2.56l-.27-.49-5.59,3.19,5.65,1.79c.08.02,10.35.08,10.35.08h.05l6.09-2.15s-5.17-2.5-5.71-2.77c.38-.5,5.84-7.68,5.84-7.68l-5.54-8.78h-.14,0Z"/><path class="cls-1" d="m248.19,135.84l6.25,7.56h10.4v-.55h-10.14c-.16-.2-6.08-7.35-6.08-7.35l-.43.35Z"/></g></g></g><path class="cls-1" d="m52.9,114.4c-.68,0-1.25.16-1.72.47-.46.31-.84.71-1.13,1.2-.29.49-.5,1.03-.62,1.63-.12.59-.18,1.18-.18,1.76s.06,1.13.18,1.72c.12.58.32,1.11.59,1.58.27.47.64.86,1.1,1.16.46.3,1.02.45,1.69.45,1.02,0,1.81-.29,2.36-.86.55-.57.9-1.34,1.04-2.3h4.13c-.28,2.07-1.08,3.64-2.41,4.73-1.32,1.08-3.02,1.63-5.09,1.63-1.16,0-2.23-.2-3.21-.59-.97-.39-1.8-.94-2.48-1.64s-1.21-1.54-1.6-2.51c-.38-.97-.57-2.04-.57-3.21s.18-2.32.53-3.36c.35-1.03.87-1.93,1.55-2.68.68-.75,1.52-1.34,2.5-1.76.98-.42,2.11-.63,3.37-.63.92,0,1.81.12,2.66.36.85.24,1.62.61,2.29,1.1.67.49,1.22,1.1,1.64,1.84.42.73.66,1.6.72,2.6h-4.19c-.28-1.79-1.34-2.68-3.16-2.68Z"/><path class="cls-1" d="m68.5,131.8c-.82.54-1.97.81-3.43.81-.44,0-.88-.02-1.31-.05-.43-.03-.87-.07-1.31-.11v-3.52c.4.04.81.08,1.23.12.42.04.84.05,1.26.03.56-.06.98-.28,1.25-.66s.41-.8.41-1.26c0-.34-.06-.66-.18-.96l-5.45-14.6h4.55l3.52,10.66h.06l3.4-10.66h4.43l-6.5,17.5c-.46,1.26-1.1,2.17-1.93,2.71Z"/><path class="cls-1" d="m85.81,114.4c-.68,0-1.25.16-1.72.47-.46.31-.84.71-1.13,1.2-.29.49-.5,1.03-.62,1.63-.12.59-.18,1.18-.18,1.76s.06,1.13.18,1.72c.12.58.32,1.11.59,1.58.27.47.64.86,1.1,1.16.46.3,1.02.45,1.69.45,1.02,0,1.81-.29,2.36-.86.55-.57.9-1.34,1.04-2.3h4.13c-.28,2.07-1.08,3.64-2.41,4.73-1.32,1.08-3.02,1.63-5.09,1.63-1.16,0-2.23-.2-3.21-.59-.97-.39-1.8-.94-2.48-1.64s-1.21-1.54-1.6-2.51c-.38-.97-.57-2.04-.57-3.21s.18-2.32.53-3.36c.35-1.03.87-1.93,1.55-2.68.68-.75,1.52-1.34,2.5-1.76.98-.42,2.11-.63,3.37-.63.92,0,1.81.12,2.66.36.85.24,1.62.61,2.29,1.1.67.49,1.22,1.1,1.64,1.84.42.73.66,1.6.72,2.6h-4.19c-.28-1.79-1.34-2.68-3.16-2.68Z"/><path class="cls-1" d="m100.05,105.67v21.5h-4.28v-21.5h4.28Z"/><path class="cls-1" d="m103.52,116.01c.38-1.01.92-1.88,1.63-2.59.7-.71,1.54-1.26,2.53-1.66.98-.39,2.09-.59,3.31-.59s2.33.2,3.33.59c.99.39,1.84.94,2.54,1.66s1.24,1.58,1.63,2.59c.38,1.01.57,2.14.57,3.39s-.19,2.37-.57,3.37c-.38,1-.92,1.86-1.63,2.57s-1.55,1.26-2.54,1.64c-.99.38-2.1.57-3.33.57s-2.33-.19-3.31-.57-1.83-.93-2.53-1.64c-.7-.71-1.24-1.57-1.63-2.57-.38-1-.57-2.13-.57-3.37s.19-2.37.57-3.39Zm3.88,5.21c.12.59.33,1.12.62,1.6.29.47.68.85,1.16,1.13s1.08.42,1.81.42,1.33-.14,1.82-.42c.49-.28.88-.66,1.17-1.13s.5-1,.62-1.6c.12-.59.18-1.2.18-1.82s-.06-1.23-.18-1.84c-.12-.6-.33-1.13-.62-1.6-.29-.46-.68-.84-1.17-1.13-.49-.29-1.1-.44-1.82-.44s-1.33.15-1.81.44c-.48.29-.87.67-1.16,1.13-.29.46-.5.99-.62,1.6-.12.6-.18,1.21-.18,1.84s.06,1.23.18,1.82Z"/><path class="cls-1" d="m123.75,111.63v2.62h.09c.5-.96,1.16-1.72,1.97-2.26s1.85-.81,3.12-.81c1.02,0,1.95.25,2.79.75.83.5,1.39,1.26,1.67,2.29.46-1.02,1.14-1.79,2.05-2.29.9-.5,1.87-.75,2.89-.75,3.43,0,5.15,1.82,5.15,5.45v10.54h-1.9v-10.45c0-1.28-.27-2.26-.81-2.94-.54-.67-1.5-1.01-2.86-1.01-.82,0-1.51.16-2.05.47-.54.31-.97.73-1.3,1.25-.32.52-.55,1.12-.68,1.79-.13.67-.2,1.37-.2,2.09v8.79h-1.9v-10.54c0-.52-.06-1.02-.17-1.49-.11-.47-.29-.88-.54-1.23-.25-.35-.59-.63-1.01-.83-.42-.2-.93-.3-1.54-.3-.8,0-1.5.15-2.09.44-.59.29-1.07.69-1.45,1.2-.37.51-.65,1.11-.83,1.81-.18.69-.27,1.45-.27,2.27v8.67h-1.9v-15.54h1.75Z"/><path class="cls-1" d="m148.49,122.03c.19.73.5,1.39.92,1.97.42.58.95,1.06,1.6,1.45.64.38,1.41.57,2.32.57,1.38,0,2.47-.36,3.25-1.08.78-.72,1.32-1.69,1.63-2.89h1.9c-.4,1.77-1.14,3.13-2.21,4.1-1.07.96-2.6,1.45-4.56,1.45-1.22,0-2.28-.22-3.18-.65-.89-.43-1.62-1.02-2.18-1.78-.56-.75-.98-1.63-1.25-2.62s-.41-2.04-.41-3.15c0-1.02.14-2.03.41-3.01s.69-1.86,1.25-2.64c.56-.77,1.29-1.39,2.18-1.87.89-.47,1.95-.71,3.18-.71s2.31.25,3.19.75c.88.5,1.6,1.16,2.15,1.97s.95,1.75,1.19,2.8c.24,1.05.34,2.12.3,3.21h-11.95c0,.68.09,1.39.29,2.12Zm9.39-5.8c-.23-.66-.56-1.25-.98-1.76-.42-.51-.93-.92-1.53-1.23-.6-.31-1.29-.47-2.05-.47s-1.48.16-2.08.47c-.6.31-1.11.72-1.53,1.23-.42.51-.76,1.1-1.01,1.78-.25.67-.42,1.36-.5,2.06h10.06c-.02-.72-.15-1.42-.38-2.08Z"/><path class="cls-1" d="m174.64,127.17v-2.95h-.06c-.2.5-.5.96-.89,1.38-.39.42-.84.78-1.34,1.07-.5.29-1.04.52-1.61.68-.57.16-1.14.24-1.7.24-1.18,0-2.21-.22-3.09-.65-.87-.43-1.6-1.02-2.18-1.78-.58-.75-1.01-1.63-1.29-2.62s-.42-2.04-.42-3.15.14-2.15.42-3.15.71-1.87,1.29-2.62c.58-.75,1.31-1.35,2.18-1.79.87-.44,1.9-.66,3.09-.66.58,0,1.15.07,1.7.21.55.14,1.07.36,1.55.65.48.29.91.65,1.28,1.07s.66.91.86,1.48h.06v-8.91h1.9v21.5h-1.75Zm-10.4-5.37c.19.79.49,1.5.9,2.12.41.62.94,1.13,1.58,1.52.64.39,1.41.59,2.32.59,1,0,1.85-.2,2.54-.59.69-.39,1.25-.9,1.69-1.52.43-.62.74-1.33.93-2.12s.29-1.59.29-2.39-.1-1.6-.29-2.39c-.19-.79-.5-1.5-.93-2.12-.43-.62-.99-1.13-1.69-1.52-.69-.39-1.54-.59-2.54-.59-.9,0-1.68.2-2.32.59-.64.39-1.17.9-1.58,1.52-.41.62-.71,1.33-.9,2.12-.19.79-.29,1.59-.29,2.39s.1,1.6.29,2.39Z"/><path class="cls-1" d="m181.92,105.67v3.04h-1.9v-3.04h1.9Zm0,5.96v15.54h-1.9v-15.54h1.9Z"/><path class="cls-1" d="m195.08,113.77c-.7-.66-1.69-.99-2.95-.99-.9,0-1.7.19-2.38.57-.68.38-1.25.88-1.7,1.51-.45.62-.79,1.33-1.02,2.12s-.35,1.6-.35,2.42.12,1.63.35,2.42.57,1.5,1.02,2.12c.45.62,1.02,1.12,1.7,1.51.68.38,1.48.57,2.38.57.58,0,1.13-.11,1.66-.33.52-.22.98-.53,1.38-.92.4-.39.73-.86.99-1.4.26-.54.42-1.13.48-1.78h1.9c-.26,1.89-.95,3.36-2.08,4.41-1.12,1.05-2.57,1.58-4.34,1.58-1.19,0-2.23-.22-3.15-.65-.91-.43-1.68-1.02-2.3-1.76-.62-.74-1.09-1.61-1.42-2.6-.32-.99-.48-2.05-.48-3.18s.16-2.18.48-3.18c.32-.99.79-1.86,1.42-2.6.62-.74,1.39-1.34,2.3-1.78.91-.44,1.96-.66,3.15-.66,1.67,0,3.08.44,4.23,1.32,1.15.88,1.84,2.22,2.06,4h-1.9c-.26-1.16-.74-2.08-1.45-2.74Z"/><path class="cls-1" d="m201.59,114.04c.32-.66.76-1.2,1.31-1.63.55-.42,1.2-.73,1.94-.93.74-.2,1.57-.3,2.47-.3.68,0,1.37.07,2.05.2.68.13,1.29.38,1.84.74s.98.87,1.33,1.52c.34.65.51,1.5.51,2.54v8.25c0,.76.37,1.14,1.11,1.14.22,0,.42-.04.6-.12v1.6c-.22.04-.42.07-.59.09s-.39.03-.65.03c-.48,0-.87-.07-1.16-.2-.29-.13-.52-.32-.68-.56-.16-.24-.27-.53-.32-.86-.05-.33-.08-.7-.08-1.1h-.06c-.34.5-.69.95-1.04,1.34-.35.39-.74.72-1.17.98-.43.26-.92.46-1.48.6-.55.14-1.21.21-1.97.21-.72,0-1.4-.09-2.03-.26-.63-.17-1.18-.44-1.66-.81-.47-.37-.84-.84-1.11-1.41-.27-.57-.41-1.25-.41-2.03,0-1.08.24-1.93.72-2.54.48-.61,1.12-1.08,1.91-1.4.79-.32,1.69-.55,2.68-.68.99-.13,2-.26,3.03-.38.4-.04.75-.09,1.05-.15.3-.06.55-.17.75-.32.2-.15.36-.36.47-.62.11-.26.17-.6.17-1.02,0-.64-.11-1.17-.32-1.58-.21-.41-.5-.74-.87-.98-.37-.24-.8-.41-1.29-.5-.49-.09-1.02-.14-1.58-.14-1.2,0-2.19.29-2.95.86-.76.57-1.16,1.49-1.2,2.76h-1.9c.06-.9.25-1.69.57-2.35Zm9.49,4.64c-.12.22-.35.38-.69.48-.34.1-.64.17-.9.21-.8.14-1.63.27-2.48.38-.85.11-1.63.28-2.33.5-.7.22-1.28.54-1.73.95-.45.41-.68,1-.68,1.76,0,.48.1.91.29,1.28.19.37.45.69.77.96.32.27.69.48,1.11.62.42.14.85.21,1.29.21.72,0,1.42-.11,2.08-.33.66-.22,1.24-.54,1.73-.96.49-.42.88-.93,1.17-1.54.29-.6.44-1.28.44-2.05v-2.47h-.06Z"/></g></svg>