<?xml version="1.0" encoding="UTF-8"?><svg id="Layer_1" xmlns="http://www.w3.org/2000/svg" viewBox="0 0 320 240"><defs><style>.cls-1{fill:#225495;}.cls-1,.cls-2{fill-rule:evenodd;stroke-width:0px;}.cls-2{fill:#fff;}</style></defs><g id="De_Longhi_Appliances_SRL"><path id="path3070" class="cls-1" d="m233.49,142.57c19.67,0,35.61-15.94,35.61-35.61s-15.95-35.61-35.61-35.61H86.51c-19.67,0-35.61,15.95-35.61,35.61s15.94,35.61,35.61,35.61h146.99Z"/><path id="path3074" class="cls-2" d="m232.94,138.31c17.3,0,31.32-14.02,31.32-31.32s-14.02-31.32-31.32-31.32H86.92c-17.3,0-31.32,14.02-31.32,31.32s14.02,31.32,31.32,31.32h146.02Z"/><path id="path3078" class="cls-1" d="m233.11,131.7c13.67,0,24.75-11.08,24.75-24.75s-11.08-24.75-24.75-24.75H87.15c-13.67,0-24.75,11.08-24.75,24.75s11.08,24.75,24.75,24.75h145.95Z"/><path id="path3082" class="cls-2" d="m86.6,96.36h.71c1.96,0,2.57.71,2.57,2.81v10.93c0,2.1-.61,2.81-2.57,2.81h-.71v-16.55Zm-10.19-6.33v5.15c1.05.44,1.12,1.29,1.15,2.3v14.11c-.03.98-.14,1.86-1.15,2.3v5.15h12.79c2.74,0,5.31-.17,7.38-2.13,2.2-2.06,2.34-4.26,2.34-7.11v-10.86c0-2.77-.24-5.41-2.61-7.27-2.06-1.59-4.91-1.63-7.38-1.63h-12.52Z"/><path id="path3086" class="cls-2" d="m112.29,105.23h-3.11v-.81c0-.85.13-2.17,1.56-2.17s1.56,1.32,1.56,2.17v.81Zm-11.1,6.02c0,2.57.1,4.94,2.33,6.6,1.76,1.32,5.04,1.86,8.29,1.63,3.28-.24,6.57-1.22,8.32-2.74v-5.35h-7.98v.78c0,1.08-.1,2.33-1.49,2.33s-1.52-1.39-1.49-2.44v-1.96h10.96v-5.04c.14-5.21-1.79-7.81-9.64-7.78-7.48.03-9.44,2.37-9.31,8.19v5.79Z"/><path id="path3090" class="cls-2" d="m121.97,119.04v-5.15c1.09-.67.98-1.76.98-2.84v-13.03c0-1.08.1-2.17-.98-2.84v-5.15h11v5.15c-1.08.67-.98,1.76-.98,2.84v14.86h.88c2.3,0,2.27-1.39,2.27-3.22v-4.7h7.95v14.08h-21.12Z"/><path id="path3094" class="cls-2" d="m153.14,105.43c0-1.18-.2-3.18,1.52-3.18s1.49,2.03,1.49,3.18v6.16c0,1.15.1,2.91-1.52,2.91s-1.49-1.76-1.49-2.91v-6.16Zm10.99-.07c0-2.71-.17-5.28-2.74-6.83-1.86-1.09-5.11-1.25-7.28-1.25-2.4,0-5.01.2-6.94,1.72-1.99,1.56-2.03,4.06-2.03,6.36v5.55c0,2.81,0,5.42,2.6,7.14,1.86,1.26,4.98,1.43,7.17,1.43,2.44,0,5.28-.2,7.21-1.86,1.93-1.66,1.99-4.33,1.99-6.7v-5.55Z"/><path id="path3098" class="cls-2" d="m174.83,99.03c2.17-1.46,4.06-1.82,5.75-1.76,1.66.06,3.11.61,3.92,1.42,1.46,1.39,1.63,2.95,1.63,4.77v7.99c0,1.05-.1,2.23.95,2.81v4.77h-8.49c-.48-2.17-.44-4.43-.44-6.63v-6.23c0-.14.1-1.12-.24-1.9-.54-.81-1.42-1.42-2.74-.81v7.99c0,1.05-.1,2.23.98,2.81v4.77h-9.95v-4.77c1.05-.61.98-1.59.98-2.67v-6.47c0-1.15.03-1.9-.98-2.64v-4.77h8.63v1.32Z"/><path id="path3102" class="cls-2" d="m200.27,113.04c-.41.24-.98.37-1.42.37-1.63,0-1.63-1.86-1.63-3.01v-4.7c0-1.22,0-2.64,1.59-2.64.51,0,1.05.17,1.45.44v9.54Zm8.97-15.33h-8.76v1.22c-1.52-1.15-3.38-1.65-5.28-1.65-4.77,0-5.95,2.91-5.95,7.54v8.02c0,4.67,2.3,6.64,6.33,6.64,1.52,0,3.28-.48,4.7-1.56v1.35c0,1.22.2,3.32-1.56,3.32-.64,0-1.01-.34-1.25-.81-.2-.47-.24-1.08-.24-1.56h-7.41v5.11c3.11,1.72,5.79,2.26,9.34,2.26,2.43,0,5.51-.31,7.34-2.09,1.86-1.8,1.76-5.04,1.76-7.45v-12.93c0-1.08-.07-2,.98-2.64v-4.77Z"/><path id="path3106" class="cls-2" d="m220.41,98.66c1.83-1.09,3.72-1.46,5.41-1.39,1.66.06,3.11.61,3.93,1.42,1.45,1.39,1.62,2.95,1.62,4.77v7.99c0,1.05-.1,2.23.95,2.81v4.77h-8.49c-.48-2.17-.44-4.43-.44-6.63v-6.23c0-.14.1-1.12-.24-1.9-.54-.81-1.42-1.42-2.74-.81v7.99c0,1.05-.1,2.23.98,2.81v4.77h-9.95v-4.77c1.05-.61.98-1.59.98-2.67v-13.98c.03-1.08.1-2.24-1.01-2.81v-4.77h9v8.63Z"/><path id="path3110" class="cls-2" d="m243.22,111.45c0,1.08-.1,2.17,1.01,2.81v4.77h-9.98v-4.77c1.05-.64.98-1.59.98-2.67v-6.3c0-1.08.1-2.17-.98-2.81v-4.77h8.97v13.74Zm-8.63-18.44c0-2.3,2.37-3.25,4.34-3.25s4.3,1.09,4.3,3.39-2.27,3.28-4.23,3.28c-2.09,0-4.4-1.01-4.4-3.42Z"/><path id="path3114" class="cls-2" d="m102.21,93.29h17.21v1.49h-17.21v-1.49Z"/><path id="path3118" class="cls-1" d="m250.75,152.89c.43.78.35,1.98-.08,3.44l-2.67,7.75h-2.07l2.33-6.81.51-1.55c.09-.52.18-.95.09-1.21-.09-.26-.26-.52-.52-.6-.26-.17-.6-.26-1.12-.26s-1.12.17-1.72.43c-.61.26-1.21.6-1.9,1.03l-3.01,8.95h-2.07l4.13-11.97h1.98l-.43,1.29c.78-.51,1.55-.95,2.24-1.2.6-.26,1.29-.43,1.98-.43,1.12,0,1.9.34,2.32,1.12h0Zm-20.32,9.82c1.12,0,2.07-.34,2.84-1.12.78-.78,1.46-1.98,2.07-3.53.51-1.55.6-2.67.26-3.44-.26-.78-.95-1.12-1.98-1.12-1.12,0-2.07.34-2.84,1.12-.86.78-1.55,1.9-2.07,3.44-.52,1.55-.61,2.67-.26,3.44.26.78.95,1.21,1.98,1.21Zm7.06-9.3c.61,1.12.61,2.67-.08,4.65-.69,2.07-1.72,3.62-3.1,4.74-1.29,1.11-2.84,1.63-4.48,1.63s-2.76-.6-3.36-1.72c-.6-1.12-.52-2.67.17-4.65.69-1.98,1.73-3.53,3.1-4.65,1.29-1.12,2.84-1.63,4.48-1.63s2.67.52,3.27,1.63Zm-12.05-1.29l-4.13,11.97h-1.98l4.05-11.97h2.07Zm.78-2.07h-2.33l.78-2.07h2.24l-.69,2.07Zm-11.19,2.07l1.2-3.53h1.98l-1.12,3.53h3.7l-.6,1.64h-3.7l-1.98,5.68-.43,1.46-.09.95c.09.26.17.43.43.52.26.09.61.17,1.04.17l1.03-.08.77-.26h.09l-.6,1.81-1.29.26-1.04.08c-1.12,0-1.89-.35-2.32-.95-.43-.6-.34-1.63.09-3.01l2.32-6.63h-1.38l.52-1.64h1.38Zm-11.88,6.2c-.6.17-1.12.43-1.55.77-.43.35-.78.78-1.03,1.38-.26.69-.17,1.21.09,1.55.26.34.69.51,1.47.51.6,0,1.29-.08,1.89-.35.61-.26,1.21-.6,1.81-1.03l1.12-3.36-1.9.17-1.89.35Zm6.29-5.6c.26.26.43.69.51,1.21,0,.6-.08,1.21-.35,1.98l-2.76,8.18h-2.07l.43-1.29-.78.51-1.03.52-1.21.43-1.46.17c-.43,0-.86-.09-1.29-.26-.35-.18-.6-.43-.86-.78s-.34-.78-.34-1.21c-.09-.51,0-1.03.17-1.55.26-.86.69-1.55,1.29-2.15.51-.6,1.2-1.03,2.15-1.38.78-.35,1.64-.6,2.59-.69l3.02-.26.17-.34c.17-.43.26-.86.17-1.12-.08-.34-.17-.6-.34-.69-.26-.17-.52-.26-.86-.34l-1.12-.09-1.72.17-2.07.6h-.17l.69-1.98,1.73-.43,2.15-.17,2.07.17c.52.17.95.43,1.29.77h0Zm-9.47-.6l-8.61,11.97h-1.81l-.43-11.97h2.24l.08,9.22,6.46-9.22h2.07Zm-21.52,10.59c1.11,0,2.07-.34,2.84-1.12.78-.78,1.47-1.98,2.07-3.53.52-1.55.61-2.67.26-3.44-.26-.78-.95-1.12-1.98-1.12-1.11,0-2.07.34-2.84,1.12-.86.78-1.55,1.9-2.07,3.44-.51,1.55-.6,2.67-.26,3.44.26.78.95,1.21,1.98,1.21Zm7.06-9.3c.61,1.12.61,2.67-.08,4.65-.69,2.07-1.73,3.62-3.1,4.74-1.29,1.11-2.84,1.63-4.48,1.63s-2.75-.6-3.36-1.72c-.6-1.12-.52-2.67.17-4.65.69-1.98,1.72-3.53,3.1-4.65,1.29-1.12,2.84-1.63,4.48-1.63s2.67.52,3.27,1.63Zm-13.17-.51c.43.78.34,1.98-.09,3.44l-2.67,7.75h-2.07l2.32-6.81.52-1.55c.08-.52.17-.95.08-1.21-.08-.26-.26-.52-.52-.6-.26-.17-.6-.26-1.12-.26s-1.12.17-1.72.43c-.6.26-1.2.6-1.89,1.03l-3.02,8.95h-2.07l4.13-11.97h1.98l-.43,1.29c.78-.51,1.55-.95,2.24-1.2.61-.26,1.29-.43,1.98-.43,1.12,0,1.89.34,2.32,1.12h0Zm-13.43,0c.43.78.34,1.98-.09,3.44l-2.67,7.75h-2.07l2.33-6.81.51-1.55c.09-.52.17-.95.09-1.21-.09-.26-.26-.52-.52-.6-.26-.17-.6-.26-1.12-.26s-1.12.17-1.72.43c-.61.26-1.21.6-1.9,1.03l-3.02,8.95h-2.07l4.14-11.97h1.98l-.43,1.29c.78-.51,1.55-.95,2.24-1.2.6-.26,1.29-.43,1.98-.43,1.12,0,1.9.34,2.33,1.12h0Zm-12.23-.78l-4.13,11.97h-1.98l4.04-11.97h2.07Zm.78-2.07h-2.32l.78-2.07h2.24l-.69,2.07Zm-24.89,7.92c-.43,1.3-.6,2.33-.34,3.02.26.69.86,1.03,1.81,1.03.52,0,1.12-.09,1.72-.35.61-.17,1.21-.43,1.81-.86l2.24-6.54c-.43-.26-.78-.43-1.21-.52l-1.2-.17c-1.03,0-1.98.34-2.84,1.12-.86.78-1.55,1.81-1.98,3.27h0Zm9.99-5.85l-3.62,10.59c-.69,2.07-1.63,3.53-2.84,4.48-1.2.95-2.75,1.47-4.56,1.47l-1.8-.18-1.55-.34.69-2.07h.17l1.29.43.95.26,1.03.09c.6,0,1.21-.09,1.64-.26.51-.17.95-.43,1.29-.69.34-.26.6-.6.78-1.03.26-.35.43-.78.6-1.3l.34-1.03c-.69.43-1.29.78-1.9,1.03-.6.26-1.38.34-2.15.34-1.29,0-2.24-.51-2.67-1.55-.51-1.03-.43-2.5.26-4.39.34-.95.78-1.89,1.29-2.67l1.8-1.98c.61-.52,1.29-.86,1.98-1.12.78-.26,1.46-.43,2.07-.43l1.55.17,1.21.69.26-.52h1.9Zm-14.47.78c.43.78.34,1.98-.09,3.44l-2.67,7.75h-2.07l2.32-6.81.52-1.55c.09-.52.17-.95.09-1.21-.09-.26-.26-.52-.52-.6-.26-.17-.6-.26-1.12-.26s-1.12.17-1.72.43c-.6.26-1.2.6-1.89,1.03l-3.02,8.95h-2.07l4.13-11.97h1.98l-.43,1.29c.78-.51,1.55-.95,2.24-1.2.6-.26,1.29-.43,1.98-.43,1.12,0,1.89.34,2.32,1.12h0Zm-12.23-.78l-4.13,11.97h-1.98l4.05-11.97h2.07Zm.78-2.07h-2.32l.78-2.07h2.24l-.69,2.07Zm-5.51,2.07l-8.61,11.97h-1.8l-.43-11.97h2.24l.09,9.22,6.46-9.22h2.07Zm-13.52,0l-4.14,11.97h-1.98l4.04-11.97h2.07Zm.77-2.07h-2.32l.78-2.07h2.24l-.69,2.07Zm-8.95,12.14l-.6,1.9h-9.3l5.43-16.02h2.15l-4.83,14.12h7.15Z"/></g></svg>