<?xml version="1.0" encoding="UTF-8"?><svg id="Layer_1" xmlns="http://www.w3.org/2000/svg" viewBox="0 0 320 240"><defs><style>.cls-1{fill:#2d2e89;stroke-width:0px;}</style></defs><path class="cls-1" d="m110.81,130.13c7.87,0,12.66-4.51,12.66-12.18s-4.75-12.18-12.66-12.18h-8.36v24.32h8.36v.04Zm-.25-28.59c11.06,0,17.66,6.15,17.66,16.45s-6.56,16.45-17.66,16.45h-10.24c-1.56,0-2.54-.94-2.54-2.5v-27.89c0-1.56.98-2.5,2.54-2.5h10.24Z"/><path class="cls-1" d="m136.79,120.53h15.69c-.82-3.73-3.77-6.19-7.83-6.19s-7.05,2.46-7.87,6.19h0Zm19.83,1.15c0,1.72-1.02,2.71-2.75,2.71h-17.21c.7,4.02,3.73,6.69,8.19,6.69,2.91,0,5.16-1.15,6.56-2.79.45-.49.98-.78,1.68-.78,1.23,0,2.05.82,2.05,2.01,0,.45-.16.86-.45,1.27-2.21,2.62-5.7,4.27-9.83,4.27-7.62,0-12.7-4.96-12.7-12.3s5.04-12.3,12.46-12.3c6.92,0,12,4.92,12,11.2v.04-.02Z"/><path class="cls-1" d="m197.26,120.81v11.57c0,1.44-.78,2.3-2.13,2.3s-2.17-.9-2.17-2.3v-11.07c0-4.55-1.93-6.97-5.53-6.97s-6.06,2.95-6.06,7.75v10.29c0,1.44-.78,2.3-2.17,2.3-1.27,0-2.09-.9-2.09-2.3v-11.07c0-4.55-1.93-6.97-5.57-6.97s-6.06,2.95-6.06,7.75v10.29c0,1.44-.78,2.3-2.17,2.3-1.31,0-2.09-.9-2.09-2.3v-19.36c0-1.48.78-2.34,2.09-2.34s2.17.86,2.17,2.34v.57h.08c1.52-2.09,3.97-3.24,6.97-3.24,3.48,0,5.98,1.44,7.33,4.06h.08c1.64-2.58,4.42-4.06,8.28-4.06,6.06.04,9.06,3.65,9.06,10.46h-.02Z"/><path class="cls-1" d="m224.8,113.02v19.48c0,7.26-4.47,11.61-11.76,11.61-4.38,0-7.95-1.23-9.92-3.77-.25-.33-.45-.82-.45-1.35,0-1.19.82-2.05,2.09-2.05.7,0,1.07.25,1.56.74,1.6,1.6,3.69,2.5,6.56,2.5,4.75,0,7.58-2.83,7.58-7.46v-2.05h-.08c-1.76,2.42-4.59,3.77-8.28,3.77-6.47,0-10-3.81-10-10.95v-10.46c0-1.48.82-2.34,2.17-2.34s2.09.86,2.09,2.34v10.01c0,4.84,2.33,7.42,6.76,7.42s7.33-3.16,7.33-8.29v-9.15c0-1.48.82-2.34,2.13-2.34,1.43,0,2.21.86,2.21,2.34h0Z"/><path class="cls-1" d="m240.33,120.49c7.79.08,10.53,2.26,10.53,7.1s-3.81,7.42-10.28,7.42c-4.96,0-8.2-.98-10.49-3.12-.41-.41-.66-.94-.66-1.52,0-1.23.82-2.05,1.97-2.05.53,0,1.07.25,1.56.62,1.72,1.48,4.26,2.26,7.29,2.26,3.97,0,6.31-1.39,6.31-3.69,0-2.05-1.52-2.91-6.68-2.95-7.46-.04-10.2-2.05-10.2-6.69s3.97-7.51,10.24-7.51c4.01,0,6.8.82,9.05,2.71.53.49.78,1.03.78,1.68,0,1.31-.82,2.17-2.01,2.17-.49,0-.94-.16-1.27-.45-1.84-1.48-3.93-2.21-6.27-2.21-3.81,0-6.27,1.44-6.27,3.65.08,1.85,1.47,2.54,6.39,2.58h.01Z"/><path class="cls-1" d="m271.38,130.74c-1.39,2.83-4.18,4.27-7.83,4.27-5.49,0-8.81-3.49-8.81-9.31v-20.43c0-1.44.82-2.3,2.17-2.3s2.09.86,2.09,2.3v5.7h9.3c1.31,0,2.09.78,2.09,2.01s-.78,1.97-2.09,1.97h-9.34v10.87c0,3.28,1.76,5.21,4.75,5.21,2.01,0,3.28-.9,4.26-2.46.33-.49.82-.9,1.68-.9,1.11,0,1.97.82,1.97,2.05,0,.37-.08.74-.25,1.03h0Z"/><path class="cls-1" d="m81.6,119.95c-.12,2.17-.94,4.63-4.96,5.87-6.72,2.09-10.57,6.77-12,8.2-1.8,1.8-3.24,4.31-4.22,7.75-1.23,4.27-2.34,5.78-6.23,5.78-3.24,0-5.82-2.58-5.82-5.78s1.88-5.37,5.78-5.78c9.18-1.03,15.86-7.1,15.86-15.87v-.25c0-8.78-6.68-14.85-15.86-15.87-3.89-.41-5.78-2.58-5.78-5.78s2.58-5.78,5.78-5.78c3.89,0,5.7,2.21,6.31,5.78.49,2.95,2.34,5.95,4.14,7.75,1.48,1.44,5.29,6.11,12,8.2,4.02,1.27,4.83,3.69,4.96,5.87v-.08h.04Z"/><path class="cls-1" d="m52.59,125.82h1.23c3.11,0,5.82-2.34,6.02-5.46.2-3.36-2.46-6.15-5.78-6.15,0,0-1.27-.04-1.6,0-1.31.12-2.29,1.07-2.46,2.34-.25,1.76-.25,5.04,0,6.73.16,1.39,1.15,2.38,2.58,2.54h0Z"/></svg>