<?xml version="1.0" encoding="UTF-8"?><svg id="Layer_1" xmlns="http://www.w3.org/2000/svg" viewBox="0 0 320 240"><defs><style>.cls-1{fill:#5fc5cf;}.cls-1,.cls-2{stroke-width:0px;}.cls-2{fill:#38bbcc;}</style></defs><g id="E-nome"><path class="cls-1" d="m51.66,161.18h-1.48v-14.57h1.48v14.57Z"/><path class="cls-1" d="m61.66,161.18h-1.48v-13.25h-4.88v-1.32h11.24v1.32h-4.88v13.25Z"/><path class="cls-1" d="m83.35,148.95c-.32-.44-.72-.79-1.21-1.06-.49-.27-1.09-.4-1.79-.4-.36,0-.72.05-1.09.16-.37.11-.71.28-1.01.5-.3.23-.55.51-.73.85-.19.34-.28.75-.28,1.21s.09.85.27,1.15c.18.3.41.56.71.77.29.21.63.39,1.01.53s.77.27,1.18.41c.51.16,1.02.34,1.53.54s.98.44,1.39.75c.41.31.75.7,1.01,1.17.26.47.39,1.07.39,1.8s-.14,1.36-.42,1.88c-.28.53-.64.96-1.08,1.31-.44.34-.95.6-1.52.76-.57.16-1.14.25-1.72.25-.44,0-.88-.04-1.32-.13-.44-.09-.86-.22-1.26-.4-.4-.18-.77-.4-1.11-.68-.34-.27-.65-.59-.91-.95l1.28-.95c.32.52.76.96,1.33,1.31.57.35,1.24.52,2.01.52.37,0,.75-.06,1.13-.17.38-.12.73-.3,1.04-.54.31-.24.56-.53.76-.88.2-.35.3-.76.3-1.22,0-.51-.1-.93-.3-1.27-.2-.34-.46-.62-.79-.84-.33-.23-.71-.42-1.13-.57-.43-.15-.87-.3-1.34-.45-.48-.15-.95-.32-1.42-.51-.47-.19-.89-.44-1.26-.75-.37-.31-.67-.69-.9-1.14s-.34-1.01-.34-1.67c0-.7.14-1.3.42-1.81.28-.51.65-.93,1.1-1.26.45-.33.95-.57,1.5-.72.55-.15,1.09-.23,1.63-.23.99,0,1.83.17,2.53.52s1.23.76,1.58,1.25l-1.17.95Z"/><path class="cls-1" d="m93.67,161.18h-1.48v-13.25h-4.88v-1.32h11.24v1.32h-4.88v13.25Z"/><path class="cls-1" d="m100.85,161.18h-1.63l6.3-14.57h1.44l6.26,14.57h-1.65l-1.61-3.83h-7.53l-1.58,3.83Zm2.14-5.19h6.42l-3.21-7.74-3.21,7.74Z"/><path class="cls-1" d="m118.3,161.18h-1.48v-14.57h4.28c.71,0,1.38.07,1.99.21.61.14,1.14.36,1.58.67.45.31.79.71,1.04,1.2.25.49.37,1.1.37,1.81,0,.54-.1,1.02-.29,1.46-.19.44-.45.82-.78,1.14-.33.32-.72.58-1.17.77-.45.19-.95.32-1.48.37l4.26,6.94h-1.81l-4.03-6.81h-2.47v6.81Zm0-8.09h2.57c1.19,0,2.11-.22,2.76-.65.64-.43.97-1.08.97-1.95,0-.48-.09-.88-.27-1.21-.18-.33-.43-.6-.74-.8-.32-.21-.7-.36-1.15-.45-.45-.1-.95-.14-1.5-.14h-2.63v5.21Z"/><path class="cls-1" d="m135.04,161.18h-1.48v-13.25h-4.88v-1.32h11.24v1.32h-4.88v13.25Z"/><path class="cls-1" d="m150.62,148.95c-.32-.44-.72-.79-1.21-1.06-.49-.27-1.09-.4-1.79-.4-.36,0-.72.05-1.09.16-.37.11-.71.28-1.01.5-.3.23-.55.51-.73.85-.19.34-.28.75-.28,1.21s.09.85.27,1.15c.18.3.41.56.71.77.29.21.63.39,1.01.53.38.14.77.27,1.18.41.51.16,1.02.34,1.53.54.51.19.98.44,1.39.75.41.31.75.7,1.01,1.17s.39,1.07.39,1.8-.14,1.36-.42,1.88c-.28.53-.64.96-1.08,1.31-.44.34-.95.6-1.52.76-.57.16-1.14.25-1.72.25-.44,0-.88-.04-1.32-.13-.44-.09-.86-.22-1.26-.4-.4-.18-.77-.4-1.11-.68-.34-.27-.65-.59-.91-.95l1.28-.95c.32.52.76.96,1.33,1.31.57.35,1.24.52,2.01.52.37,0,.75-.06,1.13-.17.38-.12.73-.3,1.04-.54.31-.24.56-.53.76-.88.2-.35.3-.76.3-1.22,0-.51-.1-.93-.3-1.27-.2-.34-.46-.62-.79-.84-.33-.23-.71-.42-1.13-.57-.43-.15-.87-.3-1.34-.45-.48-.15-.95-.32-1.42-.51-.47-.19-.89-.44-1.26-.75-.37-.31-.67-.69-.9-1.14-.23-.45-.34-1.01-.34-1.67,0-.7.14-1.3.42-1.81.28-.51.65-.93,1.1-1.26.45-.33.95-.57,1.5-.72.55-.15,1.09-.23,1.63-.23.99,0,1.83.17,2.53.52s1.23.76,1.58,1.25l-1.17.95Z"/><path class="cls-1" d="m166.51,159.14h.04l3.64-12.53h1.77l3.64,12.53h.04l3.56-12.53h1.56l-4.3,14.57h-1.73l-3.66-12.51h-.04l-3.66,12.51h-1.73l-4.3-14.57h1.56l3.6,12.53Z"/><path class="cls-1" d="m185.94,161.18h-1.48v-14.57h1.48v14.57Z"/><path class="cls-1" d="m195.94,161.18h-1.48v-13.25h-4.88v-1.32h11.24v1.32h-4.88v13.25Z"/><path class="cls-1" d="m204.46,146.61h1.48v6.32h7.94v-6.32h1.48v14.57h-1.48v-6.9h-7.94v6.9h-1.48v-14.57Z"/><path class="cls-1" d="m231.82,161.18h-1.48v-6.28l-5.45-8.29h1.85l4.38,7.06,4.43-7.06h1.73l-5.45,8.29v6.28Z"/><path class="cls-1" d="m254.58,153.89c0,1.11-.19,2.13-.58,3.07-.38.93-.92,1.74-1.59,2.42-.68.68-1.48,1.21-2.41,1.59-.93.38-1.93.58-3.02.58s-2.09-.19-3.02-.58c-.93-.38-1.73-.92-2.41-1.59-.68-.68-1.21-1.49-1.59-2.42-.38-.93-.58-1.96-.58-3.07s.19-2.13.58-3.07c.38-.93.92-1.74,1.59-2.42.68-.68,1.48-1.21,2.41-1.6.93-.38,1.93-.58,3.02-.58s2.09.19,3.02.58c.93.38,1.73.92,2.41,1.6.68.68,1.21,1.49,1.59,2.42.38.93.58,1.96.58,3.07Zm-1.56.01c0-.85-.14-1.66-.41-2.42-.28-.77-.67-1.44-1.19-2.02-.52-.58-1.16-1.04-1.9-1.39-.75-.34-1.59-.51-2.52-.51s-1.77.17-2.52.51c-.75.34-1.38.8-1.9,1.39-.52.58-.92,1.26-1.19,2.02-.27.77-.41,1.58-.41,2.42s.14,1.66.41,2.42c.27.77.67,1.44,1.19,2.01.52.58,1.16,1.03,1.9,1.38.75.34,1.59.51,2.52.51s1.77-.17,2.52-.51c.75-.34,1.38-.8,1.9-1.38.52-.58.92-1.25,1.19-2.01.27-.77.41-1.58.41-2.42Z"/><path class="cls-1" d="m264.5,161.55c-1.1,0-2-.19-2.7-.57-.7-.38-1.26-.85-1.67-1.43-.41-.58-.7-1.2-.85-1.88-.16-.68-.24-1.32-.24-1.92v-9.14h1.48v8.97c0,.59.07,1.16.21,1.72.14.56.36,1.05.67,1.48.31.43.72.78,1.22,1.05.51.27,1.13.4,1.87.4s1.37-.13,1.87-.4c.51-.27.92-.62,1.22-1.05.31-.43.53-.93.67-1.48.14-.56.21-1.13.21-1.72v-8.97h1.48v9.14c0,.6-.08,1.25-.24,1.92-.16.68-.44,1.31-.85,1.88-.41.58-.97,1.05-1.68,1.43-.71.38-1.6.57-2.69.57Z"/><path class="cls-1" d="m52.51,117.74h23.01v2.64h-25.48v-35.51h24.87v2.64h-22.41v30.23Zm7.35-16.33h21.28v2.07h-21.28v-2.07Z"/><path class="cls-1" d="m246.62,117.74h23.01v2.64h-24.9v-35.51h24.3v2.64h-22.41v13.9h20.63v2.07h-20.63v14.26Z"/><path class="cls-1" d="m118.1,115.11h.1v-30.24h2.47v35.51h-1.65l-24.66-30.54h-.1v30.54h-2.47v-35.51h1.65l24.66,30.24Z"/><path class="cls-1" d="m209.67,105.68h.05l14.74-20.81h2.09v35.51h-2.47v-30.84h-.1l-13.98,18.84h-.76l-13.41-18.84h-.1v30.84h-2.47v-35.51h2.09l14.32,20.81Z"/><circle class="cls-1" cx="156.54" cy="102.99" r="24.54"/><path class="cls-2" d="m145.12,109.71c-1.16-1.97-1.83-4.27-1.83-6.72,0-7.32,5.93-13.25,13.25-13.25s13.25,5.93,13.25,13.25c0,5.72-3.62,10.59-8.7,12.45l-.81-1.69c-1.17.41-2.43.63-3.74.63-4.09,0-7.68-2.16-9.69-5.4l-1.73.73Z"/></g></svg>