<?xml version="1.0" encoding="UTF-8"?><svg id="Layer_1" xmlns="http://www.w3.org/2000/svg" viewBox="0 0 320 240"><defs><style>.cls-1,.cls-2{stroke-width:0px;}.cls-2{fill:#fdd900;}</style></defs><path class="cls-1" d="m251.86,97.23v8.44c-.54,0-1.04,0-1.54,0-7.54,0-15.08-.03-22.62.03-1.56.01-3.17.15-4.65.57-2.75.78-3.98,3.2-3.6,6.49.29,2.42,2.05,4.05,4.86,4.16,3.36.13,6.73.02,10.09.1,3.27.08,6.57.05,9.81.46,6.1.78,8.94,3.77,9.8,9.9.42,2.97.3,5.93-.6,8.81-1.48,4.77-5.06,7.05-9.71,7.93-1.75.33-3.55.53-5.33.54-8.86.05-17.72.03-26.58.03-.25,0-.51-.02-.87-.04v-8.34c.48-.02.97-.06,1.46-.06,7.71,0,15.42.02,23.13-.02,1.56,0,3.16-.15,4.68-.49,2.45-.54,3.53-2.15,3.53-4.88,0-2.89-1-4.45-3.47-5.05-1.19-.29-2.44-.41-3.66-.43-4.22-.05-8.44.06-12.65-.06-2.11-.06-4.26-.31-6.31-.81-4.96-1.22-7.74-4.49-8.46-9.52-.41-2.85-.35-5.68.35-8.46,1.37-5.49,5.3-8.05,10.6-8.89,1.76-.28,3.56-.43,5.34-.44,8.43-.05,16.87-.02,25.3-.02.33,0,.67.04,1.1.06Z"/><path class="cls-1" d="m154.64,97.16v8.31c-.48,0-.92,0-1.37,0-4.9,0-9.8-.03-14.69.02-1.35.01-2.74.09-4.06.37-4.17.9-6.66,3.76-7.35,8.26-.11.71-.18,1.43-.28,2.3h27.71v8.33h-27.49c-1.48,5.78,2.63,11.25,8.79,11.51,5.7.24,11.41.12,17.12.16.5,0,1.01,0,1.6,0v8.19c-.33.03-.69.08-1.06.08-5.66,0-11.33.05-16.99-.03-2.12-.03-4.29-.14-6.34-.63-7.82-1.86-12.31-7.07-13.94-14.73-1.34-6.31-1.12-12.66.73-18.87,2.27-7.62,7.64-11.68,15.37-12.81,2.06-.3,4.15-.41,6.23-.44,4.85-.06,9.71-.02,14.57-.02.46,0,.91,0,1.44,0Z"/><path class="cls-1" d="m157.01,144.69c2.46-5.78,4.83-11.35,7.19-16.92,4.18-9.83,8.36-19.65,12.51-29.5.35-.83.76-1.15,1.68-1.13,2.81.06,5.62-.01,8.43.06.46.01,1.15.4,1.32.79,6.62,15.33,13.18,30.68,19.75,46.04.06.15.09.32.2.67-1.63,0-3.18,0-4.72,0-1.79,0-3.58-.04-5.37.02-.77.03-1.1-.26-1.36-.96-1.16-3.1-2.41-6.16-3.54-9.26-.32-.88-.78-1.13-1.67-1.12-6.13.04-12.27.04-18.4,0-.89,0-1.27.3-1.56,1.1-1.12,3.11-2.28,6.21-3.49,9.28-.16.39-.7.89-1.08.9-3.23.07-6.47.04-9.9.04Zm25.27-37.67c-.1,0-.2,0-.31,0-2.25,5.91-4.5,11.81-6.78,17.78h14.13c-2.38-6.01-4.71-11.9-7.04-17.79Z"/><path class="cls-1" d="m261.87,97.22h10.27v47.39h-10.27v-47.39Z"/><path class="cls-1" d="m100.66,109.39c.54.54.54,1.42,0,1.96l-9.18,9.19c-1.15,1.14-2.61,1.8-4.12,1.96-2.01.23-4.11-.43-5.64-1.96s-2.19-3.63-1.97-5.65c.16-1.51.82-2.97,1.97-4.11l9.18-9.19c.54-.54,1.43-.54,1.97,0s.54,1.43,0,1.97l-8.69,8.68c-.53.54-.53,1.41,0,1.94s1.37.53,1.9.02l8.72-8.71.03-.03c.54-.51,1.4-.5,1.93.03s.54,1.42,0,1.96l-8.68,8.69c-.54.53-.54,1.4,0,1.94s1.37.52,1.9.02l8.72-8.71.03-.03c.54-.51,1.4-.5,1.93.03Z"/><path class="cls-2" d="m98.26,99.12c11.53,11.53,11.53,30.23,0,41.76-11.53,11.53-30.22,11.53-41.75,0-11.53-11.53-11.53-30.23,0-41.76,11.53-11.53,30.22-11.53,41.75,0Zm2.4,12.23c.54-.54.54-1.42,0-1.96s-1.39-.54-1.93-.03l-.03.03-8.72,8.71c-.53.5-1.38.5-1.9-.02s-.54-1.41,0-1.94l8.68-8.69c.54-.54.54-1.42,0-1.96s-1.39-.54-1.93-.03l-.03.03-8.72,8.71c-.53.51-1.38.5-1.9-.02s-.53-1.4,0-1.94l8.69-8.68c.54-.54.54-1.43,0-1.97s-1.43-.54-1.97,0l-9.18,9.19c-1.15,1.14-1.81,2.6-1.97,4.11-.22,2.02.43,4.11,1.97,5.65s3.63,2.19,5.64,1.96c1.51-.16,2.97-.82,4.12-1.96l9.18-9.19Zm-9.04,26.58c1.07-1.06,1.07-2.8,0-3.86l-18.68-18.68c2-3.68,1.46-8.37-1.65-11.48-3.78-3.78-9.91-3.78-13.69,0s-3.78,9.91,0,13.69c3.11,3.11,7.8,3.66,11.48,1.65l5.14,5.14-9.99,10c-1,1-1,2.63,0,3.63,1,1.01,2.64,1.01,3.64,0l9.99-9.99,9.9,9.9c1.06,1.07,2.8,1.07,3.86,0Z"/><path class="cls-1" d="m91.62,134.07c1.07,1.06,1.07,2.8,0,3.86-1.06,1.07-2.8,1.07-3.86,0l-9.9-9.9-9.99,9.99c-1,1.01-2.64,1.01-3.64,0-1-1-1-2.63,0-3.63l9.99-10-5.14-5.14c-3.68,2.01-8.37,1.46-11.48-1.65-3.78-3.78-3.78-9.91,0-13.69s9.91-3.78,13.69,0c3.11,3.11,3.65,7.8,1.65,11.48l18.68,18.68Z"/></svg>