<svg id="Layer_1" data-name="Layer 1" xmlns="http://www.w3.org/2000/svg" viewBox="0 0 320 240">
  <g>
    <rect x="79.88" y="39.93" width="160.15" height="160.15" fill="#fcd900"/>
    <g>
      <path d="M186,68.24a36.81,36.81,0,1,1-52,0A36.82,36.82,0,0,1,186,68.24Zm3,15.25A1.73,1.73,0,0,0,186.57,81l0,0L175.66,91.91a1.7,1.7,0,0,1-2.37-2.45l10.82-10.83a1.73,1.73,0,0,0-2.4-2.48l0,0L170.8,87a1.69,1.69,0,0,1-2.37,0,1.73,1.73,0,0,1,0-2.42l10.83-10.82a1.74,1.74,0,0,0-2.45-2.46L165.36,82.78a8.47,8.47,0,0,0-2.46,5.12,8.62,8.62,0,0,0,14.63,7ZM177.7,116.63a3.38,3.38,0,0,0,0-4.81L154.41,88.53a12.07,12.07,0,1,0-4.81,4.81L156,99.75l-12.46,12.47a3.21,3.21,0,1,0,4.54,4.53l12.46-12.46,12.34,12.34A3.38,3.38,0,0,0,177.7,116.63Z"/>
      <g>
        <path d="M193.74,140.88v5h-.91c-4.45,0-8.9,0-13.35,0a10.57,10.57,0,0,0-2.75.34c-1.62.46-2.35,1.89-2.12,3.83a2.73,2.73,0,0,0,2.86,2.45c2,.08,4,0,6,.06s3.88,0,5.79.27c3.61.46,5.28,2.23,5.79,5.85a11.73,11.73,0,0,1-.35,5.2c-.88,2.82-3,4.17-5.74,4.69a17.41,17.41,0,0,1-3.14.31c-5.23,0-10.46,0-15.69,0l-.52,0V164c.28,0,.57,0,.86,0,4.55,0,9.11,0,13.66,0a12.81,12.81,0,0,0,2.76-.29c1.45-.31,2.09-1.27,2.09-2.88s-.59-2.63-2.05-3a9.82,9.82,0,0,0-2.17-.25c-2.48,0-5,0-7.46,0a18,18,0,0,1-3.73-.48,6.21,6.21,0,0,1-5-5.62,12.89,12.89,0,0,1,.2-5c.81-3.24,3.13-4.76,6.26-5.25a20.82,20.82,0,0,1,3.15-.27c5,0,10,0,14.94,0C193.29,140.84,193.48,140.86,193.74,140.88Z"/>
        <path d="M138.34,140.84v4.9h-.81c-2.9,0-5.79,0-8.68,0a11.88,11.88,0,0,0-2.39.23,5.35,5.35,0,0,0-4.34,4.87c-.07.42-.11.84-.17,1.36h16.36v4.91H122.08a5.43,5.43,0,0,0,5.19,6.8c3.37.14,6.74.07,10.11.1h.94v4.83a5.77,5.77,0,0,1-.62.05c-3.34,0-6.69,0-10,0a17.32,17.32,0,0,1-3.74-.37c-4.62-1.1-7.27-4.17-8.23-8.69a22.37,22.37,0,0,1,.43-11.14c1.34-4.5,4.51-6.9,9.08-7.57a28.21,28.21,0,0,1,3.68-.26c2.86,0,5.73,0,8.6,0Z"/>
        <path d="M138.73,168.9c1.46-3.41,2.85-6.7,4.25-10q3.71-8.7,7.39-17.42a.89.89,0,0,1,1-.66c1.66,0,3.32,0,5,0a1.05,1.05,0,0,1,.78.47q5.85,13.57,11.66,27.18a3.27,3.27,0,0,1,.12.39h-2.79c-1.06,0-2.12,0-3.17,0a.7.7,0,0,1-.8-.56c-.69-1.83-1.42-3.64-2.09-5.47a.88.88,0,0,0-1-.66q-5.44,0-10.87,0a.82.82,0,0,0-.92.64c-.66,1.84-1.34,3.67-2.06,5.48a.93.93,0,0,1-.63.54C142.67,168.92,140.76,168.9,138.73,168.9Zm14.93-22.24h-.19l-4,10.5h8.34C156.41,153.61,155,150.14,153.66,146.66Z"/>
        <path d="M198.65,140.88h6.06v28h-6.06Z"/>
      </g>
      <g>
        <path d="M124.35,182.64h-1.07v-7.31l-2.45,7.31h-1l-2.45-7.31v7.31h-1.08v-8.59H118l2.33,7.16,2.34-7.16h1.7Z"/>
        <path d="M130.07,182a3.11,3.11,0,0,1-2.18.79,2.27,2.27,0,0,1-1.52-.51,1.59,1.59,0,0,1-.6-1.29c0-1.45,1.25-2.18,3.76-2.18h.54a5.34,5.34,0,0,0-.07-1,.8.8,0,0,0-.4-.5,2,2,0,0,0-1-.2c-1,0-1.49.35-1.53,1.06H126c.09-1.28,1-1.92,2.69-1.92a3.16,3.16,0,0,1,1.86.48,2.13,2.13,0,0,1,.67,1.86v4h-1.1Zm0-1v-1.37h-.76c-1.6,0-2.4.43-2.4,1.3a.85.85,0,0,0,.35.73,1.58,1.58,0,0,0,1,.26,2.32,2.32,0,0,0,1-.25A2,2,0,0,0,130.07,181Z"/>
        <path d="M137.94,182.64h-1.32l-2-3.16-.69.69v2.47H132.8v-8.59h1.11v4.87l2.4-2.5h1.39l-2.35,2.32Z"/>
        <path d="M141.45,182.79a3,3,0,0,1-2.21-.86,3.89,3.89,0,0,1,0-4.78,2.72,2.72,0,0,1,2.1-.87,2.77,2.77,0,0,1,2.13.85,3.39,3.39,0,0,1,.79,2.4v.27h-4.68a2.42,2.42,0,0,0,.59,1.6,1.8,1.8,0,0,0,1.3.52,1.89,1.89,0,0,0,1-.3,1,1,0,0,0,.49-.84h1.14a2,2,0,0,1-.87,1.48A3,3,0,0,1,141.45,182.79Zm1.62-3.86a2.24,2.24,0,0,0-.6-1.34,1.58,1.58,0,0,0-1.15-.45,1.6,1.6,0,0,0-1.13.44,2.24,2.24,0,0,0-.61,1.35Z"/>
        <path d="M154.12,182.64h-5.31v-8.59H150v7.57h4.17Z"/>
        <path d="M156.45,175.24h-1.11v-1.19h1.11Zm0,7.4h-1.11v-6.22h1.11Z"/>
        <path d="M159.37,177.29v5.35h-1.1v-5.35h-.92v-.87h.92v-.55c0-1.31.58-2,1.74-2a4.15,4.15,0,0,1,.82.07v1a3.6,3.6,0,0,0-.66-.05.75.75,0,0,0-.6.22,1.14,1.14,0,0,0-.2.78v.54h1.18v.87Z"/>
        <path d="M164.05,182.79a2.93,2.93,0,0,1-2.2-.86,3.29,3.29,0,0,1-.83-2.4,3.33,3.33,0,0,1,.8-2.38,3,3,0,0,1,4.23,0,3.39,3.39,0,0,1,.8,2.4v.27h-4.69a2.42,2.42,0,0,0,.6,1.6,1.79,1.79,0,0,0,1.29.52,1.89,1.89,0,0,0,1-.3,1,1,0,0,0,.49-.84h1.14a2.07,2.07,0,0,1-.87,1.48A3.07,3.07,0,0,1,164.05,182.79Zm1.63-3.86a2.24,2.24,0,0,0-.6-1.34,1.62,1.62,0,0,0-1.15-.45,1.65,1.65,0,0,0-1.14.44,2.18,2.18,0,0,0-.6,1.35Z"/>
        <path d="M177.82,182.64h-6.4v-8.59h6.2v1h-5.07v2.62h4.74v1h-4.74v2.91h5.27Z"/>
        <path d="M183.21,182a3.08,3.08,0,0,1-2.17.79,2.28,2.28,0,0,1-1.53-.51,1.61,1.61,0,0,1-.59-1.29c0-1.45,1.25-2.18,3.75-2.18h.54a4.55,4.55,0,0,0-.07-1,.82.82,0,0,0-.39-.5,2.08,2.08,0,0,0-1-.2c-1,0-1.49.35-1.52,1.06h-1.1c.08-1.28,1-1.92,2.68-1.92a3.12,3.12,0,0,1,1.86.48,2.13,2.13,0,0,1,.67,1.86v4h-1.1Zm0-1v-1.37h-.75c-1.61,0-2.41.43-2.41,1.3a.85.85,0,0,0,.35.73,1.62,1.62,0,0,0,.95.26,2.33,2.33,0,0,0,1.06-.25A1.89,1.89,0,0,0,183.21,181Z"/>
        <path d="M188.17,182.79q-2.55,0-2.67-2h1.11c0,.76.52,1.14,1.55,1.14a1.65,1.65,0,0,0,1-.29.86.86,0,0,0,.36-.71.59.59,0,0,0-.35-.59,8,8,0,0,0-1.45-.45,5,5,0,0,1-1.6-.62,1.31,1.31,0,0,1-.51-1.19,1.57,1.57,0,0,1,.63-1.28,2.59,2.59,0,0,1,1.68-.51c1.63,0,2.46.58,2.5,1.74h-1.1c0-.58-.48-.88-1.32-.88a1.82,1.82,0,0,0-.92.21.67.67,0,0,0-.37.62.54.54,0,0,0,.28.52,6.72,6.72,0,0,0,1.41.44,5.59,5.59,0,0,1,1.68.63,1.4,1.4,0,0,1,.54,1.26,1.77,1.77,0,0,1-.67,1.41A2.79,2.79,0,0,1,188.17,182.79Z"/>
        <path d="M193.05,175.24H192v-1.19h1.1Zm0,7.4H192v-6.22h1.1Z"/>
        <path d="M197.33,182.79a3,3,0,0,1-2.21-.86,3.89,3.89,0,0,1,0-4.78,2.72,2.72,0,0,1,2.1-.87,2.77,2.77,0,0,1,2.13.85,3.39,3.39,0,0,1,.79,2.4v.27h-4.68a2.42,2.42,0,0,0,.59,1.6,1.8,1.8,0,0,0,1.3.52,1.89,1.89,0,0,0,1-.3,1,1,0,0,0,.49-.84H200a2,2,0,0,1-.87,1.48A3,3,0,0,1,197.33,182.79Zm1.63-3.86a2.24,2.24,0,0,0-.61-1.34,1.58,1.58,0,0,0-1.15-.45,1.6,1.6,0,0,0-1.13.44,2.24,2.24,0,0,0-.61,1.35Z"/>
        <path d="M204.59,177.43a2.39,2.39,0,0,0-.68-.07,1.75,1.75,0,0,0-1.45.88v4.4h-1.1v-6.22h1.1v.87a2,2,0,0,1,1.62-1,3.14,3.14,0,0,1,.51.05Z"/>
      </g>
    </g>
  </g>
</svg>
