<?xml version="1.0" encoding="UTF-8"?><svg id="Layer_1" xmlns="http://www.w3.org/2000/svg" viewBox="0 0 320 240"><defs><style>.cls-1{fill:none;}.cls-1,.cls-2,.cls-3{stroke-width:0px;}.cls-2{fill:#363636;}.cls-3{fill:#e52818;}</style></defs><path class="cls-3" d="m215.5,140.96h1.2s2.85,6.56,2.85,6.56h-1.63s-.56-1.39-.56-1.39h-2.55s-.55,1.39-.55,1.39h-1.59s2.83-6.56,2.83-6.56Zm.56,1.91l-.8,2.04h1.6s-.81-2.04-.81-2.04Z"/><path class="cls-3" d="m224.87,142.67c-.14-.17-.32-.31-.52-.4-.21-.09-.45-.14-.72-.14s-.52.05-.75.16c-.23.11-.43.25-.6.44s-.3.41-.4.67c-.1.26-.14.54-.14.84s.05.59.14.85c.1.26.23.48.39.67.17.19.36.33.59.44.23.11.47.16.73.16.3,0,.56-.06.79-.19.23-.12.42-.3.56-.52l1.2.9c-.28.39-.63.68-1.06.86-.43.19-.86.28-1.32.28-.51,0-.99-.08-1.42-.24-.43-.16-.81-.39-1.12-.69-.31-.3-.56-.66-.74-1.09-.18-.43-.26-.9-.26-1.43s.09-1,.26-1.43c.18-.43.42-.79.74-1.09s.69-.53,1.12-.69c.43-.16.9-.24,1.42-.24.19,0,.38.02.58.05s.4.09.59.16c.19.07.38.17.56.3.18.12.34.27.48.45l-1.11.91Z"/><path class="cls-3" d="m231.59,142.67c-.14-.17-.32-.31-.52-.4-.21-.09-.45-.14-.72-.14s-.52.05-.75.16c-.23.11-.43.25-.6.44s-.3.41-.4.67c-.1.26-.14.54-.14.84s.05.59.14.85c.1.26.23.48.39.67.17.19.36.33.59.44.23.11.47.16.73.16.3,0,.56-.06.79-.19.23-.12.42-.3.56-.52l1.2.9c-.28.39-.63.68-1.06.86-.43.19-.86.28-1.32.28-.51,0-.99-.08-1.42-.24-.43-.16-.81-.39-1.12-.69-.31-.3-.56-.66-.74-1.09-.18-.43-.26-.9-.26-1.43s.09-1,.26-1.43c.18-.43.42-.79.74-1.09s.69-.53,1.12-.69c.43-.16.9-.24,1.42-.24.19,0,.38.02.58.05s.4.09.59.16c.19.07.38.17.56.3.18.12.34.27.48.45l-1.11.91Z"/><path class="cls-3" d="m234.09,140.96h4.45v1.33s-3.01,0-3.01,0v1.22h2.84v1.33s-2.84,0-2.84,0v1.33h3.18v1.33s-4.62,0-4.62,0v-6.56Z"/><path class="cls-3" d="m240.3,140.96h1.44v5.22h2.68v1.33s-4.12,0-4.12,0v-6.56Z"/><path class="cls-3" d="m245.65,140.96h4.45v1.33s-3.01,0-3.01,0v1.22h2.84v1.33s-2.84,0-2.84,0v1.33h3.18v1.33s-4.62,0-4.62,0v-6.56Z"/><path class="cls-3" d="m251.81,140.96h2.54c.33,0,.65.03.95.1s.56.17.79.32c.23.15.4.36.54.61.13.26.2.58.2.96,0,.46-.12.86-.36,1.18-.24.32-.59.53-1.06.62l1.67,2.77h-1.73s-1.37-2.62-1.37-2.62h-.71s0,2.62,0,2.62h-1.44v-6.56Zm1.44,2.71h.85c.13,0,.27,0,.41-.01.14,0,.28-.04.39-.08.12-.05.21-.12.29-.22s.12-.24.12-.42c0-.17-.03-.3-.1-.4-.07-.1-.15-.17-.26-.23-.11-.05-.23-.09-.36-.11s-.27-.03-.4-.03h-.94s0,1.49,0,1.49Z"/><path class="cls-3" d="m260.35,140.96h1.2s2.85,6.56,2.85,6.56h-1.63s-.56-1.39-.56-1.39h-2.55s-.55,1.39-.55,1.39h-1.59s2.83-6.56,2.83-6.56Zm.56,1.91l-.8,2.04h1.6s-.81-2.04-.81-2.04Z"/><path class="cls-3" d="m265.85,142.24h-1.87v-1.28s5.19,0,5.19,0v1.28s-1.87,0-1.87,0v5.28s-1.44,0-1.44,0v-5.28Z"/><path class="cls-3" d="m269.93,144.24c0-.52.09-1,.26-1.43.18-.43.42-.79.74-1.09s.69-.53,1.12-.69c.43-.16.9-.24,1.42-.24s.98.08,1.42.24c.43.16.81.39,1.12.69s.56.66.74,1.09c.18.43.26.9.26,1.43s-.09,1-.26,1.43c-.18.43-.42.79-.74,1.09-.31.3-.69.53-1.12.69-.43.16-.9.24-1.42.24s-.99-.08-1.42-.24c-.43-.16-.81-.39-1.12-.69-.31-.3-.56-.66-.74-1.09-.18-.43-.26-.9-.26-1.43Zm1.5,0c0,.31.05.59.14.85.1.26.23.48.41.67s.39.33.64.44.53.16.84.16.59-.05.84-.16.46-.25.64-.44.32-.41.41-.67c.1-.26.14-.54.14-.85s-.05-.58-.14-.84c-.1-.26-.23-.48-.41-.67s-.39-.33-.64-.44-.53-.16-.84-.16-.59.05-.84.16-.46.25-.64.44-.32.41-.41.67c-.1.26-.14.54-.14.84Z"/><path class="cls-3" d="m278.36,140.96h2.54c.33,0,.65.03.95.1s.56.17.79.32c.23.15.4.36.54.61.13.26.2.58.2.96,0,.46-.12.86-.36,1.18-.24.32-.59.53-1.06.62l1.67,2.77h-1.73s-1.37-2.62-1.37-2.62h-.71s0,2.62,0,2.62h-1.44v-6.56Zm1.44,2.71h.85c.13,0,.27,0,.41-.01.14,0,.28-.04.39-.08.12-.05.21-.12.29-.22s.12-.24.12-.42c0-.17-.03-.3-.1-.4-.07-.1-.15-.17-.26-.23-.11-.05-.23-.09-.36-.11s-.27-.03-.4-.03h-.94s0,1.49,0,1.49Z"/><path class="cls-3" d="m194.31,142.52l-1.32,1.16-.79-.91,2.14-1.81h1.3v6.56s-1.33,0-1.33,0v-5Z"/><path class="cls-3" d="m197.81,144.24c0-.39.04-.78.11-1.19s.2-.77.38-1.09c.18-.33.43-.59.75-.8s.72-.31,1.2-.31.89.1,1.2.31.56.47.75.8c.18.33.31.69.38,1.09s.11.8.11,1.19-.04.78-.11,1.19-.2.77-.38,1.09c-.18.33-.43.59-.75.8s-.72.31-1.2.31-.89-.1-1.2-.31-.56-.47-.75-.8c-.18-.33-.31-.69-.38-1.09s-.11-.8-.11-1.19Zm1.39,0c0,.17,0,.38.02.62.02.24.06.47.13.69.07.22.17.41.31.56.14.15.33.23.59.23s.44-.08.58-.23c.14-.15.25-.34.31-.56.07-.22.11-.45.13-.69.02-.24.02-.45.02-.62s0-.38-.02-.62c-.02-.24-.06-.47-.13-.69-.07-.22-.17-.41-.31-.56-.14-.15-.34-.23-.58-.23s-.45.08-.59.23c-.14.15-.24.34-.31.56-.07.22-.11.45-.13.69-.02.24-.02.45-.02.62Z"/><path class="cls-3" d="m205.07,145.11l-1.5-2.09h1.64s.8,1.22.8,1.22l.77-1.22h1.55s-1.46,2.09-1.46,2.09l1.73,2.41h-1.64s-.98-1.5-.98-1.5l-1.06,1.5h-1.62s1.78-2.41,1.78-2.41Z"/><path class="cls-1" d="m252.77,113.24c0-2.57-1.75-4.66-3.91-4.66h-7.47s0,9.32,0,9.32h7.47c2.16,0,3.91-2.09,3.91-4.66Z"/><path class="cls-1" d="m73.63,105.43c-7.07,0-12.81,6.22-12.81,13.86,0,7.64,5.75,13.86,12.81,13.86s12.81-6.22,12.81-13.86-5.75-13.86-12.81-13.86Zm0,26.44v-1.44c5.67,0,10.28-4.99,10.28-11.13,0-6.14-4.61-11.13-10.28-11.13-5.67,0-10.28,4.99-10.28,11.13h-1.44c0-6.94,5.26-12.58,11.73-12.58,6.47,0,11.73,5.64,11.73,12.58s-5.26,12.58-11.73,12.58Z"/><path class="cls-1" d="m191.43,105.95h-11.66s0,26.36,0,26.36h11.66c6.2,0,11.25-5.91,11.25-13.18,0-7.27-5.05-13.18-11.25-13.18Zm9.89,13.18c0,6.3-4.46,11.43-9.94,11.43h-10.26s0-22.86,0-22.86h6.29v1.44s-4.84,0-4.84,0v19.97s8.82,0,8.82,0c4.68,0,8.5-4.48,8.5-9.99h1.44Z"/><path class="cls-1" d="m116.69,94.66c-13,0-23.58,10.58-23.58,23.58s10.58,23.58,23.58,23.58c13,0,23.58-10.58,23.58-23.58s-10.58-23.58-23.58-23.58Zm0,45.98c-12.35,0-22.4-10.05-22.4-22.4,0-12.35,10.05-22.4,22.4-22.4,12.35,0,22.4,10.05,22.4,22.4s-10.05,22.4-22.4,22.4Z"/><path class="cls-1" d="m116.69,97.29c-11.56,0-20.96,9.4-20.96,20.96s9.4,20.96,20.96,20.96c11.56,0,20.96-9.4,20.96-20.96s-9.4-20.96-20.96-20.96Zm-10.08,7.42h1.44v18.54c0,3.85,3.13,6.98,6.98,6.98h2.26c3.85,0,6.98-3.13,6.98-6.98v-18.54s1.44,0,1.44,0v18.54c0,4.64-3.78,8.42-8.42,8.42h-2.26c-4.64,0-8.42-3.78-8.42-8.42v-18.54Zm22.04,18.58c0,6.24-5.07,11.31-11.31,11.31h-2.13c-6.24,0-11.31-5.07-11.31-11.31v-3.99s1.44,0,1.44,0v3.99c0,5.44,4.43,9.87,9.87,9.87h2.13c5.44,0,9.87-4.43,9.87-9.87v-18.58s1.44,0,1.44,0v18.58Z"/><polygon class="cls-2" points="35.85 133.87 37.29 133.87 37.29 105.95 55.28 105.95 55.28 104.51 35.85 104.51 35.85 133.87"/><polygon class="cls-2" points="38.88 133.87 40.32 133.87 40.32 121.94 53.71 121.94 53.71 120.5 38.88 120.5 38.88 133.87"/><polygon class="cls-2" points="40.32 108.56 44.72 108.56 44.72 107.12 38.88 107.12 38.88 119.02 53.71 119.02 53.71 117.57 40.32 117.57 40.32 108.56"/><path class="cls-2" d="m73.63,103.98c-7.86,0-14.26,6.87-14.26,15.3,0,8.44,6.4,15.3,14.26,15.3s14.26-6.87,14.26-15.3-6.4-15.3-14.26-15.3Zm0,29.16c-7.07,0-12.81-6.22-12.81-13.86,0-7.64,5.75-13.86,12.81-13.86s12.81,6.22,12.81,13.86-5.75,13.86-12.81,13.86Z"/><path class="cls-2" d="m73.63,106.71c-6.47,0-11.73,5.64-11.73,12.58h1.44c0-6.14,4.61-11.13,10.28-11.13,5.67,0,10.28,4.99,10.28,11.13,0,6.14-4.61,11.13-10.28,11.13v1.44c6.47,0,11.73-5.64,11.73-12.58s-5.26-12.58-11.73-12.58Z"/><path class="cls-2" d="m127.21,123.28c0,5.44-4.43,9.87-9.87,9.87h-2.13c-5.44,0-9.87-4.43-9.87-9.87v-3.99h-1.44s0,3.99,0,3.99c0,6.24,5.07,11.31,11.31,11.31h2.13c6.24,0,11.31-5.07,11.31-11.31v-18.58h-1.44s0,18.58,0,18.58Z"/><path class="cls-2" d="m115.04,131.67h2.26c4.64,0,8.42-3.78,8.42-8.42v-18.54h-1.44s0,18.54,0,18.54c0,3.85-3.13,6.98-6.98,6.98h-2.26c-3.85,0-6.98-3.13-6.98-6.98v-18.54h-1.44s0,18.54,0,18.54c0,4.64,3.78,8.42,8.42,8.42Z"/><polygon class="cls-2" points="167.53 129.78 167.53 104.71 166.09 104.71 166.09 125.62 149.5 104.61 145.6 104.61 145.6 133.87 147.05 133.87 147.05 106.06 148.8 106.06 167.53 129.78"/><polygon class="cls-2" points="168.7 132.31 167.68 132.31 148.42 108.19 148.42 129.06 149.87 129.06 149.87 112.31 166.99 133.76 170.15 133.76 170.15 104.71 168.7 104.71 168.7 132.31"/><path class="cls-3" d="m116.69,93.22c-13.8,0-25.02,11.23-25.02,25.02s11.23,25.02,25.02,25.02c13.8,0,25.02-11.23,25.02-25.02,0-13.8-11.23-25.02-25.02-25.02Zm0,48.61c-13,0-23.58-10.58-23.58-23.58s10.58-23.58,23.58-23.58c13,0,23.58,10.58,23.58,23.58s-10.58,23.58-23.58,23.58Z"/><path class="cls-3" d="m116.69,95.84c-12.35,0-22.4,10.05-22.4,22.4,0,12.35,10.05,22.4,22.4,22.4,12.35,0,22.4-10.05,22.4-22.4s-10.05-22.4-22.4-22.4Zm0,43.36c-11.56,0-20.96-9.4-20.96-20.96s9.4-20.96,20.96-20.96c11.56,0,20.96,9.4,20.96,20.96s-9.4,20.96-20.96,20.96Z"/><path class="cls-2" d="m191.43,104.51h-13.11s0,29.25,0,29.25h13.11c7,0,12.69-6.56,12.69-14.62s-5.69-14.62-12.69-14.62Zm0,27.8h-11.66s0-26.36,0-26.36h11.66c6.2,0,11.25,5.91,11.25,13.18,0,7.27-5.05,13.18-11.25,13.18Z"/><path class="cls-2" d="m257.48,113.24c0-4.82-3.42-8.74-7.62-8.74h-12.9s0,29.36,0,29.36h1.44s0-27.92,0-27.92h11.45c3.41,0,6.18,3.27,6.18,7.29s-2.77,7.29-6.18,7.29h-1.39s9.39,13.33,9.39,13.33h1.77s-8.46-12.02-8.46-12.02c3.59-.71,6.32-4.3,6.32-8.61Z"/><path class="cls-2" d="m254.21,113.24c0-3.37-2.4-6.1-5.36-6.1h-8.92s0,12.21,0,12.21h8.92c2.95,0,5.36-2.74,5.36-6.1Zm-12.83-4.66h7.47c2.16,0,3.91,2.09,3.91,4.66s-1.75,4.66-3.91,4.66h-7.47s0-9.32,0-9.32Z"/><path class="cls-2" d="m191.38,129.12h-8.82s0-19.97,0-19.97h4.84s0-1.44,0-1.44h-6.29s0,22.86,0,22.86h10.26c5.48,0,9.94-5.13,9.94-11.43h-1.44c0,5.51-3.81,9.99-8.5,9.99Z"/><polygon class="cls-2" points="210.78 133.76 229.29 133.76 229.29 132.31 212.22 132.31 212.22 105.95 229.29 105.95 229.29 104.51 210.78 104.51 210.78 133.76"/><polygon class="cls-2" points="215.04 120.74 222.63 120.74 222.63 119.3 213.6 119.3 213.6 131.12 229.29 131.12 229.29 129.67 215.04 129.67 215.04 120.74"/><polygon class="cls-2" points="213.6 118.18 227.33 118.18 227.33 116.74 215.04 116.74 215.04 108.7 229.29 108.7 229.29 107.25 213.6 107.25 213.6 118.18"/><polygon class="cls-2" points="239.94 120.5 239.94 129.22 241.38 129.22 241.38 121.94 246.69 121.94 254.78 133.87 256.53 133.87 247.46 120.5 239.94 120.5"/><path class="cls-2" d="m269.6,119.37l.75.39c.82.44,1.82.77,2.87,1.12,2.87.95,5.84,1.93,5.84,5.2,0,1.19-.36,2.14-1.06,2.81-1.44,1.36-3.88,1.26-3.9,1.26l-.08,1.44s.1,0,.24,0c.75,0,3.12-.13,4.73-1.65,1.01-.95,1.52-2.25,1.52-3.86,0-4.31-3.79-5.56-6.83-6.57-1-.33-1.94-.64-2.65-1.02l-.76-.4c-2.61-1.36-4.5-2.34-4.5-6.28,0-5.76,5.8-6.39,8.29-6.39,4.15,0,6.66,2.32,8.62,4.51l1.12-.91c-2.09-2.35-4.96-5.04-9.74-5.04-6.1,0-9.74,2.93-9.74,7.83,0,4.81,2.56,6.15,5.28,7.56Z"/><path class="cls-2" d="m275.83,117.1c-5.62-1.64-7.24-2.85-7.24-5.36,0-3.26,3.23-3.75,5.16-3.75,2.73,0,4.34,1.14,6.67,3.78l1.12-.91c-2.61-2.96-4.52-4.32-7.79-4.32-4.13,0-6.6,1.94-6.6,5.19,0,3.65,2.79,5.14,8.28,6.74,4.29,1.25,6.85,3.92,6.85,7.13,0,2.14-.87,7.12-8.92,7.12-5.06,0-8.21-2.63-9.8-4.47l-1.12.91c1.77,2.06,5.27,5.01,10.92,5.01,9.62,0,10.36-6.55,10.36-8.56,0-3.89-2.95-7.07-7.89-8.52Z"/></svg>