<?xml version="1.0" encoding="UTF-8"?><svg id="Layer_1" xmlns="http://www.w3.org/2000/svg" viewBox="0 0 320 240"><defs><style>.cls-1{fill:none;}.cls-1,.cls-2{stroke-width:0px;}</style></defs><path class="cls-1" d="m106.4,114.43c-1.26-1.39-2.94-2.08-5.04-2.08s-3.78.69-5.04,2.08c-1.21,1.33-1.84,3.13-1.89,5.4v.29s0,.69,0,.69v.29c.05,2.26.68,4.06,1.89,5.4,1.26,1.39,2.94,2.08,5.04,2.08s3.78-.69,5.04-2.08c1.21-1.33,1.84-3.13,1.89-5.4v-.29s0-.69,0-.69v-.29c-.05-2.26-.68-4.06-1.89-5.4Z"/><path class="cls-1" d="m75.45,114.37c-1.39-1.44-3.21-2.17-5.45-2.17s-4.06.7-5.45,2.11c-1.34,1.35-2.03,3.17-2.08,5.47v.28s0,.69,0,.69v.28c.05,2.29.75,4.12,2.08,5.47,1.39,1.41,3.21,2.11,5.45,2.11s4.06-.72,5.45-2.17c1.33-1.39,2.03-3.19,2.08-5.41v-.28s0-.69,0-.69v-.28c-.06-2.22-.75-4.02-2.08-5.41Z"/><path class="cls-1" d="m223.13,113.24c-1.19-.89-2.69-1.34-4.5-1.34s-3.29.48-4.42,1.43c-1.06.89-1.78,1.91-2.14,3.06l-.07.23h13.26c-.23-1.36-.93-2.49-2.12-3.38Z"/><path class="cls-1" d="m256.92,116.71c-.4-.93-.94-1.72-1.62-2.37-.68-.65-1.48-1.14-2.39-1.49-.91-.34-1.88-.51-2.9-.51s-1.99.17-2.9.51c-.91.34-1.71.84-2.39,1.49-.68.65-1.22,1.44-1.62,2.37-.37.86-.56,1.81-.59,2.88v.29s0,1.14,0,1.14v.29c.03,1.06.23,2.02.6,2.88.4.93.94,1.72,1.62,2.37.68.65,1.48,1.14,2.39,1.48.91.34,1.88.51,2.9.51s1.99-.17,2.9-.51c.91-.34,1.71-.84,2.39-1.48.68-.65,1.22-1.44,1.62-2.37.37-.86.56-1.81.59-2.88v-.29s0-1.14,0-1.14v-.29c-.03-1.06-.23-2.02-.6-2.88Z"/><path class="cls-2" d="m158.8,101.62c.5.48,1.07.86,1.72,1.15.65.29,1.36.43,2.12.43s1.42-.14,2.09-.43,1.25-.67,1.75-1.15c.5-.48.89-1.05,1.18-1.72.29-.67.43-1.39.43-2.15s-.14-1.48-.43-2.15c-.29-.67-.68-1.24-1.18-1.72-.5-.48-1.08-.86-1.75-1.15-.67-.29-1.37-.43-2.09-.43-.77,0-1.47.14-2.12.43-.65.29-1.22.67-1.72,1.15-.5.48-.89,1.05-1.18,1.72-.29.67-.43,1.39-.43,2.15s.14,1.48.43,2.15c.29.67.68,1.24,1.18,1.72Z"/><path class="cls-2" d="m231.97,114.24c-.53-1.6-1.37-3.06-2.51-4.38-1.14-1.33-2.58-2.42-4.33-3.29-1.75-.87-3.84-1.3-6.27-1.3-1.97,0-3.83.36-5.55,1.07-1.73.71-3.24,1.7-4.53,2.97-1.29,1.27-2.31,2.81-3.05,4.62-.69,1.69-1.06,3.56-1.11,5.59v.41s0,.35,0,.35v.44c.05,2.21.4,4.19,1.05,5.96.7,1.88,1.69,3.48,2.96,4.79,1.27,1.31,2.78,2.31,4.53,3,1.75.69,3.68,1.04,5.81,1.04,1.86,0,3.48-.21,4.87-.63,1.39-.42,2.56-.96,3.53-1.62.97-.65,1.76-1.38,2.36-2.16.53-.69.96-1.36,1.29-2l.13-.28-6.15-3.46-.1.2c-.42.8-1.07,1.49-1.95,2.08-.95.63-2.32.95-4.1.95-.91,0-1.78-.14-2.59-.43-.82-.29-1.54-.69-2.16-1.21s-1.12-1.13-1.48-1.85c-.32-.63-.51-1.32-.58-2.06l-.02-.28h20.73v-4.21c-.04-1.39-.31-2.82-.8-4.3Zm-19.98,2.38l.07-.23c.37-1.15,1.08-2.17,2.14-3.06,1.13-.95,2.61-1.43,4.42-1.43s3.31.45,4.5,1.34c1.19.89,1.9,2.02,2.12,3.38h-13.26Z"/><path class="cls-2" d="m264.73,119.62c-.04-2.18-.44-4.13-1.2-5.85-.8-1.83-1.88-3.37-3.25-4.64-1.37-1.27-2.94-2.23-4.71-2.88s-3.63-.98-5.57-.98-3.8.33-5.57.98-3.34,1.62-4.71,2.88c-1.37,1.27-2.46,2.82-3.25,4.64-.75,1.72-1.15,3.67-1.2,5.85v.41s0,.69,0,.69v.42c.05,2.21.45,4.18,1.2,5.9.8,1.83,1.88,3.37,3.25,4.62,1.37,1.25,2.94,2.2,4.71,2.86,1.77.65,3.63.98,5.57.98s3.8-.33,5.57-.98c1.77-.65,3.34-1.61,4.71-2.86,1.37-1.25,2.46-2.79,3.25-4.62.75-1.72,1.15-3.69,1.2-5.9v-.42s0-.69,0-.69v-.41Zm-7.21,1.4v.29c-.03,1.06-.23,2.02-.6,2.88-.4.93-.94,1.72-1.62,2.37-.68.65-1.48,1.14-2.39,1.48-.91.34-1.88.51-2.9.51s-1.99-.17-2.9-.51c-.91-.34-1.71-.84-2.39-1.48-.68-.65-1.22-1.44-1.62-2.37-.37-.86-.56-1.81-.59-2.88v-.29s0-1.14,0-1.14v-.29c.03-1.06.23-2.02.6-2.88.4-.93.94-1.72,1.62-2.37.68-.65,1.48-1.14,2.39-1.49.91-.34,1.88-.51,2.9-.51s1.99.17,2.9.51c.91.34,1.71.84,2.39,1.49.68.65,1.22,1.44,1.62,2.37.37.86.56,1.81.59,2.88v.29s0,1.14,0,1.14Z"/><polygon class="cls-2" points="194.25 94.5 177.56 94.5 177.56 101.4 187.1 101.4 187.1 127.86 177.22 127.86 177.22 134.76 203.45 134.76 203.45 127.86 194.25 127.86 194.25 94.5"/><path class="cls-2" d="m77.54,110.24h-1.03l-.14-.27c-.75-1.45-1.75-2.58-3-3.39-1.33-.87-3.14-1.3-5.42-1.3-1.71,0-3.34.33-4.88.98-1.54.65-2.89,1.61-4.05,2.86-1.16,1.25-2.07,2.78-2.74,4.59-.67,1.81-1,3.87-1,6.18v1.48c.04,2.17.35,4.1.94,5.8.63,1.81,1.5,3.34,2.63,4.59s2.44,2.19,3.94,2.83,3.13.95,4.88.95c1.37,0,2.54-.13,3.51-.4.97-.27,1.81-.64,2.51-1.1s1.28-.99,1.71-1.59c.44-.6.81-1.22,1.11-1.88h1.03v7.19c-.04,1.06-.56,1.59-1.54,1.59h-20.73v6.93h25.29c1.19-.05,2.17-.47,2.94-1.27.82-.85,1.23-1.92,1.23-3.23v-35.68h-7.2v4.16Zm0,10.51v.28c-.06,2.22-.75,4.02-2.08,5.41-1.39,1.44-3.21,2.17-5.45,2.17s-4.06-.7-5.45-2.11c-1.34-1.35-2.03-3.17-2.08-5.47v-.28s0-.69,0-.69v-.28c.05-2.29.75-4.12,2.08-5.47,1.39-1.41,3.21-2.11,5.45-2.11s4.06.72,5.45,2.17c1.33,1.39,2.03,3.19,2.08,5.41v.28s0,.69,0,.69Z"/><path class="cls-2" d="m116.8,127.76c-.9-.04-1.37-.57-1.41-1.59v-.14s0-19.96,0-19.96h-7.18v3.46h-1.03l-.13-.25c-.71-1.33-1.64-2.33-2.81-2.98-1.24-.69-2.86-1.04-4.88-1.04-1.67,0-3.24.34-4.7,1.01-1.46.67-2.75,1.64-3.85,2.91-1.1,1.27-1.98,2.81-2.62,4.62-.61,1.69-.93,3.59-.97,5.69v.42s0,.92,0,.92v.43c.04,2.13.37,4.05,1,5.74.67,1.81,1.57,3.35,2.71,4.62,1.14,1.27,2.46,2.23,3.96,2.88,1.5.65,3.11.98,4.82.98,1.82,0,3.42-.38,4.79-1.12,1.3-.71,2.33-1.91,3.08-3.58l.11-.25h1.03v.21c.05,1.13.46,2.06,1.23,2.79.77.72,1.75,1.11,2.94,1.15h.23s4.9,0,4.9,0v-6.92h-1.21Zm-8.51-6.96v.29c-.05,2.26-.68,4.06-1.89,5.4-1.26,1.39-2.94,2.08-5.04,2.08s-3.78-.69-5.04-2.08c-1.21-1.33-1.84-3.13-1.89-5.4v-.29s0-.69,0-.69v-.29c.05-2.26.68-4.06,1.89-5.4,1.26-1.39,2.94-2.08,5.04-2.08s3.78.69,5.04,2.08c1.21,1.33,1.84,3.13,1.89,5.4v.29s0,.69,0,.69Z"/><polygon class="cls-2" points="137.54 94.5 120.85 94.5 120.85 101.4 130.39 101.4 130.39 127.86 120.51 127.86 120.51 134.76 146.74 134.76 146.74 127.86 137.54 127.86 137.54 94.5"/><polygon class="cls-2" points="166.25 106.15 150.22 106.15 150.22 113.07 159.09 113.07 159.09 127.84 149.54 127.84 149.54 134.76 174.44 134.76 174.44 127.84 166.25 127.84 166.25 106.15"/></svg>