<?xml version="1.0" encoding="UTF-8"?><svg id="Layer_1" xmlns="http://www.w3.org/2000/svg" viewBox="0 0 320 240"><defs><style>.cls-1{fill:#202020;}</style></defs><g id="Glasshouse_Fragrances"><path class="cls-1" d="m64.59,113.86c-.42.14-.73.35-.92.65-.15.23-.23.59-.25,1.07-.02.48-.03.97-.03,1.45v4.61c-.15.13-.51.34-1.09.63-.58.3-1.28.6-2.12.9-.83.31-1.75.56-2.76.77-1.01.21-2.02.32-3.03.32-2,0-3.79-.26-5.37-.77-1.58-.52-2.91-1.27-4-2.27-1.08-1-1.92-2.22-2.49-3.66-.58-1.44-.87-3.06-.87-4.85,0-.53.05-1.13.16-1.82.1-.68.29-1.41.55-2.16.26-.76.63-1.53,1.11-2.31.47-.78,1.07-1.52,1.78-2.21,1.01-.99,2.25-1.78,3.73-2.38,1.47-.6,3.26-.9,5.37-.9,1.26,0,2.38.11,3.35.33.97.22,1.78.46,2.45.73.66.26,1.17.51,1.53.73.36.22.56.33.6.33s.16-.13.35-.38c.19-.25.42-.56.69-.92h.28v6.88h-.38c-.23-.95-.58-1.84-1.04-2.68-.46-.84-.96-1.54-1.48-2.08-.67-.72-1.54-1.29-2.59-1.74-1.05-.44-2.23-.66-3.54-.66-1.39,0-2.64.31-3.76.93-1.12.62-2.06,1.45-2.84,2.49-.78,1.04-1.38,2.24-1.8,3.6-.42,1.36-.63,2.78-.63,4.28,0,1.64.2,3.14.6,4.5.4,1.36.98,2.52,1.74,3.49.76.97,1.68,1.72,2.78,2.26,1.09.54,2.35.81,3.76.81,1.01,0,1.95-.17,2.83-.52.87-.35,1.56-.91,2.07-1.69.17-.27.29-.76.38-1.45.08-.69.13-1.41.13-2.15s-.04-1.4-.11-1.99c-.07-.59-.29-1.07-.65-1.45-.48-.55-1.34-.87-2.56-.98v-.32h9.25v.32c-.36.04-.75.13-1.17.27Z"/><path class="cls-1" d="m88.97,124.11h-20.28v-.32c.53-.08,1.05-.22,1.56-.41.52-.19.92-.45,1.22-.79.11-.13.19-.31.27-.55.07-.24.13-.52.17-.84.04-.32.08-.65.11-.99.03-.35.05-.69.05-1.03,0-.29,0-.69.02-1.2.01-.51.02-1.06.03-1.66.01-.6.02-1.22.02-1.85v-9.06c0-.38-.02-.73-.05-1.06-.03-.33-.08-.62-.14-.87-.06-.25-.16-.45-.28-.6-.3-.36-.69-.63-1.18-.82-.49-.19-1.02-.32-1.56-.38v-.32h10.07v.32c-.27.04-.6.11-.98.19-.38.08-.74.22-1.07.41-.34.19-.63.46-.87.81-.24.35-.37.81-.39,1.37-.02.74-.04,1.41-.05,2.02-.01.61-.02,1.21-.03,1.8-.01.59-.02,1.2-.02,1.83v5.75c0,.55,0,1.11.02,1.69.01.58.02,1.23.02,1.94.02.67.05,1.32.08,1.93.03.61.14,1.06.33,1.36.08.11.25.21.51.32.25.11.56.2.92.27.36.07.75.14,1.17.19.42.05.84.08,1.26.08.17,0,.44,0,.81-.02.37-.01.77-.03,1.22-.06.44-.03.89-.08,1.36-.14.46-.06.87-.15,1.23-.25.84-.23,1.54-.54,2.1-.92.56-.38,1.04-.82,1.44-1.31.4-.49.74-1.03,1.01-1.61.27-.58.54-1.18.79-1.82l.32.09-1.17,6.51Z"/><path class="cls-1" d="m104.8,124.11v-.32c.06,0,.22-.02.46-.06.24-.04.49-.12.76-.22.26-.1.49-.25.69-.44.2-.19.3-.43.3-.73,0-.19-.06-.5-.17-.93-.12-.43-.28-.96-.49-1.58-.21-.62-.45-1.31-.73-2.07-.27-.76-.57-1.55-.88-2.37h-8.4c-.32.8-.62,1.56-.92,2.29-.3.73-.59,1.46-.88,2.19-.44,1.14-.66,1.94-.66,2.4,0,.27.08.5.25.68.17.18.38.33.65.44.26.12.55.2.85.25.3.05.59.1.87.14v.32h-6.73v-.35c.55-.06,1.02-.21,1.41-.44.39-.23.62-.39.68-.47.15-.15.39-.49.73-1.04.34-.55.75-1.36,1.23-2.43.44-.99.94-2.12,1.48-3.38.55-1.26,1.11-2.56,1.69-3.9.58-1.34,1.15-2.68,1.72-4.04.57-1.36,1.11-2.63,1.61-3.81l-.32-.69c.38-.17.72-.37,1.03-.6.3-.23.57-.47.81-.73.23-.25.43-.49.58-.73.16-.23.28-.42.36-.57h.25c.65,1.75,1.27,3.41,1.86,4.97.59,1.57,1.15,3.08,1.69,4.53.54,1.45,1.06,2.86,1.56,4.22.51,1.36,1.01,2.7,1.52,4.03.23.65.45,1.2.65,1.63.2.43.43.92.68,1.47.04.08.14.23.28.44.15.21.34.43.58.65.24.22.54.42.9.58.36.17.78.26,1.26.28v.38h-9.22Zm-4.14-19.14c-.13.27-.31.71-.55,1.29-.24.59-.54,1.31-.9,2.15-.36.84-.75,1.8-1.18,2.86-.43,1.06-.9,2.22-1.41,3.46h7.86c-.36-.95-.72-1.9-1.09-2.84-.37-.95-.73-1.86-1.07-2.73-.35-.87-.66-1.67-.95-2.4-.28-.73-.52-1.32-.71-1.78Z"/><path class="cls-1" d="m130.8,120.61c-.41.8-.98,1.48-1.71,2.05-.73.57-1.59.99-2.61,1.26-1.01.27-2.12.41-3.32.41-1.03,0-1.92-.06-2.65-.19-.74-.13-1.35-.28-1.83-.46-.48-.18-.85-.34-1.09-.49-.24-.15-.4-.22-.46-.22s-.2.13-.41.38c-.21.25-.4.49-.57.73h-.28l-.09-6.28h.32c.19.57.43,1.12.73,1.66.29.54.62,1.04.96,1.52.35.47.72.89,1.11,1.25.39.36.76.63,1.12.82.36.19.83.38,1.42.57.59.19,1.16.28,1.71.28,1.56,0,2.82-.43,3.79-1.28.97-.85,1.45-2.01,1.45-3.46,0-.59-.09-1.11-.28-1.55-.19-.44-.45-.83-.77-1.15-.33-.33-.71-.6-1.15-.84-.44-.23-.92-.44-1.42-.63-.51-.19-.95-.35-1.33-.47-.38-.13-.73-.25-1.06-.36-.33-.12-.66-.23-1.01-.35-.35-.12-.76-.27-1.25-.46-.55-.21-1.07-.5-1.58-.87-.51-.37-.95-.8-1.33-1.29-.38-.49-.68-1.04-.92-1.64-.23-.6-.35-1.24-.35-1.91,0-1.14.21-2.12.62-2.94.41-.82.97-1.51,1.67-2.05.7-.55,1.51-.95,2.42-1.22.92-.26,1.88-.4,2.89-.4.95,0,1.76.08,2.43.24.67.16,1.23.33,1.66.52.43.19.76.36.98.52.22.16.34.24.36.24.06,0,.19-.13.39-.38.2-.25.38-.51.55-.76h.35v5.84h-.35c-.25-.69-.58-1.38-.98-2.07-.4-.68-.86-1.29-1.39-1.83-.53-.54-1.13-.97-1.8-1.31-.67-.34-1.42-.51-2.24-.51-.65,0-1.27.09-1.85.28-.58.19-1.08.47-1.52.85-.43.38-.77.85-1.01,1.41-.24.56-.36,1.2-.36,1.91,0,1.12.34,2.01,1.01,2.68.67.67,1.54,1.21,2.61,1.61.42.17.81.32,1.18.44.37.13.73.25,1.09.36.36.12.72.24,1.09.36.37.13.75.26,1.15.41,1.43.53,2.54,1.29,3.32,2.29.79,1,1.18,2.25,1.18,3.74,0,1.01-.21,1.92-.62,2.72Z"/><path class="cls-1" d="m150.7,120.61c-.41.8-.98,1.48-1.71,2.05-.73.57-1.59.99-2.61,1.26-1.01.27-2.12.41-3.32.41-1.03,0-1.92-.06-2.65-.19-.74-.13-1.35-.28-1.83-.46-.48-.18-.85-.34-1.09-.49-.24-.15-.4-.22-.46-.22s-.2.13-.41.38c-.21.25-.4.49-.57.73h-.28l-.09-6.28h.32c.19.57.43,1.12.73,1.66.29.54.62,1.04.96,1.52.35.47.72.89,1.11,1.25.39.36.76.63,1.12.82.36.19.83.38,1.42.57.59.19,1.16.28,1.71.28,1.56,0,2.82-.43,3.79-1.28.97-.85,1.45-2.01,1.45-3.46,0-.59-.09-1.11-.28-1.55-.19-.44-.45-.83-.77-1.15-.33-.33-.71-.6-1.15-.84-.44-.23-.92-.44-1.42-.63-.51-.19-.95-.35-1.33-.47-.38-.13-.73-.25-1.06-.36-.33-.12-.66-.23-1.01-.35-.35-.12-.76-.27-1.25-.46-.55-.21-1.07-.5-1.58-.87-.51-.37-.95-.8-1.33-1.29-.38-.49-.68-1.04-.92-1.64-.23-.6-.35-1.24-.35-1.91,0-1.14.21-2.12.62-2.94.41-.82.97-1.51,1.67-2.05.7-.55,1.51-.95,2.42-1.22.92-.26,1.88-.4,2.89-.4.95,0,1.76.08,2.43.24.67.16,1.23.33,1.66.52.43.19.76.36.98.52.22.16.34.24.36.24.06,0,.19-.13.39-.38.2-.25.38-.51.55-.76h.35v5.84h-.35c-.25-.69-.58-1.38-.98-2.07-.4-.68-.86-1.29-1.39-1.83-.53-.54-1.13-.97-1.8-1.31-.67-.34-1.42-.51-2.24-.51-.65,0-1.27.09-1.85.28-.58.19-1.08.47-1.52.85-.43.38-.77.85-1.01,1.41-.24.56-.36,1.2-.36,1.91,0,1.12.34,2.01,1.01,2.68.67.67,1.54,1.21,2.61,1.61.42.17.81.32,1.18.44.37.13.73.25,1.09.36.36.12.72.24,1.09.36.37.13.75.26,1.15.41,1.43.53,2.54,1.29,3.32,2.29.79,1,1.18,2.25,1.18,3.74,0,1.01-.21,1.92-.62,2.72Z"/><path class="cls-1" d="m170.74,124.11v-.32c.78-.06,1.43-.21,1.96-.43.53-.22.87-.47,1.04-.74.04-.06.08-.19.11-.38.03-.19.06-.41.08-.66.02-.25.04-.52.05-.79.01-.27.02-.54.02-.79.02-.69.03-1.41.03-2.15v-4.99h-12.47v6.79c0,.61.01,1.2.03,1.77.02.57.12.97.28,1.2.25.36.61.63,1.07.82.46.19.92.31,1.36.35v.32h-9.32v-.32c.53-.08,1.03-.23,1.52-.43.48-.2.85-.45,1.11-.74.08-.11.15-.28.21-.52.05-.24.09-.52.13-.84.03-.32.06-.66.08-1.03.02-.37.03-.72.03-1.06,0-.29,0-.69.02-1.2.01-.51.02-1.06.03-1.66.01-.6.02-1.22.02-1.85v-9.13c0-.38-.02-.73-.05-1.06-.03-.33-.08-.62-.14-.88-.06-.26-.16-.47-.28-.62-.3-.36-.66-.62-1.09-.77-.43-.16-.92-.27-1.47-.33v-.32h9.41v.32c-.3.04-.61.11-.95.19-.34.08-.64.22-.92.39-.27.18-.51.43-.69.74-.19.32-.3.72-.32,1.2-.02.74-.04,1.53-.05,2.38-.01.85-.02,1.67-.02,2.45v3.19h12.47v-5.08c0-.55-.01-1.17-.03-1.86-.02-.4-.05-.82-.08-1.25-.03-.43-.13-.78-.3-1.06-.38-.57-.81-.92-1.29-1.06-.48-.14-.97-.22-1.45-.24v-.32h9.51v.32c-.51.06-1,.21-1.48.43-.48.22-.84.54-1.07.96-.08.15-.15.35-.19.62-.04.26-.07.56-.09.88-.02.33-.03.66-.03.99v10.33c0,.59,0,1.2.02,1.83.01.63.02,1.33.02,2.08,0,.61.02,1.17.05,1.69.03.52.11.87.24,1.06.27.42.64.72,1.11.88.46.17.97.28,1.52.35v.32h-9.7Z"/><path class="cls-1" d="m206.46,117.26c-.63,1.43-1.49,2.67-2.57,3.73-1.08,1.05-2.35,1.86-3.79,2.43-1.44.57-2.97.85-4.6.85s-3.12-.28-4.55-.84c-1.43-.56-2.68-1.35-3.76-2.37-1.07-1.02-1.92-2.24-2.54-3.66-.62-1.42-.93-2.98-.93-4.69,0-1.81.33-3.44.98-4.88.65-1.44,1.53-2.66,2.64-3.66,1.11-1,2.4-1.77,3.88-2.31,1.48-.54,3.05-.81,4.69-.81,1.79,0,3.39.32,4.82.95,1.42.63,2.63,1.48,3.62,2.54.99,1.06,1.75,2.29,2.27,3.68.53,1.39.79,2.84.79,4.36,0,1.69-.32,3.24-.95,4.67Zm-3.46-8.53c-.33-1.31-.82-2.49-1.48-3.55-.66-1.06-1.49-1.93-2.48-2.59-.99-.66-2.16-.99-3.51-.99s-2.55.33-3.55.99c-1,.66-1.82,1.52-2.46,2.57-.64,1.05-1.12,2.25-1.42,3.58-.31,1.34-.46,2.69-.46,4.06s.17,2.81.51,4.14c.34,1.33.84,2.5,1.5,3.51.66,1.01,1.5,1.82,2.5,2.43,1,.61,2.16.92,3.49.92s2.48-.34,3.46-1.01c.98-.67,1.79-1.54,2.45-2.61.65-1.06,1.14-2.26,1.47-3.58.33-1.33.49-2.65.49-3.98s-.16-2.58-.49-3.88Z"/><path class="cls-1" d="m233.28,102.29c-.45.3-.81.75-1.06,1.36-.06.15-.12.39-.17.73-.05.34-.1.73-.14,1.17-.04.44-.07.91-.09,1.41-.02.49-.03.98-.03,1.47-.02.91-.05,1.92-.08,3.03-.03,1.12-.07,2.38-.11,3.79-.02.4-.05.91-.08,1.52-.03.61-.13,1.26-.3,1.94-.17.68-.44,1.37-.81,2.05-.37.68-.89,1.31-1.56,1.86-.67.56-1.54,1-2.59,1.33-1.05.33-2.35.49-3.88.49s-2.8-.16-3.84-.47c-1.04-.32-1.9-.74-2.57-1.28-.67-.54-1.2-1.13-1.56-1.77-.37-.64-.64-1.27-.82-1.89-.18-.62-.28-1.19-.32-1.71-.03-.52-.05-.9-.05-1.15,0-.59,0-1.36.02-2.31.01-.95.02-2,.02-3.16v-5.34c0-.38-.02-.73-.05-1.06-.03-.33-.08-.62-.14-.88-.06-.26-.16-.47-.28-.62-.29-.36-.66-.62-1.09-.77-.43-.16-.92-.27-1.47-.33v-.32h9.41v.32c-.3.04-.61.11-.95.19-.34.08-.64.22-.92.39-.27.18-.51.43-.69.74-.19.32-.3.72-.32,1.2-.02.55-.04,1.03-.05,1.45-.01.42-.02.83-.02,1.23v6.28c0,.48,0,.95.02,1.41.01.45.02.93.02,1.44.02,1.12.19,2.13.51,3.05s.76,1.7,1.33,2.34c.57.64,1.26,1.14,2.08,1.48.82.35,1.76.52,2.81.52,1.2,0,2.22-.14,3.05-.41.83-.27,1.53-.65,2.08-1.14.56-.48,1-1.04,1.33-1.67.33-.63.57-1.31.73-2.02.16-.72.26-1.45.32-2.19.05-.75.08-1.48.08-2.2v-5.37c0-.42,0-.85-.02-1.29-.01-.44-.03-.86-.05-1.26-.02-.4-.05-.77-.09-1.12-.04-.35-.11-.63-.19-.84-.21-.59-.57-1.07-1.09-1.44-.52-.37-1.28-.63-2.29-.77v-.32h7.83v.32c-.78.11-1.4.31-1.85.6Z"/><path class="cls-1" d="m253.24,120.61c-.41.8-.98,1.48-1.71,2.05-.73.57-1.59.99-2.61,1.26-1.01.27-2.12.41-3.32.41-1.03,0-1.92-.06-2.65-.19-.74-.13-1.35-.28-1.83-.46-.48-.18-.85-.34-1.09-.49-.24-.15-.4-.22-.46-.22s-.2.13-.41.38c-.21.25-.4.49-.57.73h-.28l-.09-6.28h.32c.19.57.43,1.12.73,1.66.29.54.62,1.04.96,1.52.35.47.72.89,1.11,1.25.39.36.76.63,1.12.82.36.19.83.38,1.42.57.59.19,1.16.28,1.71.28,1.56,0,2.82-.43,3.79-1.28.97-.85,1.45-2.01,1.45-3.46,0-.59-.09-1.11-.28-1.55-.19-.44-.45-.83-.77-1.15-.33-.33-.71-.6-1.15-.84-.44-.23-.92-.44-1.42-.63-.51-.19-.95-.35-1.33-.47-.38-.13-.73-.25-1.06-.36-.33-.12-.66-.23-1.01-.35-.35-.12-.76-.27-1.25-.46-.55-.21-1.07-.5-1.58-.87-.51-.37-.95-.8-1.33-1.29-.38-.49-.68-1.04-.92-1.64-.23-.6-.35-1.24-.35-1.91,0-1.14.21-2.12.62-2.94.41-.82.97-1.51,1.67-2.05.7-.55,1.51-.95,2.42-1.22.92-.26,1.88-.4,2.89-.4.95,0,1.76.08,2.43.24.67.16,1.23.33,1.66.52.43.19.76.36.98.52.22.16.34.24.36.24.06,0,.19-.13.39-.38.2-.25.38-.51.55-.76h.35v5.84h-.35c-.25-.69-.58-1.38-.98-2.07-.4-.68-.86-1.29-1.39-1.83-.53-.54-1.13-.97-1.8-1.31-.67-.34-1.42-.51-2.24-.51-.65,0-1.27.09-1.85.28-.58.19-1.08.47-1.52.85-.43.38-.77.85-1.01,1.41-.24.56-.36,1.2-.36,1.91,0,1.12.34,2.01,1.01,2.68.67.67,1.54,1.21,2.61,1.61.42.17.81.32,1.18.44.37.13.73.25,1.09.36.36.12.72.24,1.09.36.37.13.75.26,1.15.41,1.43.53,2.54,1.29,3.32,2.29.79,1,1.18,2.25,1.18,3.74,0,1.01-.21,1.92-.62,2.72Z"/><path class="cls-1" d="m276.76,124.11h-19.33v-.32c.53-.08,1.02-.22,1.47-.41.45-.19.83-.45,1.12-.79.1-.13.19-.31.25-.55.06-.24.12-.52.17-.84.05-.32.09-.65.11-.99.02-.35.03-.69.03-1.03,0-.29,0-.69.02-1.2.01-.51.02-1.06.03-1.66.01-.6.02-1.22.02-1.85v-7.99c0-.38,0-.77-.02-1.17-.01-.4-.03-.78-.06-1.14-.03-.36-.08-.68-.16-.96-.07-.28-.17-.49-.3-.62-.32-.34-.65-.55-1.01-.65-.36-.09-.82-.18-1.39-.27v-.32h17.43l2.15,5.21-.32.16c-1.71-2.13-3.31-3.56-4.8-4.3-.36-.17-1.02-.32-1.99-.44-.97-.13-2.15-.19-3.54-.19-.44,0-.9.02-1.37.05-.47.03-.82.07-1.03.11-.04.34-.08,1.03-.11,2.08-.03,1.05-.05,2.27-.05,3.66v2.02c0,.55,0,.99.02,1.34.01.35.02.62.02.81v.35h.63c.32,0,.68-.01,1.09-.03.41-.02.82-.05,1.23-.08.41-.03.75-.08,1.03-.14.63-.15,1.16-.35,1.58-.6.42-.25.76-.56,1.03-.92.26-.36.47-.77.63-1.25.16-.47.3-1.01.43-1.59h.38v9.95h-.38c-.17-.67-.43-1.37-.77-2.08-.35-.72-.71-1.25-1.09-1.61-.34-.29-.74-.54-1.22-.73-.47-.19-1.03-.3-1.66-.35-.32-.02-.58-.04-.79-.05-.21-.01-.42-.02-.63-.02h-1.45c-.04.29-.06.73-.06,1.29v3.79c0,.34,0,.66.02.96.01.31.02.56.02.77.02.67.06,1.31.11,1.91.05.6.17,1.05.36,1.34.19.3.64.51,1.36.63.72.13,1.49.19,2.34.19.36,0,.82-.01,1.37-.03.56-.02,1.14-.07,1.75-.16.67-.08,1.29-.25,1.86-.49.57-.24,1.12-.58,1.64-1.03.53-.44,1.04-.98,1.53-1.63.49-.64,1.01-1.42,1.53-2.32l.35.09-1.58,6.03Z"/><path class="cls-1" d="m94.4,132c-.35-.43-.68-.8-.99-1.11-.31-.31-.62-.53-.92-.68-.14-.07-.41-.13-.78-.17-.38-.05-.82-.07-1.32-.07-.09,0-.18,0-.29,0-.11,0-.22,0-.32.01-.1,0-.2,0-.29.01-.09,0-.16,0-.2,0,0,.05-.02.1-.03.15-.01.05-.02.11-.03.18s-.02.16-.03.26c0,.11-.02.24-.03.39,0,.3-.01.62-.02.98,0,.35,0,.69,0,1v1.21h.23c.14,0,.29,0,.45-.01.17,0,.34-.02.52-.03.18-.01.33-.03.45-.06.31-.07.55-.16.73-.27.18-.11.32-.24.42-.4.1-.15.17-.32.22-.5.04-.18.08-.38.11-.59h.15v4.11h-.15c-.07-.27-.17-.56-.29-.86-.13-.3-.28-.53-.46-.7-.16-.14-.33-.25-.52-.33-.18-.07-.4-.12-.64-.13-.13,0-.24-.01-.33-.02-.09,0-.18,0-.27,0h-.61v1.58c0,.24,0,.46,0,.66,0,.2,0,.37,0,.52,0,.27.02.53.04.77.02.24.07.42.15.54s.21.21.39.27c.18.06.45.1.8.12v.13h-4.08v-.13c.21-.03.41-.09.59-.17.18-.08.33-.18.45-.32.04-.05.08-.13.1-.22.03-.1.05-.21.07-.34.02-.13.04-.26.04-.4,0-.14.01-.28.01-.41,0-.12,0-.28,0-.48,0-.2,0-.43.01-.67,0-.24,0-.49,0-.75v-3.23c0-.15,0-.31,0-.47,0-.16-.01-.31-.03-.46-.01-.14-.03-.27-.06-.39-.03-.11-.07-.2-.12-.25-.13-.14-.26-.22-.41-.26-.14-.04-.33-.07-.56-.11v-.13h7.09l.87,2.14-.13.06Z"/><path class="cls-1" d="m108.48,138.98c-.08-.08-.13-.13-.17-.17-.03-.04-.07-.08-.11-.13-.04-.05-.1-.13-.16-.22-.06-.1-.16-.24-.3-.44-.16-.24-.3-.45-.43-.64-.12-.19-.25-.38-.38-.57-.13-.19-.27-.38-.41-.57-.15-.19-.33-.41-.53-.64-.17-.2-.36-.38-.55-.55-.2-.17-.41-.28-.63-.32-.16-.03-.28-.05-.37-.05-.08,0-.17,0-.29-.01v1.44c0,.41,0,.75.01,1.03,0,.27.02.51.03.7,0,.2.06.36.14.48.07.11.2.22.4.34.2.11.47.18.82.2v.13h-4.08v-.13c.21-.03.42-.08.61-.15.2-.07.35-.17.46-.31.04-.05.08-.13.1-.23.03-.1.04-.22.06-.34.01-.13.02-.26.03-.41,0-.14.01-.28.01-.42,0-.12,0-.28,0-.48,0-.2,0-.43.01-.67,0-.24,0-.49,0-.75v-3.23c0-.15,0-.31,0-.47,0-.16-.01-.31-.03-.45-.01-.14-.03-.27-.06-.38-.03-.11-.07-.2-.12-.25-.13-.14-.27-.23-.43-.27-.16-.05-.35-.09-.58-.12v-.13h.52c.29,0,.62,0,.98,0,.37,0,.73,0,1.1,0h.89c.57,0,1.08.02,1.52.05.44.03.85.15,1.21.34.37.2.68.46.91.8.23.34.34.76.34,1.27,0,.31-.06.6-.17.85-.11.25-.27.47-.46.66-.19.19-.41.36-.67.49-.26.14-.52.25-.8.34v.04c.14.08.28.19.42.33.14.14.27.31.4.48.22.32.46.67.72,1.05.26.37.49.71.69.99.31.44.62.77.92.97.3.2.65.34,1.05.4v.13h-2.61Zm-1.26-7.95c-.21-.33-.52-.6-.93-.79-.2-.09-.42-.16-.64-.2-.23-.04-.46-.06-.71-.06-.18,0-.32,0-.43.01-.11,0-.2.02-.25.03,0,.05-.02.1-.03.13s-.01.09-.02.15c0,.06,0,.14-.01.25,0,.11-.01.26-.02.45,0,.3-.01.63-.02,1.01,0,.37,0,.74,0,1.08v1.4c.35,0,.67-.01.98-.04.3-.03.59-.09.87-.18.27-.08.51-.2.7-.34.2-.14.35-.31.48-.49.12-.18.21-.38.27-.59.06-.21.09-.43.09-.66,0-.42-.11-.8-.32-1.13Z"/><path class="cls-1" d="m122.94,138.98v-.13s.09,0,.18-.03c.1-.02.2-.05.31-.09.11-.04.2-.1.28-.18.08-.08.12-.17.12-.29,0-.08-.02-.2-.07-.38-.05-.17-.11-.39-.2-.64s-.18-.53-.29-.84c-.11-.31-.23-.62-.36-.96h-3.39c-.13.32-.25.63-.37.92-.12.29-.24.59-.36.89-.18.46-.27.78-.27.97,0,.11.03.2.1.27.07.07.16.13.26.18.11.05.22.08.34.1.12.02.24.04.35.06v.13h-2.72v-.14c.22-.03.41-.08.57-.18.16-.09.25-.16.27-.19.06-.06.16-.2.29-.42.14-.22.3-.55.5-.98.18-.4.38-.85.6-1.36.22-.51.45-1.04.68-1.58.23-.54.47-1.08.69-1.63.23-.55.45-1.06.65-1.54l-.13-.28c.15-.07.29-.15.41-.24.12-.09.23-.19.33-.29.09-.1.17-.2.24-.29.06-.09.11-.17.15-.23h.1c.26.71.51,1.38.75,2.01.24.63.47,1.24.68,1.83.22.59.43,1.15.63,1.7.2.55.41,1.09.61,1.63.09.26.18.48.26.66.08.17.17.37.27.59.02.03.05.09.11.18.06.09.14.17.24.26.1.09.22.17.36.24.14.07.31.11.51.11v.15h-3.72Zm-1.67-7.73c-.05.11-.13.29-.22.52-.1.24-.22.53-.36.87-.14.34-.3.73-.48,1.15-.17.43-.36.89-.57,1.4h3.18c-.14-.38-.29-.76-.44-1.15-.15-.38-.29-.75-.43-1.1-.14-.35-.27-.68-.38-.97-.11-.29-.21-.53-.29-.72Z"/><path class="cls-1" d="m142.51,134.84c-.17.06-.29.14-.37.26-.06.09-.09.24-.1.43,0,.2-.01.39-.01.59v1.86c-.06.05-.21.14-.44.25-.23.12-.52.24-.85.36-.34.12-.71.23-1.12.31-.41.09-.82.13-1.22.13-.81,0-1.53-.1-2.17-.31-.64-.21-1.18-.51-1.61-.92-.44-.4-.77-.9-1.01-1.48-.23-.58-.35-1.23-.35-1.96,0-.21.02-.46.06-.73.04-.28.12-.57.22-.87.11-.31.25-.62.45-.93.19-.31.43-.61.72-.89.41-.4.91-.72,1.5-.96.6-.24,1.32-.36,2.17-.36.51,0,.96.04,1.35.13.39.09.72.19.99.29.27.11.47.2.62.29.14.09.23.13.24.13s.06-.05.14-.15c.08-.1.17-.23.28-.37h.11v2.78h-.15c-.09-.38-.23-.74-.42-1.08-.19-.34-.39-.62-.6-.84-.27-.29-.62-.52-1.05-.7-.43-.18-.9-.27-1.43-.27-.56,0-1.07.13-1.52.38-.45.25-.83.59-1.15,1.01-.31.42-.56.91-.73,1.45-.17.55-.25,1.12-.25,1.73,0,.66.08,1.27.24,1.82.16.55.4,1.02.7,1.41.31.39.68.69,1.12.91.44.22.95.33,1.52.33.41,0,.79-.07,1.14-.21.35-.14.63-.37.84-.68.07-.11.12-.31.15-.59.03-.28.05-.57.05-.87s-.02-.57-.04-.8c-.03-.24-.12-.43-.26-.59-.2-.22-.54-.35-1.03-.4v-.13h3.74v.13c-.14.02-.3.05-.47.11Z"/><path class="cls-1" d="m157.59,138.98c-.08-.08-.13-.13-.17-.17-.03-.04-.07-.08-.11-.13-.04-.05-.1-.13-.16-.22-.06-.1-.16-.24-.3-.44-.16-.24-.3-.45-.43-.64-.12-.19-.25-.38-.38-.57-.13-.19-.27-.38-.41-.57-.15-.19-.33-.41-.53-.64-.17-.2-.36-.38-.55-.55-.2-.17-.41-.28-.63-.32-.16-.03-.28-.05-.37-.05-.08,0-.17,0-.29-.01v1.44c0,.41,0,.75.01,1.03,0,.27.02.51.03.7,0,.2.06.36.14.48.07.11.2.22.4.34.2.11.47.18.82.2v.13h-4.08v-.13c.21-.03.42-.08.61-.15.2-.07.35-.17.46-.31.04-.05.08-.13.1-.23.03-.1.04-.22.06-.34.01-.13.02-.26.03-.41,0-.14.01-.28.01-.42,0-.12,0-.28,0-.48,0-.2,0-.43.01-.67,0-.24,0-.49,0-.75v-3.23c0-.15,0-.31,0-.47,0-.16-.01-.31-.03-.45-.01-.14-.03-.27-.06-.38-.03-.11-.07-.2-.12-.25-.13-.14-.27-.23-.43-.27-.16-.05-.35-.09-.58-.12v-.13h.52c.29,0,.62,0,.98,0,.37,0,.73,0,1.1,0h.89c.57,0,1.08.02,1.52.05.44.03.85.15,1.21.34.37.2.68.46.91.8.23.34.34.76.34,1.27,0,.31-.06.6-.17.85-.11.25-.27.47-.46.66-.19.19-.41.36-.67.49-.26.14-.52.25-.8.34v.04c.14.08.28.19.42.33.14.14.27.31.4.48.22.32.46.67.72,1.05.26.37.49.71.69.99.31.44.62.77.92.97.3.2.65.34,1.05.4v.13h-2.61Zm-1.26-7.95c-.21-.33-.52-.6-.93-.79-.2-.09-.42-.16-.64-.2-.23-.04-.46-.06-.71-.06-.18,0-.32,0-.43.01-.11,0-.2.02-.25.03,0,.05-.02.1-.03.13s-.01.09-.02.15c0,.06,0,.14-.01.25,0,.11-.01.26-.02.45,0,.3-.01.63-.02,1.01,0,.37,0,.74,0,1.08v1.4c.35,0,.67-.01.98-.04.3-.03.59-.09.87-.18.27-.08.51-.2.7-.34.2-.14.35-.31.48-.49.12-.18.21-.38.27-.59.06-.21.09-.43.09-.66,0-.42-.11-.8-.32-1.13Z"/><path class="cls-1" d="m172.06,138.98v-.13s.09,0,.18-.03c.1-.02.2-.05.31-.09.11-.04.2-.1.28-.18.08-.08.12-.17.12-.29,0-.08-.02-.2-.07-.38-.05-.17-.11-.39-.2-.64-.09-.25-.18-.53-.29-.84-.11-.31-.23-.62-.36-.96h-3.39c-.13.32-.25.63-.37.92-.12.29-.24.59-.36.89-.18.46-.27.78-.27.97,0,.11.03.2.1.27s.16.13.26.18c.11.05.22.08.34.1.12.02.24.04.35.06v.13h-2.72v-.14c.22-.03.41-.08.57-.18.16-.09.25-.16.27-.19.06-.06.16-.2.29-.42.14-.22.3-.55.5-.98.18-.4.38-.85.6-1.36.22-.51.45-1.04.68-1.58.23-.54.47-1.08.69-1.63.23-.55.45-1.06.65-1.54l-.13-.28c.15-.07.29-.15.41-.24.12-.09.23-.19.33-.29.09-.1.17-.2.24-.29.06-.09.11-.17.15-.23h.1c.26.71.51,1.38.75,2.01.24.63.47,1.24.68,1.83.22.59.43,1.15.63,1.7.2.55.41,1.09.61,1.63.09.26.18.48.26.66.08.17.17.37.27.59.02.03.05.09.11.18.06.09.14.17.24.26.1.09.22.17.36.24.14.07.31.11.51.11v.15h-3.72Zm-1.67-7.73c-.05.11-.13.29-.22.52s-.22.53-.36.87c-.14.34-.3.73-.48,1.15-.17.43-.36.89-.57,1.4h3.18c-.14-.38-.29-.76-.44-1.15-.15-.38-.29-.75-.43-1.1-.14-.35-.27-.68-.38-.97-.11-.29-.21-.53-.29-.72Z"/><path class="cls-1" d="m192.03,130.17c-.19.12-.34.3-.44.55-.06.13-.1.36-.11.71-.02.34-.03.71-.05,1.1-.02.37-.03.8-.04,1.29-.01.5-.02,1.03-.02,1.6v.82c0,.3,0,.6,0,.91,0,.31,0,.62,0,.92v.83s-.01.06-.03.08c-.02.02-.05.03-.1.03-.07,0-.14-.04-.23-.13-.72-.83-1.38-1.6-1.98-2.3-.6-.7-1.16-1.36-1.7-2-.54-.63-1.07-1.25-1.59-1.86-.52-.6-1.07-1.23-1.65-1.87v5.38c0,.43.01.82.03,1.17.02.35.07.61.16.78.09.2.24.34.44.44.2.1.47.17.82.21v.13h-3.14v-.13c.2-.03.41-.08.61-.16.2-.08.37-.21.48-.4.12-.18.2-.44.23-.79.03-.35.06-.76.08-1.25.02-.37.03-.8.04-1.29,0-.5.01-1.03.01-1.6v-1.56c0-.17,0-.38-.01-.63-.03-.25-.09-.45-.18-.61-.09-.16-.2-.28-.33-.37-.13-.09-.27-.15-.41-.19-.15-.04-.29-.07-.43-.08v-.13h2.59l6.05,7.07v-4.34c0-.34,0-.67-.01-.98,0-.31-.05-.55-.11-.73-.09-.24-.24-.43-.45-.58-.22-.15-.53-.25-.94-.31v-.13h3.16v.13c-.31.04-.57.12-.76.24Z"/><path class="cls-1" d="m208.91,132.75c-.11-.41-.28-.79-.5-1.15-.22-.36-.48-.67-.78-.93-.3-.26-.64-.47-1.02-.62-.38-.15-.78-.23-1.21-.23-.59,0-1.11.13-1.57.4-.46.26-.84.61-1.15,1.05-.31.43-.55.92-.71,1.47-.17.55-.25,1.11-.25,1.69,0,.61.09,1.19.26,1.72.17.54.42,1,.75,1.4.32.4.71.71,1.17.94.46.23.97.34,1.53.34.44,0,.86-.08,1.24-.24.39-.16.73-.37,1.03-.64.3-.26.56-.57.76-.91.21-.34.35-.7.43-1.06h.15l-.04,2.81h-.15c-.1-.14-.21-.28-.32-.4-.11-.12-.19-.18-.23-.18-.02,0-.09.04-.23.13-.14.09-.33.19-.59.29-.25.11-.57.2-.93.28-.37.08-.79.12-1.26.12-.79,0-1.5-.11-2.14-.34-.64-.23-1.18-.54-1.63-.96-.45-.41-.79-.91-1.03-1.48-.24-.57-.36-1.21-.36-1.89,0-.15.01-.33.03-.52.02-.2.06-.4.11-.62.06-.22.13-.45.23-.69s.22-.49.38-.73c.18-.29.4-.57.66-.83.26-.26.57-.5.93-.69.36-.2.76-.36,1.21-.48s.96-.18,1.52-.18c.51,0,.96.05,1.34.14.38.09.7.2.96.31.25.11.45.21.59.31.14.09.21.14.23.14s.05-.02.1-.06c.05-.04.1-.08.15-.14s.11-.12.17-.19c.06-.07.11-.15.17-.22h.14v2.86h-.15Z"/><path class="cls-1" d="m224.65,138.98h-7.81v-.13c.21-.03.41-.09.59-.17.18-.08.33-.18.45-.32.04-.05.08-.13.1-.22.03-.1.05-.21.07-.34.02-.13.04-.26.04-.4,0-.14.01-.28.01-.41,0-.12,0-.28,0-.48,0-.2,0-.43.01-.67,0-.24,0-.49,0-.75v-3.23c0-.15,0-.31,0-.47,0-.16-.01-.31-.03-.46-.01-.14-.03-.27-.06-.39-.03-.11-.07-.2-.12-.25-.13-.14-.26-.22-.41-.26-.14-.04-.33-.07-.56-.11v-.13h7.04l.87,2.1-.13.06c-.69-.86-1.33-1.44-1.94-1.73-.14-.07-.41-.13-.8-.18-.39-.05-.87-.08-1.43-.08-.18,0-.36,0-.55.02-.19.01-.33.03-.41.04-.02.14-.03.42-.04.84-.01.43-.02.92-.02,1.48v.82c0,.22,0,.4,0,.54,0,.14,0,.25,0,.33v.14h.26c.13,0,.27,0,.44-.01.17,0,.33-.02.5-.03.17-.01.3-.03.41-.06.25-.06.47-.14.64-.24.17-.1.31-.23.41-.37.11-.14.19-.31.25-.5.06-.19.12-.41.17-.64h.15v4.02h-.15c-.07-.27-.17-.55-.31-.84-.14-.29-.29-.51-.44-.65-.14-.12-.3-.22-.49-.29-.19-.08-.41-.12-.67-.14-.13,0-.23-.01-.32-.02-.09,0-.17,0-.25,0h-.59c-.02.12-.03.29-.03.52v1.53c0,.14,0,.27,0,.39,0,.12,0,.23,0,.31,0,.27.02.53.04.77.02.24.07.42.15.54.08.12.26.2.55.25s.6.08.94.08c.14,0,.33,0,.55-.01.23,0,.46-.03.71-.06.27-.03.52-.1.75-.2.23-.1.45-.24.66-.41.21-.18.42-.4.62-.66.2-.26.41-.57.62-.94l.14.04-.64,2.44Z"/><path class="cls-1" d="m238.89,137.56c-.17.32-.4.6-.69.83-.29.23-.64.4-1.05.51-.41.11-.85.17-1.34.17-.42,0-.77-.03-1.07-.08-.3-.05-.54-.11-.74-.18-.2-.07-.34-.14-.44-.2-.1-.06-.16-.09-.18-.09s-.08.05-.17.15c-.08.1-.16.2-.23.29h-.11l-.04-2.54h.13c.08.23.17.45.29.67.12.22.25.42.39.61.14.19.29.36.45.5.16.14.31.26.45.33.14.08.34.15.57.23.24.08.47.11.69.11.63,0,1.14-.17,1.53-.52.39-.34.59-.81.59-1.4,0-.24-.04-.45-.11-.62-.08-.18-.18-.33-.31-.47-.13-.13-.29-.24-.47-.34-.18-.09-.37-.18-.57-.25-.2-.08-.38-.14-.54-.19-.15-.05-.3-.1-.43-.15-.13-.05-.27-.09-.41-.14-.14-.05-.31-.11-.5-.18-.22-.08-.43-.2-.64-.35-.2-.15-.38-.32-.54-.52-.15-.2-.28-.42-.37-.66-.09-.24-.14-.5-.14-.77,0-.46.08-.85.25-1.19.17-.33.39-.61.68-.83.28-.22.61-.38.98-.49.37-.11.76-.16,1.17-.16.38,0,.71.03.98.1.27.06.5.13.67.21.17.08.31.15.4.21.09.06.14.1.15.1.03,0,.08-.05.16-.15.08-.1.15-.2.22-.31h.14v2.36h-.14c-.1-.28-.23-.56-.4-.84-.16-.28-.35-.52-.56-.74-.21-.22-.45-.39-.73-.53-.27-.14-.57-.2-.91-.2-.26,0-.51.04-.75.11-.23.08-.44.19-.61.34-.17.15-.31.34-.41.57-.1.23-.15.48-.15.77,0,.45.14.81.41,1.08.27.27.62.49,1.06.65.17.07.33.13.48.18.15.05.29.1.44.15.14.05.29.1.44.15.15.05.3.11.46.17.58.21,1.02.52,1.34.92.32.4.48.91.48,1.51,0,.41-.08.77-.25,1.1Z"/></g></svg>