<?xml version="1.0" encoding="UTF-8"?><svg id="Layer_1" xmlns="http://www.w3.org/2000/svg" viewBox="0 0 320 240"><defs><style>.cls-1{fill:#294966;}.cls-1,.cls-2,.cls-3{stroke-width:0px;}.cls-2{fill:#2b4c68;}.cls-3{fill:#2a4b68;}</style></defs><g id="Global_Surgical_Innovations_Holdings_Pty_Ltd"><path class="cls-1" d="m196.25,104.02c-.79,1.13-1.57,2.25-2.35,3.37-.2.28-.48.18-.73.18-5.08,0-10.16,0-15.24,0-3.68,0-7.35-.02-11.03,0-3.73.02-7.4.42-10.95,1.67-4.48,1.58-8,4.35-10.47,8.41-.69,1.13-1.27,2.34-1.17,3.75.11,1.52,1.04,2.4,2.33,2.96,1.86.82,3.85,1.09,5.86,1.11,4.52.05,9.04.03,13.57.04.3,0,.54-.04.74-.33,1.48-2.14,2.98-4.26,4.47-6.39.07-.1.11-.23.2-.41h-12.29c.64-.93,1.28-1.72,1.76-2.59.5-.9,1.17-1.12,2.16-1.11,8.26.04,16.53.02,24.79.03.25,0,.52-.09.79.11-1.58,2.28-3.15,4.55-4.74,6.82-1.62,2.33-3.27,4.64-4.88,6.98-.28.4-.56.59-1.08.59-10.94-.02-21.87,0-32.81-.05-3.27-.02-6.53-.33-9.71-1.17-1.7-.45-3.34-1.06-4.68-2.28-1.58-1.44-1.87-3.21-1.28-5.16.68-2.25,2.01-4.14,3.54-5.89,4.68-5.35,10.85-7.91,17.6-9.38,4.96-1.08,9.99-1.36,15.05-1.36,9.96,0,19.91,0,29.87,0,.21,0,.43-.07.69.1Z"/><path class="cls-1" d="m99.89,141.81c-3.85-.02-7.65-.43-11.44-1.12-5.76-1.05-11.38-2.61-16.81-4.81-6.57-2.67-12.64-6.19-17.95-10.94-2.58-2.31-4.88-4.86-6.37-8.04-1.31-2.79-1.78-5.68-.89-8.68.65-2.18,1.99-3.89,3.81-5.23,2.77-2.06,5.97-3.08,9.29-3.81,3.88-.85,7.81-1.1,11.77-.93,4.84.21,9.61.97,14.31,2.14,1.04.26,1.2.45,1.17,1.49-.03.91-.11,1.82-.14,2.73-.02.55-.3.75-.81.71-.91-.08-1.78-.38-2.67-.56-4.32-.86-8.66-1.35-13.08-.99-3.36.28-6.63.89-9.65,2.45-2.04,1.06-3.71,2.51-4.42,4.82-.79,2.56-.3,4.95.93,7.25,1.38,2.6,3.44,4.61,5.67,6.45,3.83,3.15,8.1,5.55,12.7,7.36,4.11,1.62,8.36,2.76,12.72,3.52,3.58.63,7.19.92,10.82.65,3.34-.25,6.6-.85,9.62-2.38,2.13-1.08,3.79-2.61,4.51-4.99.13-.43.13-.88.21-1.31.09-.45.27-.64.77-.58,1.59.2,3.1.73,4.66,1.06,1.02.21,2.02.49,3.03.75,1.14.3,1.32.62,1.13,1.76-.58,3.47-2.64,5.83-5.6,7.53-2.33,1.34-4.87,2.13-7.48,2.7-3.24.7-6.51,1-9.82.97Z"/><path class="cls-1" d="m185.33,129.21c.87-1.23,1.66-2.35,2.45-3.47.2-.29.52-.21.8-.21,5.64,0,11.27,0,16.91,0,3.47,0,6.95.11,10.42-.08,2.62-.15,5.22-.5,7.59-1.76.8-.43,1.47-.99,2-1.72.82-1.11.58-2.06-.67-2.65-1.17-.55-2.43-.68-3.7-.78-3.49-.28-6.99-.11-10.49-.13-3.12-.02-6.23-.04-9.3-.69-1.33-.28-2.62-.69-3.67-1.63-.86-.77-1.08-1.71-.77-2.78.62-2.07,2.02-3.56,3.68-4.84,2.67-2.06,5.8-3.03,9.04-3.69,3.37-.68,6.79-.85,10.22-.85,10.76,0,21.52,0,32.27,0,.15,0,.31,0,.46,0,.08.24-.08.35-.17.49-.6.88-1.23,1.74-1.81,2.63-.27.41-.58.55-1.09.55-8.4-.02-16.79-.03-25.19,0-2.62.01-5.24.23-7.77,1.03-1.37.44-2.65,1.03-3.63,2.13-.3.33-.54.71-.69,1.13-.24.66-.07,1.23.52,1.63,1.05.71,2.27.86,3.48,1.02,1.62.21,3.25.17,4.87.19,3.39.04,6.77.02,10.16.08,2.23.04,4.44.28,6.59.91.79.23,1.55.54,2.22,1.04,1.26.96,1.57,2.27.91,3.71-1.09,2.38-2.92,4.03-5.14,5.31-2.64,1.52-5.52,2.3-8.49,2.79-2.99.49-6.01.66-9.04.66-10.82,0-21.65,0-32.47,0h-.51Z"/><path class="cls-1" d="m105.36,111.24c-.62-.65-1.35-1.12-2.02-1.65-2.38-1.88-4.78-3.74-7.18-5.61-.22-.17-.57-.33-.41-.67.16-.32.51-.28.82-.21,3.8.92,7.61,1.84,11.41,2.76,4.9,1.19,9.81,2.39,14.71,3.59.28.07.56.15.83.24.56.18.79.54.75,1.16-.19,2.51-.33,5.02-.5,7.52-.11,1.71-.24,3.42-.35,5.13-.03.56-.33.7-.84.65-.57-.05-1-.34-1.42-.67-2.92-2.27-5.84-4.54-8.76-6.82-.29-.22-.52-.28-.9-.19-6.67,1.71-13.35,3.4-20.02,5.1-1.14.29-2.28.57-3.41.88-.73.2-1.36.06-1.94-.39-1.61-1.26-3.22-2.51-4.83-3.77-.19-.15-.46-.28-.38-.56.07-.26.37-.3.6-.36,7.82-2,15.65-4,23.48-6,.1-.03.2-.08.35-.14Z"/><path class="cls-1" d="m274.03,103.98c-1.28,1.84-2.5,3.63-3.74,5.4-2.12,3.03-4.25,6.05-6.37,9.07-2.42,3.45-4.83,6.89-7.23,10.35-.18.26-.36.41-.69.4-4.65,0-9.31,0-13.96,0-.04,0-.08-.02-.19-.06.77-1.12,1.52-2.23,2.28-3.33,3.08-4.41,6.17-8.81,9.25-13.22,1.93-2.76,3.87-5.52,5.78-8.29.19-.27.37-.4.7-.4,4.65,0,9.31,0,13.96,0,.04,0,.08.02.22.06Z"/><path class="cls-1" d="m133.15,101.85c1.02,0,2.05,0,3.07,0,.79,0,1.08.3,1.09,1.08,0,.87-.04,1.74.02,2.6.04.6-.28.54-.68.56-.46.02-.69-.05-.65-.6.05-.73,0-1.47.02-2.2,0-.35-.11-.45-.46-.46-1.46-.06-1.46-.07-1.46,1.37,0,.38,0,.76,0,1.13,0,.68-.5,1-1.13.74-.24-.1-.16-.29-.16-.45,0-.78-.02-1.56,0-2.34,0-.35-.1-.45-.45-.46-1.46-.05-1.46-.06-1.46,1.37,0,.38,0,.76,0,1.13,0,.67-.58,1.02-1.2.75-.2-.09-.14-.26-.14-.4,0-1.13.01-2.27-.01-3.4,0-.37.14-.44.47-.44,1.05.02,2.09,0,3.14,0Z"/><path class="cls-1" d="m208.68,134.44c0,1.36,0,2.53,0,3.7,0,.39-.01.7-.54.71-.54,0-.54-.31-.54-.7,0-1.33,0-2.67,0-4,0-.35-.08-.81.38-.88.5-.08,1.08-.2,1.4.43.53,1.02,1.08,2.03,1.63,3.04.06.11.07.27.24.3,0-1.05,0-2.1,0-3.14,0-.41.04-.69.56-.68.52,0,.48.33.48.67,0,1.38,0,2.76,0,4.14,0,.33.08.73-.38.8-.46.06-.94.1-1.21-.44-.58-1.14-1.17-2.28-1.75-3.43-.06-.11-.12-.23-.26-.52Z"/><path class="cls-1" d="m214.56,134.45c0,1.33,0,2.49,0,3.64,0,.4.02.76-.56.75-.55,0-.52-.35-.52-.72,0-1.33,0-2.67,0-4,0-.35-.07-.8.4-.87.5-.07,1.07-.17,1.4.46.51,1,1.06,1.99,1.6,2.99.07.13.07.32.26.34,0-1.03,0-2.06,0-3.1,0-.36-.05-.71.51-.73.56-.01.53.31.53.69,0,1.36,0,2.71,0,4.07,0,.34.11.78-.4.85-.46.06-.94.08-1.2-.46-.57-1.15-1.16-2.29-1.74-3.43-.06-.11-.12-.22-.26-.48Z"/><path class="cls-1" d="m248.78,134.49c0,1.3,0,2.46,0,3.63,0,.42-.02.75-.58.73-.56-.01-.5-.38-.5-.74,0-1.33,0-2.67,0-4,0-.35-.06-.8.41-.85.48-.06,1.04-.18,1.35.42.52,1,1.06,1.99,1.61,2.98.08.14.08.37.34.39-.12-1.09-.04-2.17-.07-3.26-.01-.39.12-.57.53-.57.43,0,.51.2.51.58-.02,1.4,0,2.8,0,4.2,0,.32.1.74-.36.81-.48.08-.98.1-1.26-.46-.57-1.15-1.16-2.29-1.74-3.43-.06-.11-.12-.21-.25-.43Z"/><path class="cls-1" d="m139.13,134.57c-.64-.34-1.24-.62-1.94-.55-.2.02-.39.05-.58.13-.85.37-1.27,1.39-1.03,2.5.19.9.89,1.39,1.84,1.39.74,0,.62-.48.66-.95.05-.55-.24-.57-.64-.54-.33.03-.59.03-.59-.46,0-.46.22-.48.57-.48,1.74-.02,1.74-.02,1.74,1.69q0,1.38-1.36,1.62c-1.17.21-2.41-.26-2.95-1.1-.65-1.02-.63-2.61.05-3.6.6-.87,1.88-1.32,3.03-1.08,1.19.25,1.27.34,1.17,1.42Z"/><path class="cls-1" d="m185.65,134.54c-.59-.26-1.15-.55-1.82-.52-1.13.06-1.85.98-1.74,2.29.1,1.18.95,1.89,2.07,1.73.78-.11.38-.71.46-1.11.09-.45-.26-.37-.51-.36-.39.01-.77.05-.7-.56.03-.28.11-.41.4-.38.07,0,.13,0,.2,0q1.71-.02,1.71,1.71,0,1.37-1.38,1.6c-1.55.26-3.01-.53-3.27-1.92-.3-1.57-.03-3.08,1.65-3.7.68-.25,1.38-.28,2.09-.1.89.22.99.35.85,1.32Z"/><path class="cls-1" d="m175,135.49c0,.49.01.98,0,1.47-.03,1.08-.53,1.66-1.58,1.91-1.88.44-2.97-.43-2.97-2.36,0-.87.01-1.74,0-2.6,0-.39,0-.69.54-.69.51,0,.58.24.57.66-.02.96-.02,1.91,0,2.87.02.78.42,1.25,1.05,1.29.84.05,1.3-.36,1.32-1.2.02-1,.02-2,0-3,0-.41.1-.61.55-.62.45,0,.58.19.56.6-.03.55,0,1.11,0,1.67,0,0-.01,0-.02,0Z"/><path class="cls-1" d="m227.39,137.77c.48-1.49.91-2.78,1.31-4.08.09-.3.21-.45.53-.47.49-.03.71.06.51.63-.54,1.49-1.05,3-1.53,4.51-.17.53-.55.47-.95.49-.4.02-.67-.09-.8-.51-.48-1.47-.99-2.92-1.47-4.39-.07-.23-.4-.59.08-.69.36-.08.83-.2,1.01.42.31,1.1.7,2.18,1.05,3.27.07.21.13.41.27.82Z"/><path class="cls-1" d="m167.29,138.98c-.26,0-.67-.1-1.06-.25-.51-.19-.36-.62-.29-.96.05-.26.26-.03.36.02.43.21.88.31,1.35.25.32-.04.59-.16.67-.53.08-.36-.07-.62-.36-.79-.29-.17-.6-.28-.9-.43-.97-.49-1.34-1.28-1-2.17.27-.72,1.3-1.19,2.19-.96.43.11.97.12.95.8-.01.38-.1.56-.49.3-.31-.2-.66-.25-1.02-.22-.27.02-.48.14-.57.39-.09.28,0,.54.26.69.26.16.55.29.83.42,1.06.5,1.48,1.18,1.28,2.06-.19.81-1.02,1.37-2.21,1.38Z"/><path class="cls-1" d="m254.69,138.97c-.28-.03-.67-.1-1.05-.24-.51-.2-.36-.62-.29-.96.05-.27.26-.04.36.01.43.21.88.31,1.35.25.32-.04.6-.16.68-.53.08-.36-.06-.62-.35-.79-.29-.17-.6-.28-.9-.43-.98-.49-1.34-1.28-1.01-2.17.27-.72,1.29-1.19,2.19-.97.43.11.97.12.95.79,0,.37-.09.57-.49.31-.31-.2-.66-.25-1.02-.22-.27.02-.48.13-.57.39-.09.28,0,.54.25.69.26.16.55.29.83.42,1.06.5,1.49,1.18,1.28,2.06-.19.83-1.05,1.4-2.22,1.38Z"/><path class="cls-1" d="m193.13,137.64c.1,1.01.1,1.01-.79,1.22-1.78.42-2.94-.35-3.24-2.17-.23-1.4.26-3.27,2.13-3.57.58-.09,1.1.03,1.6.28.5.25.35.69.3,1.14-.44-.15-.75-.54-1.22-.52-.18,0-.36-.02-.53.02-.9.2-1.37,1.57-1.01,2.91.24.91,1.03,1.32,1.97,1.02.25-.08.49-.2.79-.33Z"/><path class="cls-3" d="m125.25,101.85c.87,0,1.73.02,2.6,0,.42-.01.47.19.47.53,0,.33-.08.52-.45.48-.11-.01-.22,0-.33,0q-1.7,0-1.7,1.74c0,.29-.03.58,0,.87.07.52-.12.67-.65.66-.49,0-.66-.12-.62-.63.05-.66-.03-1.34.02-2,.04-.56-.18-.69-.68-.65-.44.04-.89-.01-1.33.01-.41.02-.41-.21-.41-.5,0-.29,0-.51.41-.5.89.02,1.78,0,2.67,0Z"/><path class="cls-1" d="m235.92,136.47c0-.6-.03-1.2,0-1.8.03-.42-.13-.56-.53-.51-.22.03-.45-.01-.67,0-.41.04-.4-.22-.4-.51,0-.3.07-.44.41-.44,1.15.02,2.31.01,3.46,0,.34,0,.42.18.42.46,0,.27-.05.47-.4.48-.39.01-.95-.19-1.13.1-.2.33-.07.86-.08,1.3,0,.89-.02,1.78,0,2.66.01.41-.09.61-.55.62-.44,0-.59-.16-.57-.59.03-.6,0-1.2,0-1.8Z"/><path class="cls-3" d="m199.46,135.95c0-.71.02-1.42,0-2.13-.02-.43.14-.59.57-.61.47-.01.62.17.61.63-.02,1.13.03,2.27-.02,3.4-.03.58.17.74.71.67.22-.03.44,0,.67,0,.36-.03.57.02.57.48,0,.49-.26.47-.59.46-.62,0-1.24-.02-1.86,0-.47.02-.64-.19-.64-.63,0-.75,0-1.51,0-2.26Z"/><path class="cls-1" d="m161.52,135.61c0,.53.05,1.07-.01,1.6-.08.63.19.78.74.7.26-.03.53,0,.8,0,.35-.02.46.14.46.48,0,.35-.13.47-.47.47-.71-.02-1.42,0-2.13,0-.33,0-.48-.14-.48-.48,0-1.55.01-3.11,0-4.66,0-.42.23-.47.55-.47.32,0,.57.02.56.45-.02.64,0,1.29,0,1.93Z"/><path class="cls-1" d="m140.37,136.03c0-.76.02-1.51,0-2.27-.01-.42.17-.53.56-.54.38,0,.56.1.56.53-.02,1.2,0,2.4-.02,3.6,0,.41.08.62.54.57.31-.04.62,0,.93-.01.36-.02.53.09.53.48,0,.42-.21.47-.55.46-.67-.01-1.33-.02-2,0-.4.01-.56-.16-.55-.55.02-.75,0-1.51,0-2.27Z"/><path class="cls-2" d="m188.1,136.03c0,.75-.02,1.51,0,2.26.01.42-.17.54-.55.55-.39,0-.63-.08-.63-.55.02-1.51.02-3.02,0-4.53,0-.47.25-.55.63-.55.38,0,.56.13.55.55-.03.75,0,1.51,0,2.26Z"/><path class="cls-2" d="m206.41,136.1c0,.73-.02,1.47,0,2.2.02.42-.17.54-.55.55-.39,0-.63-.08-.63-.55.01-1.51.02-3.02,0-4.53,0-.47.24-.55.63-.55.38,0,.56.13.55.55-.03.78,0,1.55,0,2.33Z"/><path class="cls-1" d="m239.29,135.97c0-.73.02-1.47,0-2.2-.02-.42.17-.54.55-.55.38,0,.57.09.56.52-.02,1.53-.02,3.06,0,4.59,0,.44-.2.51-.57.51-.39,0-.56-.14-.54-.55.03-.78,0-1.55,0-2.33Z"/><path class="cls-1" d="m153.13,135.84c.63-.34.73-.91.61-1.53-.12-.62-.61-.87-1.18-1-.64-.15-1.28-.03-1.92-.09-.42-.04-.57.2-.58.55-.01,1.51-.01,3.02,0,4.53,0,.35.15.58.58.55.49-.03.98.03,1.46-.02.7-.07,1.43-.16,1.83-.87.46-.81.23-1.42-.8-2.12Zm-1.38-1.82c.53.05.91.17.92.78.01.57-.29.84-.93.84q-.57,0-.57-1c-.01-.26-.13-.69.58-.62Zm.01,3.91c-.77.06-.56-.43-.6-.84-.06-.56.13-.8.6-.65.86,0,1.19.24,1.18.76,0,.53-.32.66-1.18.72Z"/><path class="cls-1" d="m149.06,135.51c-.08-1.41-.87-2.25-2.27-2.41-1.39-.16-2.6.61-2.91,1.87-.19.76-.18,1.55.01,2.31.21.81.71,1.36,1.55,1.56,2.16.53,3.62-.62,3.62-2.87,0-.16,0-.31,0-.47Zm-1.2.49c0,.38.02.75-.12,1.12-.26.66-.69.93-1.45.92-.68-.01-1.05-.36-1.24-.99-.16-.55-.18-1.1-.08-1.65.19-1.04.72-1.45,1.69-1.37.75.06,1.19.67,1.2,1.64,0,.11,0,.22,0,.33Z"/><path class="cls-1" d="m224.45,135.5c-.09-1.38-.84-2.2-2.22-2.39-1.36-.19-2.53.51-2.92,1.76-.26.83-.23,1.66-.01,2.49.21.79.73,1.29,1.54,1.49,2.17.53,3.61-.62,3.61-2.88,0-.16,0-.31,0-.47Zm-1.34,1.67c-.26.63-.73.9-1.48.87-.65-.02-1.01-.38-1.18-.97-.17-.59-.19-1.18-.05-1.78.24-.99.75-1.37,1.71-1.26.69.08,1.13.68,1.15,1.56,0,.16,0,.31,0,.55.01.29,0,.67-.14,1.03Z"/><path class="cls-1" d="m246.74,135.57c-.12-1.41-.66-2.09-1.69-2.35-2.15-.53-3.62.64-3.62,2.88,0,1.54.57,2.47,1.7,2.74,2.25.54,3.82-.73,3.61-3.28Zm-1.21,1.12c-.18,1.02-.74,1.44-1.71,1.35-.72-.07-1.16-.67-1.18-1.59,0-.13,0-.27,0-.48-.03-.39,0-.85.25-1.27.33-.58.86-.73,1.48-.66.57.07.91.41,1.08.94.18.57.18,1.15.08,1.71Z"/><path class="cls-1" d="m180.26,138.11c-.28-.69-.45-1.45-1.12-1.99.82-.41,1.12-.89,1.03-1.6-.09-.68-.46-1.02-1.3-1.22-.64-.15-1.29-.03-1.93-.09-.47-.04-.64.15-.63.61.01,1.49.02,2.98,0,4.48,0,.42.16.55.55.54.38,0,.58-.11.56-.54-.03-.44-.02-.89,0-1.34,0-.18-.14-.44.13-.51.22-.06.48-.08.7.09.22.17.35.4.45.65.18.43.34.87.51,1.3.21.53.69.4,1.03.31.49-.14.1-.48.02-.69Zm-2.32-2.47c-.7.06-.52-.39-.54-.87-.05-.34-.04-.7.61-.63.5.06.95.08.99.71.03.52-.34.73-1.06.79Z"/><path class="cls-1" d="m198.62,138.21c-.53-1.47-1.07-2.94-1.57-4.42-.16-.47-.44-.58-.9-.57-.44,0-.73.06-.89.56-.48,1.47-1.03,2.91-1.54,4.37-.07.19-.29.42-.07.61.22.18.52.12.77.05.27-.07.32-.35.36-.59.09-.59.41-.83,1-.72.17.03.36.03.53,0,.66-.12,1.05.11,1.14.8.06.42.3.63.74.53.59.1.58-.21.43-.62Zm-3.31-1.66c.13-.4.26-.76.38-1.13.12-.35.23-.71.39-1.22.29.86.53,1.58.8,2.35h-1.57Z"/><path class="cls-1" d="m234.71,138.2c-.54-1.49-1.08-2.98-1.59-4.49-.17-.52-.55-.48-.95-.49-.4-.01-.65.07-.8.51-.5,1.48-1.05,2.95-1.56,4.43-.07.19-.29.41-.06.61.2.17.47.08.71.06.27-.03.36-.29.38-.49.06-.77.51-.93,1.17-.84.15.02.32.03.47,0,.63-.13.95.15,1.05.75.07.39.23.68.7.58.57.1.65-.15.48-.64Zm-3.3-1.65c.24-.74.48-1.45.75-2.27.38.77.56,1.51.8,2.27h-1.54Z"/><path class="cls-1" d="m159.51,138.15c-.5-1.44-1.02-2.87-1.5-4.31-.16-.48-.41-.71-.92-.6-.51-.12-.77.11-.93.59-.48,1.44-1,2.87-1.5,4.31-.07.2-.25.44-.06.61.21.19.51.1.77.05.27-.05.31-.34.33-.53.07-.68.46-.79,1.07-.8.83,0,1.55-.07,1.7,1.06.07.5.64.34.96.27.39-.1.15-.42.07-.65Zm-2.06-1.57c-1.22.11-1.26.08-.89-1.04.13-.39.28-.78.46-1.31.26.75.47,1.37.69,1.99.09.25.02.33-.26.36Z"/></g></svg>