<?xml version="1.0" encoding="UTF-8"?><svg id="Layer_1" xmlns="http://www.w3.org/2000/svg" viewBox="0 0 320 240"><defs><style>.cls-1{fill:#828282;}</style></defs><g id="Group_It_For_Me_Pty_Ltd"><path class="cls-1" d="m115.82,152.05c-1.07.56-2.18.96-3.34,1.21-1.16.25-2.35.37-3.55.37-1.29,0-2.47-.2-3.55-.6-1.08-.4-2.02-.98-2.81-1.73-.79-.75-1.4-1.66-1.85-2.73-.44-1.07-.66-2.26-.66-3.58s.22-2.51.66-3.58c.44-1.07,1.06-1.98,1.85-2.73.79-.75,1.73-1.33,2.81-1.73,1.08-.4,2.27-.6,3.55-.6s2.53.16,3.63.48c1.11.32,2.08.86,2.91,1.64l-2.55,2.79c-.5-.51-1.05-.9-1.67-1.16-.62-.26-1.39-.39-2.32-.39-.77,0-1.47.13-2.1.39-.63.26-1.16.63-1.61,1.1-.45.47-.79,1.03-1.03,1.68-.24.65-.36,1.35-.36,2.11s.12,1.48.36,2.12.58,1.2,1.03,1.67c.45.47.99.84,1.61,1.1.63.26,1.33.39,2.1.39s1.47-.09,2.04-.27c.57-.18,1.03-.36,1.37-.55v-2.67h-2.95v-3.34h6.43v8.59Z"/><path class="cls-1" d="m119.01,136.77h6.36c.84,0,1.63.08,2.38.24.75.16,1.41.43,1.97.81.56.38,1.01.89,1.35,1.53.33.64.5,1.44.5,2.4,0,1.16-.3,2.15-.91,2.96-.6.81-1.49,1.33-2.65,1.54l4.18,6.94h-4.34l-3.44-6.57h-1.79v6.57h-3.62v-16.44Zm3.62,6.8h2.14c.33,0,.67-.01,1.03-.03.36-.02.69-.09.99-.21.29-.12.54-.3.73-.55.19-.25.29-.6.29-1.05,0-.42-.09-.75-.26-1-.17-.25-.39-.44-.65-.57-.26-.13-.57-.22-.91-.27-.34-.05-.67-.07-1-.07h-2.37v3.74Z"/><path class="cls-1" d="m133.17,144.99c0-1.32.22-2.51.66-3.58.44-1.07,1.06-1.98,1.85-2.73.79-.75,1.73-1.33,2.81-1.73,1.08-.4,2.27-.6,3.55-.6s2.47.2,3.55.6c1.08.4,2.02.98,2.81,1.73.79.75,1.4,1.66,1.85,2.73.44,1.07.66,2.26.66,3.58s-.22,2.51-.66,3.58c-.44,1.07-1.06,1.98-1.85,2.73-.79.75-1.73,1.33-2.81,1.73-1.08.4-2.27.6-3.55.6s-2.47-.2-3.55-.6c-1.08-.4-2.02-.98-2.81-1.73-.79-.75-1.4-1.66-1.85-2.73-.44-1.07-.66-2.26-.66-3.58Zm3.76,0c0,.77.12,1.48.36,2.12.24.64.58,1.2,1.03,1.67.45.47.99.84,1.61,1.1.63.26,1.33.39,2.1.39s1.47-.13,2.1-.39c.63-.26,1.16-.63,1.61-1.1.45-.47.79-1.03,1.03-1.67.24-.64.36-1.35.36-2.12s-.12-1.46-.36-2.11c-.24-.65-.58-1.21-1.03-1.68-.45-.47-.99-.84-1.61-1.1-.63-.26-1.33-.39-2.1-.39s-1.47.13-2.1.39c-.63.26-1.16.63-1.61,1.1-.45.47-.79,1.03-1.03,1.68-.24.65-.36,1.35-.36,2.11Z"/><path class="cls-1" d="m167.23,146.87c0,.98-.15,1.87-.44,2.69-.29.82-.73,1.53-1.31,2.14-.58.6-1.3,1.08-2.17,1.42-.87.34-1.87.51-3,.51s-2.15-.17-3.02-.51c-.87-.34-1.59-.81-2.17-1.42-.58-.6-1.02-1.32-1.31-2.14-.29-.82-.44-1.72-.44-2.69v-10.1h3.62v9.96c0,.51.08.98.24,1.42.16.43.39.81.69,1.13.29.32.65.57,1.06.74.41.18.86.27,1.34.27s.92-.09,1.32-.27c.4-.18.75-.43,1.04-.74.29-.32.52-.69.69-1.13.16-.43.24-.91.24-1.42v-9.96h3.62v10.1Z"/><path class="cls-1" d="m170.58,136.77h6.11c.85,0,1.66.08,2.41.23.76.16,1.42.42,1.99.8.56.38,1.01.89,1.35,1.53.33.64.5,1.45.5,2.43s-.16,1.76-.46,2.42c-.31.65-.74,1.17-1.28,1.56-.54.39-1.18.66-1.93.82-.74.16-1.55.24-2.41.24h-2.65v6.41h-3.62v-16.44Zm3.62,6.97h2.41c.33,0,.64-.03.94-.09s.57-.17.81-.31c.24-.15.43-.35.58-.6.15-.25.22-.58.22-.96,0-.42-.1-.75-.29-1.01-.19-.26-.44-.45-.74-.59-.3-.14-.64-.23-1.01-.27-.37-.04-.73-.06-1.07-.06h-1.86v3.9Z"/><path class="cls-1" d="m192.03,136.77h3.62v16.44h-3.62v-16.44Z"/><path class="cls-1" d="m202.13,139.98h-4.69v-3.2h13v3.2h-4.69v13.23h-3.62v-13.23Z"/><path class="cls-1" d="m101.08,159.15h11.03v3.34h-7.41v3.34h6.85v3.34h-6.85v6.41h-3.62v-16.44Z"/><path class="cls-1" d="m113.83,167.37c0-1.32.22-2.51.66-3.58.44-1.07,1.06-1.98,1.85-2.73.79-.75,1.73-1.33,2.81-1.73,1.08-.4,2.27-.6,3.55-.6s2.47.2,3.55.6c1.08.4,2.02.98,2.81,1.73.79.75,1.4,1.66,1.85,2.73.44,1.07.66,2.26.66,3.58s-.22,2.51-.66,3.58c-.44,1.07-1.06,1.98-1.85,2.73-.79.75-1.73,1.33-2.81,1.73-1.08.4-2.27.6-3.55.6s-2.47-.2-3.55-.6c-1.08-.4-2.02-.98-2.81-1.73-.79-.75-1.4-1.66-1.85-2.73-.44-1.07-.66-2.26-.66-3.58Zm3.76,0c0,.77.12,1.48.36,2.12.24.64.58,1.2,1.03,1.67.45.47.99.84,1.61,1.1.63.26,1.33.39,2.1.39s1.47-.13,2.1-.39c.63-.26,1.16-.63,1.61-1.1.45-.47.79-1.03,1.03-1.67.24-.64.36-1.35.36-2.12s-.12-1.46-.36-2.11c-.24-.65-.58-1.21-1.03-1.68-.45-.47-.99-.84-1.61-1.1-.63-.26-1.33-.39-2.1-.39s-1.47.13-2.1.39c-.63.26-1.17.63-1.61,1.1-.45.47-.79,1.03-1.03,1.68-.24.65-.36,1.35-.36,2.11Z"/><path class="cls-1" d="m134.03,159.15h6.36c.84,0,1.63.08,2.38.24.75.16,1.41.43,1.97.81.56.38,1.01.89,1.35,1.53.33.64.5,1.44.5,2.4,0,1.16-.3,2.15-.91,2.96-.6.81-1.49,1.33-2.65,1.54l4.18,6.94h-4.34l-3.44-6.57h-1.79v6.57h-3.62v-16.44Zm3.62,6.8h2.14c.33,0,.67-.01,1.03-.03.36-.02.69-.09.99-.21.29-.12.54-.3.73-.55.19-.25.29-.6.29-1.05,0-.42-.09-.75-.26-1-.17-.25-.39-.44-.65-.57-.26-.13-.57-.22-.91-.27-.34-.05-.67-.07-1-.07h-2.37v3.74Z"/><path class="cls-1" d="m155.95,159.15h5.48l3.78,10.73h.05l3.81-10.73h5.46v16.44h-3.62v-12.61h-.05l-4.32,12.61h-2.76l-4.16-12.61h-.05v12.61h-3.62v-16.44Z"/><path class="cls-1" d="m178,159.15h11.17v3.34h-7.55v3.06h7.13v3.34h-7.13v3.34h7.96v3.34h-11.59v-16.44Z"/><path class="cls-1" d="m193.84,173.59c0-.29.05-.57.16-.84.11-.26.26-.49.45-.69.19-.19.42-.34.69-.45.26-.11.54-.16.84-.16s.57.05.84.16c.26.11.49.26.68.45.19.19.34.42.45.69.11.26.16.54.16.84s-.05.57-.16.84c-.11.26-.26.49-.45.68-.19.19-.42.35-.68.45-.26.11-.54.16-.84.16s-.57-.05-.84-.16c-.26-.11-.49-.26-.69-.45-.19-.19-.34-.42-.45-.68-.11-.26-.16-.54-.16-.84Zm3.88-3.44h-3.48v-11.01h3.48v11.01Z"/><path class="cls-1" d="m230.95,48.82v142.35H89.05V48.82h141.89m2.98-2.98H86.07v148.32h147.86V45.84h0Z"/></g></svg>