<?xml version="1.0" encoding="UTF-8"?><svg id="Layer_1" xmlns="http://www.w3.org/2000/svg" viewBox="0 0 320 240"><defs><style>.cls-1,.cls-2{stroke-width:0px;}.cls-2{fill:#f67c31;}</style></defs><path class="cls-2" d="m34.44,119.18c1.05-.08,2.07-.13,3.1-.19,2.99-.18,5.93-.62,8.78-1.54,2.34-.75,4.53-1.79,6.46-3.35,2.63-2.13,4.2-4.87,4.65-8.23.05-.4.08-.81.09-1.21,0-.26.1-.35.36-.35.56.01,1.12,0,1.68,0,1.68,0,3.36,0,5.04,0,.45,0,.46,0,.46.45,0,4.71-1.39,8.92-4.51,12.51-1.12,1.29-2.38,2.4-3.76,3.4-.14.1-.42.18-.31.39.09.17.31,0,.46-.07,4.16-1.62,7.5-4.24,9.75-8.14,1.22-2.11,1.93-4.39,2.08-6.83.03-.44.06-.88.05-1.32,0-.38,0-.38.4-.39.37,0,.75,0,1.12,0,1.81,0,3.63,0,5.44,0,.54,0,.55,0,.57.51.28,6.03-1.51,11.37-5.36,16.02-1.46,1.76-3.15,3.26-5.03,4.56-.13.09-.42.16-.3.38.09.18.31,0,.46-.03,3.16-.95,5.81-2.71,8.06-5.1,2.56-2.74,4.32-5.92,5.29-9.54.57-2.11.78-4.25.64-6.44-.02-.36-.03-.36.34-.37,1.19,0,2.37,0,3.56,0,1.09,0,2.17,0,3.26,0,.43,0,.48-.04.54.44.21,1.82.19,3.64,0,5.47-.32,3.21-1.13,6.29-2.45,9.23-2.58,5.79-6.58,10.29-12.26,13.21-2.63,1.35-5.41,2.21-8.33,2.67-.95.15-1.91.28-2.88.32-1.62.08-3.08-.35-4.35-1.38-2.06-1.66-4.14-3.29-6.28-4.84-3.7-2.68-7.57-5.07-11.54-7.32-1.58-.89-3.17-1.76-4.75-2.64-.18-.1-.35-.2-.53-.3Z"/><path class="cls-1" d="m85.23,132.05c-.05-.2.06-.37.11-.54,2.23-7.27,4.46-14.54,6.68-21.81.08-.26.16-.38.47-.38,2.81.01,5.63,0,8.44,0,.07,0,.13.01.25.02-.84,2.76-1.68,5.49-2.52,8.23.15.11.29.07.41.07,2.34,0,4.68,0,7.02,0,.5,0,.44.09.61-.46.77-2.5,1.54-5.01,2.3-7.51.08-.26.18-.35.45-.35,2.85,0,5.7,0,8.54,0,.03,0,.07.01.13.02.04.15-.04.28-.08.42-2.23,7.3-4.47,14.6-6.71,21.9-.13.41-.13.41-.49.41-2.8,0-5.59,0-8.39,0-.08,0-.17.02-.28-.08.95-3.12,1.92-6.27,2.88-9.41-.17-.1-.32-.06-.47-.06-2.32,0-4.64,0-6.97,0-.46,0-.46,0-.6.46-.88,2.87-1.76,5.75-2.64,8.62-.14.46-.14.46-.61.46-2.7,0-5.39,0-8.09,0-.15,0-.3.04-.44-.04Z"/><path class="cls-1" d="m157.19,109.35c-.27.91-.53,1.76-.79,2.63.22-.02.32-.15.44-.23,2.14-1.53,4.53-2.4,7.13-2.72,1.2-.15,2.4-.21,3.6-.08.92.1,1.81.31,2.61.77,1.65.95,2.31,2.44,2.28,4.29-.02,1.05-.33,2.03-.63,3.02-1.5,4.88-3,9.76-4.49,14.64-.13.44-.14.44-.57.44-2.73,0-5.46,0-8.19,0-.12,0-.24,0-.35,0-.1-.18.01-.31.06-.45,1.33-4.35,2.66-8.69,3.99-13.04.18-.6.33-1.21.22-1.84-.17-.93-.67-1.48-1.6-1.57-1.06-.11-2.14-.12-3.2.01-1.07.13-1.86.76-2.49,1.61-.39.52-.63,1.11-.82,1.73-1.34,4.38-2.69,8.76-4.03,13.13-.08.26-.13.43-.49.43-2.81-.02-5.63-.01-8.44-.01-.07,0-.13-.01-.24-.02.15-.5.29-.98.43-1.46,2.13-6.93,4.25-13.86,6.38-20.79.03-.1.07-.19.09-.29.02-.14.1-.2.24-.2.07,0,.14,0,.2,0,2.78,0,5.56,0,8.34,0,.08,0,.17,0,.32.02Z"/><path class="cls-1" d="m285.56,109.1c-4.29,3.82-8.57,7.63-12.85,11.44,2.96,3.97,5.9,7.92,8.86,11.89-.16.09-.3.06-.42.06-3,0-6,0-9,.01-.35,0-.55-.11-.75-.38-2.12-2.86-4.24-5.7-6.36-8.56-.13-.17-.26-.35-.41-.55-.15.18-.17.37-.23.53-.86,2.81-1.72,5.62-2.58,8.43-.18.59-.05.51-.67.52-2.68,0-5.36,0-8.04,0h-.42c-.05-.17.02-.3.06-.44,2.31-7.53,4.61-15.05,6.92-22.58.15-.48.04-.46.62-.46,2.7,0,5.39,0,8.09,0h.48c-.75,2.46-1.48,4.87-2.21,7.28.02.01.04.03.06.04.19-.16.38-.31.57-.47,2.62-2.2,5.23-4.41,7.84-6.62.19-.16.38-.24.64-.24,3.17,0,6.34,0,9.51,0,.09,0,.2-.03.31.08Z"/><path class="cls-1" d="m183.73,115.76c1.57-1.23,3.15-2.46,4.72-3.69,1.12-.88,2.24-1.76,3.35-2.64.17-.13.32-.22.55-.22,3.44,0,6.88,0,10.32,0,.05,0,.1,0,.16.1-4.5,3.71-9.02,7.42-13.56,11.16,2.76,3.93,5.5,7.84,8.26,11.77-.21.09-.38.05-.54.05-2.86,0-5.73,0-8.59.01-.36,0-.57-.1-.78-.4-1.98-2.85-3.98-5.68-5.98-8.52-.1-.13-.16-.3-.35-.4-.31,1.02-.62,2.04-.93,3.05-.6,1.97-1.22,3.94-1.81,5.91-.08.26-.18.35-.45.35-2.83,0-5.66,0-8.49,0-.05,0-.1-.01-.17-.02-.02-.26.1-.49.18-.72,2.23-7.29,4.46-14.57,6.7-21.86q.15-.49.65-.49c2.68,0,5.36,0,8.04,0,.15,0,.3-.02.45.03.04.15-.02.27-.06.4-.57,1.86-1.14,3.71-1.72,5.57-.03.1-.05.2-.07.29-.02.12-.1.28.14.25Z"/><path class="cls-1" d="m251.6,110.09c-1.69-1.09-3.58-1.58-5.56-1.76-2.21-.2-4.4-.04-6.57.4-2.74.55-5.27,1.6-7.5,3.31-3.17,2.44-5.13,5.67-6.12,9.5-.41,1.59-.47,3.21-.06,4.82.67,2.65,2.34,4.45,4.77,5.59,2.07.97,4.28,1.23,6.53,1.2,2.28-.02,4.53-.25,6.73-.86,2.79-.77,5.22-2.13,7.18-4.28,1.57-1.73,2.65-3.75,3.46-5.92.57-1.53,1.01-3.08,1.01-4.73,0-3.11-1.24-5.57-3.88-7.27Zm-5.43,10.6c-.46,1.52-1.12,2.94-2.19,4.14-1.47,1.65-3.35,2.35-5.4,2.35-.79-.03-1.44-.07-2.08-.28-1.27-.41-2.02-1.35-2.14-2.68-.11-1.13.12-2.22.42-3.3.39-1.38.96-2.67,1.83-3.82,1.51-1.98,3.54-2.87,6-2.84.61,0,1.22.07,1.81.25,1.39.42,2.17,1.39,2.27,2.85.08,1.15-.18,2.25-.5,3.34Z"/><path class="cls-1" d="m225.23,116.41c-.2-2.31-1.17-4.21-2.96-5.69-1.46-1.2-3.17-1.85-5.01-2.2-1.57-.29-3.16-.33-4.76-.22-2.3.15-4.52.6-6.67,1.44-5.72,2.25-9.79,7.51-10.47,13.58-.16,1.45.04,2.87.61,4.22.95,2.27,2.69,3.73,4.93,4.64,1.91.78,3.93,1,5.97.97,2.3-.02,4.56-.25,6.78-.87,3.28-.91,6.03-2.64,8.07-5.4,1.32-1.79,2.23-3.78,2.9-5.88.48-1.5.74-3.02.61-4.59Zm-9.27,4.27c-.45,1.51-1.1,2.91-2.15,4.1-1.46,1.66-3.32,2.38-5.55,2.4-.44-.05-.93-.04-1.42-.14-1.81-.37-2.8-1.49-2.73-3.35.1-2.55.9-4.89,2.52-6.88,1.46-1.81,3.43-2.57,5.73-2.55.63,0,1.25.07,1.86.26,1.36.42,2.14,1.4,2.23,2.82.07,1.15-.17,2.25-.5,3.34Z"/><path class="cls-1" d="m142.46,111.04c-.71-.59-1.53-.99-2.4-1.29-1.9-.65-3.87-.84-5.85-.88-2.67-.06-5.31.24-7.93.73-1.7.32-3.37.72-5.02,1.24-.36.11-.36.12-.26.48.31,1.05.61,2.11.92,3.16.12.42.24.84.36,1.25.21,0,.36-.09.52-.15,2.75-1.04,5.57-1.71,8.54-1.38.79.09,1.58.18,2.32.53.89.42,1.2,1.09.94,2.04-.15.55-.32,1.1-.49,1.65-.1.33-.11.34-.46.22-1.29-.42-2.61-.71-3.95-.93-2.08-.34-4.16-.29-6.21.17-2.38.54-4.49,1.59-6.17,3.41-1.49,1.62-2.41,3.51-2.64,5.7-.23,2.2.69,3.98,2.89,4.88.84.34,1.72.53,2.61.6,2.78.23,5.47-.23,8.08-1.18.71-.26,1.39-.59,2.14-.89-.09.59-.37,1.09-.43,1.67h.48c2.68,0,5.36,0,8.04,0q.5,0,.65-.48c1.49-4.86,2.99-9.72,4.48-14.59.2-.66.4-1.32.46-2.02.15-1.6-.36-2.93-1.61-3.96Zm-9.95,12.59c-.24.77-.48,1.55-.71,2.32-.07.23-.19.36-.42.46-1.71.7-3.49,1.07-5.34,1-.61-.02-1.21-.13-1.77-.39-.94-.44-1.29-1.21-1.01-2.21.23-.83.75-1.42,1.47-1.86.92-.56,1.95-.73,3.01-.79.32-.02.64,0,.9,0,1.13.07,2.19.16,3.22.47.05.01.1.02.15.04q.73.23.5.96Z"/></svg>