<?xml version="1.0" encoding="UTF-8"?><svg id="Layer_1" xmlns="http://www.w3.org/2000/svg" viewBox="0 0 320 240"><defs><style>.cls-1{fill:#a69d95;}.cls-1,.cls-2,.cls-3{stroke-width:0px;}.cls-2{fill:#a79e96;}.cls-3{fill:#ec7423;}</style></defs><g id="Hegs_Australia"><path class="cls-1" d="m184,182.13c.81-2.91-.01-5.22-2.31-6.49-1.08-.6-2.26-.92-3.48-1.1-1.97-.29-3.96-.27-5.94-.36-1.04-.05-2.08-.22-2.85-1.04-.28-.3-.42-.67-.21-1.09.23-.47.56-.21.87-.13,2.58.62,5.13.62,7.67-.29,3.84-1.39,7.22-5.44,5.88-10.06-.15-.51.22-.6.51-.81.96-.73,1.13-1.74.99-2.87-.14-1.06-.67-1.75-1.74-1.97-.99-.21-1.96-.08-2.87.33-.49.22-.88.19-1.36-.06-3.34-1.75-6.81-1.97-10.26-.49-3.26,1.41-5.48,3.76-5.71,7.53-.13,2.13.6,3.95,1.98,5.55.25.29.65.54.14,1.04-2.81,2.72-.81,6.54,1.76,7.46,1.74.62,3.52,1.01,5.38.96,1.25-.03,2.51.06,3.73.37.68.17,1.24.55,1.37,1.32.25,1.37-.23,2.35-1.53,2.88-1.98.8-4,.77-5.99,0-.81-.31-1.39-.89-1.5-1.81-.06-.52-.4-.87-.8-1.18-1.12-.86-2.39-1.36-3.77-1.55-1.02-.14-1.73.26-2.1,1.22-.77,2.01-.41,3.84,1.01,5.45.98,1.11,2.27,1.73,3.62,2.25.73.28,1.55.28,2.22.74h8.08c.34-.3.79-.26,1.19-.37,2.89-.84,5.17-2.35,6.02-5.44Zm-8.26-21.7c1.19.46,1.91,1.31,1.96,2.61.04,1.29-.59,2.2-1.76,2.75-.76.36-1.57.48-2.54.49-.75-.02-1.62-.16-2.42-.59-1.1-.61-1.68-1.66-1.53-2.88.16-1.35,1.04-2.11,2.25-2.49,1.35-.43,2.71-.4,4.03.12Z"/><path class="cls-3" d="m161.05,52.07c-27.01-.53-48.41,21.09-48.72,47.01-.33,27.05,21.68,48.44,47.7,48.29,25.89.11,47.01-20.79,47.63-46.4.66-26.89-20.74-48.4-46.6-48.91Zm-1.11,90.4c-24.1-.03-42.67-19.59-42.69-42.7-.02-23.68,19.39-43.15,43.45-42.77,23.36.37,42.14,19.6,42.01,42.8.09,22.87-18.44,42.71-42.78,42.68Z"/><path class="cls-1" d="m136.6,159.76c-1.45-3.96-4.93-5.1-8.96-4.6-1.87.23-3.47,1.07-4.83,2.7,0-.53,0-.82,0-1.12,0-2.75,0-5.51,0-8.26,0-1.52-.79-2.38-2.29-2.6-.21-.03-.42-.06-.64-.07-2.71-.15-3.92.82-3.91,3.3.06,8.69.02,17.38.03,26.07,0,.34-.02.68.03,1.01.15,1.07.69,1.82,1.77,2.09.77.2,1.55.33,2.36.2,2.06-.34,2.66-1.04,2.66-3.12,0-3.95,0-7.9,0-11.84,0-.36-.06-.72.22-1.04,1.12-1.27,3.88-1.84,5.46-1.1,1.44.68,1.87,1.93,1.87,3.4,0,3.46,0,6.92,0,10.37,0,2.34.99,3.33,3.34,3.37,2.54.04,3.54-.92,3.54-3.42,0-3.79.01-7.59,0-11.38,0-1.35-.18-2.68-.65-3.96Z"/><path class="cls-1" d="m156.3,156.21c-2.01-1.12-4.19-1.46-6.46-1.33-3.97.24-7.06,1.98-8.79,5.63-1.71,3.6-1.82,7.37-.62,11.16.94,2.96,2.91,4.98,5.79,6.09,2.57.99,5.24,1.06,7.94.7,1.77-.24,3.46-.77,4.94-1.82.73-.52,1.37-1.1,1.38-2.13.03-2.34-2-3.73-4.12-2.76-1.11.51-2.21,1.01-3.43,1.24-2.98.57-5.45-.64-6.38-3.15-.36-.98-.34-1.02.68-1.02,1.71,0,3.43,0,5.14,0,1.77,0,3.55.02,5.32,0,1.85-.03,2.97-.81,3.26-2.35.7-3.69-.82-8.11-4.65-10.25Zm-2.75,8.08c-1.04,0-2.08,0-3.12,0-1.16,0-2.32,0-3.48,0-.42,0-.7-.05-.64-.6.2-1.89,1.89-3.49,3.9-3.65,2.15-.17,3.82,1,4.3,3.02.25,1.08.14,1.22-.96,1.22Z"/><path class="cls-1" d="m200.29,165.81c-1.47-.77-3.04-1.26-4.62-1.75-.99-.31-2.01-.58-2.84-1.24-.88-.7-.73-1.74.3-2.17.69-.29,1.42-.29,2.16-.18,1.66.24,3.13,1,4.68,1.57,1.2.44,2.15.11,2.89-.92,1.2-1.69.94-3.34-.88-4.34-4-2.21-8.21-2.56-12.43-.76-4.32,1.84-5.2,7.63-1.71,10.54.95.79,2.06,1.29,3.2,1.75,1.75.71,3.65,1.01,5.33,1.94.66.37,1.17.83,1,1.67-.17.85-.88,1.04-1.59,1.14-1.36.18-2.68-.03-3.93-.63-.74-.36-1.47-.75-2.22-1.09-1.65-.75-3.02-.24-3.78,1.4-.7,1.5-.24,2.87,1.29,3.83,2.29,1.44,4.8,2.09,7.55,2,1.62.06,3.25-.16,4.81-.75,2.59-.98,4.21-2.79,4.45-5.62.26-2.96-1.07-5.05-3.66-6.4Z"/><path class="cls-2" d="m202.68,149.92c.02.35.1.63.49.63.42,0,.46-.31.43-.64-.07-.79-.13-1.58-.18-2.37-.03-.36.03-.77-.46-.87-.52-.12-.77.2-.98.62-.24.46-.33,1.02-.83,1.39-.29-.58-.55-1.09-.8-1.61-.17-.36-.47-.45-.84-.41-.39.05-.46.33-.49.66-.06.85-.13,1.7-.19,2.55-.02.31-.04.66.39.67.39.01.5-.28.51-.62,0-.56,0-1.12,0-1.91.54.6.66,1.11.87,1.57.13.27.31.47.61.47.31,0,.48-.2.59-.48.17-.42.38-.82.64-1.38.32.7.21,1.23.24,1.73Z"/><path class="cls-2" d="m195.51,146.64c-.32,0-.66.03-.67.44,0,.41.33.47.66.44.53-.05.6.24.58.67-.02.61,0,1.22,0,1.83,0,.33.16.53.48.53.33,0,.46-.22.46-.55-.01-.52.02-1.04,0-1.55-.04-.59.01-1.04.79-.94.27.03.48-.12.48-.43,0-.3-.21-.42-.48-.43-.4,0-.79,0-1.19,0h0c-.37,0-.73,0-1.1,0Z"/><path class="cls-3" d="m174.42,67.78c-1.52-.72-3.11-.84-4.73-.4-2.74.75-4.76,3.08-5.04,5.78-.32,3.13,1.05,5.8,3.76,7.13,1.77.87,3.46,1.83,4.91,3.16,1.69,1.55,3.38,3.13,4.07,5.43.49,1.61-.18,2.93-1.72,3.56-.75.31-1.54.36-2.34.36-4.44,0-8.88,0-13.31,0,0,0,0-.02,0-.02-4.56,0-9.12,0-13.68,0-2.13,0-3.59-.97-3.81-2.58-.18-1.25.36-2.34,1.07-3.32,1.97-2.77,4.49-4.9,7.57-6.36,3.6-1.72,5.16-5.74,3.56-9.22-1.66-3.61-5.74-5.08-9.43-3.39-15.15,6.92-23.45,24.12-19.29,40.24,2.76,10.67,9.19,18.44,19.1,23.31,2.17,1.07,4.37,1.1,6.51-.05,2.42-1.3,3.67-3.41,3.66-6.13,0-2.75-1.26-4.92-3.76-6.15-2.56-1.26-4.83-2.87-6.7-5.02-.94-1.08-1.86-2.19-2.21-3.65-.37-1.56.31-2.9,1.79-3.46.72-.27,1.48-.35,2.25-.35,8.75,0,17.51,0,26.26,0,.3,0,.61.06.91.05,2.96-.12,5.14,2.24,2.67,5.82-.02.03-.04.05-.05.07-2.03,2.81-4.6,4.95-7.73,6.45-3.7,1.77-5.17,5.81-3.46,9.39,1.67,3.49,5.76,4.86,9.44,3.16,14.66-6.8,22.78-22.28,19.76-38.3-2.24-11.85-9.09-20.32-19.98-25.51Z"/></g></svg>