<?xml version="1.0" encoding="UTF-8"?><svg id="Layer_1" xmlns="http://www.w3.org/2000/svg" viewBox="0 0 320 240"><defs><style>.cls-1{fill:#b7b7b7;}.cls-2{fill:#b9b9b9;}.cls-3{fill:#5f5f5f;}</style></defs><g id="Identitii_Pty_Ltd"><path class="cls-3" d="m205.43,91.54c-1.15-9.52-9.13-17.06-18.62-17.62-.93,0-1.85,0-2.78,0-5.26.41-9.76,2.48-13.34,6.35-4.47,4.83-8.86,9.72-13.28,14.59-3.03,3.34-6.1,6.64-9.04,10.06-4.39,5.12-9.86,7.39-16.53,6.42-9.85-1.44-16.54-11.19-14.44-20.88,1.65-7.62,7.92-13.17,15.7-13.9,7.5-.71,14.79,3.78,17.74,10.93.08.19.15.37.24.55.35.65.92.88,1.6.66.69-.23.97-.78.85-1.5-.04-.22-.12-.44-.21-.65-2.84-6.58-7.75-10.66-14.73-12.28-.88-.2-1.8-.14-2.65-.5h-.17c-.85.36-1.73.1-2.6.15-.51.06-1.03.1-1.54.17-10.98,1.48-18.83,12.15-17.03,23.11,2.37,14.36,18.4,21.62,30.73,13.93,2.3-1.43,4.05-3.43,5.84-5.43,7.04-7.85,14.11-15.66,21.24-23.41,4.25-4.62,9.61-6.51,15.8-5.52,10.11,1.6,16.59,11.5,14.21,21.47-2.09,8.76-10.82,14.63-19.69,13.13-6.54-1.1-11.08-4.82-13.69-10.91-.14-.32-.25-.64-.55-.85-.53-.37-1.09-.39-1.6,0-.62.48-.58,1.11-.33,1.79,3.19,8.56,12.65,14.08,21.72,12.65,10.99-1.73,18.43-11.53,17.11-22.51Z"/><path class="cls-3" d="m86.37,160.74c0-5.71,0-11.42,0-17.13,0-.7-.08-1.32-.83-1.63-.84-.35-1.33.17-1.81.73v22.57c.39.69.94,1.11,1.76.84.81-.26.88-.95.87-1.68-.02-1.23,0-2.47,0-3.7Z"/><path class="cls-3" d="m85.75,132.02c-.69-.42-1.31-.21-2,.69v2.41c.82.84,1.39,1,2.05.57.88-.58.85-3.13-.05-3.67Z"/><path class="cls-2" d="m186.79,73.77h-2.76c0,.05,0,.1-.01.15.93,0,1.85,0,2.78,0-.01-.05-.01-.1-.01-.15Z"/><path class="cls-1" d="m135.79,73.77h-2.58c0,.05,0,.1-.01.15.87-.05,1.75.21,2.6-.15Z"/><path class="cls-3" d="m116.97,132.08c-.2-.65-.65-1.03-1.34-.99-.68.04-1.13.4-1.23,1.1-.04.28-.02.57-.02.86,0,3.73,0,7.46,0,11.42-.33-.39-.51-.61-.69-.82-4.25-4.96-11.18-5.23-15.64-.62-4.81,4.98-5.21,13.49-.87,18.9,4.51,5.63,11.92,5.75,16.6.28.16-.18.24-.46.61-.54,0,.76-.03,1.5,0,2.23.05.91.84,1.48,1.69,1.2.74-.24.93-.83.93-1.57,0-10.28,0-20.56,0-30.85,0-.2.02-.41-.04-.6Zm-5.76,29.03c-3.49,3.54-8.74,3.21-11.9-.74-1.63-2.04-2.49-4.61-2.48-8.37.04-2.14.95-4.89,3.12-7.12,3.24-3.34,7.98-3.33,11.25-.03,4.21,4.25,4.21,11.99,0,16.25Z"/><path class="cls-3" d="m128.06,142.72c-5.54,5.27-5.64,14.97-.19,20.35,5.31,5.24,13.45,3.76,17.06-3.04.38-.71.15-1.43-.48-1.8-.63-.36-1.34-.18-1.8.48-.24.35-.44.74-.69,1.09-2.21,3.17-5.76,4.49-9.08,3.38-3.17-1.07-6.08-4.96-6.26-8.32-.03-.59.26-.58.67-.57,2.96,0,5.92,0,8.87,0,2.96,0,5.92,0,8.87,0,1.18,0,1.63-.45,1.62-1.6-.03-3.17-.96-6.05-2.9-8.57-4.04-5.25-11.02-5.86-15.71-1.4Zm15.05,8.96c-2.64-.04-5.28-.02-7.93-.02-2.64,0-5.28,0-7.93,0-.34,0-.7.07-.63-.5.4-3.2,2.53-7.25,6.53-8.46,3.16-.95,6.43.25,8.63,3.17,1.11,1.47,1.74,3.15,2.09,4.95.13.68-.07.87-.77.86Z"/><path class="cls-3" d="m162.45,140.92c-2.51.34-4.54,1.68-6.49,3.57,0-.64.04-1.07,0-1.49-.08-.7-.54-1.09-1.21-1.13-.72-.04-1.19.36-1.36,1.06-.05.22-.03.46-.03.69,0,6.95,0,13.89,0,20.84,0,.2-.02.41.02.6.13.72.57,1.12,1.31,1.11.73,0,1.18-.4,1.28-1.13.03-.25.02-.52.02-.77,0-4.19,0-8.38,0-12.57,0-3.77,2.21-6.79,5.81-7.94,4.72-1.51,8.49,1.22,8.49,6.16,0,4.79,0,9.59,0,14.38,0,.34-.03.69.1,1.02.25.61.69.9,1.34.86.62-.04,1.02-.37,1.16-.97.07-.3.08-.63.08-.94,0-4.91.03-9.82,0-14.73-.05-6.33-4.84-9.4-10.49-8.62Z"/><path class="cls-3" d="m215.42,140.47c-1.32-.01-2.64-.03-3.96.01-.59.02-.72-.19-.71-.73.03-1.43.02-2.87,0-4.31,0-1-.49-1.56-1.32-1.55-.84,0-1.29.55-1.3,1.57,0,1.46-.02,2.93,0,4.39.01.5-.16.64-.64.62-.92-.03-1.84-.02-2.76,0-.91.02-1.5.54-1.51,1.31,0,.79.55,1.3,1.47,1.32.89.02,1.78.04,2.67,0,.62-.03.77.19.76.78-.03,2.87-.01,5.74-.01,8.61h0c0,2.87-.06,5.74.01,8.61.1,3.98,3.53,6.17,7.18,4.65.69-.29,1.07-.94.87-1.58-.23-.73-.75-1.08-1.51-.96-.45.07-.89.23-1.34.3-1,.17-1.72-.19-2.15-1.03-.29-.57-.44-1.18-.44-1.82,0-5.63,0-11.25-.01-16.88,0-.52.14-.7.68-.69,1.32.03,2.64.02,3.96,0,1.04,0,1.57-.45,1.57-1.29,0-.83-.55-1.33-1.55-1.34Z"/><path class="cls-3" d="m188.92,140.46c-1.21,0-2.41-.03-3.62.01-.59.02-.73-.18-.71-.73.03-1.43.02-2.87,0-4.3,0-1.03-.46-1.56-1.31-1.56-.83,0-1.31.56-1.32,1.56,0,1.46-.02,2.93,0,4.39,0,.48-.11.66-.62.64-.89-.04-1.78-.02-2.67,0-1.01.01-1.57.48-1.58,1.3-.01.85.51,1.31,1.54,1.32.86.01,1.72.04,2.58-.01.63-.04.76.2.75.78-.03,2.84-.01,5.68-.01,8.52,0,2.76,0,5.51,0,8.27,0,.06,0,.11,0,.17.09,4.1,3.19,6.29,7.04,4.97.86-.29,1.26-.96,1.03-1.71-.21-.69-.91-1.03-1.75-.84-.34.08-.66.19-1,.25-1.21.22-1.99-.25-2.41-1.4-.18-.49-.28-1-.28-1.52,0-5.6,0-11.19-.01-16.79,0-.52.14-.71.68-.7,1.23.03,2.47.01,3.7,0,1.27,0,1.82-.39,1.83-1.29,0-.91-.6-1.34-1.89-1.34Z"/><path class="cls-3" d="m224.14,142.24c-.4-.34-.84-.48-1.35-.27-.61.25-.86.71-.86,1.35,0,2.64,0,5.28,0,7.92,0,4.45,0,8.9,0,13.35,0,.76.19,1.38,1.01,1.57.94.22,1.61-.39,1.61-1.47,0-3.56,0-7.12,0-10.68,0-3.5,0-7,0-10.51,0-.47-.03-.93-.41-1.26Z"/><path class="cls-3" d="m197.15,141.87c-.81.02-1.27.63-1.27,1.7,0,3.47,0,6.95,0,10.42,0,3.56,0,7.12,0,10.68,0,.99.44,1.49,1.25,1.52.88.03,1.37-.56,1.37-1.68,0-6.98,0-13.95,0-20.93,0-1.1-.51-1.74-1.36-1.72Z"/><path class="cls-3" d="m236.25,154.08c0-3.44,0-6.89,0-10.33,0-.26.03-.52-.03-.77-.16-.7-.62-1.12-1.34-1.09-.71.03-1.17.44-1.25,1.18-.03.26-.02.52-.02.77,0,6.8,0,13.61,0,20.41,0,.29-.02.58.03.86.14.94,1.18,1.4,1.98.89.52-.33.63-.84.63-1.42,0-3.5,0-7,0-10.51Z"/><path class="cls-3" d="m182.77,100.66c.83.81,1.62.74,2.31-.22,2.38-3.3,4.75-6.62,7.13-9.92.21-.29.35-.59.39-.96,0-.07-.02-.15-.04-.23-.11-.56-.44-.94-1-1.06-.63-.13-1.11.12-1.48.64-1.95,2.73-3.92,5.45-5.85,8.19-.4.57-.64.73-1.17.12-.69-.8-1.48-1.52-2.24-2.26-.68-.66-1.51-.7-2.05-.12-.54.57-.5,1.32.16,1.99,1.27,1.29,2.55,2.57,3.84,3.83Z"/><path class="cls-3" d="m223.28,135.92c.89-.03,1.28-.64,1.27-2.04,0-.26.02-.52,0-.77-.05-.74-.55-1.24-1.25-1.27-.74-.03-1.29.47-1.36,1.25-.02.26-.01.52-.01.77,0,1.43.43,2.09,1.35,2.06Z"/><path class="cls-3" d="m197.16,131.84c-.71,0-1.21.48-1.27,1.24-.02.26,0,.52,0,.77h0c0,.23-.01.46,0,.69.04.84.58,1.4,1.33,1.39.7-.01,1.25-.57,1.29-1.35.03-.51.04-1.03-.01-1.55-.07-.72-.63-1.2-1.33-1.19Z"/><path class="cls-3" d="m234.95,135.93c.88-.02,1.3-.67,1.3-2.04,0-.26.02-.52,0-.77-.07-.78-.6-1.29-1.34-1.28-.74,0-1.23.51-1.28,1.33-.02.26,0,.52,0,.77,0,1.37.43,2.01,1.33,1.99Z"/></g></svg>