<svg width="159" height="40" viewBox="0 0 159 40" fill="none" xmlns="http://www.w3.org/2000/svg">
<g clip-path="url(#clip0_297_3787)">
<path d="M19.7231 39.2921C8.77091 39.2848 -0.00744357 30.5955 4.73632e-06 19.7703C0.00745304 9.26239 8.94435 0.63237 19.8008 0.639653C30.7604 0.647976 39.5824 9.33729 39.509 20.1563C39.4366 30.8587 30.4646 39.3265 19.7231 39.2921ZM19.7742 36.4602C29.0558 36.4602 36.6393 29.0297 36.6286 19.9513C36.6169 10.9208 29.0675 3.54649 19.9061 3.4643C10.8862 3.38211 2.90591 10.5296 2.89633 19.9784C2.88675 29.0682 10.4744 36.4612 19.7742 36.4602Z" fill="#494949"/>
<path d="M126.046 28.6252V30.2711H123.249V9.02114C124.1 9.02114 124.941 9.00657 125.783 9.0409C125.875 9.0409 126.026 9.33117 126.029 9.48827C126.05 10.6639 126.04 11.8406 126.04 13.0162C126.04 14.4506 126.04 15.8856 126.04 17.3213V17.8571C126.756 17.0893 127.53 16.5046 128.47 16.1582C131.308 15.1272 135.504 15.8169 136.919 19.9306C137.876 22.7137 137.75 25.4718 136.084 28.002C134.456 30.4729 130.947 31.4446 128.234 30.1764C127.44 29.8018 126.776 29.1516 126.046 28.6252ZM125.94 23.1933C126.075 23.8852 126.153 24.5947 126.356 25.2647C126.909 27.0521 128.41 28.1632 130.227 28.2049C132.014 28.2465 133.519 27.2467 134.144 25.5643C134.725 24.0038 134.752 22.412 134.167 20.8451C133.604 19.3345 132.505 18.4158 130.842 18.2442C129.127 18.0683 127.747 18.6478 126.815 20.1033C126.213 21.0428 126.021 22.0884 125.94 23.1933Z" fill="#494949"/>
<path d="M148.148 24.0274C147.951 25.6067 149.126 27.364 150.756 27.9872C152.519 28.6624 155.297 28.4033 156.324 25.8086C156.44 25.5162 156.581 25.458 156.88 25.5703C157.539 25.8169 158.212 26.0291 158.929 26.2736C158.29 28.1047 157.138 29.4375 155.344 30.1772C151.461 31.7804 146.273 30.0648 145.303 24.9388C144.844 22.5137 145.208 20.229 146.817 18.2689C148.691 15.98 151.17 15.2715 154.046 15.9551C156.725 16.5907 158.221 18.3792 158.764 20.9489C158.942 21.7812 158.928 22.6624 159 23.5208C159.035 23.9265 158.844 24.041 158.434 24.041C155.209 24.0254 151.984 24.0316 148.758 24.0316L148.148 24.0274ZM156.022 21.7448C156.007 19.5257 154.232 18.0306 151.864 18.1815C149.827 18.3105 148.066 20.0396 148.262 21.7448H156.022Z" fill="#494949"/>
<path d="M81.0546 24.0276C80.9546 25.8618 82.2942 27.6242 84.0818 28.1132C86.4483 28.7614 88.0837 27.9707 89.4733 25.4634L91.86 26.2655C91.6233 27.1044 91.191 27.8782 90.597 28.5263C87.5538 31.9419 81.593 31.3634 79.184 27.4266C77.289 24.3293 77.8295 19.9285 80.4556 17.5273C82.5837 15.5807 85.1033 15.2457 87.7698 16.1945C90.2937 17.0924 91.4684 19.0733 91.8323 21.5723C91.9238 22.2028 91.9164 22.8457 91.9706 23.4814C92.0089 23.9163 91.8185 24.038 91.3865 24.0359C88.1614 24.0214 84.9363 24.0276 81.7111 24.0276H81.0546ZM88.97 21.7388C88.97 19.6341 87.3463 18.1775 85.0607 18.1796C82.9433 18.1796 81.1632 19.786 81.1514 21.7388H88.97Z" fill="#494949"/>
<path d="M52.4903 30.268H49.6865V16.1968H52.4094V18.0611C52.6041 17.8468 52.702 17.749 52.7914 17.6377C54.2023 15.9283 56.0623 15.4654 58.1776 15.8857C60.1706 16.281 61.3357 17.568 61.8145 19.4532C61.9663 20.057 62.0459 20.676 62.0518 21.2978C62.0763 24.0819 62.0624 26.867 62.0624 29.6511V30.2555H59.2204V29.7C59.2204 27.1572 59.2374 24.6145 59.2087 22.0729C59.2024 21.4356 59.113 20.8018 58.9427 20.1866C58.6841 19.2753 58.0201 18.6979 57.0848 18.4253C54.6013 17.697 52.6041 19.1463 52.519 21.8481C52.4371 24.4408 52.4913 27.0366 52.486 29.6313C52.4903 29.8342 52.4903 30.037 52.4903 30.268Z" fill="#494949"/>
<path d="M104.712 19.527L102.265 20.4186C102.193 20.2646 102.128 20.145 102.081 20.0201C101.466 18.3982 99.7517 17.6512 98.1109 18.2921C97.2416 18.6323 96.7798 19.2929 96.8341 20.119C96.8841 20.8795 97.414 21.4163 98.3429 21.6296C99.4069 21.8752 100.494 22.0697 101.547 22.3662C102.798 22.7189 103.827 23.4066 104.407 24.5947C105.302 26.4331 104.66 28.5971 102.878 29.8144C100.506 31.4332 96.4649 30.9401 94.6347 28.7552C94.2091 28.2486 93.9708 27.59 93.6771 26.9866C93.6271 26.8825 93.7111 26.6006 93.7994 26.5704C94.5517 26.2822 95.32 26.0325 96.1073 25.7631C96.1605 25.9129 96.1999 26.0055 96.2286 26.1012C96.7862 27.951 98.9005 28.9227 100.737 28.1705C101.489 27.8584 101.965 27.3382 101.972 26.5195C101.98 25.736 101.533 25.1815 100.802 24.9495C99.8804 24.6561 98.9185 24.4855 97.979 24.2441C97.4661 24.113 96.9405 23.9976 96.4606 23.7884C94.0261 22.7262 93.2578 19.939 94.8443 17.8364C96.1754 16.0739 98.0428 15.5184 100.198 15.7858C102.372 16.0542 103.912 17.1383 104.623 19.219C104.662 19.296 104.676 19.3803 104.712 19.527Z" fill="#494949"/>
<path d="M63.2373 16.1562C64.2928 16.1562 65.2483 16.1374 66.2007 16.1759C66.3486 16.1822 66.5507 16.4308 66.6178 16.6066C67.4796 18.8518 68.3202 21.1042 69.1715 23.3546C69.5794 24.4394 69.9862 25.5242 70.3919 26.6089C70.4497 26.7296 70.5143 26.847 70.5856 26.9606C71.0197 25.8307 71.4251 24.7903 71.822 23.7468C72.7307 21.3532 73.6362 18.9586 74.5385 16.563C74.6449 16.2675 74.8098 16.1343 75.1567 16.1468C75.9867 16.1738 76.8188 16.1562 77.7551 16.1562C77.4274 16.9802 77.1305 17.7438 76.8209 18.5022C75.3036 22.2185 73.7713 25.9306 72.2742 29.6552C72.0774 30.1452 71.8412 30.3689 71.2793 30.3117C70.7128 30.2667 70.1434 30.2667 69.5769 30.3117C69.214 30.3325 69.0449 30.2014 68.9119 29.881C67.4527 26.3242 65.9868 22.7716 64.5142 19.2232L63.2373 16.1562Z" fill="#494949"/>
<path d="M108.885 18.6592H106.199V16.1539C106.474 16.1539 106.731 16.1539 106.99 16.1539C108.348 16.1331 109.118 15.382 109.148 14.0472C109.162 13.2887 109.148 12.5292 109.148 11.6928C109.961 11.6928 110.734 11.6792 111.505 11.7115C111.593 11.7115 111.74 11.9757 111.742 12.1183C111.762 13.2627 111.752 14.4009 111.755 15.5422C111.755 15.7274 111.772 15.9126 111.783 16.156H114.869V18.6665C114.088 18.6665 113.317 18.6665 112.545 18.6665C111.662 18.6717 111.761 18.5812 111.76 19.453C111.756 21.5282 111.756 23.6035 111.76 25.6787C111.76 25.7994 111.76 25.9211 111.76 26.0418C111.797 27.4286 112.505 28.0456 113.935 27.9426C114.232 27.9218 114.529 27.8895 114.9 27.8552C114.9 28.6032 114.913 29.3055 114.885 30.0067C114.885 30.1024 114.691 30.2418 114.566 30.272C113.502 30.5311 112.423 30.5696 111.374 30.2179C110.023 29.7685 109.265 28.804 109.02 27.4578C108.935 26.9464 108.894 26.4288 108.898 25.9107C108.885 23.7144 108.898 21.5182 108.898 19.3219L108.885 18.6592Z" fill="#494949"/>
<path d="M108.885 18.6592H106.199V16.1539C106.474 16.1539 106.731 16.1539 106.99 16.1539C108.348 16.1331 109.118 15.382 109.148 14.0472C109.162 13.2887 109.148 12.5292 109.148 11.6928C109.961 11.6928 110.734 11.6792 111.505 11.7115C111.593 11.7115 111.74 11.9757 111.742 12.1183C111.762 13.2627 111.752 14.4009 111.755 15.5422C111.755 15.7274 111.772 15.9126 111.783 16.156H114.869V18.6665C114.088 18.6665 113.317 18.6665 112.545 18.6665C111.662 18.6717 111.761 18.5812 111.76 19.453C111.756 21.5282 111.756 23.6035 111.76 25.6787C111.76 25.7994 111.76 25.9211 111.76 26.0418C111.797 27.4286 112.505 28.0456 113.935 27.9426C114.232 27.9218 114.529 27.8895 114.9 27.8552C114.9 28.6032 114.913 29.3055 114.885 30.0067C114.885 30.1024 114.691 30.2418 114.566 30.272C113.502 30.5311 112.423 30.5696 111.374 30.2179C110.023 29.7685 109.265 28.804 109.02 27.4578C108.935 26.9464 108.894 26.4288 108.898 25.9107C108.885 23.7144 108.898 21.5182 108.898 19.3219L108.885 18.6592Z" fill="#494949"/>
<path d="M142.662 30.2707H139.884C139.875 30.0731 139.857 29.89 139.857 29.7068C139.857 23.0144 139.852 16.3212 139.844 9.62736C139.844 9.10717 140.007 8.97712 140.507 9.00313C141.209 9.04266 141.915 9.01353 142.662 9.01353V30.2707Z" fill="#494949"/>
<path d="M47.2157 30.2697H44.4736V16.1953H47.2157V30.2697Z" fill="#494949"/>
<path d="M117.454 16.1821H120.204V30.2679H117.454V16.1821Z" fill="#494949"/>
<path d="M120.869 10.798C120.871 11.0623 120.82 11.3243 120.717 11.5688C120.614 11.8133 120.463 12.0354 120.272 12.2222C120.081 12.4089 119.853 12.5566 119.603 12.6567C119.353 12.7567 119.085 12.8071 118.815 12.8049C118.549 12.8066 118.285 12.7563 118.039 12.6568C117.794 12.5573 117.571 12.4108 117.384 12.2258C117.197 12.0408 117.05 11.8211 116.951 11.5796C116.852 11.3382 116.804 11.0798 116.809 10.8198C116.809 9.69933 117.671 8.82645 118.793 8.81084C119.064 8.80629 119.332 8.85427 119.583 8.95199C119.834 9.04972 120.063 9.19524 120.256 9.3801C120.449 9.56497 120.603 9.7855 120.708 10.0289C120.814 10.2723 120.868 10.5337 120.869 10.798Z" fill="#494949"/>
<path d="M45.819 12.8051C45.2836 12.7882 44.7764 12.5664 44.4066 12.1875C44.0368 11.8085 43.8341 11.3026 43.842 10.7789C43.85 10.2552 44.068 9.75547 44.4491 9.38739C44.8302 9.01932 45.344 8.81234 45.8797 8.81104C46.4151 8.82789 46.9223 9.04969 47.2921 9.42867C47.6619 9.80765 47.8646 10.3135 47.8567 10.8372C47.8487 11.3609 47.6307 11.8606 47.2496 12.2287C46.8685 12.5968 46.3547 12.8038 45.819 12.8051Z" fill="#494949"/>
<path d="M19.7993 27.752H28.0893C29.2012 27.752 29.4491 27.9986 29.4481 29.1045C29.4481 29.2086 29.4481 29.3126 29.4481 29.4166C29.4257 30.0752 29.0639 30.4414 28.384 30.4414C22.6446 30.4463 16.9051 30.4463 11.1657 30.4414C10.4474 30.4414 10.0899 30.0794 10.0771 29.3896C10.0771 29.2512 10.0771 29.1128 10.0771 28.9734C10.0771 28.0277 10.3644 27.751 11.354 27.751L19.7993 27.752Z" fill="#494949"/>
<path d="M20.9342 16.3483C20.9342 18.5789 20.9342 20.8098 20.9342 23.0411C20.9342 23.9348 20.5969 24.2313 19.6052 24.2324C18.5773 24.2324 18.2315 23.9369 18.2305 23.0276C18.2305 18.5491 18.2305 14.0699 18.2305 9.58995C18.2305 9.10201 18.3316 8.69105 18.837 8.49026C19.419 8.25929 20.4213 8.36541 20.6863 8.73995C20.8441 8.98259 20.9286 9.2639 20.9299 9.55146C20.9427 11.8143 20.9342 14.0792 20.9342 16.3483Z" fill="#494949"/>
<path d="M11.4234 12.3116C12.1054 12.296 12.381 12.5998 12.5864 13.0212C13.4837 14.898 14.3828 16.7742 15.2837 18.6496C15.9583 20.0563 16.6322 21.4629 17.3054 22.8695C17.6874 23.6695 17.5182 24.1034 16.6925 24.4831C16.5957 24.5278 16.501 24.5726 16.4031 24.6142C15.7146 24.9128 15.238 24.763 14.9198 24.1034C13.2996 20.7464 11.6851 17.3866 10.0763 14.0241C9.79112 13.4279 9.98052 12.9431 10.5913 12.6508C10.9094 12.4989 11.2403 12.3855 11.4234 12.3116Z" fill="#494949"/>
<path d="M27.3093 18.6217C27.2618 18.7815 27.2005 18.9371 27.1262 19.0868C26.1686 20.8 25.2053 22.5104 24.2363 24.218C23.8426 24.913 23.3595 25.043 22.6498 24.6664C22.4766 24.5798 22.3083 24.4843 22.1455 24.3803C21.6698 24.0619 21.5241 23.6104 21.7965 23.1183C22.8002 21.3115 23.8164 19.5109 24.8449 17.7166C25.1567 17.1725 25.6717 17.058 26.2569 17.3431C27.105 17.7561 27.3135 17.9861 27.3093 18.6217Z" fill="#494949"/>
<path d="M12.9891 26.5214C12.7519 26.3903 12.4837 26.2925 12.2837 26.1198C11.5537 25.4956 10.8419 24.8432 10.1343 24.1909C9.59697 23.6946 9.58739 23.1838 10.0811 22.6511C10.1882 22.5353 10.2985 22.4229 10.412 22.314C10.8802 21.8636 11.4293 21.8344 11.9219 22.2651C12.6604 22.9102 13.3896 23.5649 14.1096 24.2294C14.6544 24.7319 14.6693 25.224 14.1553 25.7629C13.8478 26.0855 13.5808 26.4933 12.9891 26.5214Z" fill="#494949"/>
</g>
<defs>
<clipPath id="clip0_297_3787">
<rect width="159" height="38.6525" fill="#494949" transform="translate(0 0.639648)"/>
</clipPath>
</defs>
</svg>
