<svg width="161" height="70" viewBox="0 0 161 70" fill="none" xmlns="http://www.w3.org/2000/svg">
<path d="M35.2932 37.5084L33.9987 36.2128C33.8625 36.0766 33.6777 36 33.4851 36C33.2925 36 33.1078 36.0766 32.9715 36.2128L32.7126 36.4719C32.5765 36.6083 32.5 36.7932 32.5 36.986C32.5 37.1787 32.5765 37.3636 32.7126 37.5L34.0071 38.7872C34.1433 38.9234 34.3281 39 34.5207 39C34.7133 39 34.898 38.9234 35.0343 38.7872L35.2932 38.5281C35.4258 38.3915 35.5 38.2086 35.5 38.0182C35.5 37.8278 35.4258 37.6449 35.2932 37.5084V37.5084Z" fill="#494949"/>
<path d="M44.8317 39H33.1683C32.991 39.0024 32.8217 39.0768 32.6967 39.2072C32.5718 39.3376 32.5012 39.5137 32.5 39.6975V40.3072C32.5012 40.4905 32.5719 40.6661 32.697 40.7957C32.8221 40.9254 32.9914 40.9988 33.1683 41H44.8317C45.0086 40.9988 45.1779 40.9254 45.303 40.7957C45.428 40.6661 45.4988 40.4905 45.5 40.3072V39.6975C45.5006 39.6061 45.4837 39.5155 45.4504 39.4309C45.4171 39.3463 45.3679 39.2694 45.3058 39.2046C45.2437 39.1397 45.1699 39.0883 45.0885 39.0532C45.0071 39.0181 44.9199 39 44.8317 39V39Z" fill="#494949"/>
<path d="M40.5 36.1987V26.7877C40.5 26.6842 40.4793 26.5818 40.4392 26.4862C40.399 26.3907 40.3401 26.3038 40.2659 26.2307C40.1917 26.1576 40.1037 26.0995 40.0067 26.06C39.9098 26.0204 39.8059 26 39.7009 26H39.2852C39.0761 26.0047 38.8771 26.0897 38.7304 26.2367C38.5838 26.3838 38.5011 26.5815 38.5 26.7877V36.2123C38.5011 36.4185 38.5838 36.6162 38.7304 36.7632C38.8771 36.9103 39.0761 36.9952 39.2852 37H39.6871C39.794 37.0006 39.9 36.9803 39.9989 36.9402C40.0978 36.9002 40.1876 36.8412 40.2633 36.7666C40.3389 36.6921 40.3987 36.6035 40.4394 36.506C40.48 36.4085 40.5006 36.3041 40.5 36.1987V36.1987Z" fill="#494949"/>
<path d="M37.4292 36.685L34.2782 29.4696C34.2369 29.3733 34.1781 29.2866 34.1053 29.2146C34.0325 29.1426 33.9471 29.0866 33.854 29.0499C33.7608 29.0132 33.6618 28.9964 33.5626 29.0006C33.4634 29.0049 33.3659 29.0299 33.2758 29.0744L32.9402 29.2465C32.8499 29.2905 32.7687 29.3532 32.7012 29.4309C32.6337 29.5085 32.5812 29.5996 32.5468 29.699C32.5123 29.7984 32.4966 29.904 32.5006 30.0098C32.5046 30.1157 32.5281 30.2196 32.5698 30.3157L35.7208 37.5357C35.8059 37.7286 35.959 37.8778 36.1467 37.9509C36.3344 38.024 36.5416 38.0152 36.7232 37.9263L37.0631 37.7589C37.245 37.6681 37.3857 37.504 37.4543 37.3027C37.523 37.1013 37.5139 36.8792 37.4292 36.685Z" fill="#494949"/>
<path d="M42.3085 38.5509L44.397 34.5335C44.4999 34.3303 44.527 34.0903 44.4724 33.8651C44.4178 33.6399 44.2859 33.4477 44.1052 33.3298L43.7723 33.1165C43.5902 33.0005 43.3742 32.9696 43.1717 33.0306C42.9691 33.0915 42.7965 33.2392 42.6915 33.4415L40.603 37.4589C40.5001 37.6621 40.473 37.9021 40.5276 38.1273C40.5822 38.3525 40.7141 38.5448 40.8948 38.6626L41.2277 38.881C41.3179 38.9396 41.4176 38.9775 41.5211 38.9926C41.6246 39.0077 41.7297 38.9996 41.8304 38.9689C41.931 38.9381 42.0252 38.8853 42.1073 38.8136C42.1894 38.7418 42.2578 38.6525 42.3085 38.5509V38.5509Z" fill="#494949"/>
<path d="M57.5 26C57.6978 26 57.8911 26.0804 58.0556 26.231C58.22 26.3816 58.3482 26.5957 58.4239 26.8462C58.4996 27.0966 58.5194 27.3722 58.4808 27.6381C58.4422 27.904 58.347 28.1482 58.2071 28.3399C58.0673 28.5316 57.8891 28.6622 57.6951 28.7151C57.5011 28.7679 57.3 28.7408 57.1173 28.6371C56.9346 28.5333 56.7784 28.3576 56.6685 28.1322C56.5586 27.9068 56.5 27.6418 56.5 27.3707C56.5 27.0072 56.6054 26.6585 56.7929 26.4015C56.9804 26.1444 57.2348 26 57.5 26V26ZM56.8067 41V31.1127H58.1967V40.9772L56.8067 41Z" fill="#494949"/>
<path d="M62.5492 40.991H60.5V31.2803H62.5054V32.6746C62.8296 32.1514 63.3015 31.7193 63.8708 31.4246C64.44 31.13 65.0852 30.9837 65.7374 31.0014C68.2442 31.0014 69.5 32.6746 69.5 34.838V41H67.4459V35.1529C67.4459 33.8036 66.8326 32.7106 65.0122 32.7106C63.3913 32.7106 62.5784 33.9025 62.5784 35.3778V40.9775L62.5492 40.991Z" fill="#494949"/>
<path d="M75.5203 41H73.5489L69.5 31H71.6976L74.5416 38.7165L77.404 31H79.5L75.5203 41Z" fill="#494949"/>
<path d="M89.4324 38.025C89.1194 38.9139 88.4923 39.6857 87.6468 40.2225C86.8014 40.7593 85.7843 41.0314 84.7512 40.9971C81.9541 40.9971 79.5 39.1581 79.5 35.9681C79.5 33.0177 81.8672 31 84.4855 31C87.6932 31 89.5 32.9959 89.5 35.9288C89.4998 36.1256 89.4853 36.3221 89.4565 36.5172H81.6015C81.5923 36.8934 81.6674 37.2674 81.8222 37.6168C81.977 37.9662 82.2083 38.2839 82.5024 38.5508C82.7965 38.8177 83.1472 39.0283 83.5336 39.1701C83.92 39.3119 84.3341 39.3819 84.7512 39.376C85.407 39.4119 86.0565 39.2431 86.5905 38.8978C87.1246 38.5526 87.5105 38.052 87.6836 37.4803L89.4324 38.025ZM87.3744 35.0355C87.3309 33.6845 86.3502 32.6299 84.5097 32.6299C83.7827 32.6201 83.0801 32.8655 82.55 33.3144C82.02 33.7633 81.7041 34.3804 81.6691 35.0355H87.3744Z" fill="#494949"/>
<path d="M92.0709 37.6797C92.184 38.6558 92.9087 39.4227 94.1655 39.4227C95.1583 39.4227 95.7029 38.8344 95.7029 38.1721C95.7029 37.5839 95.284 37.1351 94.5383 36.9564L93.0009 36.6122C91.585 36.2941 90.7472 35.305 90.7472 33.9673C90.7472 32.3682 92.1966 31 93.9644 31C96.4485 31 97.2193 32.6776 97.4036 33.5229L95.8746 34.146C95.813 33.6838 95.584 33.2635 95.2343 32.9712C94.8847 32.6788 94.4409 32.5363 93.9937 32.573C93.0847 32.573 92.4856 33.183 92.4856 33.8279C92.4856 34.3943 92.8208 34.7996 93.5162 34.9608L94.9865 35.2876C96.6203 35.6667 97.5 36.6993 97.5 38.0893C97.5 39.4793 96.4318 41 94.1864 41C91.7023 41 90.6508 39.3399 90.5 38.2593L92.0709 37.6797Z" fill="#494949"/>
<path d="M103.337 31.0997H105.5V32.8288H103.337V37.9207C103.337 38.8284 103.706 39.2822 104.723 39.2822C104.983 39.2797 105.241 39.2524 105.495 39.2005V40.8343C105.069 40.9572 104.626 41.0123 104.183 40.9977C102.486 40.9977 101.409 39.9811 101.409 38.2021V32.8288H99.5V31.1042H100.022C100.23 31.1282 100.441 31.1057 100.639 31.0382C100.837 30.9708 101.017 30.8602 101.165 30.7148C101.313 30.5693 101.426 30.3928 101.494 30.1985C101.563 30.0043 101.586 29.7972 101.562 29.5929V28H103.341L103.337 31.0997Z" fill="#494949"/>
<path d="M106.5 26C106.698 26 106.891 26.0804 107.056 26.231C107.22 26.3816 107.348 26.5957 107.424 26.8462C107.5 27.0966 107.519 27.3722 107.481 27.6381C107.442 27.904 107.347 28.1482 107.207 28.3399C107.067 28.5316 106.889 28.6622 106.695 28.7151C106.501 28.7679 106.3 28.7408 106.117 28.6371C105.935 28.5333 105.778 28.3576 105.669 28.1322C105.559 27.9068 105.5 27.6418 105.5 27.3707C105.5 27.0072 105.605 26.6585 105.793 26.4015C105.98 26.1444 106.235 26 106.5 26V26ZM105.81 41V31.1127H107.2V40.9772L105.81 41Z" fill="#494949"/>
<path d="M110.5 41.7144V27H112.469V33.3365C112.94 32.4585 114.141 31.6755 115.827 31.6755C118.922 31.6755 120.5 33.9385 120.5 36.7945C120.5 39.7048 118.781 41.995 115.761 41.995C115.104 42.029 114.45 41.8902 113.869 41.5935C113.288 41.2968 112.802 40.8535 112.464 40.3113V41.737L110.5 41.7144ZM115.465 33.3456C113.712 33.3456 112.436 34.6672 112.436 36.7809C112.436 38.8946 113.703 40.2796 115.465 40.2796C117.226 40.2796 118.47 38.8946 118.47 36.7809C118.47 34.6672 117.311 33.3456 115.465 33.3456Z" fill="#494949"/>
<path d="M121.5 42V27H123.5V42H121.5Z" fill="#494949"/>
<path d="M135.432 38.025C135.12 38.9139 134.493 39.6857 133.648 40.2225C132.803 40.7593 131.786 41.0314 130.753 40.9971C127.958 40.9971 125.5 39.1581 125.5 35.9681C125.5 33.0177 127.871 31 130.488 31C133.694 31 135.5 32.9959 135.5 35.9288C135.501 36.1258 135.485 36.3225 135.452 36.5172H127.605C127.596 36.8934 127.671 37.2674 127.826 37.6168C127.981 37.9662 128.212 38.2839 128.506 38.5508C128.8 38.8177 129.15 39.0283 129.536 39.1701C129.923 39.3119 130.337 39.3819 130.753 39.376C131.409 39.4125 132.057 39.2439 132.591 38.8984C133.124 38.553 133.508 38.0521 133.68 37.4803L135.432 38.025ZM133.375 35.0355C133.327 33.6845 132.352 32.6299 130.512 32.6299C129.785 32.6201 129.083 32.8655 128.553 33.3144C128.024 33.7633 127.708 34.3804 127.673 35.0355H133.375Z" fill="#494949"/>
<path d="M40.0046 21C37.3343 20.9991 34.7238 21.7608 32.5031 23.1888C30.2825 24.6167 28.5514 26.6467 27.5289 29.0221C26.5065 31.3974 26.2385 34.0114 26.7588 36.5335C27.2792 39.0555 28.5646 41.3723 30.4524 43.1908C32.3403 45.0093 34.7457 46.2479 37.3646 46.7499C39.9835 47.2518 42.6981 46.9947 45.1652 46.0108C47.6322 45.027 49.7409 43.3608 51.2245 41.2229C52.7081 39.0849 53.5 36.5713 53.5 34C53.4952 30.5544 52.0719 27.2511 49.5422 24.8143C47.0125 22.3775 43.5827 21.0058 40.0046 21ZM51.5205 34C51.5187 36.1961 50.8406 38.3423 49.572 40.1672C48.3034 41.9922 46.5013 43.4139 44.3936 44.2524C42.2858 45.091 39.9672 45.3089 37.7309 44.8784C35.4946 44.448 33.4411 43.3885 31.8301 41.8341C30.2191 40.2797 29.123 38.3002 28.6804 36.1459C28.2379 33.9915 28.4687 31.7592 29.3437 29.7312C30.2187 27.7032 31.6986 25.9707 33.5963 24.7527C35.4939 23.5347 37.724 22.886 40.0046 22.8886C43.0594 22.8991 45.9857 24.0738 48.1436 26.1559C50.3016 28.2381 51.5157 31.0583 51.5205 34V34Z" fill="#494949"/>
</svg>
