<?xml version="1.0" encoding="UTF-8"?><svg id="Layer_1" xmlns="http://www.w3.org/2000/svg" viewBox="0 0 320 240"><defs><style>.cls-1{fill:#414141;}</style></defs><path class="cls-1" d="m62.42,126.61l-3.1-3.1c-.68-.68-1.78-.68-2.46,0l-.62.62c-.68.68-.68,1.78,0,2.46l3.1,3.08c.68.68,1.78.68,2.46,0l.62-.62c.66-.66.66-1.78,0-2.44Z"/><path class="cls-1" d="m83.9,131.9h-26.17c-.82,0-1.5.68-1.5,1.5v1.32c0,.82.68,1.5,1.5,1.5h26.17c.82,0,1.5-.68,1.5-1.5v-1.32c0-.84-.68-1.5-1.5-1.5Z"/><path class="cls-1" d="m72.63,124.67v-20.68c0-.96-.78-1.73-1.73-1.73h-.87c-.96,0-1.73.78-1.73,1.73v20.7c0,.96.78,1.73,1.73,1.73h.87c.96,0,1.73-.8,1.73-1.76Z"/><path class="cls-1" d="m67.32,124.58l-7.23-15.53c-.41-.87-1.44-1.25-2.3-.84l-.78.36c-.87.41-1.25,1.44-.84,2.3l7.23,15.53c.41.87,1.44,1.25,2.3.84l.78-.36c.87-.41,1.25-1.44.84-2.3Z"/><path class="cls-1" d="m77.49,126.7l4.58-7.91c.48-.82.18-1.89-.64-2.37l-.73-.43c-.82-.48-1.89-.18-2.37.64l-4.58,7.91c-.48.82-.18,1.89.64,2.37l.73.43c.82.48,1.89.21,2.37-.64Z"/><path class="cls-1" d="m109.8,102.95c1.71,0,3.06,1.35,3.06,3.06s-1.35,3.01-3.06,3.01-3.01-1.35-3.01-3.01,1.35-3.06,3.01-3.06Zm-2.07,32.83v-21.59h4.17v21.59h-4.17Z"/><path class="cls-1" d="m119.71,135.78h-4.22v-21.59h4.13v3.1c1.57-2.69,4.13-3.72,6.63-3.72,5.15,0,7.73,3.72,7.73,8.53v13.7h-4.22v-12.97c0-3.01-1.25-5.43-5.04-5.43-3.33,0-5.04,2.64-5.04,5.93v12.45h.02Z"/><path class="cls-1" d="m148.83,135.78h-4.26l-8.78-21.59h4.77l6.16,16.67,6.2-16.67h4.54l-8.62,21.59Z"/><path class="cls-1" d="m178.49,129.62c-1.21,3.81-4.67,6.82-9.69,6.82-5.79,0-10.88-4.22-10.88-11.54,0-6.77,4.9-11.4,10.33-11.4,6.63,0,10.37,4.58,10.37,11.31,0,.55-.05,1.07-.09,1.35h-16.26c.09,3.85,2.87,6.57,6.52,6.57s5.24-1.94,6.06-4.35l3.63,1.25Zm-4.26-6.86c-.09-3.1-2.12-5.52-5.93-5.52-3.56,0-5.7,2.74-5.88,5.52h11.81Z"/><path class="cls-1" d="m184.92,128.82c.27,2.23,1.98,4.04,5.04,4.04,2.37,0,3.67-1.35,3.67-2.87,0-1.35-.98-2.37-2.78-2.78l-3.67-.8c-3.37-.73-5.38-3.01-5.38-6.06,0-3.67,3.47-6.82,7.68-6.82,5.93,0,7.77,3.85,8.21,5.79l-3.72,1.39c-.18-1.12-1.07-3.6-4.49-3.6-2.17,0-3.6,1.39-3.6,2.87,0,1.3.8,2.23,2.46,2.6l3.51.75c3.9.87,5.95,3.24,5.95,6.43s-2.55,6.68-7.91,6.68c-5.93,0-8.44-3.81-8.8-6.29l3.83-1.32Z"/><path class="cls-1" d="m208.17,114.19h4.67v3.81h-4.67v11.22c0,1.98.8,2.96,3.01,2.96.55,0,1.3-.09,1.66-.18v3.6c-.36.14-1.44.41-2.87.41-3.67,0-6.02-2.23-6.02-6.16v-11.86h-4.13v-3.81h1.16c2.33,0,3.33-1.44,3.33-3.33v-3.51h3.85v6.84Z"/><path class="cls-1" d="m218.73,102.95c1.71,0,3.06,1.35,3.06,3.06s-1.35,3.01-3.06,3.01-3.01-1.35-3.01-3.01,1.35-3.06,3.01-3.06Zm-2.07,32.83v-21.59h4.17v21.59h-4.17Z"/><path class="cls-1" d="m225.34,135.78v-32.51h4.17v13.95c1.03-1.94,3.56-3.67,7.14-3.67,6.57,0,9.92,5.04,9.92,11.31s-3.65,11.49-10.05,11.49c-3.19,0-5.65-1.39-7-3.72v3.15h-4.17Zm10.53-18.49c-3.72,0-6.43,2.92-6.43,7.59s2.69,7.73,6.43,7.73,6.38-3.06,6.38-7.73-2.46-7.59-6.38-7.59Z"/><path class="cls-1" d="m250.17,135.78v-32.51h4.22v32.51h-4.22Z"/><path class="cls-1" d="m278.58,129.62c-1.21,3.81-4.67,6.82-9.69,6.82-5.79,0-10.88-4.22-10.88-11.54,0-6.77,4.9-11.4,10.33-11.4,6.63,0,10.37,4.58,10.37,11.31,0,.55-.05,1.07-.09,1.35h-16.26c.09,3.85,2.87,6.57,6.52,6.57s5.24-1.94,6.06-4.35l3.63,1.25Zm-4.26-6.86c-.09-3.1-2.12-5.52-5.93-5.52-3.56,0-5.7,2.74-5.88,5.52h11.81Z"/><path class="cls-1" d="m70.81,90.47c-16.28,0-29.53,13.25-29.53,29.53s13.25,29.53,29.53,29.53,29.53-13.25,29.53-29.53-13.25-29.53-29.53-29.53Zm25.22,29.53c0,13.91-11.33,25.24-25.22,25.24s-25.22-11.33-25.22-25.24,11.31-25.24,25.22-25.24,25.22,11.33,25.22,25.24Z"/></svg>