<?xml version="1.0" encoding="UTF-8"?><svg id="Layer_1" xmlns="http://www.w3.org/2000/svg" viewBox="0 0 320 240"><defs><style>.cls-1{fill:#535555;}.cls-1,.cls-2,.cls-3,.cls-4,.cls-5,.cls-6,.cls-7,.cls-8,.cls-9,.cls-10,.cls-11,.cls-12,.cls-13,.cls-14,.cls-15,.cls-16,.cls-17,.cls-18,.cls-19{stroke-width:0px;}.cls-2{fill:#5d5f5f;}.cls-3{fill:#5e6060;}.cls-4{fill:#606262;}.cls-5{fill:#5c5e5e;}.cls-6{fill:#2b2d2d;}.cls-7{fill:#595b5b;}.cls-8{fill:#5b5d5d;}.cls-9{fill:#6f9f2a;}.cls-10{fill:#414243;}.cls-11{fill:#adadac;}.cls-12{fill:#a7a6a6;}.cls-13{fill:#b7d601;}.cls-14{fill:#8ec105;}.cls-15{fill:#666767;}.cls-16{fill:#666768;}.cls-17{fill:#6b9820;}.cls-18{fill:#656767;}.cls-19{fill:#69991a;}</style></defs><g id="fPaDPe"><path class="cls-14" d="m32.47,110.95c.66-.11,1.13.27,1.63.6,2.69,1.75,5.23,3.68,7.35,6.09.01.01.1-.03.15-.05.06.06.15.12.17.19.42,1.45.78,2.92,1.25,4.35.58,1.75,1.15,3.51,1.92,5.18,2.11,4.57,4.75,8.84,7.84,12.82.09,1.75.18,3.5.25,5.25.02.58-.21.72-.65.41-3.16-2.22-6.28-4.48-8.92-7.33-3-3.24-5.47-6.83-7.31-10.83-.8-1.74-1.46-3.56-2.03-5.38-.41-1.29-.58-2.66-.84-4-.11-.58-.2-1.16-.31-1.74-.04-.67-.08-1.34-.12-2.01-.04-1-.08-2-.14-2.99,0-.11-.16-.2-.24-.3,0-.09,0-.18,0-.27Z"/><path class="cls-9" d="m52.78,140.13c-3.09-3.99-5.73-8.25-7.84-12.82-.77-1.67-1.34-3.43-1.92-5.18-.48-1.43-.84-2.9-1.25-4.35-.02-.07-.11-.13-.17-.19,0-.23-.01-.45-.02-.68.07-.2.21-.4.19-.59-.04-.61-.14-1.21-.22-1.81-.03-.21-.03-.46-.14-.63-.38-.59-.42-1.23-.4-1.9.02-.79-.04-1.59.02-2.37.05-.68-.26-1.11-.79-1.45,0-2.18-.06-4.36,0-6.53.04-1.32.26-2.63.4-3.95.03-.05.07-.1.1-.15,0-.04,0-.08.03-.12.09-.12.16-.34.26-.35.61-.06.52-.49.52-.88,0-.42-.05-.85.04-1.25.06-.29.28-.68.52-.76.22-.07.62.14.83.34.98.94,1.95,1.91,2.89,2.9.93.99,1.85,1.99,2.72,3.02.6.71,1.04,1.57,1.68,2.23.78.8,1.43,1.67,1.99,2.63.13.22.39.36.52.58.36.62.68,1.26,1.03,1.89.35.64.73,1.26,1.09,1.9.21.37.41.75.58,1.13.24.55.44,1.11.68,1.66.29.64.63,1.26.9,1.91.23.54.4,1.11.6,1.66.19.51.28,1.08.59,1.5.34.47.46.92.46,1.47,0,.15.24.29.38.44.26,1.57.43,3.15,1.19,4.6.06.1.01.26.01.39,0,.35,0,.7,0,1.06,0,.45.16.72.65.72.09.49.18.97.27,1.46-.13.19-.35.37-.37.57-.05.52.01,1.05-.03,1.57-.04.57.19.81.76.77.07.93.13,1.86.2,2.79,0,.04,0,.09,0,.13,0,1.1.02,2.2.03,3.3-.01.14-.02.27-.03.41-.13,1.11-.27,2.21-.4,3.32-.35-.03-.55.11-.55.48,0,1.17-.24,2.3-.48,3.45-.19.92-.57,1.63-1.15,2.3-1.22-1.22-2.45-2.42-3.64-3.66-.7-.73-1.33-1.53-2.01-2.29-.22-.24-.48-.44-.72-.66Z"/><path class="cls-13" d="m82.72,103.5c3.42,16.77-1.83,30.72-13.88,42.47-.09,0-.18,0-.27-.01-.1-.27-.24-.53-.29-.81-.28-1.72-.64-3.43-.78-5.16-.16-1.95-.24-3.93-.13-5.89.12-2.19.47-4.37.79-6.55.13-.92.37-1.84.67-2.73.69-2.04,1.29-4.13,2.23-6.05,1.16-2.39,2.52-4.71,3.96-6.95,1.88-2.93,4.26-5.48,6.78-7.89.23-.22.47-.42.7-.63.08.06.15.13.23.19Z"/><path class="cls-18" d="m277,107.1c.01.64.03,1.28.03,1.92,0,11.97,0,23.93,0,35.9,0,1.36.11,1.13-1.19,1.12-.87,0-1.73-.02-2.6.02-.55.02-.84-.11-.77-.73.07-.62.07-1.24.11-1.96-.38.29-.69.52-1,.77-2.04,1.62-4.34,2.68-6.98,2.72-3.89.05-6.8-1.74-8.79-5.03-.98-1.62-1.52-3.39-1.76-5.25-.3-2.35-.26-4.67.56-6.93.23-.22.54-.4.69-.66.52-.91.87-1.92,1.5-2.75.87-1.14,1.88-2.15,3.13-2.97,1.3-.86,2.71-1.47,4.13-1.75,1.68-.34,3.48-.08,5.22-.07.12,0,.27.07.35.16.58.58,1.25.4,1.92.23.09.04.19.08.28.13-.14.45.19.22.35.24.48.14.42-.17.42-.47,0-4.69,0-9.39,0-14.08,0-.18.02-.35.03-.53,1.46,0,2.92,0,4.39,0Zm-10.67,36.06c.85.15,1.53-.28,2.21-.67.83-.47,1.71-.88,2.43-1.48.69-.58,1.55-1.14,1.5-2.25.09-.33.26-.66.26-.99.02-2.58.03-5.17,0-7.75-.01-.78-.09-1.57-.27-2.33-.26-1.1-.86-2.04-2-2.38-1.57-.46-3.17-.6-4.82-.34-3.48.53-5.71,3.11-6.51,6-.42,1.52-.41,3.07-.4,4.62-.08.41-.25.84-.21,1.24.05.49.36.94.44,1.43.22,1.2.99,2.09,1.7,3,.3.39.86.58,1.26.91.84.68,1.78,1,2.86.99.52,0,1.04,0,1.56,0Z"/><path class="cls-18" d="m201.4,122.21c-.53,1.5-1.06,2.99-1.58,4.49-.8,2.34-1.59,4.68-2.39,7.02-1.28,3.74-2.57,7.47-3.84,11.21-.16.46-.26.93-.38,1.39-.1.39-.32.58-.76.56-.78-.03-1.56-.03-2.34,0-.4.02-.59-.13-.72-.49-.7-1.97-1.42-3.94-2.13-5.91-1.13-3.14-2.26-6.28-3.4-9.43-.04-.12-.11-.23-.27-.58-.09.22-.13.32-.17.42-1.1,2.94-2.21,5.88-3.31,8.82-.79,2.1-1.58,4.2-2.33,6.32-.2.57-.44.91-1.12.85-.71-.06-1.43-.05-2.13,0-.57.04-.78-.24-.93-.72-.69-2.19-1.39-4.38-2.1-6.57-.85-2.6-1.71-5.19-2.56-7.78-1.07-3.29-2.13-6.58-3.19-9.87,1.17,0,2.35,0,3.52,0,.93,0,.95.01,1.03.93,0,.11-.03.28.02.32.1.06.25.05.38.06.28.78.58,1.55.82,2.34.87,2.77,1.73,5.54,2.58,8.31.59,1.92,1.13,3.85,1.73,5.76.1.31.39.55.59.82.48.25.68-.1.78-.42.23-.7.34-1.44.57-2.14.4-1.21.84-2.4,1.3-3.58.34-.89.76-1.76,1.08-2.66.54-1.51.89-3.11,1.59-4.54.64-1.31-.03-2.29-.41-3.38-.04-.12-.32-.16-.49-.24-.17-.44-.35-.89-.52-1.33.53-.09,1.06-.2,1.6-.25.44-.04.88,0,1.33,0,1.18,0,1.22.05,1.47,1.2.07.34.1.78.63.78,1.88,5.52,3.75,11.05,5.63,16.57.07,0,.13-.01.2-.02,1.81-5.69,3.63-11.39,5.44-17.08.22-.26.44-.51.65-.78.17-.21.32-.64.47-.63,1.21.03,2.45-.3,3.63.22Z"/><path class="cls-18" d="m251.56,131.27c.38,1.47.25,2.96.09,4.44-.23,2.15-1.09,4.06-2.31,5.82-2.02,2.91-4.82,4.62-8.32,5.2-5.26.88-10.53-2.49-12.75-7.3-.95-2.07-1.51-4.22-1.3-6.48.11-1.21.55-2.4.84-3.6.16-.14.37-.25.48-.42.47-.77.86-1.6,1.4-2.32.29-.39.52-.73.46-1.22.1-.04.25-.05.3-.12.65-1.01,1.7-1.54,2.69-2.09,1.12-.62,2.29-1.18,3.51-1.56.84-.26,1.8-.11,2.7-.23,1.07-.14,2.09-.19,3.04.44.12.08.3.06.44.11.7.22,1.48.32,2.09.68.9.54,1.68,1.27,2.51,1.92.2.16.4.34.56.54.65.84,1.33,1.67,1.9,2.55.32.49.37,1.17.72,1.63.3.4.37.76.37,1.21,0,.26.07.52.16.76.02.05.27.01.42.02Zm-5.16,6.11c.19-.91.5-1.82.55-2.73.17-2.65-.35-5.12-2.01-7.31-2.37-3.14-6.93-3.66-9.74-1.24-1.42,1.22-2.38,2.7-2.87,4.53-.51,1.88-.79,3.74-.23,5.64-.43,0-.4.26-.29.54.14.34.3.68.45,1.02.3.67.51,1.4.91,2.01.83,1.27,1.86,2.35,3.32,2.93,1.02.41,1.94,1.2,3.16.92.62-.14,1.26-.26,1.83-.52.9-.42,1.83-.85,2.6-1.47.96-.78,1.71-1.77,2.22-2.94.21-.49.47-.89.1-1.38Z"/><path class="cls-18" d="m140.49,129.9c.51,1.51.64,3.08.54,4.65-.06.98-.35,1.94-.54,2.91-.19.09-.52.16-.54.28-.08.56-.44,1.01-.59,1.5-.28.94-.75,1.78-1.36,2.45-1.57,1.75-3.31,3.31-5.72,3.94-.64.17-1.19.65-1.79.99-1.31.42-2.63.32-3.95.03-4.66-1.02-7.71-3.87-9.43-8.23-1.09-2.78-.96-5.59-.36-8.43.02-.08.09-.14.14-.22.19-.14.48-.25.57-.44.74-1.52,1.45-3.06,2.57-4.37.11-.13.03-.4.03-.61.25-.23.51-.46.76-.68.23-.05.47-.07.68-.17,1.92-.89,3.74-1.96,5.97-2.13,1.85-.14,3.6.07,5.32.65.6.2,1.18.5,1.71.85.84.56,1.69,1.12,2.42,1.81.67.63,1.28,1.37,1.76,2.15.53.86.87,1.83,1.32,2.74.07.15.3.23.45.34Zm-19.34,6.63c.22.81.26,1.73.7,2.4.61.95,1.26,1.88,2.12,2.71,1.09,1.04,2.49,1.31,3.69,2.04.05.03.13,0,.2.01,1.23.16,2.33-.27,3.44-.7,1.28-.49,2.22-1.38,2.96-2.46.76-1.11,1.42-2.3,2.03-3.5.17-.33.38-.92-.29-1.16.42-1.8.36-3.62-.18-5.36-.85-2.73-2.4-4.95-5.37-5.71-1.6-.41-3.24-.38-4.76.48-2.29,1.28-3.64,3.27-4.24,5.74-.27,1.09-.22,2.26-.32,3.39-.44-.01-.56.31-.49.61.12.52.34,1.01.52,1.51Z"/><path class="cls-18" d="m223.88,127.77c.75,1.45,1.24,2.98,1.29,4.6.05,1.32-.05,2.64-.12,3.95-.02.34-.19.67-.29,1-.35.55-.81,1.07-1.01,1.67-.52,1.58-1.47,2.9-2.66,3.99-1.24,1.16-2.67,2.13-4.34,2.63-.56.17-1.13.32-1.68.52-.14.05-.2.3-.29.46-1.24.44-2.5.32-3.75.07-4.66-.91-7.83-3.59-9.56-7.98-.75-1.9-1.09-3.86-.97-5.88.08-1.38.33-2.75,1-4,.12-.07.29-.11.37-.22.35-.48.72-.94.99-1.46.95-1.87,2.39-3.25,4.22-4.26,1.91-1.06,3.95-1.59,6.12-1.59,1.01,0,1.97.08,2.98.52.87.38,1.85.59,2.71,1.08.31.17.55.44.84.64.87.59,1.8,1.07,2.36,2.04.42.72.95,1.38,1.45,2.05.06.09.23.1.35.15Zm-18.45,7.96c-.05.32-.13.63-.12.95,0,.21.21.41.21.62-.03,1.25.95,2,1.48,2.96.73,1.32,2.03,2.03,3.29,2.75.49.28,1.01.6,1.54.66,1.96.23,3.71-.39,5.23-1.58,1.36-1.07,2.6-2.27,3.08-4.02.31-1.13.76-2.25.86-3.41.1-1.09-.12-2.23-.32-3.32-.15-.82-.41-1.64-.77-2.39-.22-.47-.39-1.13-1.12-1.17-.21-.25-.43-.5-.64-.76-2.49-3.04-7.02-3.22-9.74-.73-2.19,2.01-2.91,4.56-3.11,7.35-.05.69.08,1.39.13,2.09Z"/><path class="cls-18" d="m164.5,145.02v1.19h-4.46v-1.46c.61-.25.65-.77.65-1.31,0-4.43,0-8.86,0-13.3,0-.7-.04-1.41-.15-2.1-.08-.46-.32-.88-.5-1.32-.29-.97-.83-1.8-1.87-1.95-.97-.14-1.97-.12-2.94.25-1.66.64-2.98,1.74-4.24,2.93-.95.9-1.85,1.84-2.73,2.81-.22.24-.37.65-.37.98-.03,4.57-.02,9.14-.02,13.71,0,.22,0,.44,0,.77h-4.41c0-.32,0-.58,0-.84,0-7.55,0-15.1,0-22.65,0-.18.01-.35.02-.53.09,0,.18-.01.26-.03,1.41-.25,2.84-.73,4.1.42,0,1.19.02,2.38.02,3.57.1.19.19.37.3.58.56-.59,1.01-1.12,1.51-1.59,1.15-1.08,2.26-2.17,3.78-2.81,1.18-.5,2.31-1.03,3.63-.94.22.01.45.03.66-.03,1.38-.36,2.63.17,3.76.76.83.44,1.64,1.13,1.9,2.19.04.16.36.25.55.37.15.76.3,1.51.45,2.27-.42.04-.53.29-.52.68.02.75,0,1.5,0,2.25,0,4.74,0,9.47,0,14.21,0,.44,0,.87.61.89Z"/><path class="cls-16" d="m99.61,110.81c.01.55.03,1.1.03,1.65,0,10.98,0,21.96.01,32.94,0,.63-.16.84-.82.82-1.31-.05-2.62-.02-3.96-.02-.03-.15-.07-.27-.07-.4,0-11.58,0-23.15,0-34.73,0-.09.02-.18.02-.26.26,0,.53,0,.79,0,1.33,0,2.66,0,3.99,0Z"/><path class="cls-15" d="m108.1,121.95c0,1.05,0,2.11,0,3.16.02.09.04.18.06.26.07-.06.14-.13.2-.19.71-.77,1.42-1.53,2.13-2.3.48-.2,1.03-.32,1.43-.63,1.42-1.09,2.85-1.19,4.37-.25.47.29.79.88.6,1.18-.36.57-.69,1.17-1.12,1.68-.14.17-.65.26-.84.14-.95-.61-1.59-.58-2.46.26-.5.4-1.06.75-1.48,1.23-.69.79-1.33,1.64-1.93,2.5-.4.58-.99,1.13-.73,1.97-.06.54-.18,1.08-.18,1.62-.01,4.35,0,8.7,0,13.05,0,.42-.13.59-.58.58-1.13-.03-2.27-.02-3.4,0-.36,0-.52-.09-.52-.48.01-7.91.02-15.81.03-23.72,0-.02,0-.04.01-.07,1.47,0,2.93,0,4.4,0Z"/><path class="cls-17" d="m59.05,119.43c-.13-.14-.38-.29-.38-.44,0-.55-.13-1-.46-1.47-.3-.42-.4-1-.59-1.5-.2-.55-.37-1.12-.6-1.66-.28-.65-.62-1.27-.9-1.91-.24-.54-.44-1.11-.68-1.66-.17-.39-.38-.76-.58-1.13-.36-.64-.73-1.26-1.09-1.9-.35-.63-.67-1.27-1.03-1.89-.13-.22-.39-.36-.52-.58-.55-.96-1.2-1.83-1.99-2.63-.65-.66-1.08-1.52-1.68-2.23-.87-1.04-1.79-2.04-2.72-3.02-.94-.99-1.9-1.96-2.89-2.9-.21-.2-.61-.41-.83-.34-.24.08-.45.47-.52.76-.09.4-.03.83-.04,1.25,0,.39.09.83-.52.88-.1,0-.17.23-.26.35.23-1.59.47-3.19.73-4.94.35.22.55.31.7.45,2.74,2.53,5.29,5.23,7.59,8.16,2.14,2.71,4.09,5.55,5.57,8.67,1.17,2.46,2.23,4.96,3.28,7.47.29.69.38,1.46.57,2.2-.05,0-.1,0-.16,0Z"/><path class="cls-2" d="m251.56,131.27c-.15,0-.4.03-.42-.02-.09-.24-.16-.5-.16-.76,0-.45-.08-.81-.37-1.21-.35-.47-.4-1.14-.72-1.63-.58-.89-1.25-1.71-1.9-2.55-.16-.2-.36-.38-.56-.54-.83-.66-1.61-1.38-2.51-1.92-.61-.37-1.39-.47-2.09-.68-.15-.04-.33-.03-.44-.11-.95-.63-1.97-.59-3.04-.44-.89.12-1.86-.03-2.7.23-1.22.37-2.4.94-3.51,1.56-.99.55-2.04,1.08-2.69,2.09-.05.07-.2.08-.3.12,0-.09,0-.19,0-.28,1.88-2.4,4.42-3.65,7.36-4.21,2.03-.39,3.96-.02,5.93.57,2.78.84,4.73,2.61,6.27,4.92.98,1.47,1.54,3.13,1.86,4.87Z"/><path class="cls-5" d="m223.88,127.77c-.12-.05-.28-.06-.35-.15-.5-.67-1.03-1.33-1.45-2.05-.56-.96-1.49-1.45-2.36-2.04-.29-.2-.54-.47-.84-.64-.85-.49-1.84-.7-2.71-1.08-1.01-.44-1.96-.52-2.98-.52-2.17,0-4.21.53-6.12,1.59-1.83,1.02-3.27,2.39-4.22,4.26-.26.52-.64.99-.99,1.46-.08.11-.24.15-.37.22,1.57-3.92,4.26-6.61,8.46-7.68,3.66-.93,7.02-.26,10.08,1.88,1.73,1.21,3.06,2.77,3.84,4.75Z"/><path class="cls-3" d="m140.49,129.9c-.15-.11-.38-.19-.45-.34-.45-.91-.79-1.88-1.32-2.74-.48-.78-1.09-1.52-1.76-2.15-.73-.68-1.58-1.25-2.42-1.81-.53-.35-1.11-.65-1.71-.85-1.72-.58-3.47-.79-5.32-.65-2.23.17-4.05,1.24-5.97,2.13-.21.1-.45.12-.68.17,1.19-1.24,2.72-1.89,4.33-2.37,1.31-.39,2.65-.65,4.03-.53,4.45.36,7.92,2.32,10.13,6.24.51.9.78,1.93,1.16,2.9Z"/><path class="cls-2" d="m271.55,121.81c-.67.17-1.34.36-1.92-.23-.09-.09-.23-.16-.35-.16-1.75,0-3.54-.26-5.22.07-1.42.28-2.84.89-4.13,1.75-1.25.83-2.26,1.83-3.13,2.97-.62.82-.98,1.84-1.5,2.75-.15.26-.45.44-.69.66,1.34-3.83,3.66-6.73,7.64-8.11,1.83-.64,3.72-.92,5.64-.75.98.09,1.93.47,2.89.73.26.07.51.2.77.3Z"/><path class="cls-2" d="m163.95,124.72c-.19-.12-.51-.21-.55-.37-.25-1.07-1.06-1.75-1.9-2.19-1.13-.59-2.38-1.12-3.76-.76-.21.05-.44.04-.66.03-1.32-.08-2.45.45-3.63.94-1.52.64-2.64,1.73-3.78,2.81-.5.47-.95,1-1.51,1.59-.11-.21-.21-.39-.3-.58.46-.4.94-.76,1.36-1.2,1.18-1.23,2.34-2.48,3.96-3.18,1.74-.76,3.54-1.16,5.46-1.06,2.77.14,4.65,1.53,5.31,3.97Z"/><path class="cls-8" d="m164.5,145.02c-.61-.02-.61-.45-.61-.89,0-4.74,0-9.47,0-14.21,0-.75.02-1.5,0-2.25-.01-.39.1-.64.52-.68.03.7.07,1.41.07,2.11.02,5.22.03,10.44.05,15.65,0,.09-.02.17-.03.26Z"/><path class="cls-8" d="m160.03,126.72c.17.44.42.87.5,1.32.12.69.15,1.4.15,2.1.01,4.43,0,8.86,0,13.3,0,.54-.04,1.06-.65,1.31.04-4.96.08-9.91.1-14.87,0-1.05-.07-2.1-.11-3.16Z"/><path class="cls-4" d="m180.86,123.54c.17.08.45.12.49.24.37,1.09,1.05,2.06.41,3.38-.7,1.43-1.05,3.03-1.59,4.54-.32.9-.74,1.76-1.08,2.66-.45,1.19-.9,2.38-1.3,3.58-.23.7-.34,1.44-.57,2.14-.1.32-.31.68-.78.42.28-.87.54-1.74.85-2.6.96-2.62,1.95-5.24,2.93-7.86.38-1.02.72-2.07,1.16-3.07.33-.76.37-1.47-.02-2.21-.2-.39-.33-.81-.49-1.22Z"/><path class="cls-2" d="m112.47,125.26c.88-.84,1.51-.87,2.46-.26.18.12.69.03.84-.14.43-.51.76-1.11,1.12-1.68.19-.3-.13-.89-.6-1.18-1.52-.94-2.95-.84-4.37.25-.4.31-.95.43-1.43.63.72-.58,1.39-1.25,2.18-1.71,1.42-.82,2.83-.51,4.09.4,1.05.76,1.02.8.36,1.95-.44.77-.89,1.53-1.3,2.31-.25.48-.45.39-.69.01-.04-.21.03-.57-.39-.31-.71-.5-1.42-.37-2.12.02-.05-.1-.1-.2-.15-.3Z"/><path class="cls-4" d="m130.5,146.62c.59-.34,1.15-.83,1.79-.99,2.4-.63,4.14-2.19,5.72-3.94.6-.67,1.07-1.51,1.36-2.45.15-.49.51-.94.59-1.5.02-.12.35-.19.54-.28-.41,1.03-.7,2.11-1.24,3.07-1.16,2.06-2.78,3.71-4.91,4.81-1.21.62-2.46,1.18-3.85,1.28Z"/><path class="cls-8" d="m214.79,146.61c.1-.16.16-.41.29-.46.55-.21,1.12-.35,1.68-.52,1.67-.51,3.1-1.48,4.34-2.63,1.18-1.1,2.13-2.41,2.66-3.99.2-.6.67-1.12,1.01-1.67-.21,1.48-.93,2.76-1.76,3.95-1.84,2.66-4.28,4.52-7.51,5.24-.23.05-.48.07-.72.1Z"/><path class="cls-19" d="m59.16,146.75c.58-.67.96-1.39,1.15-2.3.24-1.15.48-2.28.48-3.45,0-.38.2-.51.55-.48-.13,1.07-.25,2.14-.41,3.2-.18,1.26-.39,2.51-.59,3.8-.63.03-.85-.44-1.17-.77Z"/><path class="cls-19" d="m40.24,108.16c.54.33.84.77.79,1.45-.05.79,0,1.58-.02,2.37-.02.67.02,1.31.4,1.9.11.17.11.42.14.63.08.6.18,1.21.22,1.81.01.19-.13.39-.19.59-.18-.86-.42-1.71-.54-2.57-.26-1.86-.46-3.74-.69-5.61-.02-.19-.07-.38-.11-.57Z"/><path class="cls-8" d="m185.37,123.94c-.53,0-.56-.45-.63-.78-.25-1.15-.3-1.2-1.47-1.2-.44,0-.89-.03-1.33,0-.54.05-1.06.17-1.6.25-.12-.23-.23-.46-.44-.85,1.3,0,2.46-.02,3.62,0,1.05.02,1.04.05,1.35,1.11.14.49.33.98.5,1.46Z"/><path class="cls-6" d="m280.63,108.92c.13-1.42,1.56-2.57,2.8-2.74,1.69-.23,3.08.51,3.77,1.94.06.13.06.29.08.43-.08.04-.16.08-.25.12-.1-.22-.21-.43-.31-.65-.1-.13-.19-.25-.29-.38-.24-.18-.48-.37-.72-.55-.14-.08-.28-.16-.41-.24-.08,0-.17-.02-.25-.03-.58-.03-1.17-.07-1.75-.1-.22.05-.45.09-.67.14-.05.03-.09.07-.14.1-.84.42-1.29,1.15-1.61,1.99-.08-.01-.17-.02-.25-.04Z"/><path class="cls-8" d="m201.4,122.21c-1.18-.52-2.42-.19-3.63-.22-.15,0-.31.42-.47.63-.21.27-.43.52-.65.78.15-.53.27-1.08.45-1.6.06-.17.29-.4.44-.4,1.36-.03,2.73-.02,4.19-.02-.14.34-.23.58-.33.82Z"/><path class="cls-10" d="m280.63,108.92c.08.01.17.02.25.04,0,.28,0,.57,0,.85-.03,1.36.78,2.25,1.86,2.81,1.13.59,2.29.32,3.3-.45,0,0,0,0,0,0,.45-.64.9-1.29,1.48-2.11-.14.5-.2.86-.35,1.19-.67,1.43-2.62,2.31-4.07,1.81-1.8-.63-2.81-2.15-2.61-3.99,0-.05.08-.09.13-.14Z"/><path class="cls-7" d="m170.71,123.26c-.13-.02-.28,0-.38-.06-.05-.03-.01-.21-.02-.32-.08-.92-.09-.93-1.03-.93-1.17,0-2.35,0-3.52,0-.09-.14-.18-.28-.41-.63,1.58,0,2.99,0,4.41,0,.06,0,.11,0,.17,0,.14.09.37.15.4.26.16.55.27,1.12.39,1.68Z"/><path class="cls-19" d="m59.05,119.43c.05,0,.1,0,.16,0,.35,1.08.73,2.14,1.03,3.23.26.95.42,1.93.61,2.9.04.21.04.43.05.64-.49,0-.66-.27-.65-.72,0-.35,0-.7,0-1.06,0-.13.04-.29-.01-.39-.76-1.44-.93-3.03-1.19-4.6Z"/><path class="cls-7" d="m147.84,122.61c-1.26-1.15-2.69-.68-4.1-.42-.09.02-.18.02-.26.03-.05-.84-.05-.86.78-.87,1.18-.01,2.37,0,3.58,0v1.27Z"/><path class="cls-1" d="m284.89,110.3c.28.44.56.87.84,1.31-.01.09-.02.17-.04.26-.45-.4-.89-.79-1.34-1.19-.25-.22-.5-.44-.75-.66-.1,0-.2,0-.3,0-.04-.19-.08-.38-.12-.57.89.41,1.66.01,1.74-.9.22.05.43.09.65.14.22.6.08.85-.68,1.22-.08.08-.17.16-.25.24.08.05.16.11.24.16Z"/><path class="cls-5" d="m120.09,124.35c0,.21.07.49-.03.61-1.11,1.31-1.83,2.85-2.57,4.37-.09.19-.38.3-.57.44.63-2.06,1.64-3.89,3.17-5.42Z"/><path class="cls-7" d="m112.47,125.26c.05.1.1.2.15.3-1.75,1.24-2.83,3-3.9,4.79-.12.21-.26.41-.38.61-.26-.84.33-1.39.73-1.97.6-.87,1.23-1.71,1.93-2.5.42-.47.98-.82,1.48-1.23Z"/><path class="cls-7" d="m108.1,121.95c-1.47,0-2.93,0-4.4,0-.16-.45.08-.61.48-.61,1.17,0,2.33.01,3.5.03.4,0,.58.18.42.58Z"/><path class="cls-3" d="m277,107.1c-1.46,0-2.92,0-4.39,0-.01-.19-.03-.38-.04-.6h4.46c-.01.24-.02.42-.03.6Z"/><path class="cls-5" d="m99.61,110.81c-1.33,0-2.66,0-3.99,0-.26,0-.53,0-.79,0,0-.15-.02-.3-.03-.5h4.71s.07.07.1.1c0,.13,0,.27,0,.4Z"/><path class="cls-7" d="m230.13,125.11c0,.09,0,.19,0,.28.06.49-.16.83-.46,1.22-.54.72-.92,1.55-1.4,2.32-.11.17-.31.28-.48.42.51-1.56,1.31-2.96,2.32-4.25Z"/><path class="cls-6" d="m282.78,107.91c.66-.04,1.31-.08,1.97-.12.39.2.84.34.82.91-.22-.05-.43-.09-.65-.14-.15-.13-.29-.36-.45-.38-.47-.05-.95-.02-1.52-.02.09.5.15.9.22,1.3.04.19.08.38.12.57,0,.09,0,.18,0,.27l-.04-.02c-.15,0-.31,0-.46,0h-.03s-.02.02-.02.02c0-.09,0-.18,0-.27,0-.49,0-.97-.01-1.46,0-.04,0-.09,0-.13.01-.17.03-.35.04-.52Z"/><path class="cls-19" d="m61.53,130.56c-.56.04-.8-.2-.76-.77.04-.52-.03-1.05.03-1.57.02-.2.24-.38.37-.57.12.97.24,1.94.37,2.91Z"/><path class="cls-7" d="m114.74,125.54c.42-.26.35.09.39.31-.13-.1-.26-.2-.39-.31Z"/><path class="cls-2" d="m272.17,122.18c-.16-.02-.49.21-.35-.24.12.08.23.16.35.24Z"/><path class="cls-11" d="m108.36,125.18c-.07.06-.14.13-.2.19-.02-.09-.04-.18-.06-.26.09.02.18.05.27.07Z"/><path class="cls-11" d="m61.73,137.19c.01-.14.02-.27.03-.41-.01.14-.02.27-.03.41Z"/><path class="cls-12" d="m169.92,121.32c-.06,0-.11,0-.17,0,.06,0,.11,0,.17,0Z"/><path class="cls-17" d="m40.74,97.53c-.03.05-.07.1-.1.15.03-.05.07-.1.1-.15Z"/><path class="cls-11" d="m61.74,133.48s0-.09,0-.13c.01.03.03.06.04.09,0,0-.02.03-.03.04Z"/><path class="cls-16" d="m99.62,110.41s-.07-.07-.1-.1c.03.03.07.07.1.1Z"/><path class="cls-4" d="m258.72,135.6c.08.33.19.66.25,1,.47,2.68,1.8,4.74,4.41,5.79.93.37,1.94.52,2.95.26,0,.17,0,.34,0,.51-.52,0-1.04,0-1.56,0-1.07.01-2.02-.32-2.86-.99-.4-.33-.96-.51-1.26-.91-.71-.91-1.48-1.79-1.7-3-.09-.49-.39-.94-.44-1.43-.04-.4.13-.83.21-1.24Z"/><path class="cls-5" d="m266.33,143.16c0-.17,0-.34,0-.51,2.58-.47,4.47-1.99,6.14-3.88.05,1.11-.82,1.67-1.5,2.25-.72.6-1.6,1.01-2.43,1.48-.68.38-1.36.81-2.21.67Z"/><path class="cls-8" d="m232.1,136.27c.69,2.63,2.06,4.76,4.56,6.07,2.38,1.24,4.91.7,6.85-.81,1.41-1.09,2.26-2.53,2.89-4.15.37.49.11.89-.1,1.38-.51,1.17-1.26,2.16-2.22,2.94-.76.62-1.7,1.05-2.6,1.47-.57.26-1.21.38-1.83.52-1.22.28-2.14-.52-3.16-.92-1.46-.58-2.49-1.66-3.32-2.93-.4-.61-.61-1.34-.91-2.01-.15-.34-.31-.67-.45-1.02-.11-.28-.15-.54.29-.54Z"/><path class="cls-2" d="m121.37,136.51c.84,2.73,2.4,4.92,5.09,6.08,1.84.79,3.71.51,5.43-.51,2.38-1.4,3.68-3.53,4.11-6.21.67.24.46.83.29,1.16-.61,1.2-1.28,2.39-2.03,3.5-.74,1.08-1.68,1.97-2.96,2.46-1.11.43-2.21.86-3.44.7-.07,0-.15.02-.2-.01-1.19-.73-2.59-1-3.69-2.04-.86-.82-1.51-1.76-2.12-2.71-.43-.67-.48-1.59-.7-2.4.07,0,.15-.02.22-.02Z"/><path class="cls-3" d="m121.37,136.51c-.07,0-.15.02-.22.02-.18-.5-.4-1-.52-1.51-.07-.3.06-.62.49-.61.08.7.16,1.4.24,2.1Z"/><path class="cls-3" d="m205.44,135.73c.42,1.59,1,3.12,2.04,4.41,1.53,1.9,3.51,3.02,6.02,2.86,1.58-.1,2.9-.89,4.03-1.95,1.66-1.57,2.58-3.48,2.88-5.76.35-2.72-.17-5.2-1.61-7.51.74.04.9.7,1.12,1.17.36.75.62,1.57.77,2.39.2,1.1.41,2.23.32,3.32-.1,1.15-.55,2.27-.86,3.41-.48,1.75-1.72,2.95-3.08,4.02-1.52,1.2-3.27,1.81-5.23,1.58-.53-.06-1.06-.39-1.54-.66-1.26-.72-2.56-1.43-3.29-2.75-.53-.96-1.51-1.71-1.48-2.96,0-.2-.2-.41-.21-.62,0-.31.08-.63.12-.95Z"/><path class="cls-1" d="m283.27,110.27c.02.14.03.27.05.41,0,.13,0,.27,0,.4-.05.23-.1.46-.15.69-.06,0-.12.02-.18.03-.08-.15-.16-.3-.24-.45v-.4c.02-.23.04-.45.06-.68.15,0,.31,0,.46,0Z"/></g></svg>