<?xml version="1.0" encoding="UTF-8"?><svg id="Layer_1" xmlns="http://www.w3.org/2000/svg" viewBox="0 0 320 240"><defs><style>.cls-1{fill:#4a494b;stroke-width:0px;}</style></defs><g id="Koala_Grippers"><path class="cls-1" d="m74.09,150.37c-16.7,0-30.29-13.59-30.29-30.29s13.59-30.29,30.29-30.29,30.29,13.59,30.29,30.29-13.59,30.29-30.29,30.29Zm0-59.06c-15.86,0-28.77,12.91-28.77,28.77s12.91,28.77,28.77,28.77,28.77-12.91,28.77-28.77-12.91-28.77-28.77-28.77Z"/><path class="cls-1" d="m62.3,120.09c10.53-5.22,18.26-26.21,18.26-26.21-1.8-.44-3.66-.7-5.58-.76,0,0-8.33,23.86-22.1,24.05,1.12-8.2,6.88-14.92,14.55-17.43l2.21-6.27c-12.79,2.12-22.54,13.24-22.54,26.62s9.23,23.89,21.5,26.43l-2.3-6.48c-7.11-2.78-12.38-9.26-13.43-17.07,14.98,1.39,20.83,24.11,20.83,24.11.13,0,.26,0,.39,0,2.23,0,4.39-.27,6.46-.78,0,0-7.39-20.83-18.26-26.21Zm20.65,25.5c10.55-3.67,18.13-13.7,18.13-25.5l-20.01.06,2.33,4.7h11.57c-1.33,5.88-5.09,10.84-10.16,13.78-1.17-2.92-4.87-11.65-9.68-18.48,0,0,7.13-9.77,10.35-18.18,4.91,3.09,8.47,8.12,9.61,14.02h5.66c-1.5-9.84-8.33-17.94-17.44-21.26,0,0-6.28,18.66-16.52,25.43,0,0,7.83,5.89,14.05,20.27l2.09,5.18Z"/><path class="cls-1" d="m118.12,100.61l7.91-10.29h8l-9.89,11.81,10.82,13.13h-8.4l-8.43-10.82v10.82h-6.48v-24.94h6.48v10.29Z"/><path class="cls-1" d="m133.97,102.79c0-1.85.34-3.58,1.03-5.18.68-1.6,1.63-2.99,2.85-4.18,1.21-1.19,2.66-2.12,4.35-2.79,1.69-.67,3.54-1.01,5.57-1.01s3.86.34,5.56,1.01c1.7.67,3.16,1.6,4.38,2.79,1.22,1.19,2.18,2.59,2.86,4.18.68,1.6,1.03,3.32,1.03,5.18s-.34,3.58-1.03,5.18c-.68,1.6-1.64,2.99-2.86,4.18-1.22,1.19-2.68,2.12-4.38,2.79-1.7.67-3.55,1.01-5.56,1.01s-3.89-.34-5.57-1.01c-1.69-.67-3.14-1.6-4.35-2.79-1.21-1.19-2.16-2.59-2.85-4.18-.68-1.6-1.03-3.32-1.03-5.18Zm6.78,0c0,.99.19,1.91.56,2.75.37.84.88,1.57,1.52,2.18.64.62,1.38,1.1,2.23,1.44.85.34,1.75.51,2.7.51s1.85-.17,2.7-.51c.85-.34,1.6-.82,2.25-1.44.65-.62,1.16-1.34,1.54-2.18.37-.84.56-1.75.56-2.75s-.19-1.91-.56-2.75c-.37-.84-.89-1.57-1.54-2.18-.65-.62-1.4-1.1-2.25-1.44-.85-.34-1.75-.51-2.7-.51s-1.85.17-2.7.51c-.85.34-1.59.82-2.23,1.44-.64.62-1.15,1.35-1.52,2.18-.38.84-.56,1.75-.56,2.75Z"/><path class="cls-1" d="m178.79,110.93h-9.26l-1.49,4.33h-6.91l9.49-24.94h7.08l9.49,24.94h-6.91l-1.49-4.33Zm-1.72-4.93l-2.91-8.3-2.91,8.3h5.82Z"/><path class="cls-1" d="m195.29,90.32v19.45h7.77v5.49h-14.26v-24.94h6.48Z"/><path class="cls-1" d="m221.49,110.93h-9.26l-1.49,4.33h-6.91l9.49-24.94h7.08l9.49,24.94h-6.91l-1.49-4.33Zm-1.72-4.93l-2.91-8.3-2.91,8.3h5.82Z"/><path class="cls-1" d="m123.78,135.66h12.87c0,1.32-.05,2.53-.16,3.61-.11,1.08-.33,2.08-.66,3.01-.46,1.3-1.09,2.45-1.89,3.46-.79,1-1.73,1.84-2.79,2.51-1.07.67-2.24,1.19-3.52,1.54-1.28.35-2.62.53-4.04.53-1.94,0-3.71-.32-5.31-.96-1.6-.64-2.97-1.54-4.12-2.7-1.15-1.16-2.04-2.55-2.68-4.17-.64-1.62-.96-3.41-.96-5.38s.31-3.72.94-5.34c.63-1.62,1.52-3,2.68-4.15,1.16-1.15,2.55-2.04,4.18-2.68,1.63-.64,3.45-.96,5.46-.96,2.6,0,4.88.56,6.85,1.69,1.96,1.12,3.52,2.87,4.66,5.23l-6.15,2.55c-.57-1.37-1.32-2.35-2.23-2.94-.92-.6-1.96-.89-3.13-.89-.97,0-1.85.18-2.65.55-.79.36-1.47.88-2.03,1.55-.56.67-1,1.48-1.32,2.43-.32.95-.48,2.01-.48,3.18,0,1.06.14,2.04.41,2.94.28.9.69,1.69,1.24,2.35.55.66,1.23,1.17,2.05,1.54.82.36,1.76.55,2.84.55.64,0,1.26-.07,1.85-.21.6-.14,1.13-.37,1.6-.69.47-.32.87-.73,1.17-1.24.31-.51.52-1.12.63-1.85h-5.33v-5.03Z"/><path class="cls-1" d="m160.89,149.61h-8.07l-6.19-9.59v9.59h-6.48v-24.94h10.09c1.39,0,2.6.2,3.64.61,1.04.41,1.89.96,2.56,1.67.67.71,1.18,1.52,1.52,2.45.34.93.51,1.92.51,2.98,0,1.9-.46,3.44-1.37,4.61-.92,1.18-2.27,1.98-4.05,2.4l7.84,10.22Zm-14.26-13.79h1.22c1.28,0,2.26-.26,2.94-.79.68-.53,1.03-1.29,1.03-2.28s-.34-1.75-1.03-2.28c-.68-.53-1.67-.79-2.94-.79h-1.22v6.15Z"/><path class="cls-1" d="m169.49,124.67v24.94h-6.48v-24.94h6.48Z"/><path class="cls-1" d="m180.61,149.61h-6.48v-24.94h10.32c2.8,0,4.95.73,6.43,2.18,1.49,1.46,2.23,3.51,2.23,6.15s-.74,4.7-2.23,6.15c-1.49,1.46-3.63,2.18-6.43,2.18h-3.84v8.27Zm0-13.5h2.15c2.38,0,3.57-1.04,3.57-3.11s-1.19-3.11-3.57-3.11h-2.15v6.22Z"/><path class="cls-1" d="m202.44,149.61h-6.48v-24.94h10.32c2.8,0,4.95.73,6.43,2.18,1.49,1.46,2.23,3.51,2.23,6.15s-.74,4.7-2.23,6.15c-1.49,1.46-3.63,2.18-6.43,2.18h-3.84v8.27Zm0-13.5h2.15c2.38,0,3.57-1.04,3.57-3.11s-1.19-3.11-3.57-3.11h-2.15v6.22Z"/><path class="cls-1" d="m231.97,130.17h-7.71v4.17h7.28v5.49h-7.28v4.3h7.71v5.49h-14.19v-24.94h14.19v5.49Z"/><path class="cls-1" d="m256.78,149.61h-8.07l-6.19-9.59v9.59h-6.48v-24.94h10.09c1.39,0,2.6.2,3.64.61,1.04.41,1.89.96,2.56,1.67.67.71,1.18,1.52,1.52,2.45.34.93.51,1.92.51,2.98,0,1.9-.46,3.44-1.37,4.61-.92,1.18-2.27,1.98-4.05,2.4l7.84,10.22Zm-14.26-13.79h1.22c1.28,0,2.26-.26,2.94-.79.68-.53,1.03-1.29,1.03-2.28s-.34-1.75-1.03-2.28c-.68-.53-1.67-.79-2.94-.79h-1.22v6.15Z"/><path class="cls-1" d="m272.59,131.06c-.71-.57-1.41-1-2.12-1.27-.71-.28-1.39-.41-2.05-.41-.84,0-1.52.2-2.05.6-.53.4-.79.92-.79,1.55,0,.44.13.81.4,1.09.26.29.61.53,1.04.74.43.21.91.39,1.46.55.54.15,1.07.32,1.6.5,2.12.71,3.67,1.65,4.65,2.83.98,1.18,1.47,2.72,1.47,4.61,0,1.28-.21,2.44-.64,3.47-.43,1.04-1.06,1.92-1.89,2.66-.83.74-1.84,1.31-3.04,1.72-1.2.41-2.56.61-4.08.61-3.15,0-6.08-.94-8.77-2.81l2.78-5.23c.97.86,1.93,1.5,2.88,1.92.95.42,1.89.63,2.81.63,1.06,0,1.85-.24,2.36-.73.52-.49.78-1.04.78-1.65,0-.37-.07-.7-.2-.98-.13-.28-.35-.53-.66-.76s-.71-.45-1.21-.65c-.5-.2-1.1-.42-1.8-.66-.84-.26-1.66-.56-2.46-.88-.81-.32-1.52-.74-2.15-1.27-.63-.53-1.14-1.2-1.52-2-.39-.8-.58-1.82-.58-3.06s.2-2.35.61-3.36c.41-1,.98-1.86,1.72-2.58.74-.72,1.64-1.27,2.71-1.67,1.07-.4,2.27-.6,3.59-.6,1.23,0,2.52.17,3.87.51,1.34.34,2.63.84,3.87,1.5l-2.58,5.06Z"/></g></svg>