<?xml version="1.0" encoding="UTF-8"?><svg id="Layer_1" xmlns="http://www.w3.org/2000/svg" viewBox="0 0 320 240"><defs><style>.cls-1{fill:#5d5d5d;}.cls-2{fill:#999;stroke:#999;stroke-miterlimit:10;stroke-width:.51px;}</style></defs><g id="L3-Micreo_Pty_Ltd"><path class="cls-1" d="m63.56,120c0,11.83,3.96,22.72,10.62,31.45v-62.9c-6.66,8.72-10.62,19.62-10.62,31.45Z"/><path class="cls-1" d="m115.42,68.14c-12.6,0-24.15,4.49-33.13,11.97h17.17v59.19h30.67s-11.02-1.73-11.02-15.34h9.94s-.86,7.56,7.56,7.56,7.34-5.4,7.34-5.4c0,0,1.73-6.11-9.94-6.11v-6.63s9.07.43,9.07-3.67-4.32-5.18-6.05-5.18-6.48,1.3-6.48,6.48h-10.37s-.22-15.12,17.71-15.12c0,0,15.12.65,15.12,11.66,0,0,1.3,8.86-5.83,8.86,0,0,7.13.86,7.13,9.94s-7.34,14.04-15.77,14.04h-3.89l-.22,19.66h-52.01c8.96,7.39,20.45,11.84,32.98,11.84,28.64,0,51.86-23.22,51.86-51.86s-23.22-51.86-51.86-51.86Z"/><path class="cls-2" d="m186.27,110.1l5.72,15.35,5.83-15.35h2.5v18h-1.92v-14.77l-5.41,14.77h-1.74l-5.51-14.77v14.77h-1.92v-18h2.47Z"/><path class="cls-2" d="m205.44,110v2.24h-1.9v-2.24h1.9Zm0,5.18v12.93h-1.9v-12.93h1.9Z"/><path class="cls-2" d="m217.46,119.15c-.26-.94-.65-1.59-1.17-1.96-.52-.37-1.2-.56-2.03-.56-.61,0-1.14.13-1.6.39-.46.26-.85.61-1.18,1.05-.33.44-.58.95-.74,1.52-.16.57-.25,1.18-.25,1.82s.09,1.3.26,1.94c.17.63.42,1.2.74,1.69s.71.89,1.17,1.2c.46.3.98.46,1.55.46.47,0,.88-.08,1.24-.25.36-.16.67-.39.94-.68.27-.29.49-.62.66-1,.17-.38.3-.79.39-1.22h2.08c-.19,1.53-.75,2.71-1.69,3.56-.94.85-2.17,1.27-3.69,1.27-.97,0-1.8-.21-2.5-.62-.69-.42-1.27-.95-1.72-1.61-.45-.66-.78-1.4-1-2.24-.22-.83-.32-1.66-.32-2.5,0-.9.13-1.75.4-2.54.27-.79.65-1.48,1.14-2.07.49-.59,1.09-1.05,1.79-1.38.7-.33,1.49-.49,2.35-.49.75,0,1.42.1,2.02.31.6.21,1.11.5,1.53.88.42.38.78.83,1.05,1.34.28.51.48,1.07.6,1.68h-2.03Z"/><path class="cls-2" d="m222.22,115.18h1.9l-.08,1.98c.8-1.47,1.91-2.21,3.33-2.21.14,0,.29.01.44.04.16.03.3.06.44.12v1.95c-.42-.14-.73-.21-.94-.21-.5,0-.95.1-1.35.29-.4.19-.74.45-1.01.77-.28.32-.49.69-.62,1.11-.14.42-.21.85-.21,1.3v7.8h-1.9v-12.93Z"/><path class="cls-2" d="m232.31,121.99c.02.61.13,1.19.33,1.76.2.56.48,1.07.83,1.51.36.44.77.79,1.24,1.05.47.26.98.39,1.54.39,1.85,0,3.09-.87,3.69-2.6h1.74c-.14.68-.38,1.28-.73,1.81-.35.53-.76.97-1.25,1.34-.49.36-1.03.64-1.63.83-.6.19-1.21.29-1.83.29-.9,0-1.72-.19-2.45-.56-.73-.37-1.35-.88-1.87-1.51-.52-.63-.92-1.37-1.2-2.2-.28-.83-.42-1.72-.42-2.65,0-.87.14-1.69.42-2.47.28-.78.67-1.47,1.18-2.07.51-.6,1.13-1.08,1.86-1.43.73-.36,1.54-.53,2.44-.53s1.68.16,2.38.48c.7.32,1.3.76,1.79,1.31.49.56.88,1.22,1.14,1.99.27.77.4,1.61.4,2.51v.75h-9.62Zm7.65-1.48c-.02-.54-.12-1.04-.3-1.52-.18-.48-.44-.89-.77-1.24-.33-.35-.73-.62-1.21-.82-.48-.2-1.01-.3-1.6-.3-.54,0-1.03.11-1.48.33-.45.22-.85.5-1.18.86-.34.36-.6.77-.79,1.24-.19.47-.29.95-.31,1.46h7.65Z"/><path class="cls-2" d="m244.69,121.65c0-.92.13-1.79.39-2.6.26-.82.64-1.53,1.13-2.13.49-.61,1.11-1.09,1.83-1.44.73-.36,1.56-.53,2.5-.53s1.77.18,2.51.53c.74.36,1.36.84,1.86,1.44.5.61.88,1.32,1.14,2.13.26.82.39,1.68.39,2.6s-.13,1.79-.39,2.6c-.26.82-.64,1.53-1.14,2.13-.5.61-1.12,1.08-1.86,1.43-.74.35-1.57.52-2.51.52s-1.77-.17-2.5-.52c-.73-.35-1.34-.82-1.83-1.43-.49-.61-.87-1.32-1.13-2.13-.26-.81-.39-1.68-.39-2.6Zm1.9,0c0,.69.09,1.34.27,1.95.18.61.44,1.14.78,1.59.34.45.75.81,1.25,1.07.49.26,1.04.39,1.65.39s1.16-.13,1.65-.39c.49-.26.91-.62,1.26-1.07.35-.45.61-.98.79-1.59.18-.61.27-1.26.27-1.95s-.09-1.34-.27-1.95c-.18-.61-.45-1.14-.79-1.59-.35-.45-.77-.81-1.26-1.08-.49-.27-1.04-.4-1.65-.4s-1.16.13-1.65.4c-.49.27-.91.63-1.25,1.08-.34.45-.6.98-.78,1.59-.18.61-.27,1.26-.27,1.95Z"/></g></svg>