<?xml version="1.0" encoding="UTF-8"?><svg id="Layer_1" xmlns="http://www.w3.org/2000/svg" viewBox="0 0 320 240"><defs><style>.cls-1{fill:#003478;stroke-width:0px;}</style></defs><path class="cls-1" d="m39.31,119.76h3.99l-2.42,11.41h6.37l-.59,2.79h-10.37l3.01-14.2Z"/><path class="cls-1" d="m51.92,121.33c2.18-1.81,4.94-1.97,5.98-1.97,5.67,0,6.34,4.07,5.59,7.53-1.2,5.67-5.59,7.4-8.97,7.4-3.78,0-6.85-2.08-5.73-7.38.2-.94.96-3.78,3.13-5.59Zm3.27,10.07c2.81,0,3.84-2.6,4.25-4.56.41-1.99.16-2.97-.14-3.6-.41-.79-1.28-1.02-2.14-1.02-2.6,0-3.78,2.24-4.31,4.68-.47,2.26-.28,4.51,2.34,4.51h0Z"/><path class="cls-1" d="m75.31,124.22c.14-1.44-.77-1.97-1.89-1.97-2.38,0-3.56,2.18-4.11,4.78-.2.87-.92,4.45,2.12,4.45,2.09,0,2.62-1.52,2.81-2.07h4.09c-.96,4.45-5.57,4.82-7.42,4.82-1.38,0-3.76-.24-5-1.89-1.2-1.65-.98-3.91-.67-5.39.41-1.95,1.28-3.9,2.93-5.41,1.81-1.65,3.78-2.08,5.84-2.08,2.3,0,3.94.55,4.8,1.73.89,1.22.63,2.5.53,3.03h-4.05Z"/><path class="cls-1" d="m82.7,119.76h3.99l-1.32,6.24,5.86-6.24h4.66l-6.22,6.26,3.6,7.95h-4.88l-3.11-7.55-1.61,7.55h-3.99l3.01-14.2Z"/><path class="cls-1" d="m97.79,119.76h3.97s-1.16,5.55-1.16,5.55h4.74l1.16-5.55h3.99l-3.01,14.2h-3.99l1.22-5.74h-4.76l-1.22,5.74h-3.95l3.01-14.2Z"/><path class="cls-1" d="m113.17,119.8h10.66l-.57,2.72h-6.77l-.63,2.95h6.37l-.59,2.72h-6.37l-.63,3.03h6.93l-.59,2.75h-10.82l3.01-14.16h0Z"/><path class="cls-1" d="m126.29,119.8h10.66l-.57,2.72h-6.77l-.63,2.95h6.37l-.59,2.72h-6.37l-.63,3.03h6.93l-.59,2.75h-10.82l3.01-14.16h0Z"/><path class="cls-1" d="m139.49,119.76h6c1.69,0,3.91.18,5.17,1.18,1.79,1.44,1.87,3.78,1.42,5.88-.67,3.15-2.16,5.47-5.27,6.59-1.57.55-3.31.55-4.29.55h-6.04l3.01-14.2h0Zm1.61,11.47h1.69c2.62-.02,4.52-1.14,5.23-4.45.91-4.31-2.32-4.31-3.52-4.31l-1.56-.02-1.85,8.77h0Z"/><path class="cls-1" d="m162.23,119.76h6.2l.33,9.62,4.27-9.62,6.2-.02-3.01,14.23h-3.72l2.72-11.92-5.9,11.92h-3.54l-.69-12.02-2.46,12.02h-3.4l3.01-14.2h0Z"/><path class="cls-1" d="m186.43,119.76h4.8l2.6,14.2h-4.45l-.37-2.85h-5.69l-1.57,2.85h-3.94l8.62-14.2h0Zm2.22,8.73l-.57-5.96h-.06l-3.23,5.96h3.86Z"/><path class="cls-1" d="m198.33,119.76h6.57c2.56,0,3.5.16,4.15,1.02.35.43.73,1.22.41,2.75-.33,1.55-1.1,2.22-1.87,2.64-1.02.57-1.91.67-2.32.73l-.02.08c2.75.08,2.64,1.3,2.5,3.48-.08.96-.2,2.5-.08,3.5h-4.27c-.06-.87.08-1.95.22-3.21.18-1.71.26-2.34-1.52-2.34h-1.65l-1.18,5.55h-3.95l3.01-14.2h0Zm2.68,6.1h1.48c.87,0,1.3,0,1.65-.12.92-.28,1.28-1.16,1.38-1.61.37-1.75-1.16-1.75-2.3-1.75h-1.47l-.73,3.48h0Z"/><path class="cls-1" d="m215.19,122.57h-4.33l.59-2.81h12.73l-.59,2.81h-4.43l-2.42,11.39h-3.97l2.42-11.39h0Z"/><path class="cls-1" d="m225.55,119.76h4.05l-3.01,14.2h-4.05l3.01-14.2Z"/><path class="cls-1" d="m232.24,119.76h5.43l2.56,10.58,2.2-10.58h3.44l-3.01,14.2h-5.31l-2.56-11.04-2.3,11.04h-3.46l3.01-14.2h0Z"/><path class="cls-1" d="m267.67,115.93l4.25-14.39c.05-.18-.18-.31-.31-.17l-13.51,14.56h-59.03c-.24,0-.25.36-.01.37l57.71,1.26,3.64.08,3.49.08.22-1.79h-4.33l7.29-6.64-1.27,6.64-1.85,9.72-2.44,12.82c-.04.23.29.31.36.08l3.32-13.51,18.41-8.76c.17-.09.11-.35-.08-.35h-15.85Zm-.51,1.86l6.85.15-8.23,4.89,1.38-5.04h0Z"/><path class="cls-1" d="m257.19,118.46l-1.16-.04-6.8,6.95c-.16.17.08.42.25.26l7.71-7.17h0Z"/><path class="cls-1" d="m262.91,126.12l.21-1.82-15.88,9.31c-.2.12-.03.42.18.32l15.49-7.81h0Z"/></svg>