<?xml version="1.0" encoding="UTF-8"?><svg id="Layer_1" xmlns="http://www.w3.org/2000/svg" viewBox="0 0 320 240"><defs><style>.cls-1{stroke-width:0px;}</style></defs><path class="cls-1" d="m44.77,110.1h1.58v17.96h10.68v1.5h-12.26v-19.46Z"/><path class="cls-1" d="m66.4,113.69c4.56,0,8.12,3.42,8.12,8.12s-3.56,8.09-8.12,8.09-8.09-3.42-8.09-8.09c0-4.7,3.56-8.12,8.09-8.12Zm0,14.76c3.67,0,6.56-2.7,6.56-6.64s-2.89-6.67-6.56-6.67-6.53,2.7-6.53,6.67,2.86,6.64,6.53,6.64Z"/><path class="cls-1" d="m91.33,129.56c0-2,.03-2.47.03-2.56h-.03c-1.5,1.86-3.77,2.93-6.16,2.89-4.73,0-8.2-3.42-8.2-8.09s3.53-8.12,8.12-8.12c2.78,0,5.92,1.25,7.34,4.59l-1.45.39c-.76-1.64-2.66-3.56-5.85-3.56-3.78,0-6.62,2.67-6.62,6.7s2.81,6.64,6.78,6.64c3.03,0,5.31-1.72,6.03-2.97v-2.32h-4.92v-1.39h6.34v7.78h-1.42Z"/><path class="cls-1" d="m98.76,125l-1.86,4.56h-1.61l6.59-15.57h1.75l6.56,15.57h-1.61l-1.9-4.56h-7.91Zm5.72-5.28c-1.19-2.86-1.69-4.28-1.72-4.31h-.06s-.61,1.58-1.83,4.5l-1.53,3.73h6.75l-1.61-3.92Z"/><path class="cls-1" d="m124.36,129.56l-9.62-13.23h-.06s.06,1.7.06,3.59v9.65h-1.53v-15.57h1.58l9.56,13.07h.06s-.06-1.64-.06-3.42v-9.65h1.56v15.57h-1.56Z"/><path class="cls-1" d="m139.34,125l-1.85,4.56h-1.61l6.59-15.57h1.75l6.56,15.57h-1.61l-1.91-4.56h-7.92Zm5.73-5.28c-1.2-2.86-1.7-4.28-1.72-4.31h-.06s-.61,1.58-1.83,4.5l-1.53,3.73h6.76l-1.61-3.92Z"/><path class="cls-1" d="m164.95,129.56l-9.62-13.23h-.06s.06,1.7.06,3.59v9.65h-1.53v-15.57h1.58l9.56,13.07h.06s-.06-1.64-.06-3.42v-9.65h1.56v15.57h-1.56Z"/><path class="cls-1" d="m176.17,113.99c5.03,0,8.56,2.97,8.56,7.84s-3.52,7.73-8.4,7.73h-5.25v-15.57h5.08Zm.14,14.12c3.95,0,6.87-2.17,6.87-6.28s-2.86-6.39-7.04-6.39h-3.52v12.68h3.7Z"/><path class="cls-1" d="m207.7,120.58c-.92-2.92-1.64-5.59-1.67-5.64h-.06c-.03.06-.75,2.72-1.72,5.81l-2.81,8.81h-1.67l-6.42-19.46h1.72l3.11,9.51c1.08,3.28,2.45,7.6,2.47,7.64h.06c.03-.06,1.3-4.34,2.06-6.7l2.39-7.62h1.78l2.4,7.62c.74,2.36,2,6.64,2.04,6.7h.06c.03-.06,1.36-4.36,2.39-7.48l3.21-9.67h1.61l-6.45,19.46h-1.61l-2.89-8.98Z"/><path class="cls-1" d="m220.65,125l-1.85,4.56h-1.61l6.59-15.57h1.75l6.56,15.57h-1.61l-1.89-4.56h-7.93Zm5.73-5.28c-1.2-2.86-1.7-4.28-1.72-4.31h-.06s-.61,1.58-1.83,4.5l-1.53,3.73h6.76l-1.61-3.92Z"/><path class="cls-1" d="m236.84,129.56v-6.73l-6.03-8.84h1.81l2.72,3.98c1.36,1.95,2.31,3.36,2.34,3.39h.03l2.36-3.39,2.72-3.98h1.67l-6.06,8.84v6.73h-1.56Z"/><path class="cls-1" d="m258.41,129.56l-9.62-13.23h-.06s.06,1.7.06,3.59v9.65h-1.53v-15.57h1.58l9.56,13.07h.06s-.06-1.64-.06-3.42v-9.65h1.56v15.57h-1.56Z"/><path class="cls-1" d="m264.55,113.99h10.54v1.45h-9.01v5.31h7.09v1.42h-7.09v5.95h9.15v1.45h-10.68v-15.57Z"/></svg>