<?xml version="1.0" encoding="UTF-8"?><svg id="Layer_1" xmlns="http://www.w3.org/2000/svg" viewBox="0 0 320 240"><defs><style>.cls-1{fill:#686868;}.cls-2{fill:#b8b8b8;}.cls-3{fill:#636363;}.cls-4{fill:#7b7b7b;}</style></defs><g id="Lomax_Group_Pty_Ltd"><path class="cls-4" d="m64.73,134.61l-4.75-5.53c-.62-.72-1.11-2.04-1.11-2.99v-5.12c0-1.07.87-1.95,1.95-1.96l5.2-.05c.64,0,1.16-.53,1.16-1.17v-9.82c0-.64-.52-1.15-1.15-1.15h-5.2c-1.08,0-1.95-.88-1.95-1.95v-5.65c0-.96.5-2.26,1.13-2.98l4.71-5.3c.31-.35.77-.67,1.27-.9h-7.74c-1.46,0-3.78.39-5.16.87l-8.97,3.1c-1.38.48-2.51,2.06-2.51,3.52v30.52c0,1.46,1.13,3.04,2.51,3.52l8.97,3.1c1.38.48,3.7.87,5.16.87h7.75c-.5-.24-.96-.56-1.27-.92Zm-17.14-13.25c-1.22,0-2.21-.99-2.21-2.21s.99-2.21,2.21-2.21,2.21.99,2.21,2.21-.99,2.21-2.21,2.21Zm0-12.74c-1.22,0-2.21-.99-2.21-2.21s.99-2.21,2.21-2.21,2.21.99,2.21,2.21-.99,2.21-2.21,2.21Z"/><path class="cls-4" d="m99.76,118.98v-3.36h-9.19c-.58,0-1.06-.48-1.06-1.06v-3.54c0-.58.48-1.06,1.06-1.06h9.19v-3.36c0-.8.65-1.46,1.46-1.46h1v-7.61c0-1.46-1.13-3.04-2.51-3.52l-8.97-3.1c-1.38-.48-3.7-.87-5.16-.87h-8.77c.5.24.96.56,1.27.92l4.61,5.36c.62.72,1.11,2.03,1.11,2.99v5.56c0,1.08-.88,1.95-1.95,1.95h-5.13c-.64,0-1.15.52-1.15,1.15v9.9c0,.64.52,1.15,1.15,1.15h5.13c1.08,0,1.95.87,1.95,1.95v5.21c0,.95-.48,2.27-1.1,2.99l-4.63,5.44c-.31.36-.77.69-1.27.92h8.78c1.46,0,3.78-.39,5.16-.87l8.97-3.1c1.38-.48,2.51-2.06,2.51-3.52v-7.61h-1c-.8,0-1.46-.65-1.46-1.46Z"/><path class="cls-4" d="m100.56,118.98c0,.37.3.66.66.66h1v-6.46h-1.66v5.79Z"/><path class="cls-4" d="m82.1,128.66c.49-.58.91-1.71.91-2.48v-5.21c0-.64-.52-1.15-1.15-1.15h-5.13c-1.08,0-1.95-.88-1.95-1.95v-9.9c0-1.08.88-1.95,1.95-1.95h5.13c.64,0,1.15-.52,1.15-1.15v-5.56c0-.76-.42-1.89-.92-2.47l-4.61-5.36c-.48-.56-1.52-1.04-2.26-1.04h-7.62c-.74,0-1.79.47-2.29,1.03l-4.71,5.3c-.5.57-.93,1.69-.93,2.45v5.65c0,.64.52,1.15,1.15,1.15h5.2c1.08,0,1.95.88,1.95,1.95v9.82c0,1.07-.87,1.95-1.95,1.96l-5.2.05c-.64,0-1.16.53-1.16,1.17v5.12c0,.76.42,1.89.91,2.47l4.75,5.53c.48.56,1.52,1.04,2.26,1.04h7.62c.74,0,1.77-.48,2.26-1.04h0l4.63-5.44Z"/><path class="cls-4" d="m101.22,105.93c-.37,0-.66.3-.66.66v5.79h1.66v-6.46h-1Z"/><path class="cls-1" d="m118.9,98.64c0-2.04-1.66-3.7-3.7-3.7s-3.7,1.66-3.7,3.7v20.32h21.86l2.92-5.77h-17.25l-.13-14.54Z"/><path class="cls-1" d="m199.15,97.93c1.22-1.6,3.14-2.63,5.31-2.63,3.68,0,6.66,2.98,6.66,6.66v17h-6.71v-18.52s-.27-.68-.6,0c-.33.68-7.63,16.4-7.63,16.4,0,0-1,2.12-3.78,2.12s-3.78-2.12-3.78-2.12c0,0-7.3-15.72-7.63-16.4s-.6,0-.6,0v18.52h-6.71v-17c0-3.68,2.98-6.66,6.66-6.66,2.17,0,4.09,1.03,5.31,2.63l6.29,12.53s.53.46.86,0c.33-.46,6.35-12.53,6.35-12.53Z"/><path class="cls-1" d="m157.77,94.94h-6.83c-6.42,0-11.67,3.13-11.67,9.55v4.91c0,6.42,5.25,9.55,11.67,9.55h6.83c6.42,0,11.67-3.13,11.67-9.55v-4.91c0-6.42-5.25-9.55-11.67-9.55Zm4.06,13.87c0,3.48-2.14,4.65-5.62,4.65h-3.71c-3.48,0-5.62-1.17-5.62-4.65v-3.73c0-3.48,2.14-4.65,5.62-4.65h3.71c3.48,0,5.62,1.17,5.62,4.65v3.73Z"/><path class="cls-1" d="m214.16,118.96h9.42l5.84-16.32s.13-.66.53-.66.53.6.53.6l3.58,10.02s.46.93-.46.93h-2.92l-2.06,5.83h17.11l-8.96-20.76s-1.39-3.29-6.83-3.29-6.83,3.76-6.83,3.76l-8.96,19.9Z"/><polygon class="cls-1" points="279.3 119.35 267.64 106.73 278.24 95.3 269.28 95.3 263.18 101.9 257.07 95.3 248.12 95.3 258.72 106.73 247.06 119.35 255.95 119.35 263.18 111.55 270.41 119.35 279.3 119.35"/><path class="cls-3" d="m110.93,122.99h1.37v3.11h3.13v-3.11h1.37v7.75h-1.37v-3.44h-3.13v3.44h-1.37v-7.75Z"/><path class="cls-3" d="m118.37,126.84c0-2.51,1.4-3.99,3.42-3.99s3.42,1.49,3.42,3.99-1.4,4.05-3.42,4.05-3.42-1.54-3.42-4.05Zm5.42,0c0-1.74-.79-2.79-2-2.79s-2,1.05-2,2.79.79,2.85,2,2.85,2-1.11,2-2.85Z"/><path class="cls-3" d="m128.17,122.99h1.61l2.53,7.75h-1.45l-1.18-4.12c-.25-.82-.47-1.7-.7-2.55h-.05c-.21.86-.44,1.73-.69,2.55l-1.19,4.12h-1.4l2.53-7.75Zm-1.03,4.57h3.65v1.08h-3.65v-1.08Z"/><path class="cls-3" d="m133.2,122.99h2.61c1.61,0,2.85.57,2.85,2.3s-1.24,2.42-2.85,2.42h-1.24v3.03h-1.37v-7.75Zm2.47,3.62c1.06,0,1.64-.44,1.64-1.32s-.58-1.2-1.64-1.2h-1.09v2.52h1.09Zm-.12.73l1-.82,2.42,4.21h-1.54l-1.87-3.39Z"/><path class="cls-3" d="m140.2,122.99h2.07c2.37,0,3.78,1.28,3.78,3.84s-1.4,3.9-3.71,3.9h-2.14v-7.75Zm1.98,6.63c1.56,0,2.45-.89,2.45-2.79s-.9-2.73-2.45-2.73h-.6v5.52h.6Z"/><path class="cls-3" d="m147.61,122.99h1.37v7.75h-1.37v-7.75Z"/><path class="cls-3" d="m150.95,122.99h1.41l2.41,4.35.8,1.65h.05c-.07-.8-.18-1.78-.18-2.64v-3.36h1.31v7.75h-1.41l-2.41-4.36-.8-1.65h-.05c.07.82.18,1.75.18,2.62v3.39h-1.31v-7.75Z"/><path class="cls-3" d="m158.32,126.89c0-2.54,1.61-4.04,3.67-4.04,1.1,0,1.85.48,2.34.98l-.73.89c-.39-.38-.84-.67-1.56-.67-1.37,0-2.3,1.07-2.3,2.81s.82,2.84,2.37,2.84c.43,0,.86-.12,1.1-.34v-1.67h-1.46v-1.13h2.69v3.42c-.52.52-1.41.92-2.47.92-2.09,0-3.65-1.43-3.65-3.99Z"/><path class="cls-3" d="m170.05,122.99h1.61l2.53,7.75h-1.45l-1.18-4.12c-.25-.82-.47-1.7-.7-2.55h-.05c-.21.86-.44,1.73-.69,2.55l-1.19,4.12h-1.4l2.53-7.75Zm-1.03,4.57h3.65v1.08h-3.65v-1.08Z"/><path class="cls-3" d="m175.07,122.99h1.41l2.41,4.35.8,1.65h.05c-.07-.8-.18-1.78-.18-2.64v-3.36h1.31v7.75h-1.41l-2.41-4.36-.8-1.65h-.05c.07.82.18,1.75.18,2.62v3.39h-1.31v-7.75Z"/><path class="cls-3" d="m182.84,122.99h2.07c2.37,0,3.78,1.28,3.78,3.84s-1.4,3.9-3.71,3.9h-2.14v-7.75Zm1.98,6.63c1.56,0,2.45-.89,2.45-2.79s-.9-2.73-2.45-2.73h-.6v5.52h.6Z"/><path class="cls-3" d="m192.62,122.99h4.68v1.16h-3.31v2.2h2.81v1.16h-2.81v3.24h-1.37v-7.75Z"/><path class="cls-3" d="m198.66,122.99h4.66v1.16h-3.29v1.99h2.79v1.16h-2.79v2.29h3.41v1.16h-4.78v-7.75Z"/><path class="cls-3" d="m205.02,122.99h1.41l2.41,4.35.8,1.65h.05c-.07-.8-.18-1.78-.18-2.64v-3.36h1.31v7.75h-1.41l-2.41-4.36-.8-1.65h-.05c.07.82.18,1.75.18,2.62v3.39h-1.31v-7.75Z"/><path class="cls-3" d="m212.39,126.89c0-2.54,1.59-4.04,3.55-4.04.97,0,1.74.46,2.23.98l-.73.89c-.4-.4-.86-.67-1.47-.67-1.26,0-2.17,1.07-2.17,2.81s.83,2.84,2.13,2.84c.69,0,1.22-.32,1.65-.8l.73.86c-.63.73-1.44,1.13-2.44,1.13-1.95,0-3.49-1.43-3.49-3.99Z"/><path class="cls-3" d="m219.62,122.99h1.37v7.75h-1.37v-7.75Z"/><path class="cls-3" d="m222.97,122.99h1.41l2.41,4.35.8,1.65h.05c-.07-.8-.18-1.78-.18-2.64v-3.36h1.31v7.75h-1.41l-2.41-4.36-.8-1.65h-.05c.07.82.18,1.75.18,2.62v3.39h-1.31v-7.75Z"/><path class="cls-3" d="m230.33,126.89c0-2.54,1.61-4.04,3.67-4.04,1.1,0,1.85.48,2.34.98l-.73.89c-.39-.38-.84-.67-1.56-.67-1.37,0-2.3,1.07-2.3,2.81s.82,2.84,2.37,2.84c.43,0,.86-.12,1.1-.34v-1.67h-1.46v-1.13h2.69v3.42c-.52.52-1.41.92-2.47.92-2.09,0-3.65-1.43-3.65-3.99Z"/><path class="cls-3" d="m240.01,129.75l.8-.94c.55.53,1.3.88,2.02.88.87,0,1.35-.4,1.35-1,0-.64-.5-.84-1.2-1.14l-1.06-.46c-.76-.32-1.57-.92-1.57-2.05,0-1.23,1.09-2.18,2.6-2.18.91,0,1.78.37,2.39.99l-.71.87c-.49-.42-1.02-.67-1.68-.67-.73,0-1.21.34-1.21.91,0,.61.59.83,1.23,1.1l1.04.44c.92.38,1.57.97,1.57,2.09,0,1.26-1.04,2.3-2.78,2.3-1.05,0-2.06-.41-2.79-1.13Z"/><path class="cls-3" d="m248.1,127.86l-2.33-4.87h1.47l.84,1.98c.23.58.45,1.11.69,1.7h.05c.24-.59.49-1.13.71-1.7l.84-1.98h1.43l-2.33,4.87v2.88h-1.37v-2.88Z"/><path class="cls-3" d="m251.99,129.75l.8-.94c.55.53,1.3.88,2.02.88.87,0,1.35-.4,1.35-1,0-.64-.5-.84-1.2-1.14l-1.06-.46c-.76-.32-1.57-.92-1.57-2.05,0-1.23,1.09-2.18,2.6-2.18.91,0,1.78.37,2.39.99l-.71.87c-.49-.42-1.02-.67-1.68-.67-.73,0-1.21.34-1.21.91,0,.61.59.83,1.23,1.1l1.04.44c.92.38,1.57.97,1.57,2.09,0,1.26-1.04,2.3-2.78,2.3-1.05,0-2.06-.41-2.79-1.13Z"/><path class="cls-3" d="m260.3,124.15h-2.24v-1.16h5.85v1.16h-2.24v6.59h-1.37v-6.59Z"/><path class="cls-3" d="m265.21,122.99h4.66v1.16h-3.29v1.99h2.79v1.16h-2.79v2.29h3.41v1.16h-4.78v-7.75Z"/><path class="cls-3" d="m271.58,122.99h1.55l1.37,3.79c.17.49.33,1.01.5,1.52h.05c.17-.51.32-1.03.49-1.52l1.34-3.79h1.55v7.75h-1.26v-3.54c0-.72.11-1.75.18-2.46h-.05l-.63,1.8-1.27,3.48h-.82l-1.28-3.48-.62-1.8h-.05c.07.72.18,1.75.18,2.46v3.54h-1.24v-7.75Z"/><path class="cls-2" d="m43.72,144.78c-.32-.42-.69-.46-.89-.46-.57,0-.75.36-.75.64,0,.13.04.25.17.37.13.12.31.19.65.31.42.15.82.29,1.1.55.24.22.46.59.46,1.14,0,1.06-.77,1.79-1.89,1.79-1,0-1.59-.61-1.88-1.03l.69-.66c.26.53.76.73,1.14.73.48,0,.84-.29.84-.75,0-.2-.07-.35-.21-.49-.2-.19-.53-.29-.84-.4-.29-.1-.63-.23-.91-.47-.18-.15-.43-.46-.43-1.01,0-.8.54-1.6,1.75-1.6.34,0,.99.07,1.54.64l-.55.73Z"/><path class="cls-2" d="m49.93,147.84h-2.19l-.48,1.14h-1.15l2.34-5.44h.83l2.28,5.44h-1.14l-.48-1.14Zm-.31-.86l-.77-1.96-.77,1.96h1.55Z"/><path class="cls-2" d="m56.46,144.46h-1.83v1.22h1.71v.91h-1.71v2.4h-1.06v-5.44h2.89v.91Z"/><path class="cls-2" d="m61.78,144.46h-1.96v1.22h1.88v.91h-1.88v1.48h1.96v.91h-3.02v-5.44h3.02v.91Z"/><path class="cls-2" d="m67.65,141.81h.99v8.15h-.99v-8.15Z"/><path class="cls-2" d="m122.31,141.81h.99v8.15h-.99v-8.15Z"/><path class="cls-2" d="m207.22,141.81h.99v8.15h-.99v-8.15Z"/><path class="cls-2" d="m77.63,148.79c-.33.17-.76.32-1.35.32-.95,0-1.53-.33-1.99-.76-.63-.6-.87-1.28-.87-2.08,0-.99.41-1.7.87-2.13.55-.51,1.22-.72,2-.72.38,0,.84.07,1.34.33v1.24c-.5-.57-1.12-.61-1.31-.61-1.09,0-1.8.9-1.8,1.9,0,1.21.93,1.86,1.84,1.86.51,0,.95-.22,1.27-.59v1.24Z"/><path class="cls-2" d="m85.54,146.27c0,1.66-1.19,2.84-2.9,2.84s-2.9-1.18-2.9-2.84,1.19-2.85,2.9-2.85,2.9,1.19,2.9,2.85Zm-1.09,0c0-1.1-.75-1.88-1.81-1.88s-1.81.78-1.81,1.88.75,1.88,1.81,1.88,1.81-.77,1.81-1.88Z"/><path class="cls-2" d="m88.64,143.54h.77l1.44,3.46,1.51-3.46h.77l.91,5.44h-1.08l-.49-3.35-1.46,3.35h-.36l-1.39-3.35-.55,3.35h-1.08l1.01-5.44Z"/><path class="cls-2" d="m97.97,143.54c.61,0,1.04.07,1.44.42.44.39.55.92.55,1.31,0,.21-.03.8-.45,1.21-.3.3-.75.48-1.38.48h-.68v2.01h-1.06v-5.44h1.58Zm-.52,2.51h.43c.2,0,.46,0,.69-.17.2-.15.29-.4.29-.64,0-.3-.15-.51-.3-.62-.22-.15-.5-.17-.75-.17h-.37v1.6Z"/><path class="cls-2" d="m104.87,147.84h-2.19l-.48,1.14h-1.15l2.34-5.44h.83l2.28,5.44h-1.14l-.48-1.14Zm-.31-.86l-.77-1.96-.77,1.96h1.55Z"/><path class="cls-2" d="m112.29,148.79c-.33.17-.76.32-1.35.32-.95,0-1.53-.33-1.99-.76-.63-.6-.87-1.28-.87-2.08,0-.99.41-1.7.87-2.13.55-.51,1.22-.72,2-.72.38,0,.84.07,1.34.33v1.24c-.5-.57-1.12-.61-1.31-.61-1.09,0-1.8.9-1.8,1.9,0,1.21.93,1.86,1.84,1.86.51,0,.95-.22,1.27-.59v1.24Z"/><path class="cls-2" d="m116.46,144.46v4.53h-1.06v-4.53h-1.22v-.91h3.51v.91h-1.22Z"/><path class="cls-2" d="m130.96,144.46h-1.83v1.22h1.71v.91h-1.71v2.4h-1.06v-5.44h2.89v.91Z"/><path class="cls-2" d="m134.84,143.54c.75,0,1.13.2,1.39.41.42.35.54.82.54,1.22,0,.53-.21,1-.64,1.28-.14.1-.33.19-.6.24l1.7,2.29h-1.32l-1.45-2.19h-.13v2.19h-1.06v-5.44h1.57Zm-.51,2.5h.3c.2,0,1.04-.02,1.04-.82s-.83-.82-1.03-.82h-.32v1.64Z"/><path class="cls-2" d="m142.35,144.46h-1.96v1.22h1.88v.91h-1.88v1.48h1.96v.91h-3.02v-5.44h3.02v.91Z"/><path class="cls-2" d="m147.78,144.46h-1.96v1.22h1.88v.91h-1.88v1.48h1.96v.91h-3.02v-5.44h3.02v.91Z"/><path class="cls-2" d="m149.99,146.65h2.12v.91h-2.12v-.91Z"/><path class="cls-2" d="m157.2,144.78c-.32-.42-.69-.46-.89-.46-.57,0-.75.36-.75.64,0,.13.04.25.17.37.13.12.31.19.65.31.42.15.82.29,1.1.55.24.22.46.59.46,1.14,0,1.06-.77,1.79-1.89,1.79-1,0-1.59-.61-1.88-1.03l.69-.66c.26.53.76.73,1.14.73.48,0,.84-.29.84-.75,0-.2-.07-.35-.21-.49-.2-.19-.53-.29-.84-.4-.29-.1-.63-.23-.91-.47-.18-.15-.43-.46-.43-1.01,0-.8.54-1.6,1.75-1.6.34,0,.99.07,1.54.64l-.55.73Z"/><path class="cls-2" d="m161.9,144.46v4.53h-1.06v-4.53h-1.22v-.91h3.51v.91h-1.22Z"/><path class="cls-2" d="m168.08,147.84h-2.19l-.48,1.14h-1.15l2.34-5.44h.83l2.28,5.44h-1.14l-.48-1.14Zm-.31-.86l-.78-1.96-.77,1.96h1.55Z"/><path class="cls-2" d="m171.73,148.98v-5.44h.73l3.31,3.63v-3.63h1.06v5.44h-.73l-3.31-3.64v3.64h-1.06Z"/><path class="cls-2" d="m180.88,143.54c.76,0,1.42.08,2.02.53.66.5,1.04,1.29,1.04,2.19s-.37,1.69-1.09,2.19c-.64.45-1.23.52-1.99.52h-1.4v-5.44h1.42Zm-.36,4.53h.33c.27,0,.86-.02,1.33-.36.43-.31.68-.86.68-1.44s-.24-1.13-.67-1.45c-.44-.33-.98-.36-1.34-.36h-.33v3.61Z"/><path class="cls-2" d="m187.37,143.54v5.44h-1.06v-5.44h1.06Z"/><path class="cls-2" d="m190,148.98v-5.44h.73l3.31,3.63v-3.63h1.06v5.44h-.73l-3.31-3.64v3.64h-1.06Z"/><path class="cls-2" d="m200.49,146.07h2.5v.07c0,.37-.05,1.51-.8,2.25-.56.56-1.26.72-1.93.72s-1.38-.14-1.97-.73c-.19-.19-.81-.87-.81-2.1,0-1.05.47-1.7.8-2.02.41-.42,1.09-.83,2.14-.83.41,0,.84.07,1.26.29.35.18.73.51,1.02.99l-.92.5c-.19-.37-.46-.55-.64-.64-.23-.11-.51-.17-.77-.17-.43,0-.92.15-1.26.48-.31.3-.55.82-.55,1.43,0,.73.31,1.16.54,1.38.24.24.63.46,1.21.46.36,0,.77-.1,1.07-.33.21-.16.42-.44.51-.83h-1.4v-.91Z"/><path class="cls-2" d="m213.77,143.54c.61,0,1.04.07,1.44.42.44.39.55.92.55,1.31,0,.21-.03.8-.45,1.21-.3.3-.75.48-1.38.48h-.68v2.01h-1.06v-5.44h1.58Zm-.52,2.51h.43c.2,0,.46,0,.69-.17.2-.15.29-.4.29-.64,0-.3-.15-.51-.3-.62-.22-.15-.5-.17-.75-.17h-.37v1.6Z"/><path class="cls-2" d="m219.51,143.54c.75,0,1.13.2,1.39.41.42.35.54.82.54,1.22,0,.53-.21,1-.64,1.28-.14.1-.33.19-.6.24l1.7,2.29h-1.32l-1.45-2.19h-.13v2.19h-1.06v-5.44h1.57Zm-.51,2.5h.3c.2,0,1.04-.02,1.04-.82s-.83-.82-1.03-.82h-.32v1.64Z"/><path class="cls-2" d="m227.02,144.46h-1.96v1.22h1.87v.91h-1.87v1.48h1.96v.91h-3.02v-5.44h3.02v.91Z"/><path class="cls-2" d="m229.22,146.65h2.12v.91h-2.12v-.91Z"/><path class="cls-2" d="m237.7,148.79c-.33.17-.76.32-1.35.32-.95,0-1.53-.33-1.99-.76-.63-.6-.87-1.28-.87-2.08,0-.99.41-1.7.87-2.13.55-.51,1.22-.72,2-.72.38,0,.84.07,1.34.33v1.24c-.5-.57-1.12-.61-1.31-.61-1.09,0-1.8.9-1.8,1.9,0,1.21.93,1.86,1.84,1.86.51,0,.95-.22,1.27-.59v1.24Z"/><path class="cls-2" d="m243.09,144.46h-1.96v1.22h1.88v.91h-1.88v1.48h1.96v.91h-3.02v-5.44h3.02v.91Z"/><path class="cls-2" d="m247.08,143.54c.75,0,1.13.2,1.39.41.42.35.54.82.54,1.22,0,.53-.21,1-.64,1.28-.14.1-.33.19-.6.24l1.7,2.29h-1.32l-1.45-2.19h-.13v2.19h-1.06v-5.44h1.57Zm-.51,2.5h.3c.2,0,1.04-.02,1.04-.82s-.83-.82-1.03-.82h-.32v1.64Z"/><path class="cls-2" d="m253.28,144.46v4.53h-1.06v-4.53h-1.22v-.91h3.51v.91h-1.22Z"/><path class="cls-2" d="m257.62,143.54v5.44h-1.06v-5.44h1.06Z"/><path class="cls-2" d="m263.14,144.46h-1.83v1.22h1.71v.91h-1.71v2.4h-1.06v-5.44h2.89v.91Z"/><path class="cls-2" d="m266.5,143.54v5.44h-1.06v-5.44h1.06Z"/><path class="cls-2" d="m272.14,144.46h-1.96v1.22h1.87v.91h-1.87v1.48h1.96v.91h-3.02v-5.44h3.02v.91Z"/><path class="cls-2" d="m275.98,143.54c.76,0,1.42.08,2.02.53.66.5,1.04,1.29,1.04,2.19s-.37,1.69-1.09,2.19c-.64.45-1.23.52-1.99.52h-1.4v-5.44h1.42Zm-.36,4.53h.33c.27,0,.86-.02,1.33-.36.43-.31.68-.86.68-1.44s-.24-1.13-.67-1.45c-.44-.33-.98-.36-1.34-.36h-.33v3.61Z"/></g></svg>