<?xml version="1.0" encoding="UTF-8"?><svg id="Layer_1" xmlns="http://www.w3.org/2000/svg" viewBox="0 0 320 240"><defs><style>.cls-1{fill:#1983b1;}.cls-1,.cls-2,.cls-3,.cls-4,.cls-5{stroke-width:0px;}.cls-2{fill:#00c9ec;}.cls-3{fill:#0167a0;}.cls-4{fill:#0168a0;}.cls-5{fill:#00669f;}</style></defs><g id="fm1U1v"><path class="cls-3" d="m161.26,116.07c3.59-9.16,10.43-11.73,16.18-11.11,9.61,1.03,13.85,7.48,14.38,13.4.75,8.4-4.25,13.93-11.17,16.17-7.24,2.34-15.59-1.06-19.43-10.55-2.94,7.39-8.38,11.31-15.82,11.32-4.83,0-9.05-2.42-12.04-6.59-5.61-7.81-2.84-17.48,5.07-21.97,6.37-3.61,18.26-2.67,22.82,9.33Zm23.65,3.91c-.05-4.76-3.71-8.04-8.56-8.22-4.61-.17-8.75,4.07-8.51,8.29.28,4.95,3.59,8.39,8.48,8.34,4.5-.05,8.4-3,8.59-8.41Zm-30.59.08c.02-4.88-3.34-8.23-8.29-8.26-4.76-.03-8.3,3.43-8.46,8-.16,4.66,3.86,8.58,8.18,8.66,4.09.08,9.4-3.84,8.58-8.4Z"/><path class="cls-5" d="m217.74,109.88c2.55-3.22,5.45-5.23,9.68-5.07,4.78.18,8.66,2.92,9.24,7.73.57,4.75.52,9.57.67,14.36.08,2.5.01,5,.01,7.62h-7.31c0-2.21,0-4.36,0-6.51-.02-3.46,0-6.93-.1-10.39-.03-1.12-.26-2.28-.61-3.35-.94-2.96-2.7-3.84-6.23-3.28-1.78.28-3.86,2.74-3.88,4.82-.06,5.5-.12,11.01,0,16.51.04,1.95-.59,2.53-2.44,2.36-1.54-.14-3.11-.03-4.96-.03,0-.86.01-1.64,0-2.43-.12-5.61-.08-11.24-.42-16.84-.19-3.22-2.06-4.79-5.88-4.42-2.21.21-4.55,2.92-4.57,5.57-.05,5.3-.08,10.6,0,15.9.02,1.65-.4,2.39-2.17,2.25-1.67-.13-3.35-.03-5.36-.03v-28.96c1.68,0,3.57-.06,5.45.05.4.02.93.6,1.11,1.05.29.72.34,1.54.55,2.63,2.2-3.13,4.95-4.63,8.69-4.6,3.84.03,6.46,1.74,8.54,5.08Z"/><path class="cls-5" d="m40.13,134.29c-2.24.17-4.48.34-7.05.54v-29.13c1.62,0,3.57-.29,5.34.13.77.19,1.2,1.83,1.9,3.01,2.08-2.31,4.69-4.21,8.47-4.03,3.74.17,6.52,1.48,8.21,4.87,1.2-1.04,2.29-2.17,3.55-3.04,5.75-3.99,15.46-1.77,15.83,7.79.24,6.15.27,12.31.44,18.46.04,1.32-.42,1.84-1.76,1.78-1.76-.08-3.53-.02-5.45-.02-.05-.55-.14-1.07-.14-1.58-.01-4.89.03-9.79-.03-14.68-.02-1.33-.18-2.69-.54-3.97-.77-2.69-2.32-3.58-5.54-3.44-2.22.1-3.99,1.59-4.45,3.93-.24,1.19-.28,2.43-.29,3.64-.03,4.69-.05,9.38.01,14.06.02,1.48-.46,2.12-1.99,2.04-1.69-.08-3.39-.02-5.39-.02,0-.74,0-1.39,0-2.03,0-4.82.05-9.65-.03-14.47-.02-1.46-.05-3.09-.69-4.32-.61-1.17-1.9-2.45-3.11-2.74-2.35-.56-4.77-.09-6.06,2.38-.51.97-.63,2.15-.93,3.23-.11.58-.32,1.16-.32,1.74-.02,5.28,0,10.57.01,15.85Z"/><path class="cls-3" d="m242.39,112.44c-1.69-3.3-.9-5.48,2.34-6.48,4.83-1.49,9.67-1.92,14.46.33,2.97,1.39,4.57,3.92,4.8,6.88.46,5.99.53,12.01.48,18.02,0,1.04,1.85,2.94-.74,3.43-3.48.67-4.85.05-6.12-2.51-.06-.11-.19-.19-.21-.21-1.92.93-3.73,2.1-5.71,2.69-5.97,1.77-11.4-1.29-12.49-7.91-.45-2.74,2.08-6.86,4.78-8.52,3.21-1.98,6.8-2.28,10.39-2.69.72-.08,1.47-.01,2.17-.01.42-3.58-1.02-5.17-4.36-5.33-3.44-.16-6.67.44-9.77,2.3Zm14.72,7.92c-1.31,0-2.47-.14-3.58.03-2.38.36-4.8.74-6.16,3.15-1.29,2.29.02,5.78,2.44,6.14,4.38.66,7.57-2.49,7.31-5.97-.08-1.01-.01-2.03-.01-3.36Z"/><path class="cls-3" d="m97.01,131.55c-3.4,2.67-7,4.3-11.45,3.12-5.73-1.51-9.12-8.68-4.41-14.33,2.38-2.85,5.68-3.94,9.2-4.45,1.92-.28,3.86-.38,5.8-.56.66-3.16-.89-5.06-4.18-5.18-3.07-.11-6.03.16-8.77,1.69-1.29.72-1.84.32-1.91-1.14-.13-3.03.41-4.13,3.31-4.85,5.38-1.34,10.79-2.19,15.75,1.45,2.86,2.09,3.63,5.22,3.77,8.41.22,5.08.07,10.18.07,15.27,0,.2,0,.41-.05.61-.25,1.02,1.6,2.61-.73,3.04-3.6.67-5.06.06-5.94-2.27-.11-.28-.31-.53-.47-.8Zm.16-10.86c-.23-.21-.46-.42-.7-.63-2.29.38-4.66.52-6.86,1.19-3.7,1.13-3.84,6.08-1.49,7.78,2.1,1.52,6.56.64,7.71-2.01.84-1.94.92-4.21,1.33-6.33Z"/><path class="cls-5" d="m131.94,106.18c-4.51,7.31-9.02,14.61-13.53,21.92-.09.09-.19.19-.28.28.1.02.2.03.3.05,4.27,0,8.54,0,12.92,0v5.73h-24.95c4.87-7.69,9.61-15.19,14.5-22.92h-13.43v-5.55c7.47,0,14.93-.02,22.4.01.69,0,1.38.31,2.07.48Z"/><path class="cls-4" d="m278.3,135.09c-4.48.43-8.32-4.45-8.17-8.36.19-4.73,3.93-7.72,9.78-7.62,3.73.07,7.07,3.93,7.01,8.1-.07,4.55-3.8,7.96-8.62,7.88Zm.37-12.28c-2.8.02-4.43,1.53-4.45,4.11-.01,2.45,1.9,4.43,4.31,4.46,2.49.02,4.64-2.01,4.66-4.41.02-2.27-2.06-4.17-4.52-4.15Z"/><path class="cls-1" d="m131.94,106.18c-.69-.17-1.38-.48-2.07-.48-7.47-.03-14.93-.01-22.4-.01.33-.14.65-.4.98-.4,7.54-.02,15.08-.03,22.62,0,.47,0,1.61-.4.87.89Z"/><path class="cls-1" d="m40.13,134.29c0-5.28-.03-10.57-.01-15.85,0-.58.21-1.16.32-1.74.02,5.51.05,11.03.05,16.54,0,.35-.24.7-.36,1.05Z"/><path class="cls-2" d="m278.67,122.81c2.47-.02,4.55,1.89,4.52,4.15-.02,2.4-2.17,4.44-4.66,4.41-2.4-.02-4.32-2.01-4.31-4.46.01-2.58,1.65-4.08,4.45-4.11Z"/></g></svg>