<?xml version="1.0" encoding="UTF-8"?><svg id="Layer_1" xmlns="http://www.w3.org/2000/svg" viewBox="0 0 320 240"><defs><style>.cls-1{fill:#202020;fill-rule:evenodd;}</style></defs><path class="cls-1" d="m31.32,119.89c0,2.84.57,6.24,4.96,6.24h10.72v-7.61h-8.4v3.15h5.16v1.47h-6.78c-2.54,0-2.17-2.47-2.17-3.19,0-1.81.34-2.79,2.02-2.79h10.17v-3.27h-10.12c-3.99,0-5.56,2.36-5.56,6.01h0Z"/><polygon class="cls-1" points="50.04 126.13 63.7 126.13 63.7 123.13 53.46 123.13 53.46 121.66 63.7 121.66 63.7 118.69 53.46 118.69 53.46 117.4 63.7 117.4 63.7 113.87 50.04 113.87 50.04 126.13"/><polygon class="cls-1" points="78.27 122.9 71.39 113.87 66.74 113.87 66.74 126.13 69.93 126.13 69.93 117.09 76.81 126.13 81.46 126.13 81.46 113.87 78.27 113.87 78.27 122.9"/><polygon class="cls-1" points="84.91 126.13 98.57 126.13 98.57 123.13 88.32 123.13 88.32 121.66 98.57 121.66 98.57 118.69 88.32 118.69 88.32 117.4 98.57 117.4 98.57 113.87 84.91 113.87 84.91 126.13"/><path class="cls-1" d="m116.89,118.24c0-1.7-.03-4.36-4.1-4.36h-11.18v12.25h3.29v-3.58h5.11l2.86,3.58h4.25l-3.06-3.93c2.24-.33,2.83-1.92,2.83-3.96h0Zm-5.03,1.31h-6.96v-2.31h7.01c.94,0,1.59.28,1.59,1.04,0,.76-.15,1.27-1.64,1.27h0Z"/><polygon class="cls-1" points="140.34 113.87 136.93 113.87 136.93 126.13 149.22 126.13 149.22 123.13 140.34 123.13 140.34 113.87"/><path class="cls-1" d="m124.33,113.87l-6.88,12.25h3.74l1.35-2.41h8.01l1.34,2.41h3.74l-6.88-12.25h-4.43Zm-.1,6.82l2.31-4.12,2.31,4.12h-4.62Z"/><path class="cls-1" d="m169.66,113.87h-10.11v12.25h10.72c4.11,0,4.96-2.59,4.96-6.24s-1.57-6.01-5.56-6.01h0Zm-.1,9.26h-6.78v-5.99h6.93c1.89,0,2.02,1.18,2.02,2.79,0,1.47.03,3.19-2.17,3.19h0Z"/><polygon class="cls-1" points="204.67 122.9 197.79 113.87 193.13 113.87 193.13 126.13 196.32 126.13 196.32 117.09 203.2 126.13 207.85 126.13 207.85 113.87 204.67 113.87 204.67 122.9"/><path class="cls-1" d="m216.21,113.87l-6.88,12.25h3.74l1.35-2.41h8.01l1.34,2.41h3.74l-6.88-12.25h-4.42Zm-.1,6.82l2.31-4.12,2.31,4.12h-4.62Z"/><polygon class="cls-1" points="183.53 119.15 179.17 113.87 174.72 113.87 181.75 121.89 181.75 126.13 185.24 126.13 185.24 121.89 192.27 113.87 187.82 113.87 183.53 119.15"/><polygon class="cls-1" points="238.09 122.41 234.04 113.87 228.78 113.87 228.78 126.13 231.97 126.13 231.97 116.78 236.62 126.13 239.55 126.13 244.21 116.78 244.21 126.13 247.39 126.13 247.39 113.87 242.13 113.87 238.09 122.41"/><polygon class="cls-1" points="251.08 113.87 251.08 126.13 254.52 126.13 254.49 113.87 251.08 113.87"/><path class="cls-1" d="m256.92,119.89c0,3.65.84,6.24,4.96,6.24h9.66v-2.98s-7.49-.01-8.95-.01c-2.21,0-2.17-1.72-2.17-3.19,0-1.61.13-2.79,2.02-2.79h9.1v-3.27h-9.05c-4,0-5.56,2.36-5.56,6.01h0Z"/><path class="cls-1" d="m285.07,118.67h-7.39c-.53,0-1.13-.15-1.13-.74s.6-.74,1.13-.74c1.47,0,10.6-.01,10.6-.01v-2.98h-11.41c-2.91,0-3.61,1.5-3.61,3.73s.71,3.73,3.61,3.73h7.39c.53,0,1.13.15,1.13.74s-.59.73-1.13.73c-1.47,0-10.6.01-10.6.01v2.98h11.41c2.91,0,3.62-1.5,3.62-3.73s-.71-3.73-3.62-3.73h0Z"/></svg>