<?xml version="1.0" encoding="UTF-8"?><svg id="Layer_1" xmlns="http://www.w3.org/2000/svg" viewBox="0 0 320 240"><defs><style>.cls-1{fill:#5b5b5b;}</style></defs><rect x="164.33" y="128.17" width="4.74" height="10.53"/><rect x="257.44" y="128.18" width="4.74" height="10.52"/><path d="m227.88,131.43v-2.65c-1.28-.65-3.16-1.08-5.69-1.08-5.05,0-5.72,2.16-5.72,3.27,0,1.86,1.14,2.72,3.04,3.39,2.23.79,4.1.52,4.1,1.47,0,.27-.36.55-1.31.55-1.96,0-4.04-.76-5.4-1.58v2.92c1.74.83,3.88,1.36,5.62,1.36,3.89,0,6-1.56,6-3.62s-1.6-2.87-4.25-3.51c-1.69-.41-2.81-.41-2.81-1.06,0-.36.48-.63,1.4-.63,1.61,0,3.45.48,5.01,1.18"/><path d="m286.58,131.43v-2.65c-1.28-.65-3.16-1.08-5.69-1.08-5.05,0-5.72,2.16-5.72,3.27,0,1.86,1.14,2.72,3.04,3.39,2.23.79,4.1.52,4.1,1.47,0,.27-.36.55-1.31.55-1.96,0-4.04-.76-5.4-1.58v2.92c1.74.83,3.88,1.36,5.62,1.36,3.89,0,6-1.56,6-3.62s-1.6-2.87-4.25-3.51c-1.69-.41-2.81-.41-2.81-1.06,0-.36.48-.63,1.39-.63,1.61,0,3.45.48,5.01,1.18"/><path d="m208.32,139.01c4.62,0,6.37-1.81,6.37-4.52v-6.31h-4.57v6.57c0,.82-.94,1.51-1.8,1.51s-1.79-.69-1.79-1.51v-6.57h-4.57v6.31c0,2.71,1.75,4.52,6.37,4.52"/><polygon points="273.41 138.7 273.41 136.45 268.71 136.45 268.71 134.23 272.73 134.23 272.73 132.06 268.71 132.06 268.71 130.42 273.41 130.42 273.41 128.18 264.21 128.18 264.21 138.7 273.41 138.7"/><polygon points="229.77 130.52 232.83 130.52 232.83 138.7 237.63 138.7 237.63 130.52 240.69 130.52 240.69 128.18 229.77 128.18 229.77 130.52"/><polygon points="185.05 138.7 185.05 128.17 180.24 128.17 180.24 133.04 176.38 128.17 171.1 128.17 171.1 138.7 175.91 138.7 175.91 133.57 179.87 138.7 185.05 138.7"/><polygon points="150.91 132.17 148.68 128.18 144.28 128.18 148.54 134.99 148.54 138.7 153.34 138.7 153.34 134.91 157.54 128.18 153.14 128.18 150.91 132.17"/><polygon points="140.09 138.7 143.94 128.18 139.49 128.18 137.22 134.83 134.97 128.18 130.52 128.18 134.37 138.7 140.09 138.7"/><path d="m122.67,128.18l-3.85,10.52h4.5l.35-1.24h3.49l.36,1.24h4.5l-3.85-10.52h-5.49Zm1.58,7.24l1.16-4.06,1.16,4.06h-2.33Z"/><polygon points="118.04 138.7 118.04 136.45 113.36 136.45 113.36 134.23 117.37 134.23 117.37 132.06 113.36 132.06 113.36 130.42 118.04 130.42 118.04 128.18 108.85 128.18 108.85 138.7 118.04 138.7"/><path d="m193.53,138.7c4.66,0,6.93-2.2,6.93-5.27,0-3.45-2.86-5.26-6.69-5.26h-6.68v10.53h6.45Zm-.54-2.96h-1.09v-5h.92c1.61,0,2.5,1,2.5,2.62,0,1.24-1.06,2.38-2.33,2.38"/><path d="m242.55,128.18v10.52h5.09v-3.4l3.15,3.4h5.64l-4.2-4.14c1.83-.07,3.29-1.29,3.29-3.1,0-2.12-1.64-3.28-3.61-3.28h-9.36Zm6.71,4.67h-1.62v-2.66h1.72c.62,0,1.3.47,1.3,1.38,0,.8-.63,1.28-1.39,1.28"/><polygon points="102.05 128.18 102.05 131.86 98.67 131.86 98.67 128.18 93.89 128.18 93.89 138.7 98.67 138.7 98.67 134.92 102.05 134.92 102.05 138.7 106.83 138.7 106.83 128.18 102.05 128.18"/><rect x="122.9" y="107.86" width="8.24" height="17.23"/><polygon points="110.18 107.86 107.2 113.91 104.21 107.86 96.28 107.86 93.89 125.1 101.6 125.1 102.28 117.9 107.2 125.1 112.11 117.9 112.79 125.1 120.5 125.1 118.11 107.86 110.18 107.86"/><polygon points="151.03 107.86 133.53 107.86 133.53 112.57 138.32 112.57 138.32 125.1 146.25 125.1 146.25 112.57 151.03 112.57 151.03 107.86"/><path d="m171.94,114.72v-4.97c-2.85-1.38-6.24-2.25-9.47-2.25-6.06,0-9.37,2.04-9.37,5.43,0,2.92,1.83,4.04,4.94,5.22,3.59,1.36,5.88.68,5.88,1.78,0,.43-.13.75-1.52.75-3.24,0-6.36-1.29-8.6-2.57v5.15c2.87,1.31,6.41,2.14,9.29,2.14,3.9,0,9.4-.91,9.4-5.5,0-3.2-2.76-4.86-6.5-5.72-2.8-.64-4.68-.44-4.68-1.47,0-.52.73-.72,1.96-.72,2.65,0,6.39,1.25,8.67,2.72"/><rect x="221.69" y="107.86" width="8.24" height="17.24"/><rect x="278.99" y="107.86" width="8.24" height="17.24"/><path d="m251.55,114.72v-4.97c-2.85-1.38-6.24-2.25-9.47-2.25-6.06,0-9.36,2.04-9.36,5.43,0,2.92,1.83,4.04,4.94,5.22,3.59,1.36,5.88.68,5.88,1.78,0,.43-.13.75-1.53.75-3.24,0-6.35-1.29-8.6-2.57v5.15c2.87,1.31,6.41,2.14,9.3,2.14,3.9,0,9.4-.91,9.4-5.5,0-3.2-2.76-4.86-6.5-5.72-2.8-.64-4.69-.44-4.69-1.47,0-.52.73-.72,1.96-.72,2.65,0,6.39,1.25,8.67,2.72"/><path d="m185.66,125.41c5.36,0,10.66-2.17,10.66-7.15v-10.39h-8.05v10.58c0,1.4-1.13,2.57-2.61,2.57s-2.61-1.17-2.61-2.57v-10.58h-8.05v10.39c0,4.98,5.3,7.15,10.66,7.15"/><path d="m212.75,125.1c4.76,0,6.36-2.22,6.36-4.58s-1.28-3.71-3.12-4.42c1.38-.68,2.14-2.05,2.14-3.56,0-2.78-2.5-4.68-5.16-4.68h-13.79v17.24h13.58Zm-3.22-13.58c.92,0,1.43.65,1.43,1.37,0,.8-.65,1.29-1.4,1.29h-2.04v-2.65h2.01Zm.03,9.24h-2.04v-2.62h2.12c.68,0,1.37.49,1.37,1.31,0,.72-.58,1.32-1.45,1.32"/><polygon points="267.76 107.86 267.76 113.94 263.08 113.94 263.08 107.86 254.88 107.86 254.88 125.1 263.08 125.1 263.08 118.95 267.76 118.95 267.76 125.1 275.96 125.1 275.96 107.86 267.76 107.86"/><polygon class="cls-1" points="59.48 123.28 68.38 107.87 59.48 92.44 50.58 107.86 59.48 123.28"/><polygon class="cls-1" points="59.48 123.28 68.38 138.7 86.19 138.7 77.28 123.28 59.48 123.28"/><polygon class="cls-1" points="59.48 123.28 41.67 123.28 32.77 138.7 50.58 138.7 59.48 123.28"/></svg>