<?xml version="1.0" encoding="UTF-8"?><svg id="Layer_1" xmlns="http://www.w3.org/2000/svg" viewBox="0 0 320 240"><defs><style>.cls-1{fill:#007491;}.cls-1,.cls-2,.cls-3{fill-rule:evenodd;stroke-width:0px;}.cls-2{fill:#ff8200;}.cls-3{fill:#71c5e8;}</style></defs><g id="mc_logo"><path id="fan3" class="cls-1" d="m64.49,149.17s.73-17.49-21.87-24.64c-3.54-1.12-5.71-5.36-4.17-8.29,1.49-2.83,5.59-3.37,9.4-1.46,13.45,6.77,17.97,25.85,17.97,25.85,11.3-16.74,28.91-14.55,36.67-12.56,7.94,2.04,9.16,7.21,7.84,10.72-1.26,3.37-5.67,5.54-13.52,1.53-.69-.32-21.98-11.8-32.32,8.85"/><path id="fan2" class="cls-2" d="m68.69,128.44s9.37-21.65,35.28-18.16c4.37.59,7.2,3.56,6.8,7.91-.44,4.91-6.05,6.03-10.87,4.71-16.32-4.47-23.11-2.44-32.58,11.59-3.08-17.25-13.96-19.77-17.39-25-1.1-1.67-1.74-4.78.2-6.65,1.95-1.88,4.89-2.21,7.07-.5,4.44,3.48,10.74,17.96,11.49,26.11"/><path id="fan1" class="cls-3" d="m72.64,111.34s14.22-19.8,29.21-19.8c5,0,8.38,2.36,8.73,5.65.35,3.39-1.62,7.61-8.39,7.16-4.74-.3-21.23-3.06-31.68,16.09,0,0-.71-12.47-7.21-19.78-3.44-3.87-3.09-7.47.36-9.6,0,0,5.77-2.94,7.56,5.92.8,3.97,2.02,10.21,1.41,14.36"/><path id="text" class="cls-1" d="m220.39,138.34c.17-2.1,2.31-3.79,4.89-3.79,2.41,0,4.38,1.72,4.38,3.79h-9.27Zm-4.2,2c0,5.45,3.76,8.96,9.2,8.96,2.62,0,5.06-.72,7.3-3.1l-2.48-2.41c-1.31,1.31-2.58,2-4.69,2-3.07,0-5.1-1.79-5.24-4.55h13.51c.07-.69.07-1.45.07-1.45,0-4.86-3.41-8.76-8.58-8.76s-9.1,3.59-9.1,9.17v.14Zm-9.18-9.38c-5.24,0-9.44,3.9-9.44,9.2s4.2,9.21,9.44,9.21c2.58,0,4.96-.86,6.96-3l-2.55-2.66c-1.17,1.21-2.55,1.9-4.41,1.9-3.03,0-5.34-2.31-5.34-5.45s2.31-5.44,5.34-5.44c1.86,0,3.24.69,4.41,1.89l2.55-2.66c-2-2.14-4.38-3-6.96-3h0Zm-18.03,13.86c0,3.48,1.83,4.41,4,4.41,1.07,0,1.76-.14,2.07-.27v-3.48c-.14.03-.48.07-.72.07-.93,0-1.2-.55-1.2-1.83v-12.2h-4.14v13.31Zm-.41-17.79c0,1.38,1.14,2.45,2.48,2.45s2.45-1.07,2.45-2.45-1.14-2.45-2.45-2.45-2.48,1.07-2.48,2.45h0Zm-12.7,18.61c-3.07,0-5.38-2.38-5.38-5.45s2.31-5.45,5.38-5.45,5.38,2.38,5.38,5.45-2.34,5.45-5.38,5.45h0Zm0-14.65c-5.27,0-9.48,4-9.48,9.2s4.21,9.21,9.48,9.21,9.48-4,9.48-9.21-4.24-9.2-9.48-9.2h0Zm-12.77,17.89v-10.76c0-4.27-2.31-6.96-6.34-6.96-2.45,0-4.31,1.14-5.07,2.76v-9.07h-4.1v24.03h4.1v-10c0-2.38,1.58-4.03,3.83-4.03s3.48,1.52,3.48,3.86v10.17h4.1Zm-28.88-24.44c-7.07,0-12.75,5.28-12.75,12.44s5.68,12.41,12.75,12.41c3.83,0,7.24-1.66,9.55-4.38l-2.89-2.51c-1.62,1.89-4,3-6.65,3-4.82,0-8.48-3.62-8.48-8.51s3.65-8.55,8.48-8.55c2.65,0,4.96,1.1,6.58,2.93l2.93-2.52c-2.34-2.65-5.69-4.31-9.51-4.31h0Zm134.36-19.54c.17-2.1,2.31-3.79,4.89-3.79,2.41,0,4.38,1.72,4.38,3.79h-9.27Zm-4.2,2c0,5.45,3.76,8.97,9.2,8.97,2.62,0,5.07-.73,7.3-3.11l-2.48-2.42c-1.31,1.31-2.58,2-4.69,2-3.07,0-5.1-1.79-5.24-4.55h13.51c.07-.69.07-1.45.07-1.45,0-4.86-3.41-8.76-8.58-8.76s-9.1,3.59-9.1,9.17v.14Zm-12.7,5.03c-2.93,0-5.13-2.24-5.13-5.24s2.21-5.24,5.13-5.24,5.31,2.28,5.31,5.24-2.31,5.24-5.31,5.24h0Zm5-13.86v2.52c-.59-1.62-2.62-2.9-5.55-2.9-4.89,0-8.68,3.93-8.68,9s3.79,8.9,8.68,8.9c2.9,0,4.9-1.17,5.65-2.55v.86c0,1.55-.21,3.35-1.65,4.42-.93.69-2.31,1.04-3.83,1.04-2.34,0-4.2-.73-5.96-1.9l-2,3.07c2.38,1.69,5.17,2.52,8.41,2.52,2.38,0,4.58-.72,6.14-1.93,2.55-2,2.93-4.9,2.93-8.55v-14.48h-4.14Zm-27.48,14c-2.93,0-5.14-2.28-5.14-5.31s2.21-5.31,5.14-5.31,5.31,2.27,5.31,5.31-2.31,5.31-5.31,5.31h0Zm-.55-14.38c-4.89,0-8.68,3.93-8.68,9.07s3.79,9.11,8.68,9.11c3.14,0,4.96-1.24,5.96-2.73.24,1.1.86,1.72,1.41,2.1.76.45,1.65.55,2.41.55s1.52-.07,2.03-.27v-3.35c-.24.04-.62.07-.86.07-.93,0-1.27-.59-1.27-2.04v-12.13h-4.14v2.52c-.62-1.59-2.62-2.9-5.55-2.9h0Zm-20.91,14.24c-2.93,0-5.14-2.24-5.14-5.24s2.21-5.24,5.14-5.24,5.31,2.28,5.31,5.24-2.31,5.24-5.31,5.24h0Zm5-13.86v2.52c-.59-1.62-2.62-2.9-5.55-2.9-4.89,0-8.68,3.93-8.68,9s3.79,8.9,8.68,8.9c2.9,0,4.89-1.17,5.66-2.55v.86c0,1.55-.21,3.35-1.65,4.42-.93.69-2.31,1.04-3.83,1.04-2.34,0-4.2-.73-5.96-1.9l-2,3.07c2.38,1.69,5.17,2.52,8.41,2.52,2.38,0,4.59-.72,6.13-1.93,2.55-2,2.93-4.9,2.93-8.55v-14.48h-4.14Zm-24.56,11.96c0,5.21,3.24,5.9,5.62,5.9.79,0,1.55-.07,2.14-.21v-3.69c-.52.1-1,.14-1.45.14-1.48,0-2.17-.69-2.17-2.59v-7.76h3.82v-3.76h-3.82v-6.66h-4.14v6.66h-2.17v3.76h2.17v8.21Zm-15.21,5.42h4.1v-8.75c0-2.86,1.82-4.65,4.69-4.65.66,0,1.24.07,1.72.17v-4c-.17-.03-.79-.1-1.24-.1-2.48,0-4.34,1.14-5.17,2.93v-2.98h-4.1v17.38Zm-12.93-3.24c-3.07,0-5.38-2.38-5.38-5.45s2.31-5.45,5.38-5.45,5.38,2.38,5.38,5.45-2.34,5.45-5.38,5.45h0Zm0-14.65c-5.27,0-9.48,4-9.48,9.21s4.2,9.21,9.48,9.21,9.48-4,9.48-9.21-4.24-9.21-9.48-9.21h0Zm-37.28-6.14h3.69l8.61,13.48,8.58-13.48h3.65v24.03h-4.07v-16.27l-8.17,12.69-8.24-12.65v16.24h-4.07v-24.03Z"/></g></svg>