<?xml version="1.0" encoding="UTF-8"?><svg id="Layer_1" xmlns="http://www.w3.org/2000/svg" viewBox="0 0 320 240"><defs><style>.cls-1{fill:#676767;}.cls-2{fill:#686868;}</style></defs><g id="rJQAqe.tif"><path class="cls-2" d="m59.81,151.25c1.82,0,3.64.02,5.46,0,.53,0,.73.21.89.69.52,1.56,1.11,3.1,1.67,4.65.52,1.46,1.04,2.93,1.56,4.4.55,1.53,1.11,3.06,1.66,4.59.48,1.34.96,2.67,1.49,4.16.38-1.01.71-1.88,1.02-2.75.78-2.23,1.55-4.46,2.32-6.69.94-2.74,1.9-5.47,2.81-8.22.2-.59.47-.87,1.13-.84,1.37.05,2.74.01,4.12.01q1,0,1,.97c0,7.02,0,14.03,0,21.05,0,.38.02.76.02,1.14,0,.41-.19.6-.63.59-.92-.02-1.85-.03-2.77,0-.55.02-.71-.25-.7-.74.01-1.62.02-3.24.02-4.86,0-3.78,0-7.55-.02-11.33,0-.2-.07-.39-.15-.78-.31.76-.57,1.31-.78,1.89-1,2.72-1.99,5.43-2.97,8.15-.81,2.26-1.63,4.51-2.4,6.78-.21.62-.5.95-1.2.88-.53-.05-1.08-.02-1.62,0-1.31.02-1.06,0-1.52-1.16-.75-1.87-1.39-3.79-2.07-5.69-.58-1.6-1.15-3.2-1.73-4.8-.75-2.06-1.51-4.12-2.42-6.17v.67c0,5.35,0,10.7,0,16.06,0,1.09-.02,1.11-1.09,1.1-1.03,0-2.07,0-3.1,0v-23.75Z"/><path class="cls-2" d="m222.23,175.4c-.69-.26-1.38-.5-2.05-.79-3.34-1.45-5.17-4.12-6.05-7.55-.43-1.65-.65-3.32-.53-5.01.3-4.03,2.72-9.23,7.69-10.76,1.76-.54,3.57-.68,5.44-.48,2.15.23,4.07.85,5.77,2.2,1.65,1.32,2.56,3.05,2.95,5.09.04.21,0,.44,0,.73-.56,0-1.09,0-1.62,0-.63,0-1.26.03-1.89.04-.35,0-.59-.08-.67-.49-.56-2.86-3.29-4.1-5.77-4.19-3.3-.11-5.53,1.4-6.7,4.35-1.47,3.71-1.32,7.38.91,10.81,1.03,1.59,2.56,2.42,4.44,2.7,1.24.19,2.42.04,3.61-.28,2.46-.66,3.98-2.89,4.06-5.51.01-.46-.16-.58-.58-.58-1.62.01-3.24,0-4.86,0-.85,0-.92-.07-.92-.93,0-.56,0-1.12,0-1.69,0-.39.15-.6.54-.6,3.21,0,6.43,0,9.69,0,.23,1.57.18,3.08.06,4.62-.15,1.93-.74,3.66-1.93,5.17-1.34,1.7-3.12,2.64-5.22,3.03-.1.02-.2.07-.29.11h-6.08Z"/><path class="cls-2" d="m162.55,175.4c-.84-.28-1.71-.51-2.52-.87-2.56-1.13-4.03-3.15-4.62-5.85,0-.04,0-.09,0-.13,0-1.66-.36-1.52,1.37-1.52.74,0,1.48,0,2.23,0,.36,0,.55.08.6.52.34,2.97,2.29,4.02,4.48,4.47,1.41.29,2.78.15,4.13-.27,1.87-.58,2.83-2.17,2.42-4.08-.21-.97-.84-1.66-1.78-1.95-1.53-.46-3.09-.82-4.63-1.26-1.36-.38-2.73-.73-4.06-1.22-2.21-.82-3.64-2.44-3.93-4.77-.3-2.48.63-4.59,2.73-6.03,2.3-1.58,4.89-1.96,7.64-1.62,2.06.25,3.95.82,5.52,2.22,1.41,1.25,2.09,2.85,2.17,4.73.02.42-.15.57-.55.56-1.1-.01-2.2,0-3.3-.04-.17,0-.39-.24-.47-.42-.2-.44-.32-.91-.51-1.35-.68-1.56-1.93-2.31-3.6-2.28-1.07.02-2.16.06-3.19.29-1.26.28-2.26,1.41-2.17,2.85.06,1.1.93,2.26,2.25,2.64,2.18.63,4.37,1.22,6.58,1.75,2.24.54,4.15,1.52,5.09,3.73,1.46,3.44.25,7.43-3.79,9.11-.78.33-1.61.54-2.42.81h-5.67Z"/><path class="cls-1" d="m95.85,175.4c-.51-.18-1.03-.36-1.53-.55-2.89-1.08-4.74-3.09-5.19-6.17-.23-1.61-.22-3.25-.23-4.88-.02-3.93,0-7.86,0-11.8,0-.56.18-.8.79-.77.96.05,1.93.02,2.9,0,.4,0,.56.13.56.55,0,4.81,0,9.62,0,14.43,0,1.17.22,2.29.75,3.34.72,1.42,1.99,2.13,3.47,2.29,1.24.14,2.53.18,3.77-.24,1.69-.57,2.99-1.78,3.06-3.95.12-3.65.19-7.3.25-10.96.03-1.53-.03-3.06-.04-4.58,0-.82.09-.88.88-.88.92,0,1.85.02,2.77,0,.47-.01.63.14.63.62-.01,3.87,0,7.73-.02,11.6,0,1.72.04,3.46-.17,5.16-.34,2.82-1.93,4.81-4.52,5.96-.79.35-1.65.55-2.48.82-1.89,0-3.78,0-5.67,0Z"/><path class="cls-1" d="m109.72,124.52c0-.27.02-.54.02-.81,0-11.9,0-23.79,0-35.69,0-6.48.02-12.95.02-19.43,0-.53-.11-1.06-.12-1.59-.01-.77.19-.97.94-.97,2.88,0,5.76,0,8.64,0,.9,0,.97.08.97,1.1,0,24.2,0,48.4,0,72.59,0,1.03-.02,2.07,0,3.1.01.55-.21.76-.76.75-2.88-.02-5.76-.01-8.64,0-.5,0-.84-.18-1.12-.6-4.66-6.93-9.33-13.86-14.01-20.79-8-11.86-16.01-23.72-24.02-35.58-.42-.63-.85-1.26-1.39-2.05-.03.39-.05.58-.05.76,0,11.4,0,22.8,0,34.21,0,7.67.01,15.34.02,23.01,0,1-.04,1.04-1.01,1.04-3.08,0-6.16,0-9.29,0v-77.54c2.24,0,4.46,0,6.68,0,.88,0,1.76.03,2.63,0,.73-.03,1.22.27,1.62.87,3.68,5.51,7.37,11.02,11.06,16.52,9.07,13.5,18.14,27,27.21,40.49.15.22.33.41.5.62.03.03.05.06.08.09,0-.03,0-.07,0-.1Z"/><path class="cls-1" d="m206.19,121.54c1.6,0,3.2.01,4.79,0,.47,0,.69.14.73.64.41,5.21,3.11,8.84,7.72,11.15,2.26,1.13,4.64,2.04,7.13,2.37,7.09.97,13.64-.38,19.23-5.11,1.29-1.09,2.4-2.38,3.15-3.92,1.59-3.27.81-6.95-2.12-9.54-2.54-2.26-5.53-3.74-8.7-4.86-1.53-.54-3.06-1.1-4.61-1.54-2.04-.58-4.11-1.08-6.17-1.57-5.15-1.22-10.21-2.69-14.81-5.42-3.86-2.29-7.04-5.24-8.82-9.43-.62-1.46-.96-3.06-1.3-4.62-.22-1.01-.26-2.07-.28-3.11-.1-4.16,1.33-7.81,3.87-11.04,3.16-4.03,7.27-6.77,12.02-8.59,2.53-.97,5.15-1.68,7.83-2.01,2.28-.28,4.6-.38,6.89-.27,2.12.1,4.26.4,6.31.94,7.23,1.89,13.35,5.47,17.34,12.04,1.2,1.97,1.92,4.13,2.16,6.45.07.63.19,1.26.26,1.89.05.48-.17.77-.69.77-1.15,0-2.29.02-3.44.02-1.98,0-3.96-.02-5.94,0-.57,0-.9-.26-.98-.79-.43-2.91-1.87-5.24-4.12-7.09-1.59-1.31-3.36-2.27-5.3-2.99-3.37-1.25-6.85-1.63-10.39-1.39-3.99.27-7.7,1.55-10.86,4.05-2.78,2.19-4.2,5.11-3.87,8.67.26,2.84,1.56,5.21,3.81,7.03,2.18,1.76,4.67,2.9,7.28,3.85,3.62,1.32,7.36,2.14,11.08,3.08,2.83.71,5.67,1.42,8.45,2.33,3.99,1.3,7.74,3.1,10.91,5.93,2.18,1.95,3.85,4.26,4.74,7.06.38,1.18.54,2.45.66,3.69.11,1.14,0,2.29.03,3.44.06,4.34-1.4,8.15-4.07,11.51-3.12,3.91-7.26,6.38-11.86,8.14-2.65,1.02-5.39,1.72-8.23,1.91-2.41.16-4.83.35-7.23.22-3.21-.17-6.4-.69-9.5-1.65-4.08-1.25-7.88-3.03-11.15-5.82-2.7-2.3-4.73-5.09-6.08-8.37-.74-1.79-1.19-3.64-1.3-5.58-.03-.58-.08-1.16-.12-1.73-.04-.57.26-.75.77-.75,1.6,0,3.19,0,4.79,0,0,0,0,.02,0,.03Z"/><path class="cls-1" d="m199.53,121.4c-.23.74-.37,1.36-.61,1.94-1.55,3.8-3.93,7.05-6.75,9.99-4.8,5.02-10.53,8.55-17.2,10.53-2.3.68-4.64,1.2-7.04,1.32-2.7.14-5.41.28-8.11.23-1.64-.03-3.29-.32-4.9-.68-2.05-.46-4.1-.99-6.07-1.7-5.39-1.96-10.25-4.83-14.4-8.83-3.77-3.64-6.59-7.92-8.68-12.71-1.09-2.49-1.88-5.06-2.47-7.69-.31-1.39-.49-2.83-.56-4.26-.12-2.44-.23-4.89-.12-7.33.09-1.96.41-3.93.8-5.85.42-2.03.91-4.06,1.64-6,1.2-3.19,2.74-6.23,4.74-9.03,5.1-7.13,11.91-11.89,20.22-14.54,2.48-.79,5.02-1.33,7.61-1.66,2.9-.37,5.81-.63,8.73-.49,1.27.06,2.55.25,3.79.53,2.02.46,4.07.89,6.02,1.6,9.63,3.51,16.94,9.78,21.89,18.76.62,1.12,1.07,2.33,1.65,3.62-.38.04-.61.09-.84.09-3.26,0-6.52-.04-9.78-.03-.62,0-.99-.27-1.32-.75-3.22-4.51-7.18-8.2-12.1-10.82-2.69-1.43-5.53-2.45-8.54-2.88-2.65-.38-5.31-.4-7.99-.05-4.12.53-7.98,1.77-11.5,3.97-5.51,3.43-9.47,8.2-11.98,14.18-.94,2.23-1.63,4.53-1.95,6.91-.29,2.14-.34,4.32-.36,6.49-.03,2.83.5,5.58,1.34,8.28,2.83,9.15,8.71,15.49,17.56,19.11,2.4.98,4.89,1.58,7.46,1.83,1.11.11,2.21.24,3.32.25,4.1.07,8-.85,11.72-2.56,4.71-2.16,8.62-5.32,11.77-9.42.31-.41.66-.82.86-1.29.37-.9.99-1.06,1.9-1.05,3.06.05,6.12,0,9.18,0,.29,0,.58,0,1.08,0Z"/><path class="cls-1" d="m243.54,154.91c0,1.96-.02,3.82.01,5.68,0,.52.46.51.86.5,3.41-.04,6.82-.08,10.24-.11,1.11,0,.93-.06.93.93,0,.58-.05,1.18.01,1.75.08.71-.25.81-.85.81-2.23-.03-4.45,0-6.68-.01-1.28,0-2.56.02-3.85-.02-.55-.02-.69.18-.69.7.02,1.82.03,3.64,0,5.46,0,.55.15.73.72.73,3.91-.03,7.83,0,11.74-.03.64,0,.88.15.82.82-.07.71-.06,1.44,0,2.16.05.6-.2.71-.73.71-4.43-.02-8.86,0-13.29,0-.92,0-1.85-.03-2.77.01-.62.03-.81-.17-.81-.8.02-4.41.01-8.81.01-13.22,0-2.97.01-5.93-.01-8.9,0-.64.18-.86.84-.86,5.26.02,10.53.01,15.79.01.8,0,.83.1.72.9-.08.59-.09,1.22,0,1.81.11.83.07.95-.76.95-3.8,0-7.6,0-11.4,0h-.84Z"/><path class="cls-2" d="m191.17,174.99c.75-1.97,1.45-3.83,2.16-5.69.54-1.4,1.11-2.79,1.65-4.19,1.21-3.15,2.41-6.3,3.63-9.45.51-1.31,1.08-2.59,1.59-3.9.16-.41.39-.54.81-.53,1.12.02,2.25.02,3.37,0,.43,0,.66.14.81.53,1.13,2.97,2.26,5.94,3.4,8.9.62,1.59,1.28,3.17,1.91,4.76,1.16,2.94,2.31,5.88,3.46,8.81.08.2.12.41.22.75h-3.25c-1.44,0-1.39-.01-1.84-1.44-.46-1.47-1-2.92-1.56-4.35-.09-.23-.51-.46-.78-.46-2.74-.03-5.49-.01-8.23-.03-.58,0-.84.32-1,.8-.56,1.63-1.11,3.27-1.71,4.89-.09.24-.41.56-.63.57-1.32.05-2.64.03-4.01.03Zm11.53-19.51c-.18.31-.27.43-.32.56-.33.94-.64,1.89-.97,2.83-.7,1.95-1.43,3.89-2.14,5.85-.25.68-.14.83.6.83,1.39,0,2.79,0,4.18,0,.65,0,1.29,0,2.18,0-1.19-3.39-2.32-6.62-3.53-10.06Z"/><path class="cls-1" d="m137.84,164.91c0,3.1-.01,6.21.01,9.31,0,.58-.16.81-.76.79-.9-.04-1.8,0-2.7-.01-.84,0-.87-.03-.87-.87,0-6.07,0-12.14,0-18.21,0-1.01-.02-1.02-1.01-1.02-1.84,0-3.69.02-5.53.02-1.13,0-1.17-.05-1.15-1.18.01-.58.02-1.17,0-1.75-.02-.5.18-.74.7-.74,6.12,0,12.24,0,18.36,0,.54,0,.64.24.63.7-.03.74-.04,1.48,0,2.22.03.55-.15.76-.72.76-2.05-.02-4.09.01-6.14-.02-.65-.01-.83.18-.83.84.04,3.06.02,6.12.02,9.17Z"/><path class="cls-1" d="m183.23,164.94c0-3.06,0-6.11,0-9.17,0-.77-.1-.88-.91-.88-1.98,0-3.96,0-5.94.03-.64,0-.95-.16-.89-.87.06-.67.04-1.35,0-2.02-.03-.6.25-.79.81-.78,2.02.01,4.05,0,6.07,0,3.96,0,7.92,0,11.87,0,.85,0,.85.01.84.87,0,.7-.02,1.39.02,2.09.03.53-.18.72-.7.71-1.93-.03-3.87-.02-5.8-.03-1.11,0-1.15.03-1.15,1.11,0,5.98,0,11.96,0,17.93,0,1.05,0,1.06-1.04,1.06-.74,0-1.48,0-2.23,0q-.99,0-.99-1.03c0-3.01,0-6.02,0-9.03,0,0,.01,0,.02,0Z"/><path class="cls-1" d="m112.75,163.19c0-3.66,0-7.33,0-10.99,0-.89.06-.97.94-.96.81,0,1.62,0,2.43,0,.85,0,.94.07.94.96,0,1.28-.02,2.56-.02,3.84,0,4.76,0,9.53,0,14.29,0,.9.11,1.01,1.01,1.01,3.4,0,6.79-.01,10.19-.02.98,0,.98,0,.98.94,0,.67-.04,1.35.01,2.02.05.59-.18.71-.72.71-4.66-.02-9.31-.01-13.97-.01-.36,0-.72-.03-1.08,0-.58.06-.73-.21-.73-.75.02-2.97,0-5.93,0-8.9,0-.72,0-1.44,0-2.16,0,0,.01,0,.02,0Z"/><path class="cls-1" d="m148.17,163.12c0-3.64,0-7.28,0-10.92,0-.91.05-.95.95-.95.85,0,1.71,0,2.56,0,.82,0,.86.03.86.88,0,1.66-.04,3.32-.04,4.99,0,4.13,0,8.27,0,12.4,0,1.5.03,3.01.04,4.51,0,.9-.07.96-.94.96-.83,0-1.66,0-2.5,0-.89,0-.93-.03-.93-.96,0-2.58,0-5.17,0-7.75v-3.17Z"/></g></svg>