<?xml version="1.0" encoding="UTF-8"?><svg id="Layer_1" xmlns="http://www.w3.org/2000/svg" viewBox="0 0 320 240"><defs><style>.cls-1,.cls-2,.cls-3,.cls-4,.cls-5,.cls-6,.cls-7,.cls-8,.cls-9{stroke-width:0px;}.cls-2{fill:#767676;}.cls-3{fill:#595858;}.cls-4{fill:#545453;}.cls-5{fill:#2f2f2f;}.cls-6{fill:#939292;}.cls-7{fill:#8c8d8d;}.cls-8{fill:#010101;}.cls-9{fill:#020202;}</style></defs><g id="_93uGwB.tif"><path class="cls-1" d="m218.07,111.44c.06.19.17.38.17.58,0,6.25.02,12.49,0,18.74,0,1.11.15,2.18.5,3.24.35,1.06,2.12,2.69,3.56,2.61,1.23-.08,2.49.14,3.66-.4,1.82-.84,3.14-2.1,3.57-4.13.29-1.35.38-2.71.39-4.09.02-4.52.03-9.04.05-13.57,0-.97,0-1.94,0-2.94h8.04c.01.23.03.41.03.6,0,9.83,0,19.66,0,29.49,0,.45-.14.54-.56.53-2.14,0-4.28.02-6.42.06-.46,0-.58-.12-.57-.57.03-1.34.01-2.69.01-4.11-.37.42-.69.78-1,1.14-1.23,1.45-2.77,2.46-4.54,3.15-1.18.46-2.37.84-3.67.78-.06,0-.13.11-.19.17,0,.01.03.03.02.04,0,.03-.02.05-.04.07h-.2c-.04-.3-.26-.29-.49-.3-.13,0-.26-.05-.39-.08-.26-.18-.49-.19-.69.09-2.68-.04-4.95-1.08-6.75-3-1.08-1.15-1.65-2.59-1.97-4.14-.41-2-.51-4.03-.5-6.06.01-5.46,0-10.93,0-16.39,0-.29-.01-.58-.02-.87-.02-.04-.04-.07-.06-.11v-.5h7.92s.08,0,.12,0Z"/><path class="cls-3" d="m153.26,142.81c0-.09,0-.19-.01-.28.48,0,.96-.01,1.45-.01.21,0,.42.01.63.02,0,.02.01.04.01.07-.2.07-.4.14-.61.21h-1.47Z"/><path class="cls-3" d="m93.27,142.81h-.98c0-.1,0-.2,0-.3.42,0,.85,0,1.27,0-.1.1-.19.2-.29.29Z"/><path class="cls-9" d="m219.33,142.52c.2-.28.43-.27.69-.09-.03.13-.07.25-.1.38h-.39c-.07-.1-.13-.19-.2-.29Z"/><path class="cls-5" d="m219.92,142.81c.03-.13.07-.25.1-.38.13.03.26.08.39.08.23,0,.45,0,.49.3h-.98Z"/><path class="cls-9" d="m154.73,142.81c.2-.07.4-.14.61-.21.03.07.05.14.08.21h-.69Z"/><path class="cls-9" d="m92.29,142.51c0,.1,0,.2,0,.3h-.2c-.03-.07-.07-.14-.1-.21.04-.09.08-.17.13-.26.06.06.11.11.17.17Z"/><path class="cls-9" d="m93.27,142.81c.1-.1.19-.2.29-.29,0,0,0,0,0,0,.07.1.13.2.2.29h-.49Z"/><path class="cls-2" d="m221.1,142.81s.03-.05.04-.07c0-.01-.01-.03-.02-.04.13.04.25.07.38.11h-.39Z"/><path class="cls-1" d="m155.32,142.53c-.21,0-.42-.02-.63-.02-.48,0-.96,0-1.45.01-.81-.06-1.63-.12-2.44-.19-2.8-.54-5.36-1.65-7.53-3.49-1.71-1.45-2.95-3.3-3.74-5.42-.52-1.38-.88-2.8-.99-4.27-.07-.92-.3-1.84-.26-2.76.05-1.21.23-2.43.49-3.62.44-2.02,1.26-3.9,2.44-5.6,1.4-2.01,3.19-3.57,5.43-4.64,1.43-.69,2.92-1.2,4.47-1.43,1.29-.19,2.62-.28,3.92-.19,2.2.15,4.38.49,6.37,1.5,1.3.66,2.51,1.45,3.59,2.46,1.5,1.42,2.76,2.99,3.6,4.87.57,1.29,1.03,2.61,1.14,4.04.08,1.05.26,2.09.27,3.14,0,.9-.21,1.8-.26,2.7-.11,1.78-.76,3.38-1.59,4.92-1.66,3.07-4.1,5.36-7.3,6.78-1.3.58-2.67,1.06-4.13,1.11-.47.02-.93.07-1.4.11Zm6.04-15.94c.1-1.36-.05-2.72-.45-4.05-.5-1.68-1.34-3.14-2.71-4.27-1.67-1.38-3.68-1.6-5.69-1.32-2.17.3-3.74,1.65-4.82,3.52-1.06,1.83-1.36,3.86-1.38,5.93,0,.66.03,1.32.11,1.97.13.98.22,1.99.51,2.93.46,1.52,1.27,2.86,2.54,3.88,1.91,1.54,4.13,1.74,6.39,1.2,2.42-.57,3.88-2.32,4.76-4.55.66-1.67.84-3.43.74-5.25Z"/><path class="cls-1" d="m93.56,142.52s0,0,0,0c-.42,0-.85,0-1.27,0-.06-.06-.11-.11-.17-.17-.04.09-.08.17-.13.26-.63-.1-1.26-.18-1.88-.29-1.5-.27-2.81-.96-3.99-1.89-1.69-1.32-2.56-3.14-2.94-5.19-.18-.93-.37-1.88-.38-2.83-.06-5.99-.08-11.99-.1-17.98,0-.97,0-1.94,0-2.95h8.12c0,.23,0,.42,0,.61,0,6.46-.02,12.91.01,19.37,0,1.17.22,2.36.95,3.34.82,1.11,1.86,1.87,3.35,1.81,1.07-.05,2.16.1,3.2-.31,1.63-.65,2.89-1.71,3.54-3.34.3-.75.48-1.6.49-2.41.08-6.23.1-12.46.14-18.69,0-.14.03-.28.05-.41,2.54,0,5.04.01,7.54,0,.44,0,.54.15.54.56-.01,7.45,0,14.89,0,22.34,0,2.45,0,4.9,0,7.35,0,.25,0,.43-.35.43-2.15,0-4.31.02-6.46.04-.61,0-.63-.02-.63-.63,0-1.04.01-2.08,0-3.11,0-.29-.07-.59-.11-.91-2.44,3.12-5.49,5.01-9.52,5.05Z"/><path class="cls-1" d="m47.28,112.05c0-.16,0-.32,0-.49.12-.04.23-.11.35-.11,2.35,0,4.7,0,7.1,0v4.59c.67-.69,1.26-1.37,1.91-1.97,1.6-1.47,3.43-2.53,5.61-2.88,1-.16,2.02-.33,3.02-.28,2.55.13,4.98.73,6.96,2.48,1.41,1.25,2.2,2.85,2.52,4.68.13.75.14,1.53.2,2.29.51,6.86.07,13.72.24,20.59,0,.35-.04.7-.06,1.11-.23.01-.45.03-.67.03-2.25.02-4.51.02-6.76.05-.42,0-.58-.12-.58-.55.01-5.64.02-11.29,0-16.93,0-1.08,0-2.17-.13-3.24-.19-1.65-.8-3.11-2.36-3.98-.59-.33-1.22-.52-1.91-.52-.42,0-.85.02-1.27,0-1.37-.08-2.48.53-3.52,1.3-1.42,1.05-2.06,2.53-2.31,4.24-.22,1.49-.29,2.97-.28,4.46.03,4.75.05,9.5.07,14.25,0,.91,0,.91-.9.91-1.63,0-3.27,0-4.9,0-.6,0-1.2.06-1.8.04-.18,0-.35-.18-.52-.28,0-.13,0-.26,0-.39.03-.89.09-1.77.09-2.66,0-8.07,0-16.14,0-24.22,0-.84-.06-1.68-.09-2.52Z"/><path class="cls-1" d="m242,111.54c.15-.03.27-.07.39-.07,2.94,0,5.88,0,8.82,0,.29,0,.42.11.57.33,1.03,1.55,2.07,3.1,3.11,4.64.68,1.02,1.37,2.03,2.06,3.04.09.13.19.25.27.37.56-.13.7-.63.94-1,1.1-1.66,2.17-3.34,3.25-5.02.43-.67.88-1.34,1.28-2.04.14-.24.28-.35.56-.35,2.76,0,5.52,0,8.28,0,.3,0,.6.03.97.05-.54.75-1.04,1.42-1.52,2.09-2.55,3.53-5.09,7.07-7.64,10.6-.35.49-.73.96-1.06,1.46-.08.13-.08.42.01.55,1.26,1.82,2.53,3.63,3.81,5.44,1.43,2.02,2.86,4.03,4.29,6.05.95,1.34,1.91,2.67,2.87,4.01.07.1.12.21.21.36-.52,0-.99,0-1.46,0-2.55,0-5.1.01-7.65.03-.37,0-.56-.11-.76-.44-.64-1.04-1.34-2.05-2.02-3.07-1.03-1.53-2.08-3.06-3.12-4.59-.34-.5-.68-1-1.07-1.58-.27.38-.54.72-.77,1.08-1.49,2.34-2.97,4.69-4.45,7.03-.23.37-.49.72-.66,1.11-.15.34-.35.42-.7.42-2.76-.02-5.52-.01-8.28-.02-.28,0-.55,0-.87,0,.67-.98,1.3-1.92,1.95-2.84,1.04-1.47,2.1-2.92,3.14-4.39,1.92-2.72,3.83-5.44,5.75-8.16.14-.2.24-.35.03-.62-1.04-1.41-2.03-2.85-3.06-4.27-1.12-1.55-2.25-3.09-3.38-4.63-1.35-1.85-2.7-3.7-4.08-5.6Z"/><path class="cls-1" d="m184.76,117.7c0,.84-.03,1.69-.03,2.53,0,7.1,0,14.21,0,21.31,0,.47-.13.55-.58.54-2.25,0-4.51.02-6.76.04-.23,0-.45,0-.74,0v-24.56h-4.26v-6.14c.98,0,1.96,0,2.93,0,.42,0,.84-.03,1.26-.05.01-.04.02-.08.04-.12-.01-.9-.05-1.8-.03-2.7.01-.54.11-1.08.19-1.61.11-.78.21-1.57.38-2.34.38-1.74,1.42-3.03,2.94-3.94,1.33-.8,2.79-1.2,4.34-1.28.44-.02.89-.19,1.32-.17.89.05,1.78.16,2.67.27.93.12,1.86.25,2.78.39.45.07.9.18,1.34.3.05.01.11.19.09.27-.24,1.27-.48,2.53-.74,3.8-.07.35-.16.7-.24,1.06-.06.3-.26.35-.52.3-.58-.1-1.16-.24-1.75-.27-.81-.05-1.63-.01-2.45-.02-.8,0-1.37.4-1.77,1.05-.63,1.03-.64,2.17-.49,3.33.06.43,0,.87.02,1.31,0,.15.06.29.09.44.04,0,.07,0,.11,0,1.73,0,3.46,0,5.19-.02.36,0,.49.09.48.46-.02,1.47,0,2.95-.02,4.42,0,.4-.07.79-.11,1.26-1.84,0-3.69,0-5.55,0-.05.04-.11.08-.16.12Z"/><path class="cls-1" d="m202.56,142.02c-.09.02-.19.06-.29.06-2.56,0-5.12,0-7.74,0-.01-.09-.04-.21-.04-.33,0-13.53,0-27.06,0-40.59,0-.34.01-.68,0-1.02,0-.25.09-.34.34-.34,2.48,0,4.97,0,7.45,0,.27,0,.34.12.34.35-.01.42-.03.84-.03,1.26,0,13.14,0,26.28,0,39.42,0,.36.01.71.02,1.07-.02.04-.04.08-.06.12Z"/><path class="cls-1" d="m125.58,111.67v4.15s.08,0,.12,0c.43-.63.83-1.28,1.28-1.9.92-1.27,2-2.34,3.58-2.77.96-.26,1.93-.4,2.93-.12.76.21,1.55.3,2.3.54.52.16,1,.47,1.48.75.09.05.13.29.1.41-.63,2.18-1.27,4.35-1.92,6.55-.53-.24-1.06-.5-1.61-.7-1.28-.47-2.6-.56-3.92-.19-.98.27-1.66.95-2.16,1.79-.74,1.23-1.14,2.58-1.27,4.02-.07.78-.25,1.54-.28,2.32-.04,1.14.02,2.29.02,3.43,0,3.88,0,7.75,0,11.63,0,.27.03.5-.38.51-2.5,0-5,.03-7.49.05-.05,0-.09-.01-.23-.03,0-.6,0-1.21,0-1.82,0-9.43,0-18.85-.01-28.28,0-.46.11-.59.6-.58,2.11.04,4.21.02,6.32.03.17,0,.33.07.5.1.02.04.03.08.05.12Z"/><path class="cls-9" d="m269.44,106.42c.13-.32.28-.63.37-.96.25-.93.46-1.86.71-2.78.03-.1.19-.23.3-.24.53-.02,1.07-.01,1.64-.01v5.7h-1.28v-4.18s-.08-.02-.12-.02c-.16.5-.32.99-.46,1.49-.24.8-.47,1.59-.69,2.4-.07.24-.15.38-.44.37-.3-.01-.55-.04-.64-.38-.22-.83-.45-1.67-.69-2.5-.12-.43-.25-.86-.48-1.27v4.11h-1.33v-5.73c.54,0,1.06-.02,1.58.01.11,0,.28.18.32.3.25.83.47,1.67.71,2.51.11.39.25.77.38,1.16.04,0,.08.01.12.02Z"/><path class="cls-8" d="m264.06,103.78v4.35h-1.29c0-.92,0-1.84,0-2.75,0-.41-.03-.81,0-1.21.03-.4-.14-.53-.52-.48-.1.01-.2,0-.29,0-.95,0-.96,0-.86-.95.01-.12.2-.3.3-.31,1.42-.02,2.83-.01,4.26-.01v1.29c-.53,0-1.03,0-1.53,0-.03.03-.05.05-.08.08Z"/><path class="cls-6" d="m202.56,142.02s.04-.08.06-.12c-.02.04-.04.08-.06.12Z"/><path class="cls-7" d="m218.07,111.44s-.08,0-.12,0c.04,0,.08,0,.12,0Z"/><path class="cls-6" d="m184.93,111.45s-.07,0-.11,0c.04,0,.07,0,.11,0Z"/><path class="cls-2" d="m176.63,111.26s-.02.08-.04.12c.01-.04.02-.08.04-.12Z"/><path class="cls-4" d="m125.58,111.67s-.03-.08-.05-.12c.02.04.03.08.05.12Z"/></g></svg>