<?xml version="1.0" encoding="UTF-8"?><svg id="Layer_1" xmlns="http://www.w3.org/2000/svg" viewBox="0 0 320 240"><defs><style>.cls-1,.cls-2,.cls-3{stroke-width:0px;}.cls-2{fill:#b73629;}.cls-3{fill:#fff;}</style></defs><g id="Ozito_Industries_Pty_Ltd"><path class="cls-1" d="m56.74,162.55c0-28.36,0-56.73,0-85.09.41-.99.95-1.84,2.05-2.18h170.83c.24.09.47.2.72.26,1.09.28,2.02.83,2.79,1.64.93.98,1.87,1.96,2.81,2.93,2.85,2.94,5.7,5.88,8.54,8.83,3.1,3.2,6.19,6.4,9.28,9.61,2.45,2.54,4.87,5.1,7.34,7.6,1.45,1.48,2.18,3.15,2.17,5.26-.04,15.09-.02,30.18-.02,45.28,0,1.92-.01,3.84,0,5.76,0,.43-.11.79-.36,1.12-.28.38-.6.69-1.07.84-.17.06-.32.2-.48.31H58.78c-.17-.11-.32-.27-.5-.34-.51-.19-.84-.58-1.12-1.01-.17-.26-.29-.55-.43-.83Zm83.65-46.93c-1.51,1.81-2.93,3.53-4.35,5.23-1.33,1.59-2.67,3.18-4.01,4.77-1.22,1.45-2.45,2.89-3.67,4.34-1.14,1.35-2.27,2.71-3.41,4.06-1.18,1.39-2.37,2.78-3.55,4.17-1.27,1.51-2.51,3.05-3.8,4.55-.3.35-.44.69-.43,1.14.01,2.32,0,4.65,0,6.97,0,.21.02.42.03.61.55.15,36.82.16,37.45.02.01-.15.04-.32.04-.49,0-4.52,0-9.04,0-13.56,0-.67-.07-.73-.74-.73-2.62,0-5.24,0-7.87,0-.2,0-.41.04-.68.08v4.87c-.84.16-13.32.11-13.83-.05.25-.3.5-.57.73-.85,1.61-1.96,3.22-3.92,4.83-5.88,1.17-1.43,2.34-2.85,3.52-4.27,1.49-1.79,2.99-3.57,4.49-5.36.79-.95,1.57-1.92,2.36-2.87,1.84-2.21,3.69-4.41,5.53-6.62.24-.28.35-.6.35-.99-.02-2.79,0-5.59-.01-8.38,0-.2-.03-.4-.05-.58h-35.08v15.03c.59.19,8.65.18,9.25-.01,0-.85,0-1.72,0-2.59,0-.86-.03-1.73.02-2.59h12.86Zm85.03,35.93c1.2-.05,2.41.08,3.62-.2.81-.19,1.63-.34,2.45-.52.93-.2,1.82-.54,2.68-.91,1.75-.75,3.41-1.67,4.93-2.84,1.95-1.51,3.65-3.24,5.05-5.27.8-1.15,1.5-2.37,2.06-3.66.54-1.24,1.04-2.49,1.33-3.82.1-.43.2-.87.28-1.3.15-.83.37-1.66.42-2.5.11-2.21.06-4.41-.43-6.59-.3-1.37-.69-2.71-1.22-4-.76-1.87-1.77-3.61-3.01-5.21-1.63-2.11-3.55-3.91-5.77-5.37-1.19-.79-2.46-1.43-3.78-1.98-.74-.31-1.49-.58-2.26-.81-.58-.17-1.2-.21-1.79-.36-1.05-.28-2.12-.39-3.19-.45-1.89-.1-3.76.04-5.62.45-.72.16-1.42.34-2.13.53-1.23.34-2.38.84-3.53,1.39-2.32,1.11-4.36,2.61-6.18,4.43-1.43,1.43-2.66,3.02-3.65,4.78-.98,1.75-1.8,3.57-2.22,5.55-.09.43-.18.87-.28,1.3-.3,1.24-.48,2.5-.47,3.77,0,1.21.03,2.41.19,3.63.15,1.11.36,2.21.65,3.29.32,1.19.79,2.35,1.29,3.48.78,1.78,1.8,3.43,3.04,4.91,1.51,1.8,3.19,3.41,5.18,4.68,1.98,1.26,4.04,2.29,6.32,2.89.41.11.83.15,1.22.28.81.25,1.65.36,2.49.44.76.07,1.53.02,2.3.02Zm-108.04-22.96c-.03-1.23.05-2.46-.19-3.69-.19-1-.4-1.99-.68-2.96-.37-1.25-.91-2.44-1.48-3.62-1.03-2.12-2.4-4.01-4.03-5.68-1.68-1.74-3.6-3.17-5.76-4.31-1.69-.89-3.46-1.51-5.27-2.05-.68-.2-1.41-.22-2.12-.31-.17-.02-.34-.02-.51-.04-.46-.06-.92-.19-1.37-.19-1.27.01-2.54-.14-3.81.19-.58.15-1.2.11-1.81.25-.71.17-1.42.35-2.12.55-1.38.4-2.68.98-3.96,1.62-1.98.97-3.7,2.29-5.31,3.77-1.41,1.3-2.61,2.8-3.6,4.43-.73,1.2-1.35,2.48-1.91,3.77-.66,1.53-1.01,3.17-1.31,4.81-.16.9-.19,1.82-.27,2.72-.14,1.41.25,2.79.25,4.2,0,.04,0,.09.02.13.24.96.48,1.92.71,2.88.28,1.2.76,2.32,1.27,3.43.83,1.8,1.89,3.46,3.15,4.98,1.26,1.52,2.7,2.88,4.3,4.02,1.54,1.1,3.21,1.99,4.98,2.67.66.26,1.35.43,2.03.63.4.11.82.18,1.22.29.96.26,1.92.48,2.92.48,1.87,0,3.74.18,5.6-.24.63-.15,1.3-.16,1.93-.33.72-.19,1.41-.49,2.12-.72,1.84-.59,3.52-1.51,5.1-2.59,1.84-1.26,3.49-2.76,4.88-4.53,1.11-1.41,2.08-2.9,2.85-4.51.47-.99.83-2.03,1.18-3.06.23-.68.34-1.39.55-2.08.26-.84.36-1.7.44-2.56.07-.78.02-1.58.02-2.36Zm77.88,13.14v-26.14h3.85c.66,0,1.32,0,1.98,0,.63,0,1.26.03,1.87-.02.16-.91.11-9.3-.07-9.83-1.25,0-2.53,0-3.8,0-1.27,0-2.54.02-3.87-.02,0-.31,0-.54,0-.77,0-1.68-.01-3.37,0-5.05,0-.44-.13-.76-.44-1.06-.77-.77-1.51-1.57-2.26-2.36-2.4-2.53-4.8-5.07-7.2-7.6-.12-.13-.26-.24-.39-.35-.04.02-.09.04-.13.05v17.17h-5.79c-.19.67-.17,9.28.01,9.87h5.78v35.92h18.69c.01-.23.04-.42.04-.6,0-2.81,0-5.63,0-8.44,0-.11,0-.21,0-.32-.02-.27-.13-.44-.44-.43-.15,0-.3,0-.45,0-2.2,0-4.39,0-6.59,0h-.82Zm-14.51,9.79c.02-.19.06-.33.06-.48,0-2.86,0-5.71,0-8.57,0-.63-.12-.74-.76-.74-1.47,0-2.94,0-4.41,0h-.76c-.02-.39-.06-.7-.06-1.01,0-5.54,0-11.08,0-16.63,0-5.78,0-11.55,0-17.33,0-.33-.05-.66-.07-.98h-16.25v9.82h5.8c.13,1.28.08,25.62-.07,26.14h-5.77c-.04.33-.11.6-.11.87,0,2.75,0,5.5,0,8.25,0,.22.05.45.08.66h22.32Z"/><path class="cls-3" d="m140.38,115.62h-12.86c-.05.86-.02,1.73-.02,2.59,0,.87,0,1.74,0,2.59-.6.19-8.66.2-9.25.01v-15.03h35.08c.02.18.05.38.05.58,0,2.79,0,5.59.01,8.38,0,.39-.12.71-.35.99-1.84,2.21-3.69,4.41-5.53,6.62-.79.95-1.57,1.92-2.36,2.87-1.49,1.79-3,3.57-4.49,5.36-1.18,1.42-2.35,2.85-3.52,4.27-1.61,1.96-3.22,3.92-4.83,5.88-.23.28-.48.56-.73.85.51.17,12.99.21,13.83.05v-4.87c.27-.03.48-.08.68-.08,2.62,0,5.24,0,7.87,0,.68,0,.74.06.74.73,0,4.52,0,9.04,0,13.56,0,.17-.03.33-.04.49-.63.14-36.9.13-37.45-.02,0-.19-.03-.4-.03-.61,0-2.32,0-4.65,0-6.97,0-.45.13-.79.43-1.14,1.29-1.5,2.53-3.03,3.8-4.55,1.17-1.4,2.37-2.78,3.55-4.17,1.14-1.35,2.27-2.71,3.41-4.06,1.22-1.45,2.45-2.89,3.67-4.34,1.34-1.59,2.68-3.18,4.01-4.77,1.42-1.7,2.84-3.41,4.35-5.23Z"/><path class="cls-3" d="m225.42,151.55c-.77,0-1.54.06-2.3-.02-.83-.08-1.67-.18-2.49-.44-.4-.12-.82-.17-1.22-.28-2.28-.6-4.34-1.63-6.32-2.89-1.99-1.27-3.67-2.88-5.18-4.68-1.25-1.49-2.26-3.14-3.04-4.91-.5-1.13-.97-2.29-1.29-3.48-.29-1.07-.5-2.17-.65-3.29-.17-1.21-.18-2.42-.19-3.63,0-1.28.17-2.53.47-3.77.1-.43.19-.86.28-1.3.42-1.98,1.24-3.8,2.22-5.55.99-1.76,2.21-3.35,3.65-4.78,1.82-1.82,3.85-3.32,6.18-4.43,1.14-.55,2.3-1.05,3.53-1.39.71-.19,1.41-.37,2.13-.53,1.86-.41,3.73-.55,5.62-.45,1.07.05,2.14.17,3.19.45.59.16,1.21.19,1.79.36.77.23,1.52.5,2.26.81,1.31.55,2.59,1.19,3.78,1.98,2.23,1.47,4.14,3.26,5.77,5.37,1.24,1.61,2.25,3.35,3.01,5.21.52,1.29.91,2.63,1.22,4,.48,2.19.54,4.38.43,6.59-.04.84-.26,1.67-.42,2.5-.08.44-.19.87-.28,1.3-.29,1.33-.8,2.57-1.33,3.82-.56,1.29-1.26,2.51-2.06,3.66-1.4,2.02-3.1,3.76-5.05,5.27-1.52,1.17-3.18,2.09-4.93,2.84-.86.37-1.75.7-2.68.91-.82.18-1.64.33-2.45.52-1.21.29-2.42.15-3.62.2Zm13.01-22.75c-.03-.91.03-1.81-.21-2.72-.22-.88-.46-1.74-.81-2.58-.81-1.95-2.04-3.6-3.63-4.96-1.34-1.14-2.84-2.01-4.56-2.48-1.07-.29-2.12-.53-3.23-.48-.95.04-1.89-.02-2.84.21-.84.2-1.66.42-2.46.72-1.12.42-2.12,1.05-3.06,1.76-1.46,1.1-2.61,2.46-3.5,4.05-.47.84-.82,1.72-1.09,2.66-.28,1.01-.48,2.01-.49,3.05-.02,1.45.07,2.87.51,4.27.27.86.58,1.69.98,2.5.75,1.52,1.81,2.79,3.05,3.91.75.68,1.57,1.27,2.48,1.72.66.32,1.3.65,2.02.8.59.13,1.16.34,1.75.46.52.1,1.05.14,1.58.18.38.03.78.07,1.14-.02.8-.21,1.63-.11,2.44-.36.69-.21,1.42-.38,2.08-.66,1.08-.46,2.08-1.07,3-1.82,1.49-1.21,2.68-2.67,3.55-4.39.37-.74.7-1.49.88-2.3.14-.66.32-1.31.4-1.98.06-.5.01-1.02.01-1.53Z"/><path class="cls-3" d="m117.38,128.59c0,.79.06,1.58-.02,2.36-.08.86-.18,1.72-.44,2.56-.21.68-.32,1.4-.55,2.08-.35,1.04-.71,2.08-1.18,3.06-.77,1.61-1.74,3.1-2.85,4.51-1.39,1.77-3.04,3.26-4.88,4.53-1.58,1.08-3.26,1.99-5.1,2.59-.71.23-1.4.53-2.12.72-.63.16-1.29.18-1.93.33-1.85.42-3.73.24-5.6.24-1,0-1.96-.22-2.92-.48-.4-.11-.82-.17-1.22-.29-.68-.19-1.37-.37-2.03-.63-1.77-.69-3.44-1.57-4.98-2.67-1.6-1.14-3.04-2.5-4.3-4.02-1.26-1.52-2.32-3.18-3.15-4.98-.51-1.11-.99-2.23-1.27-3.43-.22-.96-.47-1.92-.71-2.88-.01-.04-.02-.08-.02-.13,0-1.4-.39-2.79-.25-4.2.09-.91.11-1.83.27-2.72.3-1.64.65-3.28,1.31-4.81.55-1.29,1.18-2.57,1.91-3.77.99-1.63,2.18-3.13,3.6-4.43,1.61-1.48,3.33-2.8,5.31-3.77,1.29-.63,2.58-1.22,3.96-1.62.7-.2,1.41-.38,2.12-.55.61-.14,1.23-.1,1.81-.25,1.26-.33,2.54-.18,3.81-.19.46,0,.92.12,1.37.19.17.02.34.02.51.04.71.1,1.44.11,2.12.31,1.81.54,3.58,1.16,5.27,2.05,2.16,1.13,4.08,2.57,5.76,4.31,1.63,1.68,2.99,3.56,4.03,5.68.57,1.18,1.11,2.37,1.48,3.62.29.97.49,1.96.68,2.96.23,1.23.15,2.46.19,3.69Zm-35.77-.02c.12.97.17,1.95.38,2.9.21.95.53,1.89.95,2.79.85,1.87,2.09,3.42,3.64,4.74,1.63,1.4,3.55,2.21,5.62,2.65.85.18,1.73.17,2.6.24.13.01.26-.01.38-.02.51-.06,1.01-.11,1.52-.17.13-.01.26,0,.38-.04.77-.24,1.55-.47,2.32-.73,1.47-.5,2.74-1.35,3.9-2.36,1.6-1.41,2.79-3.1,3.53-5.1.37-1.01.71-2.02.75-3.11,0-.25.1-.5.1-.76.02-.55.02-1.1,0-1.65-.01-.32-.07-.63-.12-.95-.1-.62-.15-1.27-.34-1.86-.37-1.16-.83-2.28-1.48-3.33-1.13-1.82-2.58-3.3-4.39-4.44-.93-.58-1.93-1-2.98-1.32-.63-.19-1.28-.37-1.89-.4-1.37-.07-2.74-.17-4.12.15-.78.18-1.56.35-2.29.64-1.64.63-3.11,1.59-4.38,2.82-1.71,1.68-2.95,3.64-3.53,6-.27,1.09-.5,2.19-.54,3.33Z"/><path class="cls-3" d="m195.26,141.73h.82c2.2,0,4.39,0,6.59,0,.15,0,.3,0,.45,0,.3-.02.42.15.44.43,0,.11,0,.21,0,.32,0,2.81,0,5.63,0,8.44,0,.19-.02.38-.04.6h-18.69v-35.92h-5.78c-.19-.58-.2-9.2-.01-9.87h5.79v-17.17s.09-.04.13-.05c.13.12.27.23.39.35,2.4,2.53,4.8,5.07,7.2,7.6.75.79,1.49,1.59,2.26,2.36.31.31.44.63.44,1.06-.02,1.68,0,3.37,0,5.05,0,.23,0,.46,0,.77,1.33.04,2.6.01,3.87.02,1.27,0,2.55,0,3.8,0,.18.53.23,8.92.07,9.83-.61.06-1.24.02-1.87.02-.66,0-1.32,0-1.98,0h-3.85v26.14Z"/><path class="cls-3" d="m180.75,151.52h-22.32c-.03-.21-.08-.43-.08-.66,0-2.75,0-5.5,0-8.25,0-.27.07-.54.11-.87h5.77c.14-.53.2-24.86.07-26.14h-5.8v-9.82h16.25c.02.32.07.65.07.98,0,5.78,0,11.55,0,17.33,0,5.54,0,11.08,0,16.63,0,.31.04.62.06,1.01h.76c1.47,0,2.94,0,4.41,0,.64,0,.76.11.76.74,0,2.86,0,5.71,0,8.57,0,.14-.03.29-.06.48Z"/><path class="cls-1" d="m238.43,128.8c0,.51.05,1.03-.01,1.53-.09.67-.26,1.32-.4,1.98-.18.81-.51,1.56-.88,2.3-.87,1.72-2.06,3.18-3.55,4.39-.92.75-1.92,1.36-3,1.82-.66.28-1.39.45-2.08.66-.81.25-1.64.15-2.44.36-.36.1-.76.05-1.14.02-.53-.04-1.06-.07-1.58-.18-.59-.12-1.16-.33-1.75-.46-.72-.16-1.37-.49-2.02-.8-.92-.44-1.73-1.04-2.48-1.72-1.24-1.12-2.3-2.39-3.05-3.91-.4-.81-.71-1.64-.98-2.5-.44-1.4-.53-2.82-.51-4.27.01-1.05.21-2.05.49-3.05.26-.93.61-1.82,1.09-2.66.89-1.59,2.05-2.95,3.5-4.05.95-.71,1.95-1.34,3.06-1.76.8-.3,1.62-.52,2.46-.72.96-.23,1.89-.17,2.84-.21,1.11-.05,2.16.19,3.23.48,1.73.47,3.22,1.34,4.56,2.48,1.6,1.36,2.83,3.01,3.63,4.96.35.84.58,1.7.81,2.58.23.91.18,1.81.21,2.72Z"/><path class="cls-1" d="m81.61,128.57c.03-1.14.27-2.23.54-3.33.58-2.36,1.81-4.32,3.53-6,1.26-1.23,2.73-2.19,4.38-2.82.73-.28,1.52-.46,2.29-.64,1.38-.32,2.75-.22,4.12-.15.62.03,1.26.21,1.89.4,1.06.32,2.05.74,2.98,1.32,1.81,1.14,3.27,2.62,4.39,4.44.65,1.05,1.11,2.17,1.48,3.33.19.6.24,1.24.34,1.86.05.31.11.63.12.95.02.55.02,1.1,0,1.65,0,.25-.09.5-.1.76-.04,1.09-.38,2.1-.75,3.11-.74,2-1.94,3.7-3.53,5.1-1.16,1.02-2.42,1.87-3.9,2.36-.77.26-1.54.49-2.32.73-.12.04-.25.02-.38.04-.51.06-1.01.11-1.52.17-.13.01-.26.04-.38.02-.87-.07-1.75-.06-2.6-.24-2.07-.44-3.99-1.26-5.62-2.65-1.54-1.33-2.79-2.88-3.64-4.74-.41-.9-.73-1.83-.95-2.79-.21-.95-.26-1.93-.38-2.9Z"/><polygon class="cls-2" points="174.1 88.51 174.1 100.71 161.75 100.71 174.1 88.51"/></g></svg>