<?xml version="1.0" encoding="UTF-8"?><svg id="Layer_1" xmlns="http://www.w3.org/2000/svg" viewBox="0 0 320 240"><defs><style>.cls-1{fill:#909090;}.cls-2{fill:#444;}.cls-3{fill:#2c2c2c;}.cls-4{fill:#2d2d2d;}</style></defs><g id="_512VxC"><path class="cls-1" d="m254.15,97.63c5.75,0,11.5.01,17.25,0,2.18,0,3.93.78,4.99,2.72.8,1.46.79,3.03.26,4.62-1.32,3.96-2.61,7.92-3.87,11.89-1.99,6.25-3.95,12.51-5.93,18.77-1.12,3.53-2.21,7.07-3.38,10.59-.93,2.78-5.02,4.78-8.24,2.31-3.21-2.46-6.43-4.91-9.65-7.36-4.23-3.23-8.44-6.5-12.7-9.69-1.74-1.31-2.53-2.95-2.52-5.12.04-7.24.09-14.48-.02-21.72-.06-3.86,2.39-7.12,7.06-7.02,5.58.12,11.16.03,16.74.03Zm-5.74,6.29c-3.32,0-6.64,0-9.96,0-1.65,0-1.77.12-1.78,1.71,0,3.49.03,6.98-.02,10.47-.01.96.33,1.56,1.08,2.13,4.38,3.31,8.73,6.66,13.09,9.99,1.4,1.07,2.73.58,3.22-1.1.79-2.7,1.6-5.4,2.45-8.08,1.31-4.16,2.69-8.31,3.99-12.48.55-1.78-.11-2.62-1.98-2.63-3.36-.02-6.72,0-10.08,0Z"/><path class="cls-3" d="m49.44,140.65h-6.37c-.04-.3-.1-.59-.1-.87,0-11.84-.02-23.68,0-35.52,0-3.28,2.75-6.23,5.62-6.48,3.42-.3,6.87-.26,10.31-.29,3.18-.03,6.19.52,8.88,2.43,3.18,2.26,4.56,5.43,4.75,9.16.15,2.85.05,5.71.03,8.56-.05,6.3-3.82,10.7-9.86,12-1.66.36-3.43.19-5.15.21-2.17.03-4.35.06-6.52-.01-1.26-.04-1.64.48-1.62,1.66.05,3.02.02,6.03.02,9.16Zm0-26.94c0,2.77.02,5.54-.01,8.31-.01,1.01.35,1.5,1.41,1.49,3.2-.02,6.39.05,9.59-.03,3.46-.08,5.6-2.37,5.6-5.84,0-2.68,0-5.37,0-8.05,0-3.2-2.11-5.69-5.7-5.75-3.11-.05-6.22.02-9.33-.03-1.17-.02-1.59.44-1.57,1.58.04,2.77.01,5.54.01,8.31Z"/><path class="cls-4" d="m191.89,123.55v6.24c-.3.04-.58.11-.86.11-5.96.01-11.93.18-17.88-.03-3.66-.13-7.63-3.13-8.76-7.5-.22-.83-.22-1.73-.23-2.6-.03-3.79-.22-7.59.01-11.37.24-3.85,2.2-6.87,5.5-8.96,2.21-1.39,4.62-1.93,7.2-1.84,2.82.1,5.64-.21,8.44.6,4.38,1.26,7.53,4.72,8.14,9.05.24,1.67.31,3.48-.05,5.1-.68,3-3.22,4.51-6.14,4.53-4.64.04-9.28.01-13.93.01-2.4,0-3.55,1.43-2.76,3.67.57,1.62,1.54,3.04,3.96,3.01,5.28-.07,10.56-.02,15.84-.02.46,0,.92,0,1.51,0Zm-12.94-12.98c2.3,0,4.59-.02,6.89.01.98.02,1.31-.33,1.29-1.35-.05-3.12-2.27-5.1-5.24-5.29-1.74-.11-3.49.03-5.23-.03-2.72-.1-4.56,1.19-5.76,3.53-1.1,2.15-.48,3.13,1.92,3.13,2.04,0,4.08,0,6.12,0Z"/><path class="cls-4" d="m102.93,123.55v6.25c-.32.04-.64.1-.96.1-5.88.02-11.76.22-17.62-.04-3.52-.16-6.3-2.15-7.89-5.38-.62-1.27-1.03-2.77-1.07-4.18-.12-4.08-.14-8.18.05-12.25.18-3.95,2.44-6.76,5.7-8.78,2.05-1.27,4.35-1.72,6.75-1.66,2.95.08,5.92-.28,8.81.64,4.78,1.51,8.4,6.01,8.11,11.13-.05.85.1,1.72-.07,2.54-.63,3-3.23,4.99-6.37,4.99-4.68,0-9.37,0-14.05,0-1.86,0-2.53.65-2.53,2.44,0,2.83,1.4,4.21,4.29,4.21,5.11,0,10.22,0,15.33,0,.46,0,.93,0,1.53,0Zm-12.82-12.98c2.3,0,4.6,0,6.9,0,.53,0,1.08.11,1.18-.76.44-3.69-2.37-5.79-5.03-5.87-2.04-.06-4.09-.07-6.13,0-2.97.1-5.35,2.61-5.25,5.37.03.91.4,1.28,1.3,1.27,2.34-.03,4.69,0,7.03,0Z"/><path class="cls-3" d="m137.28,129.85h-6.5c0-.5,0-.95,0-1.39,0-6.09-.02-12.18,0-18.27.01-4.03-2.18-6.24-6.21-6.26-2.94-.01-5.88.04-8.81-.02-1.24-.03-1.6.42-1.6,1.63.04,7.62.02,15.24.02,22.87,0,.46,0,.92,0,1.43h-6.43c-.03-.34-.09-.67-.09-.99,0-8.39-.08-16.77.05-25.16.03-2.32,1.66-4,3.6-5.1,1.01-.58,2.3-.91,3.47-.93,3.87-.08,7.75-.11,11.61.11,5.48.31,9.62,4.12,10.61,9.5.16.86.25,1.75.26,2.63.02,6.17.01,12.35.01,18.52v1.45Z"/><path class="cls-3" d="m226.15,129.83h-6.54c0-.44,0-.88,0-1.33,0-6.05,0-12.09,0-18.14,0-4.35-2.07-6.43-6.4-6.43-2.81,0-5.62,0-8.43,0-1.6,0-1.77.16-1.77,1.74,0,7.58,0,15.16,0,22.74,0,.46,0,.91,0,1.43h-6.37c-.04-.2-.09-.36-.09-.52,0-8.26,0-16.52,0-24.78,0-3.36,2.69-6.55,5.96-6.74,5.01-.29,10.09-.8,15.05.43,3.76.93,6.52,3.22,7.66,7.02.52,1.73.87,3.59.9,5.39.11,5.92.04,11.84.04,17.76,0,.46,0,.91,0,1.44Z"/><path class="cls-3" d="m151.55,90.57c.02,1.7.04,3.4.05,5.11.01,1.7.15,1.85,1.81,1.85,2.64,0,5.28,0,7.92,0,.42,0,.83,0,1.32,0v6.35c-1.02,0-2.03,0-3.03,0-2.21,0-4.43.02-6.64,0-.84,0-1.32.31-1.32,1.17,0,4.98-.06,9.97.04,14.95.05,2.27,1.61,3.54,3.94,3.56,2,.01,3.99,0,6.08,0v6.58c-3.23-.23-6.46-.18-9.55-.77-3.72-.71-7.19-5.11-7.03-9.4.18-4.81.01-9.62.07-14.44.01-1.11-.29-1.5-1.43-1.43-1.65.1-3.32.03-5.07.03v-6.59c1.58,0,3.18-.05,4.78.02,1.19.05,1.71-.36,1.67-1.62-.06-1.78.02-3.57.05-5.36l.26-.2c1.96,0,3.92,0,5.87,0,.08.07.15.14.23.2Z"/><path class="cls-2" d="m145.45,90.37l-.26.2.26-.2Z"/><path class="cls-2" d="m151.55,90.57c-.08-.07-.15-.14-.23-.2.08.07.15.14.23.2Z"/></g></svg>