<?xml version="1.0" encoding="UTF-8"?><svg id="Layer_1" xmlns="http://www.w3.org/2000/svg" xmlns:xlink="http://www.w3.org/1999/xlink" viewBox="0 0 320 240"><defs><style>.cls-1{fill:url(#linear-gradient);}.cls-1,.cls-2,.cls-3,.cls-4,.cls-5,.cls-6,.cls-7,.cls-8,.cls-9,.cls-10{stroke-width:0px;}.cls-2{fill:url(#linear-gradient-4);}.cls-3{fill:url(#linear-gradient-2);}.cls-4{fill:url(#linear-gradient-3);}.cls-5{fill:url(#linear-gradient-7);}.cls-6{fill:url(#linear-gradient-5);}.cls-7{fill:url(#linear-gradient-6);}.cls-8{fill:#573376;}.cls-9{fill:url(#linear-gradient-8);}.cls-9,.cls-10{isolation:isolate;opacity:.8;}.cls-10{fill:url(#linear-gradient-9);}</style><linearGradient id="linear-gradient" x1="1322.61" y1="1853.78" x2="1324.29" y2="1854.87" gradientTransform="translate(-30431.06 51879.39) scale(23.06 -27.9)" gradientUnits="userSpaceOnUse"><stop offset="0" stop-color="#f27123"/><stop offset="1" stop-color="#e12754"/></linearGradient><linearGradient id="linear-gradient-2" x1="1356.89" y1="1832.9" x2="1357.64" y2="1833.4" gradientTransform="translate(-69944.25 112012.89) scale(51.59 -61.03)" xlink:href="#linear-gradient"/><linearGradient id="linear-gradient-3" x1="1376.19" y1="1821.53" x2="1376.44" y2="1821.69" gradientTransform="translate(-208191.68 356975.29) scale(151.32 -195.9)" xlink:href="#linear-gradient"/><linearGradient id="linear-gradient-4" x1="1312.37" y1="1858.28" x2="1314.47" y2="1859.51" gradientTransform="translate(-24188.61 46222.01) scale(18.47 -24.8)" xlink:href="#linear-gradient"/><linearGradient id="linear-gradient-5" x1="1362.73" y1="1836.56" x2="1362.93" y2="1836.39" gradientTransform="translate(-81463.88 94267.76) scale(59.82 -51.26)" gradientUnits="userSpaceOnUse"><stop offset="0" stop-color="#f27123" stop-opacity="0"/><stop offset="1" stop-color="#e12754"/></linearGradient><linearGradient id="linear-gradient-6" x1="1339.33" y1="1848.46" x2="1338.89" y2="1848.98" gradientTransform="translate(-40489.8 58926.8) scale(30.3 -31.8)" xlink:href="#linear-gradient-5"/><linearGradient id="linear-gradient-7" x1="1323.6" y1="1854.23" x2="1323.03" y2="1854.82" gradientTransform="translate(-30431.07 51879.4) scale(23.06 -27.9)" xlink:href="#linear-gradient-5"/><linearGradient id="linear-gradient-8" x1="1324.12" y1="1854.84" x2="1323.88" y2="1854.75" gradientTransform="translate(-31170.04 49387.95) scale(23.62 -26.56)" xlink:href="#linear-gradient-5"/><linearGradient id="linear-gradient-9" x1="1337.03" y1="1856.43" x2="1336.91" y2="1856.26" gradientTransform="translate(-37475.72 47302.07) scale(28.08 -25.41)" xlink:href="#linear-gradient-5"/></defs><g id="Picnic_IP_Pty_Ltd"><path id="Shape" class="cls-8" d="m137.84,101.55h-10.83c-1.65,0-2.99,1.35-2.99,2.99v34.5h5.12c1.65,0,2.99-1.35,2.99-2.99v-5.57h5.66c11.16,0,16.85-6.49,16.85-14.45-.03-8.02-5.69-14.48-16.79-14.48Zm.39,21.97h-6.13v-15.05h6.19c4.91,0,7.87,3.35,7.87,7.51s-2.93,7.54-7.93,7.54Z"/><path class="cls-8" d="m159.24,115.41v23.64h4.61c1.65,0,2.99-1.35,2.99-2.99v-23.64h-4.61c-1.65,0-2.99,1.35-2.99,2.99Z"/><path class="cls-8" d="m163.34,100.23c-2.51,0-4.61,2.12-4.61,4.61s2.12,4.61,4.61,4.61,4.61-2.12,4.61-4.61-2.09-4.61-4.61-4.61Z"/><path class="cls-8" d="m189.55,130.91c-1.08.9-2.51,1.41-4.13,1.41-3.71,0-6.4-2.75-6.4-6.58s2.69-6.58,6.4-6.58c1.62,0,3.05.51,4.13,1.41.96.81,2.33.93,3.41.3l4.49-2.6c-2.39-4.07-6.91-6.58-11.91-6.58-8.05,0-14.12,6.04-14.12,14.06s6.07,14.06,14.12,14.06c5,0,9.55-2.54,11.91-6.64l-4.49-2.57c-1.08-.6-2.42-.48-3.41.33Z"/><path class="cls-8" d="m216.97,111.64c-3.32,0-6.07,1.17-7.54,3.2l-.51.69v-3.11h-4.61c-1.65,0-2.99,1.35-2.99,2.99v23.64h4.61c1.65,0,2.99-1.35,2.99-2.99v-11.58c0-3.74,1.95-5.87,5.33-5.87,2.42,0,5,1.38,5,5.24v15.2h4.61c1.65,0,2.99-1.35,2.99-2.99v-13.41c.03-7.6-4.94-11.01-9.88-11.01Z"/><path class="cls-8" d="m232.71,115.41v23.64h4.61c1.65,0,2.99-1.35,2.99-2.99v-23.64h-4.61c-1.65,0-2.99,1.35-2.99,2.99Z"/><circle id="Oval" class="cls-8" cx="236.81" cy="104.84" r="4.61"/><path class="cls-8" d="m266.73,130.61c-1.08-.63-2.45-.51-3.41.3-1.08.9-2.51,1.41-4.13,1.41-3.71,0-6.4-2.75-6.4-6.58s2.69-6.58,6.4-6.58c1.62,0,3.05.51,4.13,1.41.96.81,2.33.93,3.41.3l4.49-2.6c-2.39-4.07-6.91-6.58-11.91-6.58-8.05,0-14.12,6.04-14.12,14.06s6.07,14.06,14.12,14.06c5,0,9.55-2.54,11.91-6.64l-4.49-2.54Z"/><path class="cls-1" d="m89.66,138.6c-.81.72-1.59,1.44-2.3,2.15-.42.42-1.23,1.29-1.8,1.92-.39.42-.45,1.05-.18,1.56.51.9,1.02,1.8,1.5,2.72,1.68-.75,3.23-1.68,4.7-2.75.54-.39.69-1.11.39-1.68-.72-1.35-1.5-2.63-2.3-3.92Z"/><path class="cls-3" d="m95.8,124.47c-.96-1.26-1.98-2.45-2.99-3.65-.57-.66-1.56-.69-2.18-.09-.78.75-1.74,1.56-2.72,2.39-.57.48-.63,1.32-.15,1.86.84.96,1.65,1.92,2.42,2.9,1.38,1.71,2.66,3.47,3.86,5.3,1.17,1.74,2.27,3.56,3.29,5.39,1.38-1.83,2.54-3.8,3.47-5.96.18-.39.15-.87-.09-1.23-.33-.51-.66-1.05-1.02-1.56.81-.42,1.62-.81,2.42-1.17.36-1.35.6-3.65.75-5.36.09-.99-.9-1.71-1.83-1.32-1.8.75-3.53,1.59-5.24,2.48"/><path class="cls-4" d="m62.94,137.25c-1.14,1.71-2.18,3.47-3.17,5.27-.3.57-.15,1.29.39,1.68,1.47,1.08,3.05,1.98,4.7,2.75.87-1.71,1.83-3.35,2.84-4.97.57-.9,1.17-1.8,1.77-2.66.09-.12.18-.24.27-.36.21-.3.45-.63.66-.93.09-.12.18-.24.27-.36.3-.42.6-.81.93-1.2,1.35-1.74,2.78-3.38,4.31-5,1.53,1.62,2.96,3.26,4.31,5-1.53,1.65-2.96,3.38-4.31,5.18-.69-.93-1.41-1.86-2.15-2.75-.54-.66-1.56-.63-2.06.06-.93,1.26-1.8,2.54-2.63,3.86l-.27.42c1.17,1.38,2.24,2.81,3.23,4.31.36.54.72,1.08,1.05,1.62.93.09,1.86.15,2.81.15s1.89-.06,2.81-.15c.33-.54.69-1.11,1.05-1.62,1.32-1.95,2.75-3.8,4.31-5.57.72-.81,1.44-1.59,2.21-2.33.24-.24.51-.48.75-.72.6-.57,1.2-1.11,1.8-1.65.96-.84,1.92-1.62,2.9-2.39.57-.42.69-1.23.27-1.8-.84-1.2-2.21-3.08-3.08-4.19l-.06-.06c-1.35.99-2.66,2.01-3.92,3.08-1.38-1.71-2.81-3.38-4.31-4.97h0l-.03-.03.03-.03c.21-.18.39-.33.6-.51,0,0,.03,0,.03-.03.21-.15.39-.33.6-.48.18-.15.36-.27.54-.42.06-.03.09-.09.15-.12.24-.18.45-.36.69-.54.42-.33.84-.66,1.26-.99h.03c.42-.33.84-.66,1.26-.99h0c.12-.09.24-.21.36-.3.09-.09.18-.15.3-.24.03-.03.06-.03.06-.06.12-.09.21-.18.33-.27l.03-.03c1.62-1.35,3.08-2.63,3.98-3.74,2.45-2.93,3.26-6.1,3.26-9.31,0-10.05-8.17-18.19-18.22-18.19s-18.22,8.14-18.22,18.19c0,3.2.81,6.4,3.26,9.31.84,1.02,2.15,2.18,3.62,3.41,0,0,.03,0,.03.03.12.09.21.18.33.27l.03.03c1.17.96,2.39,1.92,3.59,2.87.06.06.27.21.48.39.51.42,1.26.36,1.74-.09l3.89-3.8h.03c-.69-.57-1.38-1.14-2.09-1.68-2.03-1.59-5.42-4.22-6.61-5.63-1.2-1.44-1.74-2.99-1.74-5.09,0-6.4,5.24-11.64,11.64-11.64s11.64,5.21,11.64,11.64c0,2.09-.54,3.68-1.74,5.09-1.2,1.41-4.58,4.07-6.61,5.63-.66.51-1.35,1.08-2.09,1.68-.39.33-.81.66-1.23,1.02l-.03.03c-1.65,1.44-3.2,2.99-4.7,4.58h0l-.03.03c-1.5,1.59-2.96,3.23-4.31,4.97-1.65-1.44-3.41-2.75-5.21-4.01.78-.99,1.59-1.95,2.42-2.9.48-.57.42-1.41-.15-1.86-1.02-.84-1.95-1.65-2.72-2.39-.63-.6-1.62-.57-2.18.09-1.05,1.2-2.03,2.42-3.02,3.65-1.71-.9-3.44-1.74-5.24-2.45-.93-.39-1.92.33-1.83,1.32.15,1.71.39,4.01.75,5.36.84.36,1.65.75,2.42,1.17,1.95.99,3.83,2.12,5.66,3.35,1.92,1.2,3.65,2.54,5.33,4.01"/><path class="cls-2" d="m55.73,133.84c-1.23-.75-3.17-1.95-4.4-2.57l-.15-.06c-.06.09-.09.15-.15.24-.24.36-.27.84-.09,1.23.9,2.12,2.06,4.13,3.47,5.96.57-.99,1.14-2.01,1.74-2.96.39-.66.21-1.47-.42-1.83Z"/><path class="cls-6" d="m61.59,127.89c-1.83-1.26-3.71-2.39-5.66-3.44-1.71-.9-3.44-1.74-5.24-2.45-.93-.39-1.92.33-1.83,1.32.15,1.71.39,4.01.75,5.36.84.36,1.65.75,2.42,1.17,1.95.99,3.83,2.12,5.66,3.35,1.83,1.23,3.56,2.57,5.21,4.04,1.2-1.83,2.51-3.62,3.86-5.33-1.65-1.41-3.38-2.75-5.18-4.01Z"/><path class="cls-7" d="m80.63,126.96c-1.26,1.08-2.48,2.21-3.65,3.38-.36.36-.75.75-1.11,1.14,1.53,1.62,2.96,3.26,4.31,5,1.5-1.62,3.08-3.14,4.76-4.58-1.35-1.71-2.78-3.35-4.31-4.94Z"/><path class="cls-5" d="m89.66,138.6c-.81.72-1.59,1.44-2.3,2.15-.42.42-1.23,1.29-1.8,1.92-.39.42-.45,1.05-.18,1.56.51.9,1.02,1.8,1.5,2.72,1.68-.75,3.23-1.68,4.7-2.75.54-.39.69-1.11.39-1.68-.72-1.35-1.5-2.63-2.3-3.92Z"/><path class="cls-9" d="m102.11,128.69c.36-1.35.6-3.65.75-5.36.09-.99-.9-1.71-1.83-1.32-1.8.75-3.53,1.56-5.24,2.45,1.35,1.74,2.63,3.53,3.86,5.39.81-.42,1.62-.81,2.45-1.17Z"/><path class="cls-10" d="m58.93,120.82c-1.05,1.2-2.03,2.42-3.02,3.65,1.95,1.05,3.83,2.18,5.66,3.44.78-.99,1.59-1.95,2.42-2.9.48-.57.42-1.41-.15-1.86-1.02-.84-1.95-1.65-2.72-2.39-.63-.63-1.62-.6-2.18.06Z"/></g></svg>