<?xml version="1.0" encoding="UTF-8"?><svg id="Layer_1" xmlns="http://www.w3.org/2000/svg" viewBox="0 0 320 240"><defs><style>.cls-1{fill:#a0a0a0;}.cls-2{fill:#b2b2b2;}.cls-3{fill:#1e1e1e;}</style></defs><path class="cls-3" d="m120.84,107.37c2.28,0,4.31.57,6.1,1.7,1.82,1.1,3.25,2.64,4.29,4.62,1.04,1.98,1.56,4.27,1.56,6.86s-.52,4.85-1.56,6.86c-1.04,1.98-2.45,3.54-4.24,4.67-1.79,1.14-3.79,1.7-6,1.7-1.82,0-3.48-.39-4.97-1.17-1.46-.78-2.62-1.67-3.46-2.68v14.11h-5.07v-36.29h5.07v3.75c.75-1.07,1.87-2.03,3.37-2.87,1.5-.84,3.14-1.26,4.93-1.26Zm-.68,4.62c-1.53,0-2.89.37-4.1,1.12-1.17.75-2.1,1.77-2.78,3.06-.65,1.26-.98,2.72-.98,4.38s.32,3.08.98,4.38c.68,1.3,1.61,2.34,2.78,3.11,1.2.75,2.57,1.12,4.1,1.12s2.88-.37,4.05-1.12c1.17-.78,2.08-1.82,2.73-3.11.68-1.3,1.02-2.76,1.02-4.38s-.34-3.11-1.02-4.38c-.65-1.3-1.56-2.32-2.73-3.06-1.17-.75-2.52-1.12-4.05-1.12Z"/><path class="cls-3" d="m152.58,113.21c-.32-.16-.73-.29-1.22-.39-.46-.13-.94-.19-1.46-.19-1.04,0-2.06.28-3.07.83-1.01.52-1.85,1.28-2.54,2.29-.65.97-.98,2.14-.98,3.5v14.11h-5.07v-25.54h5.07v4.82c.72-1.56,1.79-2.84,3.22-3.84,1.46-1.01,2.99-1.51,4.58-1.51,1.2,0,2.13.16,2.78.49l-1.32,5.45Z"/><path class="cls-3" d="m178.81,130h-.05c-1.04,1.01-2.47,1.9-4.29,2.68-1.82.78-3.72,1.17-5.71,1.17-2.67,0-5.02-.55-7.07-1.65-2.02-1.14-3.59-2.68-4.73-4.62-1.14-1.98-1.71-4.22-1.71-6.71,0-2.85.6-5.29,1.8-7.3,1.2-2.04,2.8-3.6,4.78-4.67,1.98-1.1,4.15-1.65,6.49-1.65,2.15,0,4.1.54,5.85,1.61,1.76,1.04,3.15,2.48,4.19,4.33,1.04,1.85,1.56,4.01,1.56,6.47l-.05,2.14h-19.6c.29,2.3,1.24,4.14,2.83,5.5,1.63,1.33,3.67,1.99,6.14,1.99,1.79,0,3.23-.32,4.34-.97,1.11-.68,2.02-1.33,2.73-1.95l2.49,3.65Zm-10.49-18.15c-1.92,0-3.59.45-5.02,1.36-1.43.88-2.37,2.4-2.83,4.57h14.34v-.34c-.1-1.1-.47-2.08-1.12-2.92-.62-.84-1.4-1.49-2.34-1.95-.94-.49-1.95-.73-3.02-.73Z"/><path class="cls-3" d="m207.38,130h-.05c-1.04,1.01-2.47,1.9-4.29,2.68-1.82.78-3.72,1.17-5.71,1.17-2.67,0-5.02-.55-7.07-1.65-2.02-1.14-3.59-2.68-4.73-4.62-1.14-1.98-1.71-4.22-1.71-6.71,0-2.85.6-5.29,1.8-7.3,1.2-2.04,2.8-3.6,4.78-4.67,1.98-1.1,4.15-1.65,6.49-1.65,2.15,0,4.1.54,5.85,1.61,1.76,1.04,3.15,2.48,4.19,4.33,1.04,1.85,1.56,4.01,1.56,6.47l-.05,2.14h-19.6c.29,2.3,1.24,4.14,2.83,5.5,1.63,1.33,3.67,1.99,6.14,1.99,1.79,0,3.23-.32,4.34-.97,1.11-.68,2.02-1.33,2.73-1.95l2.49,3.65Zm-10.49-18.15c-1.92,0-3.59.45-5.02,1.36-1.43.88-2.37,2.4-2.83,4.57h14.34v-.34c-.1-1.1-.47-2.08-1.12-2.92-.62-.84-1.4-1.49-2.34-1.95-.94-.49-1.95-.73-3.02-.73Z"/><path class="cls-3" d="m231.86,129.02v4.33h-18.97v-4.18l12.78-17.03h-12.78v-4.33h18.68v4.09l-12.83,17.13h13.12Z"/><path class="cls-3" d="m240.95,102.27c-1.14,0-1.98-.29-2.53-.88-.55-.58-.83-1.35-.83-2.29,0-.81.28-1.54.83-2.19.55-.65,1.4-.97,2.53-.97s1.98.29,2.54.88c.55.58.83,1.35.83,2.29,0,.81-.28,1.54-.83,2.19-.55.65-1.4.97-2.54.97Zm2.59,31.09h-5.02v-25.54h5.02v25.54Z"/><path class="cls-3" d="m273.15,130h-.05c-1.04,1.01-2.47,1.9-4.29,2.68-1.82.78-3.72,1.17-5.71,1.17-2.67,0-5.02-.55-7.07-1.65-2.02-1.14-3.59-2.68-4.73-4.62-1.14-1.98-1.71-4.22-1.71-6.71,0-2.85.6-5.29,1.8-7.3,1.2-2.04,2.8-3.6,4.78-4.67,1.98-1.1,4.14-1.65,6.49-1.65,2.15,0,4.1.54,5.85,1.61,1.75,1.04,3.15,2.48,4.19,4.33,1.04,1.85,1.56,4.01,1.56,6.47l-.05,2.14h-19.6c.29,2.3,1.24,4.14,2.83,5.5,1.63,1.33,3.67,1.99,6.15,1.99,1.79,0,3.23-.32,4.34-.97,1.11-.68,2.02-1.33,2.73-1.95l2.49,3.65Zm-10.49-18.15c-1.92,0-3.59.45-5.02,1.36-1.43.88-2.37,2.4-2.83,4.57h14.34v-.34c-.1-1.1-.47-2.08-1.12-2.92-.62-.84-1.4-1.49-2.34-1.95-.94-.49-1.95-.73-3.02-.73Z"/><path class="cls-2" d="m86.33,129.44c-1-6.15-3.82-12.47-8.87-17.52-4.91-4.91-11.01-7.58-16.99-8.5l-10.26,2.73c-6.21,1.65-5.89,10.56.42,11.77l11.64,2.22c3.74.71,6.67,3.64,7.38,7.38l2.22,11.64c1.21,6.31,10.12,6.63,11.77.42l2.69-10.13Z"/><path class="cls-1" d="m68.72,124.88c-1.3-2.44-3.65-4.22-6.45-4.75l-.39-.07c5.68-.07,11.26,1.98,15.46,6.18,3.8,3.8,5.84,8.73,6.15,13.85-1.99,5.67-10.44,5.19-11.61-.93l-2.22-11.64c-.02-.11-.04-.22-.07-.34-.19-.81-.48-1.58-.86-2.3Z"/><path class="cls-2" d="m88.25,120.59c.09.2.38.18.44-.03l4.98-18.77c.92-3.45-2.24-6.6-5.68-5.68l-18.66,4.96c-.21.06-.24.35-.03.44,3.85,1.66,7.87,3.92,11.26,7.31,3.54,3.54,5.91,7.77,7.69,11.78Z"/></svg>