<?xml version="1.0" encoding="UTF-8"?><svg id="Layer_1" xmlns="http://www.w3.org/2000/svg" viewBox="0 0 320 240"><defs><style>.cls-1{fill:none;}.cls-1,.cls-2,.cls-3{stroke-width:0px;}.cls-2{fill:#10536f;}.cls-3{fill:#ba2f0b;}</style></defs><path class="cls-1" d="m133.83,109.85h-3.94v6.16h3.94c1,0,1.77-.25,2.33-.75.55-.5.83-1.29.83-2.38s-.28-1.86-.83-2.33c-.55-.46-1.33-.7-2.33-.7Z"/><path class="cls-1" d="m215.48,114.59c-1.04,0-1.84.29-2.41.88s-.93,1.39-1.08,2.39h6.96c-.07-1.07-.43-1.89-1.08-2.44s-1.44-.83-2.4-.83Z"/><path class="cls-1" d="m180.78,114.86c-1.48,0-2.5.7-3.05,2.09-.29.74-.43,1.67-.43,2.81,0,1.8.48,3.06,1.45,3.79.57.43,1.25.64,2.04.64,1.14,0,2-.44,2.6-1.31.6-.87.9-2.03.9-3.47,0-1.19-.27-2.25-.82-3.16-.55-.92-1.44-1.38-2.67-1.38Z"/><path class="cls-1" d="m162.74,114.59c-1.18,0-2.09.42-2.73,1.25-.64.84-.96,2.03-.96,3.58s.32,2.74.96,3.58c.64.84,1.55,1.26,2.73,1.26s2.09-.42,2.72-1.26c.63-.84.95-2.04.95-3.58s-.32-2.74-.95-3.58c-.63-.83-1.54-1.25-2.72-1.25Z"/><path class="cls-3" d="m86.08,118.62c-.06-.09-.19-.13-.37-.13-1.13,0-4.46,1.63-8.14,4.03-4.28,2.8-7.41,5.58-6.99,6.23.06.09.19.13.37.13,1.13,0,4.46-1.63,8.14-4.03,4.28-2.8,7.41-5.58,6.99-6.23Z"/><path class="cls-3" d="m90.45,115.46c.05.06.14.09.26.09.99,0,4.17-2.14,7.61-5.17,3.83-3.39,6.52-6.6,6.01-7.17-.05-.06-.14-.09-.26-.09-.99,0-4.18,2.14-7.61,5.17-3.83,3.39-6.52,6.6-6.01,7.17Z"/><path class="cls-3" d="m85.59,108.62c-.51,1.34-.56,2.37-.03,2.83.2.17.46.25.78.25,1.62,0,4.66-2.12,7.47-5.33,3.37-3.85,5.13-7.82,3.93-8.87-.2-.17-.46-.25-.78-.25-.84,0-2.06.57-3.43,1.57-.03,1.96-.75,4.01-2.05,5.79-1.55,2.13-3.72,3.57-5.9,4.01Z"/><path class="cls-3" d="m85.74,103.59c-.82.97-1.89,1.68-3.1,2.08-.12.38-.29.76-.5,1.12.12.21.21.43.29.66.57.24,1.18.37,1.83.37,2.21,0,4.71-1.37,6.45-3.76,2.51-3.46,2.49-7.75-.04-9.59-.78-.56-1.7-.83-2.68-.83-.79,0-1.61.18-2.42.51,2.24,2.86,2.41,6.8.17,9.45Z"/><path class="cls-3" d="m78.97,91.84c-1.35,0-2.65.4-3.71,1.19.9.09,1.79.29,2.68.61,4.5,1.62,7.18,5.67,5.98,9.02-.23.65-.6,1.22-1.06,1.72,0,.05,0,.09,0,.14.81-.35,1.54-.88,2.14-1.58,2.25-2.66,1.68-6.84-1.27-9.33-1.41-1.19-3.11-1.78-4.74-1.78Z"/><path class="cls-3" d="m73.16,97.8h.24c4.67,0,8.46,2.21,9.29,5.2.12-.21.23-.43.31-.66,1.03-2.86-1.39-6.35-5.4-7.79-1.17-.42-2.35-.62-3.45-.62-2.68,0-4.93,1.17-5.66,3.2-.19.53-.26,1.09-.23,1.65,1.46-.61,3.13-.96,4.88-.98Z"/><path class="cls-3" d="m64.69,104.45c.01.88.36,1.71.95,2.44,1.49-1.4,3.56-2.46,5.87-3.02,1.14-.27,2.28-.41,3.4-.41h0c2.87,0,5.22.91,6.57,2.41.26-.53.39-1.1.38-1.69-.05-2.99-3.82-5.37-8.46-5.37-.07,0-.15,0-.22,0-4.74.08-8.54,2.6-8.49,5.64Z"/><path class="cls-3" d="m68.54,115.64c1.32-.9,2.94-1.77,4.71-2.5,2.81-1.17,5.58-1.84,7.59-1.84.05,0,.09,0,.14,0,.62-1.02.87-2.1.62-3.14-.55-2.28-3.3-3.68-6.7-3.68-1.01,0-2.07.12-3.16.38-4.73,1.14-7.99,4.45-7.28,7.41.4,1.65,1.96,2.83,4.07,3.36Z"/><path class="cls-3" d="m83.19,112.93c-.25-.59-1.1-.88-2.35-.88-1.83,0-4.49.62-7.3,1.78-4.72,1.96-8.06,4.74-7.45,6.2.25.59,1.1.88,2.35.88,1.83,0,4.49-.62,7.3-1.78,4.72-1.96,8.06-4.74,7.45-6.2Z"/><path class="cls-3" d="m90.63,123.38c-.05-.07-.15-.1-.27-.1-1.02,0-4.24,2.04-7.73,4.95-3.93,3.27-6.72,6.4-6.22,7,.05.07.15.1.27.1,1.02,0,4.24-2.04,7.73-4.95,3.93-3.27,6.72-6.4,6.22-7Z"/><path class="cls-3" d="m94.94,120.13c.06.1.2.15.4.15,1.17,0,4.51-1.52,8.22-3.79,4.36-2.67,7.57-5.36,7.17-6.02-.06-.1-.2-.15-.4-.15-1.17,0-4.51,1.52-8.22,3.79-4.36,2.67-7.57,5.36-7.17,6.02Z"/><path class="cls-3" d="m100.05,126.78c1.03-1.91,3.01-3.58,5.56-4.46,1.18-.41,2.39-.61,3.58-.61.91,0,1.76.13,2.55.36,1.87-1.41,2.88-2.78,2.5-3.65-.25-.55-1.03-.82-2.17-.82-1.83,0-4.58.69-7.46,1.98-4.67,2.09-7.93,4.95-7.28,6.4.25.55,1.03.82,2.17.82.17,0,.36-.01.55-.02Z"/><path class="cls-3" d="m115.07,126.09c-.74-2.15-3.1-3.41-5.88-3.41-1.05,0-2.16.18-3.27.56-3.6,1.24-5.94,4.17-5.69,6.89.2.15.4.32.57.5.4-.1.8-.15,1.2-.16.73-1.04,1.72-1.85,2.89-2.35.84-.36,1.73-.54,2.65-.54,2.51,0,4.85,1.34,6.33,3.49,1.25-1.53,1.76-3.34,1.19-4.98Z"/><path class="cls-3" d="m113.83,132.98c-1.17-2.74-3.71-4.42-6.28-4.42-.76,0-1.53.15-2.26.46-.85.36-1.56.91-2.14,1.58.04.01.08.02.13.03.62-.3,1.28-.48,1.97-.51.08,0,.15,0,.23,0,3.5,0,6.42,3.68,6.64,8.37.04.94-.03,1.87-.21,2.75,2.38-1.73,3.25-5.16,1.93-8.26Z"/><path class="cls-3" d="m111.15,138.54c-.2-4.16-2.72-7.45-5.68-7.45-.06,0-.12,0-.18,0-.24.01-.48.05-.72.11,2.68,1.7,3.65,6.08,2.17,10.64-.55,1.7-1.38,3.19-2.36,4.38.47.18.95.28,1.45.28.06,0,.12,0,.18,0,3.04-.14,5.34-3.7,5.14-7.95Z"/><path class="cls-3" d="m105.78,141.53c1.47-4.51.31-8.93-2.58-9.87-.37-.12-.75-.18-1.13-.18-.19,0-.39.02-.58.05,1.46,2.45,1.15,6.41-1.03,10.11-1.24,2.09-2.88,3.73-4.61,4.73.53.78,1.21,1.35,2.05,1.62.37.12.75.18,1.13.18,2.63,0,5.48-2.7,6.76-6.64Z"/><path class="cls-3" d="m99.57,141.11c2.47-4.19,2.36-8.84-.26-10.39-.58-.34-1.23-.5-1.92-.5-.41,0-.83.08-1.26.18-.59,2.05-2.19,4.63-4.03,6.84-1.12,1.35-2.46,2.7-3.78,3.77-.12,2.18.56,4.02,2.03,4.88.58.34,1.23.5,1.92.5,2.44,0,5.37-2.02,7.3-5.29Z"/><path class="cls-3" d="m91.53,136.77c3.26-3.94,4.92-7.95,3.7-8.96-.19-.16-.44-.23-.74-.23-1.61,0-4.63,2.21-7.38,5.53-3.26,3.94-4.92,7.95-3.7,8.96.19.16.44.23.74.23,1.61,0,4.63-2.21,7.38-5.53Z"/><path class="cls-2" d="m139.48,107.83c-1.23-1.08-2.88-1.62-4.95-1.62h-8.98v20.91h4.34v-7.52h4.35c2.27,0,4.02-.51,5.24-1.53s1.84-2.77,1.84-5.23c0-2.26-.62-3.93-1.85-5.01Zm-3.33,7.42c-.55.5-1.33.75-2.33.75h-3.94v-6.16h3.94c1,0,1.77.23,2.33.7.55.46.83,1.24.83,2.33s-.28,1.88-.83,2.38Z"/><path class="cls-2" d="m152.9,111.3c-1.21,0-2.19.32-2.95.95-.46.38-1.01,1.08-1.63,2.11v-2.7h-3.86v15.46h4.07v-7.39c0-1.24.16-2.16.47-2.75.56-1.06,1.65-1.59,3.28-1.59.12,0,.28,0,.48.01.2,0,.42.03.68.06v-4.14c-.18,0-.3-.02-.35-.02s-.12,0-.19,0Z"/><path class="cls-2" d="m162.76,111.17c-2.66,0-4.64.82-5.94,2.45-1.3,1.63-1.96,3.57-1.96,5.8s.65,4.21,1.96,5.82c1.31,1.61,3.29,2.42,5.94,2.42s4.64-.8,5.94-2.42c1.3-1.61,1.96-3.55,1.96-5.82s-.65-4.16-1.96-5.8c-1.31-1.63-3.29-2.45-5.94-2.45Zm2.71,11.83c-.63.84-1.54,1.26-2.72,1.26s-2.09-.42-2.73-1.26c-.64-.84-.96-2.04-.96-3.58s.32-2.74.96-3.58c.64-.83,1.55-1.25,2.73-1.25s2.09.42,2.72,1.25c.63.84.95,2.03.95,3.58s-.32,2.74-.95,3.58Z"/><path class="cls-2" d="m181.94,111.32c-1.25,0-2.32.34-3.23,1.04-.5.39-.96.92-1.4,1.59v-2.28h-3.87v21.55h4v-8.06c.43.65.87,1.15,1.31,1.49.82.61,1.85.92,3.08.92,1.94,0,3.53-.71,4.76-2.14s1.85-3.5,1.85-6.23c0-2.58-.63-4.54-1.89-5.87-1.26-1.33-2.8-2-4.62-2Zm1.44,11.55c-.6.87-1.46,1.31-2.6,1.31-.78,0-1.46-.21-2.04-.64-.96-.73-1.45-1.99-1.45-3.79,0-1.13.14-2.07.43-2.81.55-1.39,1.57-2.09,3.05-2.09,1.23,0,2.12.46,2.67,1.38.55.92.82,1.97.82,3.16,0,1.45-.3,2.61-.9,3.47Z"/><path class="cls-2" d="m204.32,113.27c-.5-.68-1.14-1.19-1.91-1.52-.78-.33-1.64-.5-2.59-.5-.85,0-1.65.18-2.42.53s-1.44.98-2.03,1.88v-7.38h-4.04v20.84h4.04v-8.38c0-1.33.27-2.34.82-3.06.55-.71,1.35-1.07,2.42-1.07s1.72.36,2.08,1.08c.28.51.42,1.18.42,2.02v9.42h4.13v-9.09c0-1.38-.05-2.38-.14-2.99-.09-.61-.35-1.2-.78-1.78Z"/><path class="cls-2" d="m221.79,114.26c-.7-1.04-1.59-1.8-2.67-2.29s-2.29-.72-3.64-.72c-2.27,0-4.11.71-5.53,2.14-1.42,1.43-2.13,3.48-2.13,6.16,0,2.86.79,4.92,2.36,6.19,1.57,1.27,3.39,1.9,5.45,1.9,2.49,0,4.43-.75,5.82-2.25.89-.95,1.39-1.88,1.5-2.79h-4.13c-.24.45-.52.81-.83,1.06-.58.47-1.32.71-2.24.71-.87,0-1.61-.19-2.23-.58-1.01-.62-1.55-1.71-1.62-3.26h11.26c.02-1.34-.02-2.36-.13-3.07-.19-1.21-.6-2.28-1.23-3.2Zm-9.8,3.6c.15-1.01.51-1.8,1.08-2.39s1.38-.88,2.41-.88c.95,0,1.75.28,2.4.83s1,1.37,1.08,2.44h-6.96Z"/><path class="cls-2" d="m231.75,114.71c.96,0,1.66.31,2.12.94.31.46.51.98.58,1.56h4.14c-.23-2.2-.96-3.74-2.19-4.61s-2.82-1.3-4.76-1.3c-2.28,0-4.07.74-5.37,2.21-1.3,1.47-1.95,3.54-1.95,6.19,0,2.35.59,4.26,1.76,5.74,1.17,1.48,3.01,2.21,5.5,2.21s4.37-.88,5.64-2.65c.79-1.1,1.24-2.26,1.33-3.49h-4.13c-.08.81-.33,1.48-.72,1.99-.4.51-1.07.77-2.02.77-1.34,0-2.25-.64-2.73-1.93-.27-.69-.4-1.6-.4-2.73,0-1.19.13-2.14.4-2.86.5-1.35,1.44-2.03,2.8-2.03Z"/><path class="cls-2" d="m250.83,111.66l-3.19,11.41-3.38-11.41h-4.5l5.68,16.14c.03.11-.06.43-.26.94-.2.51-.42.85-.66,1.01-.25.17-.55.28-.91.33-.36.05-.74.06-1.13.04l-.51-.03v3.23c.44.03.76.04.98.05s.51,0,.87,0c1.79,0,2.98-.35,3.58-1.06.6-.71,1.41-2.52,2.43-5.45l5.3-15.21h-4.3Z"/></svg>