<?xml version="1.0" encoding="UTF-8"?><svg id="Layer_1" xmlns="http://www.w3.org/2000/svg" viewBox="0 0 320 240"><defs><style>.cls-1{fill:none;}.cls-2{fill:#949494;}</style></defs><g id="Rufus_Coco"><path d="m41.92,111.05h-.73v3.54c0,.26.11.44.33.55.22.11.6.19,1.13.26.16.02.24.14.24.34,0,.09-.01.19-.03.31-.33-.02-.74-.04-1.23-.06-.49-.02-1.03-.03-1.6-.03-.41,0-.8,0-1.18.03-.38.02-.73.04-1.06.06-.02-.05-.03-.1-.03-.15v-.14c0-.19.06-.3.19-.32.24-.05.43-.09.58-.13.15-.04.26-.08.34-.14.08-.05.13-.11.16-.19.03-.07.04-.17.04-.28v-8.49c0-.23-.08-.39-.25-.49-.16-.1-.48-.18-.94-.24-.06-.02-.1-.06-.14-.1-.03-.05-.05-.12-.05-.24v-.15c0-.06.01-.1.03-.14.32.02.68.04,1.09.06.41.02.78.03,1.11.03h2.56c.6,0,1.14.07,1.61.22.47.15.88.36,1.21.63.33.27.59.59.76.97.18.37.26.79.26,1.24,0,.6-.18,1.14-.55,1.64-.37.49-.87.86-1.52,1.11l2.66,3.88c.2.29.44.5.7.61.27.11.51.2.74.25.06.01.1.04.14.08.03.04.05.11.05.21v.15c0,.06-.01.11-.03.17-.12-.01-.3-.02-.53-.03-.23,0-.46-.01-.7-.03-.24-.01-.49-.02-.73-.03-.24,0-.44,0-.6,0-.24,0-.47-.1-.71-.3-.24-.2-.47-.46-.7-.79l-2.63-3.88Zm-.22-.85c.35,0,.67-.03.95-.1.28-.07.53-.18.73-.35.2-.16.36-.38.47-.65.11-.27.16-.62.16-1.03,0-.7-.17-1.25-.51-1.66-.34-.41-.94-.61-1.8-.61h-.51v4.41h.51Z"/><path d="m69.44,111.78c0,.64-.07,1.24-.2,1.77-.14.54-.37,1-.7,1.39-.33.39-.78.69-1.34.91-.56.21-1.26.32-2.11.32-1.01,0-1.82-.11-2.43-.34s-1.09-.53-1.42-.92c-.33-.39-.56-.85-.67-1.37-.11-.53-.17-1.09-.17-1.69v-5.63c0-.24-.07-.4-.22-.5-.15-.1-.45-.17-.9-.23-.12-.02-.19-.13-.19-.32v-.14c0-.06.01-.11.03-.17.33.02.68.04,1.04.06.37.02.81.03,1.31.03.4,0,.81,0,1.24-.03.43-.02.81-.04,1.15-.06.01.06.02.11.03.17,0,.06,0,.1,0,.14,0,.19-.06.3-.19.32-.46.06-.78.14-.94.24-.16.1-.25.27-.25.49v5.26c0,1.18.22,2.07.65,2.68.43.61,1.18.92,2.25.92s1.86-.29,2.31-.86c.46-.57.69-1.5.69-2.79v-5.2c0-.23-.08-.39-.24-.49-.16-.1-.46-.18-.9-.24-.14-.03-.2-.14-.2-.32,0-.03,0-.08,0-.14,0-.06.01-.11.03-.17.33.03.63.06.91.07.28.01.57.02.89.02.36,0,.68,0,.97-.02.28-.01.56-.03.83-.07.01.06.02.11.03.17,0,.06,0,.1,0,.14,0,.18-.07.29-.2.32-.42.05-.71.12-.86.23-.16.11-.24.27-.24.5v5.56Z"/><path d="m84.29,106.22c0-.1-.01-.19-.04-.26-.03-.07-.09-.14-.18-.19-.09-.06-.21-.1-.37-.14-.16-.04-.36-.08-.61-.13-.11-.03-.17-.14-.17-.31v-.16c0-.05.01-.1.03-.16.49.03.92.06,1.29.07.37.01.69.02.95.02h3.48c.52,0,.96-.02,1.33-.05.37-.03.61-.05.74-.05s.21.05.27.15c.03.09.06.26.08.5.02.24.06.49.12.75.03.19.07.38.12.56.05.18.11.4.2.66-.05.02-.1.05-.18.07-.07.02-.14.03-.21.03-.12,0-.21-.05-.25-.15-.14-.29-.27-.55-.4-.75-.13-.21-.28-.38-.44-.51-.16-.13-.36-.22-.58-.28-.22-.06-.49-.08-.81-.08h-2.24v4.29h2.34c.19,0,.33-.09.42-.28.08-.19.16-.47.21-.84.03-.15.14-.22.32-.22.03,0,.09,0,.16,0,.07,0,.13.01.16.03-.02.26-.04.56-.06.91-.02.35-.03.64-.03.87,0,.2,0,.44.02.72.01.28.03.59.07.94-.03.02-.08.04-.15.04-.07,0-.12,0-.15,0-.19,0-.31-.08-.34-.24-.05-.36-.11-.64-.2-.82-.09-.19-.23-.28-.42-.28h-2.34v3.8c0,.11.04.21.12.28.08.07.19.14.32.19.14.05.29.09.47.12.18.03.37.06.58.09.14.01.2.11.2.29,0,.03,0,.09,0,.17,0,.08-.01.14-.03.19-.16,0-.32,0-.47,0-.16,0-.32-.01-.47-.03-.29-.02-.61-.04-.94-.04-.33,0-.66,0-.99,0-.16,0-.33,0-.52,0-.19,0-.38.01-.58.03-.2.01-.4.02-.6.03-.2,0-.38.01-.55.03-.02-.05-.03-.1-.03-.18v-.16c0-.17.06-.26.17-.27.37-.09.67-.18.88-.26.21-.08.32-.24.32-.47v-8.49Z"/><path d="m113.81,111.78c0,.64-.07,1.24-.2,1.77-.14.54-.37,1-.7,1.39-.33.39-.78.69-1.34.91-.56.21-1.26.32-2.11.32-1.01,0-1.82-.11-2.43-.34-.62-.23-1.09-.53-1.42-.92-.33-.39-.56-.85-.67-1.37-.11-.53-.17-1.09-.17-1.69v-5.63c0-.24-.07-.4-.22-.5-.15-.1-.45-.17-.9-.23-.12-.02-.19-.13-.19-.32v-.14c0-.06.01-.11.03-.17.33.02.68.04,1.04.06.37.02.81.03,1.31.03.4,0,.81,0,1.24-.03.43-.02.81-.04,1.15-.06.01.06.02.11.03.17,0,.06,0,.1,0,.14,0,.19-.06.3-.19.32-.46.06-.78.14-.94.24-.16.1-.25.27-.25.49v5.26c0,1.18.22,2.07.65,2.68.43.61,1.18.92,2.25.92s1.86-.29,2.31-.86c.46-.57.69-1.5.69-2.79v-5.2c0-.23-.08-.39-.24-.49-.16-.1-.46-.18-.9-.24-.14-.03-.2-.14-.2-.32,0-.03,0-.08,0-.14,0-.06.01-.11.03-.17.33.03.63.06.91.07.28.01.57.02.89.02.36,0,.68,0,.97-.02.28-.01.56-.03.83-.07.01.06.02.11.03.17,0,.06,0,.1,0,.14,0,.18-.07.29-.2.32-.42.05-.71.12-.86.23-.16.11-.24.27-.24.5v5.56Z"/><path d="m134.03,107.69c-.1.03-.21.05-.32.05-.16,0-.27-.03-.34-.09-.07-.06-.11-.13-.14-.19-.26-.64-.6-1.11-1.01-1.39-.41-.28-.96-.42-1.65-.42-.54,0-1,.13-1.38.4-.38.27-.57.67-.57,1.21,0,.42.14.75.43,1.01.29.25.65.48,1.08.67.43.19.9.38,1.41.56.5.18.97.41,1.41.68.43.27.8.62,1.09,1.03.29.42.43.96.43,1.61,0,.43-.07.85-.22,1.25-.15.41-.38.77-.7,1.08-.32.31-.72.56-1.2.75-.49.19-1.07.28-1.75.28-.75,0-1.41-.08-2-.24-.59-.16-1.07-.34-1.46-.52-.03-.48-.09-.96-.16-1.43-.07-.47-.16-.92-.25-1.36.11-.04.24-.07.39-.07.14,0,.24.03.31.08.07.05.12.14.17.26.15.43.31.8.49,1.11.18.31.39.57.63.76.24.2.51.34.82.43.31.09.67.14,1.08.14.35,0,.65-.05.9-.14.25-.1.45-.22.61-.38.16-.16.28-.35.36-.56.08-.22.12-.44.12-.66,0-.49-.14-.87-.42-1.15-.28-.28-.62-.51-1.03-.7-.41-.19-.86-.36-1.34-.53-.48-.16-.93-.37-1.34-.63-.41-.25-.76-.58-1.03-.98-.28-.4-.42-.94-.42-1.62,0-.45.08-.87.25-1.27.16-.39.4-.73.72-1.02.32-.29.7-.52,1.14-.69.45-.17.96-.25,1.53-.25.47,0,.95.05,1.43.15.48.1,1.03.27,1.64.51.02.34.06.72.11,1.14.05.42.11.81.18,1.14Z"/><path d="m203.19,116.17c-.95,0-1.78-.15-2.49-.44-.71-.29-1.3-.7-1.76-1.21-.46-.51-.81-1.12-1.04-1.81-.23-.7-.35-1.44-.35-2.25,0-.67.11-1.34.34-2.02.23-.68.58-1.29,1.07-1.84.49-.55,1.11-.99,1.86-1.34.76-.34,1.66-.52,2.71-.52.58,0,1.12.04,1.62.12.5.08,1.05.2,1.64.36.02.31.07.7.14,1.17.07.47.16.94.29,1.39-.06.01-.13.03-.22.04-.09.02-.16.03-.2.03-.09,0-.17-.01-.23-.04-.06-.03-.1-.09-.13-.18-.12-.37-.27-.69-.42-.94-.16-.25-.35-.46-.57-.61-.22-.15-.48-.26-.77-.33-.29-.07-.64-.1-1.03-.1-.61,0-1.15.1-1.62.31-.47.21-.86.51-1.18.9-.32.39-.56.86-.72,1.41-.16.55-.25,1.17-.25,1.86,0,.73.1,1.42.3,2.05.2.63.47,1.18.81,1.64.34.46.75.83,1.23,1.08.47.26.99.39,1.54.39.45,0,.84-.04,1.16-.13.32-.08.6-.21.83-.39.23-.18.43-.4.59-.67.16-.27.31-.59.45-.95.03-.09.09-.16.16-.19.07-.04.15-.06.23-.06.06,0,.13,0,.21.03.08.02.16.04.21.06-.07.19-.14.41-.21.65-.07.24-.15.49-.23.75-.08.25-.15.51-.21.76-.06.25-.12.5-.16.74-.55.1-1.12.18-1.7.22-.58.05-1.21.07-1.9.07Z"/><path d="m221.24,110.45c0-.79.15-1.53.45-2.22.3-.69.71-1.29,1.23-1.81.52-.52,1.13-.93,1.82-1.23.7-.3,1.44-.45,2.23-.45s1.57.14,2.27.42c.7.28,1.31.68,1.82,1.19.51.51.92,1.11,1.21,1.81.29.7.44,1.46.44,2.29s-.15,1.53-.45,2.23c-.3.7-.71,1.3-1.23,1.81-.52.51-1.13.92-1.83,1.22-.7.3-1.45.45-2.24.45s-1.57-.14-2.27-.42c-.7-.28-1.3-.68-1.81-1.19-.51-.51-.91-1.11-1.2-1.81-.29-.7-.44-1.46-.44-2.3Zm5.98,4.83c.48,0,.9-.1,1.29-.31.38-.21.71-.49.99-.86.28-.36.49-.79.64-1.27.15-.49.23-1.01.23-1.56,0-.8-.08-1.55-.23-2.24-.15-.69-.38-1.29-.7-1.79-.31-.5-.7-.9-1.17-1.19-.47-.29-1.01-.43-1.64-.43-.4,0-.78.09-1.15.26-.37.18-.7.43-.98.76-.28.33-.51.74-.68,1.21-.17.47-.25,1.01-.25,1.61,0,.84.08,1.61.25,2.32.16.71.4,1.33.71,1.84.31.51.69.92,1.14,1.2s.97.43,1.54.43Z"/><path d="m252.45,116.17c-.95,0-1.78-.15-2.49-.44-.71-.29-1.3-.7-1.76-1.21-.46-.51-.81-1.12-1.04-1.81-.23-.7-.35-1.44-.35-2.25,0-.67.11-1.34.34-2.02.23-.68.58-1.29,1.07-1.84.49-.55,1.11-.99,1.86-1.34.76-.34,1.66-.52,2.71-.52.58,0,1.12.04,1.62.12.5.08,1.05.2,1.64.36.02.31.07.7.14,1.17.07.47.16.94.29,1.39-.06.01-.13.03-.22.04-.09.02-.16.03-.2.03-.09,0-.17-.01-.23-.04-.06-.03-.1-.09-.13-.18-.12-.37-.27-.69-.42-.94-.16-.25-.35-.46-.57-.61-.22-.15-.48-.26-.77-.33-.29-.07-.64-.1-1.03-.1-.61,0-1.15.1-1.62.31-.47.21-.86.51-1.18.9-.32.39-.56.86-.72,1.41-.16.55-.25,1.17-.25,1.86,0,.73.1,1.42.3,2.05.2.63.47,1.18.81,1.64.34.46.75.83,1.23,1.08.47.26.99.39,1.54.39.45,0,.84-.04,1.16-.13.32-.08.6-.21.83-.39.23-.18.43-.4.59-.67.16-.27.31-.59.45-.95.03-.09.09-.16.16-.19.07-.04.15-.06.23-.06.06,0,.13,0,.21.03.08.02.16.04.21.06-.07.19-.14.41-.21.65-.07.24-.15.49-.23.75-.08.25-.15.51-.21.76-.06.25-.12.5-.16.74-.55.1-1.12.18-1.7.22-.58.05-1.21.07-1.9.07Z"/><path d="m270.51,110.45c0-.79.15-1.53.45-2.22.3-.69.71-1.29,1.23-1.81.52-.52,1.13-.93,1.82-1.23.7-.3,1.44-.45,2.23-.45s1.57.14,2.27.42c.7.28,1.31.68,1.82,1.19.51.51.92,1.11,1.21,1.81.29.7.44,1.46.44,2.29s-.15,1.53-.45,2.23c-.3.7-.71,1.3-1.23,1.81-.52.51-1.13.92-1.83,1.22-.7.3-1.45.45-2.24.45s-1.57-.14-2.27-.42c-.7-.28-1.31-.68-1.81-1.19-.51-.51-.91-1.11-1.2-1.81-.29-.7-.44-1.46-.44-2.3Zm5.98,4.83c.47,0,.9-.1,1.29-.31.38-.21.71-.49.99-.86.28-.36.49-.79.64-1.27.15-.49.23-1.01.23-1.56,0-.8-.08-1.55-.23-2.24-.15-.69-.38-1.29-.69-1.79-.31-.5-.7-.9-1.17-1.19-.47-.29-1.01-.43-1.64-.43-.4,0-.78.09-1.15.26-.37.18-.7.43-.98.76-.28.33-.51.74-.68,1.21-.17.47-.25,1.01-.25,1.61,0,.84.08,1.61.25,2.32.16.71.4,1.33.71,1.84.31.51.69.92,1.14,1.2.45.29.97.43,1.54.43Z"/><path d="m110.12,138.74c.07-.02.12-.03.17-.03.11,0,.19.07.24.22l2.87,8.22,2.41-6.88c.02-.07.04-.13.05-.19.01-.06.02-.11.02-.15,0-.16-.08-.28-.25-.36-.16-.08-.43-.14-.79-.19-.12-.01-.19-.11-.19-.29,0-.09.01-.18.03-.27.29.02.6.04.92.06.32.02.61.03.86.03.27,0,.56,0,.87-.03.31-.02.56-.04.74-.06,0,.03,0,.08.02.14.01.06.02.1.02.14,0,.18-.07.28-.2.31-.34.05-.6.11-.77.19-.18.08-.3.23-.38.45l-3.58,10.05c-.07.02-.13.03-.19.03-.14,0-.24-.1-.31-.3l-2.83-7.98-2.88,8.26s-.1.03-.17.03c-.14,0-.24-.1-.31-.3l-3.64-9.87c-.06-.16-.16-.28-.31-.36-.15-.08-.43-.15-.84-.2-.12-.03-.19-.14-.19-.32,0-.06.01-.14.03-.25.16.01.33.02.52.03.19.01.37.02.56.03.19,0,.37.01.54.02.18,0,.33,0,.47,0,.28,0,.62,0,1.03-.03.4-.02.78-.04,1.13-.06.02.11.03.2.03.27,0,.17-.06.27-.19.29-.33.03-.58.09-.76.18-.18.08-.27.21-.27.38,0,.07.02.14.05.2l2.56,7,2.92-8.41Z"/><path d="m123.1,148.36c.08-.08.16-.12.25-.12.11,0,.22.1.32.29-.15.2-.32.4-.51.59-.19.19-.42.36-.69.52-.27.15-.57.27-.91.36-.34.09-.73.14-1.17.14s-.88-.07-1.29-.22c-.41-.15-.77-.37-1.08-.68-.31-.31-.56-.68-.75-1.14-.19-.45-.28-.98-.28-1.59,0-.58.11-1.11.33-1.59.22-.49.51-.9.86-1.25.35-.34.74-.61,1.16-.81.42-.19.83-.29,1.23-.29,1.05,0,1.82.31,2.3.92.48.61.72,1.41.72,2.39,0,.07-.03.1-.1.1l-4.9.22c0,.44.06.85.19,1.22.12.37.3.7.52.97.23.27.5.48.82.64.32.15.68.23,1.09.23.36,0,.71-.09,1.04-.25.33-.17.61-.38.84-.64Zm-2.74-5.17c-.56,0-1,.22-1.32.66-.31.44-.47,1.02-.47,1.73l3.19-.15c.17,0,.25-.07.25-.22,0-.21-.03-.44-.1-.68-.07-.24-.17-.45-.3-.65-.14-.2-.31-.36-.51-.49-.21-.13-.45-.19-.73-.19Z"/><path d="m128.37,150.02c-.29-.02-.59-.04-.9-.06-.31-.02-.61-.03-.92-.03s-.62,0-.95.03c-.32.02-.63.04-.91.06-.02-.11-.03-.2-.03-.27,0-.11.05-.18.15-.2.25-.05.48-.11.7-.19.21-.09.32-.22.32-.4v-9.12c0-.36-.07-.61-.21-.74-.14-.13-.41-.21-.81-.25-.15-.02-.22-.1-.22-.24,0-.07.01-.15.03-.24.15,0,.35,0,.61-.03.26-.02.5-.04.71-.06.26-.03.5-.08.7-.14.21-.06.35-.08.45-.08.1,0,.17.02.21.07.03.05.05.11.05.19,0,.19-.02.42-.05.67-.03.25-.05.55-.05.89v9.07c0,.18.1.31.31.4.21.08.44.15.7.19.09.02.14.09.14.2,0,.07-.01.16-.03.27Z"/><path d="m132.95,150.02c-.29-.02-.59-.04-.9-.06-.31-.02-.61-.03-.92-.03s-.62,0-.95.03c-.32.02-.63.04-.91.06-.02-.11-.03-.2-.03-.27,0-.11.05-.18.15-.2.25-.05.48-.11.7-.19.21-.09.32-.22.32-.4v-9.12c0-.36-.07-.61-.21-.74-.14-.13-.41-.21-.81-.25-.15-.02-.22-.1-.22-.24,0-.07.01-.15.03-.24.15,0,.35,0,.61-.03.26-.02.5-.04.71-.06.26-.03.5-.08.7-.14.21-.06.35-.08.45-.08.1,0,.17.02.21.07.03.05.05.11.05.19,0,.19-.02.42-.05.67-.03.25-.05.55-.05.89v9.07c0,.18.1.31.31.4.21.08.44.15.7.19.09.02.14.09.14.2,0,.07-.01.16-.03.27Z"/><path d="m143.07,144.05c.36.05.72.13,1.08.25.36.12.69.29.98.5.29.21.53.48.71.81.18.32.27.7.27,1.14,0,.5-.09.94-.28,1.34-.19.4-.45.73-.8,1-.34.27-.76.48-1.25.63-.49.15-1.02.22-1.61.22h-2.68c-.19,0-.41,0-.65.02-.24.01-.47.02-.69.03-.25.01-.5.02-.76.03-.01-.02-.02-.06-.02-.1-.01-.02-.02-.05-.02-.08v-.09c0-.16.06-.25.19-.27.44-.09.75-.18.92-.26.17-.08.25-.24.25-.47v-8.63c0-.11-.02-.21-.06-.28-.04-.07-.1-.14-.19-.19-.09-.05-.21-.1-.36-.14-.15-.04-.33-.08-.56-.13-.12-.02-.19-.13-.19-.32,0-.06,0-.1.02-.14,0-.03,0-.07.02-.1.34.02.7.04,1.09.06.39.02.72.03.99.03h2.09c.63,0,1.17.07,1.62.21.45.14.81.34,1.09.58.28.25.49.53.62.86.13.32.19.66.19,1.01,0,.26-.05.51-.15.76-.1.25-.24.48-.42.7-.18.21-.39.41-.64.58-.25.17-.53.3-.83.39v.05Zm-2.49-.22c.99,0,1.71-.18,2.14-.53.43-.35.65-.9.65-1.66,0-.69-.22-1.2-.65-1.53-.44-.33-1.15-.5-2.14-.5h-.25v4.22h.25Zm-.25,4.8c0,.12.04.23.12.31.08.08.18.14.3.19.12.05.25.08.38.09.14.02.27.03.39.03.43,0,.82-.03,1.17-.1.35-.07.65-.19.9-.36.25-.17.44-.4.58-.69.14-.29.2-.65.2-1.09,0-.81-.28-1.43-.84-1.85-.56-.42-1.33-.63-2.3-.63h-.9v4.1Z"/><path d="m152.01,142.59c.33,0,.57.08.73.24.16.16.24.33.24.53,0,.07-.01.13-.03.19-.02.06-.08.12-.16.18-.08.06-.2.14-.36.22-.15.08-.36.19-.64.31-.1-.12-.22-.23-.36-.32-.14-.09-.3-.14-.47-.14-.19,0-.37.05-.53.16-.16.11-.29.25-.41.44-.11.19-.2.4-.26.64-.06.24-.09.49-.09.75v2.92c0,.25.13.43.39.55.26.12.63.21,1.12.28.11.02.17.09.17.2,0,.07-.01.16-.03.27-.12-.01-.28-.02-.47-.03-.19,0-.38-.01-.58-.03-.2-.01-.41-.02-.63-.03-.22,0-.42,0-.6,0-.31,0-.63,0-.96.03-.33.02-.64.04-.93.06-.02-.11-.03-.2-.03-.27,0-.11.05-.18.15-.2.26-.05.49-.11.69-.2.2-.09.3-.22.3-.39v-4.31c0-.24-.01-.43-.04-.59-.03-.16-.08-.29-.14-.38-.07-.1-.17-.17-.3-.21-.13-.05-.3-.08-.5-.1-.15-.02-.22-.1-.22-.22,0-.07.01-.15.03-.24.15,0,.35,0,.62-.03.27-.02.48-.04.65-.06.25-.05.47-.09.66-.14.19-.05.33-.08.42-.08.16,0,.24.08.24.25v1.14c.36-.4.73-.73,1.09-.99.37-.27.78-.4,1.25-.4Z"/><path d="m159.09,148.36c.08-.08.16-.12.25-.12.11,0,.22.1.32.29-.15.2-.32.4-.51.59-.19.19-.42.36-.69.52-.27.15-.57.27-.91.36-.34.09-.73.14-1.17.14s-.88-.07-1.29-.22c-.41-.15-.77-.37-1.08-.68-.31-.31-.56-.68-.75-1.14-.19-.45-.28-.98-.28-1.59,0-.58.11-1.11.33-1.59.22-.49.51-.9.86-1.25.35-.34.74-.61,1.16-.81.42-.19.83-.29,1.23-.29,1.05,0,1.82.31,2.3.92.48.61.72,1.41.72,2.39,0,.07-.03.1-.1.1l-4.9.22c0,.44.06.85.19,1.22.12.37.3.7.52.97.23.27.5.48.82.64.32.15.68.23,1.09.23.36,0,.71-.09,1.04-.25.33-.17.61-.38.84-.64Zm-2.74-5.17c-.56,0-1,.22-1.32.66-.31.44-.47,1.02-.47,1.73l3.19-.15c.17,0,.25-.07.25-.22,0-.21-.03-.44-.1-.68-.07-.24-.17-.45-.3-.65s-.31-.36-.51-.49c-.21-.13-.45-.19-.73-.19Z"/><path d="m167.74,148.42c0,.14.01.25.03.35.02.1.07.18.14.25.07.07.16.12.28.16.12.04.27.07.47.09.15.02.22.1.22.22,0,.07-.01.15-.03.24-.15,0-.34,0-.58.03-.24.02-.45.04-.62.06-.25.05-.47.09-.66.14-.19.05-.33.08-.42.08-.16,0-.24-.09-.24-.25v-1.29c-.16.21-.32.42-.47.62-.16.2-.34.37-.55.53-.21.15-.45.27-.72.36-.27.09-.6.14-.98.14s-.75-.08-1.1-.24c-.35-.16-.66-.39-.93-.7-.27-.31-.49-.69-.65-1.14-.16-.45-.25-.97-.25-1.54,0-.62.12-1.18.36-1.67.24-.49.53-.9.88-1.24.35-.33.73-.59,1.14-.76.41-.17.79-.26,1.14-.26.43,0,.81.04,1.14.13.33.08.66.19.99.33v-3.2c0-.34-.06-.58-.18-.72-.12-.14-.38-.23-.77-.26-.15-.02-.22-.1-.22-.24,0-.07.01-.15.03-.24.15,0,.35,0,.62-.03.27-.02.48-.04.65-.06.26-.03.5-.08.7-.14.21-.06.35-.08.45-.08.16,0,.24.08.24.25,0,.19-.02.41-.05.66-.03.25-.05.55-.05.92v8.53Zm-1.42-4.29c-.28-.29-.59-.53-.93-.7-.34-.17-.72-.25-1.15-.25-.66,0-1.15.27-1.48.81-.33.54-.5,1.24-.5,2.09,0,.43.05.84.14,1.23.1.39.24.73.42,1.03.19.29.41.53.68.7.27.17.56.25.89.25.23,0,.45-.07.68-.2.23-.14.43-.31.62-.52.19-.21.34-.45.46-.71.12-.27.18-.53.18-.79v-2.93Z"/><path d="m176.25,145.15v3.48c0,.26.12.44.37.55.25.11.62.19,1.12.26.14.02.2.12.2.29,0,.08-.01.18-.03.29-.33-.02-.7-.04-1.12-.06-.42-.02-.87-.03-1.36-.03-.29,0-.63,0-1,.03-.37.02-.72.04-1.05.06-.02-.11-.03-.2-.03-.27,0-.16.06-.25.17-.27.45-.09.75-.18.91-.26.15-.08.23-.24.23-.47v-8.63c0-.23-.09-.39-.26-.49-.18-.1-.49-.18-.94-.24-.11-.02-.17-.12-.17-.3,0-.08.01-.16.03-.25.32.02.65.04,1.01.06.36.02.69.03,1.01.03h2.39c1.22,0,2.14.29,2.75.86.61.58.92,1.32.92,2.24,0,.36-.08.73-.25,1.1-.16.37-.4.71-.71,1.01-.31.3-.7.55-1.15.74-.46.19-.97.29-1.55.29h-1.47Zm.9-.7c.79,0,1.4-.17,1.83-.53.43-.35.64-.94.64-1.78,0-.35-.04-.68-.12-.98-.08-.31-.21-.57-.41-.81-.19-.23-.45-.42-.76-.55s-.71-.2-1.19-.2h-.9v4.85h.9Z"/><path d="m187.49,148.36c.08-.08.16-.12.25-.12.11,0,.22.1.32.29-.15.2-.32.4-.51.59-.19.19-.42.36-.69.52-.27.15-.57.27-.91.36-.34.09-.73.14-1.17.14s-.88-.07-1.29-.22c-.41-.15-.77-.37-1.08-.68-.31-.31-.56-.68-.75-1.14s-.28-.98-.28-1.59c0-.58.11-1.11.33-1.59.22-.49.51-.9.86-1.25.35-.34.74-.61,1.16-.81s.83-.29,1.23-.29c1.05,0,1.82.31,2.3.92.48.61.72,1.41.72,2.39,0,.07-.03.1-.1.1l-4.9.22c0,.44.06.85.19,1.22.12.37.3.7.52.97.23.27.5.48.82.64.32.15.68.23,1.09.23.36,0,.71-.09,1.04-.25.33-.17.61-.38.84-.64Zm-2.74-5.17c-.56,0-1,.22-1.32.66-.31.44-.47,1.02-.47,1.73l3.19-.15c.17,0,.25-.07.25-.22,0-.21-.03-.44-.1-.68-.07-.24-.17-.45-.3-.65-.14-.2-.31-.36-.51-.49-.21-.13-.45-.19-.73-.19Z"/><path d="m193.03,148.93c.06-.06.1-.09.14-.1.04-.01.07-.02.09-.02.1,0,.19.07.27.22-.29.33-.61.59-.95.8-.34.2-.7.3-1.08.3-.23,0-.44-.03-.64-.08-.2-.05-.38-.15-.53-.3-.15-.15-.26-.35-.35-.6-.08-.25-.13-.59-.13-.99v-4.68h-1.02v-.19c0-.08.01-.15.04-.22.03-.07.09-.1.18-.1.31,0,.55-.08.75-.24.19-.16.35-.36.47-.61.14-.27.25-.53.36-.76.1-.24.21-.36.34-.36h.31v1.76h1.98c0,.24-.03.41-.08.53-.05.12-.14.18-.28.18h-1.63v4.2c0,.36.02.65.05.87.03.22.08.39.15.51.07.12.15.2.24.23.09.03.19.05.31.05.19,0,.37-.04.53-.13.16-.08.32-.18.47-.3Z"/><path d="m197.29,143.22c-.53,0-.96.23-1.3.7-.33.46-.5,1.09-.5,1.88,0,1.1.25,1.95.74,2.56.49.61,1.14.92,1.96.92.36,0,.66-.06.91-.17.24-.11.46-.23.64-.34.03-.02.07-.05.12-.08.05-.03.09-.04.14-.04.06,0,.12.04.19.12.07.08.11.14.14.19-.11.14-.25.27-.42.41-.17.14-.37.26-.61.38-.24.12-.52.21-.84.29-.32.07-.69.11-1.09.11-.46,0-.9-.08-1.31-.23-.41-.15-.77-.38-1.08-.69-.31-.31-.56-.69-.74-1.14-.18-.46-.27-.99-.27-1.6,0-.58.11-1.1.33-1.59.22-.48.5-.89.85-1.23.34-.34.73-.6,1.15-.8.42-.19.84-.29,1.25-.29s.8.05,1.14.14c.34.09.63.21.86.36.24.15.42.32.55.52.13.2.19.4.19.62,0,.07-.06.12-.17.17-.11.05-.24.08-.38.11s-.28.05-.41.06c-.13.01-.21.02-.23.02-.15,0-.26-.07-.35-.21-.08-.14-.18-.29-.28-.46-.1-.16-.24-.32-.41-.46-.18-.14-.42-.21-.74-.21Z"/><path d="m208.17,149.47c.12,0,.19.12.2.36-.29.2-.67.3-1.12.3-.25,0-.47-.04-.65-.11-.18-.07-.34-.17-.46-.3-.13-.12-.22-.27-.29-.42-.07-.16-.11-.32-.14-.49-.28.51-.62.86-1.01,1.04-.39.19-.84.28-1.35.28-.23,0-.47-.02-.72-.06-.25-.04-.49-.12-.72-.25-.23-.12-.41-.3-.56-.53-.15-.23-.22-.53-.22-.9,0-.42.1-.77.3-1.06.2-.29.45-.53.76-.71.31-.19.65-.34,1.02-.45.37-.11.72-.21,1.06-.29.19-.03.37-.07.53-.11.16-.04.31-.08.43-.13.16-.05.26-.11.3-.19.04-.08.06-.23.06-.46,0-.53-.1-.97-.31-1.31s-.57-.52-1.08-.52c-.19,0-.36.02-.49.07-.14.05-.25.12-.34.21-.09.1-.17.22-.24.38-.07.16-.14.34-.2.56-.03.12-.11.21-.23.27-.12.06-.32.12-.6.2-.07.02-.15.05-.25.07-.1.02-.19.03-.25.03-.11,0-.17-.12-.17-.36s.1-.5.29-.75c.19-.25.44-.47.74-.66.3-.19.62-.35.98-.47.35-.12.68-.18,1-.18.4,0,.75.03,1.07.1.32.07.59.19.82.37.23.18.4.42.52.73.12.3.18.7.18,1.19v2.92c0,.4.01.68.04.86.03.18.07.31.13.41.08.16.17.26.26.31.1.05.19.08.3.08.12,0,.21-.01.26-.03.05-.02.1-.03.16-.03Zm-2.58-3.31l-.55.08c-.3.06-.58.12-.86.2-.28.08-.53.19-.74.33-.22.14-.39.32-.52.53-.13.21-.2.48-.2.8,0,.43.11.76.33.98.22.23.5.34.83.34.22,0,.43-.05.64-.14s.39-.23.55-.41c.15-.17.28-.38.37-.62.1-.24.15-.5.15-.78v-1.32Z"/><path d="m213.78,142.59c.33,0,.57.08.73.24.16.16.24.33.24.53,0,.07-.01.13-.03.19-.02.06-.08.12-.16.18-.08.06-.2.14-.36.22-.15.08-.36.19-.64.31-.1-.12-.22-.23-.36-.32-.14-.09-.3-.14-.47-.14-.19,0-.37.05-.53.16-.16.11-.29.25-.41.44-.11.19-.2.4-.26.64-.06.24-.09.49-.09.75v2.92c0,.25.13.43.39.55.26.12.63.21,1.12.28.11.02.17.09.17.2,0,.07-.01.16-.03.27-.12-.01-.28-.02-.47-.03-.19,0-.38-.01-.58-.03-.2-.01-.41-.02-.63-.03-.22,0-.42,0-.6,0-.31,0-.63,0-.96.03-.33.02-.64.04-.93.06-.02-.11-.03-.2-.03-.27,0-.11.05-.18.15-.2.26-.05.49-.11.69-.2.2-.09.3-.22.3-.39v-4.31c0-.24-.01-.43-.04-.59-.03-.16-.08-.29-.14-.38-.07-.1-.17-.17-.3-.21-.13-.05-.3-.08-.5-.1-.15-.02-.22-.1-.22-.22,0-.07.01-.15.03-.24.15,0,.35,0,.62-.03.27-.02.48-.04.65-.06.25-.05.47-.09.66-.14.19-.05.33-.08.42-.08.16,0,.24.08.24.25v1.14c.36-.4.73-.73,1.09-.99.37-.27.78-.4,1.25-.4Z"/><path d="m220.87,148.36c.08-.08.16-.12.25-.12.11,0,.22.1.32.29-.15.2-.32.4-.51.59s-.42.36-.69.52c-.27.15-.57.27-.91.36-.34.09-.73.14-1.17.14s-.88-.07-1.29-.22c-.41-.15-.77-.37-1.08-.68-.31-.31-.56-.68-.75-1.14s-.28-.98-.28-1.59c0-.58.11-1.11.33-1.59.22-.49.51-.9.86-1.25.35-.34.74-.61,1.16-.81s.83-.29,1.23-.29c1.05,0,1.82.31,2.3.92.48.61.72,1.41.72,2.39,0,.07-.03.1-.1.1l-4.9.22c0,.44.06.85.19,1.22.12.37.3.7.52.97.23.27.5.48.82.64.32.15.68.23,1.09.23.36,0,.71-.09,1.04-.25.33-.17.61-.38.84-.64Zm-2.74-5.17c-.56,0-1,.22-1.32.66-.31.44-.47,1.02-.47,1.73l3.19-.15c.17,0,.25-.07.25-.22,0-.21-.03-.44-.1-.68-.07-.24-.17-.45-.3-.65s-.31-.36-.51-.49c-.21-.13-.45-.19-.73-.19Z"/><path d="m95.65,144.98h-57.04c-.44,0-.8-.36-.8-.8s.36-.8.8-.8h57.04c.44,0,.8.36.8.8s-.36.8-.8.8Z"/><path d="m281.51,144.98h-57.04c-.44,0-.8-.36-.8-.8s.36-.8.8-.8h57.04c.44,0,.8.36.8.8s-.36.8-.8.8Z"/><path class="cls-1" d="m164.47,106.05s4.17-1.52,4.17-3.93-3.2-3.12-3.77-3.12-3.85.56-3.85,3.04,3.44,4.01,3.44,4.01Z"/><path class="cls-1" d="m157.9,117.34c0,2.48,2.72,4.81,5.53,4.81s4.93-.8,6.67-1.8l-7.47-7.89s-4.73,2.4-4.73,4.89Z"/><path class="cls-2" d="m180.4,120.59c3.4-4.04,4.09-8.13,4.09-8.13-.72.48-8.41,2.32-8.41,2.32-.12.29-.31.6-.55.92l-6.42-6.44s5.85-2.16,5.85-6.97c0-2.08-.75-3.88-2.11-5.26,1.7-.29,2.99-1.77,2.99-3.55,0-1.99-1.61-3.61-3.61-3.61s-3.61,1.61-3.61,3.61c0,.43.08.84.22,1.22-1.25-.38-2.67-.58-4.22-.58-1.19,0-2.29.16-3.29.44.11-.34.16-.7.16-1.08,0-1.99-1.61-3.61-3.61-3.61s-3.61,1.61-3.61,3.61c0,1.68,1.15,3.09,2.71,3.49-1.6,1.5-2.47,3.35-2.47,4.92,0,3.28,3.69,6.09,3.69,6.09,0,0-9.13,2.88-9.13,10.82s11.98,9.61,13.2,9.61,7.31.32,12.52-3.2l2.16,2.4h10.41l-6.98-7.01Zm-15.54-21.59c.56,0,3.77.72,3.77,3.12s-4.17,3.93-4.17,3.93c0,0-3.44-1.52-3.44-4.01s3.28-3.04,3.85-3.04Zm-1.44,23.15c-2.8,0-5.53-2.32-5.53-4.81s4.73-4.89,4.73-4.89l7.47,7.89c-1.74,1-3.87,1.8-6.67,1.8Z"/></g></svg>