<?xml version="1.0" encoding="UTF-8"?><svg id="Layer_1" xmlns="http://www.w3.org/2000/svg" viewBox="0 0 320 240"><defs><style>.cls-1{fill:none;}.cls-1,.cls-2,.cls-3,.cls-4{stroke-width:0px;}.cls-2{fill:#14284b;}.cls-3{fill:#fec52e;}.cls-4{fill:#676767;}</style></defs><path class="cls-1" d="m136.29,147.57c-.62,0-1.17.06-1.37.12-.1.04-.16.12-.16.25v6.71c0,.1.04.18.14.25.31.18,1.25.33,2.15.33.49,0,1.07-.06,1.54-.39.72-.49,1.25-1.6,1.25-3.16,0-2.56-1.35-4.1-3.55-4.1Z"/><path class="cls-1" d="m152.21,149.95c-.1-.31-.21-.31-.31,0l-1.8,5.54c-.04.1,0,.14.06.14h3.92c.1,0,.1-.06.08-.14l-1.95-5.54Z"/><path class="cls-1" d="m101.14,149.95c-.1-.31-.21-.31-.31,0l-1.8,5.54c-.04.1,0,.14.06.14h3.92c.1,0,.1-.06.08-.14l-1.95-5.54Z"/><path class="cls-1" d="m212.31,147.32c-3.42,0-5.99,2.26-5.99,6.75,0,4.78,2.87,7.85,6.56,7.85,1.85,0,5.66-1.07,5.66-7.03,0-4.92-2.99-7.57-6.23-7.57Z"/><path class="cls-1" d="m228.35,147.57c-.62,0-1.17.06-1.37.12-.1.04-.16.12-.16.25v6.71c0,.1.04.18.14.25.31.18,1.25.33,2.15.33.49,0,1.07-.06,1.54-.39.72-.49,1.25-1.6,1.25-3.16,0-2.56-1.35-4.1-3.55-4.1Z"/><path class="cls-3" d="m156.6,69.22c-4.59,0-10.9,4.02-10.9,10.33,0,5.88,9.9,13.63,16.21,20.8,6.31,7.17,10.61,12.77,10.61,19.08,0,10.04-15.92,17.12-15.92,17.12,18.59,0,33.66-15.07,33.66-33.66s-15.73-33.66-33.66-33.66Z"/><path class="cls-2" d="m149.47,109.81c2.64-.28,6.02-2.98,5.63-6.61-.36-3.38-6.11-6.87-10.19-10.6-4.07-3.73-5.35-7.7-5.74-11.33-.62-5.77,3.94-8.68,3.94-8.68-6.62,1.81-13.63,9.54-13.63,18.22,0,12.07,9.67,20.12,19.98,19.01Z"/><path class="cls-4" d="m77.01,153.62l-.57-.45c-1.97-1.54-2.5-2.28-2.5-3.45,0-1.5,1.11-2.38,2.52-2.38,1.89,0,2.44.86,2.56,1.09s.25.78.27,1.03c.02.16.04.27.16.27.1,0,.14-.14.14-.47,0-1.39.08-2.07.08-2.17s-.04-.14-.21-.14-.33-.02-.72-.1c-.51-.12-1.11-.21-1.91-.21-2.6,0-4.25,1.5-4.25,3.69,0,1.39.49,2.67,2.67,4.45l.92.76c1.76,1.46,2.36,2.28,2.36,3.69,0,1.31-.96,2.73-2.93,2.73-1.37,0-2.73-.57-3.04-2.09-.06-.29-.06-.57-.06-.76,0-.16-.02-.23-.14-.23-.1,0-.14.1-.16.33-.02.33-.1,1.15-.1,2.17,0,.55.02.64.31.78.84.41,1.78.55,2.75.55,1.11,0,2.21-.25,3.1-.86,1.42-1,1.74-2.56,1.74-3.4,0-1.64-.57-2.91-2.99-4.82Z"/><path class="cls-4" d="m92.25,159.65c-.1,0-.14.08-.18.31-.16.88-.39,1.31-1.05,1.52-.55.16-1.23.18-1.85.18-.8,0-1.35-.04-1.7-.18-.51-.21-.64-.66-.68-1.5-.02-.43,0-2.81,0-3.51v-1.8c0-.08.04-.14.14-.14.35,0,2.38.04,2.93.1.74.08.98.37,1.07.68.06.18.08.39.08.57,0,.16.02.33.14.33.08,0,.12-.1.14-.31.02-.29.02-.76.08-1.39.06-.68.16-1.03.16-1.15s-.04-.16-.1-.16c-.08,0-.14.08-.25.21-.21.25-.47.31-1.03.35-.47.04-2.99.04-3.26.04-.1,0-.12-.06-.12-.21v-5.66c0-.14.04-.21.12-.21.23,0,2.46.02,2.81.06.9.08,1.33.29,1.48.76.06.16.1.41.1.68,0,.16.04.27.16.27.08,0,.14-.14.16-.35.04-.53.06-.92.08-1.23.04-.57.16-.82.16-.96,0-.1-.02-.18-.08-.18s-.1.02-.23.08-.49.1-.94.12c-.47.02-4.55.02-4.7.02-1.29-.06-1.85-.06-2.32-.06-.23,0-.33.04-.33.16,0,.08.12.1.27.12.18.02.45.02.59.06.68.14.84.47.88,1.17.04.66.04,1.23.04,4.43v3.61c0,1.83-.02,2.87-.04,3.67-.04,1.54-.31,1.83-.74,1.93-.14.04-.27.04-.47.06-.12.02-.23.06-.23.12,0,.12.1.16.33.16.53.02,1.03-.06,1.52-.06.8,0,1.74.04,2.56.06.8.02,1.48.06,2.99.06.8,0,.96,0,1.11-.53.1-.43.27-1.83.27-1.99,0-.14,0-.31-.12-.31Z"/><path class="cls-4" d="m109.12,162.13c-.16,0-.49-.02-.8-.12-.43-.12-1.03-.45-1.76-2.28-1.25-3.12-4.47-11.59-4.78-12.37-.25-.64-.33-.74-.45-.74s-.21.12-.45.8l-4.66,12.74c-.37,1.03-.78,1.8-1.72,1.93-.16.02-.35.04-.49.04-.18,0-.29.04-.29.12,0,.12.12.16.39.16.96,0,2.09-.06,2.32-.06s1.05.06,1.54.06c.18,0,.37-.04.37-.16,0-.08-.06-.12-.27-.12h-.18c-.35,0-.74-.18-.74-.59,0-.37.1-.86.29-1.37l1.23-3.63c.04-.1.1-.16.21-.16h4.41c.1,0,.14.04.18.12l1.91,5.04c.12.33,0,.51-.12.55-.08.02-.14.06-.14.14,0,.12.23.12.62.14,1.42.04,2.91.04,3.22.04.23,0,.41-.04.41-.16,0-.1-.1-.12-.23-.12Zm-6.11-6.5h-3.92c-.06,0-.1-.04-.06-.14l1.8-5.54c.1-.31.21-.31.31,0l1.95,5.54c.02.08.02.14-.08.14Z"/><path class="cls-4" d="m128.71,146.77c-.08,0-.27.06-.57.1-.33.06-.8.1-1.46.1h-7.69c-.25,0-1.03-.04-1.62-.1-.55-.04-.76-.25-.9-.25-.08,0-.16.27-.21.39-.04.16-.45,1.93-.45,2.13,0,.12.04.18.1.18.08,0,.14-.04.21-.21.06-.14.12-.29.35-.64.33-.49.82-.64,2.09-.66,1-.02,2.03-.02,3.04-.04v8.67c0,1.97,0,3.59-.1,4.45-.08.59-.18,1.05-.59,1.13-.18.04-.43.08-.62.08-.12,0-.16.06-.16.12,0,.12.1.16.33.16.62,0,1.91-.06,2.01-.06s1.39.06,2.52.06c.23,0,.33-.06.33-.16,0-.06-.04-.12-.16-.12-.18,0-.64-.04-.92-.08-.62-.08-.74-.53-.8-1.13-.1-.86-.1-2.48-.1-4.45v-8.67c.86.02,1.72.02,2.58.04,1.97.04,2.46.51,2.52,1.13,0,.08.02.14.02.23.02.29.06.35.16.35.08,0,.14-.08.14-.27,0-.23.06-1.64.06-2.26,0-.12,0-.25-.1-.25Z"/><path class="cls-4" d="m160.18,162.13c-.16,0-.49-.02-.8-.12-.43-.12-1.03-.45-1.76-2.28-1.25-3.12-4.47-11.59-4.78-12.37-.25-.64-.33-.74-.45-.74s-.21.12-.45.8l-4.66,12.74c-.34.96-.73,1.69-1.54,1.89-.52-.1-1.36-.36-2.39-1.46-1.19-1.27-2.58-3.1-4.27-5.25,1.85-1.7,2.48-3.22,2.48-4.74,0-1.42-.9-2.42-1.42-2.79-1.09-.78-2.46-.9-3.75-.9-.64,0-2.19.06-2.42.06-.1,0-1.39-.06-2.32-.06-.23,0-.33.04-.33.16,0,.08.08.12.16.12.18,0,.53.02.7.06.68.14.84.47.88,1.17.04.66.04,1.23.04,4.43v3.61c0,1.97,0,3.59-.1,4.45-.08.59-.18,1.05-.59,1.13-.18.04-.43.08-.62.08-.12,0-.16.06-.16.12,0,.12.1.16.33.16.62,0,1.91-.06,1.93-.06.1,0,1.39.06,2.52.06.23,0,.33-.06.33-.16,0-.06-.04-.12-.16-.12-.18,0-.64-.04-.92-.08-.62-.08-.74-.53-.8-1.13-.1-.86-.1-2.48-.1-4.45v-.49c0-.1.04-.16.14-.16l2.52.04c.12,0,.18.04.27.12.41.53,1.37,1.91,2.24,3.04,1.17,1.54,1.89,2.54,2.77,3.01.53.29,1.05.39,2.19.39h1.46c.18,0,.3-.01.38-.03.37-.01.67-.03.77-.03.23,0,1.05.06,1.54.06.18,0,.37-.04.37-.16,0-.08-.06-.12-.27-.12h-.18c-.35,0-.74-.18-.74-.59,0-.37.1-.86.29-1.37l1.23-3.63c.04-.1.1-.16.21-.16h4.41c.1,0,.14.04.18.12l1.91,5.04c.12.33,0,.51-.12.55-.08.02-.14.06-.14.14,0,.12.23.12.62.14,1.42.04,2.91.04,3.22.04.23,0,.41-.04.41-.16,0-.1-.1-.12-.23-.12Zm-21.59-7.3c-.47.33-1.05.39-1.54.39-.9,0-1.85-.14-2.15-.33-.1-.06-.14-.14-.14-.25v-6.71c0-.12.06-.21.16-.25.21-.06.76-.12,1.37-.12,2.19,0,3.55,1.54,3.55,4.1,0,1.56-.53,2.67-1.25,3.16Zm15.48.8h-3.92c-.06,0-.1-.04-.06-.14l1.8-5.54c.1-.31.21-.31.31,0l1.95,5.54c.02.08.02.14-.08.14Z"/><path class="cls-4" d="m176.96,146.91c-.84,0-1.52.06-1.74.06s-1.21-.06-2.13-.06c-.25,0-.41.02-.41.14,0,.08.06.14.29.14.18,0,.51.02.88.1.64.16.78.62.8,1.95l.23,10.42c-.66-.68-2.89-3.18-4.92-5.35-3.16-3.38-6.21-6.69-6.52-7.03-.21-.21-.55-.66-.72-.66s-.23.23-.23,1.03c.02,3.98-.02,1.31-.02,8.72v3.04c0,1.87-.1,2.46-.62,2.6-.31.1-.68.12-.84.12-.1,0-.16.04-.16.12,0,.14.12.16.33.16.92,0,1.78-.06,1.97-.06s1,.06,2.17.06c.25,0,.37-.04.37-.16,0-.08-.06-.12-.16-.12-.18,0-.64-.02-1.03-.12-.55-.16-.76-.7-.8-2.38l-.27-9.82c.66.74,2.97,3.32,5.35,5.89,2.17,2.34,5.13,5.35,5.35,5.56,1.09,1.09,1.33,1.31,1.5,1.31.14,0,.18-.1.18-1.46l.04-11.98c0-1.42.14-1.72.72-1.85.25-.04.37-.06.53-.08.14-.02.23-.06.23-.14,0-.12-.14-.14-.37-.14Z"/><path class="cls-4" d="m185.49,153.62l-.57-.45c-1.97-1.54-2.5-2.28-2.5-3.45,0-1.5,1.11-2.38,2.52-2.38,1.89,0,2.44.86,2.56,1.09s.25.78.27,1.03c.02.16.04.27.16.27.1,0,.14-.14.14-.47,0-1.39.08-2.07.08-2.17s-.04-.14-.21-.14-.33-.02-.72-.1c-.51-.12-1.11-.21-1.91-.21-2.6,0-4.25,1.5-4.25,3.69,0,1.39.49,2.67,2.67,4.45l.92.76c1.76,1.46,2.36,2.28,2.36,3.69,0,1.31-.96,2.73-2.93,2.73-1.37,0-2.73-.57-3.04-2.09-.06-.29-.06-.57-.06-.76,0-.16-.02-.23-.14-.23-.1,0-.14.1-.16.33-.02.33-.1,1.15-.1,2.17,0,.55.02.64.31.78.84.41,1.78.55,2.75.55,1.11,0,2.21-.25,3.1-.86,1.42-1,1.74-2.56,1.74-3.4,0-1.64-.57-2.91-2.99-4.82Z"/><path class="cls-4" d="m196.99,146.91c-.94,0-2.13.06-2.58.06-.16,0-1.39-.06-2.32-.06-.23,0-.33.04-.33.16,0,.08.08.12.16.12.18,0,.53.02.7.06.68.14.84.47.88,1.17.04.66.04,1.23.04,4.43v3.61c0,1.97,0,3.59-.1,4.45-.08.59-.18,1.05-.59,1.13-.18.04-.43.08-.62.08-.12,0-.16.06-.16.12,0,.12.1.16.33.16.62,0,1.91-.06,1.97-.06.1,0,1.39.06,2.52.06.23,0,.33-.06.33-.16,0-.06-.04-.12-.16-.12-.18,0-.64-.04-.92-.08-.62-.08-.74-.53-.8-1.13-.1-.86-.1-2.48-.1-4.45v-8.43c0-.21.04-.35.16-.39.18-.08.53-.12.88-.12.47,0,1.72-.08,2.81,1.03s1.15,2.48,1.15,2.99c0,2.15-1.56,3.51-3.55,3.51-.43,0-.55.02-.55.18,0,.1.12.14.23.14.1.02.33.02.43.02,2.91,0,5.04-1.97,5.04-4.63,0-1.33-.57-2.26-1.03-2.69-.33-.31-1.25-1.17-3.81-1.17Z"/><path class="cls-4" d="m212.46,146.62c-5.66,0-8.08,4.7-8.08,8.02,0,3.69,2.34,8.06,7.96,8.06,4.94,0,8.18-3.79,8.18-8.39s-3.45-7.69-8.06-7.69Zm.43,15.3c-3.69,0-6.56-3.08-6.56-7.85,0-4.49,2.56-6.75,5.99-6.75,3.24,0,6.23,2.65,6.23,7.57,0,5.97-3.81,7.03-5.66,7.03Z"/><path class="cls-4" d="m238.71,162.13c-.12,0-.41,0-.8-.06-.51-.08-1.39-.31-2.5-1.48-1.19-1.27-2.58-3.1-4.27-5.25,1.85-1.7,2.48-3.22,2.48-4.74,0-1.42-.9-2.42-1.42-2.79-1.09-.78-2.46-.9-3.75-.9-.64,0-2.19.06-2.42.06-.1,0-1.39-.06-2.32-.06-.23,0-.33.04-.33.16,0,.08.08.12.16.12.18,0,.53.02.7.06.68.14.84.47.88,1.17.04.66.04,1.23.04,4.43v3.61c0,1.97,0,3.59-.1,4.45-.08.59-.18,1.05-.59,1.13-.18.04-.43.08-.62.08-.12,0-.16.06-.16.12,0,.12.1.16.33.16.62,0,1.91-.06,1.93-.06.1,0,1.39.06,2.52.06.23,0,.33-.06.33-.16,0-.06-.04-.12-.16-.12-.18,0-.64-.04-.92-.08-.62-.08-.74-.53-.8-1.13-.1-.86-.1-2.48-.1-4.45v-.49c0-.1.04-.16.14-.16l2.52.04c.12,0,.18.04.27.12.41.53,1.37,1.91,2.24,3.04,1.17,1.54,1.89,2.54,2.77,3.01.53.29,1.05.39,2.19.39h1.46c.37,0,.49-.04.49-.16,0-.06-.08-.12-.18-.12Zm-8.06-7.3c-.47.33-1.05.39-1.54.39-.9,0-1.85-.14-2.15-.33-.1-.06-.14-.14-.14-.25v-6.71c0-.12.06-.21.16-.25.21-.06.76-.12,1.37-.12,2.19,0,3.55,1.54,3.55,4.1,0,1.56-.53,2.67-1.25,3.16Z"/><path class="cls-4" d="m249.17,146.77c-.08,0-.27.06-.57.1-.33.06-.8.1-1.46.1h-7.69c-.25,0-1.03-.04-1.62-.1-.55-.04-.76-.25-.9-.25-.08,0-.16.27-.21.39-.04.16-.45,1.93-.45,2.13,0,.12.04.18.1.18.08,0,.14-.04.21-.21.06-.14.12-.29.35-.64.33-.49.82-.64,2.09-.66,1-.02,2.03-.02,3.04-.04v8.67c0,1.97,0,3.59-.1,4.45-.08.59-.18,1.05-.59,1.13-.18.04-.43.08-.62.08-.12,0-.16.06-.16.12,0,.12.1.16.33.16.62,0,1.91-.06,2.01-.06s1.39.06,2.52.06c.23,0,.33-.06.33-.16,0-.06-.04-.12-.16-.12-.18,0-.64-.04-.92-.08-.62-.08-.74-.53-.8-1.13-.1-.86-.1-2.48-.1-4.45v-8.67c.86.02,1.72.02,2.58.04,1.97.04,2.46.51,2.52,1.13,0,.08.02.14.02.23.02.29.06.35.16.35.08,0,.14-.08.14-.27,0-.23.06-1.64.06-2.26,0-.12,0-.25-.1-.25Z"/></svg>