<?xml version="1.0" encoding="UTF-8"?><svg id="Layer_1" xmlns="http://www.w3.org/2000/svg" viewBox="0 0 320 240"><defs><style>.cls-1{fill:#a0a0a0;}.cls-2{fill:#bfbfbf;}.cls-3{fill:#2c2c2c;}</style></defs><path class="cls-3" d="m246.31,146.26c-.27.73-.66,1.37-1.17,1.92-.51.55-1.13.98-1.86,1.3-.73.31-1.55.47-2.46.47s-1.73-.16-2.45-.47c-.72-.31-1.34-.74-1.85-1.3-.52-.55-.91-1.19-1.17-1.92-.26-.72-.4-1.5-.4-2.33,0-.88.13-1.69.4-2.42s.65-1.37,1.17-1.91c.52-.54,1.14-.95,1.85-1.24.72-.29,1.54-.44,2.45-.44s1.71.15,2.43.44c.73.29,1.35.71,1.87,1.24.52.54.91,1.17,1.18,1.91s.41,1.54.41,2.42c0,.83-.14,1.61-.41,2.33m2.17-9.25c-.86-.93-1.93-1.68-3.21-2.24-1.28-.56-2.76-.84-4.45-.84s-3.19.28-4.46.84c-1.27.56-2.34,1.31-3.21,2.24s-1.52,1.98-1.95,3.12c-.43,1.15-.64,2.31-.64,3.49v.57c0,1.07.21,2.17.63,3.3.42,1.13,1.05,2.19,1.89,3.16.84.98,1.91,1.77,3.2,2.37,1.29.61,2.8.91,4.54.91s3.25-.3,4.54-.91c1.29-.6,2.35-1.39,3.2-2.37.84-.98,1.47-2.03,1.89-3.16.42-1.13.63-2.23.63-3.3v-.57c0-1.18-.22-2.34-.66-3.49-.44-1.15-1.09-2.19-1.95-3.12m-25.76,16.38h4.32v-18.92h-4.32v18.92Zm-56.41-8.22l2.34-7.21h.96l2.4,7.21h-5.7Zm-.64-10.7l-6.34,18.92h4.32l1.52-4.69h8.02l1.56,4.69h4.47l-6.58-18.92h-6.97Zm-13.82,15.47h-.67l-3.19-14.78h-4.45l-2.73,14.77h-.7l-3.57-15.47h-4.45l4.74,18.92h6.55l2.36-11.41,2.54,11.41h6.68l4.21-18.92h-4.21l-3.12,15.47Zm34.82-11.9h3.58c.63,0,1.17.12,1.63.37s.82.6,1.08,1.05c.26.45.4.99.4,1.61,0,.58-.13,1.1-.4,1.55-.26.45-.62.81-1.08,1.05-.46.25-1,.37-1.63.37h-3.58v-6.02Zm10.09,6.59c.64-.92.96-2.07.96-3.46v-.41c0-1.39-.32-2.55-.95-3.48-.63-.93-1.54-1.64-2.71-2.11-1.18-.47-2.56-.71-4.16-.71h-9.94l2.39,3.19v15.73h4.31v-6.02h3.12l4.22,6.02h5l-4.91-6.72c1.14-.45,2.02-1.13,2.65-2.03m10.28-6.59h3.58c.63,0,1.17.12,1.63.37s.82.6,1.08,1.05c.26.45.4.99.4,1.61,0,.58-.13,1.1-.4,1.55-.26.45-.62.81-1.08,1.05-.46.25-1,.37-1.63.37h-3.58v-6.02Zm10.09,6.59c.64-.92.96-2.07.96-3.46v-.41c0-1.39-.32-2.55-.95-3.48-.63-.93-1.54-1.64-2.71-2.11-1.18-.47-2.56-.71-4.16-.71h-9.94l2.39,3.19v15.73h4.31v-6.02h3.12l4.22,6.02h5l-4.91-6.72c1.14-.45,2.02-1.13,2.65-2.03m42.17-6.59h3.58c.63,0,1.17.12,1.63.37s.82.6,1.08,1.05c.26.45.4.99.4,1.61,0,.58-.13,1.1-.4,1.55-.26.45-.62.81-1.08,1.05-.46.25-1,.37-1.63.37h-3.58v-6.02Zm10.09,6.59c.64-.92.96-2.07.96-3.46v-.41c0-1.39-.32-2.55-.95-3.48-.63-.93-1.54-1.64-2.71-2.11-1.18-.47-2.56-.71-4.16-.71h-9.94l2.39,3.19v15.73h4.31v-6.02h3.12l4.22,6.02h5l-4.91-6.72c1.14-.45,2.02-1.13,2.66-2.03"/><path class="cls-3" d="m142.39,109.62c1.74,0,3.27.32,4.61.96s2.4,1.53,3.2,2.67c.8,1.14,1.27,2.46,1.41,3.97h-4.34c-.12-.76-.41-1.41-.86-1.94s-1.01-.95-1.7-1.23c-.69-.29-1.46-.43-2.32-.43s-1.62.14-2.29.43c-.67.29-1.22.7-1.67,1.23s-.79,1.17-1.03,1.91c-.24.73-.36,1.55-.36,2.45s.12,1.69.36,2.42.59,1.37,1.05,1.92c.46.54,1.04.96,1.72,1.24.69.29,1.47.43,2.34.43,1.33,0,2.46-.32,3.38-.96.92-.64,1.48-1.52,1.67-2.64h4.32c-.16,1.38-.63,2.65-1.41,3.8-.78,1.15-1.84,2.07-3.18,2.76-1.34.69-2.93,1.04-4.78,1.04-1.74,0-3.23-.3-4.47-.91-1.25-.6-2.27-1.39-3.07-2.36-.8-.97-1.39-2.02-1.76-3.16s-.57-2.25-.57-3.32v-.57c0-1.18.19-2.34.58-3.49.39-1.15.98-2.19,1.79-3.12s1.82-1.68,3.04-2.24c1.22-.56,2.66-.84,4.33-.84m19.87,4.43c-.72.29-1.34.71-1.85,1.24-.52.54-.91,1.17-1.17,1.91s-.4,1.54-.4,2.42c0,.83.13,1.61.4,2.33.26.72.65,1.37,1.17,1.92.52.55,1.14.98,1.85,1.3.72.31,1.54.47,2.45.47s1.73-.16,2.46-.47c.73-.31,1.35-.74,1.86-1.3.51-.55.9-1.19,1.17-1.92s.41-1.5.41-2.33c0-.88-.14-1.69-.41-2.42s-.67-1.37-1.18-1.91c-.52-.54-1.14-.95-1.87-1.24-.73-.29-1.54-.44-2.43-.44s-1.73.15-2.45.44m-5.22-1.35c.87-.93,1.94-1.68,3.21-2.24,1.27-.56,2.76-.84,4.46-.84s3.17.28,4.45.84c1.28.56,2.35,1.31,3.21,2.24.86.93,1.51,1.98,1.95,3.12.44,1.15.66,2.31.66,3.49v.57c0,1.07-.21,2.17-.63,3.31-.42,1.13-1.05,2.19-1.89,3.16-.84.98-1.91,1.77-3.2,2.37-1.29.6-2.8.91-4.54.91s-3.25-.3-4.54-.91c-1.29-.6-2.35-1.39-3.2-2.37-.84-.98-1.47-2.03-1.89-3.16-.42-1.13-.63-2.23-.63-3.31v-.57c0-1.18.21-2.34.64-3.49.43-1.15,1.08-2.19,1.95-3.12m38.43,6.61v.57c0,1.16-.22,2.29-.65,3.4-.43,1.11-1.08,2.11-1.96,3.01-.88.9-1.97,1.61-3.26,2.14-1.3.53-2.82.79-4.55.79h-7.13v-19.18h7.13c1.74,0,3.25.25,4.55.75,1.3.5,2.39,1.18,3.26,2.05.88.87,1.53,1.85,1.96,2.97.43,1.11.65,2.28.65,3.51Zm-4.37.29c0-.88-.14-1.67-.41-2.36-.27-.69-.66-1.28-1.16-1.76-.5-.48-1.11-.85-1.83-1.09-.72-.24-1.54-.36-2.45-.36h-4.89l1.86,1.4v9.83h3.03c.91,0,1.73-.13,2.45-.4.72-.27,1.33-.65,1.83-1.14.5-.49.89-1.09,1.16-1.79s.41-1.47.41-2.32Zm11.79,5.96v-4.33h7.26v-3.53h-7.26v-2.62l-1.86-1.4h9.55v-3.52h-11.9v18.92h12.08v-3.53h-7.87Z"/><path class="cls-3" d="m169.39,102.22c-.8-.97-1.39-2.02-1.76-3.16s-.57-2.25-.57-3.32v-.57c0-1.18.19-2.34.58-3.49.39-1.15.98-2.19,1.79-3.12s1.82-1.68,3.04-2.24c1.22-.56,2.66-.84,4.33-.84s3.27.32,4.61.96,2.4,1.53,3.2,2.67,1.27,2.46,1.41,3.97h-4.34c-.12-.76-.41-1.41-.86-1.94-.45-.54-1.01-.95-1.7-1.23-.69-.29-1.46-.43-2.32-.43s-1.62.14-2.29.43c-.67.29-1.22.7-1.67,1.23-.45.54-.79,1.17-1.03,1.91s-.36,1.55-.36,2.45.12,1.69.36,2.42.59,1.37,1.05,1.92,1.04.96,1.72,1.24c.69.29,1.46.43,2.34.43,1.33,0,2.46-.32,3.38-.96.92-.64,1.48-1.52,1.67-2.64h4.32c-.16,1.38-.63,2.65-1.41,3.8-.78,1.15-1.84,2.07-3.18,2.76-1.34.69-2.93,1.04-4.78,1.04-1.74,0-3.23-.3-4.47-.91-1.24-.6-2.27-1.39-3.07-2.36m-26.98-.65c-.54.21-1.22.31-2.03.31-.9,0-1.62-.13-2.18-.38s-.98-.58-1.25-1-.41-.86-.41-1.35h-4.21c0,1.23.31,2.31.93,3.25.62.94,1.53,1.69,2.72,2.24,1.19.55,2.66.83,4.4.83,1.63,0,3.03-.25,4.21-.75,1.18-.5,2.08-1.21,2.72-2.13.64-.92.96-1.98.96-3.19s-.3-2.17-.91-2.99c-.61-.82-1.44-1.47-2.51-1.94-1.07-.47-2.31-.77-3.71-.89l-1.47-.13c-.88-.07-1.51-.3-1.89-.7-.39-.4-.58-.86-.58-1.37,0-.43.11-.83.32-1.18.21-.35.53-.63.96-.83s.96-.3,1.59-.3c.67,0,1.22.12,1.67.35.45.23.79.54,1.01.93.23.39.34.82.34,1.28h4.21c0-1.23-.29-2.3-.87-3.23-.58-.92-1.41-1.65-2.49-2.16-1.08-.52-2.37-.78-3.88-.78s-2.68.24-3.74.71-1.87,1.15-2.46,2.03-.88,1.94-.88,3.16c0,1.68.57,3.02,1.71,4.03,1.14,1.01,2.67,1.6,4.58,1.78l1.45.1c1.18.1,2.03.33,2.55.69s.79.83.79,1.44c0,.48-.14.91-.42,1.28-.28.37-.69.66-1.24.87m62.99.05c.65-1.23.97-2.68.97-4.35v-11.22h-4.34v11.38c0,.85-.15,1.57-.46,2.18-.31.61-.77,1.07-1.38,1.4-.61.33-1.36.49-2.24.49s-1.62-.16-2.22-.49-1.07-.8-1.4-1.41c-.32-.61-.49-1.34-.49-2.16v-11.38h-4.32v11.22c0,1.68.32,3.13.97,4.35.65,1.23,1.6,2.18,2.86,2.85,1.25.67,2.78,1.01,4.59,1.01s3.36-.34,4.61-1.01c1.25-.67,2.19-1.63,2.84-2.85m9.84-5.99h3.58c.63,0,1.17-.12,1.63-.37.46-.25.82-.6,1.08-1.05.26-.45.4-.97.4-1.55,0-.62-.13-1.15-.4-1.61-.26-.45-.62-.81-1.08-1.05s-1-.37-1.63-.37h-3.58v6.02Zm10.09.58c-.63.9-1.52,1.58-2.66,2.03l4.91,6.72h-5l-4.22-6.02h-3.12v6.02h-4.31v-15.73l-2.39-3.19h9.94c1.6,0,2.98.24,4.16.71,1.17.47,2.08,1.17,2.71,2.11.63.93.95,2.1.95,3.48v.41c0,1.39-.32,2.54-.96,3.46m-69.16,5.23v-4.33h7.26v-3.53h-7.26v-2.62l-1.86-1.4h9.55v-3.52h-11.9v18.92h12.08v-3.53h-7.87Zm78.91,0v-4.33h7.26v-3.53h-7.26v-2.62l-1.86-1.4h9.55v-3.52h-11.9v18.92h12.08v-3.53h-7.87Z"/><path class="cls-1" d="m115.83,161.3c-.09-.23-.22-.45-.4-.64-.18-.19-.4-.35-.66-.46-.26-.11-.56-.17-.9-.17s-.64.06-.9.17c-.26.11-.48.27-.66.46-.18.19-.31.41-.4.64s-.14.47-.14.72v.12c0,.24.04.47.13.71.09.24.22.45.4.65s.4.35.66.47c.26.12.56.18.91.18s.64-.06.91-.18c.26-.12.48-.28.66-.47.18-.19.31-.41.4-.65.09-.24.13-.47.13-.71v-.12c0-.25-.04-.49-.14-.72Zm-.48,1.63c-.14.25-.34.46-.59.61-.25.15-.55.23-.88.23s-.63-.08-.88-.23c-.25-.15-.45-.35-.59-.61-.14-.25-.21-.53-.21-.84s.07-.6.21-.86c.14-.25.33-.45.59-.6.25-.15.55-.22.88-.22s.63.07.88.22c.25.15.45.35.59.6.14.25.21.54.21.86s-.07.59-.21.84Z"/><path class="cls-1" d="m114.59,162.29c.17-.14.26-.33.26-.58s-.09-.45-.26-.59c-.17-.13-.41-.2-.72-.2h-.85v2.25h.54v-.68h.31s.02,0,.03,0l.46.68h.62l-.57-.78c.07-.03.13-.06.18-.1Zm-1.03-.92h.34c.13,0,.23.03.29.08.06.06.1.14.1.25s-.03.19-.1.25c-.06.06-.16.08-.29.08h-.34v-.66Z"/><path class="cls-2" d="m84.34,163.18l-2.13.95v-10.69s9.2-6.1,11.33-7.76c5.59-4.37,12.25-11.18,12.25-18.83v-2.7l4.92-3.94h-28.5v-10.12h33.85v16.76c0,21.83-30.43,35.74-31.72,36.32Zm-2.12-77.15c2.56.35,14.7,2.45,23.57,11.76v7.59h10.27v-11.36l-1.21-1.41c-12.62-14.76-31.38-16.64-32.17-16.71l-.47-.04v10.18s0,0,.01,0Z"/><path class="cls-1" d="m82.21,120.22h-33.85v-26.2l1.21-1.41c12.62-14.77,31.38-16.64,32.17-16.71l.48-.04v10.18c-2.54.36-14.77,2.52-23.58,11.76v9l-4.41,3.31h27.99v10.12h0Zm-11.33,25.47c-5.59-4.37-12.25-10.54-12.25-17.31l2.45-3.43h-12.72v3.43c0,20.68,30.43,34.22,31.72,34.8l2.13.95v-10.69s-9.21-6.1-11.33-7.76Z"/></svg>