<?xml version="1.0" encoding="UTF-8"?><svg id="Layer_1" xmlns="http://www.w3.org/2000/svg" viewBox="0 0 320 240"><defs><style>.cls-1{fill:none;}.cls-2{fill:#b1b1b1;}.cls-3{fill:gray;}</style></defs><g id="Slurry_Recyclers"><path class="cls-1" d="m239.01,132.54c0-1.01-.82-1.83-1.83-1.83l-12.85.05v3.61h12.85c1.01,0,1.83-.82,1.83-1.83Z"/><path class="cls-1" d="m206.87,132.54c0-1.01-.82-1.83-1.83-1.83l-12.85.05v3.61h12.85c1.01,0,1.83-.82,1.83-1.83Z"/><path class="cls-1" d="m150.76,155.71l-5.73.02v1.61h5.73c.45,0,.82-.37.82-.82s-.37-.82-.82-.82Z"/><path class="cls-1" d="m245.84,155.71l-5.73.02v1.61h5.73c.45,0,.82-.37.82-.82s-.37-.82-.82-.82Z"/><path class="cls-3" d="m110.1,112.77v-17.14c0-10.92-8.93-19.85-19.85-19.85h-4.53c-10.92,0-19.85,8.93-19.85,19.85v16.11h20.68v-15.27h3.28v16.3h20.28Z"/><path class="cls-2" d="m65.89,123h-3.28v-14.75s-20.28,0-20.28,0v15.33c0,10.92,8.93,19.85,19.85,19.85h4.53c10.92,0,19.85-8.93,19.85-19.85v-11.85h-20.68s0,11.26,0,11.26Z"/><polygon class="cls-3" points="112.54 134.36 112.54 134.36 112.56 134.36 112.54 134.36"/><path class="cls-3" d="m112.54,134.36h-12.7c-1.01.01-1.83-.81-1.83-1.82s.82-1.83,1.83-1.83l19.21.08v-6.64h-20.29c-4.23,0-7.65,3.43-7.65,7.65s3.43,7.65,7.65,7.65h12.7c1.01-.01,1.83.81,1.83,1.82s-.82,1.83-1.83,1.83l-19.21-.08v6.64s20.29,0,20.29,0c4.23,0,7.65-3.43,7.65-7.65,0-4.23-3.43-7.65-7.65-7.65Z"/><path class="cls-2" d="m260.26,157.35h-5.67c-.45,0-.82-.36-.82-.81s.37-.82.82-.82l8.58.04v-2.97h-9.06c-1.89,0-3.42,1.53-3.42,3.42s1.53,3.42,3.42,3.42h5.67c.45,0,.82.36.82.81s-.37.82-.82.82l-8.58-.04v2.97h9.06c1.89,0,3.42-1.53,3.42-3.42s-1.53-3.42-3.42-3.42Z"/><path class="cls-3" d="m149.98,143.44h-19.33c-.96,0-1.03-1.13-1.03-1.13v-18.15h-6.81v18.77c0,3.71,3.04,6.75,6.75,6.75h20.42v-6.23Z"/><path class="cls-2" d="m212.7,160.92v-8.14h-3.05v8.41c0,1.66,1.36,3.03,3.03,3.03h9.16v-2.8h-8.67c-.43,0-.46-.51-.46-.51Z"/><path class="cls-3" d="m158.71,149.67h16.2c3.71,0,6.75-3.04,6.75-6.75v-18.77h-6.81v16.16s.07,3.12-3.02,3.12h-10.05c-3.09,0-3.02-3.12-3.02-3.12v-16.16h-6.81v18.77c0,3.71,3.04,6.75,6.75,6.75Z"/><path class="cls-3" d="m192.19,140.46h13.8c.71,0,1.29.58,1.29,1.29l-.05,7.91h6.53v-8.31c0-1.79-.68-3.41-1.78-4.65,1.11-1.33,1.78-3.04,1.78-4.9,0-4.23-3.43-7.65-7.65-7.65h-20.29v25.52h6.36v-9.21Zm0-9.7l12.85-.05c1.01,0,1.83.82,1.83,1.83s-.82,1.83-1.83,1.83h-12.85v-3.61Z"/><path class="cls-2" d="m151.24,152.79h-9.05v11.38h2.84v-4.11h6.16c.32,0,.58.26.58.58l-.02,3.53h2.91v-3.71c0-.8-.3-1.52-.79-2.07.5-.59.79-1.36.79-2.19,0-1.89-1.53-3.41-3.41-3.41Zm-.48,4.56h-5.73v-1.61l5.73-.02c.45,0,.82.37.82.82s-.37.82-.82.82Z"/><path class="cls-2" d="m246.32,152.79h-9.05v11.38h2.84v-4.11h6.16c.32,0,.58.26.58.58l-.02,3.53h2.91v-3.71c0-.8-.3-1.52-.79-2.07.5-.59.79-1.36.79-2.19,0-1.89-1.53-3.41-3.41-3.41Zm-.48,4.56h-5.73v-1.61l5.73-.02c.45,0,.82.37.82.82s-.37.82-.82.82Z"/><path class="cls-3" d="m224.34,140.46h13.8c.71,0,1.29.58,1.29,1.29l-.05,7.91h6.53v-8.31c0-1.79-.68-3.41-1.78-4.65,1.11-1.33,1.78-3.04,1.78-4.9,0-4.23-3.43-7.65-7.65-7.65h-20.29v25.52h6.36v-9.21Zm0-9.7l12.85-.05c1.01,0,1.83.82,1.83,1.83s-.82,1.83-1.83,1.83h-12.85v-3.61Z"/><polygon class="cls-3" points="268.79 124.15 264.74 128.52 261.44 132.07 258.14 128.52 254.09 124.15 245.21 124.15 258.14 138.09 258.14 149.67 264.74 149.67 264.74 138.09 277.68 124.15 268.79 124.15"/><polygon class="cls-2" points="193.26 152.79 191.47 154.72 190.01 156.29 188.55 154.72 186.75 152.79 182.82 152.79 188.55 158.96 188.55 164.08 191.47 164.08 191.47 158.96 197.2 152.79 193.26 152.79"/><path class="cls-2" d="m156.62,154.99v6.92c0,1.65.55,2.2,2.2,2.2h9.86v-2.77h-8.58c-.43,0-.46-.5-.46-.5v-1.21h9.04v-2.29h-9.04v-1.29s.03-.5.46-.5h8.58v-2.77h-9.86c-1.65,0-2.2.55-2.2,2.2Z"/><path class="cls-2" d="m223.23,154.99v6.92c0,1.65.55,2.2,2.2,2.2h9.86v-2.77h-8.58c-.43,0-.46-.5-.46-.5v-1.21h9.04v-2.29h-9.04v-1.29s.03-.5.46-.5h8.58v-2.77h-9.86c-1.65,0-2.2.55-2.2,2.2Z"/><path class="cls-2" d="m169.83,158.45c0,3.13,2.53,5.66,5.66,5.66l6.86.06v-2.82h-6.86c-1.6,0-2.9-1.3-2.9-2.9s1.3-2.9,2.9-2.9h6.86v-2.76h-6.86c-3.13,0-5.66,2.53-5.66,5.66Z"/><path class="cls-2" d="m195.85,158.45c0,3.13,2.53,5.66,5.66,5.66l6.86.06v-2.82h-6.86c-1.6,0-2.9-1.3-2.9-2.9s1.3-2.9,2.9-2.9h6.86v-2.76h-6.86c-3.13,0-5.66,2.53-5.66,5.66Z"/></g></svg>