<?xml version="1.0" encoding="UTF-8"?><svg id="Layer_1" xmlns="http://www.w3.org/2000/svg" viewBox="0 0 320 240"><defs><style>.cls-1{fill:none;}.cls-1,.cls-2,.cls-3{stroke-width:0px;}.cls-3{fill:#bc2129;}</style></defs><path class="cls-1" d="m82.13,113.39c-5.01-1.03-9.98,1.7-12.14,6.66-3.29,7.53,2.11,16.09,10.4,16.04.34-.03.97-.05,1.58-.17,5.4-1.01,9.13-5.73,9.1-11.48-.03-5.35-3.79-9.99-8.95-11.05Z"/><path class="cls-1" d="m110.8,113.18c-6.45-.11-11.37,4.79-11.5,11.44-.12,6.46,4.73,11.38,11.31,11.48,6.18.09,11.18-4.89,11.29-11.25.11-6.37-4.83-11.56-11.11-11.67Z"/><path class="cls-1" d="m141.91,113.18c-6.4-.13-11.38,4.8-11.54,11.43-.15,6.41,4.75,11.38,11.32,11.49,6.14.1,11.19-4.87,11.31-11.12.12-6.45-4.79-11.66-11.09-11.79Z"/><path class="cls-1" d="m275.79,102.95h-1.01v1.17h.98c.28,0,.49-.04.62-.13.13-.09.2-.24.2-.46s-.06-.37-.18-.46c-.12-.09-.32-.13-.6-.13Z"/><path class="cls-1" d="m277.07,101.82c-.45-.27-.95-.4-1.48-.4-.81,0-1.51.29-2.09.86-.58.58-.88,1.28-.88,2.11,0,.52.13,1.01.4,1.47.27.46.63.82,1.09,1.09.46.27.95.4,1.49.4.8,0,1.49-.29,2.07-.86.58-.58.87-1.28.87-2.11,0-.51-.13-1-.39-1.46s-.62-.83-1.07-1.1Zm-.4,4.51c-.04-.15-.07-.34-.09-.58l-.04-.48c-.01-.24-.06-.39-.14-.47-.08-.07-.29-.11-.63-.11h-.99v1.65h-.63v-3.95h1.65c.5,0,.85.08,1.07.25.22.17.33.46.33.86s-.16.69-.49.86c.16.08.28.17.34.28.07.11.1.31.1.62v.45c0,.19.05.36.14.52l.06.11h-.7Z"/><path class="cls-3" d="m252.04,125.5h11.12c-.59,1.94-1.66,3.36-3.22,4.4-3.43,2.29-8.81,2.13-11.97-.53-3.87-3.26-4.79-7.56-3.63-12.25,1.01-4.13,3.73-6.85,8.03-7.58,4.05-.69,7.37.65,9.75,4.11.21.31.75.55,1.15.56,3.01.05,6.01.03,9.02.02.26,0,.51-.05.91-.08-.22-.62-.37-1.17-.59-1.67-2.19-4.91-5.95-8.18-10.91-10.08-1.74-.67-3.63-.97-5.45-1.44h-3.85c-.32.07-.64.17-.97.21-9.12,1.12-16.29,8.31-17.03,17.2-1.11,13.29,10.21,23.34,23.33,21.23,8.63-1.39,14.62-7.33,16.26-15.93.36-1.88.32-3.84.46-5.78h-22.37v7.61Z"/><path class="cls-3" d="m224.29,124.95c-.38-.25-.58-.55-.77-.85-4.39-7.1-8.8-14.19-13.14-21.32-.53-.88-1.1-1.17-2.09-1.13-1.92.08-3.85.02-5.78.02-.35,0-.71.03-1.06.05v37.37h8.99v-22.58c.28.43.5.74.71,1.07,4.37,6.92,8.74,13.83,13.09,20.76.37.59.75.82,1.44.8,2.16-.05,4.32-.01,6.49-.02.29,0,.58-.04.83-.05v-37.33h-9.11c.13,7.79.27,15.5.4,23.21Z"/><path class="cls-3" d="m190.05,138.8c-.22-.32-.41-.59-.59-.85-3.95-5.59-7.88-11.18-11.85-16.74-.48-.67-.45-1.1,0-1.76,3.74-5.56,7.45-11.14,11.16-16.72.2-.29.39-.59.66-1-.47-.03-.76-.06-1.06-.06-2.67,0-5.34.02-8.01-.02-.69,0-1.09.21-1.45.8-3.13,5.03-6.3,10.04-9.46,15.05-.18.29-.38.58-.57.87-.07-.03-.14-.06-.2-.09v-16.55h-9.48v37.33h9.57v-16.18c.35.54.53.81.71,1.09,3.05,4.81,6.1,9.61,9.12,14.43.35.56.72.75,1.37.75,3.11-.04,6.22-.01,9.33-.02.28,0,.55-.04.95-.07h9.27v-37.33h-9.44v37.07Z"/><path class="cls-2" d="m121.69,115.45c-5.77-7.39-15.73-6.64-21.32-1.5-5.73,5.26-6.23,14.58-1.04,20.36,2.64,2.94,5.96,4.59,9.88,4.93,5.04.43,9.25-1.21,12.54-5.56v4.96h3.48v-37.76h-3.54v14.57Zm-11.07,20.64c-6.58-.1-11.44-5.02-11.31-11.48.13-6.65,5.05-11.55,11.5-11.44,6.28.11,11.22,5.3,11.11,11.67-.11,6.36-5.11,11.34-11.29,11.25Z"/><path class="cls-2" d="m152.84,115.63c-5.19-7.37-15.25-6.91-20.84-2.14-6.14,5.23-6.96,14.27-1.84,20.49,2.54,3.08,5.88,4.8,9.83,5.22,5.16.55,9.5-1.07,12.88-5.54v4.94h3.47v-27.88h-3.49v4.9Zm-11.15,20.46c-6.57-.11-11.46-5.08-11.32-11.49.15-6.62,5.13-11.56,11.54-11.43,6.3.13,11.21,5.34,11.09,11.79-.12,6.26-5.17,11.23-11.31,11.12Z"/><path class="cls-2" d="m60.26,120.07c-1.93-1.58-4.23-2.42-6.59-3.16-1.73-.55-3.46-1.15-5.09-1.93-1.47-.71-2.43-1.98-2.7-3.66-.57-3.62,1.66-6.87,5.2-7.6,3.64-.74,7.17,1.46,8.02,5.02.13.54.2,1.09.3,1.64h3.64c0-.43.04-.8,0-1.17-.56-4.5-3.73-7.92-8.21-8.86-4.5-.94-9.28,1.08-11.49,4.88-2.96,5.07-1.14,11.03,4.13,13.54.65.31,1.33.57,2.01.8,2.01.71,4.07,1.31,6.04,2.11,2.04.84,3.66,2.2,4.37,4.41,1.24,3.87-.84,8.03-4.7,9.37-4.1,1.43-8.43-.5-9.83-4.42-.33-.93-.48-1.93-.72-2.93h-3.65c.04,2.15.52,4.08,1.56,5.85,2.96,5.02,10,6.87,15.46,4.08,6.95-3.55,8.15-13.15,2.25-17.97Z"/><path class="cls-2" d="m80.36,109.98c-7.83-.24-14.71,6.12-14.92,14.63-.09,7.97,6.57,14.48,14.24,14.72,7.49.23,14.6-6.15,14.95-13.63.39-8.46-5.9-15.46-14.27-15.72Zm1.62,25.94c-.62.12-1.25.13-1.58.17-8.29.05-13.69-8.51-10.4-16.04,2.16-4.96,7.13-7.68,12.14-6.66,5.15,1.06,8.92,5.7,8.95,11.05.03,5.75-3.7,10.47-9.1,11.48Z"/><path class="cls-2" d="m277.16,105.71v-.45c0-.3-.03-.51-.1-.62-.07-.11-.18-.2-.34-.28.33-.17.49-.46.49-.86s-.11-.69-.33-.86c-.22-.17-.58-.25-1.07-.25h-1.65v3.95h.63v-1.65h.99c.33,0,.54.04.63.11.08.08.13.23.14.47l.04.48c.02.24.05.43.09.58h.7l-.06-.11c-.1-.16-.14-.33-.14-.52Zm-.78-1.71c-.13.09-.34.13-.62.13h-.98v-1.17h1.01c.28,0,.48.04.6.13.12.09.18.24.18.46s-.07.37-.2.46Z"/><path class="cls-2" d="m278.56,102.69c-.3-.53-.72-.96-1.25-1.27-.53-.31-1.1-.47-1.72-.47s-1.17.15-1.7.46c-.53.31-.96.73-1.27,1.26-.31.53-.47,1.1-.47,1.71s.15,1.18.46,1.71c.31.53.73.95,1.26,1.26.53.31,1.1.47,1.71.47s1.18-.15,1.71-.46.95-.73,1.26-1.25c.31-.53.46-1.1.46-1.71s-.15-1.18-.46-1.71Zm-.89,3.8c-.58.58-1.27.86-2.07.86-.53,0-1.03-.13-1.49-.4-.46-.27-.82-.63-1.09-1.09-.27-.46-.4-.95-.4-1.47,0-.83.29-1.53.88-2.11.58-.58,1.28-.86,2.09-.86.53,0,1.02.13,1.48.4.45.27.81.63,1.07,1.1s.39.95.39,1.46c0,.83-.29,1.53-.87,2.11Z"/></svg>