<?xml version="1.0" encoding="UTF-8"?><svg id="Layer_1" xmlns="http://www.w3.org/2000/svg" viewBox="0 0 320 240"><defs><style>.cls-1{fill:#fff;}.cls-1,.cls-2{stroke-width:0px;}.cls-2{fill:#050505;}</style></defs><g id="Sydney_Restaurant_Group"><rect class="cls-2" x="66.69" y="54.21" width="186.63" height="131.57"/><path class="cls-1" d="m103.19,107.58c-.25-.32-.6-.59-1.05-.81-.45-.22-.91-.33-1.37-.33-.27,0-.55.03-.82.1-.27.07-.52.17-.74.32-.22.14-.41.33-.55.56-.14.23-.21.51-.21.83,0,.3.06.55.19.76.12.21.29.39.51.54.22.15.48.28.79.39.31.11.65.22,1.02.33.42.14.86.29,1.31.47.45.17.87.4,1.25.69.38.29.69.65.93,1.08.24.43.36.97.36,1.62,0,.71-.13,1.32-.39,1.85-.26.53-.61.97-1.04,1.31-.43.35-.94.61-1.53.78-.58.17-1.2.26-1.84.26-.86,0-1.69-.16-2.51-.47-.82-.32-1.49-.78-2.01-1.41l1.67-1.56c.32.45.75.8,1.29,1.06s1.07.39,1.59.39c.27,0,.55-.03.84-.1.29-.07.54-.18.77-.34.23-.16.42-.36.56-.6.14-.24.21-.54.21-.9s-.08-.64-.24-.87c-.16-.23-.38-.43-.65-.6-.27-.17-.6-.31-.97-.44-.37-.12-.76-.25-1.17-.39-.4-.12-.79-.27-1.19-.45-.4-.17-.75-.4-1.07-.69-.32-.29-.57-.64-.77-1.05-.2-.42-.3-.93-.3-1.55,0-.67.14-1.25.42-1.73.28-.48.64-.88,1.1-1.2.45-.32.97-.55,1.54-.71.58-.16,1.16-.23,1.76-.23.67,0,1.35.12,2.04.35.69.24,1.29.59,1.8,1.06l-1.53,1.68Z"/><path class="cls-1" d="m110.88,112.29l-4.95-7.46h2.87l3.31,5.55,3.35-5.55h2.72l-4.95,7.46v5.71h-2.34v-5.71Z"/><path class="cls-1" d="m120.2,104.82h4.67c.86,0,1.72.11,2.59.33.87.22,1.65.59,2.34,1.11.69.52,1.26,1.19,1.69,2.03.43.84.65,1.88.65,3.12,0,1.15-.22,2.15-.65,2.98-.43.83-1,1.51-1.69,2.05-.69.53-1.48.93-2.34,1.18-.87.25-1.73.38-2.59.38h-4.67v-13.18Zm4.3,11.13c.61,0,1.22-.07,1.82-.21.61-.14,1.16-.38,1.65-.73.49-.34.89-.8,1.2-1.39.31-.58.47-1.32.47-2.21,0-.94-.16-1.71-.47-2.31-.31-.6-.71-1.06-1.2-1.4-.49-.33-1.04-.56-1.65-.69-.61-.12-1.22-.19-1.82-.19h-1.95v9.12h1.95Z"/><path class="cls-1" d="m135.35,104.82h3.11l6.12,9.86h.04v-9.86h2.34v13.18h-2.98l-6.25-10.18h-.04v10.18h-2.34v-13.18Z"/><path class="cls-1" d="m150.8,104.82h8.73v2.05h-6.38v3.35h6.05v1.97h-6.05v3.72h6.72v2.08h-9.06v-13.18Z"/><path class="cls-1" d="m166.26,112.29l-4.95-7.46h2.87l3.31,5.55,3.35-5.55h2.72l-4.95,7.46v5.71h-2.34v-5.71Z"/><path class="cls-1" d="m96.48,125.43h4.58c.62,0,1.22.07,1.81.2.58.13,1.1.34,1.55.64.45.3.82.69,1.09,1.17.27.48.41,1.07.41,1.77,0,.96-.27,1.73-.81,2.34-.54.6-1.27,1.01-2.21,1.22l3.52,5.84h-2.83l-3.05-5.58h-1.71v5.58h-2.34v-13.18Zm4.26,5.68c.33,0,.67-.02,1-.07.33-.05.64-.14.9-.28.27-.14.49-.33.66-.59.17-.25.26-.58.26-.98,0-.36-.08-.65-.24-.88-.16-.23-.37-.41-.61-.55-.25-.14-.53-.23-.85-.28-.32-.05-.62-.07-.92-.07h-2.12v3.7h1.92Z"/><path class="cls-1" d="m109.11,125.43h8.73v2.05h-6.38v3.35h6.05v1.97h-6.05v3.72h6.72v2.08h-9.06v-13.18Z"/><path class="cls-1" d="m128.11,128.18c-.25-.32-.6-.59-1.05-.81-.45-.22-.91-.33-1.37-.33-.27,0-.55.03-.82.1-.27.07-.52.17-.74.32-.22.14-.41.33-.55.56-.14.23-.21.51-.21.83,0,.3.06.55.19.76.12.21.29.39.51.54.22.15.48.28.79.39.31.11.65.22,1.02.33.42.14.86.29,1.31.47.45.17.87.4,1.25.69.38.29.69.65.93,1.08.24.43.36.97.36,1.62,0,.71-.13,1.32-.39,1.85-.26.53-.61.97-1.04,1.31-.43.35-.94.61-1.53.78-.58.17-1.2.26-1.84.26-.86,0-1.69-.16-2.51-.47-.82-.32-1.49-.78-2.01-1.41l1.67-1.56c.32.45.75.8,1.29,1.06s1.07.39,1.59.39c.27,0,.55-.03.84-.1.29-.07.54-.18.77-.34.23-.16.42-.36.56-.6.14-.24.21-.54.21-.9s-.08-.64-.24-.87c-.16-.23-.38-.43-.65-.6-.27-.17-.6-.31-.97-.44-.37-.12-.76-.25-1.17-.39-.4-.12-.79-.27-1.19-.45-.4-.17-.75-.4-1.07-.69-.32-.29-.57-.64-.77-1.05-.2-.42-.3-.93-.3-1.55,0-.67.14-1.25.42-1.73.28-.48.64-.88,1.1-1.2.45-.32.97-.55,1.54-.71.58-.16,1.16-.23,1.76-.23.67,0,1.35.12,2.04.35.69.24,1.29.59,1.8,1.06l-1.53,1.68Z"/><path class="cls-1" d="m135.37,127.48h-4.04v-2.05h10.42v2.05h-4.04v11.13h-2.34v-11.13Z"/><path class="cls-1" d="m147.22,125.43h2.03l5.68,13.18h-2.68l-1.23-3.01h-5.71l-1.19,3.01h-2.62l5.73-13.18Zm2.98,8.15l-2.03-5.36-2.07,5.36h4.09Z"/><path class="cls-1" d="m167.4,133.77c0,.79-.14,1.51-.41,2.15-.27.64-.65,1.18-1.12,1.63-.47.45-1.03.79-1.67,1.03-.65.24-1.35.36-2.1.36s-1.46-.12-2.1-.36c-.65-.24-1.21-.59-1.68-1.03-.48-.45-.85-.99-1.12-1.63-.27-.64-.4-1.36-.4-2.15v-8.34h2.34v8.24c0,.38.05.77.15,1.14.1.38.26.72.49,1.01.23.3.53.54.91.73.38.19.85.28,1.41.28s1.03-.09,1.4-.28c.38-.19.68-.43.91-.73.23-.3.39-.64.49-1.01.1-.38.15-.76.15-1.14v-8.24h2.34v8.34Z"/><path class="cls-1" d="m171.12,125.43h4.58c.62,0,1.22.07,1.81.2.58.13,1.1.34,1.55.64.45.3.82.69,1.09,1.17.27.48.41,1.07.41,1.77,0,.96-.27,1.73-.81,2.34-.54.6-1.27,1.01-2.21,1.22l3.52,5.84h-2.83l-3.05-5.58h-1.71v5.58h-2.34v-13.18Zm4.26,5.68c.33,0,.67-.02,1-.07.33-.05.64-.14.9-.28.27-.14.49-.33.66-.59.17-.25.26-.58.26-.98,0-.36-.08-.65-.24-.88-.16-.23-.37-.41-.61-.55-.25-.14-.53-.23-.85-.28-.32-.05-.62-.07-.92-.07h-2.12v3.7h1.92Z"/><path class="cls-1" d="m187.89,125.43h2.03l5.68,13.18h-2.68l-1.23-3.01h-5.71l-1.19,3.01h-2.62l5.73-13.18Zm2.98,8.15l-2.03-5.36-2.07,5.36h4.09Z"/><path class="cls-1" d="m197.82,125.43h3.11l6.12,9.86h.04v-9.86h2.34v13.18h-2.98l-6.25-10.18h-.04v10.18h-2.34v-13.18Z"/><path class="cls-1" d="m215.93,127.48h-4.04v-2.05h10.42v2.05h-4.04v11.13h-2.34v-11.13Z"/><path class="cls-1" d="m108.01,158.52c-.67.32-1.4.57-2.21.75s-1.72.27-2.76.27-2.04-.17-2.92-.51c-.88-.34-1.64-.82-2.27-1.43-.63-.61-1.13-1.35-1.48-2.2-.35-.85-.53-1.79-.53-2.82s.18-2.01.55-2.86c.37-.85.87-1.57,1.51-2.17.64-.6,1.39-1.05,2.26-1.38.87-.32,1.81-.48,2.83-.48s2.02.15,2.89.46c.87.3,1.58.7,2.11,1.2l-1.62,1.75c-.33-.37-.8-.69-1.41-.95-.6-.26-1.26-.39-1.96-.39s-1.32.12-1.89.37c-.56.25-1.05.59-1.44,1.02-.4.43-.7.94-.92,1.53-.22.58-.33,1.22-.33,1.9s.11,1.36.33,1.94c.22.59.53,1.1.93,1.54.4.43.89.77,1.47,1.01.58.24,1.23.36,1.96.36,1,0,1.88-.16,2.62-.47v-3.35h-2.77v-1.93h5.04v6.83Z"/><path class="cls-1" d="m111.79,146.03h4.58c.62,0,1.22.07,1.81.2.58.13,1.1.34,1.55.64.45.3.82.69,1.09,1.17.27.48.41,1.07.41,1.77,0,.96-.27,1.73-.81,2.34-.54.6-1.27,1.01-2.21,1.22l3.52,5.84h-2.83l-3.05-5.58h-1.71v5.58h-2.34v-13.18Zm4.26,5.68c.33,0,.67-.02,1-.07.33-.05.64-.14.9-.28.27-.14.49-.33.66-.59.17-.25.26-.58.26-.98,0-.36-.08-.65-.24-.88-.16-.23-.37-.41-.61-.55-.25-.14-.53-.23-.85-.28-.32-.05-.62-.07-.92-.07h-2.12v3.7h1.92Z"/><path class="cls-1" d="m123.8,152.58c0-1.05.18-2.01.53-2.86.35-.85.84-1.57,1.47-2.17.63-.6,1.37-1.05,2.23-1.38.86-.32,1.8-.48,2.82-.48s1.98.16,2.85.48c.87.32,1.62.78,2.25,1.38.63.6,1.13,1.32,1.48,2.17.35.85.53,1.8.53,2.86s-.18,1.97-.53,2.82c-.35.85-.85,1.58-1.48,2.2-.63.61-1.38,1.09-2.25,1.43-.87.34-1.82.51-2.85.51s-1.96-.17-2.82-.51c-.86-.34-1.61-.82-2.23-1.43-.63-.61-1.12-1.35-1.47-2.2-.35-.85-.53-1.79-.53-2.82Zm2.55,0c0,.71.11,1.36.33,1.94.22.59.53,1.1.93,1.54.4.43.88.77,1.43,1.01.55.24,1.16.36,1.83.36s1.28-.12,1.84-.36c.56-.24,1.04-.58,1.44-1.01.4-.43.71-.95.93-1.54.22-.59.33-1.24.33-1.94s-.11-1.31-.33-1.9c-.22-.58-.52-1.09-.92-1.53-.4-.43-.87-.77-1.43-1.02-.56-.25-1.18-.37-1.86-.37s-1.3.12-1.85.37c-.55.25-1.03.59-1.42,1.02-.4.43-.7.94-.92,1.53-.22.58-.33,1.22-.33,1.9Z"/><path class="cls-1" d="m151.65,154.37c0,.79-.14,1.51-.41,2.15-.27.64-.65,1.18-1.12,1.63-.47.45-1.03.79-1.67,1.03-.65.24-1.35.36-2.1.36s-1.46-.12-2.1-.36c-.65-.24-1.21-.59-1.68-1.03-.48-.45-.85-.99-1.12-1.63-.27-.64-.4-1.36-.4-2.15v-8.34h2.34v8.24c0,.38.05.77.15,1.14.1.38.26.72.49,1.01.23.3.53.54.91.73.38.19.85.28,1.41.28s1.03-.09,1.4-.28c.38-.19.68-.43.91-.73.23-.3.39-.64.49-1.01.1-.38.15-.76.15-1.14v-8.24h2.34v8.34Z"/><path class="cls-1" d="m155.38,146.03h4.3c.76,0,1.44.07,2.05.21.61.14,1.13.36,1.56.67.43.31.77.71,1.01,1.19.24.48.35,1.07.35,1.75,0,.73-.14,1.35-.41,1.84-.27.5-.64.9-1.11,1.2-.47.3-1.01.52-1.63.66-.62.14-1.28.2-1.97.2h-1.81v5.45h-2.34v-13.18Zm3.98,5.75c.38,0,.75-.03,1.1-.08.35-.06.66-.16.93-.3.27-.14.49-.34.65-.59.16-.25.24-.57.24-.97s-.08-.7-.24-.94c-.16-.24-.38-.43-.64-.57-.27-.14-.57-.23-.91-.27-.34-.04-.69-.07-1.05-.07h-1.71v3.78h1.64Z"/><polygon class="cls-1" points="96.74 87.89 100.18 87.89 100.62 96.36 95.69 95.59 96.74 87.89"/><polygon class="cls-1" points="139.78 87.89 136.34 87.89 135.9 96.36 140.83 95.59 139.78 87.89"/><path class="cls-1" d="m101.14,89.16v4.04s28.3-.61,34.23,0v-4.04s-7.59-8.2-17.11-8.2-17.11,8.2-17.11,8.2Z"/></g></svg>