<svg xmlns="http://www.w3.org/2000/svg" viewBox="0 0 215.04 39.68">
  <path d="M143.43.76c-2.89,0-5.79,0-8.68,0-.53,0-.65.13-.65.65,0,6,0,12,0,18,0,2.38.14,4.77.17,7.19a3.34,3.34,0,0,1-.25-.4q-6.85-12.43-13.68-24.89a.89.89,0,0,0-.92-.55q-5.61,0-11.2,0c-.43,0-.57.08-.57.54q0,18.51,0,37c0,.47.15.55.57.54,2.93,0,5.87,0,8.81,0,.47,0,.59-.12.59-.59,0-3.23,0-6.46,0-9.69,0-3.46,0-6.93,0-10.39,0-1.34-.13-2.69-.21-4a1.11,1.11,0,0,1,.39.48q6.54,11.85,13.06,23.72a.81.81,0,0,0,.82.51c3.94,0,7.88,0,11.83,0,.52,0,.6-.18.6-.65q0-18.41,0-36.81C144.05.9,143.94.75,143.43.76Z" fill="#2b2b2a"></path>
  <path d="M96.27,31.06c-6,0-12,0-18,0-.47,0-.59-.1-.58-.58q0-3.11,0-6.23c0-.51.1-.66.64-.65,5.43,0,10.86,0,16.3,0,.5,0,.68-.1.67-.64q0-3.24,0-6.48c0-.58-.16-.69-.7-.68-5.43,0-10.87,0-16.3,0-.5,0-.62-.13-.61-.62,0-2,0-4,0-6,0-.54.11-.68.67-.68,5.81,0,11.63,0,17.44,0,.48,0,.58-.13.58-.59q0-3.27,0-6.55c0-.52-.14-.65-.66-.65Q82.06.78,68.4.76c-.53,0-.65.16-.64.66q0,9.2,0,18.38t0,18.44c0,.47.1.61.58.61q14,0,28,0c.44,0,.62-.07.62-.57,0-2.18,0-4.36,0-6.55C97,31.14,96.8,31.06,96.27,31.06Z" fill="#2b2b2a"></path>
  <path d="M209.41,19.47c-.72-.25-1.46-.45-2.24-.69l.64-.18a9.06,9.06,0,0,0,4.4-2.66,8.72,8.72,0,0,0,1.62-8.17c-.85-3.43-3.25-5.49-6.45-6.65A21.12,21.12,0,0,0,196,.48a13,13,0,0,0-10.79,11.73c-.05.45.1.51.49.51h8.94c.36,0,.5-.07.53-.46a7.23,7.23,0,0,1,.72-2.72,4.42,4.42,0,0,1,6.54-1.32,3.44,3.44,0,0,1,.91,1.19,4.56,4.56,0,0,1-2,5.9,9,9,0,0,1-4.07.9c-.41,0-.53.14-.52.54,0,1.81,0,3.61,0,5.42,0,.46.16.55.58.55a10.88,10.88,0,0,1,4.54.78,4.46,4.46,0,0,1,.95,7.67,6,6,0,0,1-6.21.54,5.86,5.86,0,0,1-3.22-4.46c-.09-.4-.2-.55-.63-.55q-4.44,0-8.88,0c-.48,0-.54.17-.49.59C184,32.25,186.34,36,191,38a21.66,21.66,0,0,0,16.6.16c4.34-1.67,7-4.83,7.4-9.58C215.37,24.17,213.69,21,209.41,19.47Z" fill="#a82123"></path>
  <path d="M58.56.76c-5.56,0-11.12,0-16.68,0S30.8.78,25.26.76c-.52,0-.67.13-.66.66q0,3.27,0,6.54c0,.48.12.59.59.59,3.67,0,7.34,0,11,0,.58,0,.76.1.76.73,0,9.63,0,19.26,0,28.89,0,.54.1.72.68.71,2.83,0,5.66,0,8.5,0,.64,0,.78-.16.78-.79,0-9.63,0-19.26,0-28.89,0-.53.14-.65.66-.65,3.69,0,7.38,0,11.08,0,.46,0,.63-.07.63-.59q-.06-3.29,0-6.55C59.24.86,59.07.76,58.56.76Z" fill="#2b2b2a"></path>
  <path d="M174.28,1.61c0-.47-.1-.61-.58-.59-1.2,0-2.39,0-3.59,0a14.26,14.26,0,0,0-6.73,1.53c-3.53,1.83-6.91,3.93-10.38,5.86-.29.17-.24.41-.24.65v8c0,.11-.06.25.12.37l11.45-6V12q0,13.18,0,26.37c0,.52.09.7.67.69,2.87,0,5.75,0,8.62,0,.55,0,.69-.12.69-.68q0-11.82,0-23.66C174.27,10.34,174.26,6,174.28,1.61Z" fill="#a82123"></path>
  <path d="M19.66,24.25q-4.72-4.74-9.45-9.5c-.32-.33-.45-.16-.67.06L.25,24.12c-.1.09-.26.15-.22.36h19.8C19.73,24.35,19.7,24.29,19.66,24.25Z" fill="#a82123"></path>
  <path d="M10.19,27.88c-.34-.33-.47-.13-.69.09Q4.87,32.62.21,37.26c-.08.09-.27.15-.19.33H19.88C16.58,34.29,13.37,31.1,10.19,27.88Z" fill="#2b2b2a"></path>
  <path d="M19.53,10.63Q14.87,5.95,10.2,1.27c-.34-.34-.48-.12-.69.09L.35,10.53c-.12.12-.34.2-.28.41H19.68A.31.31,0,0,0,19.53,10.63Z" fill="#a6a4a4"></path>
</svg>