<svg width="161" height="70" viewBox="0 0 161 70" fill="none" xmlns="http://www.w3.org/2000/svg">
<path d="M97.7059 47.5023C96.3565 47.5023 95.0025 47.5023 93.6531 47.5023C93.4057 47.5023 93.345 47.5603 93.3496 47.7921C93.3496 50.4673 93.3496 53.1426 93.3496 55.8178C93.3496 56.8789 93.415 57.9446 93.429 59.0236C93.3857 58.9668 93.3467 58.9072 93.3123 58.8452C91.1801 55.1475 89.051 51.4482 86.925 47.7475C86.891 47.6676 86.8307 47.6005 86.7532 47.5562C86.6757 47.512 86.5852 47.493 86.4955 47.5023C84.7492 47.5023 83.0061 47.5023 81.2661 47.5023C81.0654 47.5023 81 47.538 81 47.7431C81 53.2421 81 58.7412 81 64.2403C81 64.4498 81.07 64.4855 81.2661 64.481C82.6342 64.481 84.0069 64.481 85.3796 64.481C85.599 64.481 85.655 64.4275 85.655 64.218C85.655 62.7778 85.655 61.3377 85.655 59.8975C85.655 58.3548 85.655 56.8076 85.6317 55.2649C85.6317 54.6674 85.571 54.0655 85.5336 53.4814C85.6143 53.5348 85.6775 53.6091 85.7157 53.6954C87.7514 57.2178 89.784 60.7432 91.8135 64.2715C91.8425 64.3433 91.8949 64.4042 91.9631 64.4452C92.0312 64.4861 92.1114 64.505 92.1917 64.4989C94.036 64.4989 95.8756 64.4989 97.7199 64.4989C97.9627 64.4989 98 64.4186 98 64.2091C98 58.7397 98 53.2689 98 47.7966C97.9953 47.5647 97.944 47.4978 97.7059 47.5023Z" fill="#494949"/>
<path d="M75.6922 61.0489C73.0211 61.0489 70.3501 61.0489 67.679 61.0489C67.4698 61.0489 67.4164 60.9998 67.4208 60.79C67.4208 59.8614 67.4208 58.9374 67.4208 58.0088C67.4208 57.7811 67.4653 57.7142 67.7057 57.7186C70.123 57.7186 72.5403 57.7186 74.9621 57.7186C75.1847 57.7186 75.2648 57.674 75.2604 57.4329C75.2604 56.4686 75.2604 55.5044 75.2604 54.5401C75.2604 54.2812 75.1891 54.2321 74.9487 54.2365C72.5314 54.2365 70.1097 54.2365 67.6924 54.2365C67.4698 54.2365 67.4164 54.1785 67.4208 53.9597C67.4208 53.0669 67.4208 52.174 67.4208 51.2812C67.4208 51.0357 67.4698 50.9776 67.7191 50.9776C70.3056 50.9776 72.8965 50.9776 75.4829 50.9776C75.6966 50.9776 75.7411 50.9196 75.7411 50.7142C75.7411 49.741 75.7411 48.7634 75.7411 47.7902C75.7411 47.558 75.6788 47.5 75.4473 47.5H63.2852C63.0492 47.5 62.9958 47.5714 63.0003 47.7946C63.0003 50.5297 63.0003 53.2648 63.0003 55.9999C63.0003 58.735 63.0003 61.479 63.0003 64.2319C63.0003 64.4417 63.0448 64.5042 63.2585 64.4998H75.7233C75.9192 64.4998 75.9993 64.4685 75.9993 64.2453C75.9993 63.2721 75.9993 62.2989 75.9993 61.3213C76.0082 61.0846 75.9281 61.0489 75.6922 61.0489Z" fill="#494949"/>
<path d="M126.497 56.3382C126.178 56.2248 125.85 56.1341 125.505 56.0253L125.788 55.9437C126.539 55.7427 127.216 55.3238 127.738 54.7375C128.15 54.23 128.431 53.6253 128.557 52.9784C128.682 52.3314 128.648 51.6626 128.456 51.0327C128.079 49.4774 127.016 48.5433 125.598 48.0172C123.981 47.4485 122.242 47.3465 120.572 47.7225C119.312 47.9403 118.157 48.5813 117.292 49.5443C116.426 50.5073 115.898 51.7377 115.791 53.0415C115.791 53.2456 115.835 53.2728 116.008 53.2728H119.97C120.129 53.2728 120.191 53.2411 120.205 53.0642C120.231 52.6357 120.339 52.2166 120.524 51.8308C120.662 51.5808 120.85 51.3642 121.077 51.1955C121.304 51.0269 121.564 50.9102 121.839 50.8534C122.114 50.7966 122.398 50.8011 122.671 50.8664C122.944 50.9318 123.2 51.0566 123.422 51.2323C123.593 51.3796 123.731 51.5639 123.825 51.7719C124.036 52.2498 124.061 52.7916 123.897 53.288C123.732 53.7845 123.39 54.1987 122.939 54.4473C122.377 54.7258 121.759 54.8656 121.135 54.8554C120.954 54.8554 120.9 54.9143 120.905 55.1002C120.905 55.921 120.905 56.7372 120.905 57.558C120.905 57.7666 120.976 57.8074 121.162 57.8074C121.849 57.777 122.535 57.8976 123.174 58.1611C123.495 58.2969 123.776 58.5171 123.987 58.7993C124.199 59.0816 124.334 59.416 124.379 59.7688C124.424 60.1216 124.377 60.4803 124.243 60.8087C124.11 61.137 123.893 61.4235 123.617 61.6391C123.224 61.9339 122.76 62.1127 122.274 62.1559C121.789 62.1991 121.302 62.105 120.865 61.8839C120.483 61.6921 120.154 61.4073 119.905 61.0547C119.656 60.7021 119.496 60.2924 119.438 59.8615C119.398 59.6801 119.349 59.6121 119.159 59.6121C117.847 59.6121 116.535 59.6121 115.224 59.6121C115.011 59.6121 114.984 59.6892 115.006 59.8797C115.241 62.1469 116.283 63.8338 118.343 64.7135C119.505 65.22 120.752 65.4871 122.014 65.4995C123.277 65.512 124.529 65.2695 125.7 64.7861C127.623 64.0288 128.802 62.5959 128.979 60.4419C129.139 58.4785 128.394 57.0229 126.497 56.3382Z" fill="#494949"/>
<path d="M57.6926 47.5C55.2872 47.5 52.8817 47.5 50.4762 47.5C48.0707 47.5 45.6826 47.5 43.2857 47.5C43.0608 47.5 42.9959 47.558 43.0002 47.7944C43.0002 48.7668 43.0002 49.7393 43.0002 50.7117C43.0002 50.9258 43.0521 50.9749 43.2555 50.9704C44.8432 50.9704 46.431 50.9704 48.0145 50.9704C48.2654 50.9704 48.3433 51.0151 48.339 51.2961C48.339 55.5918 48.339 59.8874 48.339 64.1831C48.339 64.424 48.3822 64.5043 48.6332 64.4998C49.8575 64.4998 51.0819 64.4998 52.3106 64.4998C52.5875 64.4998 52.6481 64.4285 52.6481 64.1474C52.6481 59.8518 52.6481 55.5561 52.6481 51.2604C52.6481 51.024 52.7086 50.9704 52.9336 50.9704C54.5301 50.9704 56.1265 50.9704 57.7273 50.9704C57.9263 50.9704 57.9998 50.9392 57.9998 50.7073C57.9825 49.7319 57.9825 48.7579 57.9998 47.7855C58.0041 47.5446 57.9306 47.5 57.6926 47.5Z" fill="#494949"/>
<path d="M110.986 47.7655C110.986 47.5553 110.94 47.4927 110.717 47.5017C110.161 47.5017 109.609 47.5017 109.052 47.5017C107.969 47.4777 106.897 47.7127 105.931 48.1857C104.294 49.0039 102.726 49.9428 101.117 50.8056C100.983 50.8816 101.006 50.9845 101.006 51.0962V54.6729C101.006 54.7221 100.973 54.7847 101.061 54.8383L106.372 52.1558V52.4017C106.372 56.3301 106.372 60.26 106.372 64.1913C106.372 64.4238 106.413 64.5043 106.682 64.4998C108.013 64.4998 109.349 64.4998 110.68 64.4998C110.935 64.4998 111 64.4462 111 64.1958C111 60.6728 111 57.1468 111 53.6178C110.981 51.6685 110.977 49.7147 110.986 47.7655Z" fill="#494949"/>
<path d="M40.9228 58.4072C39.4914 57.1283 38.0555 55.8575 36.6287 54.5746C36.4833 54.4414 36.4242 54.51 36.3242 54.5988C34.9156 55.8535 33.5069 57.1001 32.1028 58.3548C32.0574 58.3911 31.9847 58.4153 32.0029 58.5H41C40.9546 58.4476 40.9409 58.4233 40.9228 58.4072Z" fill="#494949"/>
<path d="M36.613 60.5707C36.4591 60.4371 36.4002 60.518 36.3006 60.6071C34.9032 61.8615 33.5012 63.1147 32.0947 64.3665C32.0585 64.4029 31.9725 64.4272 32.0087 64.5H41C39.506 63.1646 38.0527 61.8737 36.613 60.5707Z" fill="#494949"/>
<path d="M40.9257 51.37C39.4985 50.1052 38.0728 48.8391 36.6486 47.5716C36.4927 47.4335 36.4285 47.5229 36.3323 47.6082L32.133 51.3334C32.078 51.3822 31.9772 51.4147 32.0047 51.5H40.9991C41.0023 51.4744 40.997 51.4485 40.984 51.4254C40.971 51.4024 40.9508 51.3831 40.9257 51.37Z" fill="#494949"/>
</svg>
