<?xml version="1.0" encoding="UTF-8"?><svg id="Layer_1" xmlns="http://www.w3.org/2000/svg" viewBox="0 0 320 240"><defs><style>.cls-1{fill:#a5a5a5;}.cls-2{fill:#2b2b2b;}.cls-3{fill:#4a4a4a;}</style></defs><path class="cls-2" d="m195.91,99.31c-2.89.02-5.79.03-8.69,0-.53,0-.65.13-.65.65.02,6,0,12,.01,18,0,2.39.14,4.77.17,7.2-.08-.13-.18-.26-.25-.4-4.56-8.29-9.13-16.59-13.68-24.89-.22-.4-.45-.56-.92-.55-3.73.02-7.47.02-11.2,0-.42,0-.57.08-.57.54.01,12.33.01,24.67,0,37,0,.46.15.54.57.54,2.94-.02,5.87-.02,8.81,0,.47,0,.59-.11.59-.59-.02-3.23,0-6.46-.01-9.69,0-3.46,0-6.92-.05-10.38-.02-1.35-.14-2.7-.21-4.04.2.13.3.3.39.48,4.36,7.91,8.72,15.81,13.06,23.73.2.36.39.5.81.5,3.94-.02,7.89-.02,11.83,0,.53,0,.61-.18.61-.64-.01-12.27-.01-24.54,0-36.82,0-.49-.12-.63-.62-.63Z"/><path class="cls-2" d="m148.75,129.61c-6,.02-12,0-18,.02-.47,0-.59-.11-.58-.58.03-2.08.03-4.15,0-6.23,0-.51.1-.66.64-.66,5.43.02,10.87,0,16.3.03.5,0,.68-.1.67-.64-.03-2.16-.04-4.32,0-6.48,0-.57-.16-.68-.7-.68-5.43.02-10.87,0-16.3.03-.5,0-.62-.13-.61-.62.03-2.01.03-4.03,0-6.04,0-.55.12-.68.67-.68,5.81.02,11.62,0,17.44.03.48,0,.58-.12.58-.59-.03-2.18-.03-4.36,0-6.55,0-.52-.13-.66-.66-.66-9.11.02-18.21.02-27.32,0-.54,0-.65.16-.65.67.02,6.13.01,12.25.01,18.38,0,6.15,0,12.29-.01,18.44,0,.46.11.6.59.6,9.34-.01,18.67-.01,28.01,0,.44,0,.62-.07.61-.57-.03-2.18-.04-4.36,0-6.55.01-.58-.17-.67-.7-.67Z"/><path class="cls-3" d="m261.89,118.02c-.72-.25-1.46-.45-2.24-.69.24-.07.44-.12.64-.19,1.68-.54,3.25-1.28,4.4-2.66,2.03-2.42,2.35-5.23,1.62-8.17-.85-3.43-3.25-5.49-6.46-6.65-3.7-1.34-7.5-1.38-11.34-.65-6.03,1.16-10.14,5.64-10.8,11.74-.05.45.1.51.5.51,2.98-.01,5.96-.01,8.94,0,.36,0,.5-.07.53-.46.08-.94.28-1.86.71-2.71,1.19-2.31,4.54-2.99,6.54-1.32.39.33.69.72.91,1.19,1.01,2.15.13,4.77-1.97,5.91-1.27.69-2.66.85-4.07.89-.41.01-.53.14-.52.55.02,1.8.03,3.61,0,5.41,0,.47.17.55.58.55,1.55.01,3.1.12,4.55.78,3.16,1.44,3.73,5.74.95,7.67-1.92,1.33-4.07,1.51-6.21.55-1.89-.85-2.78-2.52-3.22-4.46-.09-.4-.2-.55-.63-.55-2.96.02-5.92.02-8.87,0-.48,0-.54.17-.49.59.53,4.96,2.88,8.72,7.54,10.66,5.46,2.29,11.08,2.28,16.6.16,4.33-1.67,6.98-4.83,7.39-9.58.38-4.36-1.3-7.57-5.58-9.06Z"/><path class="cls-2" d="m111.04,99.31c-5.56.02-11.12.01-16.68.01s-11.08,0-16.62-.01c-.52,0-.67.13-.67.66.03,2.18.03,4.36,0,6.55,0,.48.13.59.59.58,3.67-.02,7.34,0,11.02-.03.58,0,.76.1.76.73-.02,9.63-.01,19.26-.03,28.89,0,.54.1.71.68.71,2.83-.03,5.67-.04,8.5,0,.65,0,.78-.16.78-.79-.02-9.63-.01-19.26-.03-28.89,0-.53.14-.65.66-.65,3.69.02,7.39,0,11.08.02.46,0,.64-.08.63-.6-.03-2.18-.03-4.36,0-6.55,0-.54-.17-.64-.67-.64Z"/><path class="cls-3" d="m226.76,100.16c0-.47-.1-.61-.58-.59-1.19.04-2.39.02-3.59.01-2.37-.02-4.63.45-6.73,1.53-3.53,1.83-6.91,3.93-10.38,5.86-.3.16-.24.4-.24.65,0,2.66,0,5.33,0,7.99,0,.11-.07.25.12.37,3.77-1.97,7.56-3.96,11.45-5.99v.55c0,8.79,0,17.58-.01,26.37,0,.53.09.7.67.69,2.87-.04,5.75-.03,8.62,0,.54,0,.69-.12.68-.68-.02-7.89-.01-15.77-.01-23.66,0-4.36,0-8.73.01-13.09Z"/><path class="cls-3" d="m72.14,122.8c-3.15-3.16-6.31-6.32-9.45-9.5-.32-.33-.45-.16-.67.07-3.1,3.1-6.2,6.2-9.29,9.3-.09.09-.26.16-.22.37h19.8c-.1-.14-.13-.19-.17-.23Z"/><path class="cls-2" d="m62.67,126.43c-.34-.34-.47-.13-.68.08-3.1,3.1-6.19,6.2-9.29,9.3-.09.09-.28.14-.2.32h19.86c-3.3-3.29-6.5-6.49-9.69-9.7Z"/><path class="cls-1" d="m72.01,109.17c-3.11-3.12-6.23-6.22-9.33-9.35-.34-.34-.48-.12-.69.09-3.05,3.06-6.11,6.11-9.16,9.17-.12.12-.34.2-.28.41h19.6c.03-.18-.07-.24-.14-.31Z"/></svg>