<?xml version="1.0" encoding="UTF-8"?><svg id="Layer_1" xmlns="http://www.w3.org/2000/svg" viewBox="0 0 320 240"><defs><style>.cls-1{fill:#203860;}.cls-1,.cls-2{stroke-width:0px;}.cls-2{fill:#fff;}</style></defs><g id="Thomas_Electronics_of_Australia_Pty_Ltd"><rect class="cls-1" x="45.88" y="94.89" width="228.23" height="50.21"/><path class="cls-2" d="m64.64,116.67h-4.4v-.87h9.83v.87h-4.39v7.79h-1.04v-7.79Z"/><path class="cls-2" d="m71.57,115.8h1.04v3.79h8.11v-3.79h1.04v8.66h-1.04v-4.05h-8.11v4.05h-1.04v-8.66Z"/><path class="cls-2" d="m94.37,116.5c.56.58.69,1.26.69,3.62s-.13,3.05-.69,3.63c-.66.69-1.32.79-4.88.79s-4.22-.1-4.88-.79c-.56-.58-.69-1.26-.69-3.62s.13-3.06.69-3.63c.66-.69,1.32-.79,4.93-.79s4.17.12,4.83.79Zm-8.92.65c-.36.38-.45,1-.45,2.99s.09,2.6.45,2.97c.44.47.99.53,4.04.53s3.6-.08,4.04-.53c.36-.38.45-1,.45-2.97s-.09-2.61-.45-2.99c-.4-.44-1.13-.53-3.99-.53s-3.67.09-4.09.53Z"/><path class="cls-2" d="m97.23,115.8h1.67l5.22,7.45,5.23-7.45h1.62v8.66h-1.04v-7.8l-5.45,7.8h-.77l-5.45-7.8v7.8h-1.04v-8.66Z"/><path class="cls-2" d="m114.69,122.51l-1.14,1.95h-1.16l5.1-8.66h1.47l5.1,8.66h-1.14l-1.14-1.95h-7.09Zm3.54-5.98l-3.05,5.17h6.1l-3.05-5.17Z"/><path class="cls-2" d="m125.97,121.75v.23c0,.87.18,1.22.74,1.4.51.17,1.47.25,3.02.25,3.39,0,4-.26,4-1.7,0-.73-.22-1.05-.8-1.22-.57-.16-.62-.16-4.49-.18-1.57-.01-2.25-.13-2.78-.48-.52-.35-.73-.83-.73-1.69,0-1.3.47-2.04,1.49-2.34.74-.22,1.88-.32,3.66-.32,2,0,3.02.14,3.62.52.64.39.83.84.87,2.05h-1.01c-.01-.69-.13-1-.42-1.22-.4-.31-1.3-.44-3.05-.44-3.41,0-4.08.27-4.08,1.66,0,.6.17.93.53,1.1.45.21.84.23,3.3.25,2.75.01,3.35.07,3.97.36.7.34.99.92.99,2,0,1.19-.4,1.91-1.26,2.23-.64.23-1.62.32-3.62.32-2.1,0-3.09-.09-3.79-.32-.78-.27-1.21-.93-1.21-1.87v-.6h1.04Z"/><path class="cls-2" d="m142.71,115.8h8.62v.87h-7.58v2.9h7.31v.82h-7.31v3.21h7.65v.87h-8.68v-8.66Z"/><path class="cls-2" d="m153.34,115.8h1.04v7.79h6.87v.87h-7.91v-8.66Z"/><path class="cls-2" d="m162.71,115.8h8.62v.87h-7.58v2.9h7.31v.82h-7.31v3.21h7.65v.87h-8.68v-8.66Z"/><path class="cls-2" d="m183.36,121.55v.36c0,1.04-.1,1.49-.44,1.88-.32.39-.75.57-1.54.66-.49.04-1.97.09-3.14.09-3.13,0-3.89-.13-4.53-.79-.56-.57-.69-1.26-.69-3.62,0-2.7.18-3.39,1.06-3.95.66-.42,1.38-.48,4.95-.48,2.17,0,2.92.1,3.45.49.58.4.77.95.8,2.32h-1.01v-.22c0-1.53-.36-1.69-4-1.69-4.15,0-4.18.01-4.18,3.52,0,1.97.09,2.6.45,2.97.42.43,1.08.53,3.5.53,3.89,0,4.3-.14,4.3-1.6v-.49h1.01Z"/><path class="cls-2" d="m188.88,116.67h-4.4v-.87h9.83v.87h-4.39v7.79h-1.04v-7.79Z"/><path class="cls-2" d="m195.81,115.8h7.14c1.31,0,1.92.17,2.38.66.35.39.53,1.05.53,1.99,0,1.4-.32,1.9-1.39,2.14.88.17,1.22.62,1.22,1.62v2.25h-1.04v-1.65c.03-1.49-.35-1.86-1.86-1.84h-5.95v3.49h-1.04v-8.66Zm6.74,4.35c1.78,0,2.23-.35,2.23-1.75s-.47-1.73-2.3-1.73h-5.63v3.48h5.7Z"/><path class="cls-2" d="m218.23,116.5c.56.58.69,1.26.69,3.62s-.13,3.05-.69,3.63c-.66.69-1.32.79-4.88.79s-4.22-.1-4.88-.79c-.56-.58-.69-1.26-.69-3.62s.13-3.06.69-3.63c.66-.69,1.32-.79,4.93-.79s4.17.12,4.83.79Zm-8.92.65c-.36.38-.45,1-.45,2.99s.09,2.6.45,2.97c.44.47.99.53,4.04.53s3.6-.08,4.04-.53c.36-.38.45-1,.45-2.97s-.09-2.61-.45-2.99c-.4-.44-1.13-.53-3.99-.53s-3.67.09-4.09.53Z"/><path class="cls-2" d="m221.08,115.8h1.67l8.18,7.92v-7.92h1.04v8.66h-1.67l-8.18-7.92v7.92h-1.04v-8.66Z"/><path class="cls-2" d="m234.4,115.8h1.04v8.66h-1.04v-8.66Z"/><path class="cls-2" d="m247.95,121.55v.36c0,1.04-.1,1.49-.44,1.88-.32.39-.75.57-1.54.66-.49.04-1.97.09-3.14.09-3.13,0-3.89-.13-4.53-.79-.56-.57-.69-1.26-.69-3.62,0-2.7.18-3.39,1.06-3.95.66-.42,1.38-.48,4.95-.48,2.17,0,2.92.1,3.45.49.58.4.77.95.8,2.32h-1.01v-.22c0-1.53-.36-1.69-4-1.69-4.15,0-4.18.01-4.18,3.52,0,1.97.09,2.6.45,2.97.42.43,1.08.53,3.5.53,3.89,0,4.3-.14,4.3-1.6v-.49h1.01Z"/><path class="cls-2" d="m250.79,121.75v.23c0,.87.18,1.22.74,1.4.51.17,1.47.25,3.02.25,3.39,0,4-.26,4-1.7,0-.73-.22-1.05-.8-1.22-.57-.16-.62-.16-4.49-.18-1.57-.01-2.25-.13-2.78-.48-.52-.35-.73-.83-.73-1.69,0-1.3.47-2.04,1.49-2.34.74-.22,1.88-.32,3.66-.32,2,0,3.02.14,3.62.52.64.39.83.84.87,2.05h-1.01c-.01-.69-.13-1-.42-1.22-.4-.31-1.3-.44-3.05-.44-3.41,0-4.08.27-4.08,1.66,0,.6.17.93.53,1.1.45.21.84.23,3.3.25,2.75.01,3.35.07,3.97.36.7.34.99.92.99,2,0,1.19-.4,1.91-1.26,2.23-.64.23-1.62.32-3.62.32-2.1,0-3.09-.09-3.79-.32-.78-.27-1.21-.93-1.21-1.87v-.6h1.04Z"/><rect class="cls-2" x="59.9" y="110.89" width="200.59" height="1.29"/><rect class="cls-2" x="59.9" y="127.94" width="200.59" height="1.29"/></g></svg>