<?xml version="1.0" encoding="UTF-8"?><svg id="Layer_1" xmlns="http://www.w3.org/2000/svg" viewBox="0 0 320 240"><defs><style>.cls-1{fill:#888;}.cls-2{fill:#3b3b3b;}</style></defs><g id="Tiliter_Pty_Ltd"><path class="cls-1" d="m160.6,58.13c-11.69,0-22.27,4.77-29.89,12.47h59.79c-7.63-7.7-18.2-12.47-29.89-12.47Z"/><path class="cls-1" d="m165.18,142.04c2.1-.23,4.14-.61,6.14-1.13v-31.36c-.66-.71-1.07-1.67-1.07-2.72,0-2.21,1.79-3.99,3.99-3.99s3.99,1.79,3.99,3.99c0,1.05-.41,2-1.07,2.72v29.35c15.01-6.43,25.52-21.33,25.52-38.69,0-.2,0-.39,0-.58h-37.49v42.42Z"/><path class="cls-1" d="m120.34,87.94c-.58,1.9-1.03,3.85-1.33,5.84h19.59c.71-.66,1.67-1.07,2.72-1.07,2.21,0,3.99,1.79,3.99,3.99s-1.79,3.99-3.99,3.99c-1.05,0-2-.41-2.72-1.07h-20.07c0,.19,0,.39,0,.58,0,18.9,12.46,34.89,29.61,40.2v-52.47h-27.79Z"/><path class="cls-1" d="m202.19,93.78c-.31-2-.76-3.95-1.33-5.84h-36.28c-.71.66-1.67,1.07-2.72,1.07-2.21,0-3.99-1.79-3.99-3.99s1.79-3.99,3.99-3.99c1.05,0,2,.41,2.72,1.07h34.01c-.94-1.97-2.04-3.86-3.26-5.65h-69.45c-1.23,1.79-2.32,3.68-3.26,5.65h31.37v59.68c1.75.28,3.54.45,5.36.5v-48.49h42.86Z"/><circle class="cls-1" cx="161.86" cy="85.01" r="1.75"/><circle class="cls-1" cx="174.23" cy="106.74" r="1.75"/><circle class="cls-1" cx="141.31" cy="96.7" r="1.75"/><path class="cls-2" d="m90.85,158.43c0,.21.18.39.39.39h6.79c.21,0,.39.18.39.39v22.24c0,.21.18.39.39.39h5.26c.21,0,.39-.18.39-.39v-22.24c0-.21.18-.39.39-.39h6.4c.21,0,.39-.18.39-.39v-4.48c0-.21-.18-.39-.39-.39h-20c-.21,0-.39.18-.39.39v4.48Z"/><path class="cls-2" d="m158,158.43c0,.21.18.39.39.39h6.4c.21,0,.39.18.39.39v22.24c0,.21.18.39.39.39h5.65c.21,0,.39-.18.39-.39v-22.24c0-.21.18-.39.39-.39h6.4c.21,0,.39-.18.39-.39v-4.48c0-.21-.18-.39-.39-.39h-20c-.21,0-.39.18-.39.39v4.48Z"/><rect class="cls-2" x="114.85" y="153.65" width="6.43" height="28.18" rx=".39" ry=".39"/><rect class="cls-2" x="148.68" y="153.65" width="6.43" height="28.18" rx=".39" ry=".39"/><path class="cls-2" d="m133.42,154.04c0-.21-.18-.39-.39-.39h-5.65c-.21,0-.39.18-.39.39v27.44c0,.21.18.39.39.39h17.24c.21,0,.39-.18.39-.39v-4.48c0-.21-.18-.39-.39-.39h-10.81c-.21,0-.39-.18-.39-.39v-22.18Z"/><path class="cls-2" d="m201.8,158.82c.21,0,.39-.18.39-.39v-4.48c0-.21-.18-.39-.39-.39h-19.77c-.21,0-.39.18-.39.39v27.53c0,.21.18.39.39.39h19.77c.21,0,.39-.18.39-.39v-4.87c0-.21-.18-.39-.39-.39h-12.95c-.21,0-.39-.18-.39-.39v-5.29c0-.21.18-.39.39-.39h10c.21,0,.39-.18.39-.39v-4.48c0-.21-.18-.39-.39-.39h-10c-.21,0-.39-.18-.39-.39v-5.29c0-.21.18-.39.39-.39h12.95Z"/><path class="cls-2" d="m212.84,158.62s-.03.01-.03.03.01.01.03,0c.02-.01.02-.03,0-.03Z"/><path class="cls-2" d="m224.22,169.9c-.08-.2.02-.4.22-.46,0,0,4.56-1.23,4.56-7.52,0-4.62-3.74-8.36-8.36-8.36h-1.13c-.21,0-.4,0-.4.01,0,0-.01,0-.01,0s-.18-.01-.39-.01h-12.34c-.21,0-.39.18-.39.39v27.53c0,.21.18.39.39.39h6.04c.21,0,.39-.18.39-.39v-10.39c0-.21.18-.39.39-.39h3.77c.21,0,.45.16.53.36l4.04,10.44c.08.2.32.36.53.36h6.82c.21,0,.32-.16.24-.36l-4.9-11.61Zm-11.02-4.03c-.21,0-.39-.18-.39-.39v-6.82s.01-.03.03-.03.02.01,0,.03c-.02.01.14.03.36.03h5.51c.21,0,.56.04.77.09,0,0,2.51.6,2.51,3.49s-2.91,3.52-2.91,3.52c-.21.05-.55.09-.77.09h-5.12Z"/></g></svg>