<?xml version="1.0" encoding="UTF-8"?><svg id="Layer_1" xmlns="http://www.w3.org/2000/svg" viewBox="0 0 320 240"><defs><style>.cls-1{fill:#13254a;stroke-width:0px;}</style></defs><path class="cls-1" d="m102.63,148.01c-3.22,1.15-6.46,2.25-9.9,2.57-5.37.5-10.49-.5-15.44-2.56-3.78-1.57-7.43-3.45-11.46-4.37-2.23-.51-4.44-.57-6.75.17,1.39,1.93,2.93,3.58,4.59,5.11,6.7,6.14,14.56,9.64,23.63,10.41.79.28,1.65-.1,2.44.22h3.4c.16-.16.32-.24.5-.28-1.01.08-2.03.12-3.07.12-7.27,0-14.07-1.96-19.92-5.39h39.84c-4.94,2.89-10.57,4.74-16.59,5.24.31,0,.63.07.93.04,8.66-1.07,16.24-4.49,22.66-10.41.75-.69,1.52-1.37,2.16-2.3-5.88-.87-11.51-.55-17.02,1.42h0Z"/><path class="cls-1" d="m87.34,88.22c2.57-2.26,4.77-4.86,7.03-7.44-.62-.26-1.23.1-1.7-.34h-4.61c-.17.34-.5.2-.75.22-8.94.74-16.71,4.17-23.35,10.16-2.15,1.94-4.1,4.07-5.78,6.63,4.53-.76,8.91-1.41,13.25-2.24,5.83-1.12,11.36-2.97,15.93-7h-.02Z"/><path class="cls-1" d="m129.16,122.87c-.95-.14-1.89-.39-2.83-.59-3.27-.69-6.54-1.39-9.87-1.71-4.16-.4-7.95.74-11.64,2.54-3.11,1.52-6.27,2.96-9.83,3.06-3.53.1-6.85-.49-9.53-3-2.88-2.69-2.32-6.91,1.12-8.84,1.31-.73,2.71-.99,4.19-.85.37.03.74.15.65-.48-.4-2.93-3.25-5.71-6.27-6.08-1.53-.19-3.06-.14-4.58.13-5.15.91-9.91,2.95-14.65,5.03-4.89,2.15-9.66,4.54-14.73,6.26-.03,1.21-.06,2.42-.08,3.63.17,2.77.51,5.5,1.34,8.28,5.96-4.22,12.2-4.26,18.65-1.55,2.63,1.11,5.25,2.23,7.89,3.28,3.07,1.22,6.23,2.14,9.56,2.35,3.95.25,7.65-.82,11.33-2.05,4.29-1.43,8.6-2.62,13.2-2.62,4.87,0,9.63.86,14.41,1.65.53.09.93.19,1.1-.49.58-2.35,1.11-4.7,1.29-7.12.04-.61-.16-.74-.71-.82h0Z"/><path class="cls-1" d="m129.17,111.65c-.17-.85-.51-.95-1.2-.83-3.99.63-8,1.11-12.03,1.27-3.48.13-6.94.01-10.24-1.31-4.39-1.77-8.37-6.53-7.45-12,.45-2.66,1.85-4.86,3.52-6.92,2.04-2.51,4.45-4.67,6.85-6.95-3.03-1.62-6.18-2.65-9.42-3.46-.45-.11-.67.21-.91.46-.97,1.03-1.94,2.06-2.88,3.11-2.45,2.74-4.91,5.46-7.93,7.62-5.39,3.87-11.63,5.35-18,6.48-4.32.77-8.68,1.34-12.93,2.44-.52.14-1.06.17-1.37.81-1.87,3.81-3.12,7.79-3.71,12,.5.1.85-.15,1.2-.31,3.12-1.38,6.24-2.77,9.34-4.19,6.18-2.82,12.35-5.7,19.21-6.49,4.11-.47,7.93.12,10.84,3.4,2.47,2.78,3.24,6.24,3.49,9.82.09,1.33-1.38,2.12-2.58,1.46-.78-.43-1.57-.84-2.45-.96-1.68-.24-2.94.35-3.33,1.53-.33,1.01.35,2.11,1.94,2.81,2.57,1.13,5.23,1.51,8.02.87,2.93-.67,5.58-2.05,8.25-3.32,4.24-2.01,8.65-2.35,13.22-1.75,3.52.47,6.95,1.35,10.41,2.12,1.02.22,1.05-.09.99-.89-.16-2.29-.43-4.57-.87-6.83h.02Z"/><path class="cls-1" d="m126.25,134.58c-1.36-.17-2.72-.34-4.07-.58-7.24-1.31-14.32-1.03-21.28,1.67-5.4,2.1-10.99,2.73-16.74,1.57-3.94-.79-7.55-2.43-11.21-3.99-3.29-1.4-6.58-2.84-11.73-2.9-1.78-.05-4.56,1.22-7.17,3.01-.49.34-.45.61-.26,1.08.76,1.91,1.68,3.74,2.68,5.53.34.6.63.73,1.33.51,2.69-.87,5.43-1,8.23-.43,3.7.76,7.08,2.35,10.5,3.82,3.45,1.48,6.96,2.78,10.7,3.24,4.08.51,8.01-.38,11.87-1.67,3.39-1.13,6.77-2.28,10.36-2.68,4.01-.44,7.98-.17,11.95.47.55.09,1.03.14,1.46-.48,1.55-2.27,2.87-4.66,4.02-7.15.35-.76.05-.95-.63-1.04v.02Z"/><path class="cls-1" d="m103.12,95.91c-2.74,4.29-1.5,8.68,3.01,11.05,2.78,1.46,5.79,1.53,8.79,1.64,4.02-.14,7.98-.65,11.95-1.08,1.12-.12,1.04-.53.72-1.34-2.81-7.24-7.27-13.23-13.5-17.89-2.18-1.63-2.21-1.65-4.18.26-2.4,2.33-4.97,4.51-6.8,7.37h.01Z"/><path class="cls-1" d="m209.31,108.83c-1.54.03-3.07.03-4.61,0-.53,0-.74.16-.92.69-.92,2.74-1.9,5.45-2.87,8.17-.82,2.3-1.64,4.59-2.55,7.15-1.85-5.2-3.62-10.1-5.33-15.03-.25-.73-.53-1.03-1.33-.99-1.33.07-2.67.09-4,0-.92-.06-1.12.22-1.11,1.12.04,5.86,0,11.72.03,17.59,0,1.19-.54,2.84.23,3.46.74.6,2.31.13,3.52.19.64.03.92-.09.9-.83-.07-3.39.04-6.79-.23-10.18-.12-1.49-.02-3-.02-4.79,1.74,4.8,3.39,9.34,5.03,13.88.69,1.91.69,1.85,2.72,1.93.93.04,1.32-.27,1.62-1.13,1.7-4.84,3.46-9.65,5.2-14.48h.21v.71c-.15,4.64-.46,9.28-.4,13.93,0,.7.11,1.03.91.97,1.01-.08,2.02-.06,3.03,0,.66.04.8-.21.8-.83-.02-6.91-.02-13.83,0-20.74,0-.68-.24-.8-.84-.78h0Z"/><path class="cls-1" d="m161.54,108.83c-.89.03-1.79.08-2.67,0-1.08-.11-1.41.22-1.39,1.35.07,4.61.04,9.22,0,13.83,0,1.93-.91,3.12-2.5,3.53-3.17.81-5.25-.77-5.27-4.06-.02-4.57-.02-9.14,0-13.71,0-.72-.13-1.01-.92-.94-.92.08-1.86.07-2.79,0-.74-.05-.96.15-.94.92.06,2.43.02,4.85.02,7.28s-.06,4.77.02,7.16c.1,3,1.51,5.21,4.27,6.49,1.82.84,3.76.88,5.7.73,4.01-.3,6.85-2.95,7.01-6.96.21-4.97.09-9.94.14-14.92,0-.53-.17-.71-.69-.69h0Z"/><path class="cls-1" d="m247.82,127.38c-2.83.04-5.66,0-8.49.03-.7,0-1.03-.12-.99-.92.07-1.37.05-2.75,0-4.12-.03-.71.23-.9.9-.88,1.82.04,3.64.01,5.46.01,2.63,0,2.59,0,2.59-2.67,0-.84-.29-1-1.05-.99-2.3.04-4.61-.02-6.92.04-.81.02-1.04-.24-.99-1.02.07-1.05.07-2.1,0-3.15-.05-.83.18-1.13,1.06-1.1,2.18.06,4.37.02,6.55.02,2.84,0,2.81,0,2.81-2.85,0-.75-.2-.95-.95-.94-4.37.04-8.74.04-13.1,0-.82,0-1,.24-.99,1.02.04,3.4.02,6.79.02,10.19s.05,6.47-.03,9.7c-.03,1.12.18,1.5,1.41,1.47,3.64-.1,7.28-.04,10.92-.04,2.79,0,2.76,0,2.75-2.86,0-.77-.23-.94-.96-.93h0Z"/><path class="cls-1" d="m268.06,123.66c-.97.05-1.94.06-2.91,0-.67-.05-.88.22-1.03.82-.57,2.34-1.68,3.17-4.14,3.17-2.23,0-3.64-1.09-4.17-3.28-.53-2.18-.39-4.41-.31-6.62.05-1.18.27-2.33.85-3.36.86-1.56,2.29-2.08,3.98-1.99,1.58.08,2.89.56,3.57,2.2.26.63-.04,1.61.75,1.86.66.22,1.44.05,2.17.05.4,0,.81-.04,1.21,0,.81.1.96-.24.82-.97-.72-3.85-3.23-6.31-7.08-6.9-4.17-.64-7.8.99-9.61,4.32-1.19,2.19-1.55,4.55-1.44,7.27,0,.38-.04,1.03,0,1.68.4,5.54,3.46,10.06,10.42,9.53,4.01-.31,7.03-2.91,7.72-6.9.13-.75-.12-.91-.8-.87h0Z"/><path class="cls-1" d="m230.33,108.82c-2.75.04-5.49.02-8.24.02h-6.55c-2.8,0-2.77,0-2.77,2.83,0,.73.17.99.94.96,1.61-.06,3.23.04,4.85-.04.96-.05,1.21.24,1.2,1.2-.05,5.37,0,10.74-.05,16.11,0,1.11.32,1.39,1.35,1.28.8-.09,1.62-.07,2.42,0,.81.07,1.01-.22,1-1-.04-4.52-.02-9.05,0-13.57,0-1.29-.44-3.01.21-3.74.74-.83,2.5-.22,3.81-.24,2.83-.04,2.8-.01,2.8-2.87,0-.76-.21-.95-.95-.94h-.01Z"/><path class="cls-1" d="m177.47,112.07c-.39-1.05-.51-2.53-1.26-3.03-.83-.54-2.26-.14-3.43-.22-.63-.04-.9.17-1.11.77-2.53,6.89-5.09,13.77-7.67,20.64-.26.69-.32,1.01.6.95,1.09-.07,2.19-.06,3.27,0,.61.03.85-.21,1.01-.74.3-1,.7-1.97.96-2.98.18-.69.48-.96,1.24-.93,1.62.07,3.23.02,4.85.02,1.47,0,2.44.71,2.9,2.12.54,1.66,1.66,2.49,3.36,2.49h2.37c-.08-.33-.13-.6-.22-.86-2.28-6.08-4.57-12.16-6.86-18.24h-.01Zm-1.35,10.73c-1.33-.04-2.66-.02-3.99,0-.48,0-.69-.14-.52-.64.81-2.4,1.62-4.81,2.51-7.43.89,2.61,1.71,4.98,2.52,7.36.16.47.09.74-.52.72h0Z"/><path class="cls-1" d="m70.66,154.01c5.85,3.42,12.65,5.39,19.92,5.39,1.03,0,2.05-.04,3.07-.12.09,0,.18-.02.27-.02,6.01-.5,11.64-2.35,16.59-5.24h-39.85Z"/></svg>