<?xml version="1.0" encoding="UTF-8"?><svg id="Layer_1" xmlns="http://www.w3.org/2000/svg" viewBox="0 0 320 240"><defs><style>.cls-1{fill:#696969;}.cls-2{fill:#6a6a6a;}.cls-3{fill:#919191;}.cls-4{fill:#6b6b6b;}.cls-5{fill:#7f7f7f;}.cls-6{fill:#818181;}.cls-7{fill:#747474;}.cls-8{fill:#656565;}.cls-9{fill:#969696;}.cls-10{fill:#6c6c6c;}.cls-11{fill:#999;}.cls-12{fill:#989898;}.cls-13{fill:#979797;}.cls-14{fill:#8b8b8b;}.cls-15{fill:#9c9c9c;}.cls-16{fill:#a1a1a1;}.cls-17{fill:#848484;}.cls-18{fill:#a0a0a0;}.cls-19{fill:#b4b4b4;}.cls-20{fill:#8a8a8a;}.cls-21{fill:#b5b5b5;}.cls-22{fill:#b7b7b7;}.cls-23{fill:#b8b8b8;}.cls-24{fill:#9d9d9d;}.cls-25{fill:#9e9e9e;}.cls-26{fill:#b9b9b9;}.cls-27{fill:#c2c2c2;}.cls-28{fill:#b3b3b3;}.cls-29{fill:#b6b6b6;}.cls-30{fill:#666;}.cls-31{fill:#bababa;}.cls-32{fill:#323232;}.cls-33{fill:#303030;}.cls-34{fill:#333;}.cls-35{fill:#8d8d8d;}.cls-36{fill:#8e8e8e;}.cls-37{fill:#939393;}.cls-38{fill:#858585;}.cls-39{fill:#cdcdcd;}.cls-40{fill:#acacac;}.cls-41{fill:#a6a6a6;}.cls-42{fill:#b1b1b1;}.cls-43{fill:#aaa;}.cls-44{fill:#bcbcbc;}.cls-45{fill:#a7a7a7;}.cls-46{fill:#b0b0b0;}.cls-47{fill:#a5a5a5;}.cls-48{fill:#b2b2b2;}.cls-49{fill:#aeaeae;}.cls-50{fill:#bbb;}.cls-51{fill:#a4a4a4;}.cls-52{fill:#bfbfbf;}.cls-53{fill:#bdbdbd;}.cls-54{fill:silver;}.cls-55{fill:#ababab;}.cls-56{fill:#bebebe;}.cls-57{fill:#cacaca;}.cls-58{fill:#d0d0d0;}.cls-59{fill:#cfcfcf;}.cls-60{fill:#c7c7c7;}.cls-61{fill:#cbcbcb;}.cls-62{fill:#d2d2d2;}.cls-63{fill:#d6d6d6;}.cls-64{fill:#afafaf;}.cls-65{fill:#adadad;}.cls-66{fill:#d7d7d7;}.cls-67{fill:#c5c5c5;}.cls-68{fill:#c6c6c6;}.cls-69{fill:#c8c8c8;}.cls-70{fill:#a8a8a8;}.cls-71{fill:#171717;}.cls-72{fill:#252525;}.cls-73{fill:#242424;}.cls-74{fill:#1f1f1f;}.cls-75{fill:#1e1e1e;}.cls-76{fill:#222;}.cls-77{fill:#212121;}.cls-78{fill:#202020;}.cls-79{fill:#232323;}.cls-80{fill:#434343;}.cls-81{fill:#404040;}.cls-82{fill:#414141;}.cls-83{fill:#141414;}.cls-84{fill:#424242;}.cls-85{fill:#1c1c1c;}.cls-86{fill:#363636;}.cls-87{fill:#373737;}.cls-88{fill:#444;}.cls-89{fill:#454545;}.cls-90{fill:#191919;}.cls-91{fill:#181818;}.cls-92{fill:#3e3e3e;}.cls-93{fill:#3f3f3f;}.cls-94{fill:#a3a3a3;}.cls-95{fill:#9b9b9b;}.cls-96{fill:#707070;}.cls-97{fill:#717171;}.cls-98{fill:#949494;}.cls-99{fill:#6f6f6f;}.cls-100{fill:#727272;}.cls-101{fill:#a2a2a2;}.cls-102{fill:#959595;}.cls-103{fill:#545454;}.cls-104{fill:#464646;}.cls-105{fill:#868686;}.cls-106{fill:#6d6d6d;}.cls-107{fill:#6e6e6e;}.cls-108{fill:#646464;}.cls-109{fill:#5b5b5b;}.cls-110{fill:#292929;}.cls-111{fill:#595959;}.cls-112{fill:#2b2b2b;}.cls-113{fill:#2c2c2c;}.cls-114{fill:#565656;}.cls-115{fill:#4a4a4a;}.cls-116{fill:#474747;}.cls-117{fill:#484848;}.cls-118{fill:#2d2d2d;}.cls-119{fill:#5c5c5c;}.cls-120{fill:#3b3b3b;}.cls-121{fill:#383838;}.cls-122{fill:#262626;}.cls-123{fill:#313131;}.cls-124{fill:#3a3a3a;}.cls-125{fill:#3d3d3d;}.cls-126{fill:#272727;}.cls-127{fill:#5a5a5a;}.cls-128{fill:#585858;}.cls-129{fill:#3c3c3c;}.cls-130{fill:#2f2f2f;}.cls-131{fill:#838383;}.cls-132{fill:#2e2e2e;}.cls-133{fill:#4c4c4c;}.cls-134{fill:#494949;}.cls-135{fill:#5d5d5d;}.cls-136{fill:#767676;}.cls-137{fill:#777;}.cls-138{fill:#797979;}.cls-139{fill:#4b4b4b;}.cls-140{fill:#5e5e5e;}.cls-141{fill:#4f4f4f;}.cls-142{fill:#505050;}.cls-143{fill:#828282;}.cls-144{fill:#757575;}.cls-145{fill:#282828;}.cls-146{fill:#343434;}.cls-147{fill:#7b7b7b;}.cls-148{fill:#4e4e4e;}</style></defs><g id="UNSW_Sydney_Founders_10x_Accelerator"><path class="cls-74" d="m106.95,136.67c1.72.1,3.44.27,5.16,0,.44-.07.32.22.3.45-.26,2.96-.4,5.92-.42,8.88,0,3-.19,6.02.25,9.01.07.46.15.92.26,1.37.83,3.54,2.97,5.31,6.6,5.51.77.06,1.55.05,2.32-.04,2.5-.33,4.21-1.72,5.15-4.04.7-1.86,1.07-3.84,1.07-5.83.14-4.91.11-9.82-.15-14.72-.02-.46,0-.64.54-.53.76.17,1.55.17,2.3,0,.35-.07.46,0,.42.38-.37,5.13-.47,10.27-.54,15.44.01,1.77-.27,3.54-.83,5.22-1.18,3.36-3.58,5.37-7.02,6.1-2.63.56-5.36.49-7.95-.21-3.89-1.04-6.03-3.64-6.67-7.57-.13-.92-.19-1.85-.18-2.78-.04-4.14.13-8.27-.22-12.4-.07-.79-.14-1.59-.22-2.38,0-.13.05-.32-.17-.38v-1.46Z"/><path class="cls-74" d="m194.77,143.19c-.99,2.92-1.98,5.84-2.96,8.77-1.25,3.73-2.5,7.45-3.64,11.22-.13.42-.3.55-.74.45-.67-.17-1.37-.17-2.04,0-.5.13-.67-.02-.8-.52-1.18-4.61-2.43-9.19-3.75-13.75-1.17-4.03-2.59-7.98-4.09-11.91-.06-.14-.11-.29-.18-.49,1.3.12,2.61.16,3.92.12.48-.03,1.08-.33,1.4-.04s.3.89.42,1.36c1.55,6.45,3.3,12.84,5.14,19.21.05.17.11.33.16.49.2-.06.2-.24.24-.38,2.2-6.77,4.51-13.5,6.47-20.34.1-.34.19-.47.58-.39.72.16,1.46.16,2.17,0,.37-.08.48,0,.58.37,1.87,6.89,4.25,13.62,6.29,20.47.03.1.08.19.17.42.54-1.8,1.05-3.49,1.55-5.18,1.54-5.22,3.11-10.42,4.44-15.69.1-.38.23-.44.58-.36.57.11,1.15.12,1.72.05.73-.08.74-.06.51.62-2.92,8.44-5.69,16.92-8.26,25.47-.12.4-.24.6-.71.47-.69-.17-1.42-.17-2.11,0-.49.12-.63-.05-.75-.5-1.22-4.46-2.55-8.88-3.97-13.27-.71-2.23-1.45-4.45-2.17-6.67l-.17-.03Z"/><path class="cls-74" d="m153.38,156.25c-.07-6.29.04-12.5-.3-18.71-.03-.47,0-.63.53-.51.63.15,1.28.15,1.91,0,.56-.15.55.09.53.51-.11,1.72-.19,3.45-.28,5.17-.36,6.7-.29,13.4-.25,20.1-.01.11-.01.22,0,.33.14.67-.17.69-.77.76-.94.12-1.42-.32-1.96-.96-5.46-6.41-11.21-12.58-16.99-18.71-.08-.1-.16-.2-.23-.31-.27.21-.18.42-.18.6-.13,6.25-.17,12.47.19,18.71.02.42-.11.45-.42.37-.74-.16-1.5-.16-2.24,0-.37.08-.5,0-.46-.42.47-5.07.63-10.15.74-15.24.08-3.54,0-7.08-.12-10.62,0-.47.03-.74.58-.57.02,0,.04,0,.07,0,1.25-.31,1.89.45,2.63,1.25,5.42,5.96,10.86,11.89,16.42,17.71.15.23.35.41.6.53Z"/><path class="cls-74" d="m159.32,157.97c2.08,3.44,5.28,4.76,8.75,3.64,1.82-.52,3.29-1.86,3.97-3.63.74-1.68.13-3.64-1.42-4.61-1.06-.68-2.21-1.21-3.42-1.57-1.38-.47-2.79-.87-4.13-1.45-.57-.24-1.12-.52-1.67-.8-4.72-2.5-4.12-8.75-.57-11.19,1.69-1.11,3.64-1.77,5.65-1.9,2.83-.31,5.69.28,8.18,1.67.24.1.46.26.61.47-1.15.72-1.75,1.87-2.24,3.22-.32-.73-.76-1.39-1.31-1.97-2.03-2.01-5.99-2.05-8.07-.07-1.53,1.35-1.67,3.69-.32,5.22.18.21.39.39.61.55,1.11.77,2.33,1.36,3.63,1.74,1.42.49,2.85.95,4.27,1.46.56.2,1.1.44,1.63.72,3.07,1.56,4.15,3.72,3.63,7.12-.52,3.47-2.47,5.79-5.76,6.86-4.86,1.58-9.55,1.17-13.97-1.52-.47-.28-.67-.44-.09-.88.99-.78,1.7-1.85,2.02-3.07Z"/><path class="cls-75" d="m139.77,113.82c-.68-.43-1.14-1.14-1.25-1.94-.06-.24-.08-.48-.05-.72v-45.98c-.04-.24,0-.49.08-.72h42.15c.2,0,.42.02.59.04.08.23.1.48.06.72v45.43c.03.24.02.49-.05.72-.22.5-.11,1.12-.54,1.54-.2.04-.22-.11-.26-.25.03-.35.13-.69.27-1.01.1-.21.08-.45.16-.66.03-.31.04-.62.03-.93,0-14.65,0-29.29,0-43.93,0-.34.12-.72-.17-1.01-.25-.09-.52-.12-.79-.08h-40.21c-.92,0-.93,0-.93.83v45.32c.1.81.47,1.57,1.05,2.15.1.09.15.22.14.36-.04.15-.12.25-.29.11Z"/><path class="cls-79" d="m139.75,127.52l-1.13.88c-.12-.18-.16-.41-.11-.62v-8.43c-.06-.64.33-1.23.95-1.41,1.27-.49,2.68-.49,3.95,0,5.25,1.85,10.51,3.68,15.75,5.54.47.18.99.18,1.46,0,5.2-1.85,10.42-3.67,15.63-5.51,1.22-.49,2.58-.54,3.83-.13.47.16.98.31,1.12.9-.02.09-.09.17-.18.19-.06,0-.13,0-.19-.04-.09-.05-.17-.1-.24-.17-1.14-.73-2.56-.87-3.82-.36-5.13,1.79-10.26,3.56-15.37,5.42-.87.37-1.85.4-2.74.09-5.11-1.83-10.24-3.62-15.37-5.42-1.13-.42-2.36-.45-3.5-.08-.33.07-.6.31-.7.63-.07.23-.09.48-.07.72v7.02c0,.2-.12.45.15.58l.18-.05c.1-.03.2-.03.29,0,.08.07.15.11.1.23Z"/><path class="cls-126" d="m180.62,112.62c0,.11.03.22.15.28-.45,1.02-1.38,1.45-2.32,1.82-2.67,1.07-5.35,2.11-8.02,3.16-3.36,1.31-6.71,2.63-10.05,3.95-.32.14-.69.14-1.01,0-5.93-2.36-11.87-4.7-17.82-7.04-.65-.2-1.26-.53-1.79-.97.11,0,.21-.06.25-.16.12-.06.27-.05.38.02,2.99,1.39,6.1,2.47,9.17,3.7,3.27,1.32,6.57,2.61,9.86,3.9.28.18.64.19.94.04,3.47-1.41,6.97-2.72,10.42-4.13,2.61-1.01,5.2-2.05,7.8-3.06.57-.25,1.07-.62,1.48-1.08.16-.17.27-.42.56-.42Z"/><path class="cls-122" d="m139.75,127.52l-.19-.17c.07-.47.5-.56.83-.72.24-.1.49-.19.74-.27.06-.02.13-.04.2-.05.28-.04.56-.04.83,0,2.32.57,4.52,1.52,6.77,2.31,3.15,1.11,6.3,2.22,9.41,3.41.99.41,2.11.41,3.1,0,4.85-1.8,9.73-3.49,14.58-5.3,1.67-.63,3.19-.52,4.58.66.11.08.2.2.25.33.01.07.01.14,0,.2-.02.07-.06.13-.11.17-.1-.04-.19-.1-.28-.16-1.35-1.25-2.81-1.25-4.48-.64-5.17,1.93-10.38,3.75-15.57,5.65-.35.14-.73.14-1.07,0-5.21-1.89-10.42-3.75-15.64-5.67-1.38-.52-2.69-.68-3.95.25Z"/><path class="cls-126" d="m138.55,64.47v47.42c-.15-.4-.2-.83-.15-1.25v-45.56c-.01-.19-.17-.47.15-.6Z"/><path class="cls-126" d="m181.31,111.36v-46.88c.22.17.1.42.1.61v45.36c.03.31,0,.62-.1.91Z"/><path class="cls-75" d="m180.75,128.07v-.18c.12-.13.08-.29.08-.44v-7.62c-.07-.33,0-.67.18-.95l.15-.14c.14.15.1.33.1.5,0,2.95,0,5.9,0,8.85v.26c-.21,0-.4-.11-.5-.29Z"/><path class="cls-12" d="m159.37,121.41l-10.1-3.96c-2.38-.93-4.76-1.88-7.15-2.81-.72-.28-1.41-.61-2.08-.98-.68-.55-1.12-1.35-1.22-2.22-.07-.24-.09-.48-.05-.72v-44.99c0-.92-.1-.83.83-.83h40.62q.83,0,.83.83c0,14.91,0,29.82,0,44.73,0,.42-.04.84-.13,1.25-.09.3-.19.6-.28.91-.58.84-1.41,1.48-2.37,1.82-2.47.94-4.94,1.91-7.41,2.87-.09.05-.2.05-.3,0-.04-.35.27-.36.47-.44,2.28-.92,4.58-1.82,6.87-2.71.5-.18.97-.41,1.41-.71.53-.31.92-.82,1.09-1.41.14-.49.2-1,.19-1.51v-44.16c0-.32.09-.67-.2-.94-.24-.12-.51-.15-.77-.1h-39.54c-.24-.02-.49,0-.72.06-.15.1-.24.27-.22.45v44.69c-.04.57.04,1.15.22,1.69.25.6.71,1.09,1.3,1.37,2.47,1.21,5.07,2.08,7.6,3.1,3.28,1.32,6.57,2.6,9.86,3.9.37.15.76.24,1.11.42.18.09.46.1.42.42-.09.05-.2.05-.29,0Z"/><path class="cls-103" d="m180.9,111.71c0-15.37,0-30.75.03-46.12,0-.48-.12-.65-.63-.65h-40.88c-.6,0-.62.28-.62.72v45.79c-.19-.21-.12-.46-.12-.7v-45.19c0-.42,0-.74.61-.74,13.87.02,27.74.02,41.61,0h.13c.09.23.11.47.06.71v44.88c.03.24.01.49-.04.72-.05.21.02.42-.16.57Z"/><path class="cls-126" d="m181.05,111.17v-46.32c.24.21.13.5.13.75,0,14.96,0,29.91,0,44.87-.03.22.05.49-.13.7Z"/><path class="cls-133" d="m180.78,127.74c.2-.2.11-.46.11-.69,0-2.72,0-5.45.02-8.18.04,0,.08,0,.11,0v8.37c0,.23.16.56-.25.64v-.14Z"/><path class="cls-17" d="m170.54,117.28h.3c-1.98.91-4.05,1.62-6.07,2.45-1.45.59-2.92,1.15-4.37,1.72-.36.15-.71.26-1.04-.06h.29c1.39-.61,2.82-1.12,4.23-1.7,1.96-.8,3.96-1.5,5.9-2.35.23-.1.49-.25.75-.06Z"/><path class="cls-133" d="m139.73,111.34l-.1-.03c-.16-.22-.08-.47-.08-.71v-44.16c0-.22-.14-.48.12-.67h40.38c.22.17.11.42.11.61,0,14.85,0,29.69,0,44.53,0,.21.07.44-.08.64l-.23.42c-.11-.11-.17-.26-.15-.42.15-2.61,0-5.22.08-7.83v-14.82c.02-.22,0-.44-.07-.65-.1-.13-.19-.27-.27-.42-.06-.3-.08-.61-.06-.92v-8.22c-.03-.33,0-.67.08-.99.21-.34.31-.74.29-1.14v-9.55c0-.83-.06-.9-.91-.9h-38c-.24-.03-.49.01-.71.11-.17.18-.25.43-.2.67,0,6.81.04,13.62.03,20.42,0,.17,0,.35.03.53.01.08.01.17,0,.25-.04.17-.06.35-.05.53v14.84c.01.08.01.17,0,.25-.02.12-.04.25-.05.37v6.36c.03.31.1.66-.16.88Z"/><path class="cls-88" d="m179.96,103.74c-.04,2.75.14,5.51-.11,8.26-.22.66-.75,1.18-1.42,1.38-3.55,1.41-7.11,2.79-10.67,4.17-.15.05-.2-.05-.25-.16-.06-.23.03-.47.23-.6,2.92-1.25,5.92-2.35,8.87-3.52.47-.19.95-.37,1.41-.58.78-.28,1.27-1.04,1.22-1.86-.03-2.05,0-4.11,0-6.17-.06-.33,0-.67.16-.96.17-.12.39-.1.54.05Z"/><path class="cls-80" d="m139.75,103.88l.1-.13c.11-.11.28-.13.42-.05.17.26.23.58.17.88v5.89c0,1.4.33,1.86,1.64,2.37,3.08,1.21,6.16,2.42,9.23,3.65.21.07.41.16.6.27.1.06.18.15.22.25.06.14.04.3-.05.42-.13.07-.29.07-.42,0-2.98-1.16-5.95-2.32-8.93-3.48-.57-.22-1.15-.46-1.7-.73-.4-.13-.73-.42-.93-.8-.24-.42-.35-.91-.32-1.39v-6.49c.03-.22.02-.45-.05-.66Z"/><path class="cls-114" d="m151.68,117.42h.42c.3-.13.56.05.83.15,2.3.9,4.58,1.85,6.91,2.69.19-.03.37-.04.56-.03.1.03.17.07.17.19-.38.26-.88.29-1.3.07-2.37-.96-4.75-1.88-7.13-2.82-.16-.07-.32-.16-.47-.25Z"/><path class="cls-116" d="m139.75,103.88c.2.2.12.46.12.7v5.5c0,.79-.08,1.59.25,2.34-.3-.27-.46-.67-.42-1.07l.05-7.46Z"/><path class="cls-127" d="m164.07,119.03c-.41.25-.86.43-1.33.53-.09.06-.21.06-.3,0,.28-.57.83-.56,1.35-.68.11,0,.22.06.28.15Z"/><path class="cls-114" d="m164.07,119.03l-.31-.02c.35-.54.9-.62,1.47-.63.07.02.13.07.17.12-.41.25-.86.42-1.33.53Z"/><path class="cls-119" d="m162.43,119.54h.3c-.33.21-.7.35-1.08.42-.05-.05-.06-.12-.04-.19.17-.27.53-.37.82-.22Z"/><path class="cls-127" d="m167.12,117.83c-.33.21-.7.35-1.08.42-.05-.05-.07-.13-.05-.2.21-.25.51-.38.83-.37.12,0,.22.06.29.15Z"/><path class="cls-111" d="m167.12,117.83l-.31-.02c.15-.39.45-.45.83-.38l.14.13c-.18.17-.42.26-.67.27Z"/><path class="cls-109" d="m166.03,118.09v.16c-.18.15-.4.23-.64.24l-.2-.03c.07-.31.37-.5.68-.44.06.01.11.03.16.06Z"/><path class="cls-109" d="m161.65,119.81v.16c-.19.15-.42.24-.66.25-.05-.05-.06-.12-.04-.19.17-.23.39-.42.7-.23Z"/><path class="cls-128" d="m160.99,120.07v.16c-.11.11-.26.18-.42.18l-.13-.09c.08-.31.26-.39.55-.25Z"/><path class="cls-74" d="m139.91,65.92h39.16q.87,0,.87.83v10.14c0,.37,0,.72-.42.83-.08.03-.16.05-.25.05-3.89-.02-7.78.02-11.67-.02-5.16.01-10.33.02-15.51.02-3.95.03-7.89.06-11.83,0-.48-.03-.46-.37-.46-.71v-10.51c0-.22-.08-.45.1-.64Z"/><path class="cls-98" d="m179.5,77.78l.02-.02v9.47c0,.26.03.53.05.79.1.03.16.13.13.23,0,.01,0,.02-.01.03-.19.61-.26,1.25-.19,1.89v11.77c.06.37,0,.75-.15,1.1-.16.13-.22,0-.3-.11-.08-.32-.11-.66-.07-.99v-11.99c0-.97-.05-1.02-1-1.02h-4.04c-.19,0-.38.02-.57.03-.42-.05-.83-.06-1.25-.03-.26-.26-.6-.41-.97-.42-.29,0-.59-.27-.23-.64.33-.14.68-.19,1.04-.15h6.24c1,0,1.02,0,1.02-1.05v-7.95c.01-.33-.08-.71.28-.95Z"/><path class="cls-100" d="m139.87,88.09s.03-.08.04-.12c.07-.08.19-.09.27-.03.02.02.04.03.05.06.28.4.42.89.37,1.37v13.4c0,.48-.21.81-.73.83h0c-.07-.16-.09-.34-.06-.52v-14.47c-.03-.18,0-.36.06-.52Z"/><path class="cls-100" d="m179.3,103.08c0-4.13,0-8.27,0-12.4,0-.89-.15-1.81.28-2.66.09-.05.21-.02.27.06.05.21.07.44.04.65v14.17s0,.09,0,.13c-.04.2.12.52-.15.57s-.47-.19-.44-.52Z"/><path class="cls-141" d="m179.3,103.08c.11.23.32.4.56.45v-15.45c.15.14.11.32.11.5v15.17h-.5c-.12.1-.26.16-.42.17-1.8,0-3.6.1-5.42-.05-.58-.8-.49-1.18.33-1.3,1.35.06,2.69,0,4.03.03.31-.02.62,0,.92.08.11.06.2.15.25.27l.13.14Z"/><path class="cls-116" d="m140.12,88.02l-.21-.05c-.24-.18-.16-.44-.16-.67v-20.72c0-.22-.12-.49.16-.66,0,1.77-.04,3.52-.04,5.3v5.77c0,.33,0,.64.45.62.15.25.22.54.17.83v8.64c.03.29-.02.57-.14.83-.06.07-.14.1-.23.1Z"/><path class="cls-141" d="m139.87,103.61c.26-.17.49-.39.68-.64,0-.04,0-.08.03-.12.05-.07.11-.12.19-.15,1.34-.14,2.68-.14,4.02,0,.19.27.5.43.83.42.64,0,.8.3.47.77-1.38.19-2.77.06-4.17.07-.56,0-1.15.15-1.67-.18h-.42l.02-.16Z"/><path class="cls-141" d="m139.87,88.09v15.52c-.18-.18-.11-.42-.12-.63v-14.26c0-.21-.07-.45.12-.63Z"/><path class="cls-8" d="m167.65,105.49v10.97c.01.17.03.35.06.52-.03.15-.05.29-.08.44l-.83.38-.78.28c-.31.05-.59.18-.83.37-.51.1-1,.28-1.45.54-.46.11-.91.29-1.32.53l-.78.28-.66.26c-.21.02-.4.11-.55.25l-.5.13c-.19-.24-.23-.55-.12-.83.16-.34.49-.42.8-.55,1.89-.74,3.75-1.54,5.67-2.25.17-.04.33-.13.46-.25.05-.48.06-.97.03-1.45v-10.06c0-.08,0-.16,0-.23.12-.36.5-.55.86-.43.01,0,.02,0,.04.01.11.14.13.32.07.48-.22.16-.05.38-.06.6Z"/><path class="cls-135" d="m152.02,116.97c.08-.21.11-.43.07-.65v-11.94c0-.47-.09-.68-.61-.64s-1.1,0-1.67,0c.08-.36.39-.27.62-.29.47-.03.95,0,1.43,0,.32,0,.62-.07.57-.51,0-.15.1-.17.21-.2.34,0,.47.19.52.48.04.26.05.53.04.79v12.7c-.35.62-.8.77-1.14.37-.03-.03-.05-.07-.05-.11Z"/><path class="cls-141" d="m152.1,117.04c.09.14.27.19.42.11.02-.01.05-.03.07-.05.15-.15.36-.22.57-.21.22-.17.42-.03.62.05,1.82.71,3.64,1.4,5.45,2.15.28.07.52.24.7.47v.91c-1.76-.54-3.42-1.33-5.15-1.97-.9-.33-1.79-.71-2.69-1.07.02-.12.02-.25.02-.37Z"/><path class="cls-135" d="m152.01,85.91c.04-.12.07-.25.08-.38v-7.89c.15-.02.31-.04.46-.04h14.64c.15,0,.31.02.46.04.03.02.03.06,0,.09,0,0,0,0,0,0-.06.05-.13.1-.21.13-.35.07-.7.09-1.05.07h-12.71c-.2-.02-.4-.02-.6,0-.24.05-.21.18-.1.33.07.1.13.21.16.32.1,1.42.12,2.85.07,4.28,0,.96.12,1.93-.1,2.89-.17.34-.59.48-.93.3-.07-.04-.13-.08-.19-.14Z"/><path class="cls-91" d="m159.41,67.11l.22.14c.2.07.42.01.56-.14h0c.69-.14,1.39-.18,2.08-.13h4.17c.26-.04.53,0,.77.12.32-.03.42.15.45.42l-.09.07-.19.1c.21.16.16.42.16.61v6.35c.03.22-.02.45-.14.64-.06.06-.16.06-.22,0-.16-.29-.21-.63-.16-.96v-5.9c0-.83-.05-.87-.86-.87-1.55,0-3.11-.1-4.64.03-1.09.11-2.19.11-3.27,0-1.54-.08-3.09-.08-4.63,0-.83,0-.9.07-.9.92v5.83c.07.35,0,.71-.2,1.01-.37-.08-.31-.39-.32-.63,0-2.18,0-4.36,0-6.55-.02-.38.09-.75.31-1.05v-.03c.22-.1.47-.14.71-.11h5.35c.28-.02.57.03.83.14Z"/><path class="cls-71" d="m152.49,67.11c-.09.34-.13.69-.12,1.04v6.51c0,.22-.12.5.18.64.48-.21,1.01-.31,1.54-.27,1.19-.06,2.37-.22,3.55-.37.63-.1,1.28-.09,1.91.03.15.04.3.06.46.05,2.28-.37,4.5.37,6.76.42.16,0,.3.06.42.17l.17.02c0,.31-.27.31-.47.38-.37.02-.75,0-1.12,0-1.4-.04-2.79-.16-4.17-.38-.13,0-.27-.09-.39-.05-1.58.5-3.23-.22-4.83.26-.74.15-1.49.21-2.24.2-.4.02-.79,0-1.19-.02-.87,0-.92-.05-.93-.95v-6.36c-.05-.26.02-.54.17-.75.07-.2-.09-.51.3-.54Z"/><path class="cls-43" d="m167.66,67.53c.21,0,.42.08.36.35-.17.75.3,1.14.83,1.48.32.21.39.42,0,.59-1.03.46-.87,1.36-.81,2.2.04.5.6.6.89.91.15.15.34.3.05.44-.95.47-1.05,1.3-.99,2.21-.25.15-.42.05-.5-.2v-7.39c0-.21-.04-.45.16-.61h0Z"/><path class="cls-40" d="m151.67,74.15l-.16-.12q-.94-.72-.07-1.47c.38-.32.42-1.77.04-2.12-.06-.06-.14-.11-.21-.16-.75-.6-.77-.63,0-1.2.33-.23.5-.62.45-1.02,0-.2-.15-.62.36-.42.08.21.1.43.06.65,0,2.27,0,4.53,0,6.8,0,.04,0,.09,0,.13-.05.19.13.52-.18.54s-.18-.32-.21-.51c-.04-.4.11-.76-.08-1.11Z"/><path class="cls-14" d="m151.67,74.15c.38.45,0,1.02.24,1.5h.19v-8.01s.08-.01.12,0v7.4c0,.42.12.59.56.56s.98,0,1.47,0c.72.04,1.45.02,2.17-.06,1.1-.08,2.2-.07,3.3.04.37,0,.74-.03,1.11-.09,1.35,0,2.69.02,4.03.15.3.05.62.04.92-.04l1.21-.03c.15-.09.31-.03.46-.08.06,0,.12.03.17.06.08.17.24.16.4.16-.18.25-.45.13-.67.13h-14.89c-.57,0-.83-.13-.74-.73.01-.32,0-.63-.03-.95Z"/><path class="cls-128" d="m159.41,67.11l-6.9-.02c.13-.3.42-.22.63-.22h5.47c.3,0,.59-.02.79.25Z"/><path class="cls-128" d="m167.21,67.1h-7.03c.27-.19.6-.27.93-.24h5.55c.2,0,.45-.05.55.24Z"/><path class="cls-93" d="m160.19,67.1c-.14.25-.3.38-.56.14l.56-.14Z"/><path class="cls-74" d="m152.01,85.91c.34.08.69.05,1.01-.08.42-.03.71-.37,1-.61.3-.32.8-.36,1.14-.08.86.71,1.81.62,2.8.47.17-.03.38-.07.5.07.26.27.64.4,1.01.34.45,0,.76.55.68,1.1-.03.2-.14.37-.16.57s.09.44.37.44c.42,0,1.64-1.18,1.72-1.67.03-.1.11-.17.21-.19.2,0,.29.16.37.32.05.16.05.34,0,.5-.1.27-.29.5-.54.65-.29.15-.57.33-.83.54-.32.33-.72.6-.87,1.07,0,.05-.03.11-.05.17-.08.36-.06.73.07,1.07.51.83,1.52,1.22,2.45.95.32-.07.63-.21.95-.29.42-.08.8-.3,1.21-.42.45-.11.89-.25,1.32-.42.29-.09.59-.15.88-.25.34-.1.7-.17,1.06-.18h1.57c.07,0,.15.02.22.04,1.57.63,1.92,1.67,1.06,3.08-.35.45-.9.57-1.36.83-.77.25-1.56.08-2.35.12-.14,0-.28-.01-.42-.05-.09-.02-.19-.05-.28-.09-.05,0-.07,0-.05-.02.09,0-.04.1.03.04s.1.1.05.03c.71.24,1.46.33,2.21.26.39.03.78-.04,1.14-.2.41-.14.78-.38,1.08-.7.37-.36.6-.85.62-1.37-.02-.32.16-.61.45-.74.54-.22.83-.79.69-1.35.02-.09-.15,0-.06,0,.06.33-.16.66-.49.72,0,0,0,0-.01,0-.13-.03-.23-.13-.25-.26-.1-.32-.03-.83-.65-.48-.18.1-.25-.12-.28-.27-.06-.29-.12-.56-.42-.69-.16.03-.16.17-.19.26-.15.42-.36.42-.6.07-.12-.19-.25-.36-.39-.53-.16.05.03.14,0,.2.05.19.02.39-.08.55-.51-.19-.94-.53-1.25-.97.3-.21.59-.42.88-.63.04,0,.08.02.12.04.22.14.45.35.71.22s-.04-.44.11-.68c.37.08.46.45.68.7s.42.68.83.17c.09-.1.23-.04.31.11s.06.42.23.53l.08.04.13.12c.22.25.42.12.6-.03.09-.07.2-.11.31-.13h.08l.36-.1c.07.02.11.08.1.15-.08.25-.13.51-.14.78.11.76-.21,1.53-.83,1.97-.2.19-.31.44-.31.71-.28,1.85-1.6,2.54-3.22,2.64-.5.03-.99.03-1.49,0-.05.1-.01.22.09.27.87.5,1.47,1.37,1.64,2.36.11.59.5.71,1.07.5.19-.07.36-.17.55-.25.62-.23,1.02,0,1.22.67-.03.14-.15.23-.29.23-.46-.23-1.01-.15-1.39.19-.28.14-.59.19-.9.14-.6-.13-.8-.65-1.09-1.1-.2-.27-.15-.66-.38-.92-.15-.45-.44-.83-.83-1.09-.35-.29-.65-.62-.97-.94-.11-.11-.21-.22-.3-.34-.33-.48-.55-1.07-1.11-1.36-.19-.18-.47-.22-.7-.1-.29.1-.59.18-.89.24-.22.03-.43.08-.64.13-.27.07-.54.16-.8.26s-.54.17-.8.27-.61.17-.91.26l-.47.14c-.1.03-.2.05-.3.05-.57.08-1.17-.14-1.73.15-.17.14-.15.35-.2.53s-.14.3-.32.23c-.68-.25-.53.17-.47.55.03.28-.17.53-.44.57-.63,0,.29.22-.04.25-.07.33-.39.53-.72.46-.01,0-.02,0-.03,0-.14,0-.25-.14-.5-.1.27,0,.31.15.42.26s.12.3,0,.45c-.17.09-.37.12-.57.07-.08,0-.22-.05-.25.02-.33.72-.74.44-1.16.07-.08-.07-.19-.12-.3-.11-.12,0-.18.1-.23.2s-.17.37-.3.27c-.42-.31-.42.1-.58.29-.2.23-.42.43-.67.6-.12.07-.22.16-.3.27-.06.18-.1.38-.1.57-.01.06-.03.12-.05.17-.09.37-.29.7-.57.95-.23.16-.48.3-.73.42-1.04.36-1.95.23-2.69-.65-.07-.08-.14-.17-.27-.15-.07.02-.12.07-.13.14-.02.15.1.17.2.2.26.04.43.28.39.54,0,.01,0,.02,0,.03-.04.32-.26.42-.56.45-.17,0-.3.07-.28.28s.14.21.29.19c.35-.05.64.03.68.42.05.47-.32.5-.65.56-.17.03-.35.45-.52,0-.02-.03-.02-.06,0-.09-.05-.68-.54-.53-.96-.45-.53.11-.57-.1-.42-.5,0-.35.27-.47.51-.63.45-.3.42-.46-.05-.72s-.54-.49-.1-.88c.44-.39.88-.24,1.32-.36.56-.15.83.13,1.14.55.36.54.93.55,1.49.42.49-.12.83-.56.83-1.07,0-.4.07-.79.22-1.16.05-.08.05-.17,0-.25-.42-.36-.93-.59-1.47-.68-.28.07-.57.08-.86.03-.24-.05-.5-.1-.61-.34-.15-.32.26-.35.36-.62-.23-.13-.6-.25-.33-.65.07-.11.03-.21-.1-.25-.27-.08-.27-.25-.16-.46.18-.37.1-.6-.34-.63-.2,0-.42-.13-.3-.33.32-.64.1-1.25,0-1.88-.05-.29.22-.47.42-.64q.57-.48.25-1.02c.04-.1.13-.17.23-.2.83-.06.97.05,1.01.78-.14.37-.47.63-.86.69.06.08.11,0,.17,0,.6.13.61.15.08.77.05.22.15,0,.22.02.28-.06.48-.42.83-.26.12.36-.11.55-.35.74s-.57.45-.86.65c-.06.06-.04-.06-.05.02s-.02.06.04,0c.07-.04.13-.09.18-.14.16-.11.32-.23.47-.36.14-.13.31-.32.51-.17s.06.42-.04.59-.25.36-.37.62c.58,0,.6.28.42.7-.04.08-.33.36.12.25.22,0,.39.04.42.3-.04.22-.13.44-.26.62-.15.22-.34.4-.57.52.28-.05.56-.15.8-.29.34-.21.57-.03.77.22.2.27.57.35.87.2,0,0,.02-.04.02-.06s-.02-.03-.05-.05c-.26-.07-.62.04-.69-.37.13-.37.3-.7-.3-.87-.35-.1-.22-.42-.03-.62s.65-.32.25-.75c-.1-.1,0-.27.1-.34.65-.42.5-.91.11-1.41-.13-.33-.37-.6-.68-.77-.25-.06-.46-.24-.56-.47-.07-.29-.13-.58-.17-.88,0-1-.11-2.02.42-2.96.05-.1.07-.23-.07-.27s-.17.12-.21.24c-.22.59-.42.63-.83.22-.03-.21-.26-.37-.17-.62.16-.2.05-.42,0-.59-.06-.11,0-.16.1-.21.27.03.49.34.8.16.11-.05.24-.05.35,0,.2.35.72.36.83.78,0,.37-.07.73-.17,1.08v.18c-.04.92-.03,1.83.59,2.68.12-.31.02-.55.09-.79.13-.47.55-.87.3-1.44-.06-.15.15-.35.28-.5.14-.09.17-.28.08-.42-.02-.03-.05-.06-.08-.08-.17-.15-.16-.3.09-.37.2-.25.72-.42.22-.86-.18-.17.09-.24.2-.29.33-.11.52-.46.41-.8-.02-.05-.04-.1-.07-.15Z"/><path class="cls-41" d="m173.71,88.87s0-.08-.02-.12c1.61,0,3.22,0,4.83-.02.52,0,.68.13.67.67-.02,4.52,0,9.04,0,13.56l-.15-.13c-.19-.33-.25-.71-.19-1.09v-11.98c.02-.47-.19-.67-.67-.67h-3.51c-.34.07-.68,0-.96-.21Z"/><path class="cls-70" d="m172.13,88.88c.37-.21.82-.22,1.2-.02v.02c-.42.14-.79.3-1.19,0h0Z"/><path class="cls-98" d="m140.26,87.96c2,0,4.01.03,6.02.04.05,0,.1-.07.16-.1.42.03.49.34.42.64s-.42.3-.63.12c-.39-.33-.42.27-.67.24-1.34.09-2.68,0-4.02.04-.25,0-.54-.06-.71.22-.08.27-.1.55-.07.83v11.91c.05.35-.02.71-.18,1.02v.05c-.22-.22-.13-.5-.13-.76v-11.59c0-.87.16-1.77-.29-2.6l.12-.05Z"/><path class="cls-96" d="m173.71,88.87h4.77c.42,0,.57.13.57.56,0,4.47,0,8.93-.02,13.39h-4.49c-.23,0-.49.09-.68-.14-.17-.59.23-1.02.42-1.5.1-.23.33-.28.03-.61-.24-.26-.07-.77-.06-1.18.02-.19.02-.39,0-.58-.08-.46-.27-.6-.68-.3-.42.12-.83.45-1.28.04-.42-.69-.62-.75-1.32-.37-1.05.56-1.49.42-1.7-.71-.1-.75-.54-1.41-1.2-1.79-.37-.19-.63-.54-.7-.95.63.12,1.27.16,1.9.12,1.87-.07,2.83-.92,3.1-2.77.01-.24.15-.46.35-.58.58-.32.89-.98.75-1.63-.09-.35,0-.72.24-.99Z"/><path class="cls-77" d="m173.61,98.31c.16-.08.31-.16.47-.23s.3,0,.27.05c-.21.39.26.66.15,1.02-.08.27-.29.52.07.81.2.15-.29.21-.2.61.05.1.33-.08.57.11-.65.51-.83,1.25-1.09,1.99-.28.16-.83.2-.25.7.18.15-.12.22-.13.36-.26.17-.55.28-.86.33-.27-.02-.52.16-.59.42-.07.21-.22.39-.42.5-.33.2-.53.17-.52-.28,0-.23-.08-.44-.25-.59-.08-.08-.19-.11-.3-.07-.1.03-.12.12-.09.21.21.8-.2,1.09-.93,1.13-.13.03-.25.07-.37.12-.15.07-.32.07-.46,0-.3-.49-.59-.29-.89,0h-.14c-.1-.17-.38-.19-.37-.42s.25-.1.37-.17c.11-.15.33-.18.44-.35-.12-.17-.33,0-.46-.13-.3.05-.57.18-.81.36-.46-.21-.27-.56-.18-.88.15-.21.31-.41.49-.6.17-.19.42-.29.51-.56-.1-.36-.42-.25-.65-.29-.47-.1-.55-.27-.29-.67.04-.05.08-.11.12-.15.42-.48,1.9-.75,2.46-.45.03.24-.18.3-.3.44-.49.36-.21.67.07.98.12.42-.07.62-.45.72-.13.04-.36.02-.28.25.05.16.22.1.34.05.23-.14.54-.09.71.12.19.25.02.45-.15.63-.08.06-.09.17-.03.25,0,.01.02.02.03.03.08.07.2.1.31.08.19-.03.22-.17.25-.33.16-.8.38-.96,1.14-.86.1.07.19.16.26.26.12.15.22.32.3.49.12-.15,0-.33.07-.47.04-.09.11-.15.2-.18.28-.04.57-.07.86-.08.02-.04,0-.05-.05-.08-.27-.16-.77-.22-.65-.62s.55-.1.83-.14c-.24-.05-.65-.08-.57-.36.1-.37.58-.18.87-.3-.05-.04-.12,0-.18-.03-.29-.08-.73-.09-.69-.47s.47-.19.74-.21c.21,0,.42.02.62-.17-.25-.05-.5-.08-.76-.06-.19-.02-.46,0-.5-.21s.22-.27.42-.35c-.13-.13-.45-.09-.42-.36.02-.17.24-.17.39-.2.2-.02.39-.09.55-.2.07-.06.08-.12,0-.06-.02-.04-.06-.06-.11-.07-.15-.04-.3-.06-.37-.21.07-.42.51-.49.69-.8.19-.06.19-.2.19-.34Z"/><path class="cls-96" d="m147.17,91.28c.12.05.24.1.36.14s.27.07.28.23-.11.23-.22.3c-.27.15-.52.33-.77.52-.15.14-.59.3,0,.57.37.17-.16.44-.2.65.97.47-.29.78-.02,1.22.23.05.62-.14.8.23s-.13.56-.25.83c.2.17.44-.1.64.09,0,.3-.42.39-.42.72.18.2.61-.14.65.2s-.42.38-.65.6c.44.31,1,.4,1.51.22.3-.05.6.03.83.23.7.42.97.83.54,1.57-.09.15,0,.39,0,.59-.01.58-.43,1.07-1,1.17-.59.1-1.2.15-1.62-.42-.2-.27-.24-.75-.72-.62-.66.17-1.52-.08-1.85.83.1.15.27.09.42.15.24.11.52.2.55.51s-.26.42-.52.49c-.26.08-.49.25-.64.49l-4.17.03c-.16-.11-.1-.28-.1-.42v-13.33c.15-.3.42-.24.69-.24h4.29c.53.55,1.01,1.15,1.82,1.37.24.06.15.42-.09.51-.36.14-.21.36-.15.58Z"/><path class="cls-42" d="m140.7,89.03v13.01c0,.27,0,.53.02.8l-.17.1v-14.04c.15-.05.17,0,.15.14Z"/><path class="cls-1" d="m167.78,105.47c-.06-.6.47-.36.73-.47.15-.06.38.1.18.37s-.58.05-.87.11h-.04Z"/><path class="cls-32" d="m167.83,105.49c.27-.21.6.04.87-.11.12.13.29.07.42.12-.41.2-.88.2-1.29,0Z"/><path class="cls-96" d="m169.22,101.21c-.72.25-1.59-.22-2.25.42-.19.15-.31.37-.35.61.36.1.72-.05,1.05.13.23.12.42.22.1.45-.26.13-.55.18-.83.15-.09,0,.02,0-.06,0s-.03.03.02.07c.09.26.05.54-.1.76-.18.29-.18.65,0,.94v.04c.07.14.09.3.06.45v11.04c.03.15,0,.31-.07.45l-6.3,2.52c-.2.08-.42.18-.6.27l-6.76-2.66c-.13-.26-.18-.55-.13-.83v-12.57c0-.37.05-.75-.51-.67,0-.36.31-.42.53-.47.64-.18,1.19-.6,1.54-1.16.12-.18.29-.32.49-.42.36-.16.61-.35.42-.8-.08-.18.05-.33.21-.44.99-.71,2.19-.91,3.33-1.28.31-.1.51.09.58.39.21.92.87,1.14,1.7,1.12h1.06c.35,0,.57.13.64.47.08.31-.07.64-.37.77-.75.44-1.69.35-2.35-.21-.52-.48-1.25-.65-1.73-1.19-.29-.32-1.47.06-1.8.49.06.17.25.16.37.25.21.15.39.33.33.6s-.33.25-.55.24c-.2,0-.4.07-.55.2-.12.07-.19.2-.18.33.03.21.21.1.32.12.34.06.67.15.78.52s-.22.53-.47.7c-.22.13-.36.36-.37.61.62.02,1.25-.1,1.85.13.25.1.44-.15.62-.31.11-.1.21-.22.33-.32s.35-.34.58-.19.15.39.07.6c-.04.07-.06.16-.04.24.77,0,1.52.32,2.32.24.13-.03.24-.1.32-.21.12-.11.29-.2.42-.06.2.23.46.03.57.07.55.19.83-.09,1.22-.39.23-.17.59.08.89.08.1-.19-.03-.31-.08-.45-.19-.42-.06-.92.32-1.17.63-.54.62-.83,0-1.38-.32-.2-.52-.56-.52-.94.03-.48.36-.65.78-.42.19.13.36.27.53.42.68.5,1.39.85,2.27.62.33-.05.67-.02.98.09.48.1.93.27.98.83.03.48-.29.92-.77,1.03-.61-.02-.68-.5-.84-.9Z"/><path class="cls-144" d="m166.82,116.75v-11.93c.15.1.13.27.13.42v11.32c0,.06,0,.13-.03.19,0,0-.06,0-.1.01Z"/><path class="cls-74" d="m156.59,102.94c.12-.26.71-.2.5-.64-.18-.32-.58-.45-.92-.3-.37.1-.36-.11-.27-.36.12-.42.51-.7.94-.7.16,0,.42.24.46-.12.02-.24-.19-.39-.42-.45-.15-.01-.3-.01-.45,0,.11-.68.52-.91,1.13-1.02,1.2-.23,1.81.74,2.62,1.23.66.42,1.57.66,2.29.3.26-.1.41-.37.36-.64-.04-.31-.29-.36-.54-.36-.46,0-.93.03-1.39,0-.87,0-1.31-.36-1.47-1.21-.07-.37-.19-.42-.52-.3-1.02.42-2.13.55-3.07,1.17-.3.19-.42.31-.16.57s.1.42-.14.53c-.57.29-1.03.75-1.32,1.32-.19.31-.77.37-1.17.55-.19.08-.44.05-.56.28l.07.16c0,.37-.27.39-.52.42-.42.06-.85.03-1.25-.09-.38-.2-.85-.06-1.05.31-.03.05-.05.1-.06.15-.1.38-.32.73-.63.98-.15.1-.31.2-.49.09s0-.23,0-.35.03-.34-.16-.37-.25.15-.3.29c-.05.28-.31.47-.59.42-.04,0-.08-.02-.11-.03-.27-.07-.5.12-.75.2-.3.13-.65.13-.95,0-.16-.09-.42-.11-.37-.38s.29-.22.49-.2c.1.18.32.24.5.14.03-.02.06-.04.09-.07-.21-.11-.44.14-.6-.06.03-.26.27-.36.42-.54.36.3.2-.28.42-.25l.21.25c.42.5.5.49.92-.02s.92-.5,1.25.18c.23-.72.28-1.54,1.16-1.8.42,0,.67.42,1.11.42-.03-.28-.69-.42-.2-.81.24,0,.48.06.7.15.37.08.42-.11.33-.39.04-.12.14-.21.27-.22.15,0,.3,0,.45.03-.1-.31-.57-.5-.26-.87.45-.03.89.25,1.41.05-.24-.19-.53-.22-.73-.39s-.35-.42.09-.53c.33,0,.63.21,1.01.18-.17-.29-.59-.47-.35-.88.39-.13.74.22,1.13.07-.07-.27-.65-.42-.21-.83.2-.1.42-.06.62-.16.43-.22.83-.48,1.22-.77.07-.06.14-.11.21-.15.22-.12.45-.38.7-.19s-.05.47-.06.76c.27-.09.51-.23.72-.42.27-.2.58-.35.86-.54.15-.06.29-.14.45-.04.11.23.01.5-.22.61-.02,0-.04.02-.06.02.78-.35,1.55-.73,2.32-1.12.35-.13.61-.42.95-.57.15-.06.3-.11.46-.14.37-.05.73.11.93.42.17.25.36.49.56.71.13.2.27.38.42.56.14.22.32.42.51.6.17.18.35.37.54.55.15.17.32.31.52.42.25.14.5.26.77.37.14.06.28.1.42.14.19.06.38.07.57.12.7.15,1.45-.08,2.14.24.76.4,1.05,1.34.64,2.1-.12.23-.3.42-.51.57-.28.21-.6.42-.94.08-.09-.27.15-.27.3-.35.37-.25.77-.52.63-1.05s-.59-.54-1.02-.6c-.21-.06-.43-.07-.65-.05-1.14.28-2.02-.2-2.84-.91-.16-.13-.35-.46-.59-.23-.21.24-.21.6,0,.83.18.21.38.39.6.55.42.35.49.83.09,1.13-.81.58-.89,1.18-.3,1.9-.11.11-.27.15-.42.1-.57-.2-1.05-.23-1.29.49-.08.25-.17.22-.61-.35q-.47.59-.86-.07c-.17,0-.23.13-.25.25-.07.39-.21.47-.48.13-.12-.15-.22-.13-.39-.05-.31.15-.67.48-.88-.17-.06-.18-.34.08-.54.06s-.53.1-.69-.12.17-.29.24-.46.15-.32,0-.42-.27.06-.37.16c-.2.2-.42.42-.6.62-.2.23-.53.28-.79.12-.47-.27-1.05-.27-1.52,0-.48.22-.37-.05-.25-.31.06-.07.13-.12.21-.16.19-.09.42-.1.59-.18-.05-.19-.24-.03-.32-.12s-.15-.1-.09-.21Z"/><path class="cls-148" d="m149.71,103.75c.12-.83.32-.92,1.08-.67.6.2,1.22.35,1.79-.11.1,0,.28,0,.18.14-.2.32-.55.51-.92.51-.67,0-1.35-.15-2,.1l-.13.04Z"/><path class="cls-30" d="m167.48,77.73h.14c0,2.64,0,5.28.02,7.92,0,.22-.1.49.15.67-.51.42-.77.42-1.13.03.02-.07.05-.15.07-.22.09-1.94,0-3.87.04-5.81,0-.62-.03-1.25.03-1.85.07-.39.37-.57.68-.74Z"/><path class="cls-72" d="m166.73,86.35c.37.32.71-.03,1.06-.05.28-.1.42-.04.33.28-.06.25-.23.46-.47.58-.09.05-.19.05-.28,0-.47-.14-.9.18-1.35.15-.32-.02-.73,0-.5-.55.14-.14,0-.34.1-.49.13-.15.3-.26.48-.34.47-.27.65-.08.62.41Z"/><path class="cls-122" d="m169.14,87.78c-.16.34-.47.59-.83.68.02.22.2.37.22.59.02.3-.05.47-.39.3-.49-.62-.72-.03-1.02.22-.09,0-.18-.05-.22-.14-.01-.29-.05-.59-.12-.87.42-.7.5-.74,1.04-.49.42,0,.92.24,1.12-.39l.21.1Z"/><path class="cls-122" d="m167.49,87.01l.17.15s-.01.08-.04.11c-.18.37-.6.42-.88.66-.25.15-.39.44-.36.73.03.42-.16.62-.6.57-.17-.06-.37-.1-.44-.31.15-.13.38-.24.16-.5-.05-.23-.04-.46.03-.68.03-.06.07-.11.12-.15.61-.2,1.17-.57,1.83-.59Z"/><path class="cls-108" d="m166.7,87.82l.92-.54c.07.26-.08.57.17.8-.36-.07-.57.05-.94.53-.27.05-.24-.15-.23-.3s.13-.31.08-.48Z"/><path class="cls-73" d="m147.17,91.28c-.24-.25-.83-.52.05-.7.12,0,.23-.08.22-.2,0-.18-.16-.16-.29-.17-.72-.08-1.31-.62-1.45-1.33-.03-.03-.05-.06-.03-.09s.02-.05.03-.05c.04-.1.07-.21.11-.31.03-.05.07-.1.11-.15.28.07.46.58.76.31s-.05-.49-.24-.7l-.61-.38c.52-.52.83-.51,1.75.05.13.06.22.14.14.3-.17.15-.19.41-.04.59.01.01.03.03.04.04.34.46.28.59-.27.76-.12.04-.29.02-.3.19s.16.18.29.2c.35.04.66.14.69.56.05.39-.22.75-.61.81-.06.02-.12.06-.16.12l-.19.16Z"/><path class="cls-37" d="m151.21,88c-.1.13-.17.25.07.33.47.17.19.37,0,.55h-.11c-.49,0-.99.16-1.45-.15-.04-.42.22-.72.32-1.09.02.24.12.37.42.35.25-.01.5-.01.75,0Z"/><path class="cls-93" d="m149.19,86.87l-.3.14c-.26-.14-.54-.22-.83-.25l-.12.17-.51-.28c.7-.43,1.2-.36,1.77.23Z"/><path class="cls-34" d="m147.71,87.8l-.13-.24.38-.05c.13.17.36.31.26.59-.21-.02-.4-.13-.51-.3Z"/><path class="cls-96" d="m166.73,86.35l-.25-.45-.83.47c-.25.37-.63.27-.99.26-.61-.12-.94-.62-1.37-.98-.27-.27-.52-.37-.8,0-.21.28-.58.26-.91.36.27.1.53.17.6.47.16.28.07.65-.22.81-.01,0-.02.01-.04.02-.5.28-.97.61-1.41.98-.18.18-.33.12-.44-.05s-.5-.29-.29-.65c.09-.15.16-.31.2-.48.12-.63-.21-.99-.83-.94-.3.03-.65.11-.73-.35-.02-.13-.15-.15-.26-.12-.52.13-1.07-.03-1.57.23-.18.13-.44.1-.58-.09-.19-.18-.41-.34-.64-.46-.73-.42-1.29-.37-1.78.26-.24.31-.42.11-.6.15v-7.3c.22-.24.52-.19.81-.19h12.24c.26-.04.53.01.76.15.08.21.1.43.06.65v6.56c.04.22.02.44-.07.65l-.07.03Z"/><path class="cls-97" d="m167.48,77.73c-.13.22-.31.4-.53.53-.07.05-.15.09-.23.11-4.61.04-9.23,0-13.84,0-.25-.1-.28-.37-.56-.65l15.17.02Z"/><path class="cls-94" d="m152.88,78.38c.2-.21.46-.12.69-.12h13.25c.07.06.08.16.02.23,0,0-.01.01-.02.02h-13.8l-.14-.13Z"/><path class="cls-83" d="m167.48,75.57h-.52l.4-.25v-7.67s0-.09.02-.12h.11c.08.21.1.43.06.65v6.77c.04.21.02.43-.07.63Z"/><path class="cls-74" d="m167.48,75.57v-8.07l.16.03c-.12,1.55-.03,3.12-.05,4.67v3.36h-.11Z"/><path class="cls-42" d="m165.75,75.61c-.16.17-.37.11-.56.11h-10.42c-.19,0-.42.06-.57-.11,1.36-.16,2.72-.3,4.08-.5.61-.09,1.15.38,1.6.31.52-.07,1.03-.38,1.63-.3,1.42.21,2.82.4,4.23.48Z"/><path class="cls-96" d="m160.07,91.11c.83,1.2,1.92,1.14,3,.91,1.67-.36,3.29-.83,4.95-1.2.73-.2,1.5-.17,2.21.1.44.18.83.42.83.99s-.23,1.12-.77,1.28c-1.59.48-3.22.8-4.77-.16-.57-.31-1.24-.39-1.86-.21-.93.19-1.85.41-2.77.65-.53.15-.74-.06-.8-.55-.08-.6-.09-1.2-.03-1.8Z"/><path class="cls-37" d="m169.74,102.28c.52.32.83-.04,1.1-.38.42-.51.45-1.24.07-1.77-.12-.13-.25-.25-.39-.35,0-.32.23-.61.13-.95.44-.22.83-.7,1.36-.13.32.06.65.04.96-.05.22-.04.42-.13.62.05-.15.36-.51.48-.79.69-.06.09-.15.15-.25.16.26,0,.47.07.67-.03.15.04.42-.13.46.1s-.19.26-.33.35c-.3.15-.64.23-.98.23.25.27.62.13.89.31-.19.36-.67.03-.87.42h.79c.25,0,.51.05.83.08-.5.72-1.19.42-1.84.51.42.45.9.27,1.37.38-.36.46-.87.3-1.33.39.23.33.66.17.9.44-.36.26-.76.05-1.18.12.24.42.72.42,1.03.67-.39.32-.81.2-1.22.19-.27-.04-.58.15-.83-.12-.83,0-.95.13-.95.91.02.23-.15.43-.38.45-.29.08-.59-.06-.72-.32-.12-.25,0-.36.24-.42s.32-.2.18-.39c-.11-.17-.34-.23-.52-.12-.02.01-.04.03-.06.05-.35.27-.62.26-.68-.24-.03-.24,0-.5.39-.42.49.12.57-.17.5-.57.32.03.25-.42.52-.42.13-.03.27.05.3.18,0,0,0,0,0,0Z"/><path class="cls-37" d="m150.24,102.3c-.88.37-.77,1.35-1.22,2.08-.2-.32-.07-.77-.53-.8s-.55.28-.7.58c-.09.18-.21.38-.45.28-.38-.15-.72-.36-.68-.83.22-.07.64.27.63-.26,0-.35-.21-.48-.53-.29-.17.1-.32.2-.44-.02-.14-.23-.16-.52-.05-.77.09-.19.26-.1.42-.03.32.14.47,0,.48-.31,0-.24-.07-.45-.39-.37-.15.04-.34.13-.36-.11,0-.27.14-.52.36-.67.16-.14.29-.04.37.11.63,1.13,1.61,1.14,2.69.83.28.08.58.16.4.57Z"/><path class="cls-3" d="m169.45,89.38l.02-.63c-.07-.17-.07-.3.17-.31.35.2.42.6.66.92.29-.23.1-.59.27-.87.55.23.89.57.76,1.2.37.1.35-.5.62-.35s.28.52.3.83c-.05.17-.12.35.18.32.34-.18.3-.62.57-.86.32.83.16,1.33-.59,1.67-.28.1-.46.39-.42.69.02.57-.21,1.13-.65,1.5-.2-.05-.26-.22-.3-.42.8-1.38.57-2.12-.9-2.89-.15-.24-.42-.42-.44-.72s-.23.07-.25-.08Z"/><path class="cls-3" d="m147.71,87.8c.22-.06.45.07.51.29,0,0,0,0,0,0,.11.25.28.26.47.11s.23-.27.07-.45c-.09-.1-.18-.24,0-.32.22-.1.49-.09.7.05.11.07.24.2.14.32-.76.91-.47,2.01-.57,3.04-.39-.1-.1-.4-.16-.53-.21.5-.06,1.18-.62,1.6.15-.77-.34-.83-.9-.81-.04-.1-.23-.24.04-.26.42-.04.68-.21.61-.67s-.42-.42-.72-.38c-.21,0-.42,0-.42-.26-.02-.23.15-.43.38-.45.02,0,.05,0,.07,0,.2,0,.42.12.49-.16s-.14-.32-.3-.45c-.48-.39-.17-.55.2-.68Z"/><path class="cls-25" d="m149.73,92.17c.38.14.51.48.67.81-.37.83-.37,1.76-.45,2.65-.16.21-.26.38.11.49.69.21.68.22.19.83-.16.21-.05.32.16.32.25.04.51.03.75-.05.29.42-.14.48-.32.53-.39.13-.81-.03-1.01-.39-.14-.25-.31-.37-.57-.15-.42.1-.42-.15-.38-.42.03-.19.12-.37.25-.5.32-.27-.22-.32-.14-.53.12-.47.16-.96.12-1.45,0-.62.11-1.23.31-1.82.03-.14.03-.39.3-.33Z"/><path class="cls-11" d="m149.73,92.17c-.35.89-.49,1.85-.42,2.8.05.33-.05.66-.26.92-.05.11-.21.05-.27.15-.12.12-.25.24-.47.18l.47-1.02c-.3-.25-.47.18-.76.11.09-.56.63-.89.76-1.5-.46.09-.62.5-.96.62-.15.08-.31.17-.35-.11.42-.42,1.16-.57,1.31-1.29-.36-.59-.22-1.02.42-1.25.07.29.38.23.55.39Z"/><path class="cls-43" d="m162.04,87.67l.53-.53c.08-.34.21-.56.58-.24.12.1.28.12.38.25.06.27.28.15.45.18.48.13.86.5,1,.98-.08.65.5.99.71,1.5-.02.1-.09.18-.19.22-.36.06-.72-.07-.95-.35-.66-.64-1.25-1.37-2.26-1.47,0-.25.17-.19.32-.19s-.02-.14,0-.06c-.28.09-.52.09-.57-.29Z"/><path class="cls-99" d="m151.28,88.89c-.09.28-.66.52-.09.88,0,0-.12.22-.17.34-.14.42-.5.78-.27,1.3.08.17,0,.37-.17.45-.16.05-.26-.14-.34-.26-.51-.81-.7-1.78-.52-2.72.51-.09,1.04-.1,1.55-.02l.02.04Z"/><path class="cls-31" d="m165.47,97.92c-.24-.17-.43-.4-.55-.66.4-.99.47-2.08.22-3.12-.13-.29-.14-.61-.03-.9.67.27.92.87,1.2,1.46.08.9-.02,1.8-.3,2.66-.07.26-.15.57-.53.56Z"/><path class="cls-50" d="m154.33,95.25l.03-.24c0-.44.08-.87.22-1.29.15-.42.15-.89.45-1.25.32.05.24.33.26.52.02.48,0,.97-.09,1.45-.1.76-.22,1.53.3,2.21-.37.2-.48-.17-.72-.25-.2.33.09.62.07.97-.34-.03-.37-.33-.51-.52-.1-.53-.11-1.07-.02-1.6Z"/><path class="cls-64" d="m151.67,96.28c.71-.67,1.12-1.61,1.12-2.59,0-.24.05-.48.12-.71.09-.3.29-.67.59-.62s.35.45.3.77c-.04.31-.12.62-.23.91-.14.32-.11.71-.42.97-.05.78-.7,1.13-1.17,1.6-.24.04-.34-.07-.31-.32Z"/><path class="cls-66" d="m159.66,96.71c0-.14.1-.32.23-.23.77.51,1.02-.15,1.27-.6.27-.54.05-1.19-.49-1.46-.11-.06-.24-.09-.37-.11.28-.15.58-.24.9-.28.21-.1.45-.04.6.13.42.45.42,1.67-.02,2.15-.79.47-1.6.89-2.44,1.25.02-.39.4-.53.32-.85Z"/><path class="cls-42" d="m166.53,98.84c-.22-.07-.4-.21-.53-.39.02-.37.11-.74.27-1.07.22-.77.32-1.58.29-2.38l.95.89c.17.31.2.68.08,1.01-.1.54-.26,1.07-.47,1.57-.1.23-.21.51-.57.37Z"/><path class="cls-63" d="m159.52,94.58h-1.21c-.03.91.03,1.79.97,2.27-.2.27-.54.34-.79.53-.74-.17-1.19-.9-1.02-1.64.02-.09.05-.17.08-.25.12-.26,0-.56.09-.83.34-.36.77-.12,1.16-.18.28-.02.56-.02.83,0,.05.09,0,.13-.11.1Z"/><path class="cls-56" d="m165.1,93.23c.34,1.17.56,2.35.17,3.55-.07.2-.05.45-.35.47l-.42-.52c.22-.99.18-2.02-.12-2.99-.07-.22.05-.42,0-.65.29-.17.51-.03.72.13Z"/><path class="cls-55" d="m166.53,98.84c.65-.32.55-1.02.76-1.56.17-.45.24-.92.21-1.4.45.22.78.62.91,1.1-.13.7-.35,1.39-.63,2.05-.07.2-.19.35-.44.23-.31-.05-.59-.2-.81-.42Z"/><path class="cls-59" d="m157.64,94.66c.07.42-.15.86-.13,1.25.05.63.42,1.19.98,1.47-.33.3-.73.51-1.16.6.05-.42.42-.64.35-1.1l-.77.51c-.45.11-.42-.34-.63-.54-.08-.1-.42-.22,0-.3.26-.07.68,0,.45-.51-.11-.19-.15-.41-.11-.63.04-.17.1-.37.34-.18.49.38.62.18.58-.34.01-.08.07-.16.1-.24Z"/><path class="cls-43" d="m153.42,99.76c-.45.02-.23.18-.06.32.32.26.78.23,1.22.49-.6.35-1.35.35-1.95,0-.06-.03-.11-.07-.15-.12-.15-.24-.27-.5-.42-.73-.23-.25-.21-.64.04-.87,0,0,0,0,0,0l.25-.75c.29-.18.34.89.68.07.05.04.12.11.1.16-.22.55.02,1,.29,1.44Z"/><path class="cls-56" d="m163.91,91.41c-.75.39-1.63.47-2.44.24-.55-.15-1.04-.42-1.15-1.04-.09-.4-.09-.82,0-1.22h0c.4-.1.5.21.65.45.23.46.42.96.94,1.17.43.1.88.1,1.32,0,.07,0,.14,0,.2,0,.23.03.5.04.49.39Z"/><path class="cls-29" d="m153.83,97.62c-.21-.46-.35-.94-.42-1.44-.1-.63-.09-1.27.04-1.9.19-.47.17-1.11.9-1.16l.25-.12c.21.17.14.38.09.59-.07.4-.23.79-.46,1.13-.42.81-.28,1.67-.25,2.5,0,.15.19.37-.15.4Z"/><path class="cls-43" d="m151.24,94.28c.35-.57.63-1.18.83-1.82.15-.44.36-.85.64-1.22.13-.17.26-.44.5-.36s.39.42.45.68-.16.34-.38.42c-.41.21-.73.58-.89,1.01-.2.57-.61,1.03-1.15,1.29Z"/><path class="cls-15" d="m167.06,89.52s.09-.1.12-.15c.35-.74.39-.74.96-.07.09.08.25.24.3.06.15-.64.42-.28.55-.05s.62.37.42.83c-.37-.01-.75,0-1.12.04l-1.06.19c-.26-.07-.5-.18-.72-.32-.05-.03-.09-.08-.12-.14.1-.35.44-.28.67-.4Z"/><path class="cls-98" d="m149.16,91.8c-.42.26-.59.79-.42,1.25-.29.06-.46.36-.77.37-.17.03-.39.16-.42-.16l.52-.56c-.16-.19-.33-.05-.48-.07s-.33.18-.38-.12l1.02-.55c.19-.54.25-1.13.62-1.6.12.15-.03.42.17.53.05.29.1.6.14.92Z"/><path class="cls-67" d="m164.01,96.06c-.26-.23-.45-.59-.9-.42.35-.42.08-.83,0-1.25-.05-.29-.23-.56-.29-.83.18-.12.4-.17.62-.15.23-.1.5,0,.6.23,0,0,0,.01,0,.02.32.63.45,1.33.37,2.03-.01.16-.1.42-.41.36Z"/><path class="cls-27" d="m164.01,96.06c.54-.72.2-2.37-.55-2.69l.94-.27c.24.67.39,1.37.42,2.08.02.54.07,1.1-.31,1.56-.21-.2-.37-.43-.49-.69Z"/><path class="cls-48" d="m156.19,90.47c-.17-.03-.35.02-.47.15-.07.04-.15.02-.19-.05,0,0-.01-.02-.01-.03.12-.13-.04-.22-.05-.33,0-.06,0-.12,0-.17-.04-.27-.05-.54-.03-.8.34-.65.5-.12.76.13.18-.25.34-.55.72-.49.26,0,.3.23.37.42-.2.56-.17,1.25-.79,1.58-.37.05-.11-.34-.3-.4Z"/><path class="cls-29" d="m166.56,95c.24.76.2,1.59-.1,2.32-.07.4-.22.79-.45,1.13-.22-.13-.4-.31-.53-.53.67-.72.52-1.67.68-2.53,0-.24.06-.47.15-.69l.25.3Z"/><path class="cls-53" d="m156.22,93.95c-.06.59-.08,1.17-.06,1.76-.48-.29-.73-.85-.61-1.4.1-.62.1-1.24,0-1.86-.23-.27-.23-.52.15-.62s.36.23.36.42.26.42.16.67c.08.34.08.69,0,1.02Z"/><path class="cls-145" d="m156.87,88.99c-.25.03-.45.21-.51.46-.04.13.08.35-.16.36s-.25-.18-.3-.37-.03-.62-.37-.16c-.09.07-.22-.06-.3.07-.05.01-.1.01-.15,0-.1-.04-.15-.14-.24-.19-.74.18-.75.18-.75-.53,0-.22-.15-.28-.27-.42l-.13-.21c.14-.53.47-.52.83-.27s.66.5,1,.74h.16c.13.15.33.23.52.22.25.05.56-.08.66.29Z"/><path class="cls-95" d="m152.21,101.63c.07.18.42.22.3.44s-.36.11-.55.09c-.29-.02-.56-.12-.8-.27-.22,0-.45.3-.68-.02-.15-.2-.2-.37,0-.55l.53-.92c.38.17.62.55,1.01.71-.14.25.22.31.2.52Z"/><path class="cls-58" d="m161.78,96.31c.19-.52.22-1.07.09-1.61-.05-.32-.19-.7-.67-.67.24-.15.51-.24.79-.27.16-.08.36-.03.46.12.39.55.48,1.25.25,1.89-.26.25-.58.43-.93.53Z"/><path class="cls-64" d="m153.42,99.76c-.77-.37-.57-.99-.42-1.6,0-.1,0-.2.15-.22.42.13.52.5.64.83.07.2.16.24.32.22-.15.6.49.56.77.95-.49.14-1.02.08-1.46-.18Z"/><path class="cls-101" d="m151.95,101.17c-.4-.12-.74-.4-.95-.77-.02-.03-.02-.07,0-.11.16-.2-.02-.47.13-.67.01-.14.13-.24.27-.24.3.28.55.6.74.97.16.31.31.05.45.07v.15c-.1.52.52.53.64.93-.26.27-.51,0-.76-.03-.15-.1-.43-.02-.52-.3Z"/><path class="cls-52" d="m159.52,92.46l.02.2c.04.17.11.35-.18.34-.42-.7-.42-1.55-.77-2.27-.22-.1-.35-.32-.33-.56.15-.27.32-.51.7-.37.36.53.52,1.17.45,1.81.13.27-.03.57.11.84Z"/><path class="cls-41" d="m167.33,99.24c.47-.37.51-.96.68-1.47.06-.3.2-.58.42-.8.42.21.16.68.42.96,0,1-.35,1.47-1.09,1.43-.16.03-.31-.02-.42-.13Z"/><path class="cls-19" d="m154.12,98.99c-.16.09-.3.2-.42-.09-.16-.33-.34-.65-.54-.96q.39,0,1.1.57c.46.05-.2-1.01.62-.61v.07s.04.08.08.1c.04.03.07.06.1.1.02.05,0,.1-.04.12q0,.34.69.83c-.52.19-1.1.14-1.58-.14Z"/><path class="cls-39" d="m162.71,95.77c.04-.5-.04-1-.22-1.47-.09-.23-.17-.51-.5-.54.25-.15.54-.24.83-.25.62.49.42,1.29.71,1.89l-.42.22c-.13.1-.24.21-.41.14Z"/><path class="cls-18" d="m149.94,95.64c-.29-.89.05-1.75.18-2.61,0-.15.18-.04.27-.04.67.97.66,1.02-.25,1.71.07.21.34.17.42.33-.09.31-.44.37-.62.61Z"/><path class="cls-24" d="m151.06,90.92c.27-1.07.98-1.77,1.89-1.87-.14.64-1.22,1.75-1.89,1.87Z"/><path class="cls-47" d="m153.82,88.2c.16.03.32-.21.48,0s0,.32-.07.48-.19.29-.03.42.32,0,.46-.11.23-.45.34,0c-.06.47-.46.67-.75.96-.05.03-.11.04-.17.05-.21-.04-.42,0-.64-.04-.1-.12-.12-.29-.03-.42l.4-1.35Z"/><path class="cls-101" d="m167.73,99.37c.49,0,.67-.31.81-.7.09-.25.18-.49.27-.73.29.36.42.88.93,1.02.03.42-.18.61-.57.59-.3.04-.61.02-.9-.05-.19.03-.38-.02-.54-.13Z"/><path class="cls-47" d="m150.89,95.5c.6-.57,1.03-1.3,1.61-1.97.13,1.16-.29,1.8-1.32,2.12-.15.06-.3.1-.29-.15Z"/><path class="cls-54" d="m157,91c.16-.09.32-.26.45.06.11.21.23.41.37.59.47.32,0,.83.24,1.21-.08.22.24.59-.03.65-.36.08-.45-.31-.51-.61-.03-.15-.08-.29-.12-.42-.27-.47-.59-.91-.4-1.48Z"/><path class="cls-45" d="m159.39,86.89c.55.19.14.53,0,.57-.65.21-1.32.35-1.99.5-.02,0-.07-.1-.11-.15.27-.69.89-.83,1.53-.96.2-.05.37.11.57.03Z"/><path class="cls-102" d="m169.47,90.05l-.83-.92c-.17,0-.1.83-.49.16.25.13.3.05.25-.2s-.35-.37-.1-.62c.49.15.9.48,1.16.92.11.26.2-.69.32,0,.05.31.49.45.37.83-.04,0-.08,0-.12-.02-.15-.13-.39.03-.54-.14Z"/><path class="cls-112" d="m162.17,86.49c-.3-.24-.69-.36-1.07-.32.2-.42.51-.34.77-.39.27-.01.51-.17.62-.42.3-.54.61,0,.9.19-.02.08-.07.16-.13.22-.1.14-.15.31-.16.48-.06.24-.19.32-.42.2-.09-.05-.14-.14-.23-.2-.04-.04-.09-.06-.14-.06,0,.05.05.11,0,.17l-.14.14Z"/><path class="cls-24" d="m157.85,86.02c-.47.41-.9.87-1.28,1.36-.08.15-.27.2-.41.12,0,0,0,0,0,0-.18-.09-.09-.26-.05-.42.22-.75.81-1.15,1.75-1.06Z"/><path class="cls-101" d="m155.52,88.47c-.47.14-.67-.28-.91-.51-.37-.34-.64-.31-.93.04-.1-.05-.24-.03-.27-.17.08-.55.17-.6.83-.42.31.06.63.1.93.18.52.11.37.53.35.88Z"/><path class="cls-37" d="m150.48,101.32c-.17.66.35.5.67.57q0,.32.66.83c-.67.33-1.1-.13-1.58-.42.03-.31-.3-.37-.42-.58l.66-.41Z"/><path class="cls-94" d="m162.72,86.34c.42.21.22-.15.28-.3s-.25-.51.23-.35c.71.49.83,1.12.29,1.64-.13-.26-.45-.18-.64-.42s-.14.24-.32.22v-.51c-.08-.17-.09-.29.15-.29Z"/><path class="cls-54" d="m157.25,93.16c.05.51,0,1.02-.17,1.5-.23-.09-.37-.32-.35-.56-.14-.42.05-.83-.11-1.25v-.22c-.08-.27-.11-.52.28-.54.52.22.17.75.36,1.07Z"/><path class="cls-13" d="m151.24,91.85c.42-.56.78-1.04,1.16-1.5.1-.13.24-.42.46-.2.16.11.2.32.09.47-.02.04-.06.07-.09.09-.5.38-.7,1.17-1.62,1.12Z"/><path class="cls-13" d="m168.27,99.5c.54-.06,1.19.2,1.48-.54.3-.07.63.09.9-.14.38.37.1.66-.13.95-.74-.23-1.52-.01-2.25-.27Z"/><path class="cls-27" d="m156.28,96.86c.28.1.33.46.63.54-.31.42-.83.5-1.21.78-.22.09-.47.09-.69,0h0s-.04-.07-.03-.11c0-.04,0-.05.03-.05.17-.09.38.05.53-.11l-.13-.38c-.09-.17-.07-.3.17-.29.26-.08.63.06.7-.37Z"/><path class="cls-70" d="m156.02,88.86c-.27,0-.42-.09-.34-.38.64-.74.8-.74,1.71.02.03.15-.06.3-.21.34-.39.02-.78-.12-1.16.02Z"/><path class="cls-12" d="m154.89,85.64c.9.42,1.17.8.95,1.31-.05.12-.05.29-.21.3-.16,0-.3-.09-.37-.23-.23-.42-.36-.89-.38-1.37Z"/><path class="cls-27" d="m158.47,91.26c.1.73.35,1.42.73,2.05-.55.04-.56.03-1.02-.97-.16-.25-.22-.54-.17-.83.01-.37.23-.33.47-.24Z"/><path class="cls-64" d="m159.82,90.43c-.39-.46-.64-1.02-1.19-1.33-.08-.05-.15-.42.1-.49.26-.13.57-.02.7.24.02.04.03.07.04.11.12.48.24.96.35,1.47Z"/><path class="cls-47" d="m152.62,100.42c-.19.09-.07.32-.25.47-.29-.52-.79-.9-.94-1.51l.66-.54c-.3.68.4,1.02.53,1.58Z"/><path class="cls-21" d="m160.85,89.94c-.16-.2-.25-.48-.55-.55.06-.58.53-.86.92-1.19.25-.13.39,0,.47.22-.26.52-.54,1.03-.84,1.52Z"/><path class="cls-101" d="m169.08,94.45c-.86.13-1.73-.02-2.5-.42.04-.32.26-.15.42-.14l.38.04c.46.06.92.07,1.39.04.33.02.5.13.32.47Z"/><path class="cls-6" d="m154.59,91.65l.24-.63c.27.53.12,1.18-.37,1.52-.27.13-.36-.02-.39-.25-.08-.39-.03-.79.16-1.14.21-.04.15.12.17.22s-.15.37.18.27Z"/><path class="cls-24" d="m157,87.69c.1-.76.87-1.28,1.8-1.18.21.04.41.09.61.15v.05l-.12.05c-.19.17-.45.07-.67.16-.43.07-.82.28-1.12.59-.14.13-.27.31-.51.17Z"/><path class="cls-15" d="m169.08,94.45c.04-.38-.2-.42-.5-.42-.42-.02-.83.12-1.22-.1.83-.06,1.67.12,2.5-.16.37-.12.44.08.42.39-.35.25-.78.35-1.2.29Z"/><path class="cls-56" d="m158.47,91.26c-.11.12-.32,0-.42.16-.05,0-.09,0-.1-.05,0-.52-.57-.87-.42-1.43.22-.15.36,0,.5.13.23.22.38.51.42.83l.02.36Z"/><path class="cls-12" d="m170.28,94.17c-.1-.17-.15-.39-.42-.39.42-.17.81-.4,1.17-.68.17.08.21.25.3.42-.34.22-.56.66-1.05.65Z"/><path class="cls-102" d="m153.92,85.82c.41.1.76.38.94.76.06.12.22.29.03.42-.16.12-.4.09-.52-.07,0,0,0-.01-.01-.02-.23-.32-.38-.69-.44-1.08Z"/><path class="cls-22" d="m163.91,91.41c-.14-.17-.34-.28-.57-.3.31-.53.91-.42,1.37-.62.31.04.47.19.39.52-.37.21-.77.35-1.19.4Z"/><path class="cls-102" d="m152.78,97.46c-.23-.52-.27-.98.33-1.38.05.54.33,1.05-.33,1.38Z"/><path class="cls-40" d="m165.1,91.01c-.09-.18-.15-.42-.42-.42.08-.42.42-.34.69-.36.33.16.83-.15,1.04.36-.41.2-.86.34-1.31.42Z"/><path class="cls-121" d="m157.25,93.16c-.22-.29-.15-.65-.24-.97-.2-.27-.38-.55-.54-.83l.54-.37c-.04.53.42.93.42,1.46-.25.21-.1.49-.17.72Z"/><path class="cls-40" d="m161.65,88.47c-.07-.17-.23-.28-.42-.27.23-.22.51-.4.81-.52.15.22.41.34.67.32l-.42.19c-.12.3-.32.45-.65.28Z"/><path class="cls-36" d="m158.2,88.11c.37-.29.88-.31,1.27-.07.06.05.11.12.14.19,0,.02-.08.12-.12.12-.42-.05-.91.22-1.29-.24Z"/><path class="cls-9" d="m151.84,88.75l.87-.45c.19-.1.35-.07.42.14s-.07.33-.25.37c-.21.04-.43.07-.65.08-.15.01-.35.2-.39-.14Z"/><path class="cls-56" d="m156.47,91.37c.5.06.46.48.54.83-.34-.04-.42.16-.42.45-.02-.44-.62-.8-.12-1.28Z"/><path class="cls-55" d="m157.27,88.74l.13-.23c.22-.12.5-.06.64.14.11.15.04.29-.06.42-.21.27-.45.17-.7.06-.11-.1-.12-.26-.02-.37,0,0,.01-.01.02-.02Z"/><path class="cls-131" d="m153.9,86.66c-.43.19-.93.04-1.18-.35.6-.2.78-.15,1.18.35Z"/><path class="cls-35" d="m151.95,86.97c.3-.29.59-.45.95-.26.16.08.09.23,0,.33-.32.37-.6.1-.95-.07Z"/><path class="cls-14" d="m156.19,90.47c.2.05.11.32.28.42-.24.14-.48.29-.72.42-.13.07-.26.2-.42.14-.06-.02-.08-.19-.07-.29.02-.24.25-.2.42-.26.2-.1.65.11.51-.42Z"/><path class="cls-33" d="m173.61,98.69c-.53-.08-1.06.35-1.59,0,.12.01.23-.05.28-.16.47.14.88-.08,1.31-.22.1.07.28.13.29.21,0,.2-.24.05-.29.17Z"/><path class="cls-15" d="m166.42,90.6c-.3-.3-.76.05-1.06-.25.16-.2.39-.14.6-.17s.45.03.57-.22c.28.03.54.19.7.42l-.81.23Z"/><path class="cls-86" d="m157,87.69c.42-.05.54-.5.88-.65.22-.11.45-.16.7-.17.13-.04.28-.12.27.13-.59.1-1.14.39-1.55.83-.12.01-.24-.04-.3-.15Z"/><path class="cls-16" d="m155.13,89.27l.15-.03c.18.27.12.6.26.88v.04c-.07.14-.17.13-.29.07-.17-.19-.34-.39-.65-.27-.22,0-.17-.16-.09-.25.17-.18.38-.33.61-.44Z"/><path class="cls-98" d="m153.41,89.53c0,.14-.02.3.12.42.28.11.49.35.55.64.16.25.06.42-.2.37s-.58-1.12-.48-1.42Z"/><path class="cls-129" d="m153.57,94.21c-.14.64-.2,1.3-.17,1.96-.3-.35.04-.83-.23-1.18.1-.35.19-.7.28-1.05.26,0,.14.15.12.27Z"/><path class="cls-124" d="m155.13,89.27c-.02.34-.57.29-.52.69l-.12.22c-.24.1-.3-.04-.31-.23.08-.49.71-.49.83-.94,0,.1.02.21.12.27Z"/><path class="cls-29" d="m158.95,89.81c-.24.07-.45.2-.62.38-.03.05-.1.07-.16.04-.14-.24-.57-.5.05-.68.28-.03.56-.03.73.26Z"/><path class="cls-98" d="m148.88,96.8c.1.16.12.42.38.42-.31.25-.72.35-1.12.27l.74-.69Z"/><path class="cls-11" d="m154.25,87.4c-.33.05-.73-.05-.83.42-.18-.19-.18-.49,0-.68.02-.02.05-.05.08-.06.35-.23.52.14.74.32Z"/><path class="cls-41" d="m151.67,96.28c.06.15.17.26.32.32-.31.25-.69.37-1.09.35.21-.27.47-.5.77-.66Z"/><path class="cls-129" d="m154.22,94.72l.37-1.1c.08,0,.1.11.15.16l-.37,1.22c-.03-.1-.02-.22-.15-.29Z"/><path class="cls-123" d="m154.09,90.57c-.23-.17-.42-.39-.55-.64.19-.22.37-.17.56,0,.06.17.22.32.12.52l-.13.12Z"/><path class="cls-137" d="m148.07,86.75c.38-.28.62-.07.83.25-.41.31-.61-.02-.83-.25Z"/><path class="cls-114" d="m153.57,94.21l-.12-.27c.04-.31.17-.59.36-.83h.53c-.59.14-.58.69-.77,1.1Z"/><path class="cls-93" d="m157.94,91.37l.1.05.12.91c-.17.14-.07.35-.11.52-.22-.37-.12-.83-.24-1.21l.12-.28Z"/><path class="cls-2" d="m173.11,89.03c-.33.39-.65.62-.96,0,.31-.12.65-.12.96,0Z"/><path class="cls-7" d="m145.47,101c.13-.27.44-.4.72-.29.02,0,.05.12.03.16-.17.32-.44.19-.75.13Z"/><path class="cls-113" d="m154.74,93.78l-.15-.16v-.62c.21-.12.13-.49.44-.53-.25.4-.1.9-.3,1.32Z"/><path class="cls-110" d="m157.27,88.74v.55c-.16-.06-.18-.31-.42-.3-.25-.22-.57-.06-.83-.13.4-.14.83-.18,1.25-.12Z"/><path class="cls-23" d="m155.55,92.46c.2.6.2,1.26,0,1.86v-1.86Z"/><path class="cls-3" d="m169.47,90.05c.18.04.39-.05.53.13h-1.71c.37-.24.79-.06,1.18-.13Z"/><path class="cls-38" d="m151.95,87.82c.07-.05.15-.09.23-.12.16-.04.33-.08.49-.1.04.05.06.11.06.17-.08.25-.31.16-.49.19s-.29.12-.29-.14Z"/><path class="cls-118" d="m158.22,89.55c-.48.22-.04.42,0,.65-.06.07-.17.08-.24.02,0,0-.02-.01-.02-.02-.11-.14-.19-.32-.42-.26.19-.19.33-.46.68-.39Z"/><path class="cls-45" d="m151.27,88.85l-1.55.02v-.13c.52.06,1.05-.13,1.55.11Z"/><path class="cls-138" d="m145.28,102.94c.18-.35.37-.49.52-.42s.15.12.1.2c-.14.26-.44.05-.62.21Z"/><path class="cls-129" d="m154.33,95.25c0,.53,0,1.06.02,1.6-.22-.51-.23-1.08-.02-1.6Z"/><path class="cls-41" d="m154.22,90.46c-.12-.14-.17-.34-.12-.52h.07l.31.23c.12.05.24.11.14.27s-.27,0-.4.02Z"/><path class="cls-20" d="m162.72,86.34c-.12.06-.14.17-.15.29l-.26-.27-.39-.37c.37.08.64.1.8.36Z"/><path class="cls-105" d="m147.45,94.33c.09.14.22.11.35.11-.18.19-.44.27-.7.22,0-.24.17-.3.34-.33Z"/><path class="cls-55" d="m155.54,90.5l.17.12c-.22.17-.53.14-.7-.07-.12-.11-.07-.23.13-.21.14.09.33-.03.4.17Z"/><path class="cls-98" d="m151.16,97.25c-.24.22-.54.13-.81.11s-.33-.18-.1-.38c.15.62.64.09.91.27Z"/><path class="cls-89" d="m157.96,90.2h.26s.08-.02.11,0c.08.18.17.37.25.55l-.15.16c-.17-.24-.24-.53-.48-.71Z"/><path class="cls-137" d="m173.11,89.03h-.96s-.04-.08-.03-.12h1.19l-.2.12Z"/><path class="cls-21" d="m160.31,89.39v1.22c-.18-.39-.18-.83,0-1.22Z"/><path class="cls-56" d="m156.61,92.86c.25.39.08.83.11,1.25-.14-.4-.18-.83-.11-1.25Z"/><path class="cls-109" d="m158.85,87l-.27-.13c.21-.12.46-.16.7-.1l.12.12c-.16.16-.36.12-.55.11Z"/><path class="cls-89" d="m154.59,91.65c0,.14-.05.35-.16.3-.21-.1-.05-.34-.07-.52,0-.07.05-.07.1-.04l.13.26Z"/><path class="cls-27" d="m156.75,96.05c.33.6-.1.52-.45.51.2-.13.57-.11.45-.51Z"/><path class="cls-23" d="m156.22,93.95v-1.01c.13.33.13.69,0,1.01Z"/><path class="cls-96" d="m154.45,91.38s-.07.02-.1.04c-.04-.09-.08-.18-.13-.27.05-.11.1-.31.22-.22s0,.3,0,.46Z"/><path class="cls-128" d="m153.83,97.62c.17-.08.08-.26.14-.38.12.19.23.38,0,.56-.04.04-.13-.08-.14-.17Z"/><path class="cls-117" d="m155.54,90.5c-.15,0-.32,0-.42-.17l.11-.1.29-.07c.05.12.14.23.01.35Z"/><path class="cls-98" d="m148.77,96.05c.06-.1.16-.15.27-.15.26.08.38.2.09.42.09-.4-.19-.25-.36-.26Z"/><path class="cls-26" d="m159.52,92.46c-.23-.25-.1-.55-.11-.83.1.27.14.55.11.83Z"/><path class="cls-109" d="m151.84,88.75c.09.17.26.1.39.14-.18.12-.37.23-.57.03l.18-.17Z"/><path class="cls-5" d="m166.99,93.9c-.14.04-.32-.02-.42.14-.06-.05-.17-.1-.18-.15s.1-.12.17-.11c.14.03.28.08.42.12Z"/><path class="cls-4" d="m147.55,93.24c.1.17.28.12.42.16-.19.12-.38.21-.57,0,.01.02.11-.1.16-.16Z"/><path class="cls-26" d="m159.36,93c.14-.07.16-.2.18-.34.09.17.2.36.05.52-.07.07-.17-.1-.23-.18Z"/><path class="cls-5" d="m150.89,95.5c.06.12.18.13.29.15-.14.12-.32.2-.46.07-.07-.07.07-.17.17-.22Z"/><path class="cls-19" d="m155.54,97.89c-.12.22-.34.12-.52.15s-.16,0-.15-.12h0l.67-.02Z"/><path class="cls-107" d="m147.21,92.49c.1.14.25.08.38.12-.12.14-.32.16-.48.07-.07-.05,0-.15.1-.18Z"/><path class="cls-95" d="m151.16,99.62c-.02.22.09.48-.13.67,0-.23-.05-.47.13-.67Z"/><path class="cls-107" d="m169.64,88.45c-.13.06-.15.19-.17.31-.12-.13-.2-.3-.07-.44s.18.04.24.13Z"/><path class="cls-97" d="m151.95,87.82c.06.12.18.12.29.14-.15.11-.33.2-.47.06-.06-.07.1-.17.18-.2Z"/><path class="cls-125" d="m172.43,90.5c-.09.1-.22.18-.31.05s.04-.27.13-.37c.03.12.05.25.18.32Z"/><path class="cls-19" d="m155.57,97.22c-.11.06-.17.17-.17.29-.1-.1-.25-.21-.16-.35s.22-.02.33.05Z"/><path class="cls-70" d="m145.7,88.74v.13h-4.26c-.26-.04-.52.02-.74.15l-.13-.14c.18-.24.45-.14.67-.14,1.47-.02,2.97-.01,4.46-.01Z"/><path class="cls-29" d="m175.44,93.9c.04-.26.14-.51.3-.72.24.04.22.25.28.42.32.77.32.77,1.1.42l.42-.17c.1.36-.18.59-.22.87-.13.07-.2-.05-.3-.09-.64.25-1.03-.21-1.48-.52-.1-.05-.17-.07-.1-.2Z"/><path class="cls-65" d="m176.63,97.12c-.5-.06-.42.39-.57.64-.08.14-.1.37-.33.34s-.15-.24-.22-.36c-.13-.23-.08-.58-.45-.64-.14-.07-.19-.16-.1-.3.42-.39.58,0,.83.3.24-.42.52-.62.92-.25.05.04.09.1.11.16-.02.11-.05.19-.19.12Z"/><path class="cls-55" d="m176.63,97.12l.15-.13c.06-.13.06-.29,0-.42-.12-.19-.1-.43.06-.59.24-.15.5-.26.77-.32.09-.03.18-.05.27-.05.12.03.24.07.27.22-.07.05-.14.1-.22.13-.68.15-.86.48-.45,1.09.08.11.2.28.05.42s-.24-.02-.36-.07c-.2-.09-.37-.18-.55-.27Z"/><path class="cls-49" d="m174.92,96.86c.05.07.09.15.13.23l-.66.27c-.2-.05-.19-.25-.26-.39.62-.89-.3-.87-.69-1.17.03-.14.14-.19.26-.24.06-.01.12-.01.18,0,.22.09.44.18.67.26.22.07.34.3.27.52,0,.03-.02.05-.03.07,0,.13-.2.3.07.38l.06.07Z"/><path class="cls-48" d="m175.44,93.9l.12.15c.2.42-.03.58-.39.66-.21.05-.42-.05-.63,0-.09.04-.19.04-.28,0-.18-.24-.27-.53-.27-.83.28,0,.54.09.76.26.35.2.55.09.68-.24Z"/><path class="cls-94" d="m177.85,95.64l-.18.12c-.11-.09-.25-.07-.37-.11-.25-.09-.55-.18-.54-.49s.03-.62.42-.72l.14.27c-.3.72.48.51.68.79-.01.08-.09.1-.14.14Z"/><path class="cls-49" d="m174.26,94.71l.13-.13c.58.34.59.58.05,1.01-.18.07-.38.09-.58.06h-.16c-.05-.02-.09-.07-.11-.12.19-.31.99-.09.67-.81Z"/><path class="cls-29" d="m174.13,96.97l.26.39c-.11.04-.24.18-.34.07s.03-.31.08-.46Z"/><path class="cls-57" d="m173.59,95.51l.11.12-.26.17c-.07,0-.18-.04-.15-.13s.18-.14.3-.16Z"/><path class="cls-52" d="m177.85,95.64l.13-.14c.12.02.26.04.3.17s-.07.11-.15.14l-.28-.17Z"/><path class="cls-37" d="m169.49,102.13c-.17.15-.15.56-.55.42-.67-.36-.67-.36-.12-1.07.59-.16.7.17.67.65Z"/><path class="cls-136" d="m167.18,101.97c.12-.3.4-.34.63-.42.12-.07.27-.03.35.08.02.1.01.21-.03.3-.05.15-.16.17-.32.13s-.41-.07-.64-.1Z"/><path class="cls-147" d="m167.53,103.42c.23.05.22.26.26.42.07.32-.21.26-.38.29s-.31.07-.29-.13c.03-.25.19-.46.41-.57Z"/><path class="cls-132" d="m169.49,102.13c-.14-.3-.17-.71-.67-.65l.42-.27c.39.15.3.77.79.83l-.27.25-.27-.17Z"/><path class="cls-99" d="m171.6,103.87c.17.21.13.52-.08.69-.03.03-.07.05-.11.06-.1-.27-.12-.59-.37-.76.19-.41.37-.07.56,0Z"/><path class="cls-148" d="m166.82,102.95c.29-.3.64-.05.95-.11-.09.28-.35.36-.57.49-.23-.03-.26-.24-.39-.38Z"/><path class="cls-2" d="m166.82,102.95c.17.08.31.21.39.38l-.39.51c0-.3,0-.6,0-.89Z"/><path class="cls-33" d="m171.6,103.87c-.19,0-.37-.26-.56,0l-.1-.27c.28-.06.58-.01.83.12l-.17.15Z"/><path class="cls-86" d="m173.23,99.51c-.26.13-.55.17-.83.11.09-.2.28-.17.42-.24.1.15.27.1.42.13Z"/><path class="cls-19" d="m142.54,96.57c.15-.48-.29-.42-.51-.57-.16-.1-.45-.08-.46-.32s.29-.25.44-.29c.51-.15.69-.38.36-.87-.1-.19-.17-.4-.22-.6.18-.05.38,0,.52.12.59.37.9.18,1.06-.45.04-.17.15-.63.42-.09.09.19-.24.2-.16.39-.25.91-.26.92-.99.77-.12.17.06.32,0,.49-.14.42-.52.48-.87.55.31,0,.61.11.83.32.11.26.02.56-.21.71-.12.02-.17-.06-.21-.16Z"/><path class="cls-64" d="m145.47,96.68c.2.25.3.56.3.88-.66-.31-1.38-.78-1.62.37-.19,0-.35-.14-.35-.33,0,0,0-.02,0-.03,0-.06.03-.12.06-.17.23-.34.22-1,.94-.72.15.05.29.2.47.1.06-.05.13-.08.21-.1Z"/><path class="cls-41" d="m144.42,94.15c.23.25.42.02.65-.05s.42-.3.76-.24c-.11.4-.27.78-.49,1.13-.09-.01-.17-.07-.21-.15-.16-.52-.45,0-.66-.08-.19-.03-.31-.21-.28-.4,0,0,0,0,0-.01.03-.1.12-.18.22-.2Z"/><path class="cls-45" d="m142.54,96.57l.13.13c.33.24.73-.33,1.05.09.12.22.32.42.15.7v.03c-.05.04-.07.12-.15.13-.2-.62-.6-.57-1.06-.32-.07-.08-.32,0-.24-.24.1-.16-.05-.39.13-.53Z"/><path class="cls-64" d="m145.47,96.68l-.16.16c-.36-.04-.42-.32-.37-.57.08-.44.42-.57.83-.57.11.03.2.11.22.22-.22.21-.85.15-.52.75Z"/><path class="cls-46" d="m146.01,95.92l-.17-.15c-.08-.07-.18-.12-.15-.26s.21-.04.29-.12c.16.1.38.07.5.26-.09.21-.29.22-.47.27Z"/><path class="cls-42" d="m145.98,95.39l-.27.13c-.22.15-.42.03-.6-.06-.22-.24-.22-.44.08-.61l.15.15c.12.28.41.28.64.39Z"/><path class="cls-64" d="m144.42,94.15l-.15.16c-.27-.05-.27-.33-.39-.5-.1-.26.22-.19.27-.33.09.22.18.44.27.66Z"/><path class="cls-42" d="m143.7,97.66l.15-.13c0,.2.22.25.29.4-.03.12-.06.32-.19.27-.19-.08-.19-.34-.25-.53Z"/><path class="cls-57" d="m142.4,97.11l.24.24c-.16,0-.31.26-.45.04-.07-.1.07-.23.21-.28Z"/><path class="cls-21" d="m160.48,110.36c.08-.04.16-.08.24-.12.27-.12.6-.38.83-.17.17.15-.07.47-.18.7-.14.28-.1.44.22.54.2.07.4.15.6.25,0,.13-.08.21-.13.31-.11.08-.22.14-.35.19-.48.1-.47.34-.28.71.1.18.3.42.12.6s-.42,0-.6-.11c-.42-.24-.63-.12-.75.32-.03.25-.16.47-.37.61-.06-.07-.11-.14-.15-.22-.37-.83-.36-.83-1.2-.57-.12.04-.31.09-.36.04-.14-.14,0-.28.08-.42.16-.07.35-.04.5-.14.17-.12.38-.2.59-.24.19.01.35.14.42.32.05.07.06.21.13.21.19,0,.14-.24.24-.35.22-.32.51-.1.77-.09.13-.2-.1-.36-.07-.55.07-.27.35-.31.55-.48-.11-.19-.37-.2-.48-.39s.1-.42.05-.63c-.2-.11-.48.2-.65-.12.04-.14.04-.26.24-.21Z"/><path class="cls-16" d="m158.73,113.04c-.18.25-.35.07-.53,0,.64-1.05-.45-.95-.91-1.31.29-.47,1.67-.22.91-1.35.15-.47.36-.27.57-.05-.16.36.24.66.1,1.02-.13.16-.35.17-.55.34.31.19.76.28.57.79-.09.17-.14.36-.16.55Z"/><path class="cls-28" d="m158.73,110.37c-.18-.23-.36-.2-.53,0-.05-.14-.21-.29-.1-.42s.27,0,.42.05c.11.03.21.08.3.14.35.23.57.2.7-.25.04-.3.18-.57.39-.79l.58,1.25c-.1.05-.16.15-.16.26-.03.05-.1.07-.15.04-.12-.1-.13-.27-.28-.42-.24.12-.27.56-.65.49-.21-.03-.45-.1-.51-.36Z"/><path class="cls-130" d="m156.49,103.61h-.28c0-.27.15-.53.38-.67l.17.16c.02.05.02.11,0,.17-.08.12-.23.19-.27.35Z"/><path class="cls-44" d="m162.06,111.87c-.03-.12.03-.25.13-.31.1.03.24.03.18.17s-.2.1-.32.13Z"/><path class="cls-28" d="m162.27,101.47c.32-.13.66-.24.97-.42.39-.19.61-.61.55-1.04.2.21.19.19.42-.02.15-.14.21-.42.49-.38-.02.29.08.57.27.79.05.15,0,.32-.13.42-1.13,1.09-2.6,1.75-4.17,1.87-.51-.25-1.11-.21-1.58.11-.48.42-.96.3-1.45,0-.05-.26.12-.28.31-.27.52.04.56-.25.45-.65,1.07.29,2.21.25,3.26-.13.21-.09.43-.16.66-.2,0,0,0-.04-.02-.06,0-.01-.02-.02-.02-.03Z"/><path class="cls-42" d="m160.7,102.69c.83-.37,1.76-.42,2.53-.92.62-.42,1.32-.7,1.75-1.36.25.08.47.23.65.42-.03.46-.39.68-.68.96-.07.05-.15.09-.24.1-.15.08-.24.23-.26.39-.14.07-.24-.09-.37-.05-.09.04-.19.06-.3.06-.3.27-.49.64-.54,1.05-.42-.17-.06-.56-.23-.8-.42-.07-.42.29-.58.49s-.1.47-.37.56c-.15-.14,0-.42-.28-.49-.06.1-.16.16-.23.25v.26c-.35.06-.1-.35-.31-.39l-.54-.52Z"/><path class="cls-68" d="m161.21,98.55c.21-.19.41-.39.59-.6.42-.57.88-.77,1.44-.17.33.22.14.47,0,.66-.29.41-.71.71-1.2.86-.4.02-.8,0-1.2-.06-.2,0-.4-.11-.52-.27.18-.35.62-.22.89-.42Z"/><path class="cls-21" d="m162.27,101.47l.31.04c-.55.3-1.13.52-1.73.67-.71.26-1.37-.02-2.05,0-.25,0-.17-.3-.37-.3l-.24-.13c.12-.22.38-.33.63-.26.64.07,1.28.05,1.91-.04l1.55.02Z"/><path class="cls-31" d="m158.57,100.56c-.23-.09-.55.11-.71-.2-.09-.19,0-.34.14-.47.21-.21.46-.32.65,0,.16.27.43.45.73.49.32.06.58.3.67.62.12.35-.16.34-.36.36-.6.07-.95-.17-1.13-.8Z"/><path class="cls-23" d="m158.57,100.56c.36.63,1.01.83,1.49.42l.67.47c-.53.42-1.15.32-1.73.23-.27-.03-.55-.01-.81.06h0c-.19-.2-.65-.19-.52-.65.06-.02.13-.03.19-.03.2.04.3.39.56.2s.2-.44.15-.71Z"/><path class="cls-27" d="m162.18,99.22c.16-.35.57-.42.8-.73.17-.22.42-.39.26-.72.22-.02.43-.12.58-.28.13-.17.25-.15.34.03s.24.25.16.42c-.32.57-.63,1.15-1.25,1.46h-.05l-.04-.03c-.25-.19-.57.02-.81-.15Z"/><path class="cls-53" d="m163.06,99.39c.31-.38.64-.76.94-1.16.15-.2.33-.42.16-.7.36.14.38.57.67.78-.31.57-.54,1.2-1.21,1.46l-.56-.38Z"/><path class="cls-57" d="m161.21,98.55c-.2.35-.6.3-.9.42-.37-.67-.27-1.06.39-1.35.25-.11.45-.35.83-.35-.11.36-.26.71-.45,1.03-.16.2.03.2.13.25Z"/><path class="cls-45" d="m164.83,101.72l.79-.87c.51.27.53.57.07.92-.44.28-.63.82-.46,1.32.08.15.11.28-.13.27-.5-.3-.32-.75-.25-1.17.01-.15.21-.32-.02-.46Z"/><path class="cls-31" d="m163.61,99.77c.48-.42.68-1.07,1.21-1.46.31.47-.09.88-.13,1.32-.15.17-.27.36-.42.53-.32.33-.35,0-.48-.13l-.18-.26Z"/><path class="cls-43" d="m157.67,102.81c.48-.06.96.27,1.45,0-.08.1-.17.2-.25.29-.55.6-.94.51-1.2-.29Z"/><path class="cls-45" d="m164.03,102.14q.14-.24.42.14c-.04.43-.14.85-.3,1.25-.3-.25-.2-.56-.22-.83.11-.17-.07-.4.11-.56Z"/><path class="cls-2" d="m145.83,104.4c.2.04.32-.08.45-.2s.28-.08.37.08.08.36-.14.42c-.28.07-.69.34-.68-.29h-.01Z"/><path class="cls-21" d="m157.67,101.11c0,.35.56.26.52.65-.24-.03-.45.42-.67.09-.16-.24-.09-.57.14-.74Z"/><path class="cls-147" d="m159.91,103.78c.05-.12.11-.23.18-.34.13-.15.1-.46.39-.45.1.03.18.1.22.2.04.3-.23.38-.42.5-.12.04-.24.07-.37.08Z"/><path class="cls-137" d="m157.3,99.72c.17,0,.37,0,.32.25-.03.15-.1.33-.3.26s-.42-.02-.42-.25.25-.21.4-.26Z"/><path class="cls-99" d="m156.3,101.68c.08-.27.37-.43.64-.34.02,0,.03.01.05.02.1.04.14.15.1.25,0,0,0,.02-.01.03-.23.31-.52-.07-.78.05Z"/><path class="cls-53" d="m162.18,99.22c.27.05.57-.11.8.14-.72-.08-1.45.17-2.15-.13h1.35Z"/><path class="cls-94" d="m161.21,103.22c.21.05.13.32.31.39,0,.26-.15.38-.45.39-.03-.28.26-.5.15-.78Z"/><path class="cls-137" d="m156.73,103.19s.03-.07.04-.1c.17,0,.33-.25.5,0,.06.09.14.23-.07.28s-.42.19-.46-.17Z"/><path class="cls-51" d="m161.66,102.97c0-.11,0-.22.15-.25.09-.03.19.02.21.11,0,.02,0,.04,0,.06,0,.24,0,.47.02.71-.14-.02-.12-.15-.16-.24-.11-.11-.08-.3-.23-.39Z"/><path class="cls-18" d="m163,102.54c.25.21-.03.58.23.8-.05.26-.17.25-.22.02-.03-.27-.04-.55-.02-.82Z"/><path class="cls-129" d="m151.95,101.17l.55.3c-.11,0-.23.03-.29.15-.13-.1-.42-.16-.25-.45Z"/><path class="cls-142" d="m161.66,102.97c.54-.15.13.27.23.39h-.36c.05-.13.09-.26.13-.39Z"/><path class="cls-144" d="m156.73,103.19c.11.18.3.14.46.16l-.7.23c-.05-.2.07-.31.23-.4Z"/><path class="cls-34" d="m164.03,102.14c.04.19,0,.4-.12.56l-.15-.42c.04-.15.16-.13.27-.14Z"/><path class="cls-120" d="m164.83,101.72c.35.13.12.3.02.46l-.15-.28.13-.18Z"/><path class="cls-140" d="m165.1,103.34c.12-.05.12-.16.13-.27.1.1.27.21.13.36-.08.09-.2,0-.26-.1Z"/><path class="cls-19" d="m155.01,98.17l.69.03c-.2.14-.46.18-.69.11v-.14Z"/><path class="cls-79" d="m172.66,124.19c.12.26.24.52.35.79.06.16.17.34-.02.48s-.34.03-.48-.08l-1.73-1.33c-.09-.07-.18-.12-.33-.21.04.61.26,1.18.63,1.67.38.42.29.6-.22.69-.08.02-.16.06-.24.1-.26-.08-.22-.31-.22-.5-.01-.4-.09-.79-.25-1.16-.14-.35-.12-1-.79-.42-.18.16-.42-.05-.63-.07-.2-.06-.41,0-.53.17-.07.12-.06.27.03.37.15.19.32.08.48,0,.26-.1.49-.08.59.22.08.23-.04.37-.26.45s-.47.06-.45.37c-.01.3.18.58.47.67.06.02.12.04.18.07.09.05.16.12.13.23-.39.15-.8.46-1.15.42-.5-.08-.07-.62-.22-.96-.2-.62-.45-1.23-.75-1.81-.09-.15.07-.2.13-.29.61-.17,1.14-.79,1.87-.36.08.05.11-.1.15-.17.34-.57.83-.52,1.31-.24.56.35,1.09.75,1.57,1.2.3.12.1-.41.39-.29Z"/><path class="cls-73" d="m149.61,126.44l-.88-.34c.71-.66.8-1.6,1.22-2.36-.22-.26-.42.08-.62-.02.59-.69,1.22-.6,1.51.23.1.32.18.64.23.96.06.32.1.63.16,1,.42-.58.61-1.29.52-2,.35.02.69.13.98.32-.7.65-.92,1.52-1.25,2.34-.08.2-.11.47-.42.42s-.28-.31-.32-.52c-.11-.85-.29-1.68-.54-2.5-.4.89-.76,1.57-.6,2.47Z"/><path class="cls-72" d="m178.42,122.4c.3.98.21,1.17-.52,1.42-.42.15-.91.51-1.29.42s-.02-.74-.28-1.1c-.18-.3-.31-.64-.37-.99-.1-.37-.42-.55-.64-.83.65-.24,1.28-.49,1.92-.7.52-.17.53.3.73.62-.42.05-.78-.32-1.17-.1-.16.1-.46.07-.47.29-.03.27.08.53.28.71.17.1.42-.07.59-.2.1-.07.13-.24.31-.25.2.2.3.47.28.75-.38-.12-.86-.27-.99.2-.11.38.06.78.42.95.76.17,1.03-.38,1.21-1.17Z"/><path class="cls-73" d="m147.37,122.78l-.67-.03v-.11c.99-.56,1.5-.27,1.53.87-.04.82,0,1.63.09,2.45-.37-.05-.74-.16-1.08-.32.61-.63.55-.97-.16-1.25-.42-.17-.63,0-.65.35-.05.83-.44.6-.88.34-.06-.03-.11-.06-.17-.08.83-.57,1.32-1.4,2-2.2Z"/><path class="cls-72" d="m144,123.14c-.25.3-.56.83-.83.73-.39-.12-.16-.69-.2-1.06-.02-.39-.09-.78-.22-1.15-.29.75-.66,1.37-.58,2.15-.35-.07-.69-.17-1.01-.32.53-.46.94-1.04,1.18-1.69.1-.24.35-.47.19-.73s-.47-.03-.75-.03c.15-.37.56-.55.93-.42.39.06.69.38.71.77.03.44.05.88.09,1.32,0,.2,0,.42.32.25.14-.04.2.03.17.17Z"/><path class="cls-72" d="m163.22,125.49c.56-.47.83-.46,1.32.04.31.33.62.67.93,1.01.02.03.07.03.12.05.19-.2.06-.47.17-.68.35.06.15.3.14.47v1.28l-1.77-1.76c.14.83.24,1.62.83,2.22-.13.2-.35.21-.53.26s-.42.2-.34-.3c.05-.83-.21-1.65-.72-2.3-.25.01-.2-.14-.15-.3Z"/><path class="cls-122" d="m172.83,123.16c-.44-.62-.3-.95.32-1.13.51-.14,1.01-.32,1.5-.54.49-.23.62.05.75.42.03.08.03.16,0,.24-.09.11-.2.05-.28-.03-.17-.22-.49-.28-.72-.13-.31.21-.03.5.04.71.23.67.37,1.4,1.1,1.94l-1.17.39c.13-.98-.38-1.73-.67-2.54-.11-.3-.28-.17-.46-.05s-.21.46-.4.73Z"/><path class="cls-126" d="m144,123.14l-.18-.17c.35-.42.76-.79,1.22-1.09.44-.3.83-.27,1.1.09-1.04.73-.99,1.86-1.33,2.87l-.94-.42c.7-.49.83-1.22,1.15-1.97-.47.16-.69.51-1.02.68Z"/><path class="cls-145" d="m165.91,126.38c-.02-.16.02-.35-.14-.47q0-1.38,1.58-1.88l-.13.29c-.66.21-.69.65-.42,1.19s.35,1.1.74,1.54c.19.21.09.3-.13.35l-.7.17c.12-.83-.25-1.49-.48-2.25-.31.37-.12.76-.32,1.06Z"/><path class="cls-122" d="m153.27,127.78c-.79-.38-.89-.66-.6-1.45.22-.62.76-1.16.42-2.02.42.12.82.3,1.19.53-.75.47-.86,1.25-1.1,1.97-.13.39.11.62.38.83,0,.25-.14.2-.27.13Z"/><path class="cls-132" d="m153.27,127.78l.28-.13c.83.14,1.03.03,1.33-.78.2-.53.45-1.05.27-1.71l.92.24c-.41.47-.71,1.03-.88,1.63-.44,1.07-.86,1.25-1.92.75Z"/><path class="cls-33" d="m158.62,127.63c.15,0,.3.02.45.05s.08.14.07.22,0,.14-.11.1c-.29-.12-.53-.12-.54.29,0,.2,0,.42.22.5.26.09.55-.02.69-.26.03-.04.09-.06.21-.13-.03.42-.14.69-.57.67-.22,0-.45-.04-.66-.02-.36.02-.42-.04-.32-.42.06-.48.06-.97,0-1.45.07-.4.34-.2.54-.17.1.2-.2.42.03.64Z"/><path class="cls-146" d="m161.62,126.98c.1.15.1.35,0,.5-.25-.02-.3-.46-.57-.32s-.15.42-.16.66c-.03.31,0,.62.08.92.04.11.19.26,0,.32-.17.03-.35.02-.52-.03-.15-.04-.07-.15-.04-.26.11-.54.12-1.1.04-1.64.35-.4.77-.17,1.17-.14Z"/><path class="cls-123" d="m172.66,124.19c-.2,0,0,.54-.39.27.22-.51-.15-.87-.35-1.25-.14-.2-.29-.39-.47-.56l1-.37c-.28.74.14,1.3.21,1.91Z"/><path class="cls-130" d="m169.18,126.56c.47-.23.77-.7.77-1.22.39.28.3.68.44.97-.32.2-.68.33-1.05.4l-.17-.14Z"/><path class="cls-120" d="m161.62,126.98c-.39.06-.81-.14-1.17.14-.27-.05-.42.17-.63.38-.13-.45-.05-.68.38-.64s.96-.11,1.42.12Z"/><path class="cls-86" d="m158.62,127.09c-.11-.14-.32-.17-.46-.06-.04.03-.07.06-.09.11-.11-.09-.2-.26,0-.27.46,0,.93-.14,1.37.1-.14.18-.37.11-.55.18-.13.02-.22.04-.27-.06Z"/><path class="cls-148" d="m163.22,125.49c.02.12.03.24.16.3l-.22.59c-.18-.28-.15-.63.06-.88Z"/><path class="cls-146" d="m158.86,127.09c.15-.17.36-.1.54-.12.08.12.25.26.1.42s-.24-.13-.38-.13c-.07-.11-.22-.05-.27-.17Z"/><path class="cls-144" d="m166.82,78.51v-.25h.12v7.4c0,.23.1.49-.13.67,0-2.61,0-5.22,0-7.82Z"/><path class="cls-24" d="m167.49,87.01c-.62.2-1.15.63-1.81.69-.42-.16-.79-.37-.88-.87.07-.2.24-.21.42-.22.16.1.44-.3.53.12-.22.22-.34.42.13.42.35-.03.69-.09,1.03-.17.21-.06.4-.18.59.04Z"/><path class="cls-104" d="m165.73,86.73c-.17-.19-.34.09-.51,0-.17-.19-.53.17-.65-.22.36,0,.72-.04,1.07-.14.01.12.4.15.09.36Z"/><path class="cls-10" d="m166.7,87.82c.27.05.33.18.13.38s-.19.27,0,.42c.37.22.05.52.09.77-.11.33-.44.29-.67.4-.35-.06-.64-.17-.49-.62.33-.03.6-.05.42-.55-.13-.4.16-.67.52-.8Z"/><path class="cls-87" d="m166.29,89.67l.64-.29.12.14c-.12.29-.5.16-.64.42-.21-.01-.22-.12-.12-.27Z"/><path class="cls-76" d="m166.29,89.67c0,.11,0,.21.12.27.04,0,.08,0,.11,0,.24.28,0,.35-.2.37-.32.04-.65.02-.97.03-.25,0-.48.09-.67.25l-1.35.52h-.05l-.05.03c-.48.1-.98.1-1.46,0-.48-.23-.83-.67-.93-1.19.05-.58.34-1.11.8-1.46.26,0,.44-.19.66-.28.72-.09,1.42.23,1.82.83.3.47.78.8,1.33.92.13.03.27.06.16-.16-.46-.37-.88-.78-.8-1.46.38-.18.47-.09.54.51l.42.3c-.05.39.24.44.5.52Z"/><path class="cls-101" d="m165.37,88.85c-.09-.17-.18-.32-.26-.5s-.19-.05-.28,0c-.09-.53-.59-.66-.95-.93.09-.57.49-.59.93-.53l.85.83h0c-.14.24-.15.53-.03.79.06.11.19.26.16.33-.1.14-.28,0-.42,0Z"/><path class="cls-24" d="m165.62,88.47c-.21-.22-.2-.57.03-.78,0,0,0,0,0,0-.01.26-.02.51-.03.79Z"/><path class="cls-107" d="m146.59,89.22c-.03.12-.06.27-.17.25-.21-.06-.37-.23-.42-.45-.03-.1.1-.17.16-.13.17.08.37.1.43.33Z"/><path class="cls-143" d="m147.06,87.54c.27.05.15.24.07.31-.2.19-.27-.04-.37-.15,0-.24.12-.24.3-.16Z"/><path class="cls-99" d="m147.06,87.54c-.12,0-.24.03-.3.16-.11-.06-.32-.15-.26-.22.17-.17.38-.09.55.06Z"/><path class="cls-110" d="m164.82,86.88c-.3.18-.77.08-.93.53-.12.09-.25.19-.42.09,0,0,.03-.11.05-.17.38-.63.09-1.15-.29-1.64l.15-.14c.44.27.7.75,1.18.97.17.21.48,0,.65.22l-.39.15Z"/><path class="cls-21" d="m161.26,82.78c.06.42.42.77.42,1.22-.5.19-1.19-1.05-1.52.22-.19,0-.21-.12-.24-.25,0-.1,0-.19.03-.29.12-.51.46-.57.9-.42.11-.25-.27-.51.06-.72.19,0,.37-.05.36.23Z"/><path class="cls-21" d="m159.54,84.09c-.09-.45-.3-.57-.72-.32-.24.12-.49.21-.74.28,0-.51.42-.83.37-1.27-.03-.2.1-.2.24-.19s.15.13.12.21c-.17.53.18.42.46.37.2.03.38.16.45.35.04.09.06.2.05.3-.03.13-.05.28-.24.26Z"/><path class="cls-40" d="m158.73,82.64c-.11-.01-.22.04-.27.13l-1.15-.52c.31-.47,1.15-.2,1.15-.95.06-.02.12-.02.18,0,.22.14.45.42.2.56-.41.25-.22.5-.11.77Z"/><path class="cls-19" d="m160.28,80.52c.1.36.33.26.57.17s.47-.31.83-.28c-.04.28-.16.54-.34.76-.15.07-.27-.08-.42-.04-.38.1-.83.42-.91-.35.06-.13.08-.27.25-.26Z"/><path class="cls-49" d="m161.26,82.78c-.08-.16-.22-.14-.36-.14-.13-.3.17-.24.28-.35s.2,0,.17-.15c-.11-.07-.26-.11-.26-.27s.2-.09.29-.14l1.09.45c-.37.36-.85.39-1.21.61Z"/><path class="cls-65" d="m160.28,80.52l-.13.29c-.2-.03-.36-.04-.48.19-.16.32-.42.33-.67.1-.1-.14-.03-.23.1-.3.5-.13.39-.68.65-.97.15.04.2.2.31.28l.22.41Z"/><path class="cls-49" d="m161.38,81.72l-.27.12c-.06.04-.13.05-.2.03-.28-.42-.07-.72.27-.97l.2.26c.06.18-.22.36,0,.55Z"/><path class="cls-42" d="m159.54,84.09l.12-.27c.15,0,.22.19.37.12l.13.28-.26.53c-.18-.18-.31-.41-.37-.66Z"/><path class="cls-50" d="m159.12,80.79l-.13.22-.07.05c-.09,0-.17-.03-.25-.07-.14-.11-.31-.04-.46-.09-.03-.15-.15-.36-.09-.42.15-.17.31.03.46.09s.36.14.54.21Z"/><path class="cls-35" d="m158.2,80.9c.17-.18.35-.26.54,0,0,.13-.03.26-.1.37l-.07.04h-.12l-.25-.41Z"/><path class="cls-54" d="m160.08,80.11c-.15-.03-.27-.14-.31-.28.37-.2.2.19.31.28Z"/><path class="cls-145" d="m164.95,70.43h-.42c.5-.42.83-.35,1.1.11s.35.99.69,1.43c-.31-.03-.69.24-.73-.42-.03-.49-.45-.33-.75-.17-.05-.04-.06-.12-.02-.17,0,0,.01-.01.02-.02-.01-.04,0-.08.02-.1.05-.06.11-.11.18-.14.09-.04.15-.1.12-.21-.05-.12-.13-.22-.22-.31Z"/><path class="cls-112" d="m163.1,70.31c-.21-.04-.26.07-.26.26v.92c.05.56.06.56-.62.47.17-.38.25-.79.23-1.21,0-.28-.07-.45-.38-.27-.12.07-.24.17-.3-.03-.04-.13.04-.27.17-.3.03,0,.06-.01.09,0h1.05s.06.09.03.13c0,.01-.02.02-.03.03Z"/><path class="cls-132" d="m158.17,70.43c-.21-.21-.11-.28.13-.29.5-.03,1,.02,1.49.16.07.05.08.11,0,.17-.2.35-.38.26-.56-.02-.19-.16-.46-.16-.64,0,.06.15-.14.5.3.35.14-.05.26,0,.23.2,0,.08,0,.22-.12.2-.75-.16-.32.31-.31.56-.19.25-.37.24-.52-.02h0c.13-.42.13-.88,0-1.3Z"/><path class="cls-123" d="m157.06,70.18c.45-.08.79-.16.6.48-.05.33-.05.66,0,.99,0,.11.17.25-.04.32-.13.04-.26.04-.39,0-.18-.07-.06-.21-.04-.33.06-.47.18-.96-.13-1.45Z"/><path class="cls-113" d="m164.3,72.01c-.39.04-.83.17-.55-.53.05-.33.05-.66,0-.98,0-.11-.17-.26.04-.33.13-.04.26-.04.39,0,.21.08,0,.21,0,.32,0,.47-.18.95.11,1.4.05.03.06.05.05.08s-.02.04-.03.04Z"/><path class="cls-79" d="m159.81,70.47v-.17c.3-.27.57-.14.78.12s.36.53.55.8c.36.15.52.34.15.66-.37-.36-.69-.75-.97-1.17-.06-.1-.2-.06-.25-.16l-.25-.06Z"/><path class="cls-78" d="m154.45,71.72c.08-.3-.11-.42-.32-.57-.32-.22-.51-.49-.21-.87.12-.05.19,0,.26.09.15.22.33.41.54.57.27.17.36.52.2.8,0,.01-.02.03-.03.04-.2.14-.38.35-.67.25-.07-.26.25-.16.25-.31Z"/><path class="cls-34" d="m155.64,71.9c-.24.04-.35-.16-.5-.28-.21-.39-.48-.76-.38-1.25.03-.06.08-.1.13-.14.1.11.07.48.37.18.27,0,.22.15.17.32,0,.61.08,1.15.91,1.01.02,0,.06.05.09.07l-.07.08c-.23.08-.48.08-.72,0Z"/><path class="cls-129" d="m161.26,71.87c.28-.3,0-.46-.15-.66.25-.18.05-.45.14-.66.05-.07.14-.08.21-.03.01,0,.02.02.03.03v1.15c0,.15,0,.33-.23.17Z"/><path class="cls-96" d="m158.2,71.74c.17.22.34.2.52.02l.65-.05c.11,0,.2.07.25.16-.42.3-.92.1-1.39.11-.16,0-.12-.15-.05-.25Z"/><path class="cls-120" d="m156.34,70.17c.63-.09.47.28.39.7l-.53-.59c.02-.07.1-.07.15-.11Z"/><path class="cls-110" d="m164.3,72.01v-.12c.28-.15.34-.47.52-.69v.19l.09.66-.61-.03Z"/><path class="cls-120" d="m153.94,71.91c-.2-.11-.35.11-.61.09l.2-.69.42.44s.04.12,0,.16c0,0,0,0,0,0Z"/><path class="cls-104" d="m160.06,70.55c.11,0,.21.03.25.16-.21.35.07.69,0,1.04-.23.05-.14-.19-.24-.26v-.94Z"/><path class="cls-82" d="m154.89,70.38c-.25.15-.56-.34-.79.07l-.17-.18s0-.08.03-.11c.21-.1.45-.11.66-.02.09.04.22-.03.27.1v.15Z"/><path class="cls-145" d="m163.1,70.31v-.15c.2-.06.35-.04.35.22,0,.07-.03.21-.06.21-.19.01-.19-.18-.29-.28Z"/><path class="cls-93" d="m158.17,70.43c.24.4.25.91.03,1.32.07-.44.06-.89-.03-1.32Z"/><path class="cls-80" d="m165.14,71.06l-.29.02c0-.23.21-.42.1-.66.16.06.33.11.39.3-.06.12-.13.23-.2.34Z"/><path class="cls-90" d="m160.07,71.49l.24.26c.11.14.11.24-.1.23-.12,0-.3.03-.25-.19.03-.11.07-.21.12-.31Z"/><path class="cls-85" d="m161.49,70.55h-.24c-.05-.14-.27-.19-.2-.36,0-.04.2-.05.3-.04.29.04.18.24.15.4Z"/><path class="cls-106" d="m156.34,70.17l-.15.12-.53.11c-.09-.05-.21,0-.27-.12.28-.18.63-.22.95-.11Z"/><path class="cls-127" d="m159.62,71.88c-.11,0-.21-.06-.25-.16.07-.11.08-.36.24-.29s.07.29.02.45Z"/><path class="cls-139" d="m153.94,71.91v-.16l.51-.03-.25.29c-.1.04-.21,0-.27-.1Z"/><path class="cls-93" d="m158.62,70.46c.21-.27.42-.25.64,0-.21-.07-.43-.07-.64,0Z"/><path class="cls-146" d="m155.39,70.28c.1,0,.21,0,.27.12l-.24.33c0-.13-.06-.25-.17-.32l.14-.13Z"/><path class="cls-133" d="m155.64,71.9h.72c-.22.15-.5.15-.72,0Z"/><path class="cls-36" d="m165.63,89.8l.42.2c-.18.11-.41.09-.57-.04l.15-.16Z"/><path class="cls-22" d="m161.78,91.11h1.46c-.46.22-1,.22-1.46,0Z"/><path class="cls-81" d="m155.54,90.12c-.21-.24-.31-.57-.26-.88.1-.12.16.03.24.03-.04.28.17.56.02.85Z"/><path class="cls-19" d="m154.87,97.91l.15.12v.13c-.12,0-.27.04-.32-.1s.09-.14.18-.16Z"/><path class="cls-115" d="m174.38,95.47c.53-.29.22-.6,0-.9.1-.23.24-.15.42-.07.44.19.71.05.75-.45.05-.12.16-.42.25-.12.26.73.7.66,1.25.42,0,0,.06.05.1.08-.68.76.06.99.5,1.32l-.76.26c-.08-.01-.15-.07-.17-.15,0-.13-.09-.25-.2-.3-.53-.72-.91-.74-1.53-.07-.12.16-.33.24-.53.2-.07-.04-.14-.1-.07-.22Z"/><path class="cls-120" d="m176.74,95.88l.17.14c-.19.19-.03.37,0,.55-.04.16-.13.29-.27.37-.28-.21-.53-.32-.64.16-.03.12-.07.26-.24.26s-.21-.15-.24-.27c-.1-.42-.33-.38-.62-.23v-.05c-.13-.05-.22-.12-.15-.28.04-.05.09-.09.14-.12.19-.11.42-.12.62-.04.49.2.79,0,.94-.47.08-.08.2-.09.29-.02Z"/><path class="cls-72" d="m176.66,96.95c0-.17.11-.32.27-.37.15.21.24.42-.15.42l-.12-.04Z"/><path class="cls-120" d="m174.95,96.56h-.16c-.06-.02-.1-.07-.12-.13.06-.2.08-.39-.16-.49-.05-.05-.05-.14,0-.2.7.07.77.2.44.82Z"/><path class="cls-121" d="m174.54,95.74l-.03.21c-.24-.02-.47-.13-.65-.3l.52-.17.17.18v.09Z"/><path class="cls-86" d="m174.67,96.44l.12.13.14.24c-.15.05-.33.26-.46.1s.16-.3.2-.47Z"/><path class="cls-129" d="m143.87,93.82c.3.03.22.36.39.5,0,.15.07.3.21.37.07-.04.16-.02.2.05,0,.01.01.03.02.04-.01.17-.16.29-.32.28-.05,0-.09-.02-.13-.04-.26-.12-.47,0-.7.05-.13,0-.32-.19-.38.1-.08.04-.17.01-.22-.05-.17-.22-.26-.5-.24-.79.66.41,1.09.29,1.18-.5Z"/><path class="cls-93" d="m143.62,96.84c-.22-.23-.39.02-.57.08s-.38.11-.36-.21c.14-.18.23-.4.24-.63-.05-.12,0-.17.1-.21.38,0,.26.65.72.57.06.07.09.17.07.27-.05.1-.1.17-.21.15Z"/><path class="cls-117" d="m143.09,95.9l-.17.17-.83-.32c.2-.37.74-.22.86-.63h.24c.08.12.09.28.03.42-.08.11-.12.24-.12.37Z"/><path class="cls-81" d="m145.18,95.4l.52.12.14.25q-.93.32-.53,1.07c-.17.42-.35.03-.52,0-.07-.09.1-.25-.08-.31-.11-.17-.15-.38-.1-.58.1-.17.3-.24.38-.42.05-.07.12-.11.2-.13Z"/><path class="cls-125" d="m144.74,96.55c.18.07.08.19.05.29-.32-.18-.53-.09-.63.25-.05.18,0,.42-.29.42l-.25-.67.15-.17c.17-.04.25-.17.37-.28.08-.04.16-.06.25-.06.15.02.28.1.36.22Z"/><path class="cls-93" d="m145.18,95.4l-.17.13c-.63.03-.33-.42-.35-.7l-.18-.15c.11-.07.22-.13.34-.18.15-.05.31-.25.45-.08.06.07-.05.27-.07.42-.12.18-.27.37,0,.55Z"/><path class="cls-92" d="m160.2,110.62s.08.02.12,0c.31.05.53-.3.93-.18-.42.63-.37,1.1.68,1.18l-1.06.57c.04.07.02.16-.05.2-.01,0-.03.01-.04.02-.1,0-.19-.05-.24-.13-.03-.05-.05-.11-.05-.17,0-.06.03-.12.05-.17.11-.12.22-.25.03-.4-.04-.04-.06-.1-.07-.15,0-.18.04-.39-.25-.39-.06-.02-.1-.07-.13-.12-.03-.09,0-.19.07-.25Z"/><path class="cls-92" d="m160.73,112.36c.05-.06.1-.12.15-.18.16.23.27.49.33.77-.36.23-.66-.42-1.02-.05-.04.04-.11.04-.15,0-.04-.05-.06-.1-.08-.16-.02-.16.04-.32.16-.42l.07-.04c.05-.01.11-.01.16,0,.12.06.24.09.37.09Z"/><path class="cls-130" d="m158.73,113.04c-.3-.18-.04-.35,0-.52.1-.04.22-.04.32,0,.08.02.16.06.22.11.03.05.02.11-.03.15l-.51.27Z"/><path class="cls-82" d="m160.05,112.9h.13c-.02.24-.13.46-.3.63-.22-.1-.22-.3-.26-.48l.06-.05c.13.02.24-.06.36-.1Z"/><path class="cls-82" d="m159.25,112.78v-.2c.21-.25.35-.08.48.09.06.13.03.28-.07.38l-.03.02c-.11-.15-.17-.33-.39-.3Z"/><path class="cls-134" d="m159.03,112.61l-.29-.1c.25-.75-.53-.47-.77-.81.22-.25.57-.27.87-.42.09.01.17.08.19.17-.06.28.2.47.2.74-.01.16-.08.31-.2.42Z"/><path class="cls-86" d="m159.03,111.47l-.18-.16c-.1-.26-.2-.52-.3-.77-.07-.18.1-.13.18-.16l.52.28c.06.08,0,.15,0,.22-.07.18.03.38-.08.55-.04.04-.1.06-.15.04Z"/><path class="cls-129" d="m159.11,110.79l.15-.15c.48-.04.29-.6.62-.77.2.19.32.46.32.74v.26s-.08.07-.13.06c-.11-.07-.26-.06-.36.02-.05.03-.11.05-.16.06-.2,0-.41.05-.44-.23Z"/><path class="cls-99" d="m162.6,90.75c-.52,0-1-.12-1.17-.67s.16-.92.58-1.22c.39-.34.98-.3,1.32.09.37.35.73.71,1.1,1.05.2.2.12.29-.1.36-.55.22-1.14.36-1.73.4Z"/><path class="cls-84" d="m161.28,82.39l-.39.25c-.06.33.35.5.3.86-.35.15-.91-.62-1.13.21-.11-.06-.18-.17-.2-.29,0-.16.03-.31.1-.45.06-.1.18-.17.3-.17.33-.09.28-.6.67-.62.06-.01.12-.01.18,0,.09.03.15.11.17.2Z"/><path class="cls-124" d="m159.91,83.42c.12.06.14.17.16.29s0,.15,0,.22c-.22.24-.27-.02-.38-.12,0-.07,0-.15-.03-.23s-.07-.23.07-.32c.09,0,.14.06.18.15Z"/><path class="cls-124" d="m161.17,80.9c-.04.32-.36.58-.2.95.02.19-.11.19-.24.2-.3-.09-.22-.64-.67-.55q-.19-.29-.39,0c-.25.05-.5.09-.47.45-.03.08-.08.14-.15.19-.13.07-.07.12.03.15.04.03.08.07.11.12.07.2.03.42-.1.59-.02.03-.09.06-.08.08s.05,0,.07,0c.11,0,.19.05.16.19-.22.06-.42.23-.71.11-.03-.27.3-.47.19-.75s-.49-.17-.63-.4c.04-.38,1.17-.19.48-.94h.06c.07-.13.21-.22.35-.24v-.05c.72.42.57-.42.86-.6.22.05.19.29.32.42.04.3.15.45.46.25.15-.13.34-.19.54-.17Z"/><path class="cls-148" d="m159.25,83.28c0-.17-.32,0-.25-.25.12-.11.26-.19.42-.22.1-.01.19,0,.27.05.11.13.2.26.1.42-.05.1-.09.19-.14.28-.12-.1-.17-.31-.4-.29Z"/><path class="cls-113" d="m161.28,82.39l-.16-.15c.03-.14.17-.23.31-.2.04,0,.07.02.11.05.08,0,.19.04.15.14s-.26.13-.4.16Z"/><path class="cls-116" d="m161.53,82.09l-.42.15-.06-.04c-.15-.03-.37.05-.35-.23l.26-.12h.13l.44.24Z"/><path class="cls-73" d="m158.99,81.07c-.06.14-.2.23-.35.24,0-.15-.09-.31.1-.42l.25.17Z"/><path class="cls-29" d="m174.54,95.74v-.09c.21-.14.5-.15.45-.57,0-.16.59-.29.87-.24s.72.22.76.69c.17.2,0,.28-.12.39-.03.19,0,.39.09.56-.25.02-.59-.2-.72.2-.05.15-.18.12-.23,0-.18-.42-.45-.21-.71-.12.22-.45.05-.7-.39-.82Z"/><path class="cls-13" d="m176.53,95.92c.04-.13.08-.26.12-.39.13,0,.27,0,.3.15,0,.05-.13.13-.2.2l-.22.03Z"/><path class="cls-40" d="m144.65,94.84c.31.14-.21.7.36.7.21.42-.23.26-.35.38l-.07-.05c-.2-.33-.31-.8-.87-.61-.15,0-.32.11-.45-.06,0-.12-.02-.29.2-.23.35-.48.81.12,1.18-.13Z"/><path class="cls-45" d="m143.47,94.97c-.1.06-.16.17-.13.29.06.07.06.17,0,.24-.02.02-.05.04-.08.04l-.08-.04v-.39c0-.07,0-.2.02-.22s.19,0,.27.09Z"/><path class="cls-45" d="m143.09,95.9c-.07-.07-.22-.15-.21-.21,0-.14.18-.15.3-.18l.04.02c.2.26.37.54.53.83v.09c-.19-.03-.38,0-.55.08-.16-.19.2-.48-.11-.63Z"/><path class="cls-16" d="m144.15,96.45c-.03.27-.07.5-.42.22v-.27c.13-.1.31-.08.42.05,0,0,0,0,0,0Z"/><path class="cls-40" d="m144.74,96.55c-.15.04-.24-.08-.35-.14-.05-.14-.04-.29.04-.42.04-.08.11-.13.2-.12l.03.03c-.06.24.2.42.08.65Z"/><path class="cls-50" d="m144.52,96.04l-.13.37-.25.04-.42-.05c-.33-.17-.54-.51-.53-.88l.12-.27.38-.14c.04.08.04.17,0,.24-.2.49-.03.69.48.64.11-.03.23-.02.33.05Z"/><path class="cls-69" d="m160.07,110.89s.08.02.11,0l.12.05c.22.1.16.35.27.51h0c.12.15.12.37,0,.52l-.03.13c-.08.15-.25.18-.37.27h0c-.38.23-.67.07-.94-.2-.09-.24-.33-.46-.07-.74,0-.33.2-.45.49-.5h0c.1-.13.28-.15.41-.05Z"/><path class="cls-43" d="m160.58,111.44c-.15-.13-.25-.31-.27-.51.8-.21.15.35.27.51Z"/><path class="cls-43" d="m160.59,111.97v-.52l.45.2c-.09.23-.34.19-.45.32Z"/><path class="cls-43" d="m160.73,112.36c-.13.36-.29.07-.42,0,.06-.1.18-.16.3-.15l.12.15Z"/><path class="cls-19" d="m160.59,112.24c-.07.09-.18.15-.3.15h-.1c.05-.16.2-.27.37-.27l.03.13Z"/><path class="cls-19" d="m159.27,112.09c.26.2.59.3.92.28l-.16.35c-.24.54-.26,0-.38-.08s-.23-.25-.42-.08l-.21.05.11-.37s.05-.13.13-.14Z"/><path class="cls-88" d="m159.65,112.64c.13.03.2.34.38.08v.18c-.08.18-.15.44-.39.13.02-.13.02-.25.01-.39Z"/><path class="cls-70" d="m159.27,112.09l-.12.14c.03-.15-.05-.3-.18-.36-.42-.2-.03-.28.06-.42h.11c.04-.07.08-.07.12,0-.18.21-.03.42.01.64Z"/><path class="cls-24" d="m159.26,111.44h-.12c.09-.22-.25-.42-.02-.65.16.12.36.17.56.14-.14.18-.44.21-.41.51Z"/><path class="cls-24" d="m160.07,110.89l-.42.03c.04-.14.05-.34.22-.34s.17.18.2.31Z"/><path class="cls-55" d="m160.7,81.98l.35.23c-.17.19-.57.17-.42.65.08.27-.2.12-.32.04-.04-.04-.07-.1-.08-.16.23-.45,0-.8-.25-1.15,0-.06.03-.12.07-.16.52-.16.65.15.65.55Z"/><path class="cls-48" d="m160.32,82.78v.14c-.11,0-.23,0-.29.13-.2.17-.27-.05-.42-.12h-.23c-.32,0-.18-.23-.18-.39.39-.05.79.04,1.12.24Z"/><path class="cls-55" d="m159.63,82.91l.42.12c-.04.13-.08.26-.12.39l-.13-.12c-.07-.13-.12-.26-.17-.39Z"/><path class="cls-18" d="m159.12,81.97l-.07-.58.61.07.04.07c-.01.05-.04.1-.08.13-.09.06-.16.14-.22.22-.03.04-.07.08-.11.12-.05.01-.11,0-.15-.03Z"/><path class="cls-48" d="m159.67,81.58s0-.09,0-.13c.06-.12.07-.32.23-.33s.15.18.17.3v.17c-.09.11-.26.12-.37.03-.01-.01-.02-.02-.03-.04Z"/><path class="cls-18" d="m159.27,82.5c0,.15-.03.31.13.42-.11.11-.27.15-.42.12,0-.22.22-.42.09-.63.03-.05.1-.07.15-.06.03.02.05.06.05.1.01.03,0,.05,0,.05Z"/><path class="cls-48" d="m159.25,82.36l-.17.02s-.06-.02-.09-.04c-.08-.08-.09-.2-.02-.29l.15-.1h.14c.11.11.11.28,0,.39,0,0-.01.01-.02.02Z"/><path class="cls-18" d="m158.97,82.06l.02.29c-.13,0-.27,0-.29-.17,0-.03.17-.08.27-.12Z"/><path class="cls-61" d="m176.38,95.7c-.1.31-.28.59-.62.58-.3-.01-.54-.26-.54-.56-.03-.3.18-.56.48-.6.02,0,.05,0,.07,0,.41-.02.5.28.61.58Z"/><path class="cls-60" d="m144.52,96.04c-.33.15-.7.29-.97-.03s0-.62.17-.89c.62-.12.81.04.9.77l-.11.15Z"/><path class="cls-62" d="m160.19,111.97c-.21.42-.47.2-.67.02-.16-.13-.18-.36-.06-.52.02-.02.03-.04.06-.06.2-.18.46-.42.67,0-.32.2-.32.37,0,.55Z"/><path class="cls-69" d="m159.25,82.36v-.42h0c.09-.18.23-.33.42-.42h.37c.5.3.65.67.28,1.17-.37.08-.76-.02-1.05-.27-.01.02-.02-.02-.02-.07Z"/><path class="cls-48" d="m159.66,81.58c-.09.18-.24.32-.42.42-.02-.32.12-.47.42-.42Z"/><path d="m132.7,175.09c.17,0,.35-.02.51-.07.16-.05.31-.12.45-.21.13-.09.24-.21.32-.34.08-.14.13-.3.12-.47,0-.2-.05-.4-.16-.57-.11-.17-.25-.33-.42-.45-.19-.16-.39-.3-.61-.42l-.7-.37c-.24-.12-.47-.25-.7-.39-.22-.12-.43-.27-.61-.45-.17-.16-.31-.35-.42-.56-.12-.22-.17-.46-.17-.71,0-.25.05-.5.15-.74.1-.23.25-.43.44-.59.21-.18.45-.31.71-.39.31-.1.64-.15.97-.14.55-.03,1.1.12,1.57.42.4.3.69.72.83,1.2l-.6.27c-.12-.4-.35-.76-.66-1.04-.33-.28-.76-.42-1.19-.4-.2,0-.39.03-.57.09-.15.05-.29.13-.42.24-.1.09-.19.21-.25.34-.05.12-.08.25-.08.38,0,.18.06.36.17.5.13.16.28.3.45.42.2.15.41.28.63.4l.72.38c.24.13.48.27.72.42.22.13.43.29.63.46.18.15.33.34.45.55.11.2.17.43.17.66,0,.27-.05.53-.16.78-.11.25-.27.46-.47.64-.23.19-.5.33-.78.42-.35.11-.72.16-1.09.15-.56.03-1.12-.11-1.59-.42-.41-.3-.71-.72-.87-1.2l.63-.26c.13.42.38.8.73,1.07.33.26.74.4,1.16.4Z"/><path d="m140.78,168.4l2.42,3.54,2.4-3.53h.64l-2.7,3.95v3.01h-1.17v-2.92l-2.79-4.07,1.2.02Z"/><path d="m151.14,168.4h2.32c.62-.01,1.24.06,1.84.2.47.11.91.33,1.29.65.38.31.68.7.89,1.15.2.45.31.93.3,1.42,0,.47-.09.94-.27,1.38-.17.43-.44.81-.78,1.12-.36.34-.79.6-1.25.76-.55.2-1.14.29-1.72.28h-2.6l-.02-6.97Zm1.17,6.46h1.25c.38,0,.76-.06,1.11-.2.34-.13.65-.33.9-.58.27-.27.47-.59.61-.94.16-.41.23-.85.22-1.3,0-.4-.06-.81-.21-1.18-.13-.35-.33-.66-.59-.92-.26-.26-.56-.47-.9-.6-.36-.15-.75-.22-1.14-.22h-1.25v5.94Z"/><path d="m163.23,168.4h.66l4.58,5.1h.05v-5.1h.51v7.13h-.27l-4.95-5.67h-.05v5.5h-.53v-6.95Z"/><path d="m179.61,168.4v.45h-3.67v2.5h2.46v.45h-2.46v3.12h3.67v.45h-4.84v-6.97h4.84Z"/><path d="m185.28,168.4l2.41,3.53,2.41-3.53h.63l-2.7,3.96v3.01h-1.17v-2.92l-2.78-4.07,1.2.02Z"/></g></svg>