<?xml version="1.0" encoding="UTF-8"?><svg id="Layer_1" xmlns="http://www.w3.org/2000/svg" viewBox="0 0 320 240"><defs><style>.cls-1{fill:#363636;stroke-width:0px;}</style></defs><path class="cls-1" d="m143.69,100.96h-3.75v-.48h1.3v-7.47h-2.61v1.04h-.63v-2.06h.63v.37h6.36v-.37h.63v2.06h-.63v-1.04h-2.61v7.47h1.3v.48Z"/><path class="cls-1" d="m155.53,100.96h-3.1v-.48h.98v-3.58h-4.89v3.58h.98v.48h-3.1v-.48h.98v-7.64h-.98v-.48h3.1v.48h-.98v3.47h4.89v-3.47h-.98v-.48h3.1v.48h-.99v7.64h.99v.48Z"/><path class="cls-1" d="m162.55,100.96h-5.93v-.48h.98v-7.64h-.98v-.48h5.2v-.37h.6v2.07h-.59v-1.11h-3.09v3.34h2.46v-.98h.6s0,2.55,0,2.55h-.6s0-.99,0-.99h-2.46v3.49h3.2v-1.15h.6v1.73h0Z"/><path class="cls-1" d="m175.42,92.84h-.98v4.96c0,1.39-.5,2.29-1.58,2.88-.55.29-1.17.44-1.81.44-1.89,0-3.28-1.25-3.28-2.96v-5.33h-.98v-.48h3.1v.48h-.98v4.93c0,1.58.92,2.61,2.37,2.61s2.49-1.06,2.49-2.62v-4.91h-.98v-.48h2.62v.48h0Z"/><path class="cls-1" d="m183.46,101.1h-.4l-5-6.88v6.25h.99v.48h-2.63v-.48h.99v-7.14l-.35-.5h-.9v-.48h1.89l4.77,6.54v-6.06h-.99v-.48h2.62v.48h-.98v8.26h0Z"/><path class="cls-1" d="m188.48,100.96h-3.1v-.48h.98v-7.64h-.98v-.48h3.1v.48h-.98v7.64h.98v.48Z"/><path class="cls-1" d="m193.74,101.18h-.44l-3.28-8.34h-.77v-.48h3.23v.48h-1.23l2.53,6.4,2.5-6.4h-.86v-.48h2.23v.48h-.65l-3.26,8.34h0Z"/><path class="cls-1" d="m204.36,100.96h-5.93v-.48h.98v-7.64h-.98v-.48h5.2v-.37h.6v2.07h-.59v-1.11h-3.09v3.34h2.46v-.98h.6s0,2.55,0,2.55h-.6s0-.99,0-.99h-2.46v3.49h3.21v-1.15h.6v1.73h0Z"/><path class="cls-1" d="m213.14,100.96h-1.11c-.77,0-.91-.08-1.34-.77l-1.94-3.09h-1.02v3.37h.98v.48h-3.1v-.48h.98v-7.64h-.98v-.48h3.62c1.26,0,1.98.35,2.37,1.16.17.35.26.74.26,1.16,0,1.26-.7,2.07-1.95,2.25l1.88,2.89c.31.48.52.64.85.64h.51v.5Zm-5.4-4.46h1.25c.99,0,1.68-.73,1.68-1.8s-.61-1.75-1.71-1.75h-1.22v3.54Z"/><path class="cls-1" d="m214.81,101.08h-.61v-2.35h.61v1.03c.79.53,1.15.66,1.72.66,1.04,0,1.75-.55,1.75-1.37,0-.74-.51-1.29-1.92-2.02-1.64-.86-2.2-1.51-2.2-2.58,0-1.29,1.09-2.25,2.57-2.25.65,0,1.13.12,1.55.37v-.47h.6v2.23h-.6v-.93c-.66-.44-.99-.57-1.51-.57-.89,0-1.46.53-1.46,1.34,0,.66.38,1.04,2.01,1.98,1.63.94,2.1,1.51,2.1,2.58,0,1.35-1.12,2.4-2.59,2.4-.82,0-1.35-.17-2.01-.59v.53h0Z"/><path class="cls-1" d="m223.7,100.96h-3.1v-.48h.98v-7.64h-.98v-.48h3.1v.48h-.98v7.64h.98v.48Z"/><path class="cls-1" d="m230.23,100.96h-3.75v-.48h1.3v-7.47h-2.61v1.04h-.63v-2.06h.63v.37h6.36v-.37h.63v2.06h-.63v-1.04h-2.61v7.47h1.3v.48h0Z"/><path class="cls-1" d="m238.46,100.96h-3.1v-.48h.98v-3.48l-2.7-4.16h-.76v-.48h3.22v.48h-1.19l2.24,3.41,2.07-3.41h-1.19v-.48h2.61v.48h-.68l-2.5,4.08v3.56h.99v.48Z"/><path class="cls-1" d="m244.01,96.67c0-2.45,1.9-4.47,4.21-4.47s4.17,2.03,4.17,4.46-1.9,4.47-4.17,4.47-4.21-2.03-4.21-4.46Zm1.29-.01c0,2.2,1.23,3.79,2.92,3.79s2.88-1.6,2.88-3.79-1.21-3.78-2.87-3.78-2.93,1.56-2.93,3.78h0Z"/><path class="cls-1" d="m256.3,100.96h-3.1v-.48h.98v-7.64h-.98v-.48h5.2v-.37h.6v2.07h-.59v-1.11h-3.09v3.34h2.46v-.98h.6s0,2.55,0,2.55h-.6s0-.99,0-.99h-2.46v3.6h.98v.48h0Z"/><path class="cls-1" d="m139.63,128.8h-1.61v-6.18h1.61v2.71c2.09,1.41,3.02,1.75,4.53,1.75,2.75,0,4.6-1.44,4.6-3.61,0-1.96-1.34-3.4-5.05-5.32-4.33-2.27-5.8-3.99-5.8-6.81,0-3.4,2.88-5.94,6.76-5.94,1.72,0,2.99.31,4.09.96v-1.24h1.58v5.87h-1.58v-2.44c-1.75-1.17-2.61-1.51-3.98-1.51-2.34,0-3.85,1.41-3.85,3.54,0,1.75,1,2.76,5.29,5.24,4.29,2.47,5.53,3.98,5.53,6.8,0,3.57-2.95,6.32-6.83,6.32-2.16,0-3.57-.45-5.29-1.54v1.41h0Z"/><path class="cls-1" d="m167.06,128.49h-8.17v-1.27h2.58v-9.17l-7.11-10.97h-1.99v-1.27h8.48v1.27h-3.12l5.91,9.01,5.46-9.01h-3.13v-1.27h6.87v1.27h-1.79l-6.59,10.76v9.37h2.61v1.27h0Z"/><path class="cls-1" d="m174.55,128.49v-1.27h2.58v-20.14h-2.58v-1.27h10.13c6.18,0,11.23,5.08,11.23,11.31s-4.94,11.36-11.26,11.36h-10.1,0Zm5.6-1.72h4.12c4.7,0,8.27-4.15,8.24-9.61,0-5.3-3.64-9.6-8.17-9.6h-4.19v19.21Z"/><path class="cls-1" d="m215.71,128.86h-1.06l-13.19-18.15v16.5h2.61v1.27h-6.94v-1.27h2.61v-18.83l-.93-1.3h-2.37v-1.27h4.98l12.57,17.25v-15.98h-2.61v-1.27h6.9v1.27h-2.58v21.79Z"/><path class="cls-1" d="m236.24,128.49h-15.62v-1.27h2.58v-20.14h-2.58v-1.27h13.7v-.96h1.58v5.46h-1.54v-2.92h-8.14v8.81h6.49v-2.58l1.58-.03v6.77l-1.58.03v-2.64h-6.49v9.2h8.45v-3.02h1.58v4.57Z"/><path class="cls-1" d="m253.23,128.49h-8.17v-1.27h2.58v-9.17l-7.11-10.97h-1.99v-1.27h8.48v1.27h-3.12l5.91,9.01,5.46-9.01h-3.13v-1.27h6.87v1.27h-1.79l-6.59,10.76v9.37h2.61v1.27h0Z"/><path class="cls-1" d="m94.95,122.12h5.07v-.77h-5.07v.77Zm0,2.1h5.07v-.77h-5.07v.77Zm0-4.2h5.07v-.77h-5.07v.77Zm-3.65,1.33h-5.07v.77h5.07s0-.77,0-.77Zm0,2.1h-5.07v.77h5.07s0-.77,0-.77Zm0-4.2h-5.07v.77h5.07s0-.77,0-.77Zm8.05-13.45c-2.06-.1-4.15-.17-6.22-.17s-4.16.06-6.21.17v10.23h-19.59c.82,4.91,2.82,9.51,5.69,13.34.39-.55,1.02-.9,1.74-.9h12.15v10.64c1.99.55,4.06.85,6.21.85v.09h0v-.09c2.15,0,4.23-.3,6.22-.85v-10.64h12.16c.71,0,1.35.35,1.74.89,2.87-3.83,4.87-8.43,5.69-13.33h-19.58v-10.23Zm-9.81,3.19l2.65,1.26.95-2.75.98,2.76,2.61-1.27-1.26,2.65,2.75.95-2.76.99,1.27,2.61-2.65-1.25-.95,2.74-.99-2.76-2.61,1.27,1.25-2.65-2.75-.94,2.76-.99s-1.27-2.61-1.27-2.61Zm-9.26,16.9l-2.61-1.27-.99,2.76-.94-2.75-2.66,1.26,1.28-2.61-2.77-.98,2.75-.95-1.26-2.65,2.61,1.27.99-2.76.95,2.74,2.65-1.26-1.27,2.61,2.76.99-2.75.94,1.26,2.65Zm4.2-.19h-1.15v-.84h1.15v.84Zm0-2.25h-1.15v-.85h1.15v.85Zm0-2.26h-1.15v-.84h1.15v.84Zm0-2.25h-1.15v-.85h1.15v.85Zm.61,6.77v-8.14h5.13c.1-.01.21,0,.31,0,1.17,0,2.07.9,2.07,2.05v6.82c-.38-.45-.95-.74-1.59-.74-.08,0-4.32,0-5.92,0Zm11.64,10.61l-2.65-1.26-.94,2.75-.99-2.77-2.61,1.28,1.26-2.65-2.75-.95,2.76-.99-1.27-2.61,2.65,1.26.95-2.74.99,2.76,2.61-1.27-1.26,2.65,2.75.94-2.76.99,1.27,2.61Zm9.25-17.62l2.66,1.26.94-2.74.99,2.76,2.61-1.27-1.26,2.65,2.75.95-2.77.98,1.28,2.61-2.65-1.26-.94,2.75-.99-2.76-2.61,1.27,1.26-2.65-2.75-.94,2.76-.99-1.27-2.61Zm-4.2-.61h1.15v.85h-1.15v-.85Zm0,2.26h1.15v.84h-1.15v-.84Zm0,2.25h1.15v.85h-1.15v-.85Zm0,2.26h1.15v.84h-1.15v-.84Zm-.61-7.29v8.14c-1.61,0-5.84,0-5.92,0-.64,0-1.21.29-1.59.74v-6.82c0-1.15.9-2.05,2.07-2.05.1,0,.22-.01.32,0h5.13Zm10.1-34.69c-5.05-1.07-11.72-2.13-18.14-2.13-9.63,0-19.81,2.39-24.28,3.59-.89.24-1.55.43-1.94.54v21.91c2.9-.47,14.87-2.28,26.22-2.29,11.35,0,23.32,1.82,26.22,2.29v-21.91c-.39-.11-1.05-.3-1.94-.54-1.49-.4-3.61-.93-6.14-1.46Zm-27.38,2.3c.4-.09-.46-.75.1-.72.37.02,1.56.02,2.47.47.17.07.28-.25.62-.48.03-.02.11-.05.17,0,.36.22.48.54.66.47.9-.43,2.09-.43,2.45-.46.58-.04-.3.63.1.72,2.04.47,3.56,2.21,3.56,4.27,0,.6-.15,1.16-.35,1.68-.11.28-.4-.52-.51-.05-.2.84-.41,1.47-.85,2.31-.42.79-1.13-.86-1.34-.4-.4.83-1.32,1.12-1.97,1.22-.07,0-.14,0-.05-.09.03-.03.19-.18.23-.47,0-.03-.01-.08.06-.11.49-.23.86-.69.96-1.23.16-.51.36-1.23.61-1.68.55-.99-.12-2.18.05-2.44.38-.25.63-.68.63-1.17,0-.77-.63-1.4-1.4-1.4-.42,0-.79.18-1.04.47l-.04.04c-.13.14-.25.27-.36.42-.13.16-.1.46.12.52.95.25,1.57,2.39,1.18,3.09-.17.31-.7,1.46-.7,1.8,0,.43-.35.78-.78.78-.33,0-.61-.2-.73-.51,0,0,.01-.03.02-.03.26-.16.84-.51.84-.87l-.12-1.17c.47-.06.69-.31.75-.76.04-.03.08-.06.12-.09.16-.14.26-.54-.08-.48-.48.09-1.03.07-1.56.22-.07.02-.12.08-.14.15-.02.1.29,1.52.36,1.83,0,.04-.02.06-.04.06-.21-.02-.6-.04-.69-.04-.09,0-.47.02-.69.04-.02,0-.05-.03-.05-.06.07-.33.38-1.75.38-1.75,0-.06,0-.12-.03-.17-.1-.13-1.49-.25-1.67-.29-.08-.01-.16.02-.21.08-.14.19.1.41.26.5.06.44.29.69.75.75,0,0,.01.02.02.02-.01.08-.13,1.16-.13,1.17,0,.38.57.69.86.86.02.02.04.04.04.07-.14.27-.41.47-.72.47-.43,0-.78-.35-.78-.78,0-.28-.52-1.48-.71-1.81-.41-.72.2-2.83,1.19-3.07.21-.05.32-.36.16-.53-.41-.41-.89-.92-1.52-.92-.77,0-1.39.63-1.39,1.4,0,.88.68,1.02.63,1.27-.27.82-.28,1.71.09,2.34.25.44.45,1.13.6,1.63.09.51.4.95.84,1.21.22.13.11.3.2.48.04.09.11.15.17.19.09.07.02.09-.06.08-.65-.08-1.65-.36-2.07-1.23-.22-.47-.93,1.18-1.34.4-.45-.84-.65-1.47-.85-2.31-.11-.47-.4.33-.51.05-.2-.52-.35-1.08-.35-1.68,0-2.07,1.52-3.8,3.56-4.27h0Zm5.83,1.44s-.02-.1.01-.12c.1-.08.23-.12.37-.12.34,0,.62.28.62.62,0,.2-.09.37-.23.48-.04.03-.11,0-.12-.04-.18-.32-.4-.61-.65-.83Zm-1.41,7.02c-.15.39-.7.26-1,.51-.03.03-.12.03-.15,0-.3-.25-.85-.13-1.03-.56-.01-.03-.01-.1.07-.12.39-.04.74-.23.99-.51.02-.03.09-.05.14.01.23.25.55.44.91.5.04,0,.11.04.07.16Zm-4.2-6.16s-.08.04-.13,0c-.14-.12-.23-.29-.23-.49,0-.34.28-.62.62-.62.17,0,.32.07.43.17.05.03.02.12,0,.14-.27.22-.5.49-.69.79Zm-5.53,8.03c-.42,0-.6.14-.91.34-.2.14-.25-.25-.02-1.03.19-.61-1.02-.95-1.31-.66-.41.32-1.44.93-2.45-.13-.2-.21.46-.14.5-.33.06-.27.31-.44.42-.55.06-.08.06-.21-.04-.26-.31-.17-.74-.53-.62-1.19.01-.09-.53-.13-.35-.29.95-.88,1.99-.33,2.41-.05.07.03.22.04.23-.1.03-.28-.12-.47.46-.95.11-.09-.33-.48-.02-.46,1.97.49,1.08,2.54,1.49,2.9.75.67,2.57,1.2,4.28,1.57.15.03.68.22.79.28,1.38.7,2.23.64,2.97.34.24-.09.24.21.15.29-2.74,2.62-4.83,1.95-5.57,1.48-.51-.33-1.56-.34-2.05.33-.08.08-.23.13-.29-.08-.14-.5.01-.83.16-1.19.09-.19-.14-.24-.22-.24Zm26.15,2.43c-.37.32-1.02.67-2.06.63-.44-.02-.65.11-.76.24-.07.09-.11.2-.11.22-.06.22.02.45.14.63.11.16.07.26-.1.3-.17.04-.4.05-.84-.17-.2-.09-.25.03-.28.12-.07.22.07.48.36.68.15.13.12.26-.11.34-.39.14-.75-.04-1.32-.36-.34-.19-.6-.22-.83.05-.13.15-.12.29-.04.37.22.22.36.67-.2,1.37-.18.23-.38-.41-.55-.33-.76.36-1.39-.11-1.63-.43-.05-.07-.16-.09-.29,0-.38.26-1.2.68-1.52-.06-.05-.11-.5.17-.49-.04.02-1.22,1.08-1.45,1.53-1.49.14-.01.17-.08.09-.19-.18-.26-.4-.58-.28-.95.08-.27-.61-.33-.33-.47,1.4-.7,2.18.64,2.42.78.41.23,2.23-.36,2.45-1.35.05-.19-.43-.28-.89-.4-.08-.02-.13-.13.02-.25,1.11-.82,2-1.89,4-2.09.24-.03.34.18.35.27.04.31.12.61.25.9.29.61.64.99.99,1.27.17.13.15.32.05.41Zm8.38-.63c.18.09.18.2.05.32-.14.12-.34.23-.83.24-.21,0-.21.14-.2.23.03.23.28.4.63.44.19.05.22.18.05.35-.29.3-.68.3-1.34.28-.62-.02-1.12.73-.75,1.05.25.21.75.68.32,1.96-.14.38-.37-.35-.57-.24-.52.31-.97-.08-1.2-.36-.1-.12-.19-.12-.26,0-.21.36-.75.99-1.85.4-.24-.13-.73.31-.76.16-.18-.85.26-1.36.63-1.62.04-.03.18-.22-.06-.22-.37-.02-.82-.14-.87-.59,0-.1-.47-.07-.45-.2.11-.63,1.49-1.08,2.44-.45.8.53,1.81-1.28,1.09-2.13-.52-.61-3.59,1.1-4.64-1.12-.42-.89.11-1.66-.32-1.72-.43-.06-2.36-.48-4.5,1.24-3.62,2.91-7.55,1.32-8.47.68-.14-.04-.29.07-.22.22.15.37.08.72-.1.99-.38.57-1.68,1.15-1.91,1.22-1.52.45-1.36,1.61-1.2,2.13.05.16-.01.25-.18.22-.47-.09-1.41-.37-1.78-1.29-.04-.11-.15-.11-.27-.02-.57.4-.37.99-.23,1.25.05.1.02.2-.11.22-.52.06-.89-.54-1.34-.5-.29.03-.63.25-.82.38-.09.06-.1.2-.05.37.57,1.69-.37,1.74-.42,1.71-.07-.04-.03-.32-.3-.36-.92.05-1.18-.55-1.23-.99-.02-.14-.07-.19-.17-.13-.35.24-1.2.72-1.74.02-.08-.1-.33,0-.47.07-.11.05-.11-.14-.11-.19.07-.96.72-1.4,1.08-1.56.13-.06.15-.13.04-.21-.29-.21-.8-.68-.64-1.18.03-.1-.43-.28-.31-.36,1.05-.76,2.41.5,2.58.64.18.14,1.14.18,3.58-1.2,1.55-.87,2.37-1.59,2.81-2.14.05-.06.17-.18.33-.19.99-.03,1.96-.18,2.72-.85.13-.13.25-.05.31-.02,1.4.97,2.12-1.18,2.41-2.16.04-.2.08-.36.29-.37,5.15.25,14.9.21,14.9.21,0,0,1.29.1,1.22-.7-.1-1.28-5.42-1.25-9.39-.7-1.44.2-3.54.31-4.77-.17-.51-.2-.93-.52-1.16-.93-.25-.52-.18-.83-.14-1.16.06-.24.18-.49.35-.76,1.02-1.57,3.37-1.69,4.1-1.69.14,0,.23-.06.25-.16.07-.36.35-1.2,1.34-1.26.28-.02.56-.12.74-.2.12-.05.19-.02.17.08-.03.13-.09.3-.23.42-.69.59-.59.87-.51.95.05.04.11.02.16-.03,2.1-1.83,3.32-.62,3.69-.22.06.07.08.18-.04.21-1.43.32-1.97,1.59-4.88,1.38-.35-.02-2.74-.14-3.49.94-.44.63-.13,1.21,1.15,1.49.98.21,3.25-.12,4.33-.2,1.05-.09,5.63-.66,8.04.03,1.01.29,2.49,1.1,2.2,2.64-.19.97-1.12,1.35-1.12,1.35,0,0-2.64,1.86,2.09,1.87,1.47,0,.02,1.21-.05,1.57-.05.25.18.49.41.62Zm-8.68-10.25c-.14.03-.35.09-.57.24-.43.29-2.14,1-2.67.14,0,0,1.2-.04,1.98-.73,0,0,.84-.29,1.33.16.06.05.07.17-.06.2Zm-11.29-9.48c-16.1,0-32.13,4.29-32.13,4.29v21.42c0,19.3,13.82,39.37,32.12,42.84,18.97-3.71,32.13-23.54,32.13-42.84v-21.41s-13.43-4.29-32.13-4.29h0Zm27.35,33.52c0,15.72-11.95,29.98-27.35,30h0c-15.4-.02-27.35-14.29-27.35-30v-27.05l.4-.12s13.88-4.3,26.95-4.3c13.08,0,26.95,4.3,26.95,4.3l.4.12v27.05Z"/><path class="cls-1" d="m143.86,162.11c-.5.21-1.01.32-1.52.32-.81,0-1.53-.14-2.18-.42-.65-.28-1.19-.67-1.63-1.16-.44-.49-.78-1.07-1.02-1.74-.24-.67-.35-1.38-.35-2.15s.12-1.52.35-2.19c.24-.67.58-1.26,1.02-1.77.44-.5.99-.9,1.63-1.18.65-.29,1.37-.43,2.18-.43.54,0,1.07.08,1.57.24.51.16.97.4,1.37.72.41.32.75.71,1.01,1.17s.43,1,.49,1.6h-2.22c-.14-.59-.4-1.03-.8-1.33s-.87-.44-1.43-.44c-.52,0-.97.1-1.33.3-.36.2-.66.47-.89.81s-.39.73-.5,1.16c-.1.43-.16.88-.16,1.34s.05.88.16,1.29c.1.42.27.8.5,1.13s.52.6.89.81c.36.2.81.3,1.33.3.77,0,1.36-.19,1.78-.58.42-.39.66-.95.73-1.69h-2.33v-1.73h4.43v5.7h-1.48l-.24-1.2c-.41.53-.87.9-1.37,1.12Z"/><path class="cls-1" d="m150.85,160.36c.32.3.77.46,1.36.46.42,0,.79-.11,1.09-.32.31-.21.49-.44.56-.67h1.85c-.3.92-.75,1.57-1.36,1.96-.61.39-1.35.59-2.22.59-.6,0-1.14-.1-1.63-.29-.48-.19-.89-.47-1.23-.82s-.59-.78-.78-1.27c-.18-.49-.27-1.04-.27-1.63s.09-1.1.28-1.6c.19-.49.45-.92.8-1.28.34-.36.76-.64,1.23-.85.48-.21,1.01-.31,1.59-.31.65,0,1.22.13,1.7.38.48.25.88.59,1.19,1.01.31.42.53.91.67,1.45.14.54.19,1.11.15,1.7h-5.51c.03.68.2,1.17.52,1.48Zm2.37-4.02c-.25-.28-.63-.41-1.15-.41-.33,0-.61.06-.83.17s-.4.25-.53.42c-.13.17-.23.35-.28.53-.05.19-.09.35-.1.5h3.41c-.1-.53-.27-.94-.52-1.21Z"/><path class="cls-1" d="m159.08,154.55v1.06h.04c.27-.44.61-.77,1.03-.97.42-.2.86-.3,1.3-.3.56,0,1.02.08,1.38.23.36.15.64.36.85.63.21.27.35.6.44.99.08.39.13.82.13,1.29v4.7h-2.1v-4.31c0-.63-.1-1.1-.3-1.41-.2-.31-.55-.46-1.05-.46-.57,0-.99.17-1.24.51-.26.34-.38.9-.38,1.68v4h-2.1v-7.64h2Z"/><path class="cls-1" d="m168.09,160.36c.32.3.77.46,1.36.46.42,0,.79-.11,1.09-.32.31-.21.49-.44.56-.67h1.85c-.3.92-.75,1.57-1.36,1.96-.61.39-1.35.59-2.22.59-.6,0-1.14-.1-1.63-.29-.48-.19-.89-.47-1.23-.82s-.59-.78-.78-1.27c-.18-.49-.27-1.04-.27-1.63s.09-1.1.28-1.6c.19-.49.45-.92.8-1.28.34-.36.76-.64,1.23-.85.48-.21,1.01-.31,1.59-.31.65,0,1.22.13,1.7.38.48.25.88.59,1.19,1.01.31.42.53.91.67,1.45.14.54.19,1.11.15,1.7h-5.51c.03.68.2,1.17.52,1.48Zm2.37-4.02c-.25-.28-.63-.41-1.15-.41-.33,0-.61.06-.83.17s-.4.25-.53.42c-.13.17-.23.35-.28.53-.05.19-.09.35-.1.5h3.41c-.1-.53-.27-.94-.52-1.21Z"/><path class="cls-1" d="m176.09,160.29c.09.16.21.29.36.4s.32.18.51.23c.19.05.39.07.6.07.15,0,.3-.02.47-.05.16-.03.31-.09.44-.16s.24-.17.33-.3c.09-.12.13-.28.13-.46,0-.32-.21-.55-.63-.71-.42-.16-1-.31-1.75-.47-.31-.07-.6-.15-.89-.24-.29-.09-.55-.22-.78-.37-.23-.15-.41-.34-.55-.58-.14-.23-.21-.51-.21-.85,0-.49.1-.9.29-1.21s.45-.56.76-.75c.32-.18.67-.31,1.06-.38.39-.07.8-.11,1.21-.11s.81.04,1.2.12c.39.08.74.21,1.04.4.31.19.56.44.76.75.2.31.32.7.36,1.17h-1.99c-.03-.4-.18-.68-.46-.82s-.6-.21-.98-.21c-.12,0-.25,0-.38.02-.14.01-.26.05-.38.1-.11.05-.21.12-.29.21-.08.09-.12.22-.12.38,0,.19.07.34.21.46.14.12.32.21.54.29.22.07.48.14.76.2.29.06.58.12.87.19.31.07.6.15.89.25.29.1.55.23.78.39.23.16.41.37.55.61.14.24.21.54.21.89,0,.5-.1.92-.3,1.26-.2.34-.47.61-.79.82s-.7.35-1.12.44c-.42.08-.84.13-1.28.13s-.88-.04-1.3-.13c-.42-.09-.8-.24-1.13-.44-.33-.21-.6-.48-.81-.82-.21-.34-.33-.77-.35-1.28h1.99c0,.23.05.42.14.58Z"/><path class="cls-1" d="m182.32,153.37v-1.73h2.1v1.73h-2.1Zm2.1,1.18v7.64h-2.1v-7.64h2.1Z"/><path class="cls-1" d="m187.84,160.29c.09.16.21.29.36.4s.32.18.51.23c.19.05.39.07.6.07.15,0,.3-.02.47-.05.16-.03.31-.09.44-.16s.24-.17.33-.3c.09-.12.13-.28.13-.46,0-.32-.21-.55-.63-.71-.42-.16-1-.31-1.75-.47-.31-.07-.6-.15-.89-.24-.29-.09-.55-.22-.78-.37-.23-.15-.41-.34-.55-.58-.14-.23-.21-.51-.21-.85,0-.49.1-.9.29-1.21s.45-.56.76-.75c.32-.18.67-.31,1.06-.38.39-.07.8-.11,1.21-.11s.81.04,1.2.12c.39.08.74.21,1.04.4.31.19.56.44.76.75.2.31.32.7.36,1.17h-1.99c-.03-.4-.18-.68-.46-.82s-.6-.21-.98-.21c-.12,0-.25,0-.38.02-.14.01-.26.05-.38.1-.11.05-.21.12-.29.21-.08.09-.12.22-.12.38,0,.19.07.34.21.46.14.12.32.21.54.29.22.07.48.14.76.2.29.06.58.12.87.19.31.07.6.15.89.25.29.1.55.23.78.39.23.16.41.37.55.61.14.24.21.54.21.89,0,.5-.1.92-.3,1.26-.2.34-.47.61-.79.82s-.7.35-1.12.44c-.42.08-.84.13-1.28.13s-.88-.04-1.3-.13c-.42-.09-.8-.24-1.13-.44-.33-.21-.6-.48-.81-.82-.21-.34-.33-.77-.35-1.28h1.99c0,.23.05.42.14.58Z"/><rect class="cls-1" x="137.15" y="139.05" width="12.19" height="2"/></svg>