<?xml version="1.0" encoding="UTF-8"?><svg id="Layer_1" xmlns="http://www.w3.org/2000/svg" viewBox="0 0 320 240"><defs><style>.cls-1{stroke-width:0px;}</style></defs><path class="cls-1" d="m43.81,108.68l4.12,10.58,4.01-10.58h.57s3.84,10.58,3.84,10.58l4.38-10.58h2.59l-6.65,15.83h-.79s-3.71-10.21-3.71-10.21l-3.86,10.21h-.79s-6.32-15.83-6.32-15.83h2.59Z"/><path class="cls-1" d="m69.79,108.68v15.83h-2.39v-15.83h2.39Z"/><path class="cls-1" d="m84.64,111.04l-1.94,1.15c-.36-.63-.71-1.04-1.04-1.23-.34-.22-.78-.33-1.32-.33-.66,0-1.21.19-1.65.56-.44.37-.66.83-.66,1.39,0,.77.57,1.39,1.72,1.87l1.58.65c1.29.52,2.23,1.15,2.82,1.9.59.75.89,1.67.89,2.75,0,1.46-.49,2.66-1.46,3.61-.98.96-2.19,1.44-3.64,1.44s-2.51-.41-3.4-1.22c-.88-.81-1.43-1.96-1.65-3.43l2.42-.53c.11.93.3,1.57.57,1.93.49.68,1.21,1.03,2.15,1.03.75,0,1.36-.25,1.86-.75.49-.5.74-1.13.74-1.9,0-.31-.04-.59-.13-.85-.08-.26-.22-.49-.4-.71-.18-.21-.42-.42-.7-.6-.29-.19-.63-.37-1.03-.54l-1.53-.63c-2.17-.92-3.25-2.26-3.25-4.02,0-1.19.45-2.18,1.36-2.98.91-.81,2.04-1.21,3.39-1.21,1.83,0,3.25.89,4.28,2.67Z"/><path class="cls-1" d="m98.77,110.93h-6.35v3.8h6.16v2.25h-6.16v5.29h6.35v2.25h-8.74v-15.83h8.74v2.25Z"/><path class="cls-1" d="m112.59,124.52v-15.83h1.03s10.52,11,10.52,11v-11h2.39v15.83h-.92s-10.62-11.08-10.62-11.08v11.08h-2.39Z"/><path class="cls-1" d="m141.16,110.93h-6.35v3.8h6.16v2.25h-6.16v5.29h6.35v2.25h-8.74v-15.83h8.74v2.25Z"/><path class="cls-1" d="m150.76,110.93v13.59h-2.39v-13.59h-3.64v-2.25h9.66v2.25h-3.63Z"/><path class="cls-1" d="m160.35,108.68l4.12,10.58,4.01-10.58h.57s3.84,10.58,3.84,10.58l4.38-10.58h2.59l-6.65,15.83h-.79s-3.71-10.21-3.71-10.21l-3.86,10.21h-.79s-6.32-15.83-6.32-15.83h2.59Z"/><path class="cls-1" d="m182.43,116.53c0-2.23.82-4.14,2.45-5.74,1.63-1.6,3.58-2.4,5.87-2.4s4.19.81,5.8,2.42c1.62,1.61,2.43,3.55,2.43,5.81s-.81,4.21-2.44,5.79c-1.63,1.59-3.61,2.39-5.92,2.39-2.04,0-3.88-.71-5.51-2.12-1.79-1.56-2.69-3.62-2.69-6.15Zm2.41.03c0,1.75.59,3.19,1.76,4.32,1.17,1.13,2.52,1.69,4.05,1.69,1.66,0,3.06-.57,4.2-1.72,1.14-1.16,1.71-2.58,1.71-4.25s-.56-3.1-1.69-4.25c-1.12-1.15-2.51-1.72-4.16-1.72s-3.04.57-4.17,1.72c-1.14,1.13-1.7,2.54-1.7,4.2Z"/><path class="cls-1" d="m209.45,117.77l4.9,6.75h-2.92l-4.52-6.48h-.43v6.48h-2.39v-15.83h2.8c2.09,0,3.6.39,4.53,1.18,1.03.88,1.54,2.03,1.54,3.46,0,1.12-.32,2.09-.96,2.89s-1.49,1.32-2.54,1.55Zm-2.97-1.82h.76c2.26,0,3.39-.86,3.39-2.59,0-1.62-1.1-2.43-3.3-2.43h-.85v5.02Z"/><path class="cls-1" d="m221.22,115l6.16-6.32h3.19l-7.16,7.17,7.2,8.66h-3.2l-5.7-7.04-.49.49v6.55h-2.39v-15.83h2.39v6.32Z"/><path class="cls-1" d="m237.23,108.68v15.83h-2.39v-15.83h2.39Z"/><path class="cls-1" d="m243.14,124.52v-15.83h1.03s10.52,11,10.52,11v-11h2.39v15.83h-.92s-10.62-11.08-10.62-11.08v11.08h-2.39Z"/><path class="cls-1" d="m271.27,116.27h6.54v.52c0,1.19-.14,2.24-.42,3.16-.27.85-.73,1.64-1.38,2.38-1.47,1.65-3.34,2.48-5.61,2.48s-4.11-.8-5.69-2.4c-1.58-1.61-2.37-3.53-2.37-5.78s.8-4.25,2.41-5.85c1.61-1.61,3.56-2.41,5.87-2.41,1.24,0,2.39.25,3.47.76,1.03.51,2.03,1.33,3.02,2.46l-1.7,1.63c-1.3-1.73-2.88-2.59-4.75-2.59-1.68,0-3.08.58-4.21,1.73-1.13,1.13-1.7,2.56-1.7,4.27s.63,3.22,1.9,4.36c1.18,1.06,2.46,1.59,3.84,1.59,1.18,0,2.23-.4,3.17-1.19.94-.8,1.46-1.76,1.57-2.87h-3.95v-2.25Z"/></svg>