<svg width="16" height="16" viewBox="0 0 16 16" fill="none" xmlns="http://www.w3.org/2000/svg">
<g clip-path="url(#clip0_2593_9194)">
<path d="M15.7844 14.3095L7.21236 6.50546L7.61136 6.10546C7.92601 5.78951 8.11447 5.36955 8.14136 4.92446C8.15717 4.9178 8.17254 4.91012 8.18736 4.90146L9.79636 3.89546C9.90144 3.76737 9.95583 3.60516 9.94919 3.43961C9.94256 3.27407 9.87536 3.11672 9.76036 2.99746L6.96136 0.191461C6.84253 0.0764047 6.68549 0.00913635 6.52023 0.0024961C6.35496 -0.00414414 6.19303 0.0503088 6.06536 0.155461L5.06136 1.76946L5.03936 1.81546C4.60936 1.84246 4.18736 2.01946 3.86136 2.34646L2.33936 3.87346C2.01236 4.20046 1.83636 4.62346 1.80936 5.05446C1.79354 5.06112 1.77817 5.0688 1.76336 5.07746L0.154357 6.08346C0.0492713 6.21155 -0.005117 6.37376 0.00151953 6.53931C0.00815607 6.70485 0.0753553 6.8622 0.190357 6.98146L2.98936 9.78746C3.10818 9.90252 3.26522 9.96978 3.43049 9.97643C3.59576 9.98307 3.75768 9.92861 3.88536 9.82346L4.88936 8.20946L4.91236 8.16346C5.34236 8.13646 5.76436 7.95946 6.09036 7.63246L6.53236 7.18946L14.3154 15.7855C14.5414 16.0345 14.8884 16.0745 15.0884 15.8745L15.8754 15.0855C16.0744 14.8855 16.0344 14.5365 15.7864 14.3105L15.7844 14.3095Z" fill="#7568D1"/>
</g>
<defs>
<clipPath id="clip0_2593_9194">
<rect width="16" height="16" fill="white"/>
</clipPath>
</defs>
</svg>
