<svg width="16" height="16" viewBox="0 0 16 16" fill="none" xmlns="http://www.w3.org/2000/svg">
<mask id="mask0_2593_9183" style="mask-type:luminance" maskUnits="userSpaceOnUse" x="0" y="1" width="16" height="14">
<path d="M7.99935 6.66667C8.30577 6.66667 8.60918 6.60631 8.89228 6.48905C9.17537 6.37179 9.43259 6.19992 9.64926 5.98325C9.86593 5.76658 10.0378 5.50935 10.1551 5.22626C10.2723 4.94317 10.3327 4.63975 10.3327 4.33333C10.3327 4.02692 10.2723 3.7235 10.1551 3.44041C10.0378 3.15731 9.86593 2.90009 9.64926 2.68342C9.43259 2.46675 9.17537 2.29488 8.89228 2.17761C8.60918 2.06035 8.30577 2 7.99935 2C7.38051 2 6.78702 2.24583 6.34943 2.68342C5.91185 3.121 5.66602 3.71449 5.66602 4.33333C5.66602 4.95217 5.91185 5.54566 6.34943 5.98325C6.78702 6.42083 7.38051 6.66667 7.99935 6.66667Z" fill="white" stroke="white" stroke-width="1.33333" stroke-linecap="round" stroke-linejoin="round"/>
<path d="M4 2.41797C3.69114 2.63276 3.43886 2.91913 3.26472 3.25261C3.09058 3.58608 2.99975 3.95676 3 4.33297C2.99979 4.73558 3.10381 5.13139 3.30195 5.48187C3.50009 5.83235 3.78559 6.12556 4.13067 6.33297M12 2.41797C12.3089 2.63276 12.5611 2.91913 12.7353 3.25261C12.9094 3.58608 13.0002 3.95676 13 4.33297C13.0002 4.70918 12.9094 5.07985 12.7353 5.41333C12.5611 5.74681 12.3089 6.03318 12 6.24797" stroke="white" stroke-width="1.33333" stroke-linecap="round" stroke-linejoin="round"/>
<path d="M4 13.334V14.0007H12V13.334C12 12.0917 12 11.4703 11.797 10.98C11.5263 10.3266 11.0071 9.80756 10.3537 9.53698C9.86367 9.33398 9.24233 9.33398 8 9.33398C6.75767 9.33398 6.13633 9.33398 5.64633 9.53698C5.32276 9.671 5.02875 9.86744 4.7811 10.1151C4.53345 10.3627 4.33701 10.6567 4.203 10.9803C4 11.47 4 12.0917 4 13.334Z" fill="white" stroke="white" stroke-width="1.33333" stroke-linecap="round" stroke-linejoin="round"/>
<path d="M14.6663 13.999V13.599C14.6663 12.1057 14.6663 11.359 14.3757 10.7884C14.12 10.2866 13.7121 9.87871 13.2103 9.62305M1.33301 13.999V13.599C1.33301 12.1057 1.33301 11.359 1.62367 10.7884C1.87933 10.2866 2.28726 9.87871 2.78901 9.62305" stroke="white" stroke-width="1.33333" stroke-linecap="round" stroke-linejoin="round"/>
</mask>
<g mask="url(#mask0_2593_9183)">
<path d="M0 0H16V16H0V0Z" fill="#7568D1"/>
</g>
</svg>
