<svg width="32" height="32" viewBox="0 0 32 32" fill="none" xmlns="http://www.w3.org/2000/svg">
<path d="M27.1291 18C27.2591 17.33 27.3291 16.67 27.3291 16C27.3291 15.33 27.2591 14.67 27.1291 14L29.3291 12.4C29.5991 12.2 29.7291 11.8 29.5291 11.47L26.6591 6.54001C26.4591 6.21001 26.1291 6.07001 25.7891 6.27001L23.3191 7.34001C22.3191 6.47001 21.1191 5.81001 19.8491 5.34001L19.5791 2.61001C19.5091 2.28001 19.2491 2.01001 18.9091 2.01001H13.1791C12.8491 2.01001 12.5091 2.28001 12.5091 2.61001L12.1091 5.34001C10.8391 5.81001 9.63907 6.47001 8.63907 7.34001L6.16907 6.21001C5.83907 6.08001 5.43907 6.21001 5.29907 6.54001L2.42907 11.47C2.22907 11.8 2.35907 12.2 2.62907 12.4L4.82907 14C4.69907 14.67 4.62907 15.33 4.62907 16C4.62907 16.67 4.69907 17.33 4.82907 18L2.62907 19.6C2.35907 19.8 2.22907 20.2 2.42907 20.53L5.29907 25.46C5.49907 25.79 5.82907 25.93 6.16907 25.73L8.63907 24.66C9.63907 25.53 10.8391 26.19 12.1091 26.66L12.3791 29.39C12.4491 29.72 12.7091 29.99 13.0491 29.99H18.7791C19.1091 29.99 19.4491 29.72 19.4491 29.39L19.7191 26.66C20.9891 26.19 22.1891 25.53 23.1891 24.66L25.6591 25.79C25.9891 25.92 26.3891 25.79 26.5291 25.52L29.3991 20.59C29.5991 20.26 29.4691 19.86 29.1991 19.66L27.1291 17.99V18ZM10.3591 20.7C9.29907 19.43 8.65907 17.79 8.65907 16C8.65907 13.21 10.1991 10.79 12.4891 9.55001L13.8591 13.44C13.1291 14.05 12.6591 14.95 12.6591 16C12.6591 16.58 12.8091 17.11 13.0591 17.58L10.3491 20.7H10.3591ZM15.9991 23.33C14.6891 23.33 13.4591 22.99 12.3991 22.39L15.1491 19.21C15.4191 19.28 15.6991 19.33 15.9991 19.33C17.1691 19.33 18.1791 18.75 18.7791 17.86L22.8491 18.63C21.7991 21.38 19.1391 23.33 16.0091 23.33H15.9991ZM14.6691 16C14.6691 15.27 15.2691 14.67 15.9991 14.67C16.7291 14.67 17.3291 15.27 17.3291 16C17.3291 16.73 16.7291 17.33 15.9991 17.33C15.2691 17.33 14.6691 16.73 14.6691 16ZM23.3291 16.1L19.2691 15.33C18.9891 13.93 17.8591 12.89 16.4291 12.71L15.0491 8.74001C15.3591 8.70001 15.6791 8.67001 16.0091 8.67001C20.0791 8.67001 23.3391 11.94 23.3391 16C23.3391 16.03 23.3391 16.06 23.3391 16.1H23.3291Z" fill="#5E608A"/>
</svg>
