<svg width="32" height="32" viewBox="0 0 32 32" fill="none" xmlns="http://www.w3.org/2000/svg">
<path d="M17.4901 15.34L9.53012 6.53996C9.27012 6.24996 8.89012 6.07996 8.50012 6.07996H3.49012C2.72012 6.07996 2.31012 6.98996 2.83012 7.56996L10.4501 15.99L2.83012 24.41C2.31012 24.98 2.72012 25.9 3.49012 25.9H8.50012C8.89012 25.9 9.27012 25.73 9.53012 25.44L17.4901 16.64C17.8301 16.27 17.8301 15.7 17.4901 15.33V15.34Z" fill="white"/>
<path d="M29.1503 15.34L21.1903 6.53996C20.9303 6.24996 20.5503 6.07996 20.1603 6.07996H15.1503C14.3803 6.07996 13.9703 6.98996 14.4903 7.56996L22.1103 15.99L14.4903 24.41C13.9703 24.98 14.3803 25.9 15.1503 25.9H20.1603C20.5503 25.9 20.9303 25.73 21.1903 25.44L29.1503 16.64C29.4903 16.27 29.4903 15.7 29.1503 15.33V15.34Z" fill="white"/>
</svg>
