<svg width="32" height="32" viewBox="0 0 32 32" fill="none" xmlns="http://www.w3.org/2000/svg">
<path d="M3.29961 20C2.90961 20 2.59961 20.31 2.59961 20.7C2.59961 21.09 2.90961 21.4 3.29961 21.4H6.22961C5.96961 20.95 5.72961 20.48 5.52961 20H3.29961Z" fill="white"/>
<path d="M28.6991 20H26.4891C26.2891 20.49 26.0491 20.95 25.7891 21.4H28.6991C29.0891 21.4 29.3991 21.09 29.3991 20.7C29.3991 20.31 29.0891 20 28.6991 20Z" fill="white"/>
<path d="M12.2607 17.2C12.3907 17.01 12.6207 16.89 12.8607 16.9C13.1007 16.9 13.3107 17.03 13.4407 17.23L15.9007 21.23L18.5307 15.17C18.6407 14.92 18.8807 14.76 19.1507 14.75C19.4207 14.75 19.6707 14.89 19.8007 15.14L22.2507 20H26.5107C27.0307 18.77 27.3407 17.42 27.3407 15.95C27.3407 15.95 27.3407 15.93 27.3407 15.92C27.3407 15.92 27.3407 15.92 27.3407 15.91C27.3407 12.56 24.6307 9.84998 21.2807 9.84998C19.0407 9.84998 17.0807 11.07 16.0307 12.88C14.9807 11.07 13.0207 9.84998 10.7807 9.84998C7.4307 9.84998 4.7207 12.56 4.7207 15.91C4.7207 15.91 4.7207 15.91 4.7207 15.92C4.7207 15.92 4.7207 15.94 4.7207 15.95C4.7207 17.42 5.0307 18.77 5.5407 20H10.3407L12.2807 17.2H12.2607Z" fill="white"/>
<path d="M21.1807 21.01L19.2107 17.1L16.6407 23.02C16.5407 23.26 16.3107 23.42 16.0507 23.44C16.0307 23.44 16.0207 23.44 16.0007 23.44C15.7607 23.44 15.5307 23.31 15.4007 23.11L12.8007 18.88L11.2707 21.1C11.1407 21.29 10.9207 21.4 10.6907 21.4H6.2207C9.3007 26.71 16.0107 29.41 16.0107 29.41C16.0107 29.41 22.7107 26.69 25.7907 21.4H21.8007C21.5407 21.4 21.2907 21.25 21.1707 21.01H21.1807Z" fill="white"/>
<path d="M16.0009 10.35C16.4372 10.35 16.7909 9.99632 16.7909 9.56002C16.7909 9.12371 16.4372 8.77002 16.0009 8.77002C15.5646 8.77002 15.2109 9.12371 15.2109 9.56002C15.2109 9.99632 15.5646 10.35 16.0009 10.35Z" fill="white"/>
<path d="M10.9506 5.77996C11.0806 5.89996 11.2506 5.95996 11.4206 5.95996C11.6106 5.95996 11.8006 5.87996 11.9406 5.72996C12.9306 4.62996 14.4206 3.98996 16.0206 3.98996C17.6206 3.98996 19.0906 4.61996 20.0906 5.70996C20.3506 5.99996 20.7906 6.01996 21.0806 5.75996C21.3706 5.49996 21.3906 5.05996 21.1306 4.76996C19.8706 3.37996 18.0106 2.57996 16.0306 2.57996C14.0506 2.57996 12.1706 3.37996 10.9106 4.77996C10.6506 5.06996 10.6706 5.50996 10.9606 5.76996L10.9506 5.77996Z" fill="white"/>
<path d="M17.8797 7.90997C18.1397 8.19997 18.5797 8.21997 18.8697 7.96997C19.1597 7.70997 19.1797 7.26997 18.9297 6.97997C18.2097 6.17997 17.1497 5.71997 16.0197 5.71997C14.8897 5.71997 13.8097 6.18997 13.0897 6.99997C12.8297 7.28997 12.8597 7.72997 13.1497 7.98997C13.2797 8.10997 13.4497 8.16997 13.6097 8.16997C13.7997 8.16997 13.9997 8.08997 14.1397 7.92997C14.5897 7.41997 15.2697 7.12997 16.0197 7.12997C16.7697 7.12997 17.4397 7.41997 17.8897 7.91997L17.8797 7.90997Z" fill="white"/>
</svg>
