<svg width="32" height="32" viewBox="0 0 32 32" fill="none" xmlns="http://www.w3.org/2000/svg">
<path d="M21.1891 10.84H10.7891V21.24H21.1891V10.84Z" fill="#5E608A"/>
<path d="M27.69 17.31C28.41 17.31 29 16.72 29 16C29 15.28 28.41 14.69 27.69 14.69H26.43V12.13H27.69C28.41 12.13 29 11.54 29 10.82C29 10.1 28.41 9.51001 27.69 9.51001H26.43V8.45001C26.43 6.88001 25.15 5.60001 23.58 5.60001H22.49V4.32001C22.49 3.60001 21.9 3.01001 21.18 3.01001C20.46 3.01001 19.87 3.60001 19.87 4.32001V5.60001H17.31V4.32001C17.31 3.60001 16.72 3.01001 16 3.01001C15.28 3.01001 14.69 3.60001 14.69 4.32001V5.60001H12.13V4.32001C12.13 3.60001 11.54 3.01001 10.82 3.01001C10.1 3.01001 9.51 3.60001 9.51 4.32001V5.60001H8.39C6.82 5.60001 5.54 6.88001 5.54 8.45001V9.51001H4.31C3.59 9.51001 3 10.1 3 10.82C3 11.54 3.59 12.13 4.31 12.13H5.54V14.69H4.31C3.59 14.69 3 15.28 3 16C3 16.72 3.59 17.31 4.31 17.31H5.54V19.87H4.31C3.59 19.87 3 20.46 3 21.18C3 21.9 3.59 22.49 4.31 22.49H5.54V23.63C5.54 25.2 6.82 26.48 8.39 26.48H9.51V27.68C9.51 28.4 10.1 28.99 10.82 28.99C11.54 28.99 12.13 28.4 12.13 27.68V26.48H14.69V27.68C14.69 28.4 15.28 28.99 16 28.99C16.72 28.99 17.31 28.4 17.31 27.68V26.48H19.87V27.68C19.87 28.4 20.46 28.99 21.18 28.99C21.9 28.99 22.49 28.4 22.49 27.68V26.48H23.58C25.15 26.48 26.43 25.2 26.43 23.63V22.49H27.69C28.41 22.49 29 21.9 29 21.18C29 20.46 28.41 19.87 27.69 19.87H26.43V17.31H27.69ZM23.78 23.83H8.2V8.25001H23.78V23.83Z" fill="#5E608A"/>
</svg>
