<svg width="88" height="38" viewBox="0 0 88 38" fill="none" xmlns="http://www.w3.org/2000/svg">
<g clip-path="url(#clip0_3268_4009)">
<path d="M27.5868 12L23.9043 26H27.1682L30.7798 12H27.5868Z" fill="white"/>
<path d="M15.9856 26H19.4487L15.2903 12H12.0938L0.546875 26H3.82769L6.21066 23.0123H15.1586L15.9856 26ZM8.2021 20.5141L12.86 14.6737L14.4701 20.5141H8.2021Z" fill="white"/>
<path d="M84.2141 26H87.6873L83.5188 12H80.3257L68.7754 26H72.0596L74.4223 23.0123H83.3736L84.2141 26ZM76.4306 20.5141L81.0886 14.6737L82.702 20.5141H76.4306Z" fill="white"/>
<path d="M57.7081 23.2418L60.6682 12H57.6102L53.9277 26H55.3724H56.9858H67.4121L68.1075 23.2418H57.7081Z" fill="white"/>
<path d="M49.8842 12H37.868L34.1855 26H37.2233L38.6882 20.5445H47.3257C50.4546 20.5445 51.0385 18.2184 51.0385 18.2184L52.0815 13.9783C52.419 12.0338 49.8842 12 49.8842 12ZM48.669 15.4401C48.5397 16.0271 48.3774 16.6064 48.183 17.1753C48.1039 17.4593 47.9296 17.7075 47.6894 17.8784C47.4491 18.0492 47.1575 18.1323 46.8632 18.1138H39.316L40.3286 14.326H47.8353C48.9796 14.326 48.669 15.4401 48.669 15.4401Z" fill="white"/>
</g>
<defs>
<clipPath id="clip0_3268_4009">
<rect width="87.1406" height="38" fill="white" transform="translate(0.546875)"/>
</clipPath>
</defs>
</svg>
