<svg width="55" height="50" viewBox="0 0 55 50" fill="none" xmlns="http://www.w3.org/2000/svg">
<g clip-path="url(#clip0_3268_3926)">
<path d="M10.0814 18.2754H0.349609V20.7184H10.0814V18.2754Z" fill="white"/>
<path d="M14.9479 20.7207H10.082V23.1557H14.9479V20.7207Z" fill="white"/>
<path d="M10.0821 13.4473H7.73242V15.7969H10.0821V13.4473Z" fill="white"/>
<path d="M29.8091 6.00195C26.984 6.00062 24.245 6.97494 22.055 8.76026C19.865 10.5456 18.3584 13.0324 17.7897 15.8005H20.3439V13.4482H23.8447C24.8409 12.2167 26.1936 11.3237 27.7173 10.8916C29.241 10.4596 30.861 10.5098 32.3551 11.0352C33.8492 11.5606 35.1441 12.5356 36.0623 13.8264C36.9804 15.1172 37.4768 16.6605 37.4834 18.2447C37.4899 19.8289 37.0062 21.3763 36.0988 22.6746C35.1913 23.9729 33.9044 24.9585 32.4147 25.4963C30.925 26.034 29.3055 26.0975 27.7783 25.6781C26.2511 25.2586 24.891 24.3768 23.8847 23.1535H20.3439V20.7212H22.5356C21.9952 19.1255 21.9952 17.3962 22.5356 15.8005H20.3439V18.2702H17.5391C17.5391 20.6966 18.2584 23.0686 19.606 25.0861C20.9537 27.1036 22.8692 28.676 25.1103 29.6046C27.3514 30.5331 29.8174 30.7761 32.1965 30.3027C34.5756 29.8293 36.761 28.6609 38.4762 26.9451C40.1915 25.2294 41.3596 23.0434 41.8328 20.6636C42.306 18.2838 42.0632 15.8171 41.1349 13.5753C40.2066 11.3336 38.6346 9.41758 36.6177 8.06952C34.6008 6.72147 32.2295 6.00195 29.8038 6.00195H29.8091Z" fill="white"/>
<path d="M12.5156 15.8003V18.2699H17.5388C17.5392 17.4386 17.6232 16.6094 17.7895 15.7949L12.5156 15.8003Z" fill="white"/>
<path d="M27.2108 15.7996V13.4473H23.8434C23.2747 14.1482 22.835 14.9447 22.5449 15.7996H27.2108Z" fill="white"/>
<path d="M29.8087 20.7207H22.5352C22.8325 21.6071 23.2898 22.4315 23.8843 23.153H29.8087V20.7207Z" fill="white"/>
<path d="M32.1888 15.8008H27.2109V18.2758H32.1888V15.8008Z" fill="white"/>
<path d="M49.4329 15.8008H44.5137V18.2758H49.4329V15.8008Z" fill="white"/>
<path d="M54.2516 18.2754H51.918V20.609H54.2516V18.2754Z" fill="white"/>
<path d="M7.33216 43.9983H10.7689L7.43615 35.5332H3.46611L0 43.9983H3.57543L3.89005 42.9315H6.99355L7.33216 43.9983ZM4.40996 41.2059L5.38581 37.9282L6.43364 41.2059H4.40996Z" fill="white"/>
<path d="M18.7049 35.5332H15.3711V43.9983H18.7049V35.5332Z" fill="white"/>
<path d="M54.2517 35.5332H50.918V43.9983H54.2517V35.5332Z" fill="white"/>
<path d="M28.7958 35.5329H24.5059V43.998H27.7053V41.4723H28.7958C28.7958 41.4723 33.0005 42.0804 33.0005 38.6666C33.0005 35.2529 28.7958 35.5329 28.7958 35.5329ZM28.6092 39.7388H27.7293V37.4105H28.5292C28.5292 37.4105 29.9583 37.3038 29.9583 38.512C29.9583 39.7201 28.6199 39.7388 28.6199 39.7388H28.6092Z" fill="white"/>
<path d="M42.0116 35.5329H37.7109V43.998H40.9238V41.4723H42.0116C42.0116 41.4723 46.2162 42.0804 46.2162 38.6666C46.2162 35.2529 42.0116 35.5329 42.0116 35.5329ZM41.8249 39.7388H40.9238V37.4105H41.745C41.745 37.4105 43.1741 37.3038 43.1741 38.512C43.1741 39.7201 41.8249 39.7388 41.8249 39.7388Z" fill="white"/>
</g>
<defs>
<clipPath id="clip0_3268_3926">
<rect width="54.25" height="50" fill="white"/>
</clipPath>
</defs>
</svg>
