<svg width="36" height="50" viewBox="0 0 36 50" fill="none" xmlns="http://www.w3.org/2000/svg">
<g clip-path="url(#clip0_3268_3943)">
<path d="M23.2836 43.9984H24.9373C27.7807 43.9867 30.5042 42.8519 32.5148 40.8413C34.5254 38.8307 35.6601 36.1072 35.6719 33.2638V21.6721C35.6601 17.5192 34.0052 13.5398 31.0686 10.6033C28.1321 7.66674 24.1527 6.01179 19.9998 6L15.9221 6C11.7692 6.01179 7.78981 7.66674 4.85327 10.6033C1.91674 13.5398 0.261793 17.5192 0.25 21.6721V33.2638C0.261765 36.1072 1.39651 38.8307 3.4071 40.8413C5.41769 42.8519 8.14125 43.9867 10.9846 43.9984H12.7593V42.2133C10.8594 42.1106 9.07065 41.2852 7.75965 39.9063C6.44865 38.5273 5.71464 36.6992 5.70802 34.7966V23.5545C5.71703 20.6819 6.86234 17.9296 8.89381 15.8987C10.9253 13.8677 13.6779 12.723 16.5504 12.7147H19.3715C22.2454 12.721 25 13.8647 27.0332 15.8959C29.0664 17.9271 30.2127 20.6806 30.2218 23.5545V34.7966C30.2157 36.6784 29.4978 38.4883 28.2123 39.8626C26.9267 41.2369 25.1687 42.0739 23.2915 42.2054L23.2836 43.9984Z" fill="white"/>
<path d="M17.9603 32.8641C21.827 32.8641 24.9616 28.9114 24.9616 24.0356C24.9616 19.1597 21.827 15.207 17.9603 15.207C14.0936 15.207 10.959 19.1597 10.959 24.0356C10.959 28.9114 14.0936 32.8641 17.9603 32.8641Z" fill="white"/>
<path d="M11.1958 38.4262L10.67 40.0247H9.97852L11.7032 34.9453H12.4919L14.2271 40.0247H13.5383L12.9967 38.4262H11.1958ZM12.86 37.9004L12.3631 36.4386C12.2501 36.1074 12.1738 35.805 12.1002 35.5106H12.0818C12.0056 35.8129 11.9241 36.1232 11.8189 36.4308L11.322 37.9004H12.86Z" fill="white"/>
<path d="M14.7656 35.0039C15.1817 34.9344 15.6031 34.9009 16.025 34.904C16.5356 34.8669 17.0423 35.0174 17.4499 35.3272C17.5954 35.4602 17.7104 35.6229 17.7871 35.8045C17.8638 35.986 17.9004 36.1819 17.8943 36.3789C17.904 36.5768 17.8744 36.7746 17.8071 36.961C17.7399 37.1474 17.6364 37.3186 17.5025 37.4647C17.2945 37.6576 17.0496 37.8064 16.7826 37.9022C16.5156 37.998 16.2319 38.0388 15.9487 38.0221C15.7723 38.0274 15.5959 38.0124 15.4229 37.9774V40.0123H14.7656V35.0039ZM15.4229 37.4516C15.6004 37.4925 15.7824 37.5101 15.9645 37.5041C16.7532 37.5041 17.237 37.1203 17.237 36.4209C17.237 35.7216 16.7637 35.4245 16.0407 35.4245C15.8335 35.4194 15.6263 35.437 15.4229 35.4771V37.4516Z" fill="white"/>
<path d="M18.7458 38.4262L18.22 40.0247H17.5391L19.2638 34.9453H20.0525L21.7877 40.0247H21.0884L20.5468 38.4262H18.7458ZM20.41 37.9004L19.9131 36.4386C19.8001 36.1074 19.7238 35.805 19.6502 35.5106H19.6345C19.5582 35.8129 19.4767 36.1232 19.3715 36.4308L18.8746 37.9004H20.41Z" fill="white"/>
<path d="M23.1384 38.4262L22.6126 40.0247H21.9316L23.6484 34.9453H24.4372L26.1698 40.0247H25.4888L24.9472 38.4262H23.1384ZM24.8026 37.9004L24.3057 36.4386C24.1927 36.1074 24.1164 35.805 24.0428 35.5106H24.027C23.9508 35.8129 23.8693 36.1232 23.7641 36.4308L23.2646 37.9004H24.8026Z" fill="white"/>
</g>
<defs>
<clipPath id="clip0_3268_3943">
<rect width="35.4219" height="50" fill="white" transform="translate(0.25)"/>
</clipPath>
</defs>
</svg>
