<svg width="47" height="38" viewBox="0 0 47 38" fill="none" xmlns="http://www.w3.org/2000/svg">
<g clip-path="url(#clip0_3268_4003)">
<path d="M1.14714 12C0.938215 12 0.737843 12.083 0.590107 12.2307C0.442372 12.3785 0.359375 12.5788 0.359375 12.7878L0.359375 25.2116C0.359375 25.4205 0.442372 25.6209 0.590107 25.7686C0.737843 25.9164 0.938215 25.9994 1.14714 25.9994C1.35607 25.9994 1.55645 25.9164 1.70418 25.7686C1.85192 25.6209 1.93491 25.4205 1.93491 25.2116V12.7878C1.93491 12.5788 1.85192 12.3785 1.70418 12.2307C1.55645 12.083 1.35607 12 1.14714 12V12Z" fill="white"/>
<path d="M14.237 12H9.92449C9.71556 12 9.51519 12.083 9.36745 12.2307C9.21972 12.3785 9.13672 12.5788 9.13672 12.7878V25.2116C9.13672 25.4205 9.21972 25.6209 9.36745 25.7686C9.51519 25.9164 9.71556 25.9994 9.92449 25.9994C10.1334 25.9994 10.3338 25.9164 10.4815 25.7686C10.6293 25.6209 10.7123 25.4205 10.7123 25.2116V13.5755H14.1606C14.7483 13.641 15.3191 13.8137 15.8444 14.0851C16.8637 14.6287 17.3584 15.4632 17.3584 16.6332C17.3584 16.9581 17.2735 19.7991 14.3475 19.7991C14.1385 19.7991 13.9382 19.8821 13.7904 20.0299C13.6427 20.1776 13.5597 20.378 13.5597 20.5869C13.5597 20.7958 13.6427 20.9962 13.7904 21.1439C13.9382 21.2917 14.1385 21.3747 14.3475 21.3747C15.9336 21.3747 18.9339 20.3831 18.9339 16.6332C18.9276 13.2124 15.8593 12.1062 14.237 12Z" fill="white"/>
<path d="M31.0245 12H22.9557C22.8523 12 22.7498 12.0204 22.6543 12.06C22.5587 12.0996 22.4719 12.1576 22.3987 12.2307C22.3255 12.3039 22.2675 12.3907 22.2279 12.4863C22.1883 12.5819 22.168 12.6843 22.168 12.7878C22.168 12.8912 22.1883 12.9937 22.2279 13.0892C22.2675 13.1848 22.3255 13.2717 22.3987 13.3448C22.4719 13.418 22.5587 13.476 22.6543 13.5156C22.7498 13.5552 22.8523 13.5755 22.9557 13.5755H26.1981V25.2116C26.1981 25.4205 26.2811 25.6209 26.4289 25.7686C26.5766 25.9164 26.777 25.9994 26.9859 25.9994C27.1948 25.9994 27.3952 25.9164 27.5429 25.7686C27.6907 25.6209 27.7737 25.4205 27.7737 25.2116V13.5755H31.016C31.1195 13.5755 31.2219 13.5552 31.3175 13.5156C31.4131 13.476 31.4999 13.418 31.5731 13.3448C31.6462 13.2717 31.7043 13.1848 31.7438 13.0892C31.7834 12.9937 31.8038 12.8912 31.8038 12.7878C31.8038 12.6843 31.7834 12.5819 31.7438 12.4863C31.7043 12.3907 31.6462 12.3039 31.5731 12.2307C31.4999 12.1576 31.4131 12.0996 31.3175 12.06C31.2219 12.0204 31.1195 12 31.016 12H31.0245Z" fill="white"/>
<path d="M46.466 24.8655L40.4101 12.4417C40.3455 12.3101 40.2455 12.1991 40.1214 12.1211C39.9973 12.0431 39.8539 12.0011 39.7073 12C39.5627 12.0007 39.421 12.0406 39.2973 12.1154C39.1735 12.1901 39.0723 12.297 39.0045 12.4247L32.7405 24.8485C32.6465 25.0352 32.6304 25.2516 32.6959 25.4501C32.7615 25.6486 32.9031 25.813 33.0898 25.907C33.2765 26.001 33.4929 26.0171 33.6914 25.9516C33.8899 25.8861 34.0543 25.7444 34.1483 25.5577L39.6967 14.5523L45.0561 25.5492C45.1216 25.6815 45.2226 25.7928 45.3479 25.8708C45.4732 25.9489 45.6177 25.9904 45.7653 25.9909C45.8989 25.9908 46.0303 25.9567 46.1472 25.8918C46.264 25.8269 46.3624 25.7333 46.4331 25.6199C46.5038 25.5065 46.5446 25.377 46.5514 25.2435C46.5583 25.1101 46.5311 24.977 46.4723 24.857L46.466 24.8655Z" fill="white"/>
</g>
<defs>
<clipPath id="clip0_3268_4003">
<rect width="46.1875" height="38" fill="white" transform="translate(0.359375)"/>
</clipPath>
</defs>
</svg>
