<svg width="98" height="50" viewBox="0 0 98 50" fill="none" xmlns="http://www.w3.org/2000/svg">
<g clip-path="url(#clip0_3268_3951)">
<path d="M19.4655 43.9989C19.0325 43.8968 18.5889 43.9038 18.1488 43.844C16.7438 43.6484 15.3678 43.2831 14.0508 42.7561H14.3183C16.8145 42.7561 19.3141 42.7561 21.8103 42.7561C21.906 42.7704 22.0038 42.7551 22.0906 42.7124C22.1775 42.6696 22.2492 42.6013 22.2961 42.5167C22.3384 42.4392 22.4123 42.3758 22.4581 42.3019C22.5062 42.2126 22.5808 42.1404 22.6715 42.095C22.7622 42.0496 22.8647 42.0334 22.9651 42.0484C24.9789 42.0484 26.9927 42.0484 29.0065 42.0484H29.267C28.7275 42.3591 28.1578 42.6139 27.5665 42.8089C25.8165 43.4444 23.9851 43.8284 22.1271 43.9496C22.0849 43.9496 22.0356 43.9496 22.011 43.9918L19.4655 43.9989Z" fill="white"/>
<path d="M97.3585 24.8641C97.0874 24.8641 96.8198 24.8641 96.5523 24.8641C96.3938 24.8641 96.334 24.8219 96.334 24.6529C96.334 22.7494 96.334 20.8447 96.334 18.9389C96.334 18.7699 96.3938 18.7241 96.5523 18.7312C96.8198 18.7312 97.0874 18.7312 97.3585 18.7312V24.8641Z" fill="white"/>
<path d="M33.3892 43.9994C33.2208 43.927 33.0563 43.8459 32.8963 43.7565C32.5743 43.5639 32.3269 43.2683 32.194 42.9175C32.061 42.5667 32.0505 42.1812 32.164 41.8237C32.2913 41.4525 32.5413 41.1358 32.8729 40.9258C33.2044 40.7159 33.5977 40.6253 33.9877 40.6689C34.3566 40.7141 34.7002 40.8801 34.9649 41.1412C35.2295 41.4022 35.4003 41.7435 35.4506 42.1118C35.5008 42.4801 35.4277 42.8546 35.2427 43.177C35.0577 43.4994 34.7711 43.7514 34.4277 43.8938C34.3468 43.9255 34.2482 43.9149 34.1954 43.9994H33.3892ZM33.7764 43.7389C33.9611 43.7435 34.1448 43.7099 34.316 43.6403C34.4872 43.5708 34.6422 43.4667 34.7714 43.3345C34.9005 43.2024 35.0011 43.0451 35.0667 42.8723C35.1324 42.6996 35.1618 42.5152 35.153 42.3307C35.1624 42.1461 35.1342 41.9616 35.07 41.7884C35.0059 41.6151 34.9071 41.4567 34.7799 41.3228C34.6526 41.1889 34.4994 41.0822 34.3296 41.0094C34.1598 40.9365 33.977 40.8989 33.7923 40.8989C33.6075 40.8989 33.4247 40.9365 33.2549 41.0094C33.0851 41.0822 32.9319 41.1889 32.8047 41.3228C32.6774 41.4567 32.5787 41.6151 32.5145 41.7884C32.4504 41.9616 32.4221 42.1461 32.4315 42.3307C32.423 42.5116 32.4511 42.6925 32.5142 42.8623C32.5773 43.0322 32.674 43.1875 32.7987 43.3191C32.9233 43.4506 33.0732 43.5556 33.2394 43.6277C33.4056 43.6999 33.5847 43.7377 33.7659 43.7389H33.7764Z" fill="white"/>
<path d="M14.4659 25.8969C14.5997 25.1927 14.7229 24.5907 14.8426 23.9781C15.1665 22.3023 15.4893 20.6264 15.8108 18.9506C15.8425 18.7957 15.8847 18.7218 16.0678 18.7253C16.9726 18.7253 17.8774 18.7253 18.7787 18.7253C18.997 18.7253 19.0111 18.8028 18.9759 18.9788C18.5065 21.4432 18.037 23.9077 17.5676 26.3721C17.2719 27.9177 16.9726 29.4633 16.6875 31.0088C16.6522 31.2095 16.5818 31.2694 16.3776 31.2694C15.494 31.2694 14.6173 31.2694 13.7195 31.2694C13.6398 31.2785 13.5593 31.2601 13.4914 31.2172C13.4235 31.1743 13.3723 31.1095 13.3464 31.0335C12.3324 28.7239 11.3126 26.4179 10.2869 24.1154C10.2482 24.0274 10.2024 23.9394 10.132 23.788C10.0334 24.2809 9.94542 24.7069 9.86444 25.1329C9.48421 27.1068 9.10515 29.0819 8.72727 31.0581C8.69559 31.2236 8.63221 31.2764 8.46322 31.2729C7.55138 31.2729 6.63601 31.2729 5.72416 31.2729C5.55517 31.2729 5.4918 31.2729 5.53052 31.0511C6.30741 27.0258 7.08196 22.997 7.85415 18.9647C7.88936 18.7781 7.95625 18.7218 8.14636 18.7253C9.04413 18.7253 9.93837 18.7253 10.8361 18.7253C10.9116 18.7206 10.9866 18.7403 11.05 18.7815C11.1134 18.8227 11.1619 18.8832 11.1882 18.9541C12.2327 21.198 13.2889 23.4394 14.3568 25.6786L14.4659 25.8969Z" fill="white"/>
<path d="M26.9531 31.2677C27.3686 30.4791 27.7523 29.7432 28.1361 29.0074C29.8987 25.6558 31.6591 22.3006 33.417 18.9419C33.4451 18.873 33.4943 18.8147 33.5576 18.7755C33.6208 18.7363 33.6949 18.7181 33.7691 18.7236C34.7549 18.7236 35.7407 18.7236 36.7264 18.7236C36.9166 18.7236 36.987 18.7729 37.0222 18.963C37.7099 22.7066 38.4011 26.4503 39.0958 30.1939C39.1486 30.4755 39.1874 30.7607 39.2543 31.0388C39.293 31.2043 39.2543 31.2571 39.0817 31.2536C38.1429 31.2536 37.2041 31.2536 36.2652 31.2536C36.0892 31.2536 36.0329 31.1867 36.0047 31.0318C35.8991 30.472 35.7829 29.9122 35.6843 29.3489C35.6597 29.2046 35.6069 29.1553 35.459 29.1588H31.5053C31.4492 29.1531 31.3927 29.1662 31.3449 29.1962C31.297 29.2262 31.2606 29.2712 31.2413 29.3243C30.9385 29.9122 30.6287 30.4967 30.3189 31.0846C30.2766 31.1691 30.252 31.2712 30.1182 31.2712L26.9531 31.2677ZM34.5401 23.0646L32.4946 26.9126C33.3501 26.9126 34.1564 26.9126 34.9591 26.9126C35.2231 26.9126 35.2583 26.8387 35.2126 26.6063C34.9837 25.4551 34.7725 24.3074 34.5401 23.0646Z" fill="white"/>
<path d="M25.4611 18.7291C27.1721 18.7291 28.8832 18.7291 30.5942 18.7291C30.8195 18.7291 30.8794 18.7573 30.823 19.0073C30.6576 19.7642 30.5167 20.5317 30.3794 21.2957C30.3477 21.4858 30.2668 21.5351 30.0802 21.5316C29.0486 21.5316 28.0206 21.5316 26.989 21.5316C26.8201 21.5316 26.7461 21.5703 26.7109 21.7569C26.1312 24.8527 25.5444 27.945 24.9506 31.0338C24.9154 31.2098 24.8661 31.2873 24.6654 31.2873C23.7606 31.2873 22.8558 31.2873 21.951 31.2873C21.7644 31.2873 21.7116 31.2626 21.7538 31.0514C22.3547 27.965 22.9556 24.8879 23.5564 21.8203C23.6022 21.5949 23.574 21.514 23.3135 21.5175C22.1482 21.5175 20.9828 21.5175 19.8175 21.5175C19.6168 21.5175 19.5499 21.4752 19.5922 21.264C19.7506 20.493 19.9055 19.7219 20.0428 18.9474C20.078 18.7538 20.159 18.7115 20.3421 18.715C22.039 18.7326 23.7501 18.7291 25.4611 18.7291Z" fill="white"/>
<path d="M38.4451 32.9906C38.1125 33.7138 37.7253 34.4106 37.2868 35.0749C37.2657 35.114 37.2332 35.1458 37.1935 35.1659C37.1539 35.186 37.109 35.1936 37.065 35.1875C37.0028 35.184 36.9405 35.184 36.8784 35.1875C26.1662 35.1875 15.4529 35.1875 4.73842 35.1875C4.61872 35.1875 4.46733 35.2509 4.38636 35.1418C4.254 34.9675 4.13625 34.7826 4.03429 34.589C3.99909 34.5256 4.05542 34.4975 4.11879 34.4975H14.4554C14.7758 34.4975 14.7758 34.4975 14.6737 34.1982C14.4836 33.6384 14.4836 33.6384 15.0856 33.6384C18.9466 33.6384 22.8076 33.6384 26.6685 33.6384C26.9115 33.6384 27.0206 33.5716 27.0558 33.3286C27.091 33.0857 27.2248 32.9766 27.5029 32.9766C31.1128 32.9766 34.7226 32.9766 38.3324 32.9766L38.4451 32.9906Z" fill="white"/>
<path d="M4.01953 15.4683C4.15332 15.2536 4.26246 15.0916 4.3716 14.9191C4.3901 14.8792 4.421 14.8463 4.4597 14.8254C4.49839 14.8044 4.54282 14.7966 4.58636 14.8029C4.63916 14.8029 4.6955 14.8029 4.7483 14.8029C15.4863 14.8029 26.2254 14.8029 36.9657 14.8029C37.0654 14.7949 37.1653 14.8163 37.2529 14.8645C37.3405 14.9126 37.4121 14.9855 37.4586 15.074C37.8464 15.7006 38.199 16.3482 38.5148 17.0139H38.1944C34.6315 17.0139 31.0675 17.0139 27.5022 17.0139C27.2558 17.0139 27.1255 16.9435 27.1114 16.7076C27.0903 16.3555 26.9037 16.3168 26.601 16.3203C22.686 16.3203 18.771 16.3203 14.8561 16.3203H14.504L14.7857 15.4613L4.01953 15.4683Z" fill="white"/>
<path d="M15.6869 13.2981L16.0883 12.3968H6.23047L6.87475 11.7772C6.97333 11.6821 7.09655 11.7173 7.20921 11.7173H17.8099C23.3443 11.7173 28.88 11.7173 34.4168 11.7173C34.5169 11.7133 34.6168 11.7306 34.7097 11.7683C34.8026 11.8059 34.8863 11.863 34.9554 11.9356C35.5283 12.5159 36.0567 13.1384 36.5362 13.798C36.5644 13.8403 36.6172 13.8719 36.596 13.9424C36.5138 13.9723 36.4251 13.9795 36.339 13.9635C33.0261 13.9635 29.7132 13.9635 26.4003 13.9635C26.182 13.9635 26.0482 13.9072 26.013 13.6994C25.939 13.3685 25.7348 13.2875 25.3969 13.2875C22.2705 13.3051 19.1442 13.2875 16.0214 13.2875L15.6869 13.2981Z" fill="white"/>
<path d="M6.30469 37.612C6.39853 37.5659 6.50504 37.5522 6.60746 37.5732C9.65869 37.5732 12.7099 37.5732 15.7611 37.5732C16.0921 37.5732 16.0921 37.5732 15.9548 37.281C15.6802 36.6966 15.6802 36.6966 16.328 36.6966C19.4027 36.6966 22.475 36.6966 25.545 36.6966C25.7703 36.6966 25.8971 36.6367 25.9429 36.4149C25.9992 36.0946 26.1893 36.0206 26.5062 36.0206C29.7592 36.0206 33.0088 36.0206 36.2619 36.0206C36.3804 35.9977 36.5032 36.0112 36.6139 36.0594C36.1915 36.6332 35.7443 37.1754 35.2866 37.7105C35.1304 37.8986 34.9309 38.0461 34.7054 38.1405C34.4798 38.235 34.2347 38.2734 33.991 38.2527C25.1167 38.2363 16.24 38.2363 7.36088 38.2527C7.22794 38.2688 7.0931 38.25 6.96963 38.1982C6.84616 38.1463 6.73833 38.0632 6.65675 37.957C6.53001 37.8408 6.41031 37.7352 6.30469 37.612Z" fill="white"/>
<path d="M2.24186 31.2681C1.79474 31.2681 1.34409 31.2681 0.896972 31.2681C0.706857 31.2681 0.639964 31.2681 0.685733 31.0216C1.45323 27.0316 2.21369 23.0415 2.96711 19.0514C3.01288 18.812 3.08329 18.6994 3.35438 18.724C4.22046 18.7452 5.09006 18.724 5.95966 18.724C6.15682 18.724 6.22723 18.7592 6.18498 18.974C5.71556 21.4384 5.24614 23.9029 4.77672 26.3674C4.48099 27.9094 4.18173 29.455 3.89656 31.0005C3.85783 31.2188 3.77334 31.2751 3.56562 31.2681C3.1361 31.2575 2.67842 31.2681 2.24186 31.2681Z" fill="white"/>
<path d="M17.3038 10.2249L17.8319 9.34121H9.94922C10.4245 9.05252 10.7836 8.63709 11.4314 8.63709C17.7686 8.66173 24.1057 8.63709 30.4429 8.63709C30.6304 8.63189 30.8154 8.68209 30.9745 8.78143C31.9034 9.35649 32.7905 9.9965 33.6291 10.6967C33.6947 10.7407 33.7423 10.807 33.7629 10.8833H33.5094C30.6436 10.8833 27.7778 10.8833 24.912 10.8833C24.6796 10.8833 24.5317 10.8234 24.4578 10.6122C24.3451 10.2847 24.1057 10.2073 23.7783 10.2108C21.7434 10.2249 19.6838 10.2249 17.6383 10.2249H17.3038Z" fill="white"/>
<path d="M33.8088 39.0938C32.8719 39.8973 31.8698 40.6216 30.8127 41.2589C30.7592 41.2928 30.6964 41.3088 30.6332 41.3047H30.5276L11.0514 41.3223C10.9714 41.3298 10.8911 41.3113 10.8225 41.2695L9.82617 40.6604H17.8251C17.6667 40.4175 17.5399 40.2274 17.4202 40.0338C17.3815 39.9704 17.2864 39.9105 17.3287 39.8296C17.3709 39.7486 17.473 39.7873 17.5469 39.7873H20.0114C21.3 39.7873 22.592 39.7873 23.8841 39.7873C23.9802 39.8043 24.0792 39.7862 24.1631 39.7365C24.2471 39.6868 24.3105 39.6086 24.3418 39.5162C24.465 39.1642 24.6939 39.0938 25.0459 39.0938C27.8413 39.0938 30.6332 39.0938 33.4286 39.0938H33.8088Z" fill="white"/>
<path d="M29.3057 7.93061H25.3591C24.75 7.93061 24.1374 7.89188 23.5319 7.93061C22.9263 7.96934 22.4757 7.88836 22.2081 7.3145C22.1623 7.21592 22.0673 7.19831 21.9581 7.19831H14.0684C14.7725 6.62445 19.1522 5.90272 21.7504 6.00129C24.3718 6.10723 26.9455 6.73689 29.3198 7.85315L29.3057 7.93061Z" fill="white"/>
<path d="M68.4057 29.1915C68.5513 28.9533 68.7598 28.7599 69.0082 28.6326C69.2567 28.5052 69.5355 28.4489 69.8139 28.4698C70.0303 28.4561 70.2463 28.5012 70.4391 28.6004C70.6319 28.6996 70.7942 28.8491 70.9088 29.0331C71.0004 29.1915 71.0461 29.1247 71.1306 29.0331C71.3907 28.7445 71.7388 28.5501 72.1209 28.48C72.503 28.41 72.8975 28.4683 73.243 28.6458C73.4394 28.7403 73.6031 28.8913 73.7129 29.0796C73.8227 29.2678 73.8736 29.4846 73.8591 29.702C73.8803 30.7582 73.8591 31.8144 73.8591 32.846C73.8591 32.9974 73.8028 33.0396 73.6549 33.0467C72.8874 33.0748 72.891 33.0783 72.8874 32.3108C72.8874 31.6454 72.8874 30.9836 72.8874 30.3217C72.8845 30.1257 72.8657 29.9302 72.8311 29.7372C72.8158 29.629 72.7672 29.5283 72.6922 29.4488C72.6171 29.3694 72.5193 29.3151 72.4121 29.2936C71.708 29.1739 71.2081 29.3887 71.1764 30.2231C71.1447 31.0575 71.1764 31.906 71.1764 32.7474C71.1764 32.9798 71.1236 33.0537 70.8807 33.0467C70.2012 33.0467 70.2012 33.0467 70.2012 32.3425C70.2012 31.7546 70.2012 31.1631 70.2012 30.5822C70.1964 30.3468 70.18 30.1118 70.1519 29.8781C70.1306 29.7449 70.0731 29.6202 69.9855 29.5177C69.8979 29.4152 69.7837 29.3389 69.6555 29.2972C69.4732 29.2526 69.2818 29.2621 69.1048 29.3246C68.9278 29.3872 68.773 29.5 68.6591 29.6492C68.5115 29.8755 68.432 30.1395 68.4303 30.4097C68.4303 31.2054 68.4303 32.001 68.4303 32.8002C68.4303 32.9833 68.381 33.0467 68.1909 33.0467C67.4551 33.0467 67.4551 33.0467 67.4551 32.3425C67.4551 31.1948 67.4551 30.0506 67.4551 28.9029C67.4551 28.6881 67.5184 28.6071 67.7297 28.6353C67.7742 28.6389 67.819 28.6389 67.8635 28.6353C68.3634 28.6212 68.3634 28.6212 68.4057 29.1915Z" fill="white"/>
<path d="M45.2223 35.0781C45.8032 35.0781 45.7926 35.0781 46.0003 35.6238C46.6646 37.3583 47.3335 39.0916 48.0071 40.8238C48.0353 40.8977 48.0634 40.9752 48.0951 41.0491C48.1268 41.123 48.0951 41.204 47.993 41.204H47.1058C46.9756 41.204 46.9509 41.1125 46.9192 41.0174C46.7819 40.6196 46.6341 40.2253 46.5073 39.8239C46.4927 39.7497 46.4503 39.684 46.3888 39.6401C46.3272 39.5962 46.2512 39.5776 46.1764 39.588C45.5251 39.588 44.8702 39.588 44.2154 39.588C44.1459 39.5779 44.0752 39.5954 44.0186 39.6369C43.9619 39.6784 43.9239 39.7405 43.9126 39.8098C43.7859 40.2112 43.631 40.602 43.5007 40.9998C43.496 41.0322 43.4848 41.0634 43.4678 41.0914C43.4508 41.1194 43.4283 41.1437 43.4017 41.1627C43.375 41.1818 43.3448 41.1953 43.3128 41.2024C43.2808 41.2095 43.2477 41.21 43.2155 41.204C42.9832 41.204 42.7473 41.204 42.5114 41.204C42.3635 41.204 42.3001 41.204 42.3706 41.0139C42.8869 39.6737 43.3998 38.33 43.9091 36.9827C44.1133 36.4476 44.3316 35.9265 44.5146 35.3773C44.5223 35.3253 44.5409 35.2756 44.5691 35.2313C44.5973 35.187 44.6346 35.1491 44.6785 35.1202C44.7223 35.0913 44.7718 35.0719 44.8237 35.0635C44.8755 35.055 44.9286 35.0576 44.9794 35.071C45.06 35.0806 45.1413 35.083 45.2223 35.0781ZM45.1906 36.1589C44.8913 37.0356 44.6167 37.8453 44.3386 38.6515C44.2823 38.8135 44.4055 38.7818 44.4865 38.7818C44.9336 38.7818 45.3807 38.7818 45.8243 38.7818C46.0496 38.7818 46.1165 38.7325 46.032 38.5037C45.8349 37.9685 45.6588 37.4263 45.4723 36.8877C45.3842 36.6694 45.3033 36.4511 45.1906 36.1589Z" fill="white"/>
<path d="M59.6751 32.5279C59.3057 32.9116 58.7994 33.1333 58.2669 33.1445C57.7344 33.1557 57.2192 32.9555 56.8339 32.5878C56.4804 32.1786 56.2735 31.6632 56.246 31.1232C56.1782 30.6063 56.2474 30.0806 56.4467 29.5988C56.5642 29.3144 56.7503 29.0636 56.9884 28.8687C57.2265 28.6738 57.5092 28.541 57.8112 28.482C58.1132 28.4231 58.4251 28.4399 58.7191 28.5309C59.013 28.622 59.2798 28.7844 59.4956 29.0038L59.5801 29.0742C59.6681 29.0284 59.6258 28.9475 59.6258 28.8841C59.6258 28.3102 59.6258 27.7399 59.6258 27.166C59.6258 26.9794 59.6575 26.8984 59.8723 26.8984C60.6398 26.8984 60.6398 26.8984 60.6398 27.6624C60.6398 29.3453 60.6398 31.0282 60.6398 32.711C60.6398 32.961 60.5905 33.0842 60.3194 33.0384C60.2749 33.0349 60.2301 33.0349 60.1856 33.0384C59.6962 33.0384 59.6962 33.0384 59.6751 32.5279ZM58.4746 29.2678C58.3318 29.2492 58.1867 29.2651 58.0513 29.3141C57.9159 29.3631 57.7943 29.4438 57.6965 29.5495C57.4165 29.8707 57.2474 30.2737 57.2144 30.6986C57.1815 31.1235 57.2863 31.5477 57.5134 31.9083C57.6181 32.0571 57.7575 32.178 57.9196 32.2606C58.0816 32.3432 58.2614 32.3849 58.4433 32.3821C58.6252 32.3793 58.8036 32.3322 58.9631 32.2447C59.1225 32.1572 59.2582 32.032 59.3583 31.8802C59.5479 31.5912 59.6595 31.2581 59.6824 30.9133C59.7052 30.5684 59.6384 30.2235 59.4885 29.9121C59.4162 29.7066 59.2769 29.5313 59.093 29.4145C58.9091 29.2977 58.6913 29.246 58.4746 29.2678Z" fill="white"/>
<path d="M72.6273 22.7581C72.6273 23.1348 72.6273 23.5115 72.6273 23.8847C72.6273 24.0677 72.6625 24.191 72.8737 24.1698C73.0322 24.1698 73.0639 24.2367 73.0674 24.3776C73.0674 24.9092 73.0251 24.969 72.49 24.9761C72.3381 24.9954 72.1839 24.9685 72.0476 24.8987C71.9113 24.829 71.7992 24.7198 71.726 24.5853C71.6415 24.4198 71.5922 24.5536 71.5324 24.5853C71.2351 24.7784 70.8988 24.9031 70.5475 24.9506C70.1962 24.9981 69.8388 24.9671 69.501 24.8599C69.2424 24.7812 69.016 24.6216 68.8551 24.4045C68.6943 24.1874 68.6074 23.9243 68.6074 23.6541C68.6074 23.3838 68.6943 23.1208 68.8551 22.9037C69.016 22.6866 69.2424 22.5269 69.501 22.4482C70.0263 22.3115 70.5621 22.2185 71.1029 22.1701C71.5183 22.0997 71.6908 21.9272 71.6626 21.6174C71.6424 21.4645 71.5643 21.3253 71.4444 21.2284C71.3245 21.1314 71.172 21.0842 71.0184 21.0963C70.742 21.0628 70.4617 21.0917 70.198 21.1808C70.1123 21.2159 70.0359 21.2704 69.9748 21.3401C69.9137 21.4097 69.8696 21.4926 69.846 21.5822C69.8439 21.6098 69.8379 21.6371 69.8284 21.6631C69.5542 21.8167 69.2313 21.8583 68.9271 21.7793C68.7335 21.6913 68.8356 21.5188 68.8743 21.385C69.0433 20.7478 69.5291 20.4802 70.1206 20.3535C70.63 20.2489 71.1568 20.2646 71.6591 20.3992C71.9341 20.4683 72.179 20.6254 72.3563 20.8466C72.5337 21.0678 72.6338 21.341 72.6414 21.6244C72.6343 22.0046 72.6273 22.3814 72.6273 22.7581ZM71.6169 22.6595C71.3422 22.7432 71.0606 22.8021 70.7754 22.8355C70.4622 22.8526 70.1568 22.9392 69.8812 23.089C69.8126 23.1347 69.7546 23.1945 69.7111 23.2645C69.6676 23.3345 69.6395 23.413 69.6289 23.4947C69.6182 23.5764 69.6251 23.6594 69.6492 23.7382C69.6733 23.817 69.714 23.8898 69.7685 23.9516C70.0254 24.1298 70.3377 24.2098 70.6486 24.1768C70.9595 24.1439 71.2482 24.0002 71.462 23.772C71.719 23.427 71.5605 23.0503 71.6169 22.6595Z" fill="white"/>
<path d="M79.1336 30.9377C79.1336 31.3214 79.1336 31.7052 79.1336 32.0925C79.1336 32.2896 79.2181 32.4058 79.4223 32.3847C79.6265 32.3635 79.6195 32.4692 79.623 32.6135C79.623 33.0888 79.5984 33.1275 79.1196 33.1416C78.9325 33.1629 78.743 33.1449 78.5633 33.0888C78.4718 33.0501 78.3661 33.0184 78.3345 32.9198C78.25 32.6663 78.1443 32.7051 77.9401 32.8212C77.6606 32.9912 77.3479 33.0996 77.0231 33.139C76.6983 33.1785 76.3688 33.1482 76.0566 33.0501C75.7546 32.9664 75.4951 32.7722 75.3294 32.5062C75.1638 32.2402 75.1042 31.9216 75.1624 31.6137C75.2081 31.342 75.3405 31.0923 75.5397 30.902C75.7389 30.7117 75.9943 30.5908 76.2678 30.5575C76.7431 30.487 77.2219 30.4272 77.6761 30.3392C77.919 30.2969 78.1479 30.2054 78.1584 29.8921C78.1684 29.825 78.165 29.7566 78.1484 29.6909C78.1318 29.6251 78.1024 29.5633 78.0618 29.509C78.0212 29.4547 77.9703 29.4089 77.9119 29.3743C77.8536 29.3398 77.789 29.3171 77.7219 29.3076C77.3848 29.2045 77.0216 29.2283 76.7009 29.3745C76.6126 29.4154 76.535 29.476 76.4739 29.5517C76.4129 29.6274 76.3701 29.7162 76.3488 29.8111C76.3277 29.9378 76.2678 29.9695 76.1517 29.966C75.9545 29.966 75.7573 29.966 75.5602 29.966C75.363 29.966 75.2926 29.9132 75.3419 29.7019C75.3925 29.4574 75.5072 29.2308 75.6742 29.0452C75.8412 28.8596 76.0546 28.7217 76.2925 28.6457C76.9457 28.4045 77.6636 28.4045 78.3168 28.6457C78.5597 28.729 78.7695 28.8876 78.9158 29.0985C79.0621 29.3094 79.1372 29.5615 79.1301 29.8181C79.1372 30.1843 79.1336 30.561 79.1336 30.9377ZM78.1267 31.3496C78.1267 31.2123 78.1936 31.0363 78.0986 30.9377C78.0035 30.8391 77.8592 30.9835 77.7465 30.994C77.702 30.9975 77.6572 30.9975 77.6127 30.994C77.2845 31.0143 76.9596 31.0722 76.6445 31.1665C76.5385 31.1901 76.4415 31.2439 76.3653 31.3213C76.2891 31.3988 76.2369 31.4966 76.215 31.6031C76.1833 31.7897 76.1481 32.0115 76.3382 32.1488C76.5268 32.2859 76.7497 32.3681 76.9822 32.3861C77.2146 32.4041 77.4475 32.3573 77.655 32.2509C77.8306 32.1848 77.9757 32.0564 78.0627 31.8902C78.1497 31.724 78.1725 31.5315 78.1267 31.3496Z" fill="white"/>
<path d="M85.2061 30.293C85.5019 30.0184 85.7941 29.7579 86.0722 29.4868C86.3504 29.2157 86.5898 28.9657 86.8432 28.6981C86.9182 28.6335 87.0155 28.6007 87.1143 28.6066C87.4347 28.6066 87.7551 28.6066 88.072 28.6066C88.1072 28.7122 88.0262 28.7474 87.9804 28.7897C87.5368 29.2051 87.0967 29.6241 86.6461 30.0325C86.6124 30.0528 86.5838 30.0806 86.5625 30.1138C86.5413 30.1469 86.5279 30.1845 86.5235 30.2236C86.5191 30.2628 86.5237 30.3024 86.537 30.3394C86.5504 30.3765 86.572 30.41 86.6003 30.4373C87.1319 31.2224 87.6565 32.0146 88.1776 32.8032C88.2198 32.8701 88.2621 32.937 88.329 33.0497C87.917 33.0497 87.5474 33.0497 87.1777 33.0497C87.0298 33.0497 87.0017 32.8842 86.9383 32.7856C86.5862 32.2329 86.2342 31.6837 85.8997 31.1239C85.7976 30.9514 85.7378 30.9584 85.5864 31.0816C85.4442 31.1816 85.3327 31.3192 85.2643 31.479C85.1959 31.6388 85.1733 31.8145 85.1991 31.9864C85.2343 32.2751 85.1991 32.5744 85.1991 32.8701C85.1991 33.0109 85.1463 33.0602 85.009 33.0567C84.8013 33.0567 84.5971 33.0567 84.3894 33.0567C84.1816 33.0567 84.1816 32.9898 84.1816 32.8349C84.1816 30.9373 84.1816 29.0361 84.1816 27.1385C84.1816 26.9554 84.2521 26.9097 84.421 26.9167C84.5992 26.929 84.778 26.929 84.9562 26.9167C85.1463 26.9167 85.2026 26.973 85.1991 27.1631C85.1991 28.1208 85.1991 29.0784 85.1991 30.036L85.2061 30.293Z" fill="white"/>
<path d="M94.7821 22.6786C94.7821 23.0518 94.7821 23.4285 94.7821 23.8052C94.7821 24.0446 94.8561 24.1925 95.099 24.2065C95.2292 24.2065 95.2785 24.2734 95.2609 24.3931C95.2433 24.5128 95.3525 24.7698 95.1835 24.8649C95.0566 24.9329 94.9171 24.9742 94.7736 24.9863C94.6301 24.9984 94.4856 24.9811 94.3491 24.9353C94.2083 24.8931 94.0393 24.8473 93.9794 24.6959C93.8844 24.453 93.7858 24.5375 93.6274 24.629C93.3388 24.8091 93.0139 24.9231 92.676 24.9626C92.3382 25.0022 91.9958 24.9664 91.6734 24.8579C91.427 24.7873 91.2114 24.6363 91.0608 24.4289C90.9102 24.2215 90.8334 23.9698 90.8425 23.7137C90.8425 23.0905 90.9552 22.7455 91.6664 22.4603C92.0726 22.3216 92.4976 22.2456 92.9268 22.235C93.1127 22.2127 93.2973 22.1797 93.4795 22.1364C93.582 22.1196 93.6757 22.0682 93.7449 21.9906C93.8141 21.9131 93.8546 21.8142 93.8597 21.7104C93.8728 21.6065 93.8516 21.5012 93.7996 21.4104C93.7475 21.3196 93.6673 21.2482 93.571 21.207C93.3697 21.1184 93.1518 21.0742 92.9319 21.0772C92.712 21.0803 92.4953 21.1305 92.2966 21.2246C92.2263 21.2575 92.1648 21.3065 92.1171 21.3677C92.0694 21.4289 92.0368 21.5005 92.0219 21.5766C91.9938 21.728 91.9022 21.7773 91.7544 21.7632C91.6065 21.7491 91.4516 21.7632 91.2967 21.7632C91.0115 21.7632 90.9622 21.7104 91.0291 21.4323C91.0931 21.1823 91.2261 20.9554 91.4128 20.7774C91.5996 20.5993 91.8326 20.4774 92.0853 20.4254C92.5696 20.2952 93.0762 20.27 93.571 20.3514C94.159 20.4395 94.8877 20.9359 94.7997 21.7597C94.7787 22.0655 94.7728 22.3722 94.7821 22.6786ZM92.705 24.1713C93.4408 24.1713 93.7999 23.8193 93.7999 23.1151C93.7999 22.9743 93.8632 22.7983 93.7611 22.7067C93.659 22.6152 93.5358 22.7525 93.4091 22.7701C93.0104 22.8144 92.616 22.8909 92.2297 22.999C92.0904 23.0393 91.9708 23.1293 91.8936 23.252C91.8164 23.3746 91.7869 23.5214 91.8107 23.6644C91.8318 23.9601 92.0536 24.0552 92.2895 24.1361C92.4257 24.1671 92.5655 24.179 92.705 24.1713Z" fill="white"/>
<path d="M54.8902 30.8679C54.8902 31.2517 54.8902 31.639 54.8902 32.0227C54.8902 32.248 54.9466 32.417 55.2423 32.3748C55.3655 32.3748 55.3866 32.4311 55.3937 32.5367C55.4359 33.0437 55.3655 33.1211 54.848 33.1317C54.4959 33.1317 54.1791 33.1317 54.0382 32.7233C53.9854 32.5825 53.908 32.7233 53.8552 32.7233C53.3164 33.074 52.662 33.2004 52.0315 33.0754C51.7254 33.0424 51.4441 32.8918 51.247 32.6553C51.0499 32.4188 50.9525 32.115 50.9753 31.8079C50.9617 31.6558 50.9783 31.5025 51.0241 31.3568C51.0699 31.2111 51.1439 31.0758 51.242 30.9587C51.3401 30.8417 51.4603 30.7451 51.5958 30.6745C51.7313 30.604 51.8793 30.5608 52.0315 30.5476C52.4328 30.4736 52.8412 30.4384 53.2461 30.375C53.3951 30.3492 53.5413 30.3091 53.6827 30.2553C53.7626 30.235 53.8341 30.19 53.8871 30.1269C53.9402 30.0637 53.9721 29.9855 53.9784 29.9033C53.9931 29.8103 53.9818 29.715 53.9458 29.628C53.9098 29.541 53.8504 29.4657 53.7742 29.4104C53.6385 29.3195 53.485 29.2584 53.324 29.2312C53.1629 29.2039 52.9979 29.2112 52.8398 29.2525C52.6818 29.2937 52.5343 29.368 52.4071 29.4705C52.2799 29.573 52.1758 29.7013 52.1019 29.8469C52.09 29.8798 52.0668 29.9073 52.0365 29.9247C52.0062 29.9421 51.9708 29.9483 51.9364 29.942C51.7604 29.942 51.5843 29.942 51.4013 29.942C51.1267 29.942 51.0774 29.8927 51.1443 29.6287C51.193 29.4042 51.2985 29.196 51.4508 29.024C51.6031 28.852 51.7969 28.722 52.0139 28.6464C52.3933 28.4848 52.8045 28.412 53.2163 28.4333C53.6281 28.4547 54.0296 28.5697 54.3903 28.7696C54.5526 28.8654 54.6852 29.0043 54.7734 29.1708C54.8617 29.3374 54.9021 29.5251 54.8902 29.7132C54.8902 30.0969 54.8902 30.4842 54.8902 30.8679ZM53.915 30.8679C53.6737 30.9467 53.4247 30.9998 53.1722 31.0264C52.8513 31.0397 52.5364 31.1175 52.2462 31.2552C52.1432 31.3089 52.0581 31.3915 52.0012 31.4927C51.9443 31.594 51.9181 31.7096 51.9258 31.8255C51.9278 31.9247 51.9603 32.0208 52.0189 32.1008C52.0775 32.1808 52.1593 32.2408 52.2533 32.2727C52.4704 32.3797 52.7133 32.4236 52.9542 32.3994C53.1951 32.3751 53.4243 32.2836 53.6158 32.1354C53.7059 32.076 53.7802 31.9957 53.8323 31.9012C53.8844 31.8068 53.9128 31.701 53.915 31.5932C53.9326 31.3503 53.9185 31.1109 53.9185 30.8503L53.915 30.8679Z" fill="white"/>
<path d="M75.2045 40.8545C74.4018 41.3404 73.5885 41.5199 72.74 41.0798C72.5428 40.9793 72.3803 40.8218 72.2736 40.6278C72.1669 40.4339 72.1209 40.2124 72.1415 39.9919C72.1288 39.779 72.1766 39.5668 72.2794 39.3799C72.3822 39.193 72.5358 39.039 72.7224 38.9358C73.1288 38.7511 73.5655 38.6425 74.011 38.6154C74.2469 38.5731 74.4898 38.5555 74.7151 38.5027C74.9404 38.4499 75.127 38.3724 75.1482 38.0978C75.1747 37.973 75.1531 37.8428 75.0879 37.7332C75.0226 37.6236 74.9184 37.5426 74.7961 37.5064C74.455 37.3823 74.081 37.3823 73.7399 37.5064C73.6358 37.5365 73.5419 37.5944 73.4681 37.6737C73.3943 37.7531 73.3434 37.851 73.321 37.957C73.2893 38.1119 73.2118 38.133 73.0815 38.1295C72.8844 38.1295 72.6837 38.1295 72.4901 38.1295C72.2964 38.1295 72.2683 38.0485 72.3 37.8831C72.3719 37.5562 72.5481 37.2617 72.8022 37.0438C73.0562 36.826 73.3742 36.6967 73.7082 36.6755C74.0748 36.642 74.4436 36.642 74.8102 36.6755C75.4615 36.7635 76.1375 37.1367 76.0706 37.9852C76.0213 38.6083 76.0706 39.2385 76.0706 39.8652C76.0771 40.0173 76.0924 40.169 76.1163 40.3194C76.1156 40.3487 76.1212 40.3778 76.1328 40.4048C76.1443 40.4317 76.1615 40.4559 76.1832 40.4756C76.205 40.4953 76.2307 40.5101 76.2586 40.519C76.2865 40.5279 76.3161 40.5306 76.3452 40.5271C76.5459 40.5271 76.5635 40.6257 76.5529 40.777C76.5476 40.8215 76.5476 40.8664 76.5529 40.9108C76.6022 41.1678 76.4684 41.2629 76.236 41.2629C76.0973 41.293 75.9555 41.3072 75.8136 41.3051C75.6796 41.2959 75.5512 41.2486 75.4432 41.1687C75.3353 41.0889 75.2525 40.9799 75.2045 40.8545ZM75.1517 39.4075C75.1517 39.0273 75.1517 39.0308 74.782 39.1223C74.703 39.1383 74.623 39.1489 74.5426 39.154C74.1787 39.1702 73.8208 39.2525 73.4864 39.397C73.3886 39.4425 73.3064 39.5159 73.25 39.608C73.1937 39.7 73.1657 39.8066 73.1696 39.9145C73.1574 40.0074 73.1726 40.1018 73.2133 40.1862C73.2539 40.2706 73.3182 40.3413 73.3984 40.3898C73.5715 40.5 73.7712 40.5615 73.9763 40.5677C74.1814 40.574 74.3845 40.5248 74.564 40.4253C74.7435 40.3258 74.8928 40.1797 74.9963 40.0025C75.0997 39.8252 75.1534 39.6233 75.1517 39.4181V39.4075Z" fill="white"/>
<path d="M64.5887 31.095C64.124 31.095 63.6593 31.095 63.1805 31.095C62.9622 31.095 62.927 31.1689 62.9692 31.3661C62.9931 31.5537 63.0615 31.7329 63.1689 31.8886C63.2763 32.0443 63.4194 32.172 63.5863 32.261C63.7532 32.3499 63.939 32.3976 64.1281 32.3999C64.3173 32.4023 64.5042 32.3592 64.6732 32.2744C64.8707 32.1845 65.0259 32.0218 65.1063 31.8202C65.1285 31.7574 65.172 31.7044 65.2292 31.6703C65.2864 31.6362 65.3538 31.6233 65.4196 31.6336C65.5897 31.6425 65.7601 31.6425 65.9301 31.6336C66.1132 31.6336 66.1449 31.7041 66.085 31.866C65.9784 32.194 65.7809 32.4849 65.5153 32.7049C65.2498 32.9249 64.9273 33.065 64.5852 33.1088C64.2651 33.1795 63.9334 33.1799 63.6131 33.11C63.2928 33.0401 62.9914 32.9015 62.7298 32.7039C62.3493 32.3733 62.0996 31.9175 62.0257 31.4189C61.9151 30.9964 61.9187 30.552 62.0362 30.1314C62.1538 29.7107 62.381 29.3288 62.6946 29.0248C62.9358 28.7969 63.228 28.63 63.5469 28.5382C63.8657 28.4463 64.202 28.4322 64.5274 28.497C64.8528 28.5618 65.158 28.7037 65.4174 28.9107C65.6767 29.1177 65.8827 29.3838 66.0181 29.6867C66.1869 30.0624 66.2653 30.4723 66.247 30.8837C66.247 31.0492 66.1836 31.0985 66.0252 31.095C65.5393 31.0915 65.064 31.095 64.5887 31.095ZM64.0853 30.3909H65.0218C65.152 30.3909 65.226 30.3697 65.2013 30.2113C65.1688 29.9567 65.0482 29.7216 64.8604 29.5467C64.6726 29.3717 64.4295 29.2681 64.1733 29.2537C63.8925 29.2328 63.6143 29.3188 63.3942 29.4944C63.1742 29.67 63.0287 29.9223 62.9868 30.2007C62.9516 30.3662 62.9868 30.4085 63.1488 30.4049C63.4621 30.3979 63.7719 30.4014 64.0853 30.4014V30.3909Z" fill="white"/>
<path d="M56.9072 22.8751C56.46 22.8751 56.0129 22.8751 55.5623 22.8751C55.3546 22.8751 55.2982 22.942 55.3194 23.1391C55.3347 23.373 55.4216 23.5964 55.5684 23.7791C55.7151 23.9618 55.9146 24.0948 56.1397 24.1601C56.3934 24.2421 56.668 24.2312 56.9144 24.1293C57.1608 24.0274 57.3629 23.8411 57.4845 23.6038C57.5038 23.5596 57.5368 23.5227 57.5787 23.4986C57.6205 23.4745 57.669 23.4645 57.7169 23.4701C57.8683 23.4701 58.0232 23.4701 58.1746 23.4701C58.5267 23.4701 58.5267 23.4701 58.3929 23.8221C58.2551 24.1248 58.0426 24.3873 57.7752 24.5851C57.5079 24.7828 57.1946 24.9092 56.8649 24.9523C56.4543 25.0308 56.0298 24.99 55.6416 24.8346C55.2535 24.6792 54.9181 24.4158 54.6751 24.0756C53.9709 22.9103 54.2632 21.3471 55.2454 20.6641C55.5257 20.4716 55.8483 20.3496 56.1859 20.3085C56.5234 20.2674 56.8659 20.3083 57.1842 20.4279C57.5025 20.5475 57.7873 20.7422 58.0143 20.9954C58.2412 21.2486 58.4037 21.5528 58.4879 21.8823C58.5595 22.1398 58.5858 22.4079 58.5654 22.6744C58.5478 22.8363 58.4879 22.8821 58.3295 22.8786C57.8577 22.868 57.3825 22.8751 56.9072 22.8751ZM56.446 22.2273H57.4106C57.4951 22.2273 57.562 22.2273 57.5479 22.097C57.5203 21.8579 57.4191 21.6332 57.2583 21.4541C57.0974 21.275 56.8849 21.1503 56.6502 21.0971C56.5068 21.0679 56.3591 21.0671 56.2155 21.095C56.0719 21.1229 55.9352 21.1788 55.8132 21.2596C55.6912 21.3403 55.5864 21.4444 55.5046 21.5657C55.4229 21.6871 55.3659 21.8233 55.337 21.9667C55.2912 22.1252 55.337 22.2414 55.5412 22.2308C55.8369 22.2167 56.1432 22.2273 56.446 22.2273Z" fill="white"/>
<path d="M82.0911 24.9732C80.9399 25.0084 79.8379 24.2198 79.8379 22.6284C79.8379 21.0371 80.9434 20.2978 82.077 20.2872C83.2107 20.2767 84.3443 21.0582 84.3478 22.6249C84.3514 24.1916 83.2459 25.0119 82.0911 24.9732ZM83.3339 22.6496C83.3546 22.3171 83.2788 21.9858 83.1156 21.6955C83.0143 21.5136 82.8662 21.3622 82.6867 21.2567C82.5072 21.1513 82.3028 21.0957 82.0946 21.0957C81.8864 21.0957 81.682 21.1513 81.5026 21.2567C81.3231 21.3622 81.175 21.5136 81.0736 21.6955C80.9201 21.985 80.8399 22.3078 80.8399 22.6355C80.8399 22.9632 80.9201 23.2859 81.0736 23.5755C81.1573 23.7307 81.275 23.8651 81.4178 23.9685C81.5607 24.072 81.725 24.1419 81.8986 24.173C82.0722 24.2041 82.2505 24.1957 82.4204 24.1483C82.5903 24.1009 82.7473 24.0159 82.8797 23.8994C83.0376 23.7337 83.1594 23.5371 83.2376 23.322C83.3157 23.1069 83.3485 22.878 83.3339 22.6496Z" fill="white"/>
<path d="M58.7624 38.9685C58.7624 37.8137 59.3292 36.9934 60.3467 36.7329C61.6493 36.4055 62.9168 36.997 63.1843 38.3559C63.2862 38.7368 63.2989 39.136 63.2213 39.5225C63.1438 39.909 62.9781 40.2724 62.7372 40.5845C62.3982 40.9553 61.9498 41.2081 61.4571 41.3063C60.9644 41.4044 60.4533 41.3428 59.9981 41.1302C59.6591 40.9852 59.3675 40.7479 59.1565 40.4455C58.9456 40.143 58.8236 39.7874 58.8046 39.4192C58.7725 39.2712 58.7583 39.1199 58.7624 38.9685ZM62.2478 38.9967C62.2698 38.6996 62.2127 38.402 62.0824 38.1341C61.9882 37.9232 61.8338 37.7448 61.6386 37.6213C61.4434 37.4979 61.2161 37.4348 60.9851 37.4401C60.7542 37.4453 60.53 37.5187 60.3406 37.6509C60.1512 37.7832 60.0051 37.9684 59.9207 38.1834C59.7123 38.6946 59.7123 39.2671 59.9207 39.7783C59.9866 39.9755 60.1045 40.1513 60.2621 40.2871C60.4196 40.4229 60.6109 40.5136 60.8157 40.5497C61.0206 40.5857 61.2313 40.5658 61.4258 40.492C61.6202 40.4182 61.7911 40.2932 61.9204 40.1303C62.0485 39.9729 62.144 39.7917 62.2014 39.5971C62.2588 39.4025 62.277 39.1984 62.2549 38.9967H62.2478Z" fill="white"/>
<path d="M85.6074 36.6833C86.9171 36.5777 87.8606 37.5987 87.8465 39.0104C87.8324 40.4222 86.9663 41.3305 85.6003 41.3305C84.2343 41.3305 83.3401 40.2919 83.3577 38.9506C83.3753 37.6092 84.2554 36.5882 85.6074 36.6833ZM86.8713 38.8978C86.8619 38.5598 86.7569 38.2314 86.5685 37.9507C86.4502 37.7585 86.2755 37.6073 86.0683 37.5179C85.861 37.4284 85.6313 37.405 85.4102 37.4508C85.1956 37.484 84.9947 37.5769 84.8303 37.7188C84.666 37.8608 84.5449 38.046 84.4808 38.2535C84.3149 38.7206 84.3087 39.2295 84.4632 39.7005C84.5083 39.8562 84.5846 40.0012 84.6873 40.1267C84.79 40.2522 84.9171 40.3556 85.0609 40.4306C85.2047 40.5056 85.3622 40.5507 85.5239 40.5632C85.6855 40.5757 85.8481 40.5553 86.0017 40.5032C86.5016 40.3166 86.8713 39.6899 86.8713 38.8978Z" fill="white"/>
<path d="M52.141 38.0395H51.789C51.7185 38.0395 51.6446 38.0395 51.6094 37.9585C51.4122 37.4234 50.951 37.4515 50.511 37.4586C50.3877 37.4698 50.268 37.5057 50.1589 37.5642C50.0962 37.5869 50.0412 37.627 50.0004 37.6797C49.9596 37.7324 49.9346 37.7957 49.9283 37.8621C49.922 37.9285 49.9348 37.9953 49.965 38.0547C49.9952 38.1142 50.0417 38.1638 50.099 38.1979C50.3796 38.3765 50.6978 38.4874 51.0285 38.5218C51.4176 38.5775 51.7968 38.6877 52.1551 38.8492C52.324 38.9345 52.4704 39.0584 52.5822 39.211C52.6941 39.3636 52.7684 39.5404 52.7989 39.7271C52.8295 39.9138 52.8155 40.1051 52.758 40.2854C52.7006 40.4657 52.6014 40.6298 52.4684 40.7644C51.6904 41.5883 49.8772 41.5531 49.1344 40.694C48.958 40.4896 48.8617 40.2282 48.8633 39.9582C48.8633 39.8174 48.9126 39.7611 49.0499 39.7681C49.1483 39.7769 49.2472 39.7769 49.3456 39.7681C49.6449 39.7294 49.8808 39.7681 49.9512 40.1202C49.974 40.2045 50.0185 40.2814 50.0803 40.3431C50.142 40.4049 50.2189 40.4494 50.3032 40.4722C50.5003 40.546 50.7101 40.5799 50.9204 40.5721C51.1307 40.5642 51.3374 40.5147 51.5284 40.4265C51.6099 40.3982 51.6806 40.3455 51.731 40.2756C51.7814 40.2057 51.809 40.1219 51.8101 40.0357C51.8111 39.9455 51.7865 39.857 51.7392 39.7803C51.6918 39.7036 51.6236 39.642 51.5425 39.6026C51.1996 39.449 50.837 39.3436 50.4652 39.2893C50.1878 39.2224 49.9149 39.1378 49.6484 39.0358C49.4366 38.9611 49.2541 38.8208 49.1275 38.6353C49.0009 38.4498 48.9367 38.2287 48.9443 38.0043C48.9302 37.7601 48.9956 37.518 49.1308 37.3142C49.2661 37.1104 49.4637 36.956 49.6942 36.8741C50.3528 36.5977 51.0923 36.5838 51.7608 36.8354C51.9819 36.9126 52.1794 37.0455 52.3342 37.2212C52.489 37.397 52.5958 37.6097 52.6445 37.8388C52.6902 38.0148 52.6445 38.0641 52.472 38.0465C52.3558 38.0395 52.2502 38.0395 52.141 38.0395Z" fill="white"/>
<path d="M57.0793 38.0384H56.7272C56.6924 38.0434 56.6569 38.0376 56.6254 38.0219C56.594 38.0062 56.5681 37.9812 56.5512 37.9503C56.4395 37.7532 56.2654 37.5988 56.0564 37.5115C55.8473 37.4242 55.6151 37.4089 55.3964 37.468C55.3005 37.4861 55.2072 37.5157 55.1183 37.556C55.0521 37.576 54.9933 37.6149 54.9491 37.6681C54.905 37.7212 54.8774 37.7862 54.8699 37.8549C54.8624 37.9236 54.8753 37.9929 54.9069 38.0544C54.9386 38.1158 54.9876 38.1665 55.0479 38.2003C55.3286 38.3778 55.6469 38.4875 55.9773 38.5207C56.3572 38.5782 56.7278 38.686 57.0793 38.8411C57.2633 38.9304 57.4214 39.0653 57.5387 39.2329C57.6559 39.4006 57.7284 39.5954 57.7492 39.7989C57.77 40.0024 57.7385 40.2078 57.6576 40.3957C57.5767 40.5836 57.4491 40.7477 57.287 40.8725C56.7915 41.2514 56.1666 41.4197 55.5478 41.3407C55.0653 41.3226 54.6007 41.1526 54.2205 40.8549C53.9628 40.6135 53.8088 40.2816 53.791 39.9289C53.791 39.7952 53.8544 39.7811 53.9494 39.7811C54.1748 39.7811 54.4001 39.7811 54.6219 39.7811C54.6441 39.777 54.6668 39.7778 54.6887 39.7833C54.7105 39.7887 54.731 39.7988 54.7487 39.8128C54.7663 39.8268 54.7808 39.8444 54.7911 39.8644C54.8014 39.8844 54.8073 39.9064 54.8085 39.9289C54.9141 40.5099 55.5126 40.6331 55.9492 40.5662C56.1101 40.563 56.2689 40.5296 56.4174 40.4676C56.5116 40.436 56.5948 40.3781 56.6572 40.3007C56.7196 40.2234 56.7585 40.1298 56.7695 40.031C56.769 39.9316 56.7375 39.8348 56.6795 39.754C56.6214 39.6733 56.5397 39.6126 56.4456 39.5804C56.1426 39.447 55.8228 39.3558 55.495 39.3093C55.2243 39.2505 54.9584 39.1717 54.6993 39.0734C54.4604 39.0233 54.2473 38.8892 54.0987 38.6954C53.9502 38.5016 53.876 38.261 53.8896 38.0172C53.8653 37.7682 53.9267 37.5184 54.0637 37.309C54.2007 37.0997 54.4051 36.9434 54.643 36.866C55.2933 36.5927 56.0231 36.5763 56.685 36.8202C56.9064 36.8962 57.1049 37.0272 57.2619 37.2008C57.4189 37.3745 57.5293 37.5851 57.5827 37.813C57.632 37.9855 57.5827 38.0595 57.4032 38.0384C57.2941 38.0384 57.1849 38.0384 57.0793 38.0384Z" fill="white"/>
<path d="M44.3551 30.4273C44.3551 29.6774 44.3551 28.924 44.3551 28.1706C44.3551 27.9136 44.2706 27.8572 44.0347 27.8678C43.57 27.8678 43.1053 27.8678 42.6264 27.8678C42.4504 27.8678 42.387 27.815 42.3976 27.639C42.4135 27.4692 42.4135 27.2983 42.3976 27.1285C42.3976 26.9313 42.4715 26.8926 42.6476 26.8926C44.1544 26.8926 45.6589 26.8926 47.161 26.8926C47.3547 26.8926 47.4004 26.9595 47.4004 27.139C47.4004 27.8643 47.4004 27.8643 46.6963 27.8643C46.3442 27.8643 46.0133 27.8643 45.6753 27.8643C45.4606 27.8643 45.4042 27.9241 45.4042 28.1354C45.4042 29.6668 45.4042 31.1983 45.4042 32.7298C45.4042 32.9798 45.3338 33.0819 45.0874 33.0396C44.9366 33.0203 44.784 33.0203 44.6332 33.0396C44.3621 33.0748 44.3093 32.9587 44.3128 32.7087C44.3656 31.9517 44.3551 31.1913 44.3551 30.4273Z" fill="white"/>
<path d="M64.4174 20.978C64.5618 20.8442 64.678 20.7245 64.8082 20.6259C65.09 20.426 65.4232 20.3112 65.7683 20.295C66.1133 20.2787 66.4558 20.3618 66.7551 20.5344C66.9453 20.6469 67.1016 20.8087 67.2075 21.0026C67.3135 21.1966 67.3652 21.4155 67.3572 21.6363C67.3748 22.6397 67.3572 23.6431 67.3572 24.6465C67.3572 24.8049 67.3149 24.8788 67.1459 24.8683C66.9666 24.8542 66.7865 24.8542 66.6073 24.8683C66.389 24.8859 66.3327 24.7908 66.3362 24.5866C66.3362 23.7065 66.3362 22.8263 66.3362 21.9532C66.3362 21.5061 66.1672 21.2068 65.8292 21.1329C65.6247 21.0625 65.4032 21.0587 65.1964 21.122C64.9896 21.1852 64.8081 21.3123 64.678 21.4849C64.5278 21.7074 64.4481 21.9699 64.4491 22.2384C64.4491 23.027 64.4491 23.8156 64.4491 24.6042C64.4491 24.8014 64.3998 24.8648 64.1921 24.8648C63.4316 24.8648 63.4316 24.8648 63.4316 24.1078C63.4316 22.9777 63.4316 21.8476 63.4316 20.721C63.4316 20.471 63.5021 20.3689 63.752 20.4041C63.7778 20.4059 63.8037 20.4059 63.8295 20.4041C64.3963 20.4041 64.3963 20.4041 64.4174 20.978Z" fill="white"/>
<path d="M46.7178 20.9947C46.9176 20.7195 47.1943 20.5095 47.5132 20.3911C47.832 20.2727 48.1787 20.2512 48.5098 20.3293C48.8362 20.3648 49.1368 20.5232 49.3507 20.7723C49.5645 21.0214 49.6755 21.3426 49.661 21.6707C49.6927 22.674 49.661 23.6739 49.661 24.6773C49.661 24.8216 49.6047 24.8568 49.4709 24.8639C48.6471 24.9061 48.6471 24.9097 48.6471 24.0858C48.6471 23.4134 48.6471 22.7445 48.6471 22.072C48.6471 21.4981 48.4077 21.1566 47.9993 21.1003C47.737 21.0538 47.4668 21.1081 47.2428 21.2524C47.0189 21.3967 46.8578 21.6203 46.7917 21.8784C46.7552 22.0163 46.7363 22.1582 46.7354 22.3009C46.7354 23.0613 46.7354 23.8218 46.7354 24.5822C46.7354 24.7794 46.7002 24.8674 46.4748 24.8674C45.7707 24.8674 45.7707 24.8674 45.7707 24.1633C45.7707 23.0367 45.7707 21.9065 45.7707 20.7799C45.7707 20.368 45.7285 20.4279 46.1509 20.4279C46.2494 20.4331 46.3482 20.4331 46.4467 20.4279C46.6896 20.3891 46.7706 20.4948 46.7354 20.7271C46.725 20.816 46.7191 20.9053 46.7178 20.9947Z" fill="white"/>
<path d="M86.6284 20.9676C86.8691 20.6469 87.216 20.4223 87.6071 20.3339C88.4063 20.1684 89.2583 20.4852 89.4731 21.2316C89.5044 21.3523 89.5187 21.4767 89.5153 21.6013C89.5153 22.6047 89.5153 23.6081 89.5153 24.6079C89.5153 24.8121 89.4519 24.8825 89.2548 24.8649C89.0931 24.8509 88.9306 24.8509 88.7689 24.8649C88.5753 24.8825 88.5295 24.8016 88.5331 24.6185C88.5331 23.7771 88.5331 22.9356 88.5331 22.0942C88.5331 21.4922 88.3042 21.1542 87.8817 21.1014C87.7477 21.0716 87.6091 21.0691 87.4741 21.094C87.3392 21.1188 87.2105 21.1705 87.0959 21.2461C86.9813 21.3216 86.8831 21.4194 86.807 21.5336C86.7309 21.6479 86.6785 21.7762 86.653 21.9111C86.6178 22.0408 86.6 22.1746 86.6002 22.3089C86.6002 23.0764 86.6002 23.8475 86.6002 24.6185C86.6002 24.798 86.5544 24.8649 86.3608 24.8649C85.625 24.8649 85.625 24.8649 85.625 24.1608C85.625 22.9955 85.625 21.8301 85.625 20.6683C85.625 20.4712 85.6743 20.3796 85.8785 20.4113C85.9148 20.4148 85.9513 20.4148 85.9876 20.4113C86.5756 20.4043 86.5756 20.4043 86.6284 20.9676Z" fill="white"/>
<path d="M90.0966 37.395C90.2947 37.1163 90.5696 36.9013 90.8878 36.7762C91.2061 36.6512 91.5538 36.6215 91.8887 36.6909C92.2156 36.731 92.5159 36.8912 92.7313 37.1404C92.9467 37.3896 93.0617 37.71 93.054 38.0393C93.054 39.0251 93.054 40.0109 93.054 40.9966C93.054 41.1797 92.9906 41.229 92.8181 41.2184C92.6482 41.2061 92.4776 41.2061 92.3076 41.2184C92.114 41.2184 92.0682 41.1551 92.0682 40.972C92.0682 40.2221 92.0682 39.4687 92.0682 38.7153C92.0671 38.5098 92.0482 38.3049 92.0119 38.1027C91.9801 37.9533 91.9095 37.815 91.8073 37.7016C91.7051 37.5882 91.5748 37.5037 91.4296 37.4566C91.2844 37.4095 91.1293 37.4014 90.98 37.4333C90.8307 37.4651 90.6924 37.5357 90.579 37.6379C90.4391 37.743 90.3262 37.8798 90.2496 38.0372C90.1731 38.1945 90.1352 38.3678 90.1389 38.5427C90.1389 39.349 90.1389 40.1552 90.1389 40.9614C90.1389 41.1621 90.0861 41.2396 89.8819 41.2184C89.7119 41.2061 89.5413 41.2061 89.3714 41.2184C89.2024 41.2184 89.1602 41.1586 89.1602 41.0002C89.1602 39.6553 89.1602 38.3139 89.1602 36.969C89.1602 36.8 89.22 36.7402 89.382 36.7578C89.4077 36.7595 89.4336 36.7595 89.4594 36.7578C90.0967 36.7437 90.0966 36.7437 90.0966 37.395Z" fill="white"/>
<path d="M66.6141 36.6844C66.8914 36.6565 67.1714 36.6931 67.4322 36.7914C67.693 36.8898 67.9275 37.0471 68.1174 37.2512C68.3204 37.4737 68.4613 37.7457 68.5258 38.0398C68.561 38.1771 68.5258 38.2476 68.3779 38.2405C68.2701 38.2335 68.1619 38.2335 68.054 38.2405C67.922 38.2751 67.7817 38.2578 67.662 38.1924C67.5422 38.127 67.452 38.0182 67.4097 37.8885C67.1034 37.209 66.0015 37.2512 65.5896 37.9483C65.414 38.257 65.319 38.6049 65.3135 38.96C65.3079 39.315 65.392 39.6657 65.5579 39.9797C65.6536 40.1715 65.8069 40.3285 65.9962 40.4289C66.1856 40.5293 66.4016 40.5679 66.6141 40.5395C66.8252 40.5146 67.023 40.4236 67.1792 40.2794C67.3355 40.1352 67.442 39.9453 67.4837 39.7368C67.5365 39.5502 67.6069 39.5115 67.7724 39.5256C67.9378 39.5396 68.0575 39.5256 68.2019 39.5256C68.5539 39.5256 68.5539 39.5256 68.4659 39.8565C68.3549 40.322 68.0746 40.7296 67.6795 40.9997C67.2845 41.2698 66.803 41.3831 66.3289 41.3176C64.8432 41.2119 64.1778 39.9621 64.3538 38.6384C64.388 38.4354 64.4374 38.2353 64.5017 38.0398C64.6373 37.601 64.9238 37.2243 65.3103 36.9763C65.6969 36.7283 66.1587 36.6249 66.6141 36.6844Z" fill="white"/>
<path d="M51.4534 22.6251C51.4534 22.2132 51.4534 21.8013 51.4534 21.3894C51.4534 21.2204 51.4147 21.1359 51.2316 21.157C51.1683 21.1605 51.1048 21.1605 51.0415 21.157C50.6895 21.157 50.6895 21.157 50.6895 20.8049C50.6895 20.4529 50.6894 20.4071 51.0802 20.4036C51.471 20.4001 51.4323 20.4036 51.4323 20.0515C51.4323 19.791 51.4323 19.5305 51.4323 19.2735C51.4323 19.1256 51.4746 19.0728 51.6259 19.0657C52.4498 19.027 52.4463 19.0235 52.4463 19.8262C52.4463 20.4071 52.4463 20.4177 53.0412 20.4071C53.2736 20.4071 53.3264 20.481 53.3194 20.6993C53.2982 21.245 53.3863 21.157 52.8476 21.164C52.397 21.164 52.4498 21.1147 52.4498 21.5689C52.4498 22.2472 52.4498 22.9267 52.4498 23.6074C52.4498 24.0228 52.5413 24.1073 52.9462 24.1179C53.0659 24.1179 53.2454 24.0439 53.2982 24.1777C53.3493 24.3871 53.3493 24.6056 53.2982 24.8149C53.2982 24.8607 53.2349 24.8642 53.1891 24.8713C52.8629 24.9276 52.5295 24.9276 52.2033 24.8713C51.6928 24.7621 51.4675 24.4875 51.4393 23.8961V22.6251H51.4534Z" fill="white"/>
<path d="M74.412 22.6072C74.412 22.2058 74.412 21.8009 74.412 21.3996C74.412 21.213 74.3591 21.1531 74.169 21.1531C73.7008 21.1531 73.7113 21.1531 73.6973 20.6884C73.6973 20.4737 73.7466 20.368 73.9754 20.4032C74.0212 20.4032 74.0669 20.4032 74.1092 20.4032C74.3415 20.4384 74.426 20.354 74.4155 20.111C74.3873 19.8167 74.3944 19.52 74.4366 19.2273C74.4577 19.1112 74.4929 19.0513 74.6232 19.0548C74.8274 19.0548 75.0351 19.0548 75.2393 19.0548C75.3872 19.0548 75.4224 19.1182 75.4224 19.2485C75.4224 19.5618 75.4224 19.8751 75.4224 20.1885C75.4224 20.354 75.4787 20.4208 75.6407 20.4032C75.6851 20.398 75.73 20.398 75.7745 20.4032C76.3765 20.4032 76.2779 20.2871 76.2955 20.9278C76.2955 21.1003 76.2462 21.1567 76.0667 21.1602C75.4259 21.1602 75.4259 21.1602 75.4259 21.8256C75.4259 22.4171 75.4259 23.0085 75.4259 23.5859C75.4259 24.0049 75.5174 24.0858 75.9258 24.0964C76.042 24.0964 76.2251 24.0225 76.2779 24.1598C76.3266 24.3694 76.3266 24.5874 76.2779 24.797C76.2779 24.8181 76.2216 24.8428 76.1899 24.8428C75.7499 24.9292 75.2946 24.8939 74.8732 24.7407C74.4788 24.5506 74.4507 24.1668 74.4296 23.8042C74.4084 23.4416 74.412 23.012 74.412 22.6072Z" fill="white"/>
<path d="M77.9541 38.993C77.9541 38.5705 77.9541 38.148 77.9541 37.7291C77.9541 37.5565 77.9083 37.4756 77.7252 37.5002H77.7006C77.1725 37.5002 77.1126 37.4122 77.1936 36.8806C77.2147 36.7503 77.2887 36.7538 77.3802 36.7468C77.9505 36.7116 77.9505 36.7116 77.9505 36.1377C77.9505 35.4512 77.9505 35.4618 78.6265 35.4336C78.8659 35.4336 78.9434 35.4934 78.9258 35.7328C78.9082 35.9723 78.9258 36.2363 78.9258 36.4863C78.9258 36.7362 78.9962 36.7574 79.1898 36.7362C79.2789 36.731 79.3683 36.731 79.4574 36.7362C79.8763 36.7362 79.8376 36.6905 79.8376 37.0883C79.8376 37.4861 79.8834 37.472 79.4468 37.4756C78.9293 37.4756 78.9293 37.4756 78.9293 38.0001C78.9293 38.6092 78.9293 39.2183 78.9293 39.8274C78.9293 40.3519 79.0103 40.4259 79.5278 40.4364C79.6299 40.4364 79.7989 40.3519 79.82 40.5209C79.8664 40.7296 79.8579 40.9467 79.7954 41.1511C79.7954 41.1758 79.7144 41.1758 79.6721 41.1863C79.4406 41.2336 79.2037 41.249 78.968 41.2321C78.2956 41.211 77.9857 40.9012 77.9717 40.2287C77.947 39.8344 77.9541 39.4119 77.9541 38.993Z" fill="white"/>
<path d="M44.0879 21.7991C44.0879 22.732 44.0879 23.665 44.0879 24.5945C44.0879 24.8057 44.028 24.8832 43.8168 24.8656C43.62 24.8497 43.4222 24.8497 43.2253 24.8656C43.0422 24.8656 43 24.8022 43 24.6297C43 23.6439 43 22.6581 43 21.6759C43 20.7781 43 19.8838 43 18.9861C43 18.7854 43.0528 18.7115 43.257 18.7291C43.4538 18.7467 43.6517 18.7467 43.8485 18.7291C44.0421 18.7291 44.0879 18.796 44.0844 18.979C44.0844 19.919 44.0879 20.8591 44.0879 21.7991Z" fill="white"/>
<path d="M60.7068 21.2281C60.8342 20.9447 61.0362 20.7014 61.2912 20.5239C61.5783 20.3362 61.9222 20.2552 62.2629 20.2951C62.3791 20.2951 62.4213 20.3549 62.4143 20.4641C62.4143 20.5063 62.4143 20.5521 62.4143 20.5979C62.4143 20.8021 62.4777 21.0555 62.3791 21.1999C62.2805 21.3442 61.9989 21.2457 61.7982 21.2597C61.5194 21.3115 61.2675 21.4592 61.0862 21.6772C60.9049 21.8952 60.8055 22.1697 60.8054 22.4532C60.8054 23.1574 60.8054 23.8615 60.8054 24.5656C60.8054 24.8297 60.7244 24.9177 60.4744 24.8825C60.3045 24.8701 60.1339 24.8701 59.9639 24.8825C59.8196 24.8825 59.7773 24.8297 59.7773 24.6959C59.7773 23.3346 59.7773 21.9744 59.7773 20.6155C59.7773 20.4817 59.8231 20.4324 59.9639 20.4253C60.6892 20.362 60.6892 20.3585 60.7068 21.2281Z" fill="white"/>
<path d="M81.6111 29.3142C81.7513 29.0498 81.9629 28.8302 82.2219 28.6802C82.4808 28.5302 82.7766 28.4559 83.0757 28.4657C83.2235 28.4657 83.294 28.515 83.2728 28.6664C83.2728 28.7016 83.2728 28.7368 83.2728 28.7755C83.2728 28.9797 83.3292 29.2297 83.2341 29.374C83.1391 29.5184 82.882 29.3952 82.6778 29.4339C82.5131 29.4532 82.3552 29.5111 82.2169 29.6029C82.0787 29.6946 81.964 29.8176 81.8822 29.962C81.7325 30.2285 81.6549 30.5294 81.6569 30.8351C81.6569 31.4899 81.6569 32.1448 81.6569 32.7996C81.6569 32.9862 81.6005 33.0425 81.4139 33.0425C80.6816 33.0425 80.6816 33.0425 80.6816 32.3384C80.6816 31.2118 80.6816 30.0817 80.6816 28.9516C80.6816 28.7192 80.7239 28.6206 80.9879 28.6312C81.5865 28.6312 81.5864 28.6171 81.6111 29.3142Z" fill="white"/>
<path d="M48.5524 29.4528C48.7205 29.0568 49.0381 28.743 49.4361 28.5797C49.5171 28.548 49.6016 28.5128 49.6861 28.4882C50.1578 28.3649 50.267 28.4494 50.267 28.9318C50.267 29.4141 50.267 29.4247 49.7847 29.4317C49.5149 29.4476 49.2593 29.5573 49.0619 29.7418C48.8645 29.9264 48.7378 30.1741 48.7038 30.4421C48.6519 31.0274 48.6366 31.6153 48.658 32.2024C48.658 32.416 48.658 32.6308 48.658 32.8467C48.658 32.9875 48.6052 33.0263 48.4679 33.0368C47.6758 33.0791 47.6758 33.0826 47.6758 32.294C47.6758 31.1568 47.6758 30.0196 47.6758 28.8825C47.6758 28.6677 47.7356 28.6079 47.9504 28.6079C48.5524 28.6079 48.5524 28.6079 48.5559 29.2169L48.5524 29.4528Z" fill="white"/>
<path d="M81.0209 38.9755C81.0209 38.3136 81.0209 37.6517 81.0209 36.9933C81.0209 36.8103 81.0632 36.7258 81.2568 36.7434C81.5033 36.7715 81.8201 36.6413 81.9821 36.7962C82.144 36.9511 82.0349 37.2715 82.0349 37.5003C82.0349 38.6445 82.0349 39.7887 82.0349 40.9294C82.0349 41.1231 81.9926 41.2111 81.7849 41.1935C81.6153 41.1741 81.444 41.1741 81.2744 41.1935C81.0491 41.2181 81.0104 41.116 81.0139 40.9153C81.028 40.2816 81.0209 39.6303 81.0209 38.9755Z" fill="white"/>
<path d="M69.843 39.0024C69.843 38.3406 69.843 37.6787 69.843 37.0203C69.843 36.8091 69.9099 36.7422 70.1211 36.7422C70.8569 36.7422 70.8569 36.7422 70.8569 37.4815C70.8569 38.6328 70.8569 39.7875 70.8569 40.9388C70.8569 41.1536 70.7971 41.2275 70.5858 41.2099C70.4066 41.1958 70.2265 41.1958 70.0472 41.2099C69.8782 41.2099 69.8359 41.15 69.8359 40.9916C69.8465 40.3262 69.843 39.6643 69.843 39.0024Z" fill="white"/>
<path d="M77.525 22.6115C77.525 21.9672 77.525 21.3229 77.525 20.6786C77.525 20.4815 77.5637 20.397 77.7891 20.4005C78.4932 20.4005 78.4932 20.4005 78.4932 21.1046C78.4932 22.2664 78.4932 23.4318 78.4932 24.5936C78.4932 24.7837 78.4545 24.8612 78.2432 24.8576C77.5215 24.8576 77.5215 24.8576 77.5215 24.1535L77.525 22.6115Z" fill="white"/>
<path d="M81.523 35.0781C82.0335 35.0781 82.0335 35.0781 82.0335 35.5745C82.0335 36.0709 82.0335 36.0428 81.5441 36.0428C81.0547 36.0428 81.0195 36.0428 81.0195 35.5323C81.0195 35.0781 81.0195 35.0781 81.523 35.0781Z" fill="white"/>
<path d="M70.3815 35.0781C70.8709 35.0781 70.8709 35.0781 70.8709 35.571C70.8709 36.0639 70.8709 36.0463 70.3885 36.0428C69.7971 36.0428 69.864 36.1202 69.8604 35.5147C69.8428 35.0781 69.8428 35.0781 70.3815 35.0781Z" fill="white"/>
<path d="M77.9882 19.6494C77.5234 19.6494 77.5234 19.6494 77.5234 19.1847C77.5234 18.7199 77.5234 18.7305 77.9987 18.7305C78.474 18.7305 78.4916 18.7305 78.4916 19.1987C78.4916 19.667 78.4775 19.6494 77.9882 19.6494Z" fill="white"/>
<path d="M34.0967 42.4717L34.6212 43.2815C34.5801 43.303 34.5348 43.3156 34.4885 43.3184C34.4421 43.3213 34.3957 43.3144 34.3522 43.2981C34.3087 43.2818 34.2691 43.2566 34.236 43.224C34.2029 43.1914 34.177 43.1522 34.16 43.109C34.072 42.9435 33.9558 42.7956 33.8643 42.6337C33.8389 42.5758 33.794 42.5286 33.7374 42.5003C33.6808 42.472 33.6161 42.4644 33.5545 42.4788C33.3855 42.514 33.463 42.6478 33.4559 42.7393C33.4471 42.873 33.4471 43.007 33.4559 43.1407C33.4559 43.2428 33.4559 43.3132 33.3151 43.3132C33.1743 43.3132 33.1426 43.2745 33.1426 43.1442C33.1426 42.6091 33.1426 42.088 33.1426 41.5353C33.1426 41.3874 33.2024 41.3522 33.3327 41.3557C33.5298 41.3557 33.727 41.3557 33.9242 41.3557C34.3466 41.3557 34.5368 41.4965 34.5755 41.7711C34.6212 42.1549 34.5086 42.3204 34.0967 42.4717ZM33.6988 41.6092C33.5017 41.5493 33.4172 41.6655 33.4524 41.912C33.4577 41.9646 33.4577 42.0177 33.4524 42.0704C33.4524 42.1866 33.4876 42.2359 33.6038 42.2288C33.72 42.2218 33.8714 42.2288 34.0016 42.1971C34.0397 42.1961 34.0772 42.187 34.1114 42.1703C34.1457 42.1536 34.176 42.1298 34.2004 42.1005C34.2247 42.0712 34.2425 42.037 34.2525 42.0002C34.2626 41.9634 34.2647 41.925 34.2586 41.8873C34.2586 41.7007 34.1354 41.6444 33.977 41.6303L33.6988 41.6092Z" fill="white"/>
</g>
<defs>
<clipPath id="clip0_3268_3951">
<rect width="96.6875" height="50" fill="white" transform="translate(0.671875)"/>
</clipPath>
</defs>
</svg>
