<svg width="16" height="17" viewBox="0 0 16 17" fill="none" xmlns="http://www.w3.org/2000/svg">
<g id="Articles (Dark)">
<path id="Vector" d="M13.3997 6.04422H11.6047V3.66922C11.6047 2.99422 11.0597 2.44922 10.3847 2.44922H3.14969C2.47469 2.44922 1.92969 2.99422 1.92969 3.66922V13.3242C1.92969 13.9992 2.47469 14.5442 3.14969 14.5442H12.2147C13.2347 14.5442 14.0647 13.7142 14.0647 12.6942V6.70922C14.0647 6.33922 13.7647 6.04422 13.3997 6.04422ZM4.60969 4.92422H6.52469C6.83969 4.92422 7.08969 5.17922 7.08969 5.48922C7.08969 5.79922 6.83469 6.05422 6.52469 6.05422H4.60969C4.29469 6.05422 4.04469 5.79922 4.04469 5.48922C4.04469 5.17922 4.29969 4.92422 4.60969 4.92422ZM8.92469 12.3742H4.60969C4.29469 12.3742 4.04469 12.1192 4.04469 11.8092C4.04469 11.4992 4.29969 11.2442 4.60969 11.2442H8.92469C9.23969 11.2442 9.48969 11.4992 9.48969 11.8092C9.48969 12.1192 9.23469 12.3742 8.92469 12.3742ZM8.92469 10.2692H4.60969C4.29469 10.2692 4.04469 10.0142 4.04469 9.70422C4.04469 9.39422 4.29969 9.13922 4.60969 9.13922H8.92469C9.23969 9.13922 9.48969 9.39422 9.48969 9.70422C9.48969 10.0142 9.23469 10.2692 8.92469 10.2692ZM8.92469 8.16422H4.60969C4.29469 8.16422 4.04469 7.90922 4.04469 7.59922C4.04469 7.28922 4.29969 7.03422 4.60969 7.03422H8.92469C9.23969 7.03422 9.48969 7.28922 9.48969 7.59922C9.48969 7.90922 9.23469 8.16422 8.92469 8.16422ZM12.8447 12.8292C12.8447 13.1142 12.6147 13.3442 12.3297 13.3442H11.6047V7.23922H12.8447V12.8242V12.8292Z" fill="#816BD9"/>
</g>
</svg>
