<svg width="16" height="17" viewBox="0 0 16 17" fill="none" xmlns="http://www.w3.org/2000/svg">
<g id="Info (Dark)">
<path id="Vector" d="M14.4846 8.50063C14.4846 4.92063 11.5796 2.01562 7.99965 2.01562C4.41965 2.01562 1.51465 4.92063 1.51465 8.50063C1.51465 12.0806 4.41965 14.9856 7.99965 14.9856C9.27465 14.9856 10.4696 14.6156 11.4696 13.9806L14.3046 14.7756L13.5146 11.9106C14.1296 10.9206 14.4796 9.75063 14.4796 8.50063H14.4846ZM8.05965 5.04563C8.50465 5.04563 8.86965 5.40563 8.86965 5.85563C8.86965 6.30562 8.50965 6.66563 8.05965 6.66563C7.60965 6.66563 7.24965 6.30562 7.24965 5.85563C7.24965 5.40563 7.60965 5.04563 8.05965 5.04563ZM9.45965 11.9456H6.64465V10.7356H7.25465V8.29063H6.64465V7.08063H8.86965V10.7406H9.45965V11.9506V11.9456Z" fill="#816BD9"/>
</g>
</svg>
