<svg xmlns="http://www.w3.org/2000/svg" xmlns:xlink="http://www.w3.org/1999/xlink" id="Layer_1" x="0px" y="0px" viewBox="0 0 255.7 35.4" style="enable-background:new 0 0 255.7 35.4;" xml:space="preserve"><style type="text/css">	.st0{enable-background:new    ;}	.st1{fill:#6C418D;}	.st2{fill:#769944;}	.st3{fill:url(#SVGID_1_);}	.st4{fill:url(#SVGID_00000005265141071333075260000008680026058763425970_);}	.st5{fill:url(#SVGID_00000152253496968466924380000000227590087805353648_);}	.st6{fill:url(#SVGID_00000160186111570903222510000018392109663373012652_);}</style><g class="st0">	<path class="st1" d="M45.1,19.7L41.8,9.6h1.4l1.6,5c0.4,1.4,0.8,2.6,1.1,3.8h0c0.3-1.2,0.7-2.4,1.2-3.8l1.7-5h1.4l-3.6,10.1H45.1z"></path></g><g class="st0">	<path class="st1" d="M52.5,10.4c0,0.5-0.3,0.8-0.8,0.8c-0.5,0-0.8-0.4-0.8-0.8c0-0.5,0.3-0.8,0.8-0.8C52.2,9.5,52.5,9.9,52.5,10.4z   M51,19.7v-7.3h1.3v7.3H51z"></path></g><g class="st0">	<path class="st1" d="M59.7,19.4c-0.3,0.2-1.1,0.4-2.1,0.4c-2.2,0-3.6-1.5-3.6-3.7c0-2.2,1.5-3.9,3.9-3.9c0.8,0,1.5,0.2,1.8,0.4  l-0.3,1c-0.3-0.2-0.8-0.3-1.5-0.3c-1.7,0-2.6,1.2-2.6,2.7c0,1.7,1.1,2.7,2.5,2.7c0.8,0,1.2-0.2,1.6-0.4L59.7,19.4z"></path></g><g class="st0">	<path class="st1" d="M63,10.3v2.1h1.9v1H63v3.9c0,0.9,0.3,1.4,1,1.4c0.3,0,0.6,0,0.8-0.1l0.1,1c-0.3,0.1-0.7,0.2-1.2,0.2  c-0.6,0-1.1-0.2-1.4-0.6c-0.4-0.4-0.5-1-0.5-1.9v-4h-1.1v-1h1.1v-1.7L63,10.3z"></path></g><g class="st0">	<path class="st1" d="M72.9,16c0,2.7-1.9,3.9-3.6,3.9c-2,0-3.5-1.4-3.5-3.7c0-2.4,1.6-3.9,3.6-3.9C71.5,12.2,72.9,13.8,72.9,16z   M67.1,16.1c0,1.6,0.9,2.8,2.2,2.8c1.3,0,2.2-1.2,2.2-2.8c0-1.2-0.6-2.8-2.2-2.8C67.8,13.2,67.1,14.7,67.1,16.1z"></path></g><g class="st0">	<path class="st1" d="M74.5,14.7c0-0.9,0-1.6-0.1-2.3h1.2l0,1.4h0.1c0.3-1,1.1-1.6,2-1.6c0.1,0,0.3,0,0.4,0v1.2c-0.1,0-0.3,0-0.4,0  c-0.9,0-1.6,0.7-1.8,1.7c0,0.2-0.1,0.4-0.1,0.6v3.9h-1.3V14.7z"></path></g><g class="st0">	<path class="st1" d="M81,10.4c0,0.5-0.3,0.8-0.8,0.8c-0.5,0-0.8-0.4-0.8-0.8c0-0.5,0.3-0.8,0.8-0.8C80.7,9.5,81,9.9,81,10.4z   M79.5,19.7v-7.3h1.3v7.3H79.5z"></path>	<path class="st1" d="M87,19.7l-0.1-0.9h0c-0.4,0.6-1.2,1.1-2.2,1.1c-1.5,0-2.2-1-2.2-2.1c0-1.8,1.6-2.7,4.4-2.7v-0.1  c0-0.6-0.2-1.7-1.6-1.7c-0.7,0-1.4,0.2-1.9,0.5L83,12.9c0.6-0.4,1.5-0.6,2.4-0.6c2.2,0,2.8,1.5,2.8,3v2.7c0,0.6,0,1.2,0.1,1.7H87z   M86.8,16c-1.4,0-3.1,0.2-3.1,1.6c0,0.9,0.6,1.3,1.2,1.3c0.9,0,1.5-0.6,1.8-1.2c0-0.1,0.1-0.3,0.1-0.4V16z"></path>	<path class="st1" d="M90.2,14.4c0-0.8,0-1.4-0.1-2h1.2l0.1,1.2h0c0.4-0.7,1.2-1.4,2.4-1.4c1,0,2.6,0.6,2.6,3.1v4.3h-1.3v-4.2  c0-1.2-0.4-2.1-1.7-2.1c-0.9,0-1.5,0.6-1.8,1.4c-0.1,0.2-0.1,0.4-0.1,0.6v4.4h-1.3V14.4z"></path></g><g class="st0">	<path class="st1" d="M108.9,19.3c-0.5,0.2-1.4,0.5-2.7,0.5c-2.8,0-5-1.8-5-5.1c0-3.2,2.1-5.3,5.3-5.3c1.3,0,2.1,0.3,2.4,0.5  l-0.3,1.1c-0.5-0.2-1.2-0.4-2-0.4c-2.4,0-3.9,1.5-3.9,4.2c0,2.5,1.4,4.1,3.9,4.1c0.8,0,1.6-0.2,2.1-0.4L108.9,19.3z"></path></g><g class="st0">	<path class="st1" d="M111,16.3c0,1.8,1.2,2.5,2.5,2.5c0.9,0,1.5-0.2,2-0.4l0.2,0.9c-0.5,0.2-1.3,0.5-2.4,0.5  c-2.2,0-3.6-1.5-3.6-3.7c0-2.2,1.3-3.9,3.4-3.9c2.4,0,3,2.1,3,3.4c0,0.3,0,0.5,0,0.6H111z M114.9,15.3c0-0.8-0.3-2.1-1.8-2.1  c-1.3,0-1.9,1.2-2,2.1H114.9z"></path></g><g class="st0">	<path class="st1" d="M117.8,14.4c0-0.8,0-1.4-0.1-2h1.2l0.1,1.2h0c0.4-0.7,1.2-1.4,2.4-1.4c1,0,2.6,0.6,2.6,3.1v4.3h-1.3v-4.2  c0-1.2-0.4-2.1-1.7-2.1c-0.9,0-1.5,0.6-1.8,1.4c-0.1,0.2-0.1,0.4-0.1,0.6v4.4h-1.3V14.4z"></path></g><g class="st0">	<path class="st1" d="M127.7,10.3v2.1h1.9v1h-1.9v3.9c0,0.9,0.3,1.4,1,1.4c0.3,0,0.6,0,0.8-0.1l0.1,1c-0.3,0.1-0.7,0.2-1.2,0.2  c-0.6,0-1.1-0.2-1.4-0.6c-0.4-0.4-0.5-1-0.5-1.9v-4h-1.1v-1h1.1v-1.7L127.7,10.3z"></path></g><g class="st0">	<path class="st1" d="M131,14.7c0-0.9,0-1.6-0.1-2.3h1.2l0,1.4h0.1c0.3-1,1.1-1.6,2-1.6c0.1,0,0.3,0,0.4,0v1.2c-0.1,0-0.3,0-0.5,0  c-0.9,0-1.6,0.7-1.8,1.7c0,0.2-0.1,0.4-0.1,0.6v3.9H131V14.7z"></path></g><g class="st0">	<path class="st1" d="M136.5,16.3c0,1.8,1.2,2.5,2.5,2.5c0.9,0,1.5-0.2,2-0.4l0.2,0.9c-0.5,0.2-1.3,0.5-2.4,0.5  c-2.2,0-3.6-1.5-3.6-3.7c0-2.2,1.3-3.9,3.4-3.9c2.4,0,3,2.1,3,3.4c0,0.3,0,0.5,0,0.6H136.5z M140.4,15.3c0-0.8-0.3-2.1-1.8-2.1  c-1.3,0-1.9,1.2-2,2.1H140.4z"></path></g><g class="st0">	<path class="st1" d="M146.6,19.7v-6.3h-1v-1h1v-0.3c0-1,0.2-2,0.8-2.5c0.5-0.5,1.2-0.7,1.8-0.7c0.5,0,0.9,0.1,1.1,0.2l-0.2,1  c-0.2-0.1-0.5-0.2-0.8-0.2c-1.1,0-1.4,1-1.4,2.1v0.4h1.8v1h-1.8v6.3H146.6z"></path></g><g class="st0">	<path class="st1" d="M157.2,16c0,2.7-1.9,3.9-3.6,3.9c-2,0-3.5-1.4-3.5-3.7c0-2.4,1.6-3.9,3.6-3.9C155.8,12.2,157.2,13.8,157.2,16z   M151.5,16.1c0,1.6,0.9,2.8,2.2,2.8c1.3,0,2.2-1.2,2.2-2.8c0-1.2-0.6-2.8-2.2-2.8S151.5,14.7,151.5,16.1z"></path>	<path class="st1" d="M158.9,14.7c0-0.9,0-1.6-0.1-2.3h1.2l0,1.4h0.1c0.3-1,1.1-1.6,2-1.6c0.2,0,0.3,0,0.4,0v1.2c-0.1,0-0.3,0-0.4,0  c-0.9,0-1.6,0.7-1.8,1.7c0,0.2-0.1,0.4-0.1,0.6v3.9h-1.3V14.7z"></path></g><g class="st0">	<path class="st1" d="M175.6,15.2c-0.1-1.4-0.2-3.1-0.1-4.4h0c-0.3,1.2-0.8,2.4-1.3,3.8l-1.8,4.9h-1l-1.6-4.8  c-0.5-1.4-0.9-2.7-1.2-3.9h0c0,1.3-0.1,3-0.2,4.5l-0.3,4.3h-1.2l0.7-10.1h1.7l1.7,4.9c0.4,1.2,0.8,2.4,1,3.4h0  c0.3-1,0.6-2.1,1.1-3.4l1.8-4.9h1.7l0.6,10.1h-1.3L175.6,15.2z"></path></g><g class="st0">	<path class="st1" d="M179.9,16.3c0,1.8,1.2,2.5,2.5,2.5c0.9,0,1.5-0.2,2-0.4l0.2,0.9c-0.5,0.2-1.3,0.5-2.4,0.5  c-2.2,0-3.6-1.5-3.6-3.7c0-2.2,1.3-3.9,3.4-3.9c2.4,0,3,2.1,3,3.4c0,0.3,0,0.5,0,0.6H179.9z M183.8,15.3c0-0.8-0.3-2.1-1.8-2.1  c-1.3,0-1.9,1.2-2,2.1H183.8z"></path></g><g class="st0">	<path class="st1" d="M186.7,14.4c0-0.8,0-1.4-0.1-2h1.2l0.1,1.2h0c0.4-0.7,1.2-1.4,2.4-1.4c1,0,2.6,0.6,2.6,3.1v4.3h-1.3v-4.2  c0-1.2-0.4-2.1-1.7-2.1c-0.9,0-1.5,0.6-1.8,1.4c-0.1,0.2-0.1,0.4-0.1,0.6v4.4h-1.3V14.4z"></path></g><g class="st0">	<path class="st1" d="M196.5,10.3v2.1h1.9v1h-1.9v3.9c0,0.9,0.3,1.4,1,1.4c0.3,0,0.6,0,0.8-0.1l0.1,1c-0.3,0.1-0.7,0.2-1.2,0.2  c-0.6,0-1.1-0.2-1.4-0.6c-0.4-0.4-0.5-1-0.5-1.9v-4h-1.1v-1h1.1v-1.7L196.5,10.3z"></path>	<path class="st1" d="M203.9,19.7l-0.1-0.9h0c-0.4,0.6-1.2,1.1-2.2,1.1c-1.5,0-2.2-1-2.2-2.1c0-1.8,1.6-2.7,4.4-2.7v-0.1  c0-0.6-0.2-1.7-1.7-1.7c-0.7,0-1.4,0.2-1.9,0.5l-0.3-0.9c0.6-0.4,1.5-0.6,2.4-0.6c2.2,0,2.8,1.5,2.8,3v2.7c0,0.6,0,1.2,0.1,1.7  H203.9z M203.7,16c-1.4,0-3.1,0.2-3.1,1.6c0,0.9,0.6,1.3,1.2,1.3c0.9,0,1.5-0.6,1.8-1.2c0-0.1,0.1-0.3,0.1-0.4V16z"></path>	<path class="st1" d="M207.1,9h1.3v10.6h-1.3V9z"></path>	<path class="st1" d="M215.2,9.6v4.2h4.9V9.6h1.3v10.1h-1.3v-4.7h-4.9v4.7h-1.3V9.6H215.2z"></path>	<path class="st1" d="M224.4,16.3c0,1.8,1.2,2.5,2.5,2.5c0.9,0,1.5-0.2,2-0.4l0.2,0.9c-0.5,0.2-1.3,0.5-2.4,0.5  c-2.2,0-3.6-1.5-3.6-3.7c0-2.2,1.3-3.9,3.4-3.9c2.4,0,3,2.1,3,3.4c0,0.3,0,0.5,0,0.6H224.4z M228.2,15.3c0-0.8-0.3-2.1-1.8-2.1  c-1.3,0-1.9,1.2-2,2.1H228.2z"></path>	<path class="st1" d="M235.2,19.7l-0.1-0.9h0c-0.4,0.6-1.2,1.1-2.2,1.1c-1.5,0-2.2-1-2.2-2.1c0-1.8,1.6-2.7,4.4-2.7v-0.1  c0-0.6-0.2-1.7-1.6-1.7c-0.7,0-1.4,0.2-1.9,0.5l-0.3-0.9c0.6-0.4,1.5-0.6,2.4-0.6c2.2,0,2.8,1.5,2.8,3v2.7c0,0.6,0,1.2,0.1,1.7  H235.2z M235,16c-1.4,0-3.1,0.2-3.1,1.6c0,0.9,0.6,1.3,1.2,1.3c0.9,0,1.5-0.6,1.8-1.2c0-0.1,0.1-0.3,0.1-0.4V16z"></path>	<path class="st1" d="M238.4,9h1.3v10.6h-1.3V9z"></path>	<path class="st1" d="M243.5,10.3v2.1h1.9v1h-1.9v3.9c0,0.9,0.3,1.4,1,1.4c0.3,0,0.6,0,0.8-0.1l0.1,1c-0.3,0.1-0.7,0.2-1.2,0.2  c-0.6,0-1.1-0.2-1.4-0.6c-0.4-0.4-0.5-1-0.5-1.9v-4h-1.1v-1h1.1v-1.7L243.5,10.3z"></path>	<path class="st1" d="M246.9,9h1.3v4.5h0c0.2-0.4,0.5-0.7,0.9-0.9c0.4-0.2,0.9-0.4,1.4-0.4c1,0,2.5,0.6,2.5,3.1v4.3h-1.3v-4.2  c0-1.2-0.4-2.2-1.7-2.2c-0.9,0-1.5,0.6-1.8,1.3c-0.1,0.2-0.1,0.4-0.1,0.6v4.4h-1.3V9z"></path></g><g class="st0">	<path class="st2" d="M45.9,24.9h-1.9v-0.7h4.7v0.7h-1.9v5.6h-0.8V24.9z"></path></g><g class="st0">	<path class="st2" d="M48.9,27.4c0-0.5,0-1,0-1.4h0.7l0,0.9h0c0.2-0.6,0.7-1,1.3-1c0.1,0,0.2,0,0.2,0v0.8c-0.1,0-0.2,0-0.3,0  c-0.6,0-1,0.4-1.1,1.1c0,0.1,0,0.2,0,0.4v2.4h-0.8V27.4z"></path></g><g class="st0">	<path class="st2" d="M52.3,28.4c0,1.1,0.7,1.6,1.6,1.6c0.6,0,0.9-0.1,1.3-0.2l0.1,0.6c-0.3,0.1-0.8,0.3-1.5,0.3  c-1.4,0-2.2-0.9-2.2-2.3s0.8-2.4,2.1-2.4c1.5,0,1.9,1.3,1.9,2.1c0,0.2,0,0.3,0,0.4H52.3z M54.7,27.8c0-0.5-0.2-1.3-1.1-1.3  c-0.8,0-1.2,0.8-1.3,1.3H54.7z"></path></g><g class="st0">	<path class="st2" d="M59.1,30.5L59,30h0c-0.3,0.4-0.7,0.7-1.4,0.7c-0.9,0-1.4-0.6-1.4-1.3c0-1.1,1-1.7,2.7-1.7v-0.1  c0-0.4-0.1-1.1-1-1.1c-0.4,0-0.9,0.1-1.2,0.3l-0.2-0.5c0.4-0.2,0.9-0.4,1.5-0.4c1.4,0,1.7,0.9,1.7,1.9v1.7c0,0.4,0,0.8,0.1,1.1  H59.1z M58.9,28.2c-0.9,0-1.9,0.1-1.9,1c0,0.5,0.4,0.8,0.8,0.8c0.6,0,1-0.4,1.1-0.8c0-0.1,0-0.2,0-0.3V28.2z"></path></g><g class="st0">	<path class="st2" d="M62,24.7V26h1.2v0.6H62v2.4c0,0.6,0.2,0.9,0.6,0.9c0.2,0,0.4,0,0.5-0.1l0,0.6c-0.2,0.1-0.4,0.1-0.7,0.1  c-0.4,0-0.7-0.1-0.9-0.3c-0.2-0.2-0.3-0.6-0.3-1.2v-2.5h-0.7V26h0.7v-1.1L62,24.7z"></path>	<path class="st2" d="M64.1,27.2c0-0.5,0-0.9,0-1.2h0.7l0,0.7h0c0.3-0.4,0.7-0.8,1.4-0.8c0.6,0,1.1,0.4,1.3,0.9h0  c0.1-0.3,0.3-0.5,0.5-0.6c0.3-0.2,0.6-0.3,1-0.3c0.6,0,1.5,0.4,1.5,2v2.7h-0.8V28c0-0.9-0.3-1.4-1-1.4c-0.5,0-0.8,0.3-1,0.8  c0,0.1-0.1,0.3-0.1,0.4v2.8H67v-2.7c0-0.7-0.3-1.2-0.9-1.2c-0.5,0-0.9,0.4-1,0.8c0,0.1-0.1,0.3-0.1,0.4v2.7h-0.8V27.2z"></path>	<path class="st2" d="M72.4,28.4c0,1.1,0.7,1.6,1.6,1.6c0.6,0,0.9-0.1,1.3-0.2l0.1,0.6c-0.3,0.1-0.8,0.3-1.5,0.3  c-1.4,0-2.2-0.9-2.2-2.3s0.8-2.4,2.1-2.4c1.5,0,1.9,1.3,1.9,2.1c0,0.2,0,0.3,0,0.4H72.4z M74.8,27.8c0-0.5-0.2-1.3-1.1-1.3  c-0.8,0-1.2,0.8-1.3,1.3H74.8z"></path></g><g class="st0">	<path class="st2" d="M76.6,27.2c0-0.5,0-0.9,0-1.2h0.7l0,0.8h0c0.2-0.4,0.8-0.9,1.5-0.9c0.6,0,1.6,0.4,1.6,1.9v2.7h-0.8v-2.6  c0-0.7-0.3-1.3-1.1-1.3c-0.5,0-1,0.4-1.1,0.8c0,0.1-0.1,0.2-0.1,0.4v2.7h-0.8V27.2z"></path></g><g class="st0">	<path class="st2" d="M82.8,24.7V26H84v0.6h-1.2v2.4c0,0.6,0.2,0.9,0.6,0.9c0.2,0,0.4,0,0.5-0.1l0,0.6c-0.2,0.1-0.4,0.1-0.7,0.1  c-0.4,0-0.7-0.1-0.9-0.3C82.1,30,82,29.6,82,29.1v-2.5h-0.7V26H82v-1.1L82.8,24.7z"></path>	<path class="st2" d="M89.6,23.5v9.4H89v-9.4H89.6z"></path></g><g class="st0"></g><g class="st0">	<path class="st2" d="M95.9,24.9H94v-0.7h4.7v0.7h-1.9v5.6h-0.8V24.9z"></path></g><g class="st0">	<path class="st2" d="M98.9,27.4c0-0.5,0-1,0-1.4h0.7l0,0.9h0c0.2-0.6,0.7-1,1.3-1c0.1,0,0.2,0,0.2,0v0.8c-0.1,0-0.2,0-0.3,0  c-0.6,0-1,0.4-1.1,1.1c0,0.1,0,0.2,0,0.4v2.4h-0.8V27.4z"></path></g><g class="st0">	<path class="st2" d="M104.5,30.5l-0.1-0.6h0c-0.3,0.4-0.7,0.7-1.4,0.7c-0.9,0-1.4-0.6-1.4-1.3c0-1.1,1-1.7,2.7-1.7v-0.1  c0-0.4-0.1-1.1-1-1.1c-0.4,0-0.9,0.1-1.2,0.3l-0.2-0.5c0.4-0.2,0.9-0.4,1.5-0.4c1.4,0,1.7,0.9,1.7,1.9v1.7c0,0.4,0,0.8,0.1,1.1  H104.5z M104.4,28.2c-0.9,0-1.9,0.1-1.9,1c0,0.5,0.4,0.8,0.8,0.8c0.6,0,1-0.4,1.1-0.8c0-0.1,0-0.2,0-0.3V28.2z"></path>	<path class="st2" d="M107.4,24.7c0,0.3-0.2,0.5-0.5,0.5c-0.3,0-0.5-0.2-0.5-0.5c0-0.3,0.2-0.5,0.5-0.5  C107.2,24.2,107.4,24.4,107.4,24.7z M106.5,30.5V26h0.8v4.5H106.5z"></path>	<path class="st2" d="M108.7,27.2c0-0.5,0-0.9,0-1.2h0.7l0,0.8h0c0.2-0.4,0.8-0.9,1.5-0.9c0.6,0,1.6,0.4,1.6,1.9v2.7h-0.8v-2.6  c0-0.7-0.3-1.3-1.1-1.3c-0.5,0-1,0.4-1.1,0.8c0,0.1-0.1,0.2-0.1,0.4v2.7h-0.8V27.2z"></path>	<path class="st2" d="M114.8,24.7c0,0.3-0.2,0.5-0.5,0.5c-0.3,0-0.5-0.2-0.5-0.5c0-0.3,0.2-0.5,0.5-0.5  C114.6,24.2,114.8,24.4,114.8,24.7z M113.9,30.5V26h0.8v4.5H113.9z"></path>	<path class="st2" d="M116.1,27.2c0-0.5,0-0.9,0-1.2h0.7l0,0.8h0c0.2-0.4,0.8-0.9,1.5-0.9c0.6,0,1.6,0.4,1.6,1.9v2.7h-0.8v-2.6  c0-0.7-0.3-1.3-1.1-1.3c-0.5,0-1,0.4-1.1,0.8c0,0.1-0.1,0.2-0.1,0.4v2.7h-0.8V27.2z"></path>	<path class="st2" d="M125.2,26c0,0.3,0,0.7,0,1.2v2.6c0,1-0.2,1.7-0.6,2.1c-0.4,0.4-1.1,0.5-1.7,0.5c-0.5,0-1.1-0.1-1.5-0.4  l0.2-0.6c0.3,0.2,0.8,0.4,1.3,0.4c0.8,0,1.5-0.4,1.5-1.6v-0.5h0c-0.3,0.4-0.7,0.8-1.4,0.8c-1.1,0-1.9-1-1.9-2.2c0-1.5,1-2.4,2-2.4  c0.8,0,1.2,0.4,1.4,0.8h0l0-0.7H125.2z M124.3,27.8c0-0.1,0-0.3,0-0.4c-0.1-0.5-0.6-0.9-1.2-0.9c-0.8,0-1.4,0.7-1.4,1.7  c0,0.9,0.5,1.6,1.3,1.6c0.5,0,1-0.3,1.1-0.8c0-0.1,0.1-0.3,0.1-0.4V27.8z"></path>	<path class="st2" d="M131.3,23.5v9.4h-0.6v-9.4H131.3z"></path></g><g class="st0">	<path class="st2" d="M136.7,24.3c0.4-0.1,1-0.1,1.6-0.1c0.9,0,1.4,0.2,1.8,0.5c0.3,0.3,0.5,0.7,0.5,1.2c0,0.8-0.5,1.4-1.2,1.6v0  c0.5,0.2,0.8,0.6,0.9,1.3c0.2,0.9,0.4,1.5,0.5,1.7H140c-0.1-0.2-0.2-0.7-0.4-1.5c-0.2-0.9-0.5-1.2-1.3-1.2h-0.8v2.7h-0.8V24.3z   M137.6,27.2h0.8c0.9,0,1.4-0.5,1.4-1.2c0-0.8-0.6-1.2-1.5-1.2c-0.4,0-0.7,0-0.8,0.1V27.2z"></path></g><g class="st0">	<path class="st2" d="M142.3,28.4c0,1.1,0.7,1.6,1.6,1.6c0.6,0,0.9-0.1,1.3-0.2l0.1,0.6c-0.3,0.1-0.8,0.3-1.5,0.3  c-1.4,0-2.2-0.9-2.2-2.3s0.8-2.4,2.1-2.4c1.5,0,1.9,1.3,1.9,2.1c0,0.2,0,0.3,0,0.4H142.3z M144.7,27.8c0-0.5-0.2-1.3-1.1-1.3  c-0.8,0-1.2,0.8-1.3,1.3H144.7z"></path>	<path class="st2" d="M146.4,29.7c0.2,0.2,0.7,0.3,1.1,0.3c0.6,0,0.9-0.3,0.9-0.7c0-0.4-0.2-0.6-0.8-0.8c-0.8-0.3-1.2-0.7-1.2-1.3  c0-0.7,0.6-1.3,1.6-1.3c0.5,0,0.9,0.1,1.1,0.3l-0.2,0.6c-0.2-0.1-0.5-0.3-0.9-0.3c-0.5,0-0.8,0.3-0.8,0.6c0,0.4,0.3,0.5,0.9,0.8  c0.8,0.3,1.2,0.7,1.2,1.4c0,0.8-0.6,1.4-1.7,1.4c-0.5,0-1-0.1-1.3-0.3L146.4,29.7z"></path>	<path class="st2" d="M150.7,28.4c0,1.1,0.7,1.6,1.6,1.6c0.6,0,0.9-0.1,1.3-0.2l0.1,0.6c-0.3,0.1-0.8,0.3-1.5,0.3  c-1.4,0-2.2-0.9-2.2-2.3s0.8-2.4,2.1-2.4c1.5,0,1.9,1.3,1.9,2.1c0,0.2,0,0.3,0,0.4H150.7z M153.1,27.8c0-0.5-0.2-1.3-1.1-1.3  c-0.8,0-1.2,0.8-1.3,1.3H153.1z"></path>	<path class="st2" d="M157.4,30.5l-0.1-0.6h0c-0.3,0.4-0.7,0.7-1.4,0.7c-0.9,0-1.4-0.6-1.4-1.3c0-1.1,1-1.7,2.7-1.7v-0.1  c0-0.4-0.1-1.1-1-1.1c-0.4,0-0.9,0.1-1.2,0.3l-0.2-0.5c0.4-0.2,0.9-0.4,1.5-0.4c1.4,0,1.7,0.9,1.7,1.9v1.7c0,0.4,0,0.8,0.1,1.1  H157.4z M157.3,28.2c-0.9,0-1.9,0.1-1.9,1c0,0.5,0.4,0.8,0.8,0.8c0.6,0,1-0.4,1.1-0.8c0-0.1,0-0.2,0-0.3V28.2z"></path></g><g class="st0">	<path class="st2" d="M159.4,27.4c0-0.5,0-1,0-1.4h0.7l0,0.9h0c0.2-0.6,0.7-1,1.3-1c0.1,0,0.2,0,0.2,0v0.8c-0.1,0-0.2,0-0.3,0  c-0.6,0-1,0.4-1.1,1.1c0,0.1,0,0.2,0,0.4v2.4h-0.8V27.4z"></path></g><g class="st0">	<path class="st2" d="M165.6,30.4c-0.2,0.1-0.7,0.3-1.3,0.3c-1.4,0-2.3-0.9-2.3-2.3c0-1.4,1-2.4,2.4-2.4c0.5,0,0.9,0.1,1.1,0.2  l-0.2,0.6c-0.2-0.1-0.5-0.2-1-0.2c-1,0-1.6,0.8-1.6,1.7c0,1.1,0.7,1.7,1.6,1.7c0.5,0,0.8-0.1,1-0.2L165.6,30.4z"></path>	<path class="st2" d="M166.6,23.9h0.8v2.8h0c0.1-0.2,0.3-0.4,0.6-0.6c0.2-0.1,0.5-0.2,0.8-0.2c0.6,0,1.6,0.4,1.6,1.9v2.7h-0.8v-2.6  c0-0.7-0.3-1.4-1.1-1.4c-0.5,0-1,0.4-1.1,0.8c0,0.1-0.1,0.2-0.1,0.4v2.7h-0.8V23.9z"></path></g><g>			<linearGradient id="SVGID_1_" gradientUnits="userSpaceOnUse" x1="13.1269" y1="22.6047" x2="33.9269" y2="10.5947" gradientTransform="matrix(1 0 0 -1 0 38)">		<stop offset="0" style="stop-color:#772B78"></stop>		<stop offset="7.000000e-02" style="stop-color:#843175"></stop>		<stop offset="0.22" style="stop-color:#963B72"></stop>		<stop offset="0.37" style="stop-color:#A24170"></stop>		<stop offset="0.52" style="stop-color:#A64370"></stop>		<stop offset="0.79" style="stop-color:#D41972"></stop>	</linearGradient>	<path class="st3" d="M33.4,17.7c0,0.1,0,0.2,0,0.3c-0.2,8.5-7,15.4-15.6,15.6c4.2-0.1,7.7-2.6,9.3-6.2C27.7,26,28,24.6,28,23  c0-1.9-0.5-3.8-1.4-5.3c-1.1-1.9-2.8-3.4-4.8-4.3c-1.3-0.6-2.8-0.9-4.3-0.9c-2.9,0-5.2,2.4-5.2,5.2c0-1.5,0.3-3,0.9-4.3  c0.9-2,2.4-3.7,4.3-4.8c1.6-0.9,3.4-1.4,5.3-1.4c1.5,0,3,0.3,4.3,0.9c3.6,1.6,6.1,5.2,6.2,9.3C33.3,17.5,33.3,17.6,33.4,17.7  L33.4,17.7z"></path>			<linearGradient id="SVGID_00000160164081928423578110000017388871870956287110_" gradientUnits="userSpaceOnUse" x1="5.6045" y1="9.1276" x2="26.2186" y2="21.0257" gradientTransform="matrix(1 0 0 -1 0 38)">		<stop offset="0.25" style="stop-color:#F5EC46"></stop>		<stop offset="0.6" style="stop-color:#F0A66B"></stop>		<stop offset="0.94" style="stop-color:#D41972"></stop>	</linearGradient>	<path style="fill:url(#SVGID_00000160164081928423578110000017388871870956287110_);" d="M28,23c0,1.5-0.3,3-0.9,4.3  c-1.6,3.6-5.2,6.1-9.3,6.2c-0.1,0-0.2,0-0.3,0s-0.2,0-0.3,0C8.7,33.4,1.8,26.5,1.6,18c0.1,4.2,2.7,7.7,6.2,9.3  c1.3,0.6,2.8,0.9,4.3,0.9c1.9,0,3.8-0.5,5.3-1.4c1.9-1.1,3.4-2.8,4.3-4.8c0.6-1.3,0.9-2.8,0.9-4.3c0-2.9-2.4-5.2-5.2-5.2  c1.5,0,3,0.3,4.3,0.9c2,0.9,3.7,2.4,4.8,4.3C27.5,19.2,28,21.1,28,23L28,23z"></path>			<linearGradient id="SVGID_00000122721500760615762580000009748911308960589740_" gradientUnits="userSpaceOnUse" x1="3.824" y1="28.408" x2="22.7423" y2="17.489" gradientTransform="matrix(1 0 0 -1 0 38)">		<stop offset="0" style="stop-color:#90C04A"></stop>		<stop offset="0.35" style="stop-color:#BBC13D"></stop>		<stop offset="0.76" style="stop-color:#EDC12A"></stop>	</linearGradient>	<path style="fill:url(#SVGID_00000122721500760615762580000009748911308960589740_);" d="M22.7,17.7c0,1.5-0.3,3-0.9,4.3  c-0.9,2-2.4,3.7-4.3,4.8c-1.6,0.9-3.4,1.4-5.3,1.4c-1.5,0-3-0.3-4.3-0.9c-3.6-1.6-6.1-5.2-6.2-9.3c0-0.1,0-0.2,0-0.3s0-0.2,0-0.3  C1.8,8.9,8.6,2,17.2,1.8C13,1.9,9.5,4.5,7.8,8c-0.6,1.3-0.9,2.8-0.9,4.3c0,1.9,0.5,3.7,1.4,5.3c1.1,1.9,2.8,3.4,4.8,4.3  c1.3,0.6,2.8,0.9,4.3,0.9C20.4,22.9,22.7,20.6,22.7,17.7L22.7,17.7z"></path>			<linearGradient id="SVGID_00000029044838248324243710000005245690256242051734_" gradientUnits="userSpaceOnUse" x1="8.7548" y1="19.5918" x2="29.3603" y2="31.495" gradientTransform="matrix(1 0 0 -1 0 38)">		<stop offset="0" style="stop-color:#13A84B"></stop>		<stop offset="0.23" style="stop-color:#6DB543"></stop>		<stop offset="0.44" style="stop-color:#BBC13D"></stop>		<stop offset="0.76" style="stop-color:#EDC12A"></stop>	</linearGradient>	<path style="fill:url(#SVGID_00000029044838248324243710000005245690256242051734_);" d="M33.3,17.4c-0.1-4.2-2.6-7.7-6.2-9.3  c-1.3-0.6-2.8-0.9-4.3-0.9c-1.9,0-3.8,0.5-5.3,1.4c-1.9,1.1-3.4,2.8-4.3,4.8c-0.6,1.3-0.9,2.8-0.9,4.3c0,2.9,2.4,5.2,5.2,5.2  c-1.5,0-3-0.3-4.3-0.9c-2-0.9-3.7-2.4-4.8-4.3c-0.9-1.6-1.4-3.4-1.4-5.3c0-1.5,0.3-3,0.9-4.3c1.6-3.6,5.2-6.1,9.3-6.2  c0.1,0,0.2,0,0.3,0s0.2,0,0.3,0C26.3,2,33.2,8.9,33.3,17.4L33.3,17.4z"></path></g></svg>