<svg width="32" height="32" viewBox="0 0 32 32" fill="white" xmlns="http://www.w3.org/2000/svg">
<g clip-path="url(#clip0_3035_2488)">
<path d="M25.3258 30.3351L20.0008 24.0331V12.9861H20.6668C21.2193 12.9861 21.6668 12.5386 21.6668 11.9861C21.6668 11.4336 21.2193 10.9861 20.6668 10.9861H19.0008C18.4483 10.9861 18.0008 11.4336 18.0008 11.9861V24.4181C18.0007 24.6657 18.0926 24.9045 18.2588 25.0881L22.3328 30.0051H9.66776L13.7418 25.0881C13.9079 24.9045 13.9998 24.6657 13.9998 24.4181V11.9861C13.9998 11.4336 13.5523 10.9861 12.9998 10.9861H11.3337C10.7812 10.9861 10.3337 11.4336 10.3337 11.9861C10.3337 12.5386 10.7812 12.9861 11.3337 12.9861H11.9997V24.0331L6.67473 30.3351C6.54523 30.4787 6.46007 30.6567 6.42955 30.8477C6.39902 31.0386 6.42444 31.2343 6.50273 31.4111C6.58128 31.5879 6.70945 31.7382 6.87169 31.8436C7.03393 31.9491 7.22327 32.0052 7.41676 32.0052H24.5838C24.7773 32.0052 24.9666 31.9491 25.1288 31.8436C25.2911 31.7382 25.4192 31.5879 25.4978 31.4111C25.6578 31.0501 25.5908 30.6281 25.3258 30.3351V30.3351ZM15.0003 9.99011C16.1023 9.99011 16.9953 9.09661 16.9953 7.99511C16.9953 6.89461 16.1023 6.00114 15.0003 6.00114C13.8978 6.00114 13.0053 6.89461 13.0053 7.99511C13.0053 9.09661 13.8978 9.99011 15.0003 9.99011ZM21.5153 7.02161C23.4643 7.02161 25.0443 5.44861 25.0443 3.50861C25.0443 1.56861 23.4648 -0.00439453 21.5153 -0.00439453C19.5668 -0.00439453 17.9863 1.56861 17.9863 3.50861C17.9863 5.44861 19.5668 7.02161 21.5153 7.02161ZM21.4998 1.98957C22.3328 1.98957 23.0103 2.66407 23.0103 3.49357C23.0103 4.32257 22.3328 4.99757 21.4998 4.99757C20.6668 4.99757 19.9893 4.32257 19.9893 3.49357C19.9898 2.66407 20.6668 1.98957 21.4998 1.98957Z"/>
</g>
<defs>
<clipPath id="clip0_3035_2488">
<rect width="32" height="32" fill="white"/>
</clipPath>
</defs>
</svg>
