<svg width="32" height="32" viewBox="0 0 32 32" fill="white" xmlns="http://www.w3.org/2000/svg">
<g clip-path="url(#clip0_3035_2506)">
<path d="M31.9949 17.892C31.9979 17.234 31.8944 14.7515 31.8154 14.0415C30.9054 5.893 24.2919 -0.0209961 16.0909 -0.0209961C7.54891 -0.0209961 0.627945 6.561 0.158414 15.2885C0.148414 15.479 0.0784141 16.8305 0.0734141 17.635L0.0709141 18.0825C0.0298828 18.2675 0.00488281 18.4585 0.00488281 18.6555V25.3635C0.00488281 26.8285 1.19638 28.02 2.66138 28.02H5.35788C6.82288 28.02 8.01485 26.8285 8.01485 25.3635V18.656C8.01485 17.191 6.82235 15.9995 5.35785 15.9995H2.66088C2.4805 15.9995 2.30059 16.0178 2.12388 16.054C2.13888 15.7295 2.15238 15.4735 2.15591 15.396C2.56741 7.7465 8.62891 1.979 16.0909 1.979C23.2559 1.979 29.0324 7.146 29.8274 14.264C29.8609 14.561 29.9039 15.316 29.9384 16.074C29.7449 16.029 29.5454 15.9995 29.3384 15.9995H26.6734C25.2084 15.9995 24.0169 17.191 24.0169 18.656V25.333C24.0169 26.3445 24.5919 27.216 25.4259 27.664L19.0059 30.1845V30.0215C19.0059 29.4695 18.5579 29.0215 18.0059 29.0215H15.0059C14.4539 29.0215 14.0059 29.4695 14.0059 30.0215V31.0215C14.0059 31.5735 14.4539 32.0215 15.0059 32.0215H18.0059C18.0144 32.0215 18.0219 32.019 18.0304 32.019L19.8229 32.012L30.1215 27.969C30.2565 27.913 30.371 27.8295 30.465 27.7295C31.3665 27.304 31.996 26.394 31.996 25.333V18.6559C31.996 18.4929 31.976 18.3344 31.9475 18.1799C31.975 18.0879 31.9945 17.9924 31.995 17.8919L31.9949 17.892ZM2.66091 17.9995H5.35748C5.71998 17.9995 6.01445 18.2935 6.01445 18.656V25.364C6.01445 25.7265 5.71945 26.0205 5.35741 26.0205H2.66095C2.29845 26.0205 2.00448 25.7265 2.00448 25.364V18.656C2.00495 18.2935 2.29895 17.9995 2.66095 17.9995H2.66091ZM26.0164 18.656C26.0164 18.2935 26.3105 17.9995 26.673 17.9995H29.338C29.7005 17.9995 29.9949 18.2935 29.9949 18.656V25.333C29.9949 25.6955 29.6999 25.9895 29.3379 25.9895H26.6729C26.3104 25.9895 26.0164 25.6955 26.0164 25.333V18.656V18.656Z"/>
</g>
<defs>
<clipPath id="clip0_3035_2506">
<rect width="32" height="32" fill="white"/>
</clipPath>
</defs>
</svg>
