<svg width="32" height="32" viewBox="0 0 32 32" fill="black" xmlns="http://www.w3.org/2000/svg">
<path d="M18.6061 0.0225234C18.5521 0.0225234 18.4982 0.0244922 18.4452 0.0284609C18.0922 0.0569922 17.8581 0.174992 17.5807 0.361492C17.4244 0.465661 17.2836 0.591216 17.1622 0.734492C17.1257 0.777494 17.0913 0.822212 17.0591 0.868492L5.85265 15.7C5.41015 16.3065 5.34515 17.107 5.68515 17.776C6.02465 18.445 6.71115 18.869 7.46365 18.8745L13.2366 18.9165L11.4216 29.61C11.2491 30.529 11.7391 31.445 12.6016 31.814C12.8523 31.9218 13.1223 31.9772 13.3951 31.977C14.0236 31.977 14.5401 31.683 14.9276 31.152L26.1481 15.08C26.5906 14.4735 26.6552 13.672 26.3156 13.004C25.9761 12.335 25.2896 11.9109 24.5371 11.9055L18.7641 11.8955L20.5596 2.49296C20.5977 2.33903 20.6168 2.18103 20.6167 2.02246C20.6167 0.940461 19.7551 0.0584609 18.6771 0.0234609C18.6532 0.0224609 18.6296 0.0225234 18.6061 0.0225234Z"/>
</svg>
