<svg width="32" height="32" viewBox="0 0 32 32" fill="white" xmlns="http://www.w3.org/2000/svg">
<g clip-path="url(#clip0_3035_2500)">
<path d="M16.108 10.0439C12.7945 10.0439 10.108 12.7304 10.108 16.0439C10.108 19.3569 12.7945 22.0439 16.108 22.0439C19.4215 22.0439 22.108 19.3574 22.108 16.0439C22.108 12.7304 19.4215 10.0439 16.108 10.0439ZM16.108 20.0439C13.9025 20.0439 12.062 18.2059 12.062 16.0003C12.062 13.7948 13.8565 12.0003 16.062 12.0003C18.268 12.0003 20.062 13.7948 20.062 16.0003C20.062 18.2058 18.314 20.0439 16.108 20.0439ZM31.9895 15.7679C31.978 15.7174 31.9831 15.664 31.968 15.6144C31.9615 15.5935 31.9485 15.5815 31.941 15.563C31.9305 15.5345 31.933 15.501 31.9185 15.4735C29.01 8.81396 22.7416 4.98096 16.0616 4.98096C9.38158 4.98096 2.98758 8.80696 0.0775781 15.467C0.0650781 15.495 0.0670781 15.524 0.0570469 15.556C0.0500781 15.5755 0.0355781 15.5865 0.0290781 15.605C0.0135781 15.6555 0.0195781 15.708 0.0100781 15.759C-0.00839063 15.849 -0.0253906 15.9365 -0.0253906 16.0275C-0.0253906 16.1195 -0.00839063 16.2045 0.0100781 16.2959C0.0200781 16.3459 0.0136094 16.4004 0.0291094 16.4484C0.0356094 16.4709 0.0501094 16.4804 0.0570781 16.5009C0.0675781 16.5284 0.0650781 16.5624 0.0775781 16.5899C2.98808 23.2479 9.31958 27.0184 15.9996 27.0184C22.6801 27.0184 29.0101 23.2559 31.9196 16.5964C31.9341 16.5679 31.9311 16.5379 31.9421 16.5064C31.9491 16.4889 31.9625 16.4759 31.9686 16.4564C31.9841 16.4074 31.9791 16.3539 31.99 16.3029C32.0075 16.2134 32.024 16.1259 32.024 16.0334C32.024 15.9454 32.0075 15.8584 31.9895 15.7679ZM15.9995 25.0185C10.334 25.0185 4.75758 22.032 2.01758 16.0284C4.73158 10.0449 10.3826 6.98143 16.0621 6.98143C21.7396 6.98143 27.2651 10.0484 29.9801 16.0349C27.2671 22.0164 21.679 25.0185 15.9995 25.0185Z"/>
</g>
<defs>
<clipPath id="clip0_3035_2500">
<rect width="32" height="32"/>
</clipPath>
</defs>
</svg>
