<svg width="32" height="32" viewBox="0 0 32 32" fill="none" xmlns="http://www.w3.org/2000/svg">
<g clip-path="url(#clip0_3035_2470)">
<path d="M30 32H20C18.8955 32 18 31.1045 18 30V20C18 18.8955 18.8955 18 20 18H30C31.1045 18 32 18.8955 32 20V30C32 31.1045 31.1045 32 30 32ZM30 20H20V30H30V20ZM30 14H20C18.8955 14 18 13.1045 18 12V2C18 0.8955 18.8955 0 20 0H30C31.1045 0 32 0.8955 32 2V12C32 13.1045 31.1045 14 30 14ZM30 2H20V12H30V2ZM12 32H2C0.8955 32 0 31.1045 0 30V20C0 18.8955 0.8955 18 2 18H12C13.1045 18 14 18.8955 14 20V30C14 31.1045 13.1045 32 12 32ZM12 20H2V30H12V20ZM12 14H2C0.8955 14 0 13.1045 0 12V2C0 0.8955 0.8955 0 2 0H12C13.1045 0 14 0.8955 14 2V12C14 13.1045 13.1045 14 12 14ZM12 2H2V12H12V2Z" fill="black"/>
</g>
<defs>
<clipPath id="clip0_3035_2470">
<rect width="32" height="32" fill="white"/>
</clipPath>
</defs>
</svg>
