<svg width="32" height="32" viewBox="0 0 32 32" fill="white" xmlns="http://www.w3.org/2000/svg">
<g clip-path="url(#clip0_3035_2458)">
<path d="M27 10C27.6875 10 28.3333 10.1302 28.9375 10.3906C29.5417 10.651 30.0677 11.0104 30.5156 11.4688C30.9635 11.9271 31.3229 12.4583 31.5938 13.0625C31.8646 13.6667 32 14.3125 32 15C32 15.5938 31.901 16.1615 31.7031 16.7031C31.5052 17.2448 31.2292 17.7292 30.875 18.1562C30.5208 18.5833 30.099 18.9531 29.6094 19.2656C29.1198 19.5781 28.5833 19.7917 28 19.9062V21.5C28 22.4271 27.8854 23.3281 27.6562 24.2031C27.4271 25.0781 27.1042 25.9115 26.6875 26.7031C26.2708 27.4948 25.7604 28.2083 25.1562 28.8438C24.5521 29.4792 23.8802 30.0365 23.1406 30.5156C22.401 30.9948 21.5938 31.3594 20.7188 31.6094C19.8438 31.8594 18.9375 31.9896 18 32C17.0521 32 16.1458 31.8698 15.2812 31.6094C14.4167 31.349 13.6146 30.9844 12.875 30.5156C12.1354 30.0469 11.4635 29.4896 10.8594 28.8438C10.2552 28.1979 9.74479 27.4844 9.32812 26.7031C8.91146 25.9219 8.58333 25.0938 8.34375 24.2188C8.10417 23.3438 7.98958 22.4375 8 21.5V17.9219C6.71875 17.8073 5.58333 17.5 4.59375 17C3.60417 16.5 2.76562 15.8438 2.07812 15.0312C1.39062 14.2188 0.875 13.276 0.53125 12.2031C0.1875 11.1302 0.0104167 9.96875 0 8.71875V0H5C5.27083 0 5.50521 0.0989583 5.70312 0.296875C5.90104 0.494792 6 0.729167 6 1C6 1.27083 5.90104 1.50521 5.70312 1.70312C5.50521 1.90104 5.27083 2 5 2H2V8.71875C2 9.82292 2.15104 10.8229 2.45312 11.7188C2.75521 12.6146 3.20833 13.3802 3.8125 14.0156C4.41667 14.651 5.14583 15.1406 6 15.4844C6.85417 15.8281 7.85417 16 9 16C10.0521 16 11.0104 15.8385 11.875 15.5156C12.7396 15.1927 13.474 14.7292 14.0781 14.125C14.6823 13.5208 15.1562 12.7917 15.5 11.9375C15.8438 11.0833 16.0104 10.1198 16 9.04688V2H13C12.7292 2 12.4948 1.90104 12.2969 1.70312C12.099 1.50521 12 1.27083 12 1C12 0.729167 12.099 0.494792 12.2969 0.296875C12.4948 0.0989583 12.7292 0 13 0H18V8.71875C18 9.96875 17.8229 11.1302 17.4688 12.2031C17.1146 13.276 16.599 14.2188 15.9219 15.0312C15.2448 15.8438 14.4115 16.5 13.4219 17C12.4323 17.5 11.2917 17.8073 10 17.9219V21.5C10 22.6146 10.1979 23.6823 10.5938 24.7031C10.9896 25.724 11.5469 26.6302 12.2656 27.4219C12.9844 28.2135 13.8281 28.8385 14.7969 29.2969C15.7656 29.7552 16.8333 29.9896 18 30C19.1562 30 20.2188 29.7656 21.1875 29.2969C22.1562 28.8281 23 28.2031 23.7188 27.4219C24.4375 26.6406 24.9948 25.7396 25.3906 24.7188C25.7865 23.6979 25.9896 22.625 26 21.5V19.9062C25.4167 19.7812 24.8802 19.5677 24.3906 19.2656C23.901 18.9635 23.4792 18.599 23.125 18.1719C22.7708 17.7448 22.4948 17.2552 22.2969 16.7031C22.099 16.151 22 15.5833 22 15C22 14.3125 22.1302 13.6667 22.3906 13.0625C22.651 12.4583 23.0052 11.9323 23.4531 11.4844C23.901 11.0365 24.4323 10.6771 25.0469 10.4062C25.6615 10.1354 26.3125 10 27 10ZM27 18C27.4167 18 27.8073 17.9219 28.1719 17.7656C28.5365 17.6094 28.8542 17.3958 29.125 17.125C29.3958 16.8542 29.6094 16.5365 29.7656 16.1719C29.9219 15.8073 30 15.4167 30 15C30 14.5833 29.9219 14.1927 29.7656 13.8281C29.6094 13.4635 29.3958 13.1458 29.125 12.875C28.8542 12.6042 28.5365 12.3906 28.1719 12.2344C27.8073 12.0781 27.4167 12 27 12C26.5833 12 26.1927 12.0781 25.8281 12.2344C25.4635 12.3906 25.1458 12.6042 24.875 12.875C24.6042 13.1458 24.3906 13.4635 24.2344 13.8281C24.0781 14.1927 24 14.5833 24 15C24 15.4167 24.0781 15.8073 24.2344 16.1719C24.3906 16.5365 24.6042 16.8542 24.875 17.125C25.1458 17.3958 25.4635 17.6094 25.8281 17.7656C26.1927 17.9219 26.5833 18 27 18Z"/>
</g>
<defs>
<clipPath id="clip0_3035_2458">
<rect width="32" height="32" fill="white"/>
</clipPath>
</defs>
</svg>
