<svg width="32" height="32" viewBox="0 0 32 32" fill="white" xmlns="http://www.w3.org/2000/svg">
<g clip-path="url(#clip0_3035_2476)">
<path d="M31.4495 6.74782C31.1125 6.59232 30.7125 6.65132 30.432 6.89932L25.391 11.4273L20.84 6.75832L25.346 1.55432C25.591 1.27132 25.6506 0.88132 25.4981 0.53832C25.3456 0.19532 25.0085 -0.0146484 24.6381 -0.0146484H24.3665C21.5815 -0.0146484 16.7735 0.224851 14.627 2.40232L14.194 2.83232C11.904 5.16882 11.4975 9.00032 12.704 11.9128L1.16405 23.6908C-0.391922 25.2683 -0.391922 27.8258 1.16405 29.4038L2.57258 30.8319C3.35055 31.6204 4.37055 32.0149 5.39055 32.0149C6.41005 32.0149 7.43002 31.6204 8.20752 30.8319L19.9175 19.0279C21.025 19.6264 22.5425 20.0174 23.817 20.0174C25.86 20.0174 27.7965 19.1933 29.271 17.6969L29.698 17.2644C32.0295 14.9004 31.9935 9.84882 32.004 7.62632C32.005 7.24832 31.7875 6.90482 31.4495 6.74782H31.4495ZM28.3025 15.9063L27.9315 16.3398C26.8145 17.4733 25.3535 18.0163 23.817 18.0163C23.057 18.0163 22.033 17.8733 21.3415 17.5853C20.7165 17.3258 20.136 16.9513 19.6165 16.4783L6.79845 29.4038C6.42245 29.7858 5.92245 29.9958 5.39042 29.9958C4.85839 29.9958 4.35792 29.7858 3.98142 29.4038L2.57345 27.9763C1.79642 27.1883 1.79642 25.9068 2.57292 25.1188L15.0974 12.3419C14.6774 11.7303 14.3914 11.0638 14.2209 10.3738H14.2204C13.7384 8.42432 14.0194 5.72985 15.5334 4.18482L15.9644 3.74982C17.2629 2.43232 20.6349 2.04282 22.5019 1.92782L18.8344 6.16332C18.5064 6.54232 18.523 7.11332 18.8724 7.47182L24.6704 13.4198C25.0219 13.7818 25.5904 13.8028 25.969 13.4673L30.0504 9.79132C29.9289 11.7713 29.5444 14.6468 28.3025 15.9063H28.3025Z"/>
</g>
<defs>
<clipPath id="clip0_3035_2476">
<rect width="32" height="32" fill="white"/>
</clipPath>
</defs>
</svg>
