<svg width="160" height="127" viewBox="0 0 160 127" fill="none" xmlns="http://www.w3.org/2000/svg">
<path d="M0 0H66.2021L98.6277 63.5L66.2021 127H0L32.4255 63.5L0 0Z" fill="#8570D6"/>
<path d="M20 0H86.2021L118.628 63.5L86.2021 127H20L52.4255 63.5L20 0Z" fill="#8C78DB"/>
<path d="M38.625 0H104.827L137.253 63.5L104.827 127H38.625L71.0505 63.5L38.625 0Z" fill="#927FDD"/>
<path d="M54.625 0H120.827L153.253 63.5L120.827 127H54.625L87.0505 63.5L54.625 0Z" fill="#9F8BED"/>
<path d="M71.2578 0H127.46L159.885 63.5L127.46 127H71.2578L103.683 63.5L71.2578 0Z" fill="white"/>
</svg>
