<svg width="150" height="87" viewBox="0 0 150 87" fill="none" xmlns="http://www.w3.org/2000/svg">
<mask id="mask0_1178_52169" style="mask-type:alpha" maskUnits="userSpaceOnUse" x="0" y="0" width="150" height="87">
<rect width="150" height="87" fill="#D9D9D9"/>
</mask>
<g mask="url(#mask0_1178_52169)">
<path d="M-10 -20H56.2021L88.6277 43.5L56.2021 107H-10L22.4255 43.5L-10 -20Z" fill="#8570D6"/>
<path d="M10 -20H76.2021L108.628 43.5L76.2021 107H10L42.4255 43.5L10 -20Z" fill="#8C78DB"/>
<path d="M28.625 -20H94.8271L127.253 43.5L94.8271 107H28.625L61.0505 43.5L28.625 -20Z" fill="#927FDD"/>
<path d="M44.625 -20H110.827L143.253 43.5L110.827 107H44.625L77.0505 43.5L44.625 -20Z" fill="#9F8BED"/>
<path d="M61.2578 -20H117.46L149.885 43.5L117.46 107H61.2578L93.6833 43.5L61.2578 -20Z" fill="white"/>
</g>
</svg>
