<svg width="246" height="127" viewBox="0 0 246 127" fill="none" xmlns="http://www.w3.org/2000/svg">
<path d="M0 0H66.2021L98.6277 63.5L66.2021 127H0L32.4255 63.5L0 0Z" fill="#8570D6"/>
<path d="M30 0H96.2021L128.628 63.5L96.2021 127H30L62.4255 63.5L30 0Z" fill="#8C78DB"/>
<path d="M68.625 0H134.827L167.253 63.5L134.827 127H68.625L101.051 63.5L68.625 0Z" fill="#927FDD"/>
<path d="M107.258 0H173.46L205.885 63.5L173.46 127H107.258L139.683 63.5L107.258 0Z" fill="#9F8BED"/>
<path d="M147.258 0H213.46L245.885 63.5L213.46 127H147.258L179.683 63.5L147.258 0Z" fill="white"/>
</svg>
