<svg width="240" height="102" viewBox="0 0 240 102" fill="none" xmlns="http://www.w3.org/2000/svg">
<mask id="mask0_1178_52163" style="mask-type:alpha" maskUnits="userSpaceOnUse" x="0" y="0" width="240" height="102">
<rect width="240" height="102" fill="#D9D9D9"/>
</mask>
<g mask="url(#mask0_1178_52163)">
<path d="M-6 -12H60.2021L92.6277 51.5L60.2021 115H-6L26.4255 51.5L-6 -12Z" fill="#8570D6"/>
<path d="M24 -12H90.2021L122.628 51.5L90.2021 115H24L56.4255 51.5L24 -12Z" fill="#8C78DB"/>
<path d="M62.625 -12H128.827L161.253 51.5L128.827 115H62.625L95.0505 51.5L62.625 -12Z" fill="#927FDD"/>
<path d="M101.258 -12H167.46L199.885 51.5L167.46 115H101.258L133.683 51.5L101.258 -12Z" fill="#9F8BED"/>
<path d="M141.258 -12H207.46L239.885 51.5L207.46 115H141.258L173.683 51.5L141.258 -12Z" fill="white"/>
</g>
</svg>
