<svg width="56" height="56" viewBox="0 0 56 56" fill="none" xmlns="http://www.w3.org/2000/svg">
<g id="Group 108003">
<path id="Rectangle 534" d="M0.873047 12.5117C0.873047 5.8843 6.24563 0.511719 12.873 0.511719H43.7087C50.3361 0.511719 55.7087 5.8843 55.7087 12.5117V43.3474C55.7087 49.9748 50.3361 55.3474 43.7087 55.3474H12.873C6.24563 55.3474 0.873047 49.9748 0.873047 43.3474V12.5117Z" fill="white"/>
<g id="Group 107970">
<g id="Group 107940">
<path id="Intersect" fill-rule="evenodd" clip-rule="evenodd" d="M42.4106 34.855C42.4106 34.855 41.0996 33.1133 41.0996 31.1604C41.0996 29.2075 42.4106 27.4629 42.4106 27.4629H43.7656C43.7656 27.4629 42.4767 29.2012 42.4767 31.1589C42.4767 33.1167 43.7656 34.855 43.7656 34.855H42.4106Z" fill="#FFDF8D"/>
<path id="Intersect_2" fill-rule="evenodd" clip-rule="evenodd" d="M41.0414 34.855C41.0414 34.855 39.7305 33.1133 39.7305 31.1604C39.7305 29.2075 41.0414 27.4629 41.0414 27.4629H42.3964C42.3964 27.4629 41.1076 29.2012 41.1076 31.1589C41.1076 33.1167 42.3964 34.855 42.3964 34.855H41.0414Z" fill="#FFE6A5"/>
<path id="Intersect_3" fill-rule="evenodd" clip-rule="evenodd" d="M45.1489 34.855C45.1489 34.855 43.8379 33.1133 43.8379 31.1604C43.8379 29.2075 45.1489 27.4629 45.1489 27.4629H46.5039C46.5039 27.4629 45.215 29.2012 45.215 31.1589C45.215 33.1167 46.5039 34.855 46.5039 34.855H45.1489Z" fill="#FFD15B"/>
<path id="Intersect_4" fill-rule="evenodd" clip-rule="evenodd" d="M43.7797 34.855C43.7797 34.855 42.4688 33.1133 42.4688 31.1604C42.4688 29.2075 43.7797 27.4629 43.7797 27.4629H45.1347C45.1347 27.4629 43.8459 29.2012 43.8459 31.1589C43.8459 33.1167 45.1347 34.855 45.1347 34.855H43.7797Z" fill="#FFD874"/>
</g>
<path id="Subtract" fill-rule="evenodd" clip-rule="evenodd" d="M46.4972 34.8518V41.231H42.4048V39.2401C40.718 40.5121 38.6165 41.2587 36.3491 41.2587C33.0585 41.2587 30.1275 39.6825 28.2748 37.2492C26.4222 39.6825 23.4911 41.2587 20.2006 41.2587C14.6149 41.2587 10.0801 36.7238 10.0801 31.1382V14.6025H14.1449V23.0086C15.8316 21.7643 17.9055 21.0177 20.1729 21.0177C23.4634 21.0177 26.3945 22.5939 28.2472 25.0272C30.0998 22.5939 33.0309 21.0177 36.3214 21.0177C38.5889 21.0177 40.6904 21.7643 42.3771 23.0363V21.0177H46.4972V27.4605H41.0499C39.9714 26.0503 38.257 25.1378 36.3214 25.1378C32.9756 25.1378 30.2934 27.8477 30.2934 31.1658C30.2934 34.484 33.0032 37.1662 36.3214 37.1662C38.2532 37.1662 39.9647 36.2573 41.071 34.8518H46.4972ZM20.2006 37.1662C23.5464 37.1662 26.2286 34.4564 26.2286 31.1382C26.2009 27.7923 23.5187 25.1101 20.2006 25.1101C16.8547 25.1101 14.1725 27.82 14.1725 31.1382C14.1725 34.484 16.8824 37.1662 20.2006 37.1662Z" fill="#404266"/>
</g>
</g>
</svg>
