<svg width="48" height="48" viewBox="0 0 48 48" fill="none" xmlns="http://www.w3.org/2000/svg">
<path d="M13.6 34C12.885 34 12.2731 33.7554 11.7644 33.2663C11.2548 32.7763 11 32.1875 11 31.5V16.5C11 15.8125 11.2548 15.2242 11.7644 14.735C12.2731 14.245 12.885 14 13.6 14H34.4C35.115 14 35.7273 14.245 36.2369 14.735C36.7456 15.2242 37 15.8125 37 16.5V31.5C37 32.1875 36.7456 32.7763 36.2369 33.2663C35.7273 33.7554 35.115 34 34.4 34H13.6ZM24 25.25L13.6 19V31.5H34.4V19L24 25.25ZM24 22.75L34.4 16.5H13.6L24 22.75ZM13.6 19V16.5V31.5V19Z" fill="white"/>
</svg>
