<svg width="48" height="48" viewBox="0 0 48 48" fill="none" xmlns="http://www.w3.org/2000/svg">
<path d="M30.386 27.8C30.494 26.876 30.575 25.952 30.575 25C30.575 24.048 30.494 23.124 30.386 22.2H34.949C35.165 23.096 35.3 24.034 35.3 25C35.3 25.966 35.165 26.904 34.949 27.8M27.9965 35.584C28.8065 34.03 29.4275 32.35 29.8595 30.6H33.842C32.5341 32.9356 30.4591 34.7048 27.9965 35.584ZM27.659 27.8H21.341C21.206 26.876 21.125 25.952 21.125 25C21.125 24.048 21.206 23.11 21.341 22.2H27.659C27.7805 23.11 27.875 24.048 27.875 25C27.875 25.952 27.7805 26.876 27.659 27.8ZM24.5 36.144C23.3795 34.464 22.475 32.602 21.9215 30.6H27.0785C26.525 32.602 25.6205 34.464 24.5 36.144ZM19.1 19.4H15.158C16.4525 17.0581 18.526 15.2861 20.99 14.416C20.18 15.97 19.5725 17.65 19.1 19.4ZM15.158 30.6H19.1C19.5725 32.35 20.18 34.03 20.99 35.584C18.5311 34.7043 16.4605 32.9348 15.158 30.6ZM14.051 27.8C13.835 26.904 13.7 25.966 13.7 25C13.7 24.034 13.835 23.096 14.051 22.2H18.614C18.506 23.124 18.425 24.048 18.425 25C18.425 25.952 18.506 26.876 18.614 27.8M24.5 13.842C25.6205 15.522 26.525 17.398 27.0785 19.4H21.9215C22.475 17.398 23.3795 15.522 24.5 13.842ZM33.842 19.4H29.8595C29.437 17.666 28.8113 15.9923 27.9965 14.416C30.4805 15.298 32.546 17.076 33.842 19.4ZM24.5 11C17.0345 11 11 17.3 11 25C11 28.713 12.4223 32.274 14.9541 34.8995C16.2076 36.1995 17.6959 37.2307 19.3338 37.9343C20.9717 38.6379 22.7272 39 24.5 39C28.0804 39 31.5142 37.525 34.0459 34.8995C36.5777 32.274 38 28.713 38 25C38 23.1615 37.6508 21.341 36.9724 19.6424C36.2939 17.9439 35.2995 16.4005 34.0459 15.1005C32.7924 13.8005 31.3041 12.7693 29.6662 12.0657C28.0283 11.3621 26.2728 11 24.5 11Z" fill="white"/>
</svg>
