<svg width="49" height="48" viewBox="0 0 49 48" fill="none" xmlns="http://www.w3.org/2000/svg">
<g clip-path="url(#clip0_2717_1509)">
<path d="M38.3696 27H45.1665C46.8071 27 48.1665 28.3594 48.1665 30V45C48.1665 46.6406 46.8071 48 45.1665 48H30.1665C28.5259 48 27.1665 46.6406 27.1665 45V30C27.1665 28.3594 28.5259 27 30.1665 27H35.4634V25.2188H12.8228V27H18.1665C19.8071 27 21.1665 28.3594 21.1665 30V45C21.1665 46.6406 19.8071 48 18.1665 48H3.1665C1.52588 48 0.166504 46.6406 0.166504 45V30C0.166504 28.3594 1.52588 27 3.1665 27H9.9165V24.1875C9.9165 23.1562 11.229 22.6406 12.4009 22.6406H22.7134V20.9531H16.2446C14.604 20.9531 13.2446 19.5938 13.2446 17.9531V2.95312C13.2446 1.3125 14.604 -0.046875 16.2446 -0.046875H31.2446C32.8853 -0.046875 34.2446 1.3125 34.2446 2.95312V17.9531C34.2446 19.5938 32.8853 20.9531 31.2446 20.9531H25.7134V22.6875C29.604 22.6875 31.9946 22.6406 35.8853 22.6406C37.0571 22.6406 38.3696 23.1094 38.3696 24.1875V27ZM31.2446 2.95312H16.2446V17.9531H31.2446V2.95312ZM18.1665 30H3.1665V45H18.1665V30Z" fill="white"/>
</g>
<defs>
<clipPath id="clip0_2717_1509">
<rect width="48" height="48" fill="white" transform="translate(0.166504)"/>
</clipPath>
</defs>
</svg>
