<svg width="49" height="48" viewBox="0 0 49 48" fill="none" xmlns="http://www.w3.org/2000/svg">
<g clip-path="url(#clip0_2717_1529)">
<path d="M35.8018 39.1538L26.3578 33.9225C29.8678 31.161 30.8211 25.734 30.8211 22.6912V16.3574C30.8211 12.1634 25.2486 7.49241 19.6513 7.49241C14.0556 7.49241 8.3353 12.1642 8.3353 16.3574V22.6912C8.3353 25.4579 9.50601 31.0552 13.0521 33.8985L3.36426 39.1537C3.36426 39.1537 0.833008 40.2817 0.833008 41.688V45.489C0.833008 46.8877 1.96846 48.0232 3.36426 48.0232H35.8018C37.199 48.0232 38.3345 46.8877 38.3345 45.489V41.688C38.3345 40.197 35.8018 39.1538 35.8018 39.1538ZM46.3004 31.6845L36.7161 26.4532C40.2261 23.6917 41.3203 18.2647 41.3203 15.222V8.8882C41.3203 4.6942 35.6076 -0.0240479 30.0103 -0.0240479C26.3728 -0.0240479 22.6536 1.9537 20.4891 4.4865C21.7236 4.56295 23.0849 4.5645 24.2609 4.9395C25.8411 3.70875 27.8406 2.97675 30.0104 2.97675C34.3431 2.97675 38.3203 6.68245 38.3203 8.889V15.2227C38.3203 17.5725 37.4503 22.059 34.8621 24.0952C34.4719 24.4025 34.164 24.8016 33.9658 25.2569C33.7677 25.7123 33.6855 26.2096 33.7266 26.7045C33.7683 27.1991 33.932 27.6757 34.2029 28.0916C34.4738 28.5075 34.8435 28.8498 35.2791 29.088L44.8634 34.3192C44.9466 34.365 45.0524 34.4145 45.1401 34.4528C45.3614 34.5465 45.6336 34.7032 45.8331 34.8412V37.509H39.7776C40.6918 38.199 40.9686 39.186 41.3234 40.509H46.3011C47.6983 40.509 48.8338 39.3735 48.8338 37.9747V34.2202C48.8331 32.7277 46.3004 31.6845 46.3004 31.6845Z" fill="#5F618C"/>
</g>
<defs>
<clipPath id="clip0_2717_1529">
<rect width="48" height="48" fill="white" transform="translate(0.833008)"/>
</clipPath>
</defs>
</svg>
