<svg width="32" height="33" viewBox="0 0 32 33" fill="none" xmlns="http://www.w3.org/2000/svg">
<path d="M29.3327 22.82V6.72665C29.3327 5.12665 28.026 3.93999 26.4393 4.07332H26.3593C23.5593 4.31332 19.306 5.73999 16.9327 7.23332L16.706 7.37999C16.3193 7.61999 15.6793 7.61999 15.2927 7.37999L14.9593 7.17999C12.586 5.69999 8.34601 4.28665 5.54602 4.05999C3.95935 3.92665 2.66602 5.12665 2.66602 6.71332V22.82C2.66602 24.1 3.70602 25.3 4.98602 25.46L5.37268 25.5133C8.26602 25.9 12.7327 27.3667 15.2927 28.7667L15.346 28.7933C15.706 28.9933 16.2793 28.9933 16.626 28.7933C19.186 27.38 23.666 25.9 26.5727 25.5133L27.0127 25.46C28.2927 25.3 29.3327 24.1 29.3327 22.82Z" stroke="#404266" stroke-width="2" stroke-linecap="round" stroke-linejoin="round"/>
<path d="M16 7.82001V27.82" stroke="#404266" stroke-width="2" stroke-linecap="round" stroke-linejoin="round"/>
<path d="M10.334 11.82H7.33398" stroke="#404266" stroke-width="2" stroke-linecap="round" stroke-linejoin="round"/>
<path d="M11.334 15.82H7.33398" stroke="#404266" stroke-width="2" stroke-linecap="round" stroke-linejoin="round"/>
</svg>
