<svg width="32" height="33" viewBox="0 0 32 33" fill="none" xmlns="http://www.w3.org/2000/svg">
<path d="M25.3327 12.5C25.3327 14.4334 24.7593 16.2067 23.7727 17.6867C22.3327 19.82 20.0527 21.3267 17.3993 21.7134C16.946 21.7934 16.4793 21.8334 15.9993 21.8334C15.5193 21.8334 15.0527 21.7934 14.5993 21.7134C11.946 21.3267 9.66602 19.82 8.22602 17.6867C7.23935 16.2067 6.66602 14.4334 6.66602 12.5C6.66602 7.34002 10.8393 3.16669 15.9993 3.16669C21.1593 3.16669 25.3327 7.34002 25.3327 12.5Z" stroke="#404266" stroke-width="2" stroke-linecap="round" stroke-linejoin="round"/>
<path d="M28.3328 25.1267L26.1328 25.6467C25.6395 25.7667 25.2528 26.14 25.1461 26.6334L24.6795 28.5934C24.4261 29.66 23.0661 29.98 22.3595 29.14L15.9995 21.8334L9.63945 29.1533C8.93279 29.9933 7.57279 29.6733 7.31945 28.6067L6.85279 26.6467C6.73279 26.1533 6.34612 25.7667 5.86612 25.66L3.66612 25.14C2.65279 24.9 2.29279 23.6333 3.02612 22.9L8.22612 17.7C9.66612 19.8333 11.9461 21.34 14.5995 21.7267C15.0528 21.8067 15.5195 21.8467 15.9995 21.8467C16.4795 21.8467 16.9461 21.8067 17.3995 21.7267C20.0528 21.34 22.3328 19.8333 23.7728 17.7L28.9728 22.9C29.7061 23.62 29.3461 24.8867 28.3328 25.1267Z" stroke="#404266" stroke-width="2" stroke-linecap="round" stroke-linejoin="round"/>
<path d="M16.7726 8.47331L17.5593 10.0466C17.666 10.26 17.946 10.4733 18.1993 10.5133L19.626 10.7533C20.5326 10.9 20.746 11.5666 20.0926 12.22L18.986 13.3266C18.7993 13.5133 18.6926 13.8733 18.7593 14.14L19.0793 15.5133C19.3326 16.5933 18.7593 17.02 17.7993 16.4466L16.466 15.66C16.226 15.5133 15.826 15.5133 15.586 15.66L14.2526 16.4466C13.2926 17.0066 12.7193 16.5933 12.9726 15.5133L13.2926 14.14C13.346 13.8866 13.2526 13.5133 13.066 13.3266L11.9593 12.22C11.306 11.5666 11.5193 10.9133 12.426 10.7533L13.8526 10.5133C14.0926 10.4733 14.3726 10.26 14.4793 10.0466L15.266 8.47331C15.6526 7.61998 16.346 7.61998 16.7726 8.47331Z" stroke="#404266" stroke-width="2" stroke-linecap="round" stroke-linejoin="round"/>
</svg>
