<svg width="32" height="29" viewBox="0 0 32 29" fill="none" xmlns="http://www.w3.org/2000/svg">
<path id="&#226;&#128;&#156;" d="M32 0.295315L31.2741 5.85684C29.4997 5.73725 28.1285 6.05619 27.1607 6.81367C26.1928 7.57116 25.5476 8.62765 25.225 9.98314C24.9023 11.3386 24.8418 12.8735 25.0435 14.5879H32V29H18.6314V13.3918C18.6314 8.68745 19.7606 5.13923 22.0189 2.74717C24.3176 0.31525 27.6446 -0.502036 32 0.295315ZM13.3686 0.295315L12.6427 5.85684C10.8683 5.73725 9.49717 6.05619 8.5293 6.81367C7.56144 7.57116 6.91619 8.62765 6.59357 9.98314C6.27095 11.3386 6.21046 12.8735 6.4121 14.5879H13.3686V29H0V13.3918C0 8.68745 1.12917 5.13923 3.38752 2.74717C5.6862 0.31525 9.01323 -0.502036 13.3686 0.295315Z" fill="#DDBE6F"/>
</svg>
