<svg width="32" height="29" viewBox="0 0 32 29" fill="none" xmlns="http://www.w3.org/2000/svg">
<path id="&#226;&#128;&#156;" d="M0 28.7047L0.725895 23.1432C2.50031 23.2628 3.87145 22.9438 4.83932 22.1863C5.80718 21.4288 6.45243 20.3724 6.77505 19.0169C7.09767 17.6614 7.15816 16.1265 6.95652 14.4121H0V0H13.3686V15.6082C13.3686 20.3126 12.2394 23.8608 9.98109 26.2528C7.68242 28.6847 4.35539 29.502 0 28.7047ZM18.6314 28.7047L19.3573 23.1432C21.1317 23.2628 22.5028 22.9438 23.4707 22.1863C24.4386 21.4288 25.0838 20.3724 25.4064 19.0169C25.729 17.6614 25.7895 16.1265 25.5879 14.4121H18.6314V0H32V15.6082C32 20.3126 30.8708 23.8608 28.6125 26.2528C26.3138 28.6847 22.9868 29.502 18.6314 28.7047Z" fill="#DDBE6F"/>
</svg>
