<svg width="24" height="24" viewBox="0 0 24 24" fill="none" xmlns="http://www.w3.org/2000/svg">
<path d="M6 3.6275C5.5367 3.94969 5.15829 4.37924 4.89708 4.87946C4.63587 5.37967 4.49963 5.93569 4.5 6.5C4.49968 7.10392 4.65571 7.69763 4.95292 8.22335C5.25013 8.74907 5.67838 9.18889 6.196 9.5M18 3.6275C18.4633 3.94969 18.8417 4.37924 19.1029 4.87946C19.3641 5.37967 19.5004 5.93569 19.5 6.5C19.5004 7.06431 19.3641 7.62033 19.1029 8.12054C18.8417 8.62076 18.4633 9.05031 18 9.3725M22 21V20.4C22 18.16 22 17.04 21.564 16.184C21.1805 15.4314 20.5686 14.8195 19.816 14.436M2 21V20.4C2 18.16 2 17.04 2.436 16.184C2.81949 15.4314 3.43139 14.8195 4.184 14.436M12 10C12.4596 10 12.9148 9.90947 13.3394 9.73358C13.764 9.55769 14.1499 9.29988 14.4749 8.97487C14.7999 8.64987 15.0577 8.26403 15.2336 7.83939C15.4095 7.41475 15.5 6.95963 15.5 6.5C15.5 6.04037 15.4095 5.58525 15.2336 5.16061C15.0577 4.73597 14.7999 4.35013 14.4749 4.02513C14.1499 3.70012 13.764 3.44231 13.3394 3.26642C12.9148 3.09053 12.4596 3 12 3C11.0717 3 10.1815 3.36875 9.52513 4.02513C8.86875 4.6815 8.5 5.57174 8.5 6.5C8.5 7.42826 8.86875 8.3185 9.52513 8.97487C10.1815 9.63125 11.0717 10 12 10V10ZM6 20V21H18V20C18 18.1365 18 17.2045 17.6955 16.469C17.2894 15.489 16.5106 14.7104 15.5305 14.3045C14.7955 14 13.8635 14 12 14C10.1365 14 9.2045 14 8.4695 14.3045C7.98414 14.5055 7.54313 14.8002 7.17165 15.1717C6.80018 15.5431 6.50552 15.9841 6.3045 16.4695C6 17.204 6 18.1365 6 20Z" stroke="#918F92" stroke-width="2" stroke-linecap="round" stroke-linejoin="round"/>
</svg>
